ply
format ascii 1.0
comment Created by Blender 3.6.0 - www.blender.org
element vertex 39
property float x
property float y
property float z
property float nx
property float ny
property float nz
property uchar red
property uchar green
property uchar blue
property uchar alpha
element face 13
property list uchar uint vertex_indices
end_header
-0.415513 0.644401 0.156250 -0.000000 -0.000000 1.000000 25 30 47 255
-0.224692 0.095902 0.156250 -0.000000 -0.000000 1.000000 25 30 47 255
0.379529 0.785003 0.156250 -0.000000 -0.000000 1.000000 25 30 47 255
-0.415513 0.644401 0.156250 -0.000000 -0.000000 1.000000 25 30 47 255
-0.746960 -0.134439 0.156250 -0.000000 -0.000000 1.000000 25 30 47 255
-0.224692 0.095902 0.156250 -0.000000 -0.000000 1.000000 25 30 47 255
0.115887 0.034251 0.125000 -0.000000 -0.000000 1.000000 36 36 53 255
0.379529 0.785003 0.125000 -0.000000 -0.000000 1.000000 36 36 53 255
-0.105985 0.235574 0.125000 -0.000000 -0.000000 1.000000 36 36 53 255
0.115887 0.034251 0.125000 -0.000000 -0.000000 1.000000 36 36 53 255
0.708811 0.134542 0.125001 -0.000000 -0.000000 1.000000 36 36 53 255
0.379529 0.785003 0.125000 -0.000000 -0.000000 1.000000 36 36 53 255
-0.512702 -0.999617 0.093750 -0.000000 -0.000000 1.000000 105 108 135 255
0.329200 -0.147665 0.093750 -0.000000 -0.000000 1.000000 105 108 135 255
-1.000000 -0.154210 0.093750 -0.000000 -0.000000 1.000000 105 108 135 255
-0.598386 0.836712 0.093750 -0.000000 -0.000000 1.000000 105 108 135 255
0.329200 -0.147665 0.093750 -0.000000 -0.000000 1.000000 105 108 135 255
0.530108 1.000000 0.093750 -0.000000 -0.000000 1.000000 105 108 135 255
0.530108 1.000000 0.093750 -0.000000 -0.000000 1.000000 105 108 135 255
0.329200 -0.147665 0.093750 -0.000000 -0.000000 1.000000 105 108 135 255
1.000040 -0.021569 0.093751 -0.000000 -0.000000 1.000000 105 108 135 255
-0.512702 -0.999617 0.093750 -0.000000 -0.000000 1.000000 105 108 135 255
0.313414 -0.751183 0.093750 -0.000000 -0.000000 1.000000 105 108 135 255
0.329200 -0.147665 0.093750 -0.000000 -0.000000 1.000000 105 108 135 255
-0.598386 0.836712 0.093750 -0.000000 -0.000000 1.000000 105 108 135 255
-1.000000 -0.154210 0.093750 -0.000000 -0.000000 1.000000 105 108 135 255
0.329200 -0.147665 0.093750 -0.000000 -0.000000 1.000000 105 108 135 255
-0.407144 -0.737957 0.187500 -0.000000 -0.000000 1.000000 39 39 65 255
-0.224692 0.095902 0.187500 -0.000000 -0.000000 1.000000 39 39 65 255
-0.746960 -0.134439 0.187500 -0.000000 -0.000000 1.000000 39 39 65 255
0.115887 0.034251 0.187500 -0.000000 0.000000 1.000000 39 39 65 255
-0.224692 0.095902 0.187500 -0.000000 0.000000 1.000000 39 39 65 255
0.096548 -0.593182 0.187500 -0.000000 0.000000 1.000000 39 39 65 255
-0.407144 -0.737957 0.187500 -0.000000 -0.000000 1.000000 39 39 65 255
0.096548 -0.593182 0.187500 -0.000000 -0.000000 1.000000 39 39 65 255
-0.224692 0.095902 0.187500 -0.000000 -0.000000 1.000000 39 39 65 255
0.115887 0.034251 0.187500 -0.000000 -0.000000 1.000000 39 39 65 255
-0.105985 0.235574 0.187500 -0.000000 -0.000000 1.000000 39 39 65 255
-0.224692 0.095902 0.187500 -0.000000 -0.000000 1.000000 39 39 65 255
3 0 1 2
3 3 4 5
3 6 7 8
3 9 10 11
3 12 13 14
3 15 16 17
3 18 19 20
3 21 22 23
3 24 25 26
3 27 28 29
3 30 31 32
3 33 34 35
3 36 37 38
