ply
format ascii 1.0
comment Created by Blender 3.6.0 - www.blender.org
element vertex 27
property float x
property float y
property float z
property float nx
property float ny
property float nz
property uchar red
property uchar green
property uchar blue
property uchar alpha
element face 13
property list uchar uint vertex_indices
end_header
-0.420775 0.628618 0.052084 -0.000000 -0.000000 1.000000 25 30 47 255
-0.224692 0.095902 0.052084 -0.000000 -0.000000 1.000000 25 30 47 255
0.380882 0.808425 0.052084 -0.000000 -0.000000 1.000000 25 30 47 255
-0.760190 -0.147665 0.052083 -0.000000 -0.000000 1.000000 25 30 47 255
0.129117 0.001184 0.041667 -0.000000 0.000000 1.000000 36 36 53 255
0.380882 0.808425 0.041667 -0.000000 0.000000 1.000000 36 36 53 255
-0.105985 0.235574 0.041667 -0.000000 0.000000 1.000000 36 36 53 255
0.732813 0.102325 0.041667 -0.000000 0.000000 1.000000 36 36 53 255
-0.512702 -0.999617 0.031250 -0.000000 0.000000 1.000000 105 108 135 255
0.261542 -0.110752 0.031250 -0.000000 0.000000 1.000000 105 108 135 255
-1.000000 -0.154210 0.031250 -0.000000 0.000000 1.000000 105 108 135 255
-0.584355 0.813915 0.031250 -0.000000 -0.000000 1.000000 105 108 135 255
0.261542 -0.110752 0.031250 -0.000000 -0.000000 1.000000 105 108 135 255
0.503798 1.000000 0.031250 -0.000000 -0.000000 1.000000 105 108 135 255
0.503798 1.000000 0.031250 -0.000000 -0.000000 1.000000 105 108 135 255
0.261542 -0.110752 0.031250 -0.000000 -0.000000 1.000000 105 108 135 255
1.000040 -0.009294 0.031251 -0.000000 -0.000000 1.000000 105 108 135 255
0.233191 -0.794328 0.031250 -0.000000 0.000000 1.000000 105 108 135 255
-1.000000 -0.154210 0.031250 -0.000000 0.000000 1.000000 105 108 135 255
-0.420374 -0.751183 0.062500 -0.000000 -0.000000 1.000000 39 39 65 255
-0.224692 0.095902 0.062500 -0.000000 -0.000000 1.000000 39 39 65 255
-0.760190 -0.147665 0.062500 -0.000000 -0.000000 1.000000 39 39 65 255
0.129117 0.001184 0.062500 -0.000000 0.000000 1.000000 39 39 65 255
-0.224692 0.095902 0.062500 -0.000000 0.000000 1.000000 39 39 65 255
0.105229 -0.580782 0.062500 -0.000000 0.000000 1.000000 39 39 65 255
0.105229 -0.580782 0.062500 -0.000000 -0.000000 1.000000 39 39 65 255
-0.105985 0.235574 0.062500 -0.000000 0.000000 1.000000 39 39 65 255
3 0 1 2
3 0 3 1
3 4 5 6
3 4 7 5
3 8 9 10
3 11 12 13
3 14 15 16
3 8 17 9
3 11 18 12
3 19 20 21
3 22 23 24
3 19 25 20
3 22 26 23
