ply
format ascii 1.0
comment Created by Blender 3.6.0 - www.blender.org
element vertex 27
property float x
property float y
property float z
property float nx
property float ny
property float nz
property uchar red
property uchar green
property uchar blue
property uchar alpha
element face 13
property list uchar uint vertex_indices
end_header
-0.415513 0.644401 0.052084 -0.000000 0.000000 1.000000 25 30 47 255
-0.224692 0.095902 0.052084 -0.000000 0.000000 1.000000 25 30 47 255
0.379529 0.785003 0.052084 -0.000000 0.000000 1.000000 25 30 47 255
-0.746960 -0.134439 0.052083 -0.000000 0.000000 1.000000 25 30 47 255
0.115887 0.034251 0.041667 -0.000000 0.000000 1.000000 36 36 53 255
0.379529 0.785003 0.041667 -0.000000 -0.000000 1.000000 36 36 53 255
-0.105985 0.235574 0.041667 -0.000000 0.000000 1.000000 36 36 53 255
0.708811 0.134542 0.041667 -0.000000 -0.000000 1.000000 36 36 53 255
-0.512702 -0.999617 0.031250 -0.000000 0.000000 1.000000 105 108 135 255
0.329200 -0.147665 0.031250 -0.000000 0.000000 1.000000 105 108 135 255
-1.000000 -0.154210 0.031250 -0.000000 0.000000 1.000000 105 108 135 255
-0.598386 0.836712 0.031250 -0.000000 -0.000000 1.000000 105 108 135 255
0.329200 -0.147665 0.031250 -0.000000 -0.000000 1.000000 105 108 135 255
0.530108 1.000000 0.031250 -0.000000 -0.000000 1.000000 105 108 135 255
0.530108 1.000000 0.031250 -0.000000 -0.000000 1.000000 105 108 135 255
0.329200 -0.147665 0.031250 -0.000000 -0.000000 1.000000 105 108 135 255
1.000040 -0.021569 0.031251 -0.000000 -0.000000 1.000000 105 108 135 255
0.313414 -0.751183 0.031250 -0.000000 0.000000 1.000000 105 108 135 255
-1.000000 -0.154210 0.031250 -0.000000 0.000000 1.000000 105 108 135 255
-0.407144 -0.737957 0.062500 -0.000000 -0.000000 1.000000 39 39 65 255
-0.224692 0.095902 0.062500 -0.000000 0.000000 1.000000 39 39 65 255
-0.746960 -0.134439 0.062500 -0.000000 0.000000 1.000000 39 39 65 255
0.115887 0.034251 0.062500 -0.000000 0.000000 1.000000 39 39 65 255
-0.224692 0.095902 0.062500 -0.000000 0.000000 1.000000 39 39 65 255
0.096548 -0.593182 0.062500 -0.000000 -0.000000 1.000000 39 39 65 255
0.096548 -0.593182 0.062500 -0.000000 -0.000000 1.000000 39 39 65 255
-0.105985 0.235574 0.062500 -0.000000 0.000000 1.000000 39 39 65 255
3 0 1 2
3 0 3 1
3 4 5 6
3 4 7 5
3 8 9 10
3 11 12 13
3 14 15 16
3 8 17 9
3 11 18 12
3 19 20 21
3 22 23 24
3 19 25 20
3 22 26 23
