ply
format ascii 1.0
comment Created by Blender 3.6.0 - www.blender.org
element vertex 27
property float x
property float y
property float z
property float nx
property float ny
property float nz
property uchar red
property uchar green
property uchar blue
property uchar alpha
element face 13
property list uchar uint vertex_indices
end_header
-0.470450 0.660924 0.052084 -0.000000 -0.000000 1.000000 25 30 47 255
-0.251272 0.077934 0.052084 -0.000000 -0.000000 1.000000 25 30 47 255
0.425630 0.857700 0.052084 -0.000000 -0.000000 1.000000 25 30 47 255
-0.849843 -0.188620 0.052083 -0.000000 -0.000000 1.000000 25 30 47 255
0.144211 -0.025723 0.041667 -0.000000 -0.000000 1.000000 36 36 53 255
0.425630 0.857700 0.041667 -0.000000 -0.000000 1.000000 36 36 53 255
-0.118582 0.230787 0.041667 -0.000000 -0.000000 1.000000 36 36 53 255
0.819014 0.084963 0.041667 -0.000000 -0.000000 1.000000 36 36 53 255
-0.534943 -0.999617 0.031250 -0.000000 -0.000000 1.000000 105 108 135 255
0.266427 -0.110752 0.031250 -0.000000 -0.000000 1.000000 105 108 135 255
-1.000000 -0.208770 0.031250 -0.000000 0.000000 1.000000 105 108 135 255
-0.560645 0.807302 0.031250 -0.000000 0.000000 1.000000 105 108 135 255
-1.000000 -0.208770 0.031250 -0.000000 0.000000 1.000000 105 108 135 255
0.266427 -0.110752 0.031250 -0.000000 0.000000 1.000000 105 108 135 255
0.266427 -0.110752 0.031250 -0.000000 0.000000 1.000000 105 108 135 255
0.507080 1.000000 0.031250 -0.000000 0.000000 1.000000 105 108 135 255
-0.560645 0.807302 0.031250 -0.000000 0.000000 1.000000 105 108 135 255
0.238264 -0.794328 0.031250 -0.000000 -0.000000 1.000000 105 108 135 255
1.000040 -0.009294 0.031251 -0.000000 -0.000000 1.000000 105 108 135 255
-0.470001 -0.849095 0.062500 -0.000000 -0.000000 1.000000 39 39 65 255
-0.251272 0.077934 0.062500 -0.000000 -0.000000 1.000000 39 39 65 255
-0.849843 -0.188620 0.062500 -0.000000 -0.000000 1.000000 39 39 65 255
0.144211 -0.025723 0.062500 -0.000000 -0.000000 1.000000 39 39 65 255
-0.251272 0.077934 0.062500 -0.000000 -0.000000 1.000000 39 39 65 255
0.117510 -0.662613 0.062500 -0.000000 0.000000 1.000000 39 39 65 255
0.117510 -0.662613 0.062500 -0.000000 -0.000000 1.000000 39 39 65 255
-0.118582 0.230787 0.062500 -0.000000 -0.000000 1.000000 39 39 65 255
3 0 1 2
3 0 3 1
3 4 5 6
3 4 7 5
3 8 9 10
3 11 12 13
3 14 15 16
3 8 17 9
3 14 18 15
3 19 20 21
3 22 23 24
3 19 25 20
3 22 26 23
