ply
format ascii 1.0
comment Created by Blender 3.6.0 - www.blender.org
element vertex 206
property float x
property float y
property float z
property float nx
property float ny
property float nz
property uchar red
property uchar green
property uchar blue
property uchar alpha
element face 96
property list uchar uint vertex_indices
end_header
-0.314862 0.276077 0.041667 -0.000000 0.000000 1.000000 225 119 29 255
-0.179196 0.460706 0.041667 -0.000000 0.000000 1.000000 225 119 29 255
-0.243293 0.487195 0.041667 -0.000000 0.000000 1.000000 225 119 29 255
0.346872 -0.667701 0.041667 -0.000000 0.000000 1.000000 225 119 29 255
0.284683 -0.524951 0.041667 -0.000000 0.000000 1.000000 225 119 29 255
0.207445 -0.589607 0.041667 -0.000000 0.000000 1.000000 225 119 29 255
0.002170 0.757639 0.041667 -0.000000 -0.000000 1.000000 225 119 29 255
-0.114265 0.559459 0.041667 -0.000000 -0.000000 1.000000 225 119 29 255
-0.026497 0.564054 0.041667 -0.000000 -0.000000 1.000000 225 119 29 255
-0.608756 -0.565419 0.041667 -0.000000 -0.000000 1.000000 225 119 29 255
-0.484797 -0.566771 0.041667 -0.000000 -0.000000 1.000000 225 119 29 255
-0.376122 -0.399441 0.041667 -0.000000 -0.000000 1.000000 225 119 29 255
0.109513 0.067165 0.041667 -0.000000 -0.000000 1.000000 225 119 29 255
0.181545 0.120638 0.041667 -0.000000 -0.000000 1.000000 225 119 29 255
0.142418 0.095446 0.041667 -0.000000 -0.000000 1.000000 225 119 29 255
-0.355312 0.697297 0.041667 -0.000000 -0.000000 1.000000 225 119 29 255
-0.196190 0.536631 0.041667 -0.000000 0.000000 1.000000 225 119 29 255
-0.187456 0.749835 0.041667 -0.000000 -0.000000 1.000000 225 119 29 255
0.398208 -0.391768 0.041667 -0.000000 -0.000000 1.000000 225 119 29 255
0.617557 -0.456795 0.041667 -0.000000 -0.000000 1.000000 225 119 29 255
0.430574 -0.325857 0.041667 -0.000000 -0.000000 1.000000 225 119 29 255
0.390823 0.124403 0.041667 -0.000000 0.000000 1.000000 225 119 29 255
0.276577 0.148534 0.041667 -0.000000 0.000000 1.000000 225 119 29 255
0.261256 -0.070106 0.041667 -0.000000 -0.000000 1.000000 225 119 29 255
0.698376 -0.322002 0.041667 -0.000000 -0.000000 1.000000 225 119 29 255
0.436706 -0.201935 0.041667 -0.000000 -0.000000 1.000000 225 119 29 255
0.444060 -0.262143 0.041667 -0.000000 -0.000000 1.000000 225 119 29 255
0.064047 0.551851 0.041667 -0.000000 -0.000000 1.000000 225 119 29 255
0.002170 0.757639 0.041667 -0.000000 -0.000000 1.000000 225 119 29 255
-0.026497 0.564054 0.041667 -0.000000 -0.000000 1.000000 225 119 29 255
0.398208 -0.391768 0.041667 -0.000000 0.000000 1.000000 225 119 29 255
0.501061 -0.574039 0.041667 -0.000000 0.000000 1.000000 225 119 29 255
0.617557 -0.456795 0.041667 -0.000000 0.000000 1.000000 225 119 29 255
0.406551 -0.146540 0.041667 -0.000000 0.000000 1.000000 225 119 29 255
0.436706 -0.201935 0.041667 -0.000000 0.000000 1.000000 225 119 29 255
0.520499 0.021796 0.041667 -0.000000 0.000000 1.000000 225 119 29 255
0.064047 0.551851 0.041667 -0.000000 -0.000000 1.000000 225 119 29 255
0.210493 0.712447 0.041667 -0.000000 -0.000000 1.000000 225 119 29 255
0.002170 0.757639 0.041667 -0.000000 -0.000000 1.000000 225 119 29 255
0.152977 -0.731745 0.041667 -0.000000 -0.000000 1.000000 225 119 29 255
0.207445 -0.589607 0.041667 -0.000000 -0.000000 1.000000 225 119 29 255
0.119171 -0.651228 0.041667 -0.000000 -0.000000 1.000000 225 119 29 255
-0.697519 0.353882 0.041667 -0.000000 -0.000000 1.000000 225 119 29 255
-0.402697 0.270648 0.041667 -0.000000 -0.000000 1.000000 225 119 29 255
-0.613418 0.491059 0.041667 -0.000000 -0.000000 1.000000 225 119 29 255
0.049589 -0.010717 0.041667 -0.000000 0.000000 1.000000 225 119 29 255
0.152677 -0.207047 0.041667 -0.000000 0.000000 1.000000 225 119 29 255
0.201847 -0.149827 0.041667 -0.000000 0.000000 1.000000 225 119 29 255
-0.139476 0.048509 0.041667 -0.000000 0.000000 1.000000 225 119 29 255
0.049589 -0.010717 0.041667 -0.000000 0.000000 1.000000 225 119 29 255
0.050275 0.091345 0.041667 -0.000000 0.000000 1.000000 225 119 29 255
-0.498325 0.608284 0.041667 -0.000000 -0.000000 1.000000 225 119 29 255
-0.402697 0.270648 0.041667 -0.000000 -0.000000 1.000000 225 119 29 255
-0.243293 0.487195 0.041667 -0.000000 -0.000000 1.000000 225 119 29 255
0.210493 0.712447 0.041667 -0.000000 0.000000 1.000000 225 119 29 255
0.241204 0.482797 0.041667 -0.000000 0.000000 1.000000 225 119 29 255
0.434438 0.605998 0.041667 -0.000000 0.000000 1.000000 225 119 29 255
0.261256 -0.070106 0.041667 -0.000000 0.000000 1.000000 225 119 29 255
0.109513 0.067165 0.041667 -0.000000 0.000000 1.000000 225 119 29 255
0.083305 0.039103 0.041667 -0.000000 0.000000 1.000000 225 119 29 255
0.390823 0.124403 0.041667 -0.000000 -0.000000 1.000000 225 119 29 255
0.351634 -0.097267 0.041667 -0.000000 -0.000000 1.000000 225 119 29 255
0.453969 0.084562 0.041667 -0.000000 -0.000000 1.000000 225 119 29 255
-0.018339 0.315088 0.041667 -0.000000 -0.000000 1.000000 225 119 29 255
-0.232829 0.236248 0.041667 -0.000000 0.000000 1.000000 225 119 29 255
-0.169925 0.158084 0.041667 -0.000000 0.000000 1.000000 225 119 29 255
-0.139476 0.048509 0.041667 -0.000000 -0.000000 1.000000 225 119 29 255
0.037477 0.178959 0.041667 -0.000000 -0.000000 1.000000 225 119 29 255
-0.169925 0.158084 0.041667 -0.000000 -0.000000 1.000000 225 119 29 255
-0.760448 0.052718 0.041667 -0.000000 -0.000000 1.000000 225 119 29 255
-0.567760 -0.086433 0.041667 -0.000000 -0.000000 1.000000 225 119 29 255
-0.542473 0.096316 0.041667 -0.000000 0.000000 1.000000 225 119 29 255
0.493953 0.206285 0.041667 -0.000000 0.000000 1.000000 225 119 29 255
0.637853 0.403979 0.041667 -0.000000 0.000000 1.000000 225 119 29 255
0.451125 0.289124 0.041667 -0.000000 0.000000 1.000000 225 119 29 255
-0.056238 0.365729 0.041667 -0.000000 0.000000 1.000000 225 119 29 255
-0.139226 0.437476 0.041667 -0.000000 0.000000 1.000000 225 119 29 255
-0.232829 0.236248 0.041667 -0.000000 0.000000 1.000000 225 119 29 255
0.037477 0.178959 0.041667 -0.000000 0.000000 1.000000 225 119 29 255
-0.018339 0.315088 0.041667 -0.000000 0.000000 1.000000 225 119 29 255
-0.169925 0.158084 0.041667 -0.000000 0.000000 1.000000 225 119 29 255
-0.747554 0.205015 0.041667 -0.000000 0.000000 1.000000 225 119 29 255
-0.760448 0.052718 0.041667 -0.000000 0.000000 1.000000 225 119 29 255
-0.542473 0.096316 0.041667 -0.000000 0.000000 1.000000 225 119 29 255
0.351634 -0.097267 0.041667 -0.000000 0.000000 1.000000 225 119 29 255
0.520499 0.021796 0.041667 -0.000000 0.000000 1.000000 225 119 29 255
0.453969 0.084562 0.041667 -0.000000 0.000000 1.000000 225 119 29 255
-0.376122 -0.399441 0.041667 -0.000000 0.000000 1.000000 225 119 29 255
-0.156252 -0.460441 0.041667 -0.000000 0.000000 1.000000 225 119 29 255
-0.229249 -0.237177 0.041667 -0.000000 0.000000 1.000000 225 119 29 255
0.520499 0.021796 0.041667 -0.000000 -0.000000 1.000000 225 119 29 255
0.746926 0.127322 0.041667 -0.000000 -0.000000 1.000000 225 119 29 255
0.518100 0.116697 0.041667 -0.000000 -0.000000 1.000000 225 119 29 255
0.181545 0.120638 0.041667 -0.000000 0.000000 1.000000 225 119 29 255
0.276577 0.148534 0.041667 -0.000000 0.000000 1.000000 225 119 29 255
0.226423 0.139436 0.041667 -0.000000 0.000000 1.000000 225 119 29 255
0.745534 -0.175695 0.041667 -0.000000 0.000000 1.000000 225 119 29 255
0.520499 0.021796 0.041667 -0.000000 0.000000 1.000000 225 119 29 255
0.436706 -0.201935 0.041667 -0.000000 0.000000 1.000000 225 119 29 255
-0.747554 0.205015 0.041667 -0.000000 0.000000 1.000000 225 119 29 255
-0.483010 0.213035 0.041667 -0.000000 0.000000 1.000000 225 119 29 255
-0.697519 0.353882 0.041667 -0.000000 0.000000 1.000000 225 119 29 255
-0.662518 -0.229119 0.041667 -0.000000 0.000000 1.000000 225 119 29 255
-0.567760 -0.086433 0.041667 -0.000000 0.000000 1.000000 225 119 29 255
-0.733127 -0.094747 0.041667 -0.000000 0.000000 1.000000 225 119 29 255
0.346872 -0.667701 0.041667 -0.000000 0.000000 1.000000 225 119 29 255
0.348924 -0.458569 0.041667 -0.000000 0.000000 1.000000 225 119 29 255
0.284683 -0.524951 0.041667 -0.000000 0.000000 1.000000 225 119 29 255
0.049589 -0.010717 0.041667 -0.000000 0.000000 1.000000 225 119 29 255
0.201847 -0.149827 0.041667 -0.000000 0.000000 1.000000 225 119 29 255
0.238290 -0.102877 0.041667 -0.000000 0.000000 1.000000 225 119 29 255
0.518100 0.116697 0.041667 -0.000000 0.000000 1.000000 225 119 29 255
0.705190 0.271963 0.041667 -0.000000 0.000000 1.000000 225 119 29 255
0.493953 0.206285 0.041667 -0.000000 -0.000000 1.000000 225 119 29 255
-0.179196 0.460706 0.041667 -0.000000 -0.000000 1.000000 225 119 29 255
-0.232829 0.236248 0.041667 -0.000000 -0.000000 1.000000 225 119 29 255
-0.139226 0.437476 0.041667 -0.000000 -0.000000 1.000000 225 119 29 255
0.091532 -0.270628 0.041667 -0.000000 -0.000000 1.000000 225 119 29 255
0.049589 -0.010717 0.041667 -0.000000 -0.000000 1.000000 225 119 29 255
-0.154809 -0.085553 0.041667 -0.000000 -0.000000 1.000000 225 119 29 255
0.321685 0.428816 0.041667 -0.000000 0.000000 1.000000 225 119 29 255
0.546931 0.517335 0.041667 -0.000000 0.000000 1.000000 225 119 29 255
0.434438 0.605998 0.041667 -0.000000 0.000000 1.000000 225 119 29 255
0.451125 0.289124 0.041667 -0.000000 0.000000 1.000000 225 119 29 255
0.546931 0.517335 0.041667 -0.000000 0.000000 1.000000 225 119 29 255
0.392680 0.363780 0.041667 -0.000000 0.000000 1.000000 225 119 29 255
0.019162 -0.336660 0.041667 -0.000000 0.000000 1.000000 225 119 29 255
-0.156252 -0.460441 0.041667 -0.000000 0.000000 1.000000 225 119 29 255
-0.063683 -0.401234 0.041667 -0.000000 0.000000 1.000000 225 119 29 255
0.241204 0.482797 0.041667 -0.000000 0.000000 1.000000 225 119 29 255
0.321685 0.428816 0.041667 -0.000000 0.000000 1.000000 225 119 29 255
0.434438 0.605998 0.041667 -0.000000 0.000000 1.000000 225 119 29 255
0.021822 -0.708507 0.041667 -0.000000 0.000000 1.000000 225 119 29 255
0.152977 -0.731745 0.041667 -0.000000 0.000000 1.000000 225 119 29 255
0.119171 -0.651228 0.041667 -0.000000 -0.000000 1.000000 225 119 29 255
-0.367560 -0.547119 0.041667 -0.000000 -0.000000 1.000000 225 119 29 255
-0.376122 -0.399441 0.041667 -0.000000 -0.000000 1.000000 225 119 29 255
-0.484797 -0.566771 0.041667 -0.000000 -0.000000 1.000000 225 119 29 255
0.444060 -0.262143 0.041667 -0.000000 -0.000000 1.000000 225 119 29 255
0.617557 -0.456795 0.041667 -0.000000 -0.000000 1.000000 225 119 29 255
0.698376 -0.322002 0.041667 -0.000000 -0.000000 1.000000 225 119 29 255
-0.498325 0.608284 0.041667 -0.000000 0.000000 1.000000 225 119 29 255
-0.243293 0.487195 0.041667 -0.000000 0.000000 1.000000 225 119 29 255
-0.355312 0.697297 0.041667 -0.000000 0.000000 1.000000 225 119 29 255
-0.243293 0.487195 0.041667 -0.000000 0.000000 1.000000 225 119 29 255
-0.402697 0.270648 0.041667 -0.000000 0.000000 1.000000 225 119 29 255
-0.314862 0.276077 0.041667 -0.000000 0.000000 1.000000 225 119 29 255
0.019162 -0.336660 0.041667 -0.000000 0.000000 1.000000 225 119 29 255
-0.154809 -0.085553 0.041667 -0.000000 -0.000000 1.000000 225 119 29 255
-0.229249 -0.237177 0.041667 -0.000000 -0.000000 1.000000 225 119 29 255
0.083305 0.039103 0.041667 -0.000000 -0.000000 1.000000 225 119 29 255
0.238290 -0.102877 0.041667 -0.000000 -0.000000 1.000000 225 119 29 255
0.261256 -0.070106 0.041667 -0.000000 -0.000000 1.000000 225 119 29 255
-0.114265 0.559459 0.041667 -0.000000 -0.000000 1.000000 225 119 29 255
-0.187456 0.749835 0.041667 -0.000000 -0.000000 1.000000 225 119 29 255
-0.196190 0.536631 0.041667 -0.000000 -0.000000 1.000000 225 119 29 255
-0.187456 0.749835 0.041667 -0.000000 -0.000000 1.000000 225 119 29 255
0.261256 -0.070106 0.041667 -0.000000 0.000000 1.000000 225 119 29 255
-0.243293 0.487195 0.041667 -0.000000 0.000000 1.000000 225 119 29 255
0.331535 0.144625 0.041667 -0.000000 0.000000 1.000000 225 119 29 255
0.745534 -0.175695 0.041667 -0.000000 0.000000 1.000000 225 119 29 255
0.348924 -0.458569 0.041667 -0.000000 0.000000 1.000000 225 119 29 255
0.154303 0.524287 0.041667 -0.000000 -0.000000 1.000000 225 119 29 255
0.346872 -0.667701 0.041667 -0.000000 -0.000000 1.000000 225 119 29 255
-0.483010 0.213035 0.041667 -0.000000 0.000000 1.000000 225 119 29 255
-0.154809 -0.085553 0.041667 -0.000000 0.000000 1.000000 225 119 29 255
-0.613418 0.491059 0.041667 -0.000000 -0.000000 1.000000 225 119 29 255
0.154303 0.524287 0.041667 -0.000000 0.000000 1.000000 225 119 29 255
0.261256 -0.070106 0.041667 -0.000000 -0.000000 1.000000 225 119 29 255
-0.056238 0.365729 0.041667 -0.000000 -0.000000 1.000000 225 119 29 255
0.050275 0.091345 0.041667 -0.000000 -0.000000 1.000000 225 119 29 255
-0.733127 -0.094747 0.041667 -0.000000 -0.000000 1.000000 225 119 29 255
0.705190 0.271963 0.041667 -0.000000 0.000000 1.000000 225 119 29 255
-0.097387 0.406171 0.041667 -0.000000 0.000000 1.000000 225 119 29 255
0.013752 0.253185 0.041667 -0.000000 -0.000000 1.000000 225 119 29 255
0.406551 -0.146540 0.041667 -0.000000 0.000000 1.000000 225 119 29 255
-0.257794 -0.510373 0.041667 -0.000000 -0.000000 1.000000 225 119 29 255
0.761046 -0.023908 0.041667 -0.000000 -0.000000 1.000000 225 119 29 255
0.261256 -0.070106 0.041667 -0.000000 -0.000000 1.000000 225 119 29 255
0.761046 -0.023908 0.041667 -0.000000 0.000000 1.000000 225 119 29 255
-0.542473 0.096316 0.041667 -0.000000 0.000000 1.000000 225 119 29 255
-0.545545 -0.342138 0.041667 -0.000000 0.000000 1.000000 225 119 29 255
0.501061 -0.574039 0.041667 -0.000000 0.000000 1.000000 225 119 29 255
0.746926 0.127322 0.041667 -0.000000 0.000000 1.000000 225 119 29 255
-0.314862 0.276077 0.041667 -0.000000 -0.000000 1.000000 225 119 29 255
0.152677 -0.207047 0.041667 -0.000000 -0.000000 1.000000 225 119 29 255
0.392680 0.363780 0.041667 -0.000000 0.000000 1.000000 225 119 29 255
0.637853 0.403979 0.041667 -0.000000 0.000000 1.000000 225 119 29 255
-0.229249 -0.237177 0.041667 -0.000000 0.000000 1.000000 225 119 29 255
-0.082641 -0.760136 0.041667 -0.000000 0.000000 1.000000 225 119 29 255
-0.257794 -0.510373 0.041667 -0.000000 -0.000000 1.000000 225 119 29 255
0.430574 -0.325857 0.041667 -0.000000 0.000000 1.000000 225 119 29 255
0.091532 -0.270628 0.041667 -0.000000 0.000000 1.000000 225 119 29 255
0.049589 -0.010717 0.041667 -0.000000 -0.000000 1.000000 225 119 29 255
0.998775 0.415590 0.020834 -0.000000 0.000000 1.000000 74 54 45 255
0.415506 -0.998353 0.020834 -0.000000 -0.000000 1.000000 74 54 45 255
1.000040 -0.412155 0.020834 -0.000000 -0.000000 1.000000 74 54 45 255
-0.415467 0.998735 0.020834 -0.000000 -0.000000 1.000000 74 54 45 255
-0.998735 -0.415208 0.020833 -0.000000 0.000000 1.000000 74 54 45 255
-0.412413 -0.999618 0.020834 -0.000000 0.000000 1.000000 74 54 45 255
-0.412413 -0.999618 0.020834 -0.000000 0.000000 1.000000 74 54 45 255
0.412453 1.000000 0.020834 -0.000000 0.000000 1.000000 74 54 45 255
-0.415467 0.998735 0.020834 -0.000000 0.000000 1.000000 74 54 45 255
0.412453 1.000000 0.020834 -0.000000 0.000000 1.000000 74 54 45 255
-1.000000 0.412537 0.020833 -0.000000 -0.000000 1.000000 74 54 45 255
0.415506 -0.998353 0.020834 -0.000000 0.000000 1.000000 74 54 45 255
3 0 1 2
3 3 4 5
3 6 7 8
3 9 10 11
3 12 13 14
3 15 16 17
3 18 19 20
3 21 22 23
3 24 25 26
3 27 28 29
3 30 31 32
3 33 34 35
3 36 37 38
3 39 40 41
3 42 43 44
3 45 46 47
3 48 49 50
3 51 52 53
3 54 55 56
3 57 58 59
3 60 61 62
3 63 64 65
3 66 67 68
3 69 70 71
3 72 73 74
3 75 76 77
3 78 79 80
3 81 82 83
3 84 85 86
3 87 88 89
3 90 91 92
3 93 94 95
3 96 97 98
3 99 100 101
3 102 103 104
3 105 106 107
3 108 109 110
3 111 112 113
3 114 115 116
3 117 118 119
3 120 121 122
3 123 124 125
3 126 127 128
3 129 130 131
3 132 133 134
3 135 136 137
3 138 139 140
3 141 142 143
3 144 145 146
3 147 148 149
3 150 151 152
3 153 154 155
3 6 156 7
3 12 157 13
3 15 158 16
3 21 159 22
3 24 160 25
3 30 161 31
3 36 162 37
3 39 163 40
3 42 164 43
3 48 165 49
3 51 166 52
3 54 167 55
3 60 168 61
3 63 169 64
3 66 170 67
3 69 171 70
3 72 172 73
3 75 173 76
3 78 174 79
3 84 175 85
3 87 176 88
3 90 177 91
3 93 178 94
3 96 179 97
3 99 180 100
3 102 181 103
3 105 182 106
3 111 183 112
3 114 184 115
3 117 185 118
3 120 186 121
3 123 187 124
3 126 188 127
3 132 189 133
3 135 190 136
3 138 191 139
3 147 192 148
3 150 193 151
3 194 195 196
3 197 198 199
3 200 201 202
3 194 203 195
3 197 204 198
3 200 205 201
