ply
format ascii 1.0
comment Created by Blender 3.6.0 - www.blender.org
element vertex 270
property float x
property float y
property float z
property float nx
property float ny
property float nz
property uchar red
property uchar green
property uchar blue
property uchar alpha
element face 128
property list uchar uint vertex_indices
end_header
0.275888 0.961795 0.020834 -0.000000 -0.000000 1.000000 59 27 0 255
0.448623 0.902068 0.020834 -0.000000 -0.000000 1.000000 59 27 0 255
0.383150 0.931605 0.020834 -0.000000 -0.000000 1.000000 59 27 0 255
-0.338495 -0.907091 0.020834 -0.000000 -0.000000 1.000000 59 27 0 255
0.021046 -0.746248 0.020834 -0.000000 0.000000 1.000000 59 27 0 255
-0.453566 -0.828072 0.020834 -0.000000 -0.000000 1.000000 59 27 0 255
0.991600 -0.064460 0.020834 -0.000000 -0.000000 1.000000 59 27 0 255
0.129698 -0.739902 0.020834 -0.000000 -0.000000 1.000000 59 27 0 255
0.200516 -0.745279 0.020834 -0.000000 -0.000000 1.000000 59 27 0 255
-0.013868 -0.784745 0.020834 -0.000000 -0.000000 1.000000 59 27 0 255
-0.117649 -0.995469 0.020834 -0.000000 -0.000000 1.000000 59 27 0 255
0.008887 -0.851238 0.020834 -0.000000 -0.000000 1.000000 59 27 0 255
-0.025767 0.999336 0.020834 -0.000000 0.000000 1.000000 59 27 0 255
0.021046 -0.746248 0.020834 -0.000000 0.000000 1.000000 59 27 0 255
0.068387 -0.739757 0.020834 -0.000000 0.000000 1.000000 59 27 0 255
0.068387 -0.739757 0.020834 -0.000000 0.000000 1.000000 59 27 0 255
0.693693 0.709430 0.020834 -0.000000 -0.000000 1.000000 59 27 0 255
0.136397 0.986438 0.020834 -0.000000 -0.000000 1.000000 59 27 0 255
0.035120 -0.893732 0.020834 -0.000000 -0.000000 1.000000 59 27 0 255
-0.019447 -0.995410 0.020834 -0.000000 -0.000000 1.000000 59 27 0 255
0.065559 -0.959573 0.020834 -0.000000 -0.000000 1.000000 59 27 0 255
0.008887 -0.851238 0.020834 -0.000000 0.000000 1.000000 59 27 0 255
-0.019447 -0.995410 0.020834 -0.000000 0.000000 1.000000 59 27 0 255
0.035120 -0.893732 0.020834 -0.000000 0.000000 1.000000 59 27 0 255
0.657348 -0.737421 0.020834 -0.000000 -0.000000 1.000000 59 27 0 255
0.540944 -0.801601 0.020834 -0.000000 -0.000000 1.000000 59 27 0 255
0.606774 -0.792506 0.020834 -0.000000 -0.000000 1.000000 59 27 0 255
-0.992420 -0.064271 0.020833 -0.000000 -0.000000 1.000000 59 27 0 255
-0.856486 -0.389667 0.020833 -0.000000 -0.000000 1.000000 59 27 0 255
-0.992939 0.239978 0.020833 -0.000000 -0.000000 1.000000 59 27 0 255
-0.939671 0.482886 0.020833 -0.000000 -0.000000 1.000000 59 27 0 255
-0.379885 0.965094 0.020834 -0.000000 -0.000000 1.000000 59 27 0 255
-0.552724 0.905557 0.020833 -0.000000 0.000000 1.000000 59 27 0 255
0.489560 -0.791085 0.020834 -0.000000 0.000000 1.000000 59 27 0 255
0.540944 -0.801601 0.020834 -0.000000 0.000000 1.000000 59 27 0 255
0.657348 -0.737421 0.020834 -0.000000 0.000000 1.000000 59 27 0 255
-0.453566 -0.828072 0.020834 -0.000000 0.000000 1.000000 59 27 0 255
-0.674072 -0.623917 0.020833 -0.000000 0.000000 1.000000 59 27 0 255
-0.566688 -0.732111 0.020833 -0.000000 0.000000 1.000000 59 27 0 255
-0.771934 -0.508200 0.020833 -0.000000 0.000000 1.000000 59 27 0 255
-0.992939 0.239978 0.020833 -0.000000 0.000000 1.000000 59 27 0 255
-0.856486 -0.389667 0.020833 -0.000000 -0.000000 1.000000 59 27 0 255
0.425362 -0.778793 0.020834 -0.000000 0.000000 1.000000 59 27 0 255
0.657348 -0.737421 0.020834 -0.000000 0.000000 1.000000 59 27 0 255
0.728080 -0.650467 0.020834 -0.000000 0.000000 1.000000 59 27 0 255
0.352812 -0.766127 0.020834 -0.000000 -0.000000 1.000000 59 27 0 255
0.728080 -0.650467 0.020834 -0.000000 -0.000000 1.000000 59 27 0 255
0.807921 -0.535668 0.020834 -0.000000 -0.000000 1.000000 59 27 0 255
0.276375 -0.754488 0.020834 -0.000000 0.000000 1.000000 59 27 0 255
0.807921 -0.535668 0.020834 -0.000000 -0.000000 1.000000 59 27 0 255
0.885821 -0.397051 0.020834 -0.000000 -0.000000 1.000000 59 27 0 255
-0.970516 -0.162994 0.020833 -0.000000 0.000000 1.000000 59 27 0 255
-0.923942 -0.273029 0.020833 -0.000000 0.000000 1.000000 59 27 0 255
-0.992420 -0.064271 0.020833 -0.000000 0.000000 1.000000 59 27 0 255
0.200516 -0.745279 0.020834 -0.000000 -0.000000 1.000000 59 27 0 255
0.885821 -0.397051 0.020834 -0.000000 0.000000 1.000000 59 27 0 255
0.950730 -0.238640 0.020834 -0.000000 0.000000 1.000000 59 27 0 255
0.448623 0.902068 0.020834 -0.000000 0.000000 1.000000 59 27 0 255
0.136397 0.986438 0.020834 -0.000000 0.000000 1.000000 59 27 0 255
0.693693 0.709430 0.020834 -0.000000 0.000000 1.000000 59 27 0 255
-0.201047 0.994287 0.020834 -0.000000 0.000000 1.000000 59 27 0 255
-0.992939 0.239978 0.020833 -0.000000 0.000000 1.000000 59 27 0 255
0.021046 -0.746248 0.020834 -0.000000 0.000000 1.000000 59 27 0 255
0.950730 -0.238640 0.020834 -0.000000 0.000000 1.000000 59 27 0 255
0.991600 -0.064460 0.020834 -0.000000 0.000000 1.000000 59 27 0 255
0.200516 -0.745279 0.020834 -0.000000 0.000000 1.000000 59 27 0 255
-0.013868 -0.784745 0.020834 -0.000000 0.000000 1.000000 59 27 0 255
-0.338495 -0.907091 0.020834 -0.000000 0.000000 1.000000 59 27 0 255
-0.225261 -0.964460 0.020834 -0.000000 0.000000 1.000000 59 27 0 255
0.997380 0.121461 0.020834 -0.000000 -0.000000 1.000000 59 27 0 255
0.957022 0.315101 0.020834 -0.000000 -0.000000 1.000000 59 27 0 255
0.129698 -0.739902 0.020834 -0.000000 -0.000000 1.000000 59 27 0 255
0.021046 -0.746248 0.020834 -0.000000 -0.000000 1.000000 59 27 0 255
-0.771934 -0.508200 0.020833 -0.000000 -0.000000 1.000000 59 27 0 255
-0.674072 -0.623917 0.020833 -0.000000 -0.000000 1.000000 59 27 0 255
0.957022 0.315101 0.020834 -0.000000 0.000000 1.000000 59 27 0 255
0.693693 0.709430 0.020834 -0.000000 0.000000 1.000000 59 27 0 255
0.129698 -0.739902 0.020834 -0.000000 0.000000 1.000000 59 27 0 255
-0.842174 0.670652 0.020833 -0.000000 -0.000000 1.000000 59 27 0 255
-0.552724 0.905557 0.020833 -0.000000 -0.000000 1.000000 59 27 0 255
-0.710006 0.809476 0.020833 -0.000000 -0.000000 1.000000 59 27 0 255
0.136397 0.986438 0.020834 -0.000000 0.000000 1.000000 59 27 0 255
-0.025767 0.999336 0.020834 -0.000000 0.000000 1.000000 59 27 0 255
0.068387 -0.739757 0.020834 -0.000000 0.000000 1.000000 59 27 0 255
-0.013868 -0.784745 0.020834 -0.000000 0.000000 1.000000 59 27 0 255
0.997380 0.121461 0.020834 -0.000000 0.000000 1.000000 59 27 0 255
-0.225261 -0.964460 0.020834 -0.000000 -0.000000 1.000000 59 27 0 255
-0.201047 0.994287 0.020834 -0.000000 0.000000 1.000000 59 27 0 255
0.129698 -0.739902 0.020834 -0.000000 0.000000 1.000000 59 27 0 255
-0.117649 -0.995469 0.020834 -0.000000 0.000000 1.000000 59 27 0 255
-0.923942 -0.273029 0.020833 -0.000000 -0.000000 1.000000 59 27 0 255
-0.992939 0.239978 0.020833 -0.000000 -0.000000 1.000000 59 27 0 255
0.021046 -0.746248 0.020834 -0.000000 0.000000 1.000000 59 27 0 255
0.021046 -0.746248 0.020834 -0.000000 0.000000 1.000000 59 27 0 255
0.489560 -0.791085 0.020834 -0.000000 0.000000 1.000000 59 27 0 255
0.425362 -0.778793 0.020834 -0.000000 -0.000000 1.000000 59 27 0 255
0.352812 -0.766127 0.020834 -0.000000 0.000000 1.000000 59 27 0 255
0.276375 -0.754488 0.020834 -0.000000 -0.000000 1.000000 59 27 0 255
0.275888 0.961795 0.020834 -0.000000 0.000000 1.000000 59 27 0 255
-0.379885 0.965094 0.020834 -0.000000 0.000000 1.000000 59 27 0 255
0.859477 0.512432 0.020834 -0.000000 -0.000000 1.000000 59 27 0 255
-0.939671 0.482886 0.020833 -0.000000 -0.000000 1.000000 59 27 0 255
-0.285240 -0.707618 0.041667 -0.000000 0.000000 1.000000 225 119 29 255
-0.197346 -0.785850 0.041667 -0.000000 0.000000 1.000000 225 119 29 255
-0.183568 -0.714580 0.041667 -0.000000 0.000000 1.000000 225 119 29 255
0.349962 0.742261 0.041667 -0.000000 0.000000 1.000000 225 119 29 255
-0.083332 0.366880 0.041667 -0.000000 0.000000 1.000000 225 119 29 255
0.311559 0.114452 0.041667 -0.000000 0.000000 1.000000 225 119 29 255
-0.297751 0.727264 0.041667 -0.000000 -0.000000 1.000000 225 119 29 255
-0.195420 0.400205 0.041667 -0.000000 0.000000 1.000000 225 119 29 255
-0.163674 0.775448 0.041667 -0.000000 -0.000000 1.000000 225 119 29 255
0.815254 -0.144358 0.041667 -0.000000 -0.000000 1.000000 225 119 29 255
0.500892 -0.145777 0.041667 -0.000000 -0.000000 1.000000 225 119 29 255
0.773555 -0.266633 0.041667 -0.000000 -0.000000 1.000000 225 119 29 255
-0.148166 -0.534533 0.041667 -0.000000 0.000000 1.000000 225 119 29 255
-0.344280 -0.395630 0.041667 -0.000000 0.000000 1.000000 225 119 29 255
-0.352558 -0.508893 0.041667 -0.000000 0.000000 1.000000 225 119 29 255
0.183221 -0.640518 0.041667 -0.000000 -0.000000 1.000000 225 119 29 255
0.241982 -0.510668 0.041667 -0.000000 -0.000000 1.000000 225 119 29 255
0.173207 -0.558300 0.041667 -0.000000 -0.000000 1.000000 225 119 29 255
-0.471389 0.303040 0.041667 -0.000000 0.000000 1.000000 225 119 29 255
-0.751030 0.379230 0.041667 -0.000000 0.000000 1.000000 225 119 29 255
-0.506259 0.237547 0.041667 -0.000000 -0.000000 1.000000 225 119 29 255
-0.285240 -0.707618 0.041667 -0.000000 0.000000 1.000000 225 119 29 255
-0.167660 -0.629509 0.041667 -0.000000 -0.000000 1.000000 225 119 29 255
-0.334928 -0.614094 0.041667 -0.000000 0.000000 1.000000 225 119 29 255
-0.334928 -0.614094 0.041667 -0.000000 -0.000000 1.000000 225 119 29 255
-0.148166 -0.534533 0.041667 -0.000000 -0.000000 1.000000 225 119 29 255
-0.352558 -0.508893 0.041667 -0.000000 -0.000000 1.000000 225 119 29 255
0.470285 -0.225935 0.041667 -0.000000 0.000000 1.000000 225 119 29 255
0.773555 -0.266633 0.041667 -0.000000 0.000000 1.000000 225 119 29 255
0.500892 -0.145777 0.041667 -0.000000 0.000000 1.000000 225 119 29 255
0.054046 -0.047404 0.041667 -0.000000 0.000000 1.000000 225 119 29 255
-0.129510 0.165081 0.041667 -0.000000 0.000000 1.000000 225 119 29 255
-0.175082 0.065736 0.041667 -0.000000 -0.000000 1.000000 225 119 29 255
-0.123629 -0.433547 0.041667 -0.000000 0.000000 1.000000 225 119 29 255
-0.316243 -0.277921 0.041667 -0.000000 -0.000000 1.000000 225 119 29 255
-0.344280 -0.395630 0.041667 -0.000000 -0.000000 1.000000 225 119 29 255
0.105659 -0.590682 0.041667 -0.000000 -0.000000 1.000000 225 119 29 255
0.183221 -0.640518 0.041667 -0.000000 -0.000000 1.000000 225 119 29 255
0.173207 -0.558300 0.041667 -0.000000 -0.000000 1.000000 225 119 29 255
-0.053608 -0.229125 0.041667 -0.000000 -0.000000 1.000000 225 119 29 255
-0.225495 -0.043622 0.041667 -0.000000 -0.000000 1.000000 225 119 29 255
-0.274598 -0.159380 0.041667 -0.000000 -0.000000 1.000000 225 119 29 255
-0.822610 0.141244 0.041667 -0.000000 0.000000 1.000000 225 119 29 255
-0.531068 0.162137 0.041667 -0.000000 0.000000 1.000000 225 119 29 255
-0.806006 0.263829 0.041667 -0.000000 0.000000 1.000000 225 119 29 255
-0.556031 0.580134 0.041667 -0.000000 -0.000000 1.000000 225 119 29 255
-0.364292 0.391150 0.041667 -0.000000 -0.000000 1.000000 225 119 29 255
-0.431042 0.661464 0.041667 -0.000000 0.000000 1.000000 225 119 29 255
0.426137 -0.305418 0.041667 -0.000000 -0.000000 1.000000 225 119 29 255
0.713132 -0.378557 0.041667 -0.000000 -0.000000 1.000000 225 119 29 255
0.470285 -0.225935 0.041667 -0.000000 -0.000000 1.000000 225 119 29 255
0.515003 -0.067860 0.041667 -0.000000 0.000000 1.000000 225 119 29 255
0.836713 -0.015800 0.041667 -0.000000 0.000000 1.000000 225 119 29 255
0.509665 0.004902 0.041667 -0.000000 0.000000 1.000000 225 119 29 255
0.509665 0.004902 0.041667 -0.000000 -0.000000 1.000000 225 119 29 255
0.836713 -0.015800 0.041667 -0.000000 -0.000000 1.000000 225 119 29 255
0.836415 0.114971 0.041667 -0.000000 -0.000000 1.000000 225 119 29 255
0.309032 -0.450700 0.041667 -0.000000 0.000000 1.000000 225 119 29 255
0.314522 -0.641376 0.041667 -0.000000 0.000000 1.000000 225 119 29 255
0.434680 -0.611540 0.041667 -0.000000 0.000000 1.000000 225 119 29 255
-0.424665 0.355336 0.041667 -0.000000 -0.000000 1.000000 225 119 29 255
-0.665199 0.485361 0.041667 -0.000000 -0.000000 1.000000 225 119 29 255
-0.471389 0.303040 0.041667 -0.000000 0.000000 1.000000 225 119 29 255
-0.163674 0.775448 0.041667 -0.000000 0.000000 1.000000 225 119 29 255
-0.083332 0.366880 0.041667 -0.000000 -0.000000 1.000000 225 119 29 255
-0.036328 0.803929 0.041667 -0.000000 0.000000 1.000000 225 119 29 255
0.125624 0.025207 0.041667 -0.000000 -0.000000 1.000000 225 119 29 255
-0.094927 0.250796 0.041667 -0.000000 -0.000000 1.000000 225 119 29 255
-0.129510 0.165081 0.041667 -0.000000 -0.000000 1.000000 225 119 29 255
0.542178 -0.555079 0.041667 -0.000000 -0.000000 1.000000 225 119 29 255
0.426137 -0.305418 0.041667 -0.000000 -0.000000 1.000000 225 119 29 255
0.371401 -0.381311 0.041667 -0.000000 -0.000000 1.000000 225 119 29 255
0.146051 0.802845 0.041667 -0.000000 -0.000000 1.000000 225 119 29 255
-0.036328 0.803929 0.041667 -0.000000 -0.000000 1.000000 225 119 29 255
-0.083332 0.366880 0.041667 -0.000000 0.000000 1.000000 225 119 29 255
0.210976 0.080457 0.041667 -0.000000 -0.000000 1.000000 225 119 29 255
-0.077485 0.319268 0.041667 -0.000000 -0.000000 1.000000 225 119 29 255
-0.094927 0.250796 0.041667 -0.000000 -0.000000 1.000000 225 119 29 255
-0.005213 -0.133479 0.041667 -0.000000 0.000000 1.000000 225 119 29 255
-0.175082 0.065736 0.041667 -0.000000 0.000000 1.000000 225 119 29 255
-0.225495 -0.043622 0.041667 -0.000000 0.000000 1.000000 225 119 29 255
0.812844 0.243887 0.041667 -0.000000 0.000000 1.000000 225 119 29 255
0.764484 0.366880 0.041667 -0.000000 0.000000 1.000000 225 119 29 255
0.481924 0.069593 0.041667 -0.000000 0.000000 1.000000 225 119 29 255
-0.710633 -0.117132 0.041667 -0.000000 -0.000000 1.000000 225 119 29 255
-0.557684 -0.005298 0.041667 -0.000000 -0.000000 1.000000 225 119 29 255
-0.793324 0.013562 0.041667 -0.000000 -0.000000 1.000000 225 119 29 255
0.764484 0.366880 0.041667 -0.000000 0.000000 1.000000 225 119 29 255
0.428827 0.123298 0.041667 -0.000000 0.000000 1.000000 225 119 29 255
0.481924 0.069593 0.041667 -0.000000 0.000000 1.000000 225 119 29 255
-0.092595 -0.330446 0.041667 -0.000000 -0.000000 1.000000 225 119 29 255
-0.274598 -0.159380 0.041667 -0.000000 0.000000 1.000000 225 119 29 255
-0.316243 -0.277921 0.041667 -0.000000 0.000000 1.000000 225 119 29 255
-0.288475 0.407201 0.041667 -0.000000 0.000000 1.000000 225 119 29 255
-0.431042 0.661464 0.041667 -0.000000 0.000000 1.000000 225 119 29 255
-0.364292 0.391150 0.041667 -0.000000 0.000000 1.000000 225 119 29 255
0.481924 0.069593 0.041667 -0.000000 -0.000000 1.000000 225 119 29 255
0.836415 0.114971 0.041667 -0.000000 -0.000000 1.000000 225 119 29 255
0.812844 0.243887 0.041667 -0.000000 -0.000000 1.000000 225 119 29 255
0.146051 0.802845 0.041667 -0.000000 0.000000 1.000000 225 119 29 255
0.283218 0.768328 0.041667 -0.000000 0.000000 1.000000 225 119 29 255
0.215057 0.788635 0.041667 -0.000000 0.000000 1.000000 225 119 29 255
-0.793324 0.013562 0.041667 -0.000000 -0.000000 1.000000 225 119 29 255
-0.547612 0.080095 0.041667 -0.000000 -0.000000 1.000000 225 119 29 255
-0.822610 0.141244 0.041667 -0.000000 -0.000000 1.000000 225 119 29 255
-0.710633 -0.117132 0.041667 -0.000000 0.000000 1.000000 225 119 29 255
-0.565592 -0.173003 0.041667 -0.000000 0.000000 1.000000 225 119 29 255
-0.563079 -0.090758 0.041667 -0.000000 0.000000 1.000000 225 119 29 255
-0.806006 0.263829 0.041667 -0.000000 -0.000000 1.000000 225 119 29 255
-0.506259 0.237547 0.041667 -0.000000 0.000000 1.000000 225 119 29 255
-0.751030 0.379230 0.041667 -0.000000 -0.000000 1.000000 225 119 29 255
0.428827 0.123298 0.041667 -0.000000 0.000000 1.000000 225 119 29 255
0.476920 0.674199 0.041667 -0.000000 0.000000 1.000000 225 119 29 255
0.311559 0.114452 0.041667 -0.000000 0.000000 1.000000 225 119 29 255
0.535993 0.632878 0.041667 -0.000000 0.000000 1.000000 225 119 29 255
0.642476 0.537346 0.041667 -0.000000 0.000000 1.000000 225 119 29 255
0.591369 0.587148 0.041667 -0.000000 0.000000 1.000000 225 119 29 255
0.371401 -0.381311 0.041667 -0.000000 -0.000000 1.000000 225 119 29 255
0.434680 -0.611540 0.041667 -0.000000 -0.000000 1.000000 225 119 29 255
0.542178 -0.555079 0.041667 -0.000000 -0.000000 1.000000 225 119 29 255
0.642476 0.537346 0.041667 -0.000000 -0.000000 1.000000 225 119 29 255
0.729604 0.426874 0.041667 -0.000000 -0.000000 1.000000 225 119 29 255
0.688744 0.483808 0.041667 -0.000001 -0.000000 1.000000 225 119 29 255
0.476920 0.674199 0.041667 -0.000000 -0.000000 1.000000 225 119 29 255
0.349962 0.742261 0.041667 -0.000000 -0.000000 1.000000 225 119 29 255
0.311559 0.114452 0.041667 -0.000000 0.000000 1.000000 225 119 29 255
-0.077485 0.319268 0.041667 -0.000000 0.000000 1.000000 225 119 29 255
0.311559 0.114452 0.041667 -0.000000 0.000000 1.000000 225 119 29 255
-0.083332 0.366880 0.041667 -0.000000 0.000000 1.000000 225 119 29 255
0.283218 0.768328 0.041667 -0.000000 0.000000 1.000000 225 119 29 255
-0.288475 0.407201 0.041667 -0.000000 0.000000 1.000000 225 119 29 255
0.515003 -0.067860 0.041667 -0.000000 -0.000000 1.000000 225 119 29 255
-0.123629 -0.433547 0.041667 -0.000000 0.000000 1.000000 225 119 29 255
0.314522 -0.641376 0.041667 -0.000000 -0.000000 1.000000 225 119 29 255
-0.665199 0.485361 0.041667 -0.000000 0.000000 1.000000 225 119 29 255
-0.183568 -0.714580 0.041667 -0.000000 -0.000000 1.000000 225 119 29 255
-0.167660 -0.629509 0.041667 -0.000000 -0.000000 1.000000 225 119 29 255
0.713132 -0.378557 0.041667 -0.000000 0.000000 1.000000 225 119 29 255
0.125624 0.025207 0.041667 -0.000000 0.000000 1.000000 225 119 29 255
-0.092595 -0.330446 0.041667 -0.000000 0.000000 1.000000 225 119 29 255
0.042294 -0.604898 0.041667 -0.000000 -0.000000 1.000000 225 119 29 255
-0.005213 -0.133479 0.041667 -0.000000 0.000000 1.000000 225 119 29 255
-0.547612 0.080095 0.041667 -0.000000 0.000000 1.000000 225 119 29 255
-0.424665 0.355336 0.041667 -0.000000 -0.000000 1.000000 225 119 29 255
0.635501 -0.476062 0.041667 -0.000000 -0.000000 1.000000 225 119 29 255
0.815254 -0.144358 0.041667 -0.000000 -0.000000 1.000000 225 119 29 255
0.241982 -0.510668 0.041667 -0.000000 0.000000 1.000000 225 119 29 255
-0.556031 0.580134 0.041667 -0.000000 -0.000000 1.000000 225 119 29 255
-0.195420 0.400205 0.041667 -0.000000 -0.000000 1.000000 225 119 29 255
0.210976 0.080457 0.041667 -0.000000 -0.000000 1.000000 225 119 29 255
0.635501 -0.476062 0.041667 -0.000000 0.000000 1.000000 225 119 29 255
0.076769 0.810621 0.041667 -0.000000 -0.000000 1.000000 225 119 29 255
0.311559 0.114452 0.041667 -0.000000 -0.000000 1.000000 225 119 29 255
0.054046 -0.047404 0.041667 -0.000000 0.000000 1.000000 225 119 29 255
-0.563079 -0.090758 0.041667 -0.000000 -0.000000 1.000000 225 119 29 255
0.729604 0.426874 0.041667 -0.000000 -0.000000 1.000000 225 119 29 255
-0.053608 -0.229125 0.041667 -0.000000 -0.000000 1.000000 225 119 29 255
-0.297751 0.727264 0.041667 -0.000000 0.000000 1.000000 225 119 29 255
0.509665 0.004902 0.041667 -0.000000 -0.000000 1.000000 225 119 29 255
-0.083332 0.366880 0.041667 -0.000000 0.000000 1.000000 225 119 29 255
-0.557684 -0.005298 0.041667 -0.000000 -0.000000 1.000000 225 119 29 255
-0.567017 -0.248750 0.041667 -0.000000 0.000000 1.000000 225 119 29 255
-0.531068 0.162137 0.041667 -0.000000 0.000000 1.000000 225 119 29 255
0.535993 0.632878 0.041667 -0.000000 0.000000 1.000000 225 119 29 255
0.428827 0.123298 0.041667 -0.000000 0.000000 1.000000 225 119 29 255
0.309032 -0.450700 0.041667 -0.000000 -0.000000 1.000000 225 119 29 255
0.428827 0.123298 0.041667 -0.000000 -0.000000 1.000000 225 119 29 255
0.414720 0.710772 0.041667 -0.000001 -0.000000 1.000000 225 119 29 255
3 0 1 2
3 3 4 5
3 6 7 8
3 9 10 11
3 12 13 14
3 15 16 17
3 18 19 20
3 21 22 23
3 24 25 26
3 27 28 29
3 30 31 32
3 33 34 35
3 36 37 38
3 39 40 41
3 42 43 44
3 45 46 47
3 48 49 50
3 51 52 53
3 54 55 56
3 57 58 59
3 60 61 62
3 63 64 65
3 66 67 68
3 69 70 71
3 72 73 74
3 75 76 77
3 78 79 80
3 81 82 83
3 3 84 4
3 6 85 7
3 9 86 10
3 12 87 13
3 15 88 16
3 21 89 22
3 27 90 28
3 30 91 31
3 36 92 37
3 39 93 40
3 42 94 43
3 45 95 46
3 48 96 49
3 54 97 55
3 57 98 58
3 60 99 61
3 75 100 76
3 78 101 79
3 102 103 104
3 105 106 107
3 108 109 110
3 111 112 113
3 114 115 116
3 117 118 119
3 120 121 122
3 123 124 125
3 126 127 128
3 129 130 131
3 132 133 134
3 135 136 137
3 138 139 140
3 141 142 143
3 144 145 146
3 147 148 149
3 150 151 152
3 153 154 155
3 156 157 158
3 159 160 161
3 162 163 164
3 165 166 167
3 168 169 170
3 171 172 173
3 174 175 176
3 177 178 179
3 180 181 182
3 183 184 185
3 186 187 188
3 189 190 191
3 192 193 194
3 195 196 197
3 198 199 200
3 201 202 203
3 204 205 206
3 207 208 209
3 210 211 212
3 213 214 215
3 216 217 218
3 219 220 221
3 222 223 224
3 225 226 227
3 228 229 230
3 105 231 106
3 108 232 109
3 111 233 112
3 114 234 115
3 117 235 118
3 120 236 121
3 123 237 124
3 126 238 127
3 129 239 130
3 132 240 133
3 135 241 136
3 138 242 139
3 141 243 142
3 144 244 145
3 147 245 148
3 150 246 151
3 153 247 154
3 159 248 160
3 162 249 163
3 165 250 166
3 168 251 169
3 171 252 172
3 174 253 175
3 177 254 178
3 180 255 181
3 186 256 187
3 189 257 190
3 192 258 193
3 195 259 196
3 198 260 199
3 201 261 202
3 204 262 205
3 207 263 208
3 210 264 211
3 213 265 214
3 216 266 217
3 219 267 220
3 222 268 223
3 225 269 226
