ply
format ascii 1.0
comment Created by Blender 3.6.0 - www.blender.org
element vertex 384
property float x
property float y
property float z
property float nx
property float ny
property float nz
property uchar red
property uchar green
property uchar blue
property uchar alpha
element face 180
property list uchar uint vertex_indices
end_header
-0.295588 0.259190 0.041667 -0.000000 0.000000 1.000000 225 119 29 255
-0.168226 0.432518 0.041667 -0.000000 0.000000 1.000000 225 119 29 255
-0.228400 0.457386 0.041667 -0.000000 0.000000 1.000000 225 119 29 255
0.325642 -0.626819 0.041667 -0.000000 0.000000 1.000000 225 119 29 255
0.267259 -0.492807 0.041667 -0.000000 0.000000 1.000000 225 119 29 255
0.194749 -0.553505 0.041667 -0.000000 0.000000 1.000000 225 119 29 255
0.002039 0.711276 0.041667 -0.000000 -0.000000 1.000000 225 119 29 255
-0.107269 0.525226 0.041667 -0.000000 -0.000000 1.000000 225 119 29 255
-0.024874 0.529540 0.041667 -0.000000 -0.000000 1.000000 225 119 29 255
-0.571493 -0.530798 0.041667 -0.000000 0.000000 1.000000 225 119 29 255
-0.455122 -0.532067 0.041667 -0.000000 0.000000 1.000000 225 119 29 255
-0.353099 -0.374980 0.041667 -0.000000 0.000000 1.000000 225 119 29 255
0.102811 0.063066 0.041667 -0.000000 0.000000 1.000000 225 119 29 255
0.253469 -0.052019 0.041667 -0.000000 0.000000 1.000000 225 119 29 255
0.212564 0.130913 0.041667 -0.000000 0.000000 1.000000 225 119 29 255
-0.333563 0.654627 0.041667 -0.000000 -0.000000 1.000000 225 119 29 255
-0.184180 0.503796 0.041667 -0.000000 -0.000000 1.000000 225 119 29 255
-0.175981 0.703950 0.041667 -0.000000 -0.000000 1.000000 225 119 29 255
0.373835 -0.367776 0.041667 -0.000000 -0.000000 1.000000 225 119 29 255
0.579758 -0.428823 0.041667 -0.000000 -0.000000 1.000000 225 119 29 255
0.404220 -0.305900 0.041667 -0.000000 -0.000000 1.000000 225 119 29 255
0.366902 0.116800 0.041667 -0.000000 0.000000 1.000000 225 119 29 255
0.259649 0.139454 0.041667 -0.000000 0.000000 1.000000 225 119 29 255
0.253469 -0.052019 0.041667 -0.000000 0.000000 1.000000 225 119 29 255
0.655630 -0.302280 0.041667 -0.000000 0.000000 1.000000 225 119 29 255
0.409976 -0.189563 0.041667 -0.000000 0.000000 1.000000 225 119 29 255
0.416880 -0.246086 0.041667 -0.000000 0.000000 1.000000 225 119 29 255
0.060128 0.518084 0.041667 -0.000000 -0.000000 1.000000 225 119 29 255
0.002039 0.711276 0.041667 -0.000000 -0.000000 1.000000 225 119 29 255
-0.024874 0.529540 0.041667 -0.000000 -0.000000 1.000000 225 119 29 255
0.373835 -0.367776 0.041667 -0.000000 0.000000 1.000000 225 119 29 255
0.470392 -0.538891 0.041667 -0.000000 0.000000 1.000000 225 119 29 255
0.579758 -0.428823 0.041667 -0.000000 0.000000 1.000000 225 119 29 255
0.381667 -0.137559 0.041667 -0.000000 -0.000000 1.000000 225 119 29 255
0.409976 -0.189563 0.041667 -0.000000 -0.000000 1.000000 225 119 29 255
0.488641 0.020473 0.041667 -0.000000 -0.000000 1.000000 225 119 29 255
0.060128 0.518084 0.041667 -0.000000 -0.000000 1.000000 225 119 29 255
0.197610 0.668850 0.041667 -0.000000 -0.000000 1.000000 225 119 29 255
0.002039 0.711276 0.041667 -0.000000 -0.000000 1.000000 225 119 29 255
0.143615 -0.686943 0.041667 -0.000000 -0.000000 1.000000 225 119 29 255
0.194749 -0.553505 0.041667 -0.000000 -0.000000 1.000000 225 119 29 255
0.111878 -0.611355 0.041667 -0.000000 -0.000000 1.000000 225 119 29 255
-0.654823 0.332233 0.041667 -0.000000 0.000000 1.000000 225 119 29 255
-0.378047 0.254093 0.041667 -0.000000 0.000000 1.000000 225 119 29 255
-0.575870 0.461013 0.041667 -0.000000 -0.000000 1.000000 225 119 29 255
0.046555 -0.010049 0.041667 -0.000000 -0.000000 1.000000 225 119 29 255
0.143333 -0.194362 0.041667 -0.000000 -0.000000 1.000000 225 119 29 255
0.189493 -0.140645 0.041667 -0.000000 -0.000000 1.000000 225 119 29 255
-0.130938 0.045551 0.041667 -0.000000 0.000000 1.000000 225 119 29 255
0.046555 -0.010049 0.041667 -0.000000 0.000000 1.000000 225 119 29 255
0.047199 0.085766 0.041667 -0.000000 0.000000 1.000000 225 119 29 255
-0.467821 0.571063 0.041667 -0.000000 -0.000000 1.000000 225 119 29 255
-0.378047 0.254093 0.041667 -0.000000 -0.000000 1.000000 225 119 29 255
-0.228400 0.457386 0.041667 -0.000000 -0.000000 1.000000 225 119 29 255
0.197610 0.668850 0.041667 -0.000000 -0.000000 1.000000 225 119 29 255
0.226441 0.453256 0.041667 -0.000000 -0.000000 1.000000 225 119 29 255
0.407847 0.568917 0.041667 -0.000000 -0.000000 1.000000 225 119 29 255
0.253469 -0.052019 0.041667 -0.000000 -0.000000 1.000000 225 119 29 255
0.102811 0.063066 0.041667 -0.000000 -0.000000 1.000000 225 119 29 255
0.223705 -0.096568 0.041667 -0.000000 -0.000000 1.000000 225 119 29 255
0.366902 0.116800 0.041667 -0.000000 -0.000000 1.000000 225 119 29 255
0.330112 -0.091301 0.041667 -0.000000 -0.000000 1.000000 225 119 29 255
0.426183 0.079397 0.041667 -0.000000 -0.000000 1.000000 225 119 29 255
-0.017215 0.295813 0.041667 -0.000000 -0.000000 1.000000 225 119 29 255
-0.218576 0.221799 0.041667 -0.000000 0.000000 1.000000 225 119 29 255
-0.159523 0.148419 0.041667 -0.000000 0.000000 1.000000 225 119 29 255
-0.130938 0.045551 0.041667 -0.000000 -0.000000 1.000000 225 119 29 255
0.035184 0.168016 0.041667 -0.000000 -0.000000 1.000000 225 119 29 255
-0.159523 0.148419 0.041667 -0.000000 -0.000000 1.000000 225 119 29 255
-0.713900 0.049503 0.041667 -0.000000 -0.000000 1.000000 225 119 29 255
-0.533006 -0.081131 0.041667 -0.000000 -0.000000 1.000000 225 119 29 255
-0.509267 0.090433 0.041667 -0.000000 0.000000 1.000000 225 119 29 255
0.463720 0.193670 0.041667 -0.000000 -0.000000 1.000000 225 119 29 255
0.598812 0.379263 0.041667 -0.000000 -0.000000 1.000000 225 119 29 255
0.423513 0.271439 0.041667 -0.000000 -0.000000 1.000000 225 119 29 255
-0.052795 0.343354 0.041667 -0.000000 0.000000 1.000000 225 119 29 255
-0.168226 0.432518 0.041667 -0.000000 0.000000 1.000000 225 119 29 255
-0.218576 0.221799 0.041667 -0.000000 -0.000000 1.000000 225 119 29 255
0.035184 0.168016 0.041667 -0.000000 0.000000 1.000000 225 119 29 255
-0.017215 0.295813 0.041667 -0.000000 0.000000 1.000000 225 119 29 255
-0.159523 0.148419 0.041667 -0.000000 0.000000 1.000000 225 119 29 255
-0.701795 0.192477 0.041667 -0.000000 0.000000 1.000000 225 119 29 255
-0.713900 0.049503 0.041667 -0.000000 0.000000 1.000000 225 119 29 255
-0.509267 0.090433 0.041667 -0.000000 0.000000 1.000000 225 119 29 255
0.330112 -0.091301 0.041667 -0.000000 0.000000 1.000000 225 119 29 255
0.488641 0.020473 0.041667 -0.000000 -0.000000 1.000000 225 119 29 255
0.426183 0.079397 0.041667 -0.000000 -0.000000 1.000000 225 119 29 255
-0.353099 -0.374980 0.041667 -0.000000 -0.000000 1.000000 225 119 29 255
-0.146687 -0.432246 0.041667 -0.000000 -0.000000 1.000000 225 119 29 255
-0.215215 -0.222648 0.041667 -0.000000 0.000000 1.000000 225 119 29 255
0.488641 0.020473 0.041667 -0.000000 -0.000000 1.000000 225 119 29 255
0.701208 0.119540 0.041667 -0.000000 -0.000000 1.000000 225 119 29 255
0.486388 0.109565 0.041667 -0.000000 -0.000000 1.000000 225 119 29 255
0.212564 0.130913 0.041667 -0.000000 0.000000 1.000000 225 119 29 255
0.253469 -0.052019 0.041667 -0.000000 0.000000 1.000000 225 119 29 255
0.259649 0.139454 0.041667 -0.000000 0.000000 1.000000 225 119 29 255
0.699902 -0.164929 0.041667 -0.000000 0.000000 1.000000 225 119 29 255
0.488641 0.020473 0.041667 -0.000000 0.000000 1.000000 225 119 29 255
0.409976 -0.189563 0.041667 -0.000000 0.000000 1.000000 225 119 29 255
-0.701795 0.192477 0.041667 -0.000000 0.000000 1.000000 225 119 29 255
-0.453444 0.200007 0.041667 -0.000000 0.000000 1.000000 225 119 29 255
-0.654823 0.332233 0.041667 -0.000000 0.000000 1.000000 225 119 29 255
-0.621964 -0.215083 0.041667 -0.000000 0.000000 1.000000 225 119 29 255
-0.533006 -0.081131 0.041667 -0.000000 0.000000 1.000000 225 119 29 255
-0.688251 -0.088936 0.041667 -0.000000 0.000000 1.000000 225 119 29 255
0.325642 -0.626819 0.041667 -0.000000 0.000000 1.000000 225 119 29 255
0.327568 -0.430488 0.041667 -0.000000 0.000000 1.000000 225 119 29 255
0.267259 -0.492807 0.041667 -0.000000 0.000000 1.000000 225 119 29 255
0.046555 -0.010049 0.041667 -0.000000 -0.000000 1.000000 225 119 29 255
0.189493 -0.140645 0.041667 -0.000000 -0.000000 1.000000 225 119 29 255
0.223705 -0.096568 0.041667 -0.000000 -0.000000 1.000000 225 119 29 255
0.486388 0.109565 0.041667 -0.000000 0.000000 1.000000 225 119 29 255
0.662027 0.255327 0.041667 -0.000000 0.000000 1.000000 225 119 29 255
0.463720 0.193670 0.041667 -0.000000 0.000000 1.000000 225 119 29 255
-0.168226 0.432518 0.041667 -0.000000 -0.000000 1.000000 225 119 29 255
-0.295588 0.259190 0.041667 -0.000000 -0.000000 1.000000 225 119 29 255
-0.218576 0.221799 0.041667 -0.000000 -0.000000 1.000000 225 119 29 255
0.085931 -0.254051 0.041667 -0.000000 -0.000000 1.000000 225 119 29 255
0.046555 -0.010049 0.041667 -0.000000 -0.000000 1.000000 225 119 29 255
-0.145332 -0.080304 0.041667 -0.000000 -0.000000 1.000000 225 119 29 255
0.301996 0.402580 0.041667 -0.000000 0.000000 1.000000 225 119 29 255
0.513455 0.485681 0.041667 -0.000000 0.000000 1.000000 225 119 29 255
0.407847 0.568917 0.041667 -0.000000 0.000000 1.000000 225 119 29 255
0.423513 0.271439 0.041667 -0.000000 0.000000 1.000000 225 119 29 255
0.513455 0.485681 0.041667 -0.000000 0.000000 1.000000 225 119 29 255
0.368646 0.341525 0.041667 -0.000000 0.000000 1.000000 225 119 29 255
0.017990 -0.316041 0.041667 -0.000000 -0.000000 1.000000 225 119 29 255
-0.146687 -0.432246 0.041667 -0.000000 -0.000000 1.000000 225 119 29 255
-0.059784 -0.376663 0.041667 -0.000000 -0.000000 1.000000 225 119 29 255
0.226441 0.453256 0.041667 -0.000000 0.000000 1.000000 225 119 29 255
0.301996 0.402580 0.041667 -0.000000 0.000000 1.000000 225 119 29 255
0.407847 0.568917 0.041667 -0.000000 0.000000 1.000000 225 119 29 255
0.020488 -0.665128 0.041667 -0.000000 0.000000 1.000000 225 119 29 255
0.143615 -0.686943 0.041667 -0.000000 0.000000 1.000000 225 119 29 255
0.111878 -0.611355 0.041667 -0.000000 0.000000 1.000000 225 119 29 255
-0.345060 -0.513618 0.041667 -0.000000 -0.000000 1.000000 225 119 29 255
-0.353099 -0.374980 0.041667 -0.000000 -0.000000 1.000000 225 119 29 255
-0.455122 -0.532067 0.041667 -0.000000 -0.000000 1.000000 225 119 29 255
0.416880 -0.246086 0.041667 -0.000000 -0.000000 1.000000 225 119 29 255
0.579758 -0.428823 0.041667 -0.000000 -0.000000 1.000000 225 119 29 255
0.655630 -0.302280 0.041667 -0.000000 -0.000000 1.000000 225 119 29 255
-0.467821 0.571063 0.041667 -0.000000 0.000000 1.000000 225 119 29 255
-0.228400 0.457386 0.041667 -0.000000 0.000000 1.000000 225 119 29 255
-0.333563 0.654627 0.041667 -0.000000 0.000000 1.000000 225 119 29 255
-0.228400 0.457386 0.041667 -0.000000 0.000000 1.000000 225 119 29 255
-0.378047 0.254093 0.041667 -0.000000 0.000000 1.000000 225 119 29 255
-0.295588 0.259190 0.041667 -0.000000 0.000000 1.000000 225 119 29 255
0.017990 -0.316041 0.041667 -0.000000 -0.000000 1.000000 225 119 29 255
-0.145332 -0.080304 0.041667 -0.000000 -0.000000 1.000000 225 119 29 255
-0.215215 -0.222648 0.041667 -0.000000 -0.000000 1.000000 225 119 29 255
0.223705 -0.096568 0.041667 -0.000000 0.000000 1.000000 225 119 29 255
0.102811 0.063066 0.041667 -0.000000 0.000000 1.000000 225 119 29 255
0.046555 -0.010049 0.041667 -0.000000 0.000000 1.000000 225 119 29 255
-0.107269 0.525226 0.041667 -0.000000 -0.000000 1.000000 225 119 29 255
-0.175981 0.703950 0.041667 -0.000000 -0.000000 1.000000 225 119 29 255
-0.184180 0.503796 0.041667 -0.000000 -0.000000 1.000000 225 119 29 255
-0.175981 0.703950 0.041667 -0.000000 -0.000000 1.000000 225 119 29 255
-0.228400 0.457386 0.041667 -0.000000 -0.000000 1.000000 225 119 29 255
0.311243 0.135784 0.041667 -0.000000 -0.000000 1.000000 225 119 29 255
0.699902 -0.164929 0.041667 -0.000000 -0.000000 1.000000 225 119 29 255
0.327568 -0.430488 0.041667 -0.000000 0.000000 1.000000 225 119 29 255
0.144859 0.492207 0.041667 -0.000000 -0.000000 1.000000 225 119 29 255
0.325642 -0.626819 0.041667 -0.000000 -0.000000 1.000000 225 119 29 255
-0.453444 0.200007 0.041667 -0.000000 0.000000 1.000000 225 119 29 255
-0.145332 -0.080304 0.041667 -0.000000 0.000000 1.000000 225 119 29 255
-0.575870 0.461013 0.041667 -0.000000 -0.000000 1.000000 225 119 29 255
0.144859 0.492207 0.041667 -0.000000 -0.000000 1.000000 225 119 29 255
0.253469 -0.052019 0.041667 -0.000000 -0.000000 1.000000 225 119 29 255
-0.052795 0.343354 0.041667 -0.000000 -0.000000 1.000000 225 119 29 255
0.047199 0.085766 0.041667 -0.000000 -0.000000 1.000000 225 119 29 255
-0.688251 -0.088936 0.041667 -0.000000 -0.000000 1.000000 225 119 29 255
0.662027 0.255327 0.041667 -0.000000 -0.000000 1.000000 225 119 29 255
-0.091425 0.381321 0.041667 -0.000000 0.000000 1.000000 225 119 29 255
0.012912 0.237700 0.041667 -0.000000 -0.000000 1.000000 225 119 29 255
0.381667 -0.137559 0.041667 -0.000000 0.000000 1.000000 225 119 29 255
-0.242014 -0.479121 0.041667 -0.000000 -0.000000 1.000000 225 119 29 255
0.714464 -0.022434 0.041667 -0.000000 -0.000000 1.000000 225 119 29 255
0.714464 -0.022434 0.041667 -0.000000 0.000000 1.000000 225 119 29 255
-0.509267 0.090433 0.041667 -0.000000 -0.000000 1.000000 225 119 29 255
-0.512151 -0.321184 0.041667 -0.000000 0.000000 1.000000 225 119 29 255
0.470392 -0.538891 0.041667 -0.000000 0.000000 1.000000 225 119 29 255
0.701208 0.119540 0.041667 -0.000000 0.000000 1.000000 225 119 29 255
0.143333 -0.194362 0.041667 -0.000000 -0.000000 1.000000 225 119 29 255
0.368646 0.341525 0.041667 -0.000000 0.000000 1.000000 225 119 29 255
0.598812 0.379263 0.041667 -0.000000 0.000000 1.000000 225 119 29 255
-0.215215 -0.222648 0.041667 -0.000000 0.000000 1.000000 225 119 29 255
-0.077581 -0.713597 0.041667 -0.000000 0.000000 1.000000 225 119 29 255
-0.242014 -0.479121 0.041667 -0.000000 -0.000000 1.000000 225 119 29 255
0.404220 -0.305900 0.041667 -0.000000 0.000000 1.000000 225 119 29 255
0.085931 -0.254051 0.041667 -0.000000 -0.000000 1.000000 225 119 29 255
0.259548 0.965746 0.020834 -0.000000 0.000000 1.000000 59 27 0 255
0.196025 -0.980229 0.020834 -0.000000 0.000000 1.000000 59 27 0 255
0.259548 -0.965363 0.020834 -0.000000 0.000000 1.000000 59 27 0 255
0.196025 -0.980229 0.020834 -0.000000 0.000000 1.000000 59 27 0 255
0.066066 -0.997436 0.020834 -0.000000 0.000000 1.000000 59 27 0 255
0.131466 -0.990947 0.020834 -0.000000 0.000000 1.000000 59 27 0 255
-0.066027 -0.997436 0.020834 -0.000000 0.000000 1.000000 59 27 0 255
-0.195985 -0.980228 0.020834 -0.000000 0.000000 1.000000 59 27 0 255
-0.131427 -0.990946 0.020834 -0.000000 0.000000 1.000000 59 27 0 255
-0.066027 0.997819 0.020834 -0.000000 -0.000000 1.000000 59 27 0 255
-0.195985 0.980611 0.020834 -0.000000 -0.000000 1.000000 59 27 0 255
-0.066027 -0.997436 0.020834 -0.000000 0.000000 1.000000 59 27 0 255
0.608061 -0.793576 0.020834 -0.000000 -0.000000 1.000000 59 27 0 255
0.499400 -0.866034 0.020834 -0.000000 0.000000 1.000000 59 27 0 255
0.554831 -0.831638 0.020834 -0.000000 0.000000 1.000000 59 27 0 255
0.997858 -0.065841 0.020834 -0.000000 -0.000000 1.000000 59 27 0 255
0.923917 -0.382419 0.020834 -0.000000 0.000000 1.000000 59 27 0 255
0.946842 -0.321562 0.020834 -0.000000 0.000000 1.000000 59 27 0 255
-0.499360 -0.866034 0.020833 -0.000000 0.000000 1.000000 59 27 0 255
-0.658856 0.752312 0.020833 -0.000000 0.000000 1.000000 59 27 0 255
-0.658856 -0.751930 0.020833 -0.000000 0.000000 1.000000 59 27 0 255
-0.980607 0.196155 0.020833 -0.000000 0.000000 1.000000 59 27 0 255
-0.946802 0.321945 0.020833 -0.000000 -0.000000 1.000000 59 27 0 255
-0.965739 0.259665 0.020833 -0.000000 -0.000000 1.000000 59 27 0 255
0.897086 -0.441657 0.020834 -0.000000 0.000000 1.000000 59 27 0 255
0.923917 0.382801 0.020834 -0.000000 0.000000 1.000000 59 27 0 255
0.897086 0.442040 0.020834 -0.000000 0.000000 1.000000 59 27 0 255
0.897086 0.442040 0.020834 -0.000000 -0.000000 1.000000 59 27 0 255
0.752300 0.658928 0.020834 -0.000000 -0.000000 1.000000 59 27 0 255
0.707141 0.707162 0.020834 -0.000000 -0.000000 1.000000 59 27 0 255
-0.997818 -0.065842 0.020833 -0.000000 -0.000000 1.000000 59 27 0 255
-0.946802 -0.321562 0.020833 -0.000000 0.000000 1.000000 59 27 0 255
-1.000000 0.000191 0.020833 -0.000000 -0.000000 1.000000 59 27 0 255
-0.608022 0.793958 0.020833 -0.000000 -0.000000 1.000000 59 27 0 255
-0.499360 0.866417 0.020833 -0.000000 0.000000 1.000000 59 27 0 255
-0.554792 0.832020 0.020833 -0.000000 0.000000 1.000000 59 27 0 255
1.000040 0.000191 0.020834 -0.000000 -0.000000 1.000000 59 27 0 255
0.923917 0.382801 0.020834 -0.000000 -0.000000 1.000000 59 27 0 255
0.923917 -0.382419 0.020834 -0.000000 0.000000 1.000000 59 27 0 255
0.997858 -0.065841 0.020834 -0.000000 0.000000 1.000000 59 27 0 255
0.980647 -0.195772 0.020834 -0.000000 0.000000 1.000000 59 27 0 255
0.991367 -0.131227 0.020834 -0.000000 0.000000 1.000000 59 27 0 255
-0.259508 0.965746 0.020834 -0.000000 0.000000 1.000000 59 27 0 255
-0.259508 -0.965363 0.020834 -0.000000 0.000000 1.000000 59 27 0 255
-0.195985 -0.980228 0.020834 -0.000000 0.000000 1.000000 59 27 0 255
-1.000000 0.000191 0.020833 -0.000000 -0.000000 1.000000 59 27 0 255
-0.923878 -0.382419 0.020833 -0.000000 -0.000000 1.000000 59 27 0 255
-0.923878 0.382801 0.020833 -0.000000 0.000000 1.000000 59 27 0 255
0.321841 0.946813 0.020834 -0.000000 0.000000 1.000000 59 27 0 255
0.259548 -0.965363 0.020834 -0.000000 0.000000 1.000000 59 27 0 255
0.321841 -0.946431 0.020834 -0.000000 0.000000 1.000000 59 27 0 255
-0.866389 -0.499084 0.020833 -0.000000 -0.000000 1.000000 59 27 0 255
-0.793915 -0.607722 0.020833 -0.000000 0.000000 1.000000 59 27 0 255
-0.752260 -0.658546 0.020833 -0.000000 0.000000 1.000000 59 27 0 255
0.707141 0.707162 0.020834 -0.000000 0.000000 1.000000 59 27 0 255
0.897086 -0.441657 0.020834 -0.000000 0.000000 1.000000 59 27 0 255
0.897086 0.442040 0.020834 -0.000000 0.000000 1.000000 59 27 0 255
0.499400 0.866417 0.020834 -0.000000 0.000000 1.000000 59 27 0 255
0.441962 -0.896686 0.020834 -0.000000 0.000000 1.000000 59 27 0 255
0.499400 -0.866034 0.020834 -0.000000 0.000000 1.000000 59 27 0 255
-0.991327 0.131610 0.020833 0.000000 -0.000000 1.000000 59 27 0 255
-0.997818 0.066224 0.020833 0.000000 -0.000000 1.000000 59 27 0 255
-0.980607 0.196155 0.020833 0.000000 -0.000000 1.000000 59 27 0 255
0.991367 0.131610 0.020834 -0.000000 -0.000000 1.000000 59 27 0 255
0.965778 0.259664 0.020834 -0.000000 0.000000 1.000000 59 27 0 255
0.997858 0.066224 0.020834 -0.000000 -0.000000 1.000000 59 27 0 255
0.980647 -0.195772 0.020834 -0.000000 -0.000000 1.000000 59 27 0 255
0.946842 -0.321562 0.020834 -0.000000 0.000000 1.000000 59 27 0 255
0.965778 -0.259282 0.020834 -0.000000 0.000000 1.000000 59 27 0 255
0.946842 0.321945 0.020834 -0.000000 0.000000 1.000000 59 27 0 255
0.997858 0.066224 0.020834 -0.000000 0.000000 1.000000 59 27 0 255
0.965778 0.259664 0.020834 -0.000000 -0.000000 1.000000 59 27 0 255
-0.321802 0.946813 0.020834 -0.000000 0.000000 1.000000 59 27 0 255
-0.321802 -0.946430 0.020834 -0.000000 0.000000 1.000000 59 27 0 255
-0.259508 -0.965363 0.020834 -0.000000 0.000000 1.000000 59 27 0 255
-0.382671 -0.923511 0.020834 -0.000000 0.000000 1.000000 59 27 0 255
-0.499360 0.866417 0.020833 -0.000000 -0.000000 1.000000 59 27 0 255
-0.441922 -0.896685 0.020834 -0.000000 0.000000 1.000000 59 27 0 255
-0.752260 0.658928 0.020833 -0.000000 0.000000 1.000000 59 27 0 255
-0.897047 0.442040 0.020833 -0.000000 0.000000 1.000000 59 27 0 255
-0.707101 0.707162 0.020833 -0.000000 0.000000 1.000000 59 27 0 255
0.499400 0.866417 0.020834 -0.000000 0.000000 1.000000 59 27 0 255
0.658896 -0.751930 0.020834 -0.000000 0.000000 1.000000 59 27 0 255
0.658896 0.752312 0.020834 -0.000000 0.000000 1.000000 59 27 0 255
0.897086 -0.441657 0.020834 -0.000000 0.000000 1.000000 59 27 0 255
0.752300 -0.658546 0.020834 -0.000000 0.000000 1.000000 59 27 0 255
0.866428 -0.499084 0.020834 -0.000000 0.000000 1.000000 59 27 0 255
-0.923878 0.382801 0.020833 -0.000000 0.000000 1.000000 59 27 0 255
-0.997818 0.066224 0.020833 -0.000000 0.000000 1.000000 59 27 0 255
-1.000000 0.000191 0.020833 -0.000000 0.000000 1.000000 59 27 0 255
0.793955 0.608104 0.020834 -0.000000 0.000000 1.000000 59 27 0 255
0.866428 0.499466 0.020834 0.000000 0.000000 1.000000 59 27 0 255
0.832024 0.554885 0.020834 0.000000 0.000000 1.000000 59 27 0 255
0.066067 0.997819 0.020834 -0.000000 0.000000 1.000000 59 27 0 255
0.000020 -0.999617 0.020834 -0.000000 0.000000 1.000000 59 27 0 255
0.066066 -0.997436 0.020834 -0.000000 0.000000 1.000000 59 27 0 255
-0.441922 -0.896685 0.020834 -0.000000 0.000000 1.000000 59 27 0 255
-0.499360 0.866417 0.020833 -0.000000 0.000000 1.000000 59 27 0 255
-0.499360 -0.866034 0.020833 -0.000000 0.000000 1.000000 59 27 0 255
-0.752260 -0.658546 0.020833 -0.000000 -0.000000 1.000000 59 27 0 255
-0.897047 -0.441657 0.020833 -0.000000 -0.000000 1.000000 59 27 0 255
-0.866389 -0.499084 0.020833 -0.000000 -0.000000 1.000000 59 27 0 255
-0.382671 0.923894 0.020834 -0.000000 0.000000 1.000000 59 27 0 255
-0.382671 -0.923511 0.020834 -0.000000 0.000000 1.000000 59 27 0 255
-0.321802 -0.946430 0.020834 -0.000000 0.000000 1.000000 59 27 0 255
-0.195985 -0.980228 0.020834 -0.000000 0.000000 1.000000 59 27 0 255
-0.195985 0.980611 0.020834 -0.000000 0.000000 1.000000 59 27 0 255
-0.259508 0.965746 0.020834 -0.000000 0.000000 1.000000 59 27 0 255
0.499400 0.866417 0.020834 -0.000000 -0.000000 1.000000 59 27 0 255
0.608061 0.793958 0.020834 -0.000000 0.000000 1.000000 59 27 0 255
0.554831 0.832020 0.020834 -0.000000 -0.000000 1.000000 59 27 0 255
-0.923878 -0.382419 0.020833 -0.000000 0.000000 1.000000 59 27 0 255
-0.897047 0.442040 0.020833 -0.000000 0.000000 1.000000 59 27 0 255
-0.923878 0.382801 0.020833 -0.000000 0.000000 1.000000 59 27 0 255
0.793955 -0.607722 0.020834 -0.000000 -0.000000 1.000000 59 27 0 255
0.866428 -0.499084 0.020834 0.000000 -0.000000 1.000000 59 27 0 255
0.752300 -0.658546 0.020834 -0.000000 -0.000000 1.000000 59 27 0 255
0.658896 -0.751930 0.020834 -0.000000 0.000000 1.000000 59 27 0 255
0.707141 0.707162 0.020834 -0.000000 0.000000 1.000000 59 27 0 255
0.658896 0.752312 0.020834 -0.000000 0.000000 1.000000 59 27 0 255
0.131466 0.991329 0.020834 -0.000000 -0.000000 1.000000 59 27 0 255
0.259548 0.965746 0.020834 -0.000000 -0.000000 1.000000 59 27 0 255
0.196025 0.980611 0.020834 -0.000000 0.000000 1.000000 59 27 0 255
-0.793915 0.608104 0.020833 -0.000000 -0.000000 1.000000 59 27 0 255
-0.866389 0.499466 0.020833 -0.000000 0.000000 1.000000 59 27 0 255
-0.752260 0.658928 0.020833 -0.000000 -0.000000 1.000000 59 27 0 255
0.441962 0.897068 0.020834 -0.000000 0.000000 1.000000 59 27 0 255
0.382711 -0.923511 0.020834 -0.000000 0.000000 1.000000 59 27 0 255
0.441962 -0.896686 0.020834 -0.000000 0.000000 1.000000 59 27 0 255
0.259548 0.965746 0.020834 -0.000000 0.000000 1.000000 59 27 0 255
0.066066 -0.997436 0.020834 -0.000000 0.000000 1.000000 59 27 0 255
0.196025 -0.980229 0.020834 -0.000000 0.000000 1.000000 59 27 0 255
0.000020 1.000000 0.020834 -0.000000 0.000000 1.000000 59 27 0 255
-0.066027 -0.997436 0.020834 -0.000000 0.000000 1.000000 59 27 0 255
0.000020 -0.999617 0.020834 -0.000000 0.000000 1.000000 59 27 0 255
-0.707101 0.707162 0.020833 -0.000000 0.000000 1.000000 59 27 0 255
-0.658856 -0.751930 0.020833 -0.000000 0.000000 1.000000 59 27 0 255
-0.658856 0.752312 0.020833 -0.000000 0.000000 1.000000 59 27 0 255
-0.991327 -0.131227 0.020833 -0.000000 0.000000 1.000000 59 27 0 255
-0.965739 -0.259282 0.020833 -0.000000 -0.000000 1.000000 59 27 0 255
-0.997818 -0.065842 0.020833 -0.000000 0.000000 1.000000 59 27 0 255
0.321841 0.946813 0.020834 -0.000000 0.000000 1.000000 59 27 0 255
0.382711 -0.923511 0.020834 -0.000000 0.000000 1.000000 59 27 0 255
0.382711 0.923894 0.020834 -0.000000 0.000000 1.000000 59 27 0 255
-0.707101 0.707162 0.020833 -0.000000 0.000000 1.000000 59 27 0 255
-0.897047 -0.441657 0.020833 -0.000000 0.000000 1.000000 59 27 0 255
-0.707101 -0.706780 0.020833 -0.000000 0.000000 1.000000 59 27 0 255
-0.499360 -0.866034 0.020833 -0.000000 -0.000000 1.000000 59 27 0 255
-0.608022 -0.793576 0.020833 -0.000000 0.000000 1.000000 59 27 0 255
-0.554792 -0.831638 0.020833 -0.000000 -0.000000 1.000000 59 27 0 255
-0.131427 0.991329 0.020834 -0.000000 -0.000000 1.000000 59 27 0 255
0.658896 -0.751930 0.020834 -0.000000 -0.000000 1.000000 59 27 0 255
1.000040 0.000191 0.020834 -0.000000 -0.000000 1.000000 59 27 0 255
-0.499360 0.866417 0.020833 -0.000000 0.000000 1.000000 59 27 0 255
-0.997818 0.066224 0.020833 -0.000000 0.000000 1.000000 59 27 0 255
0.923917 -0.382419 0.020834 -0.000000 0.000000 1.000000 59 27 0 255
0.866428 0.499466 0.020834 -0.000000 -0.000000 1.000000 59 27 0 255
-0.965739 -0.259282 0.020833 -0.000000 0.000000 1.000000 59 27 0 255
-0.658856 0.752312 0.020833 -0.000000 -0.000000 1.000000 59 27 0 255
0.946842 0.321945 0.020834 -0.000000 -0.000000 1.000000 59 27 0 255
-0.321802 0.946813 0.020834 -0.000000 0.000000 1.000000 59 27 0 255
-0.946802 -0.321562 0.020833 -0.000000 -0.000000 1.000000 59 27 0 255
0.259548 0.965746 0.020834 -0.000000 0.000000 1.000000 59 27 0 255
-0.831985 -0.554503 0.020833 -0.000000 -0.000000 1.000000 59 27 0 255
0.707141 -0.706780 0.020834 -0.000000 0.000000 1.000000 59 27 0 255
0.441962 0.897068 0.020834 -0.000000 0.000000 1.000000 59 27 0 255
0.980647 0.196155 0.020834 -0.000000 0.000000 1.000000 59 27 0 255
0.997858 -0.065841 0.020834 -0.000000 -0.000000 1.000000 59 27 0 255
1.000040 0.000191 0.020834 -0.000000 0.000000 1.000000 59 27 0 255
-0.382671 0.923894 0.020834 -0.000000 0.000000 1.000000 59 27 0 255
-0.441922 0.897068 0.020834 -0.000000 -0.000000 1.000000 59 27 0 255
-0.866389 0.499466 0.020833 -0.000000 0.000000 1.000000 59 27 0 255
0.499400 -0.866034 0.020834 -0.000000 0.000000 1.000000 59 27 0 255
0.707141 -0.706780 0.020834 -0.000000 0.000000 1.000000 59 27 0 255
-0.946802 0.321945 0.020833 -0.000000 -0.000000 1.000000 59 27 0 255
0.752300 0.658928 0.020834 -0.000000 0.000000 1.000000 59 27 0 255
0.000020 1.000000 0.020834 -0.000000 0.000000 1.000000 59 27 0 255
-0.707101 -0.706780 0.020833 -0.000000 -0.000000 1.000000 59 27 0 255
-0.441922 0.897068 0.020834 -0.000000 0.000000 1.000000 59 27 0 255
-0.066027 -0.997436 0.020834 -0.000000 0.000000 1.000000 59 27 0 255
0.658896 0.752312 0.020834 -0.000000 0.000000 1.000000 59 27 0 255
-0.897047 -0.441657 0.020833 -0.000000 0.000000 1.000000 59 27 0 255
0.832024 -0.554503 0.020834 0.000000 -0.000000 1.000000 59 27 0 255
0.707141 -0.706780 0.020834 -0.000000 0.000000 1.000000 59 27 0 255
0.066067 0.997819 0.020834 -0.000000 -0.000000 1.000000 59 27 0 255
-0.831985 0.554886 0.020833 -0.000000 0.000000 1.000000 59 27 0 255
0.382711 0.923894 0.020834 -0.000000 0.000000 1.000000 59 27 0 255
0.066067 0.997819 0.020834 -0.000000 0.000000 1.000000 59 27 0 255
-0.066027 0.997819 0.020834 -0.000000 0.000000 1.000000 59 27 0 255
-0.707101 -0.706780 0.020833 -0.000000 0.000000 1.000000 59 27 0 255
-0.980607 -0.195772 0.020833 -0.000001 -0.000000 1.000000 59 27 0 255
0.321841 -0.946431 0.020834 -0.000000 0.000000 1.000000 59 27 0 255
-0.897047 0.442040 0.020833 -0.000000 0.000000 1.000000 59 27 0 255
-0.658856 -0.751930 0.020833 -0.000000 0.000000 1.000000 59 27 0 255
3 0 1 2
3 3 4 5
3 6 7 8
3 9 10 11
3 12 13 14
3 15 16 17
3 18 19 20
3 21 22 23
3 24 25 26
3 27 28 29
3 30 31 32
3 33 34 35
3 36 37 38
3 39 40 41
3 42 43 44
3 45 46 47
3 48 49 50
3 51 52 53
3 54 55 56
3 57 58 59
3 60 61 62
3 63 64 65
3 66 67 68
3 69 70 71
3 72 73 74
3 75 76 77
3 78 79 80
3 81 82 83
3 84 85 86
3 87 88 89
3 90 91 92
3 93 94 95
3 96 97 98
3 99 100 101
3 102 103 104
3 105 106 107
3 108 109 110
3 111 112 113
3 114 115 116
3 117 118 119
3 120 121 122
3 123 124 125
3 126 127 128
3 129 130 131
3 132 133 134
3 135 136 137
3 138 139 140
3 141 142 143
3 144 145 146
3 147 148 149
3 150 151 152
3 153 154 155
3 6 156 7
3 15 157 16
3 21 158 22
3 24 159 25
3 30 160 31
3 36 161 37
3 39 162 40
3 42 163 43
3 48 164 49
3 51 165 52
3 54 166 55
3 60 167 61
3 63 168 64
3 66 169 67
3 69 170 70
3 72 171 73
3 75 172 76
3 78 173 79
3 84 174 85
3 87 175 88
3 90 176 91
3 96 177 97
3 99 178 100
3 102 179 103
3 105 180 106
3 111 181 112
3 117 182 118
3 120 183 121
3 123 184 124
3 126 185 127
3 132 186 133
3 135 187 136
3 138 188 139
3 147 189 148
3 190 191 192
3 193 194 195
3 196 197 198
3 199 200 201
3 202 203 204
3 205 206 207
3 208 209 210
3 211 212 213
3 214 215 216
3 217 218 219
3 220 221 222
3 223 224 225
3 226 227 228
3 229 230 231
3 232 233 234
3 235 236 237
3 238 239 240
3 241 242 243
3 244 245 246
3 247 248 249
3 250 251 252
3 253 254 255
3 256 257 258
3 259 260 261
3 262 263 264
3 265 266 267
3 268 269 270
3 271 272 273
3 274 275 276
3 277 278 279
3 280 281 282
3 283 284 285
3 286 287 288
3 289 290 291
3 292 293 294
3 295 296 297
3 298 299 300
3 301 302 303
3 304 305 306
3 307 308 309
3 310 311 312
3 313 314 315
3 316 317 318
3 319 320 321
3 322 323 324
3 325 326 327
3 328 329 330
3 331 332 333
3 334 335 336
3 337 338 339
3 199 340 200
3 202 341 203
3 205 342 206
3 208 343 209
3 211 344 212
3 214 345 215
3 217 346 218
3 220 347 221
3 223 348 224
3 226 349 227
3 232 350 233
3 235 351 236
3 238 352 239
3 241 353 242
3 244 354 245
3 247 355 248
3 253 356 254
3 256 357 257
3 259 358 260
3 262 359 263
3 265 360 266
3 268 361 269
3 271 362 272
3 274 363 275
3 277 364 278
3 280 365 281
3 283 366 284
3 289 367 290
3 292 368 293
3 295 369 296
3 298 370 299
3 301 371 302
3 304 372 305
3 307 373 308
3 310 374 311
3 313 375 314
3 316 376 317
3 319 377 320
3 322 378 323
3 325 379 326
3 328 380 329
3 331 381 332
3 334 382 335
3 337 383 338
