<?xml version="1.0" encoding="UTF-8" standalone="no"?>
<!-- Created with Inkscape (http://www.inkscape.org/) -->

<svg
        width="160cm"
        height="160cm"
        viewBox="0 0 160 160"
        version="1.1"
        _id="SVGRoot"
        id="svg26"
        sodipodi:docname="fire.svg"
        inkscape:version="1.2.2 (b0a8486541, 2022-12-01)"
        xmlns:inkscape="http://www.inkscape.org/namespaces/inkscape"
        xmlns:sodipodi="http://sodipodi.sourceforge.net/DTD/sodipodi-0.dtd"
        xmlns="http://www.w3.org/2000/svg"
>
    <sodipodi:namedview
            id="namedview22"
            pagecolor="#505050"
            bordercolor="#eeeeee"
            borderopacity="1"
            inkscape:showpageshadow="0"
            inkscape:pageopacity="0"
            inkscape:pagecheckerboard="0"
            inkscape:deskcolor="#505050"
            inkscape:document-units="cm"
            showgrid="false"
            inkscape:zoom="0.079999996"
            inkscape:cx="2162.5001"
            inkscape:cy="2918.7501"
            inkscape:window-width="1870"
            inkscape:window-height="1051"
            inkscape:window-x="1920"
            inkscape:window-y="0"
            inkscape:window-maximized="1"
            inkscape:current-layer="svg26"/>
    <defs
            _id="defs402"
            id="defs8"/>
    <path
            id="path394"
            style="fill:#4a362d;stroke-linecap:square;paint-order:stroke fill markers;stop-color:#000000"
            inkscape:transform-center-x="1.0547742e-05"
            inkscape:transform-center-y="-9.9755122e-06"
            transform="translate(-1.2918347e-5,-1.2346118e-5)"
            d="M 112.99397,160 46.761711,159.89881 -1.5669997e-5,112.99397 0.10117769,46.761711 47.006013,-1.5669997e-5 113.23827,0.10117769 160,47.006013 159.89881,113.23827 Z"/>
    <path
            id="path1598"
            style="color:#000000;display:inline;fill:#e1771d;stroke-width:18.3507;stroke-linecap:square;-inkscape-stroke:none;paint-order:stroke fill markers"
            d="M 31.298867,34.742499 C 71.96041,30.531684 101.15768,74.162187 101.59754,75.550028 132.20638,63.485806 107.74385,34.642794 73.387282,19.162156 155.67383,21.899899 153.98609,104.69197 114.75275,128.47381 40.920271,173.22843 -8.8205757,84.482587 36.355666,52.608453 20.225513,146.86314 120.8829,87.721615 31.298867,34.742499 Z m 52.66656,44.384706 C 86.615608,114.21894 58.462167,119.52312 58.462167,119.52312 80.075309,136.42501 124.67633,112.79994 121.6375,81.728684 99.857297,105.83913 83.666313,79.575877 83.965427,79.127205 Z"
            sodipodi:nodetypes="cccscccccc"/>
</svg>
