ply
format ascii 1.0
comment Created by Blender 3.6.0 - www.blender.org
element vertex 267
property float x
property float y
property float z
property float nx
property float ny
property float nz
property uchar red
property uchar green
property uchar blue
property uchar alpha
element face 127
property list uchar uint vertex_indices
end_header
0.275888 0.961795 0.020834 -0.000000 -0.000000 1.000000 59 27 0 255
0.448623 0.902068 0.020834 -0.000000 -0.000000 1.000000 59 27 0 255
0.383150 0.931605 0.020834 -0.000000 -0.000000 1.000000 59 27 0 255
-0.338495 -0.907091 0.020834 -0.000000 -0.000000 1.000000 59 27 0 255
0.021046 -0.746248 0.020834 -0.000000 0.000000 1.000000 59 27 0 255
-0.453566 -0.828072 0.020834 -0.000000 -0.000000 1.000000 59 27 0 255
0.991600 -0.064460 0.020834 -0.000000 -0.000000 1.000000 59 27 0 255
0.129698 -0.739902 0.020834 -0.000000 -0.000000 1.000000 59 27 0 255
0.200516 -0.745279 0.020834 -0.000000 -0.000000 1.000000 59 27 0 255
-0.013868 -0.784745 0.020834 -0.000000 -0.000000 1.000000 59 27 0 255
-0.117649 -0.995469 0.020834 -0.000000 -0.000000 1.000000 59 27 0 255
0.008887 -0.851238 0.020834 -0.000000 -0.000000 1.000000 59 27 0 255
-0.025767 0.999336 0.020834 -0.000000 0.000000 1.000000 59 27 0 255
0.021046 -0.746248 0.020834 -0.000000 0.000000 1.000000 59 27 0 255
0.068387 -0.739757 0.020834 -0.000000 0.000000 1.000000 59 27 0 255
0.068387 -0.739757 0.020834 -0.000000 0.000000 1.000000 59 27 0 255
0.693693 0.709430 0.020834 -0.000000 -0.000000 1.000000 59 27 0 255
0.136397 0.986438 0.020834 -0.000000 -0.000000 1.000000 59 27 0 255
0.035120 -0.893732 0.020834 -0.000000 -0.000000 1.000000 59 27 0 255
-0.019447 -0.995410 0.020834 -0.000000 -0.000000 1.000000 59 27 0 255
0.065559 -0.959573 0.020834 -0.000000 -0.000000 1.000000 59 27 0 255
0.008887 -0.851238 0.020834 -0.000000 0.000000 1.000000 59 27 0 255
-0.019447 -0.995410 0.020834 -0.000000 0.000000 1.000000 59 27 0 255
0.035120 -0.893732 0.020834 -0.000000 0.000000 1.000000 59 27 0 255
0.657348 -0.737421 0.020834 -0.000000 -0.000000 1.000000 59 27 0 255
0.540944 -0.801601 0.020834 -0.000000 -0.000000 1.000000 59 27 0 255
0.606774 -0.792506 0.020834 -0.000000 -0.000000 1.000000 59 27 0 255
-0.992420 -0.064271 0.020833 -0.000000 -0.000000 1.000000 59 27 0 255
-0.856486 -0.389667 0.020833 -0.000000 -0.000000 1.000000 59 27 0 255
-0.992939 0.239978 0.020833 -0.000000 -0.000000 1.000000 59 27 0 255
-0.939671 0.482886 0.020833 -0.000000 -0.000000 1.000000 59 27 0 255
-0.379885 0.965094 0.020834 -0.000000 -0.000000 1.000000 59 27 0 255
-0.552724 0.905557 0.020833 -0.000000 0.000000 1.000000 59 27 0 255
0.489560 -0.791085 0.020834 -0.000000 0.000000 1.000000 59 27 0 255
0.540944 -0.801601 0.020834 -0.000000 0.000000 1.000000 59 27 0 255
0.657348 -0.737421 0.020834 -0.000000 0.000000 1.000000 59 27 0 255
-0.453566 -0.828072 0.020834 -0.000000 0.000000 1.000000 59 27 0 255
-0.674072 -0.623917 0.020833 -0.000000 0.000000 1.000000 59 27 0 255
-0.566688 -0.732111 0.020833 -0.000000 0.000000 1.000000 59 27 0 255
-0.771934 -0.508200 0.020833 -0.000000 0.000000 1.000000 59 27 0 255
-0.992939 0.239978 0.020833 -0.000000 0.000000 1.000000 59 27 0 255
-0.856486 -0.389667 0.020833 -0.000000 -0.000000 1.000000 59 27 0 255
0.425362 -0.778793 0.020834 -0.000000 0.000000 1.000000 59 27 0 255
0.657348 -0.737421 0.020834 -0.000000 0.000000 1.000000 59 27 0 255
0.728080 -0.650467 0.020834 -0.000000 0.000000 1.000000 59 27 0 255
0.352812 -0.766127 0.020834 -0.000000 -0.000000 1.000000 59 27 0 255
0.728080 -0.650467 0.020834 -0.000000 -0.000000 1.000000 59 27 0 255
0.807921 -0.535668 0.020834 -0.000000 -0.000000 1.000000 59 27 0 255
0.276375 -0.754488 0.020834 -0.000000 0.000000 1.000000 59 27 0 255
0.807921 -0.535668 0.020834 -0.000000 -0.000000 1.000000 59 27 0 255
0.885821 -0.397051 0.020834 -0.000000 -0.000000 1.000000 59 27 0 255
-0.970516 -0.162994 0.020833 -0.000000 0.000000 1.000000 59 27 0 255
-0.923942 -0.273029 0.020833 -0.000000 0.000000 1.000000 59 27 0 255
-0.992420 -0.064271 0.020833 -0.000000 0.000000 1.000000 59 27 0 255
0.200516 -0.745279 0.020834 -0.000000 -0.000000 1.000000 59 27 0 255
0.885821 -0.397051 0.020834 -0.000000 0.000000 1.000000 59 27 0 255
0.950730 -0.238640 0.020834 -0.000000 0.000000 1.000000 59 27 0 255
0.448623 0.902068 0.020834 -0.000000 0.000000 1.000000 59 27 0 255
0.136397 0.986438 0.020834 -0.000000 0.000000 1.000000 59 27 0 255
0.693693 0.709430 0.020834 -0.000000 0.000000 1.000000 59 27 0 255
-0.201047 0.994287 0.020834 -0.000000 0.000000 1.000000 59 27 0 255
-0.992939 0.239978 0.020833 -0.000000 0.000000 1.000000 59 27 0 255
0.021046 -0.746248 0.020834 -0.000000 0.000000 1.000000 59 27 0 255
0.950730 -0.238640 0.020834 -0.000000 0.000000 1.000000 59 27 0 255
0.991600 -0.064460 0.020834 -0.000000 0.000000 1.000000 59 27 0 255
0.200516 -0.745279 0.020834 -0.000000 0.000000 1.000000 59 27 0 255
-0.013868 -0.784745 0.020834 -0.000000 0.000000 1.000000 59 27 0 255
-0.338495 -0.907091 0.020834 -0.000000 0.000000 1.000000 59 27 0 255
-0.225261 -0.964460 0.020834 -0.000000 0.000000 1.000000 59 27 0 255
0.997380 0.121461 0.020834 -0.000000 -0.000000 1.000000 59 27 0 255
0.957022 0.315101 0.020834 -0.000000 -0.000000 1.000000 59 27 0 255
0.129698 -0.739902 0.020834 -0.000000 -0.000000 1.000000 59 27 0 255
0.021046 -0.746248 0.020834 -0.000000 -0.000000 1.000000 59 27 0 255
-0.771934 -0.508200 0.020833 -0.000000 -0.000000 1.000000 59 27 0 255
-0.674072 -0.623917 0.020833 -0.000000 -0.000000 1.000000 59 27 0 255
0.957022 0.315101 0.020834 -0.000000 0.000000 1.000000 59 27 0 255
0.693693 0.709430 0.020834 -0.000000 0.000000 1.000000 59 27 0 255
0.129698 -0.739902 0.020834 -0.000000 0.000000 1.000000 59 27 0 255
-0.842174 0.670652 0.020833 -0.000000 -0.000000 1.000000 59 27 0 255
-0.552724 0.905557 0.020833 -0.000000 -0.000000 1.000000 59 27 0 255
-0.710006 0.809476 0.020833 -0.000000 -0.000000 1.000000 59 27 0 255
0.136397 0.986438 0.020834 -0.000000 0.000000 1.000000 59 27 0 255
-0.025767 0.999336 0.020834 -0.000000 0.000000 1.000000 59 27 0 255
0.068387 -0.739757 0.020834 -0.000000 0.000000 1.000000 59 27 0 255
-0.013868 -0.784745 0.020834 -0.000000 0.000000 1.000000 59 27 0 255
0.997380 0.121461 0.020834 -0.000000 0.000000 1.000000 59 27 0 255
-0.225261 -0.964460 0.020834 -0.000000 -0.000000 1.000000 59 27 0 255
-0.201047 0.994287 0.020834 -0.000000 0.000000 1.000000 59 27 0 255
0.129698 -0.739902 0.020834 -0.000000 0.000000 1.000000 59 27 0 255
-0.117649 -0.995469 0.020834 -0.000000 0.000000 1.000000 59 27 0 255
-0.923942 -0.273029 0.020833 -0.000000 -0.000000 1.000000 59 27 0 255
-0.992939 0.239978 0.020833 -0.000000 -0.000000 1.000000 59 27 0 255
0.021046 -0.746248 0.020834 -0.000000 0.000000 1.000000 59 27 0 255
0.021046 -0.746248 0.020834 -0.000000 0.000000 1.000000 59 27 0 255
0.489560 -0.791085 0.020834 -0.000000 0.000000 1.000000 59 27 0 255
0.425362 -0.778793 0.020834 -0.000000 -0.000000 1.000000 59 27 0 255
0.352812 -0.766127 0.020834 -0.000000 0.000000 1.000000 59 27 0 255
0.276375 -0.754488 0.020834 -0.000000 -0.000000 1.000000 59 27 0 255
0.275888 0.961795 0.020834 -0.000000 0.000000 1.000000 59 27 0 255
-0.379885 0.965094 0.020834 -0.000000 0.000000 1.000000 59 27 0 255
0.859477 0.512432 0.020834 -0.000000 -0.000000 1.000000 59 27 0 255
-0.939671 0.482886 0.020833 -0.000000 -0.000000 1.000000 59 27 0 255
-0.289954 -0.635257 0.041667 -0.000000 0.000000 1.000000 225 119 29 255
-0.209425 -0.708144 0.041667 -0.000000 0.000000 1.000000 225 119 29 255
-0.196802 -0.641743 0.041667 -0.000000 0.000000 1.000000 225 119 29 255
0.351347 0.686216 0.041667 -0.000000 0.000000 1.000000 225 119 29 255
0.256832 0.130642 0.041667 -0.000000 0.000000 1.000000 225 119 29 255
0.408335 0.652142 0.041667 -0.000000 0.000000 1.000000 225 119 29 255
-0.538050 0.564505 0.041667 -0.000000 0.000000 1.000000 225 119 29 255
-0.362380 0.388433 0.041667 -0.000000 0.000000 1.000000 225 119 29 255
-0.423536 0.640277 0.041667 -0.000000 0.000000 1.000000 225 119 29 255
-0.351629 -0.450111 0.041667 -0.000000 0.000000 1.000000 225 119 29 255
-0.141886 -0.379913 0.041667 -0.000000 0.000000 1.000000 225 119 29 255
-0.344045 -0.344587 0.041667 -0.000000 0.000000 1.000000 225 119 29 255
-0.113452 -0.283857 0.041667 -0.000000 0.000000 1.000000 225 119 29 255
-0.280203 -0.124479 0.041667 -0.000000 0.000000 1.000000 225 119 29 255
-0.318358 -0.234920 0.041667 -0.000000 0.000000 1.000000 225 119 29 255
0.164678 0.098970 0.041667 -0.000000 0.000000 1.000000 225 119 29 255
-0.104966 0.365821 0.041667 -0.000000 -0.000000 1.000000 225 119 29 255
-0.115589 0.257670 0.041667 -0.000000 -0.000000 1.000000 225 119 29 255
-0.141886 -0.379913 0.041667 -0.000000 -0.000000 1.000000 225 119 29 255
-0.318358 -0.234920 0.041667 -0.000000 -0.000000 1.000000 225 119 29 255
-0.344045 -0.344587 0.041667 -0.000000 -0.000000 1.000000 225 119 29 255
0.086479 0.047495 0.041667 -0.000000 0.000000 1.000000 225 119 29 255
-0.115589 0.257670 0.041667 -0.000000 0.000000 1.000000 225 119 29 255
-0.147273 0.177812 0.041667 -0.000000 0.000000 1.000000 225 119 29 255
-0.033394 -0.100349 0.041667 -0.000000 0.000000 1.000000 225 119 29 255
-0.189027 0.085255 0.041667 -0.000000 0.000000 1.000000 225 119 29 255
-0.235215 -0.016631 0.041667 -0.000000 0.000000 1.000000 225 119 29 255
-0.301415 0.701581 0.041667 -0.000000 -0.000000 1.000000 225 119 29 255
-0.207660 0.396869 0.041667 -0.000000 0.000000 1.000000 225 119 29 255
-0.178575 0.746473 0.041667 -0.000000 -0.000000 1.000000 225 119 29 255
0.364272 0.138883 0.041667 -0.000000 -0.000000 1.000000 225 119 29 255
0.408335 0.652142 0.041667 -0.000000 0.000000 1.000000 225 119 29 255
0.256832 0.130642 0.041667 -0.000000 -0.000000 1.000000 225 119 29 255
0.068187 -0.526311 0.041667 -0.000000 0.000000 1.000000 225 119 29 255
0.139249 -0.572741 0.041667 -0.000000 0.000000 1.000000 225 119 29 255
0.130074 -0.496142 0.041667 -0.000000 0.000000 1.000000 225 119 29 255
0.402256 -0.186487 0.041667 -0.000000 0.000000 1.000000 225 119 29 255
0.680111 -0.224404 0.041667 -0.000000 -0.000000 1.000000 225 119 29 255
0.430298 -0.111806 0.041667 -0.000000 0.000000 1.000000 225 119 29 255
-0.782289 0.155604 0.041667 -0.000000 0.000000 1.000000 225 119 29 255
-0.515180 0.175069 0.041667 -0.000000 0.000000 1.000000 225 119 29 255
-0.767077 0.269813 0.041667 -0.000000 0.000000 1.000000 225 119 29 255
0.671800 0.365821 0.041667 -0.000000 0.000000 1.000000 225 119 29 255
0.364272 0.138883 0.041667 -0.000000 0.000000 1.000000 225 119 29 255
0.412920 0.088848 0.041667 -0.000000 0.000000 1.000000 225 119 29 255
-0.077733 -0.189459 0.041667 -0.000000 -0.000000 1.000000 225 119 29 255
-0.235215 -0.016631 0.041667 -0.000000 -0.000000 1.000000 225 119 29 255
-0.280203 -0.124479 0.041667 -0.000000 -0.000000 1.000000 225 119 29 255
0.020899 -0.020154 0.041667 -0.000000 -0.000000 1.000000 225 119 29 255
-0.147273 0.177812 0.041667 -0.000000 -0.000000 1.000000 225 119 29 255
-0.189027 0.085255 0.041667 -0.000000 -0.000000 1.000000 225 119 29 255
0.438336 0.028577 0.041667 -0.000000 -0.000000 1.000000 225 119 29 255
0.737976 0.009290 0.041667 -0.000000 -0.000000 1.000000 225 119 29 255
0.737703 0.131125 0.041667 -0.000000 -0.000000 1.000000 225 119 29 255
0.259547 -0.573541 0.041667 -0.000000 -0.000000 1.000000 225 119 29 255
0.254516 -0.395893 0.041667 -0.000000 -0.000000 1.000000 225 119 29 255
0.193086 -0.451764 0.041667 -0.000000 -0.000000 1.000000 225 119 29 255
0.443227 -0.039212 0.041667 -0.000000 -0.000000 1.000000 225 119 29 255
0.737976 0.009290 0.041667 -0.000000 -0.000000 1.000000 225 119 29 255
0.438336 0.028577 0.041667 -0.000000 -0.000000 1.000000 225 119 29 255
-0.178575 0.746473 0.041667 -0.000000 -0.000000 1.000000 225 119 29 255
-0.104966 0.365821 0.041667 -0.000000 -0.000000 1.000000 225 119 29 255
-0.061901 0.773008 0.041667 -0.000000 -0.000000 1.000000 225 119 29 255
0.718316 -0.110484 0.041667 -0.000000 0.000000 1.000000 225 119 29 255
0.430298 -0.111806 0.041667 -0.000000 0.000000 1.000000 225 119 29 255
0.680111 -0.224404 0.041667 -0.000000 0.000000 1.000000 225 119 29 255
0.361808 -0.260539 0.041667 -0.000000 -0.000000 1.000000 225 119 29 255
0.624752 -0.328680 0.041667 -0.000000 0.000000 1.000000 225 119 29 255
0.402256 -0.186487 0.041667 -0.000000 -0.000000 1.000000 225 119 29 255
-0.460503 0.306344 0.041667 -0.000000 -0.000000 1.000000 225 119 29 255
-0.716708 0.377328 0.041667 -0.000000 -0.000000 1.000000 225 119 29 255
-0.492450 0.245326 0.041667 -0.000000 -0.000000 1.000000 225 119 29 255
0.105194 0.771998 0.041667 -0.000000 0.000000 1.000000 225 119 29 255
-0.061901 0.773008 0.041667 -0.000000 0.000000 1.000000 225 119 29 255
-0.104966 0.365821 0.041667 -0.000000 -0.000000 1.000000 225 119 29 255
0.560017 0.524640 0.041667 -0.000000 -0.000000 1.000000 225 119 29 255
0.639843 0.421716 0.041667 -0.000000 -0.000000 1.000000 225 119 29 255
0.602408 0.474761 0.041667 -0.000001 -0.000000 1.000000 225 119 29 255
0.468124 -0.493141 0.041667 -0.000000 -0.000000 1.000000 225 119 29 255
0.361808 -0.260539 0.041667 -0.000000 0.000000 1.000000 225 119 29 255
0.311659 -0.331246 0.041667 -0.000000 0.000000 1.000000 225 119 29 255
0.716108 0.251233 0.041667 -0.000000 0.000000 1.000000 225 119 29 255
0.671800 0.365821 0.041667 -0.000000 0.000000 1.000000 225 119 29 255
0.412920 0.088848 0.041667 -0.000000 0.000000 1.000000 225 119 29 255
0.139249 -0.572741 0.041667 -0.000000 0.000000 1.000000 225 119 29 255
0.193086 -0.451764 0.041667 -0.000000 0.000000 1.000000 225 119 29 255
0.130074 -0.496142 0.041667 -0.000000 0.000000 1.000000 225 119 29 255
0.412920 0.088848 0.041667 -0.000000 -0.000000 1.000000 225 119 29 255
0.737703 0.131125 0.041667 -0.000000 0.000000 1.000000 225 119 29 255
0.716108 0.251233 0.041667 -0.000000 0.000000 1.000000 225 119 29 255
-0.679696 -0.085118 0.041667 -0.000000 0.000000 1.000000 225 119 29 255
-0.539565 0.019074 0.041667 -0.000000 0.000000 1.000000 225 119 29 255
-0.755458 0.036646 0.041667 -0.000000 0.000000 1.000000 225 119 29 255
-0.292917 0.403387 0.041667 -0.000000 0.000000 1.000000 225 119 29 255
-0.423536 0.640277 0.041667 -0.000000 0.000000 1.000000 225 119 29 255
-0.362380 0.388433 0.041667 -0.000000 0.000000 1.000000 225 119 29 255
-0.417694 0.355066 0.041667 -0.000000 -0.000000 1.000000 225 119 29 255
-0.638070 0.476207 0.041667 -0.000000 0.000000 1.000000 225 119 29 255
-0.460503 0.306344 0.041667 -0.000000 -0.000000 1.000000 225 119 29 255
-0.755458 0.036646 0.041667 -0.000000 -0.000000 1.000000 225 119 29 255
-0.530337 0.098632 0.041667 -0.000000 -0.000000 1.000000 225 119 29 255
-0.782289 0.155604 0.041667 -0.000000 -0.000000 1.000000 225 119 29 255
-0.289954 -0.635257 0.041667 -0.000000 -0.000000 1.000000 225 119 29 255
-0.182227 -0.562485 0.041667 -0.000000 -0.000000 1.000000 225 119 29 255
-0.335477 -0.548123 0.041667 -0.000000 -0.000000 1.000000 225 119 29 255
0.230866 0.739839 0.041667 -0.000000 -0.000000 1.000000 225 119 29 255
0.351347 0.686216 0.041667 -0.000000 -0.000000 1.000000 225 119 29 255
0.292017 0.715554 0.041667 -0.000000 0.000000 1.000000 225 119 29 255
-0.679696 -0.085118 0.041667 -0.000000 0.000000 1.000000 225 119 29 255
-0.546811 -0.137172 0.041667 -0.000000 0.000000 1.000000 225 119 29 255
-0.544509 -0.060546 0.041667 -0.000000 0.000000 1.000000 225 119 29 255
-0.767077 0.269813 0.041667 -0.000000 -0.000000 1.000000 225 119 29 255
-0.492450 0.245326 0.041667 -0.000000 -0.000000 1.000000 225 119 29 255
-0.716708 0.377328 0.041667 -0.000000 -0.000000 1.000000 225 119 29 255
0.462458 0.613645 0.041667 -0.000000 0.000000 1.000000 225 119 29 255
0.560017 0.524640 0.041667 -0.000000 -0.000000 1.000000 225 119 29 255
0.513193 0.571039 0.041667 -0.000000 0.000000 1.000000 225 119 29 255
0.311659 -0.331246 0.041667 -0.000000 0.000000 1.000000 225 119 29 255
0.369635 -0.545744 0.041667 -0.000000 0.000000 1.000000 225 119 29 255
0.468124 -0.493141 0.041667 -0.000000 0.000000 1.000000 225 119 29 255
0.105194 0.771998 0.041667 -0.000000 0.000000 1.000000 225 119 29 255
0.230866 0.739839 0.041667 -0.000000 0.000000 1.000000 225 119 29 255
0.168417 0.758759 0.041667 -0.000000 0.000001 1.000000 225 119 29 255
-0.335477 -0.548123 0.041667 -0.000000 -0.000000 1.000000 225 119 29 255
-0.164366 -0.473999 0.041667 -0.000000 0.000000 1.000000 225 119 29 255
-0.351629 -0.450111 0.041667 -0.000000 -0.000000 1.000000 225 119 29 255
-0.104966 0.365821 0.041667 -0.000000 0.000000 1.000000 225 119 29 255
-0.417694 0.355066 0.041667 -0.000000 0.000000 1.000000 225 119 29 255
-0.164366 -0.473999 0.041667 -0.000000 -0.000000 1.000000 225 119 29 255
-0.077733 -0.189459 0.041667 -0.000000 0.000000 1.000000 225 119 29 255
0.256832 0.130642 0.041667 -0.000000 0.000000 1.000000 225 119 29 255
-0.113452 -0.283857 0.041667 -0.000000 -0.000000 1.000000 225 119 29 255
0.164678 0.098970 0.041667 -0.000000 -0.000000 1.000000 225 119 29 255
0.020899 -0.020154 0.041667 -0.000000 0.000000 1.000000 225 119 29 255
-0.292917 0.403387 0.041667 -0.000000 0.000000 1.000000 225 119 29 255
0.462458 0.613645 0.041667 -0.000000 0.000000 1.000000 225 119 29 255
0.010132 -0.539556 0.041667 -0.000000 0.000000 1.000000 225 119 29 255
0.624752 -0.328680 0.041667 -0.000000 -0.000000 1.000000 225 119 29 255
-0.530337 0.098632 0.041667 -0.000000 0.000000 1.000000 225 119 29 255
0.639843 0.421716 0.041667 -0.000000 0.000000 1.000000 225 119 29 255
-0.033394 -0.100349 0.041667 -0.000000 -0.000000 1.000000 225 119 29 255
0.086479 0.047495 0.041667 -0.000000 -0.000000 1.000000 225 119 29 255
0.369635 -0.545744 0.041667 -0.000000 -0.000000 1.000000 225 119 29 255
0.718316 -0.110484 0.041667 -0.000000 -0.000000 1.000000 225 119 29 255
-0.207660 0.396869 0.041667 -0.000000 -0.000000 1.000000 225 119 29 255
0.443227 -0.039212 0.041667 -0.000000 0.000000 1.000000 225 119 29 255
0.553627 -0.419523 0.041667 -0.000000 0.000000 1.000000 225 119 29 255
-0.638070 0.476207 0.041667 -0.000000 -0.000000 1.000000 225 119 29 255
0.041718 0.779242 0.041667 -0.000000 0.000000 1.000000 225 119 29 255
0.364272 0.138883 0.041667 -0.000000 0.000000 1.000000 225 119 29 255
0.553627 -0.419523 0.041667 -0.000000 -0.000000 1.000000 225 119 29 255
0.259547 -0.573541 0.041667 -0.000000 0.000000 1.000000 225 119 29 255
0.438336 0.028577 0.041667 -0.000000 -0.000000 1.000000 225 119 29 255
-0.544509 -0.060546 0.041667 -0.000000 0.000000 1.000000 225 119 29 255
-0.301415 0.701581 0.041667 -0.000000 0.000000 1.000000 225 119 29 255
-0.538050 0.564505 0.041667 -0.000000 0.000000 1.000000 225 119 29 255
-0.539565 0.019074 0.041667 -0.000000 -0.000000 1.000000 225 119 29 255
-0.196802 -0.641743 0.041667 -0.000000 -0.000000 1.000000 225 119 29 255
-0.104966 0.365821 0.041667 -0.000000 -0.000000 1.000000 225 119 29 255
-0.548116 -0.207743 0.041667 -0.000000 0.000000 1.000000 225 119 29 255
-0.515180 0.175069 0.041667 -0.000000 -0.000000 1.000000 225 119 29 255
0.364272 0.138883 0.041667 -0.000000 -0.000000 1.000000 225 119 29 255
0.254516 -0.395893 0.041667 -0.000000 -0.000000 1.000000 225 119 29 255
-0.104966 0.365821 0.041667 -0.000000 -0.000000 1.000000 225 119 29 255
-0.182227 -0.562485 0.041667 -0.000000 0.000000 1.000000 225 119 29 255
3 0 1 2
3 3 4 5
3 6 7 8
3 9 10 11
3 12 13 14
3 15 16 17
3 18 19 20
3 21 22 23
3 24 25 26
3 27 28 29
3 30 31 32
3 33 34 35
3 36 37 38
3 39 40 41
3 42 43 44
3 45 46 47
3 48 49 50
3 51 52 53
3 54 55 56
3 57 58 59
3 60 61 62
3 63 64 65
3 66 67 68
3 69 70 71
3 72 73 74
3 75 76 77
3 78 79 80
3 81 82 83
3 3 84 4
3 6 85 7
3 9 86 10
3 12 87 13
3 15 88 16
3 21 89 22
3 27 90 28
3 30 91 31
3 36 92 37
3 39 93 40
3 42 94 43
3 45 95 46
3 48 96 49
3 54 97 55
3 57 98 58
3 60 99 61
3 75 100 76
3 78 101 79
3 102 103 104
3 105 106 107
3 108 109 110
3 111 112 113
3 114 115 116
3 117 118 119
3 120 121 122
3 123 124 125
3 126 127 128
3 129 130 131
3 132 133 134
3 135 136 137
3 138 139 140
3 141 142 143
3 144 145 146
3 147 148 149
3 150 151 152
3 153 154 155
3 156 157 158
3 159 160 161
3 162 163 164
3 165 166 167
3 168 169 170
3 171 172 173
3 174 175 176
3 177 178 179
3 180 181 182
3 183 184 185
3 186 187 188
3 189 190 191
3 192 193 194
3 195 196 197
3 198 199 200
3 201 202 203
3 204 205 206
3 207 208 209
3 210 211 212
3 213 214 215
3 216 217 218
3 219 220 221
3 222 223 224
3 225 226 227
3 105 228 106
3 108 229 109
3 111 230 112
3 114 231 115
3 117 232 118
3 120 233 121
3 123 234 124
3 126 235 127
3 129 236 130
3 132 237 133
3 135 238 136
3 138 239 139
3 141 240 142
3 144 241 145
3 147 242 148
3 150 243 151
3 156 244 157
3 159 245 160
3 162 246 163
3 165 247 166
3 168 248 169
3 171 249 172
3 174 250 175
3 177 251 178
3 180 252 181
3 186 253 187
3 189 254 190
3 192 255 193
3 195 256 196
3 198 257 199
3 201 258 202
3 204 259 205
3 207 260 208
3 210 261 211
3 213 262 214
3 216 263 217
3 219 264 220
3 222 265 223
3 225 266 226
