<?xml version="1.0" encoding="UTF-8" standalone="no"?>
<!-- Created with Inkscape (http://www.inkscape.org/) -->

<svg
        width="160cm"
        height="160cm"
        viewBox="0 0 160 160"
        version="1.1"
        _id="SVGRoot"
        id="svg26"
        sodipodi:docname="fire.svg"
        inkscape:version="1.2.2 (b0a8486541, 2022-12-01)"
        xmlns:inkscape="http://www.inkscape.org/namespaces/inkscape"
        xmlns:sodipodi="http://sodipodi.sourceforge.net/DTD/sodipodi-0.dtd"
        xmlns="http://www.w3.org/2000/svg"
>
    <sodipodi:namedview
            id="namedview22"
            pagecolor="#505050"
            bordercolor="#eeeeee"
            borderopacity="1"
            inkscape:showpageshadow="0"
            inkscape:pageopacity="0"
            inkscape:pagecheckerboard="0"
            inkscape:deskcolor="#505050"
            inkscape:document-units="cm"
            showgrid="false"
            inkscape:zoom="0.079999996"
            inkscape:cx="2825.0001"
            inkscape:cy="4293.7502"
            inkscape:window-width="1870"
            inkscape:window-height="1051"
            inkscape:window-x="1920"
            inkscape:window-y="0"
            inkscape:window-maximized="1"
            inkscape:current-layer="svg26"/>
    <defs
            _id="defs402"
            id="defs8"/>
    <path
            id="path394"
            style="fill:#4a362d;stroke-linecap:square;paint-order:stroke fill markers;stop-color:#000000"
            inkscape:transform-center-x="1.0547742e-05"
            inkscape:transform-center-y="-9.9755122e-06"
            transform="translate(-1.2918347e-5,-1.2346118e-5)"
            d="M 112.99397,160 46.761711,159.89881 -1.5669997e-5,112.99397 0.10117769,46.761711 47.006013,-1.5669997e-5 113.23827,0.10117769 160,47.006013 159.89881,113.23827 Z"/>
    <path
            id="path1598"
            style="color:#000000;display:inline;fill:#e1771d;stroke-width:17.659;stroke-linecap:square;-inkscape-stroke:none;paint-order:stroke fill markers"
            d="M 32.249713,35.090695 C 72.081508,31.110113 99.322192,72.542628 99.753071,73.854586 129.73731,62.449995 98.387277,36.309559 64.731796,21.67535 147.11842,26.29261 151.06208,102.10257 113.41744,127.07366 51.372275,168.23055 -4.6850544,85.460152 39.535964,55.356372 23.734967,144.45753 120.00568,85.173093 32.249713,35.090695 Z M 83.841548,77.54883 C 86.437649,110.72187 58.858713,115.23579 58.858713,115.23579 80.030812,131.21355 123.7217,108.88022 120.74488,79.507835 99.409124,102.3 83.548537,77.97297 83.841548,77.54883 Z"
            sodipodi:nodetypes="cccscccccc"/>
</svg>
