ply
format ascii 1.0
comment Created by Blender 3.6.0 - www.blender.org
element vertex 208
property float x
property float y
property float z
property float nx
property float ny
property float nz
property uchar red
property uchar green
property uchar blue
property uchar alpha
element face 96
property list uchar uint vertex_indices
end_header
-0.290783 0.260744 0.041667 -0.000000 -0.000000 1.000000 225 119 29 255
-0.176075 0.410574 0.041667 -0.000000 -0.000000 1.000000 225 119 29 255
-0.238865 0.434456 0.041667 -0.000000 -0.000000 1.000000 225 119 29 255
0.244510 -0.632791 0.041667 -0.000000 0.000000 1.000000 225 119 29 255
0.192930 -0.510048 0.041667 -0.000000 0.000000 1.000000 225 119 29 255
0.107757 -0.569720 0.041667 -0.000000 0.000000 1.000000 225 119 29 255
-0.596871 -0.561068 0.041667 -0.000000 0.000000 1.000000 225 119 29 255
-0.475776 -0.562299 0.041667 -0.000000 0.000000 1.000000 225 119 29 255
-0.368411 -0.403334 0.041667 -0.000000 0.000000 1.000000 225 119 29 255
-0.055627 0.323068 0.041667 -0.000000 0.000000 1.000000 225 119 29 255
-0.136921 0.389344 0.041667 -0.000000 0.000000 1.000000 225 119 29 255
-0.214035 0.217867 0.041667 -0.000000 0.000000 1.000000 225 119 29 255
0.238713 -0.090538 0.041667 -0.000000 -0.000000 1.000000 225 119 29 255
0.138975 0.067564 0.041667 -0.000000 -0.000000 1.000000 225 119 29 255
0.106742 0.041560 0.041667 -0.000000 -0.000000 1.000000 225 119 29 255
-0.176075 0.410574 0.041667 -0.000000 0.000000 1.000000 225 119 29 255
-0.214035 0.217867 0.041667 -0.000000 0.000000 1.000000 225 119 29 255
-0.136921 0.389344 0.041667 -0.000000 -0.000000 1.000000 225 119 29 255
0.529227 -0.430928 0.041667 -0.000000 -0.000000 1.000000 225 119 29 255
0.326368 -0.387534 0.041667 -0.000000 -0.000000 1.000000 225 119 29 255
0.404898 -0.542453 0.041667 -0.000000 0.000000 1.000000 225 119 29 255
-0.238865 0.434456 0.041667 -0.000000 -0.000000 1.000000 225 119 29 255
-0.373418 0.260544 0.041667 -0.000000 -0.000000 1.000000 225 119 29 255
-0.290783 0.260744 0.041667 -0.000000 -0.000000 1.000000 225 119 29 255
0.062204 0.495114 0.041667 -0.000000 0.000000 1.000000 225 119 29 255
0.226093 0.686101 0.041667 -0.000000 0.000000 1.000000 225 119 29 255
0.041650 0.726832 0.041667 -0.000000 0.000000 1.000000 225 119 29 255
0.324233 0.111130 0.041667 -0.000000 0.000000 1.000000 225 119 29 255
0.221266 0.107601 0.041667 -0.000000 0.000000 1.000000 225 119 29 255
0.238713 -0.090538 0.041667 -0.000000 -0.000000 1.000000 225 119 29 255
0.393513 -0.268383 0.041667 -0.000000 0.000000 1.000000 225 119 29 255
0.619099 -0.303514 0.041667 -0.000000 0.000000 1.000000 225 119 29 255
0.395820 -0.212915 0.041667 -0.000000 0.000000 1.000000 225 119 29 255
0.226093 0.686101 0.041667 -0.000000 0.000000 1.000000 225 119 29 255
0.235745 0.429835 0.041667 -0.000000 0.000000 1.000000 225 119 29 255
0.417746 0.588499 0.041667 -0.000000 0.000000 1.000000 225 119 29 255
0.395820 -0.212915 0.041667 -0.000000 0.000000 1.000000 225 119 29 255
0.676113 -0.165504 0.041667 -0.000000 0.000000 1.000000 225 119 29 255
0.509341 -0.005960 0.041667 -0.000000 0.000000 1.000000 225 119 29 255
-0.129607 0.030234 0.041667 -0.000000 0.000000 1.000000 225 119 29 255
0.048040 -0.030442 0.041667 -0.000000 0.000000 1.000000 225 119 29 255
0.048713 0.065916 0.041667 -0.000000 0.000000 1.000000 225 119 29 255
0.373868 -0.161705 0.041667 -0.000000 0.000000 1.000000 225 119 29 255
0.395820 -0.212915 0.041667 -0.000000 0.000000 1.000000 225 119 29 255
0.509341 -0.005960 0.041667 -0.000000 0.000000 1.000000 225 119 29 255
-0.129607 0.030234 0.041667 -0.000000 -0.000000 1.000000 225 119 29 255
0.036175 0.148399 0.041667 -0.000000 -0.000000 1.000000 225 119 29 255
-0.156026 0.138750 0.041667 -0.000000 -0.000000 1.000000 225 119 29 255
0.048040 -0.030442 0.041667 -0.000000 -0.000000 1.000000 225 119 29 255
0.136425 -0.220554 0.041667 -0.000000 -0.000000 1.000000 225 119 29 255
0.182839 -0.166221 0.041667 -0.000000 -0.000000 1.000000 225 119 29 255
0.046465 -0.696648 0.041667 -0.000000 0.000000 1.000000 225 119 29 255
0.107757 -0.569720 0.041667 -0.000000 0.000000 1.000000 225 119 29 255
0.013697 -0.626816 0.041667 -0.000000 0.000000 1.000000 225 119 29 255
0.238713 -0.090538 0.041667 -0.000000 0.000000 1.000000 225 119 29 255
0.106742 0.041560 0.041667 -0.000000 0.000000 1.000000 225 119 29 255
0.081068 0.015676 0.041667 -0.000000 0.000000 1.000000 225 119 29 255
0.483337 0.168442 0.041667 -0.000000 -0.000000 1.000000 225 119 29 255
0.697963 0.121118 0.041667 -0.000000 0.000000 1.000000 225 119 29 255
0.665999 0.259139 0.041667 -0.000000 0.000000 1.000000 225 119 29 255
-0.238865 0.434456 0.041667 -0.000000 0.000000 1.000000 225 119 29 255
-0.542155 0.474323 0.041667 -0.000000 0.000000 1.000000 225 119 29 255
-0.373418 0.260544 0.041667 -0.000000 -0.000000 1.000000 225 119 29 255
0.325095 -0.115891 0.041667 -0.000000 -0.000000 1.000000 225 119 29 255
0.509341 -0.005960 0.041667 -0.000000 0.000000 1.000000 225 119 29 255
0.444169 0.053498 0.041667 -0.000000 0.000000 1.000000 225 119 29 255
0.509341 -0.005960 0.041667 -0.000000 0.000000 1.000000 225 119 29 255
0.676113 -0.165504 0.041667 -0.000000 0.000000 1.000000 225 119 29 255
0.701867 -0.022195 0.041667 -0.000000 0.000000 1.000000 225 119 29 255
0.081068 0.015676 0.041667 -0.000000 -0.000000 1.000000 225 119 29 255
0.217141 -0.121645 0.041667 -0.000000 -0.000000 1.000000 225 119 29 255
0.238713 -0.090538 0.041667 -0.000000 -0.000000 1.000000 225 119 29 255
0.078516 -0.280932 0.041667 -0.000000 -0.000000 1.000000 225 119 29 255
0.048040 -0.030442 0.041667 -0.000000 -0.000000 1.000000 225 119 29 255
-0.147630 -0.100845 0.041667 -0.000000 -0.000000 1.000000 225 119 29 255
-0.361856 -0.543594 0.041667 -0.000000 0.000000 1.000000 225 119 29 255
-0.368411 -0.403334 0.041667 -0.000000 0.000000 1.000000 225 119 29 255
-0.475776 -0.562299 0.041667 -0.000000 0.000000 1.000000 225 119 29 255
0.444169 0.053498 0.041667 -0.000000 -0.000000 1.000000 225 119 29 255
0.382311 0.091500 0.041667 -0.000000 -0.000000 1.000000 225 119 29 255
0.325095 -0.115891 0.041667 -0.000000 -0.000000 1.000000 225 119 29 255
-0.684384 0.206092 0.041667 -0.000000 -0.000000 1.000000 225 119 29 255
-0.703755 0.063303 0.041667 -0.000000 -0.000000 1.000000 225 119 29 255
-0.504941 0.103560 0.041667 -0.000000 -0.000000 1.000000 225 119 29 255
0.441383 0.246752 0.041667 -0.000000 0.000000 1.000000 225 119 29 255
0.665999 0.259139 0.041667 -0.000000 -0.000000 1.000000 225 119 29 255
0.607575 0.386574 0.041667 -0.000000 -0.000000 1.000000 225 119 29 255
0.036175 0.148399 0.041667 -0.000000 0.000000 1.000000 225 119 29 255
-0.018501 0.275927 0.041667 -0.000000 0.000000 1.000000 225 119 29 255
-0.156026 0.138750 0.041667 -0.000000 0.000000 1.000000 225 119 29 255
-0.018501 0.275927 0.041667 -0.000000 -0.000000 1.000000 225 119 29 255
-0.214035 0.217867 0.041667 -0.000000 -0.000000 1.000000 225 119 29 255
-0.156026 0.138750 0.041667 -0.000000 -0.000000 1.000000 225 119 29 255
0.314584 0.378806 0.041667 -0.000000 -0.000000 1.000000 225 119 29 255
0.524291 0.498125 0.041667 -0.000000 -0.000000 1.000000 225 119 29 255
0.417746 0.588499 0.041667 -0.000000 -0.000000 1.000000 225 119 29 255
0.393513 -0.268383 0.041667 -0.000000 0.000000 1.000000 225 119 29 255
0.529227 -0.430928 0.041667 -0.000000 0.000000 1.000000 225 119 29 255
0.619099 -0.303514 0.041667 -0.000000 -0.000000 1.000000 225 119 29 255
0.325095 -0.115891 0.041667 -0.000000 -0.000000 1.000000 225 119 29 255
0.324233 0.111130 0.041667 -0.000000 -0.000000 1.000000 225 119 29 255
0.238713 -0.090538 0.041667 -0.000000 -0.000000 1.000000 225 119 29 255
0.701867 -0.022195 0.041667 -0.000000 -0.000000 1.000000 225 119 29 255
0.506991 0.083753 0.041667 -0.000000 -0.000000 1.000000 225 119 29 255
0.509341 -0.005960 0.041667 -0.000000 -0.000000 1.000000 225 119 29 255
0.244510 -0.632791 0.041667 -0.000000 -0.000000 1.000000 225 119 29 255
0.266655 -0.448940 0.041667 -0.000000 0.000000 1.000000 225 119 29 255
0.192930 -0.510048 0.041667 -0.000000 0.000000 1.000000 225 119 29 255
0.138975 0.067564 0.041667 -0.000000 0.000000 1.000000 225 119 29 255
0.221266 0.107601 0.041667 -0.000000 0.000000 1.000000 225 119 29 255
0.177304 0.090605 0.041667 -0.000000 0.000000 1.000000 225 119 29 255
-0.684384 0.206092 0.041667 -0.000000 0.000000 1.000000 225 119 29 255
-0.449088 0.210429 0.041667 -0.000000 0.000000 1.000000 225 119 29 255
-0.629153 0.345652 0.041667 -0.000000 0.000000 1.000000 225 119 29 255
-0.618552 -0.201303 0.041667 -0.000000 -0.000000 1.000000 225 119 29 255
-0.528126 -0.066902 0.041667 -0.000000 -0.000000 1.000000 225 119 29 255
-0.683176 -0.075049 0.041667 -0.000000 -0.000000 1.000000 225 119 29 255
0.048040 -0.030442 0.041667 -0.000000 -0.000000 1.000000 225 119 29 255
0.182839 -0.166221 0.041667 -0.000000 -0.000000 1.000000 225 119 29 255
0.217141 -0.121645 0.041667 -0.000000 -0.000000 1.000000 225 119 29 255
0.404898 -0.542453 0.041667 -0.000000 0.000000 1.000000 225 119 29 255
0.326368 -0.387534 0.041667 -0.000000 0.000000 1.000000 225 119 29 255
0.266655 -0.448940 0.041667 -0.000000 0.000000 1.000000 225 119 29 255
-0.703755 0.063303 0.041667 -0.000000 0.000000 1.000000 225 119 29 255
-0.528126 -0.066902 0.041667 -0.000000 0.000000 1.000000 225 119 29 255
-0.504941 0.103560 0.041667 -0.000000 -0.000000 1.000000 225 119 29 255
0.009729 -0.343644 0.041667 -0.000000 -0.000000 1.000000 225 119 29 255
-0.158010 -0.461222 0.041667 -0.000000 -0.000000 1.000000 225 119 29 255
-0.069319 -0.404977 0.041667 -0.000000 -0.000000 1.000000 225 119 29 255
-0.368411 -0.403334 0.041667 -0.000000 -0.000000 1.000000 225 119 29 255
-0.158010 -0.461222 0.041667 -0.000000 -0.000000 1.000000 225 119 29 255
-0.222948 -0.247647 0.041667 -0.000000 0.000000 1.000000 225 119 29 255
0.235745 0.429835 0.041667 -0.000000 0.000000 1.000000 225 119 29 255
0.314584 0.378806 0.041667 -0.000000 0.000000 1.000000 225 119 29 255
0.417746 0.588499 0.041667 -0.000000 0.000000 1.000000 225 119 29 255
-0.086689 -0.680198 0.041667 -0.000000 0.000000 1.000000 225 119 29 255
0.046465 -0.696648 0.041667 -0.000000 0.000000 1.000000 225 119 29 255
0.013697 -0.626816 0.041667 -0.000000 0.000000 1.000000 225 119 29 255
-0.289230 0.668338 0.041667 -0.000000 0.000000 1.000000 225 119 29 255
-0.112470 0.502306 0.041667 -0.000000 0.000000 1.000000 225 119 29 255
-0.131488 0.718357 0.041667 -0.000000 0.000000 1.000000 225 119 29 255
0.384131 0.317326 0.041667 -0.000000 0.000000 1.000000 225 119 29 255
0.607575 0.386574 0.041667 -0.000000 0.000000 1.000000 225 119 29 255
0.524291 0.498125 0.041667 -0.000000 0.000000 1.000000 225 119 29 255
-0.238865 0.434456 0.041667 -0.000000 0.000000 1.000000 225 119 29 255
-0.289230 0.668338 0.041667 -0.000000 0.000000 1.000000 225 119 29 255
-0.427483 0.584439 0.041667 -0.000000 0.000000 1.000000 225 119 29 255
-0.026493 0.506649 0.041667 -0.000000 0.000000 1.000000 225 119 29 255
-0.131488 0.718357 0.041667 -0.000000 0.000000 1.000000 225 119 29 255
-0.112470 0.502306 0.041667 -0.000000 0.000000 1.000000 225 119 29 255
0.062204 0.495114 0.041667 -0.000000 0.000000 1.000000 225 119 29 255
0.041650 0.726832 0.041667 -0.000000 0.000000 1.000000 225 119 29 255
-0.026493 0.506649 0.041667 -0.000000 0.000000 1.000000 225 119 29 255
0.009729 -0.343644 0.041667 -0.000000 -0.000000 1.000000 225 119 29 255
-0.147630 -0.100845 0.041667 -0.000000 -0.000000 1.000000 225 119 29 255
-0.222948 -0.247647 0.041667 -0.000000 -0.000000 1.000000 225 119 29 255
-0.629153 0.345652 0.041667 -0.000000 -0.000000 1.000000 225 119 29 255
-0.373418 0.260544 0.041667 -0.000000 -0.000000 1.000000 225 119 29 255
-0.542155 0.474323 0.041667 -0.000000 -0.000000 1.000000 225 119 29 255
-0.095936 0.360525 0.041667 -0.000000 0.000000 1.000000 225 119 29 255
-0.290783 0.260744 0.041667 -0.000000 0.000000 1.000000 225 119 29 255
0.369508 -0.326968 0.041667 -0.000000 -0.000000 1.000000 225 119 29 255
0.150617 0.469057 0.041667 -0.000000 0.000000 1.000000 225 119 29 255
0.270396 0.115470 0.041667 -0.000000 0.000000 1.000000 225 119 29 255
0.150617 0.469057 0.041667 -0.000000 0.000000 1.000000 225 119 29 255
0.619099 -0.303514 0.041667 -0.000000 0.000000 1.000000 225 119 29 255
-0.147630 -0.100845 0.041667 -0.000000 0.000000 1.000000 225 119 29 255
0.048713 0.065916 0.041667 -0.000000 -0.000000 1.000000 225 119 29 255
0.244510 -0.632791 0.041667 -0.000000 0.000000 1.000000 225 119 29 255
0.506991 0.083753 0.041667 -0.000000 -0.000000 1.000000 225 119 29 255
-0.427483 0.584439 0.041667 -0.000000 0.000000 1.000000 225 119 29 255
0.373868 -0.161705 0.041667 -0.000000 -0.000000 1.000000 225 119 29 255
0.048040 -0.030442 0.041667 -0.000000 -0.000000 1.000000 225 119 29 255
0.136425 -0.220554 0.041667 -0.000000 -0.000000 1.000000 225 119 29 255
-0.255728 -0.508664 0.041667 -0.000000 0.000000 1.000000 225 119 29 255
0.483337 0.168442 0.041667 -0.000000 0.000000 1.000000 225 119 29 255
0.012935 0.218053 0.041667 -0.000000 -0.000000 1.000000 225 119 29 255
-0.055627 0.323068 0.041667 -0.000000 -0.000000 1.000000 225 119 29 255
0.384131 0.317326 0.041667 -0.000000 0.000000 1.000000 225 119 29 255
0.369508 -0.326968 0.041667 -0.000000 0.000000 1.000000 225 119 29 255
0.382311 0.091500 0.041667 -0.000000 -0.000000 1.000000 225 119 29 255
0.697963 0.121118 0.041667 -0.000000 -0.000000 1.000000 225 119 29 255
0.404898 -0.542453 0.041667 -0.000000 -0.000000 1.000000 225 119 29 255
0.238713 -0.090538 0.041667 -0.000000 -0.000000 1.000000 225 119 29 255
-0.504941 0.103560 0.041667 -0.000000 -0.000000 1.000000 225 119 29 255
-0.505791 -0.307795 0.041667 -0.000000 0.000000 1.000000 225 119 29 255
-0.683176 -0.075049 0.041667 -0.000000 0.000000 1.000000 225 119 29 255
-0.222948 -0.247647 0.041667 -0.000000 0.000000 1.000000 225 119 29 255
-0.255728 -0.508664 0.041667 -0.000000 -0.000000 1.000000 225 119 29 255
-0.190836 -0.728727 0.041667 -0.000000 0.000000 1.000000 225 119 29 255
-0.192723 0.480726 0.041667 -0.000000 0.000000 1.000000 225 119 29 255
0.441383 0.246752 0.041667 -0.000000 -0.000000 1.000000 225 119 29 255
-0.192723 0.480726 0.041667 -0.000000 0.000000 1.000000 225 119 29 255
0.041650 0.726832 0.041667 -0.000000 -0.000000 1.000000 225 119 29 255
0.078516 -0.280932 0.041667 -0.000000 -0.000000 1.000000 225 119 29 255
-0.449088 0.210429 0.041667 -0.000000 -0.000000 1.000000 225 119 29 255
0.998775 0.415590 0.020834 -0.000000 0.000000 1.000000 74 54 45 255
0.415506 -0.998353 0.020834 -0.000000 -0.000000 1.000000 74 54 45 255
1.000040 -0.412155 0.020834 -0.000000 -0.000000 1.000000 74 54 45 255
-0.415467 0.998735 0.020834 -0.000000 -0.000000 1.000000 74 54 45 255
-0.998735 -0.415208 0.020833 -0.000000 0.000000 1.000000 74 54 45 255
-0.412413 -0.999618 0.020834 -0.000000 0.000000 1.000000 74 54 45 255
-0.412413 -0.999618 0.020834 -0.000000 0.000000 1.000000 74 54 45 255
0.412453 1.000000 0.020834 -0.000000 0.000000 1.000000 74 54 45 255
-0.415467 0.998735 0.020834 -0.000000 0.000000 1.000000 74 54 45 255
0.412453 1.000000 0.020834 -0.000000 0.000000 1.000000 74 54 45 255
-1.000000 0.412537 0.020833 -0.000000 -0.000000 1.000000 74 54 45 255
0.415506 -0.998353 0.020834 -0.000000 0.000000 1.000000 74 54 45 255
3 0 1 2
3 3 4 5
3 6 7 8
3 9 10 11
3 12 13 14
3 15 16 17
3 18 19 20
3 21 22 23
3 24 25 26
3 27 28 29
3 30 31 32
3 33 34 35
3 36 37 38
3 39 40 41
3 42 43 44
3 45 46 47
3 48 49 50
3 51 52 53
3 54 55 56
3 57 58 59
3 60 61 62
3 63 64 65
3 66 67 68
3 69 70 71
3 72 73 74
3 75 76 77
3 78 79 80
3 81 82 83
3 84 85 86
3 87 88 89
3 90 91 92
3 93 94 95
3 96 97 98
3 99 100 101
3 102 103 104
3 105 106 107
3 108 109 110
3 111 112 113
3 114 115 116
3 117 118 119
3 120 121 122
3 123 124 125
3 126 127 128
3 129 130 131
3 132 133 134
3 135 136 137
3 138 139 140
3 141 142 143
3 144 145 146
3 147 148 149
3 150 151 152
3 153 154 155
3 156 157 158
3 9 159 10
3 15 160 16
3 18 161 19
3 24 162 25
3 27 163 28
3 33 164 34
3 36 165 37
3 39 166 40
3 45 167 46
3 51 168 52
3 57 169 58
3 60 170 61
3 63 171 64
3 69 172 70
3 72 173 73
3 75 174 76
3 84 175 85
3 87 176 88
3 90 177 91
3 93 178 94
3 96 179 97
3 99 180 100
3 102 181 103
3 105 182 106
3 108 183 109
3 111 184 112
3 114 185 115
3 123 186 124
3 126 187 127
3 129 188 130
3 135 189 136
3 138 190 139
3 141 191 142
3 144 192 145
3 147 193 148
3 153 194 154
3 156 195 157
3 196 197 198
3 199 200 201
3 202 203 204
3 196 205 197
3 199 206 200
3 202 207 203
