<?xml version="1.0" encoding="UTF-8" standalone="no"?>
<!-- Created with Inkscape (http://www.inkscape.org/) -->

<svg
        width="160cm"
        height="160cm"
        viewBox="0 0 160 160"
        version="1.1"
        _id="SVGRoot"
        id="svg26"
        sodipodi:docname="fire.svg"
        inkscape:version="1.2.2 (b0a8486541, 2022-12-01)"
        xmlns:inkscape="http://www.inkscape.org/namespaces/inkscape"
        xmlns:sodipodi="http://sodipodi.sourceforge.net/DTD/sodipodi-0.dtd"
        xmlns="http://www.w3.org/2000/svg"
>
    <sodipodi:namedview
            id="namedview22"
            pagecolor="#505050"
            bordercolor="#eeeeee"
            borderopacity="1"
            inkscape:showpageshadow="0"
            inkscape:pageopacity="0"
            inkscape:pagecheckerboard="0"
            inkscape:deskcolor="#505050"
            inkscape:document-units="cm"
            showgrid="false"
            inkscape:zoom="0.056568542"
            inkscape:cx="-194.45437"
            inkscape:cy="4799.4873"
            inkscape:window-width="1870"
            inkscape:window-height="1051"
            inkscape:window-x="1920"
            inkscape:window-y="0"
            inkscape:window-maximized="1"
            inkscape:current-layer="svg26"/>
    <defs
            _id="defs402"
            id="defs8"/>
    <path
            id="path285"
            style="fill:#3b1b00;stroke-linecap:square;paint-order:stroke fill markers;stop-color:#000000"
            d="M 159.99998,79.999992 A 79.999992,79.999992 0 0 1 79.999992,159.99998 79.999992,79.999992 0 0 1 0,79.999992 79.999992,79.999992 0 0 1 79.999992,0 79.999992,79.999992 0 0 1 159.99998,79.999992 Z"/>
    <path
            id="path1598"
            style="color:#000000;display:inline;fill:#e1771d;stroke-width:17.2274;stroke-linecap:square;-inkscape-stroke:none;paint-order:stroke fill markers"
            d="M 34.279856,37.512704 C 72.452512,33.559633 99.862619,74.519518 100.27556,75.82241 129.01083,64.496637 106.04565,37.419102 73.792045,22.886032 151.04185,25.456198 149.45741,103.18057 112.62554,125.50674 43.312336,167.52193 -3.3838805,84.208208 39.027129,54.285085 23.884301,142.77046 118.38047,87.248975 34.279856,37.512704 Z M 83.722703,79.180628 C 86.210667,112.12441 59.780495,117.10391 59.780495,117.10391 80.070698,132.97125 121.9417,110.79226 119.08888,81.622871 98.641834,104.25752 83.441898,79.601836 83.722703,79.180628 Z"
            sodipodi:nodetypes="cccscccccc"/>
</svg>
