ply
format ascii 1.0
comment Created by Blender 3.6.0 - www.blender.org
element vertex 43
property float x
property float y
property float z
property float nx
property float ny
property float nz
property uchar red
property uchar green
property uchar blue
property uchar alpha
element face 17
property list uchar uint vertex_indices
end_header
-0.780067 0.444547 0.045455 -0.000000 0.000000 1.000000 140 142 147 255
0.000020 0.044055 0.045455 -0.000000 0.000000 1.000000 140 142 147 255
0.000020 0.837534 0.045455 -0.000000 0.000000 1.000000 140 142 147 255
-0.780067 -0.385814 0.045455 -0.000000 0.000000 1.000000 140 142 147 255
-0.931423 0.530763 0.037879 -0.000000 0.000000 1.000000 43 41 29 255
-0.931423 -0.460708 0.037879 -0.000000 0.000000 1.000000 43 41 29 255
0.000020 1.000000 0.037879 -0.000000 0.000000 1.000000 43 41 29 255
-0.931423 -0.460708 0.037879 -0.000000 -0.000000 1.000000 43 41 29 255
0.931463 -0.460708 0.037879 -0.000000 -0.000000 1.000000 43 41 29 255
0.000020 1.000000 0.037879 -0.000000 0.000000 1.000000 43 41 29 255
0.000020 1.000000 0.037879 -0.000000 0.000000 1.000000 43 41 29 255
0.931463 -0.460708 0.037879 -0.000000 0.000000 1.000000 43 41 29 255
0.931463 0.530763 0.037879 -0.000000 0.000000 1.000000 43 41 29 255
0.000020 -0.999617 0.037879 -0.000000 -0.000000 1.000000 43 41 29 255
0.000020 0.044055 0.041667 -0.000000 0.000000 1.000000 122 123 127 255
0.780107 0.444547 0.041667 -0.000000 0.000000 1.000000 122 123 127 255
0.000020 0.837534 0.041667 -0.000000 0.000000 1.000000 122 123 127 255
0.780107 -0.385814 0.041667 -0.000000 0.000000 1.000000 122 123 127 255
-0.664380 0.121864 0.053030 -0.000000 0.000000 1.000000 97 92 80 255
-0.575447 -0.100477 0.053030 -0.000000 0.000000 1.000000 97 92 80 255
-0.469930 0.188587 0.053030 -0.000000 0.000000 1.000000 97 92 80 255
0.134377 -0.210319 0.056819 -0.000000 0.000000 1.000000 125 121 98 255
0.369035 -0.435306 0.056819 -0.000000 0.000000 1.000000 125 121 98 255
0.384584 -0.240683 0.056819 -0.000000 0.000000 1.000000 125 121 98 255
-0.328621 -0.239822 0.060606 -0.000000 -0.000000 1.000000 125 121 98 255
-0.391846 -0.483756 0.060606 -0.000000 -0.000000 1.000000 125 121 98 255
-0.137728 -0.280995 0.060606 -0.000000 -0.000000 1.000000 125 121 98 255
-0.111269 -0.530051 0.075758 -0.000000 -0.000000 1.000000 125 121 98 255
0.017379 -0.678910 0.075758 -0.000000 -0.000000 1.000000 125 121 98 255
0.196167 -0.503596 0.075758 -0.000000 -0.000000 1.000000 125 121 98 255
0.185563 0.353501 0.068182 -0.000000 -0.000000 1.000000 66 66 48 255
0.438978 0.334654 0.068182 -0.000000 -0.000000 1.000000 66 66 48 255
0.203083 0.546220 0.068182 -0.000000 -0.000000 1.000000 66 66 48 255
-0.494637 0.417216 0.071970 -0.000000 0.000000 1.000000 97 92 80 255
-0.182990 0.403164 0.071970 -0.000000 0.000000 1.000000 97 92 80 255
-0.309929 0.566656 0.071970 -0.000000 0.000000 1.000000 97 92 80 255
0.429233 0.140103 0.064394 -0.000000 -0.000000 1.000000 66 66 48 255
0.560246 -0.139721 0.064394 -0.000000 -0.000000 1.000000 66 66 48 255
0.655553 0.032009 0.064394 -0.000000 -0.000000 1.000000 66 66 48 255
0.000020 -0.837152 0.049243 -0.000000 0.000000 1.000000 163 164 169 255
0.000020 0.044055 0.049243 -0.000000 0.000000 1.000000 163 164 169 255
-0.780067 -0.385814 0.049242 -0.000000 0.000000 1.000000 163 164 169 255
0.780107 -0.385814 0.049243 -0.000000 0.000000 1.000000 163 164 169 255
3 0 1 2
3 0 3 1
3 4 5 6
3 7 8 9
3 10 11 12
3 7 13 8
3 14 15 16
3 14 17 15
3 18 19 20
3 21 22 23
3 24 25 26
3 27 28 29
3 30 31 32
3 33 34 35
3 36 37 38
3 39 40 41
3 39 42 40
