ply
format ascii 1.0
comment Created by Blender 3.6.0 - www.blender.org
element vertex 51
property float x
property float y
property float z
property float nx
property float ny
property float nz
property uchar red
property uchar green
property uchar blue
property uchar alpha
element face 17
property list uchar uint vertex_indices
end_header
-0.729545 0.427073 0.045455 -0.000000 0.000000 1.000000 140 142 147 255
0.000020 0.042330 0.045455 -0.000000 0.000000 1.000000 140 142 147 255
0.000020 0.804607 0.045455 -0.000000 0.000000 1.000000 140 142 147 255
-0.729545 0.427073 0.045455 -0.000000 0.000000 1.000000 140 142 147 255
-0.729545 -0.370635 0.045455 -0.000000 0.000000 1.000000 140 142 147 255
0.000020 0.042330 0.045455 -0.000000 0.000000 1.000000 140 142 147 255
-0.906757 0.530763 0.037879 -0.000000 0.000000 1.000000 43 41 29 255
-0.906757 -0.460708 0.037879 -0.000000 0.000000 1.000000 43 41 29 255
0.000020 1.000000 0.037879 -0.000000 0.000000 1.000000 43 41 29 255
-0.906757 -0.460708 0.037879 -0.000000 0.000000 1.000000 43 41 29 255
0.906796 -0.460708 0.037879 -0.000000 0.000000 1.000000 43 41 29 255
0.000020 1.000000 0.037879 -0.000000 0.000000 1.000000 43 41 29 255
0.000020 1.000000 0.037879 -0.000000 0.000000 1.000000 43 41 29 255
0.906796 -0.460708 0.037879 -0.000000 0.000000 1.000000 43 41 29 255
0.906796 0.530763 0.037879 -0.000000 0.000000 1.000000 43 41 29 255
-0.906757 -0.460708 0.037879 -0.000000 -0.000000 1.000000 43 41 29 255
0.000020 -0.999617 0.037879 -0.000000 -0.000000 1.000000 43 41 29 255
0.906796 -0.460708 0.037879 -0.000000 -0.000000 1.000000 43 41 29 255
0.000020 0.042330 0.041667 -0.000000 0.000000 1.000000 122 123 127 255
0.729585 0.427073 0.041667 -0.000000 0.000000 1.000000 122 123 127 255
0.000020 0.804607 0.041667 -0.000000 0.000000 1.000000 122 123 127 255
0.000020 0.042330 0.041667 -0.000000 0.000000 1.000000 122 123 127 255
0.729585 -0.370635 0.041667 -0.000000 0.000000 1.000000 122 123 127 255
0.729585 0.427073 0.041667 -0.000000 0.000000 1.000000 122 123 127 255
-0.665380 0.153468 0.053030 -0.000000 0.000000 1.000000 97 92 80 255
-0.576296 -0.075307 0.053030 -0.000000 0.000000 1.000000 97 92 80 255
-0.470601 0.222122 0.053030 -0.000000 0.000000 1.000000 97 92 80 255
0.134729 -0.188328 0.056819 -0.000000 0.000000 1.000000 125 121 98 255
0.369785 -0.419826 0.056819 -0.000000 0.000000 1.000000 125 121 98 255
0.385360 -0.219571 0.056819 -0.000000 0.000000 1.000000 125 121 98 255
-0.329052 -0.218685 0.060606 -0.000000 -0.000000 1.000000 125 121 98 255
-0.392384 -0.469678 0.060606 -0.000000 -0.000000 1.000000 125 121 98 255
-0.137836 -0.261049 0.060606 -0.000000 -0.000000 1.000000 125 121 98 255
-0.111333 -0.517313 0.075758 -0.000000 0.000000 1.000000 125 121 98 255
0.017534 -0.670480 0.075758 -0.000000 0.000000 1.000000 125 121 98 255
0.196624 -0.490092 0.075758 -0.000000 0.000000 1.000000 125 121 98 255
0.205321 0.319062 0.068182 -0.000000 0.000000 1.000000 66 66 48 255
0.459165 0.299670 0.068182 -0.000000 0.000000 1.000000 66 66 48 255
0.222870 0.517359 0.068182 -0.000000 0.000000 1.000000 66 66 48 255
-0.476031 0.384621 0.071970 -0.000000 0.000000 1.000000 97 92 80 255
-0.163856 0.370162 0.071970 -0.000000 0.000000 1.000000 97 92 80 255
-0.291010 0.538386 0.071970 -0.000000 0.000000 1.000000 97 92 80 255
0.430084 0.172236 0.064394 -0.000000 -0.000000 1.000000 66 66 48 255
0.561319 -0.115687 0.064394 -0.000000 -0.000000 1.000000 66 66 48 255
0.656788 0.061013 0.064394 -0.000000 -0.000000 1.000000 66 66 48 255
0.000020 -0.804224 0.049243 -0.000000 0.000000 1.000000 163 164 169 255
0.000020 0.042330 0.049243 -0.000000 0.000000 1.000000 163 164 169 255
-0.729545 -0.370635 0.049243 -0.000000 0.000000 1.000000 163 164 169 255
0.000020 -0.804224 0.049243 -0.000000 0.000000 1.000000 163 164 169 255
0.729585 -0.370635 0.049243 -0.000000 0.000000 1.000000 163 164 169 255
0.000020 0.042330 0.049243 -0.000000 0.000000 1.000000 163 164 169 255
3 0 1 2
3 3 4 5
3 6 7 8
3 9 10 11
3 12 13 14
3 15 16 17
3 18 19 20
3 21 22 23
3 24 25 26
3 27 28 29
3 30 31 32
3 33 34 35
3 36 37 38
3 39 40 41
3 42 43 44
3 45 46 47
3 48 49 50
