ply
format ascii 1.0
comment Created by Blender 3.6.0 - www.blender.org
element vertex 43
property float x
property float y
property float z
property float nx
property float ny
property float nz
property uchar red
property uchar green
property uchar blue
property uchar alpha
element face 17
property list uchar uint vertex_indices
end_header
-0.804566 0.427073 0.045455 -0.000000 0.000000 1.000000 140 142 147 255
0.000020 0.042330 0.045455 -0.000000 0.000000 1.000000 140 142 147 255
0.000020 0.804607 0.045455 -0.000000 0.000000 1.000000 140 142 147 255
-0.804566 -0.370635 0.045455 -0.000000 0.000000 1.000000 140 142 147 255
-1.000000 0.530763 0.037879 -0.000000 0.000000 1.000000 43 41 29 255
-1.000000 -0.460708 0.037879 -0.000000 0.000000 1.000000 43 41 29 255
0.000020 1.000000 0.037879 -0.000000 0.000000 1.000000 43 41 29 255
0.000020 -0.999617 0.037879 -0.000000 0.000000 1.000000 43 41 29 255
0.000020 1.000000 0.037879 -0.000000 0.000000 1.000000 43 41 29 255
-1.000000 -0.460708 0.037879 -0.000000 0.000000 1.000000 43 41 29 255
0.000020 1.000000 0.037879 -0.000000 0.000000 1.000000 43 41 29 255
1.000040 -0.460708 0.037879 -0.000000 0.000000 1.000000 43 41 29 255
1.000040 0.530763 0.037879 -0.000000 0.000000 1.000000 43 41 29 255
1.000040 -0.460708 0.037879 -0.000000 0.000000 1.000000 43 41 29 255
0.000020 0.042330 0.041667 -0.000000 0.000000 1.000000 122 123 127 255
0.804606 0.427073 0.041667 -0.000000 0.000000 1.000000 122 123 127 255
0.000020 0.804607 0.041667 -0.000000 0.000000 1.000000 122 123 127 255
0.804606 -0.370635 0.041667 -0.000000 0.000000 1.000000 122 123 127 255
-0.733802 0.153468 0.053030 -0.000000 0.000000 1.000000 97 92 80 255
-0.635558 -0.075307 0.053030 -0.000000 0.000000 1.000000 97 92 80 255
-0.518994 0.222122 0.053030 -0.000000 0.000000 1.000000 97 92 80 255
0.148581 -0.188328 0.056819 -0.000000 -0.000000 1.000000 125 121 98 255
0.407807 -0.419826 0.056819 -0.000000 -0.000000 1.000000 125 121 98 255
0.424984 -0.219571 0.056819 -0.000000 -0.000000 1.000000 125 121 98 255
-0.362890 -0.218685 0.060606 -0.000000 -0.000000 1.000000 125 121 98 255
-0.432735 -0.469678 0.060606 -0.000000 -0.000000 1.000000 125 121 98 255
-0.152012 -0.261049 0.060606 -0.000000 -0.000000 1.000000 125 121 98 255
-0.122783 -0.517313 0.075758 -0.000000 0.000000 1.000000 125 121 98 255
0.019335 -0.670480 0.075758 -0.000000 0.000000 1.000000 125 121 98 255
0.216840 -0.490092 0.075758 -0.000000 0.000000 1.000000 125 121 98 255
0.226431 0.319062 0.068182 -0.000000 0.000000 1.000000 66 66 48 255
0.506378 0.299670 0.068182 -0.000000 0.000000 1.000000 66 66 48 255
0.245786 0.517359 0.068182 -0.000000 0.000000 1.000000 66 66 48 255
-0.524983 0.384621 0.071970 -0.000000 -0.000000 1.000000 97 92 80 255
-0.180707 0.370162 0.071970 -0.000000 -0.000000 1.000000 97 92 80 255
-0.320936 0.538386 0.071970 -0.000000 -0.000000 1.000000 97 92 80 255
0.474307 0.172236 0.064394 -0.000000 0.000000 1.000000 66 66 48 255
0.619037 -0.115687 0.064394 -0.000000 0.000000 1.000000 66 66 48 255
0.724323 0.061013 0.064394 -0.000000 0.000000 1.000000 66 66 48 255
0.000020 -0.804224 0.049243 -0.000000 0.000000 1.000000 163 164 169 255
0.000020 0.042330 0.049243 -0.000000 0.000000 1.000000 163 164 169 255
-0.804566 -0.370635 0.049242 -0.000000 0.000000 1.000000 163 164 169 255
0.804606 -0.370635 0.049243 -0.000000 0.000000 1.000000 163 164 169 255
3 0 1 2
3 0 3 1
3 4 5 6
3 7 8 9
3 10 11 12
3 7 13 8
3 14 15 16
3 14 17 15
3 18 19 20
3 21 22 23
3 24 25 26
3 27 28 29
3 30 31 32
3 33 34 35
3 36 37 38
3 39 40 41
3 39 42 40
