<?xml version="1.0" encoding="UTF-8" standalone="no"?>
<svg
   width="160cm"
   height="160cm"
   viewBox="0 0 160 160"
   version="1.1"
   id="svg7"
   sodipodi:docname="gravel.svg"
   inkscape:version="1.3.2 (091e20ef0f, 2023-11-25, custom)"
   xmlns:inkscape="http://www.inkscape.org/namespaces/inkscape"
   xmlns:sodipodi="http://sodipodi.sourceforge.net/DTD/sodipodi-0.dtd"
   xmlns="http://www.w3.org/2000/svg"
   xmlns:svg="http://www.w3.org/2000/svg">
  <defs
     id="defs7" />
  <sodipodi:namedview
     id="namedview7"
     pagecolor="#505050"
     bordercolor="#eeeeee"
     borderopacity="1"
     inkscape:showpageshadow="0"
     inkscape:pageopacity="0"
     inkscape:pagecheckerboard="0"
     inkscape:deskcolor="#d1d1d1"
     inkscape:document-units="cm"
     inkscape:zoom="0.096738281"
     inkscape:cx="3023.622"
     inkscape:cy="3023.622"
     inkscape:window-width="1870"
     inkscape:window-height="1052"
     inkscape:window-x="1920"
     inkscape:window-y="0"
     inkscape:window-maximized="1"
     inkscape:current-layer="svg7" />
  <path
     d="M80 0 7.976 41.342v81.454L80 160l72.024-37.204V41.342Z"
     fill="#2b291d"
     id="path1" />
  <path
     d="M138.364 48.674v66.006L80 144.828v-63.11Z"
     fill="#7a7b7f"
     id="path2" />
  <path
     d="M21.636 48.674v66.006L80 144.828v-63.11Z"
     fill="#8c8e93"
     id="path3" />
  <path
     d="M 80,15.172 138.364,48.674 80,81.718 21.636,48.674 Z"
     fill="#a3a4a9"
     id="path4" />
  <path
     d="m132.54 83.213-7.637-14.14-10.499 23.039zM96.424 103.86l1.404 15.866 18.903-17.418z"
     fill="#424230"
     id="path5" />
  <path
     d="m56.718 121.41 10.172-13.46-24.973 1.156zM26.77 90.61l15.581 5.494-8.455-23.8z"
     fill="#615c50"
     id="path6" />
  <path
     d="M80 27.264 65.413 40.22l29.817-5.317Zm20.984 34.991 7.258-20.528L83.41 57.443Zm-37.727-2.52 13.919-7.9-31.724-6.225Z"
     fill="#7d7962"
     id="path7" />
</svg>
