ply
format ascii 1.0
comment Created by Blender 3.5.1 - www.blender.org
element vertex 16
property float x
property float y
property float z
property float nx
property float ny
property float nz
property uchar red
property uchar green
property uchar blue
property uchar alpha
element face 8
property list uchar uint vertex_indices
end_header
0.000000 0.500000 0.000000 0.000000 0.000000 1.000000 255 1 239 255
0.500000 0.000000 0.000000 0.000000 0.000000 1.000000 255 0 239 255
0.500000 0.500000 0.000000 0.000000 0.000000 1.000000 255 0 239 255
0.000000 0.000000 0.000000 0.000000 0.000000 1.000000 255 50 240 255
-0.500000 0.000000 0.000000 0.000000 0.000000 1.000000 255 1 239 255
0.000000 -0.500000 0.000000 0.000000 0.000000 1.000000 255 0 239 255
0.000000 0.000000 0.000000 0.000000 0.000000 1.000000 255 0 239 255
-0.500000 -0.500000 0.000000 0.000000 0.000000 1.000000 255 50 240 255
0.000000 0.000000 0.000000 0.000000 0.000000 1.000000 0 0 0 255
0.500000 -0.500000 0.000000 0.000000 0.000000 1.000000 4 0 4 255
0.500000 0.000000 0.000000 0.000000 0.000000 1.000000 11 0 10 255
0.000000 -0.500000 0.000000 0.000000 0.000000 1.000000 16 4 16 255
-0.500000 0.500000 0.000000 0.000000 0.000000 1.000000 0 0 0 255
0.000000 0.000000 0.000000 0.000000 0.000000 1.000000 4 0 4 255
0.000000 0.500000 0.000000 0.000000 0.000000 1.000000 11 0 10 255
-0.500000 0.000000 0.000000 0.000000 0.000000 1.000000 16 4 16 255
3 0 1 2
3 0 3 1
3 4 5 6
3 4 7 5
3 8 9 10
3 8 11 9
3 12 13 14
3 12 15 13
