ply
format ascii 1.0
comment Created by Blender 3.6.0 - www.blender.org
element vertex 96
property float x
property float y
property float z
property float nx
property float ny
property float nz
property uchar red
property uchar green
property uchar blue
property uchar alpha
element face 42
property list uchar uint vertex_indices
end_header
-0.696204 0.334841 0.062500 -0.000000 0.000000 1.000000 199 203 219 255
-0.154095 0.182175 0.062500 -0.000000 0.000000 1.000000 199 203 219 255
-0.154095 0.684787 0.062500 -0.000000 0.000000 1.000000 199 203 219 255
-0.696204 -0.097738 0.062500 -0.000000 0.000000 1.000000 199 203 219 255
-0.746208 -0.097738 0.052083 -0.000000 0.000000 1.000000 84 87 106 255
-0.673257 -0.142147 0.052083 -0.000000 0.000000 1.000000 84 87 106 255
-0.646206 -0.015657 0.052083 -0.000000 0.000000 1.000000 84 87 106 255
-0.131156 0.137764 0.052084 -0.000000 -0.000000 1.000000 84 87 106 255
-0.646206 -0.015657 0.052083 -0.000000 0.000000 1.000000 84 87 106 255
-0.673257 -0.142147 0.052083 -0.000000 0.000000 1.000000 84 87 106 255
-0.204091 0.593015 0.052084 -0.000000 0.000000 1.000000 84 87 106 255
-0.723323 0.376846 0.052083 -0.000000 0.000000 1.000000 84 87 106 255
-0.646206 0.307620 0.052083 -0.000000 0.000000 1.000000 84 87 106 255
-0.204091 0.212619 0.052084 -0.000000 0.000000 1.000000 84 87 106 255
-0.131156 0.137764 0.052084 -0.000000 0.000000 1.000000 84 87 106 255
-0.104089 0.182173 0.052084 -0.000000 0.000000 1.000000 84 87 106 255
-0.746208 0.334845 0.052083 -0.000000 0.000000 1.000000 84 87 106 255
-0.646206 -0.015657 0.052083 -0.000000 0.000000 1.000000 84 87 106 255
-0.646206 0.307620 0.052083 -0.000000 0.000000 1.000000 84 87 106 255
-0.746208 0.334845 0.052083 -0.000000 0.000000 1.000000 84 87 106 255
-0.646206 0.307620 0.052083 -0.000000 0.000000 1.000000 84 87 106 255
-0.723323 0.376846 0.052083 -0.000000 0.000000 1.000000 84 87 106 255
-0.104089 0.182173 0.052084 -0.000000 0.000000 1.000000 84 87 106 255
-0.204091 0.593015 0.052084 -0.000000 0.000000 1.000000 84 87 106 255
-0.204091 0.212619 0.052084 -0.000000 0.000000 1.000000 84 87 106 255
-0.181222 0.726779 0.052084 -0.000000 -0.000000 1.000000 84 87 106 255
-0.204091 0.593015 0.052084 -0.000000 -0.000000 1.000000 84 87 106 255
-0.104089 0.684795 0.052084 -0.000000 -0.000000 1.000000 84 87 106 255
-0.204091 0.212619 0.052084 -0.000000 -0.000000 1.000000 84 87 106 255
-0.181222 0.726779 0.052084 -0.000000 0.000000 1.000000 84 87 106 255
-0.746208 -0.097738 0.052083 -0.000000 0.000000 1.000000 84 87 106 255
-0.104089 0.684795 0.052084 -0.000000 0.000000 1.000000 84 87 106 255
-0.154095 0.182175 0.041667 -0.000000 0.000000 1.000000 214 218 232 255
0.529565 0.043610 0.041667 -0.000000 0.000000 1.000000 214 218 232 255
-0.154095 0.684787 0.041667 -0.000000 0.000000 1.000000 214 218 232 255
0.529565 -0.388847 0.041667 -0.000000 0.000000 1.000000 214 218 232 255
0.563779 0.080076 0.031250 -0.000000 -0.000000 1.000000 84 87 106 255
0.479565 0.021966 0.031250 -0.000000 -0.000000 1.000000 84 87 106 255
0.579568 0.043608 0.031250 -0.000000 -0.000000 1.000000 84 87 106 255
0.479565 -0.281947 0.031250 -0.000000 -0.000000 1.000000 84 87 106 255
-0.186154 0.143817 0.031250 -0.000000 0.000000 1.000000 84 87 106 255
0.497502 -0.427216 0.031250 -0.000000 -0.000000 1.000000 84 87 106 255
0.563779 0.080076 0.031250 -0.000000 0.000000 1.000000 84 87 106 255
-0.104089 0.569354 0.031250 -0.000000 -0.000000 1.000000 84 87 106 255
0.479565 0.021966 0.031250 -0.000000 0.000000 1.000000 84 87 106 255
-0.204091 0.182173 0.031250 -0.000000 0.000000 1.000000 84 87 106 255
-0.104089 0.569354 0.031250 -0.000000 0.000000 1.000000 84 87 106 255
-0.204091 0.684795 0.031250 -0.000000 0.000000 1.000000 84 87 106 255
-0.204091 0.182173 0.031250 -0.000000 -0.000000 1.000000 84 87 106 255
-0.186154 0.143817 0.031250 -0.000000 -0.000000 1.000000 84 87 106 255
-0.104089 0.205557 0.031250 -0.000000 -0.000000 1.000000 84 87 106 255
0.479565 -0.281947 0.031250 -0.000000 0.000000 1.000000 84 87 106 255
0.579568 0.043608 0.031250 -0.000000 0.000000 1.000000 84 87 106 255
0.479565 0.021966 0.031250 -0.000000 0.000000 1.000000 84 87 106 255
-0.204091 0.684795 0.031250 -0.000000 -0.000000 1.000000 84 87 106 255
-0.104089 0.569354 0.031250 -0.000000 -0.000000 1.000000 84 87 106 255
-0.119893 0.721246 0.031250 -0.000000 -0.000000 1.000000 84 87 106 255
0.479565 -0.281947 0.031250 -0.000000 -0.000000 1.000000 84 87 106 255
0.497502 -0.427216 0.031250 -0.000000 -0.000000 1.000000 84 87 106 255
0.579568 -0.388844 0.031250 -0.000000 -0.000000 1.000000 84 87 106 255
-0.104089 0.205557 0.031250 -0.000000 0.000000 1.000000 84 87 106 255
-0.119893 0.721246 0.031250 -0.000000 -0.000000 1.000000 84 87 106 255
-0.104089 0.205557 0.031250 -0.000000 0.000000 1.000000 84 87 106 255
0.579568 -0.388844 0.031250 -0.000000 0.000000 1.000000 84 87 106 255
-0.019075 -0.513413 0.020834 -0.000000 0.000000 1.000000 228 230 238 255
-0.154095 0.182175 0.020834 -0.000000 0.000000 1.000000 228 230 238 255
-0.696204 -0.097738 0.020833 -0.000000 0.000000 1.000000 228 230 238 255
0.529565 -0.388847 0.020834 -0.000000 0.000000 1.000000 228 230 238 255
-0.045233 -0.556016 0.010417 -0.000000 0.000000 1.000000 84 87 106 255
-0.008010 -0.562168 0.010417 -0.000000 0.000000 1.000000 84 87 106 255
-0.010272 -0.460152 0.010417 -0.000000 0.000000 1.000000 84 87 106 255
-0.594512 -0.101497 0.010417 -0.000000 -0.000000 1.000000 84 87 106 255
-0.177039 0.226597 0.010417 -0.000000 0.000000 1.000000 84 87 106 255
-0.719156 -0.053329 0.010417 -0.000000 -0.000000 1.000000 84 87 106 255
0.419978 -0.362466 0.010417 -0.000000 0.000000 1.000000 84 87 106 255
0.540634 -0.437598 0.010417 -0.000000 0.000000 1.000000 84 87 106 255
0.561614 -0.350489 0.010417 -0.000000 0.000000 1.000000 84 87 106 255
-0.045233 -0.556016 0.010417 -0.000000 0.000000 1.000000 84 87 106 255
-0.594512 -0.101497 0.010417 -0.000000 0.000000 1.000000 84 87 106 255
-0.722363 -0.140341 0.010417 -0.000000 0.000000 1.000000 84 87 106 255
-0.719156 -0.053329 0.010417 -0.000000 0.000000 1.000000 84 87 106 255
-0.722363 -0.140341 0.010417 -0.000000 0.000000 1.000000 84 87 106 255
-0.594512 -0.101497 0.010417 -0.000000 0.000000 1.000000 84 87 106 255
0.419978 -0.362466 0.010417 -0.000000 0.000000 1.000000 84 87 106 255
-0.008010 -0.562168 0.010417 -0.000000 0.000000 1.000000 84 87 106 255
0.540634 -0.437598 0.010417 -0.000000 0.000000 1.000000 84 87 106 255
-0.177039 0.226597 0.010417 -0.000000 0.000000 1.000000 84 87 106 255
-0.160666 0.122516 0.010417 -0.000000 0.000000 1.000000 84 87 106 255
-0.122042 0.220544 0.010417 -0.000000 0.000000 1.000000 84 87 106 255
0.419978 -0.362466 0.010417 -0.000000 -0.000000 1.000000 84 87 106 255
-0.122042 0.220544 0.010417 -0.000000 -0.000000 1.000000 84 87 106 255
-0.160666 0.122516 0.010417 -0.000000 -0.000000 1.000000 84 87 106 255
-0.160666 0.122516 0.010417 -0.000000 0.000000 1.000000 84 87 106 255
-0.010272 -0.460152 0.010417 -0.000000 0.000000 1.000000 84 87 106 255
-0.010272 -0.460152 0.010417 -0.000000 0.000000 1.000000 84 87 106 255
0.561614 -0.350489 0.010417 -0.000000 -0.000000 1.000000 84 87 106 255
3 0 1 2
3 0 3 1
3 4 5 6
3 7 8 9
3 10 11 12
3 13 14 15
3 16 17 18
3 19 20 21
3 22 23 24
3 25 26 27
3 7 28 8
3 10 29 11
3 16 30 17
3 22 31 23
3 32 33 34
3 32 35 33
3 36 37 38
3 39 40 41
3 42 43 44
3 45 46 47
3 48 49 50
3 51 52 53
3 54 55 56
3 57 58 59
3 39 60 40
3 42 61 43
3 45 62 46
3 51 63 52
3 64 65 66
3 64 67 65
3 68 69 70
3 71 72 73
3 74 75 76
3 77 78 79
3 80 81 82
3 83 84 85
3 86 87 88
3 89 90 91
3 71 92 72
3 77 93 78
3 83 94 84
3 89 95 90
