ply
format ascii 1.0
comment Created by Blender 3.6.0 - www.blender.org
element vertex 60
property float x
property float y
property float z
property float nx
property float ny
property float nz
property uchar red
property uchar green
property uchar blue
property uchar alpha
element face 28
property list uchar uint vertex_indices
end_header
-0.897804 0.375536 0.031250 -0.000000 0.000000 1.000000 199 203 219 255
-0.098426 0.148488 0.031250 -0.000000 0.000000 1.000000 199 203 219 255
-0.098426 0.895983 0.031250 -0.000000 0.000000 1.000000 199 203 219 255
-0.897804 -0.267803 0.031250 -0.000000 0.000000 1.000000 199 203 219 255
-1.000371 0.426240 0.062500 -0.000000 0.000000 1.000000 84 87 106 255
-0.213465 0.716491 0.062500 -0.000000 0.000000 1.000000 84 87 106 255
-0.097674 1.000000 0.062500 -0.000000 0.000000 1.000000 84 87 106 255
-0.213465 0.196437 0.062500 -0.000000 0.000000 1.000000 84 87 106 255
0.007202 0.719298 0.062500 -0.000000 0.000000 1.000000 84 87 106 255
-0.213465 0.716491 0.062500 -0.000000 0.000000 1.000000 84 87 106 255
0.712328 -0.660790 0.062501 -0.000000 -0.000000 1.000000 84 87 106 255
1.000411 -0.772290 0.062501 -0.000000 -0.000000 1.000000 84 87 106 255
0.842896 -0.547870 0.062501 -0.000000 -0.000000 1.000000 84 87 106 255
-1.000371 0.426240 0.062500 -0.000000 -0.000000 1.000000 84 87 106 255
-0.817228 -0.126264 0.062500 -0.000000 -0.000000 1.000000 84 87 106 255
-0.817228 0.324633 0.062500 -0.000000 0.000000 1.000000 84 87 106 255
-0.117027 0.000191 0.062500 -0.000000 0.000000 1.000000 84 87 106 255
-0.817228 -0.126264 0.062500 -0.000000 -0.000000 1.000000 84 87 106 255
-0.714384 -0.320710 0.062500 -0.000000 -0.000000 1.000000 84 87 106 255
-0.999629 -0.313830 0.062500 -0.000000 -0.000000 1.000000 84 87 106 255
-0.714384 -0.320710 0.062500 -0.000000 -0.000000 1.000000 84 87 106 255
-0.817228 -0.126264 0.062500 -0.000000 -0.000000 1.000000 84 87 106 255
0.093828 -0.999617 0.062500 -0.000000 0.000000 1.000000 84 87 106 255
-0.714384 -0.320710 0.062500 -0.000000 0.000000 1.000000 84 87 106 255
-0.999629 -0.313830 0.062500 -0.000000 0.000000 1.000000 84 87 106 255
0.093828 -0.999617 0.062500 -0.000000 0.000000 1.000000 84 87 106 255
0.712328 -0.660790 0.062501 -0.000000 -0.000000 1.000000 84 87 106 255
0.127603 -0.837126 0.062500 -0.000000 0.000000 1.000000 84 87 106 255
0.712328 -0.660790 0.062501 -0.000000 -0.000000 1.000000 84 87 106 255
0.007202 0.152348 0.062500 -0.000000 0.000000 1.000000 84 87 106 255
-0.117027 0.000191 0.062500 -0.000000 0.000000 1.000000 84 87 106 255
-0.213465 0.196437 0.062500 -0.000000 0.000000 1.000000 84 87 106 255
-0.117027 0.000191 0.062500 -0.000000 0.000000 1.000000 84 87 106 255
0.007202 0.152348 0.062500 -0.000000 0.000000 1.000000 84 87 106 255
0.842896 -0.547870 0.062501 -0.000000 0.000000 1.000000 84 87 106 255
1.000411 -0.032651 0.062501 -0.000000 0.000000 1.000000 84 87 106 255
0.842896 -0.074245 0.062501 -0.000000 0.000000 1.000000 84 87 106 255
0.007202 0.719298 0.062500 -0.000000 0.000000 1.000000 84 87 106 255
1.000411 -0.032651 0.062501 -0.000000 0.000000 1.000000 84 87 106 255
-0.097674 1.000000 0.062500 -0.000000 0.000000 1.000000 84 87 106 255
-0.097674 1.000000 0.062500 -0.000000 0.000000 1.000000 84 87 106 255
-0.213465 0.716491 0.062500 -0.000000 0.000000 1.000000 84 87 106 255
0.007202 0.719298 0.062500 -0.000000 0.000000 1.000000 84 87 106 255
-0.817228 0.324633 0.062500 -0.000000 0.000000 1.000000 84 87 106 255
0.007202 0.152348 0.062500 -0.000000 0.000000 1.000000 84 87 106 255
-0.999629 -0.313830 0.062500 -0.000000 -0.000000 1.000000 84 87 106 255
-0.213465 0.196437 0.062500 -0.000000 0.000000 1.000000 84 87 106 255
0.127603 -0.837126 0.062500 -0.000000 0.000000 1.000000 84 87 106 255
1.000411 -0.772290 0.062501 -0.000000 -0.000000 1.000000 84 87 106 255
0.842896 -0.547870 0.062501 -0.000000 -0.000000 1.000000 84 87 106 255
1.000411 -0.772290 0.062501 -0.000000 0.000000 1.000000 84 87 106 255
0.842896 -0.074245 0.062501 -0.000000 0.000000 1.000000 84 87 106 255
-0.098426 0.148488 0.041667 -0.000000 0.000000 1.000000 214 218 232 255
0.909676 -0.057588 0.041667 -0.000000 0.000000 1.000000 214 218 232 255
-0.098426 0.895983 0.041667 -0.000000 0.000000 1.000000 214 218 232 255
0.909676 -0.700747 0.041667 -0.000000 0.000000 1.000000 214 218 232 255
0.100670 -0.886003 0.052084 -0.000000 -0.000000 1.000000 228 230 238 255
-0.098426 0.148488 0.052084 -0.000000 -0.000000 1.000000 228 230 238 255
-0.897804 -0.267803 0.052083 -0.000000 -0.000000 1.000000 228 230 238 255
0.909676 -0.700747 0.052084 -0.000000 -0.000000 1.000000 228 230 238 255
3 0 1 2
3 0 3 1
3 4 5 6
3 7 8 9
3 10 11 12
3 13 14 15
3 16 17 18
3 19 20 21
3 22 23 24
3 25 26 27
3 28 29 30
3 31 32 33
3 34 35 36
3 37 38 39
3 40 41 42
3 4 43 5
3 7 44 8
3 13 45 14
3 16 46 17
3 22 47 23
3 25 48 26
3 28 49 29
3 34 50 35
3 37 51 38
3 52 53 54
3 52 55 53
3 56 57 58
3 56 59 57
