ply
format ascii 1.0
comment Created by Blender 3.6.0 - www.blender.org
element vertex 22
property float x
property float y
property float z
property float nx
property float ny
property float nz
property uchar red
property uchar green
property uchar blue
property uchar alpha
element face 10
property list uchar uint vertex_indices
end_header
-0.810526 0.310270 0.041667 -0.000000 0.000000 1.000000 199 203 219 255
-0.116376 0.114025 0.041667 -0.000000 0.000000 1.000000 199 203 219 255
-0.116376 0.753735 0.041667 -0.000000 0.000000 1.000000 199 203 219 255
-0.810526 -0.232416 0.041667 -0.000000 0.000000 1.000000 199 203 219 255
0.141740 -0.999617 0.031250 -0.000000 0.000000 1.000000 84 87 106 255
-0.121004 1.000000 0.031250 -0.000000 0.000000 1.000000 84 87 106 255
-1.000000 -0.325161 0.031250 -0.000000 -0.000000 1.000000 84 87 106 255
-1.000000 0.436011 0.031250 -0.000000 0.000000 1.000000 84 87 106 255
-1.000000 -0.325161 0.031250 -0.000000 0.000000 1.000000 84 87 106 255
-0.121004 1.000000 0.031250 -0.000000 0.000000 1.000000 84 87 106 255
1.000572 0.004287 0.031251 -0.000000 -0.000000 1.000000 84 87 106 255
0.141740 -0.999617 0.031250 -0.000000 -0.000000 1.000000 84 87 106 255
1.001104 -0.719919 0.031251 -0.000000 -0.000000 1.000000 84 87 106 255
1.000572 0.004287 0.031251 -0.000000 0.000000 1.000000 84 87 106 255
-0.116376 0.114025 0.052084 -0.000000 0.000000 1.000000 214 218 232 255
0.825433 -0.068039 0.052084 -0.000000 0.000000 1.000000 214 218 232 255
-0.116376 0.753735 0.052084 -0.000000 0.000000 1.000000 214 218 232 255
0.825433 -0.577897 0.052084 -0.000000 0.000000 1.000000 214 218 232 255
0.135156 -0.795284 0.062500 -0.000000 -0.000000 1.000000 228 230 238 255
-0.116376 0.114025 0.062500 -0.000000 -0.000000 1.000000 228 230 238 255
-0.810526 -0.232416 0.062500 -0.000000 -0.000000 1.000000 228 230 238 255
0.825433 -0.577897 0.062501 -0.000000 0.000000 1.000000 228 230 238 255
3 0 1 2
3 0 3 1
3 4 5 6
3 7 8 9
3 10 11 12
3 4 13 5
3 14 15 16
3 14 17 15
3 18 19 20
3 18 21 19
