ply
format ascii 1.0
comment Created by Blender 3.6.0 - www.blender.org
element vertex 96
property float x
property float y
property float z
property float nx
property float ny
property float nz
property uchar red
property uchar green
property uchar blue
property uchar alpha
element face 42
property list uchar uint vertex_indices
end_header
-0.459653 0.188631 0.062500 -0.000000 0.000000 1.000000 199 203 219 255
-0.053071 0.074131 0.062500 -0.000000 0.000000 1.000000 199 203 219 255
-0.053071 0.451090 0.062500 -0.000000 0.000000 1.000000 199 203 219 255
-0.459653 -0.135804 0.062500 -0.000000 0.000000 1.000000 199 203 219 255
-0.497156 -0.135804 0.052083 -0.000000 -0.000000 1.000000 84 87 106 255
-0.442443 -0.169110 0.052083 -0.000000 -0.000000 1.000000 84 87 106 255
-0.422154 -0.074243 0.052083 -0.000000 -0.000000 1.000000 84 87 106 255
-0.035867 0.040823 0.052083 -0.000000 0.000000 1.000000 84 87 106 255
-0.422154 -0.074243 0.052083 -0.000000 -0.000000 1.000000 84 87 106 255
-0.442443 -0.169110 0.052083 -0.000000 -0.000000 1.000000 84 87 106 255
-0.090568 0.382261 0.052083 -0.000000 0.000000 1.000000 84 87 106 255
-0.479992 0.220134 0.052083 -0.000000 0.000000 1.000000 84 87 106 255
-0.422154 0.168215 0.052083 -0.000000 -0.000000 1.000000 84 87 106 255
-0.090568 0.096964 0.052083 -0.000000 0.000000 1.000000 84 87 106 255
-0.035867 0.040823 0.052083 -0.000000 0.000000 1.000000 84 87 106 255
-0.015567 0.074130 0.052083 -0.000000 0.000000 1.000000 84 87 106 255
-0.497156 0.188634 0.052083 -0.000000 0.000000 1.000000 84 87 106 255
-0.422154 -0.074243 0.052083 -0.000000 0.000000 1.000000 84 87 106 255
-0.422154 0.168215 0.052083 -0.000000 0.000000 1.000000 84 87 106 255
-0.497156 0.188634 0.052083 -0.000000 -0.000000 1.000000 84 87 106 255
-0.422154 0.168215 0.052083 -0.000000 -0.000000 1.000000 84 87 106 255
-0.479992 0.220134 0.052083 -0.000000 -0.000000 1.000000 84 87 106 255
-0.015567 0.074130 0.052083 -0.000000 0.000000 1.000000 84 87 106 255
-0.090568 0.382261 0.052083 -0.000000 0.000000 1.000000 84 87 106 255
-0.090568 0.096964 0.052083 -0.000000 0.000000 1.000000 84 87 106 255
-0.073417 0.482584 0.052083 -0.000000 0.000000 1.000000 84 87 106 255
-0.090568 0.382261 0.052083 -0.000000 0.000000 1.000000 84 87 106 255
-0.015567 0.451096 0.052083 -0.000000 0.000000 1.000000 84 87 106 255
-0.090568 0.096964 0.052083 -0.000000 0.000000 1.000000 84 87 106 255
-0.073417 0.482584 0.052083 -0.000000 0.000000 1.000000 84 87 106 255
-0.497156 -0.135804 0.052083 -0.000000 0.000000 1.000000 84 87 106 255
-0.015567 0.451096 0.052083 -0.000000 0.000000 1.000000 84 87 106 255
-0.053071 0.074131 0.041667 -0.000000 0.000000 1.000000 214 218 232 255
0.459673 -0.029792 0.041667 -0.000000 0.000000 1.000000 214 218 232 255
-0.053071 0.451090 0.041667 -0.000000 0.000000 1.000000 214 218 232 255
0.459673 -0.354136 0.041667 -0.000000 0.000000 1.000000 214 218 232 255
0.485334 -0.002443 0.031250 -0.000000 0.000000 1.000000 84 87 106 255
0.422174 -0.046026 0.031250 -0.000000 0.000000 1.000000 84 87 106 255
0.497176 -0.029794 0.031250 -0.000000 0.000000 1.000000 84 87 106 255
0.422174 -0.273961 0.031250 -0.000000 -0.000000 1.000000 84 87 106 255
-0.077116 0.045363 0.031250 -0.000000 0.000000 1.000000 84 87 106 255
0.435627 -0.382912 0.031250 -0.000000 -0.000000 1.000000 84 87 106 255
0.485334 -0.002443 0.031250 -0.000000 0.000000 1.000000 84 87 106 255
-0.015567 0.364516 0.031250 -0.000000 -0.000000 1.000000 84 87 106 255
0.422174 -0.046026 0.031250 -0.000000 0.000000 1.000000 84 87 106 255
-0.090568 0.074130 0.031250 -0.000000 0.000000 1.000000 84 87 106 255
-0.015567 0.364516 0.031250 -0.000000 0.000000 1.000000 84 87 106 255
-0.090568 0.451096 0.031250 -0.000000 0.000000 1.000000 84 87 106 255
-0.090568 0.074130 0.031250 -0.000000 -0.000000 1.000000 84 87 106 255
-0.077116 0.045363 0.031250 -0.000000 -0.000000 1.000000 84 87 106 255
-0.015567 0.091668 0.031250 -0.000000 -0.000000 1.000000 84 87 106 255
0.422174 -0.273961 0.031250 -0.000000 0.000000 1.000000 84 87 106 255
0.497176 -0.029794 0.031250 -0.000000 0.000000 1.000000 84 87 106 255
0.422174 -0.046026 0.031250 -0.000000 0.000000 1.000000 84 87 106 255
-0.090568 0.451096 0.031250 -0.000000 0.000000 1.000000 84 87 106 255
-0.015567 0.364516 0.031250 -0.000000 0.000000 1.000000 84 87 106 255
-0.027420 0.478435 0.031250 -0.000000 0.000000 1.000000 84 87 106 255
0.422174 -0.273961 0.031250 -0.000000 -0.000000 1.000000 84 87 106 255
0.435627 -0.382912 0.031250 -0.000000 -0.000000 1.000000 84 87 106 255
0.497176 -0.354133 0.031250 -0.000000 -0.000000 1.000000 84 87 106 255
-0.015567 0.091668 0.031250 -0.000000 0.000000 1.000000 84 87 106 255
-0.027420 0.478435 0.031250 -0.000000 -0.000000 1.000000 84 87 106 255
-0.015567 0.091668 0.031250 -0.000000 0.000000 1.000000 84 87 106 255
0.497176 -0.354133 0.031250 -0.000000 0.000000 1.000000 84 87 106 255
0.048194 -0.447560 0.020834 -0.000000 0.000000 1.000000 228 230 238 255
-0.053071 0.074131 0.020833 -0.000000 0.000000 1.000000 228 230 238 255
-0.459653 -0.135804 0.020833 -0.000000 0.000000 1.000000 228 230 238 255
0.459673 -0.354136 0.020834 -0.000000 0.000000 1.000000 228 230 238 255
0.028575 -0.479512 0.010417 -0.000000 0.000000 1.000000 84 87 106 255
0.056493 -0.484126 0.010417 -0.000000 0.000000 1.000000 84 87 106 255
0.054796 -0.407614 0.010417 -0.000000 0.000000 1.000000 84 87 106 255
-0.383384 -0.138623 0.010417 -0.000000 0.000000 1.000000 84 87 106 255
-0.070280 0.107448 0.010417 -0.000000 0.000000 1.000000 84 87 106 255
-0.476867 -0.102497 0.010417 -0.000000 0.000000 1.000000 84 87 106 255
0.377483 -0.334350 0.010417 -0.000000 0.000000 1.000000 84 87 106 255
0.467976 -0.390699 0.010417 -0.000000 0.000000 1.000000 84 87 106 255
0.483711 -0.325367 0.010417 -0.000000 0.000000 1.000000 84 87 106 255
0.028575 -0.479512 0.010417 -0.000000 0.000000 1.000000 84 87 106 255
-0.383384 -0.138623 0.010417 -0.000000 -0.000000 1.000000 84 87 106 255
-0.479272 -0.167756 0.010417 -0.000000 -0.000000 1.000000 84 87 106 255
-0.476867 -0.102497 0.010417 -0.000000 -0.000000 1.000000 84 87 106 255
-0.479272 -0.167756 0.010417 -0.000000 -0.000000 1.000000 84 87 106 255
-0.383384 -0.138623 0.010417 -0.000000 -0.000000 1.000000 84 87 106 255
0.377483 -0.334350 0.010417 -0.000000 0.000000 1.000000 84 87 106 255
0.056493 -0.484126 0.010417 -0.000000 0.000000 1.000000 84 87 106 255
0.467976 -0.390699 0.010417 -0.000000 0.000000 1.000000 84 87 106 255
-0.070280 0.107448 0.010417 -0.000000 0.000000 1.000000 84 87 106 255
-0.057999 0.029387 0.010417 -0.000000 0.000000 1.000000 84 87 106 255
-0.029031 0.102908 0.010417 -0.000000 0.000000 1.000000 84 87 106 255
0.377483 -0.334350 0.010417 -0.000000 0.000000 1.000000 84 87 106 255
-0.029031 0.102908 0.010417 -0.000000 0.000000 1.000000 84 87 106 255
-0.057999 0.029387 0.010417 -0.000000 0.000000 1.000000 84 87 106 255
-0.057999 0.029387 0.010417 -0.000000 0.000000 1.000000 84 87 106 255
0.054796 -0.407614 0.010417 -0.000000 0.000000 1.000000 84 87 106 255
0.054796 -0.407614 0.010417 -0.000000 0.000000 1.000000 84 87 106 255
0.483711 -0.325367 0.010417 -0.000000 0.000000 1.000000 84 87 106 255
3 0 1 2
3 0 3 1
3 4 5 6
3 7 8 9
3 10 11 12
3 13 14 15
3 16 17 18
3 19 20 21
3 22 23 24
3 25 26 27
3 7 28 8
3 10 29 11
3 16 30 17
3 22 31 23
3 32 33 34
3 32 35 33
3 36 37 38
3 39 40 41
3 42 43 44
3 45 46 47
3 48 49 50
3 51 52 53
3 54 55 56
3 57 58 59
3 39 60 40
3 42 61 43
3 45 62 46
3 51 63 52
3 64 65 66
3 64 67 65
3 68 69 70
3 71 72 73
3 74 75 76
3 77 78 79
3 80 81 82
3 83 84 85
3 86 87 88
3 89 90 91
3 71 92 72
3 77 93 78
3 83 94 84
3 89 95 90
