<?xml version="1.0" encoding="UTF-8" standalone="no"?>
<svg
   width="160cm"
   height="160cm"
   viewBox="0 0 160 160"
   version="1.1"
   id="svg4"
   sodipodi:docname="water.svg"
   inkscape:version="1.3.2 (091e20ef0f, 2023-11-25, custom)"
   xmlns:inkscape="http://www.inkscape.org/namespaces/inkscape"
   xmlns:sodipodi="http://sodipodi.sourceforge.net/DTD/sodipodi-0.dtd"
   xmlns="http://www.w3.org/2000/svg"
   xmlns:svg="http://www.w3.org/2000/svg">
  <defs
     id="defs4" />
  <sodipodi:namedview
     id="namedview4"
     pagecolor="#505050"
     bordercolor="#eeeeee"
     borderopacity="1"
     inkscape:showpageshadow="0"
     inkscape:pageopacity="0"
     inkscape:pagecheckerboard="0"
     inkscape:deskcolor="#d1d1d1"
     inkscape:document-units="cm"
     inkscape:zoom="0.02418457"
     inkscape:cx="-1385.1807"
     inkscape:cy="10192.449"
     inkscape:window-width="1870"
     inkscape:window-height="1052"
     inkscape:window-x="1920"
     inkscape:window-y="0"
     inkscape:window-maximized="1"
     inkscape:current-layer="svg4" />
  <path
     d="M160 80a80 80 0 0 1-80 80A80 80 0 0 1 0 80 80 80 0 0 1 80 0a80 80 0 0 1 80 80Z"
     fill="#253656"
     id="path1"
     style="stroke:none;fill:#273959;fill-opacity:1" />
  <path
     id="path2"
     style="fill:#497bb3;fill-opacity:1;stroke:none"
     d="m 95.317541,37.334776 c -5.352259,1.268592 -6.863005,7.400216 -9.228955,11.62388 -2.687294,5.164782 -7.294772,9.019987 -11.534765,12.887513 -2.816904,1.73383 -8.302604,6.806611 -10.781602,3.978165 0.725048,-5.272583 3.359208,-10.078827 4.333773,-15.30759 0.94305,-3.024925 5.061707,-9.231507 2.03435,-10.827999 -6.716556,4.377634 -11.628294,10.912949 -16.692637,16.996723 -3.354473,4.899255 -5.174806,10.608082 -7.152385,16.149909 -6.032461,3.154852 -11.163006,-4.942653 -8.781316,-10.240389 1.434026,-6.452957 6.469067,-11.934681 6.01943,-18.817096 -5.750571,-2.726309 -9.396067,5.257055 -12.958043,8.581278 -7.071964,9.11337 -9.363474,21.023843 -9.029731,32.328861 0.284197,4.093373 0.900807,8.427567 3.997623,11.406587 3.536913,4.658122 7.073827,9.316242 10.610738,13.974372 29.341,0 58.681999,0 88.022999,0 4.76699,-8.21633 9.53399,-16.432659 14.30098,-24.64899 0.15027,-8.196743 -2.68125,-16.144786 -2.24823,-24.364068 -0.38079,-7.86762 0.5887,-16.187283 -2.47925,-23.614675 -3.83306,-4.303847 -8.51547,1.927462 -10.15823,5.406318 -3.91791,7.926568 -1.56723,16.952755 -3.23105,25.320872 -5.49498,4.761456 -11.06664,-3.646274 -15.67074,-6.236903 -5.957532,-2.816345 -7.354629,-9.410147 -3.45678,-14.506395 3.25217,-5.156435 0.63176,-11.205828 -5.916179,-10.090373 z" />
  <path
     d="m 21.522,81.83 c -0.527721,18.48752 9.571756,37.13059 26.172704,45.69721 22.201251,12.31247 51.73328,10.99949 72.167756,-4.31751 11.22122,-9.14897 18.09818,-23.348962 18.61554,-37.7897 -5.0976,-4.30853 -10.93337,1.448519 -14.16701,5.392887 -3.89609,4.634102 -6.93906,9.888863 -10.14999,14.998113 -1.48641,-7.053423 -2.11148,-14.54818 -5.93831,-20.842145 -6.93864,-2.355897 -7.93515,8.373981 -11.753514,12.114765 -1.683974,4.12864 -10.602155,13.33838 -11.78976,4.90507 C 82.875939,96.477042 80.905415,90.589739 76.32563,86.723123 69.022686,84.465879 66.047043,93.825969 62.404797,98.303582 59.804981,103.56814 52.015231,104.8278 51.307136,97.757168 49.54212,92.157905 44.394227,82.993757 37.582944,88.319268 31.675946,94.026179 24.538163,89.105508 22.050671,82.763646 Z"
     fill="#5698dd"
     id="path3"
     style="fill:#56a2dd;fill-opacity:1;stroke:none" />
</svg>
