<?xml version="1.0" encoding="UTF-8" standalone="no"?>
<!-- Created with Inkscape (http://www.inkscape.org/) -->

<svg
        width="160cm"
        height="160cm"
        viewBox="0 0 160 160"
        version="1.1"
        _id="SVGRoot"
        id="svg26"
        sodipodi:docname="water.svg"
        inkscape:version="1.2.2 (b0a8486541, 2022-12-01)"
        xmlns:inkscape="http://www.inkscape.org/namespaces/inkscape"
        xmlns:sodipodi="http://sodipodi.sourceforge.net/DTD/sodipodi-0.dtd"
        xmlns="http://www.w3.org/2000/svg"
>
    <sodipodi:namedview
            id="namedview22"
            pagecolor="#505050"
            bordercolor="#eeeeee"
            borderopacity="1"
            inkscape:showpageshadow="0"
            inkscape:pageopacity="0"
            inkscape:pagecheckerboard="0"
            inkscape:deskcolor="#505050"
            inkscape:document-units="cm"
            showgrid="false"
            inkscape:zoom="0.056568542"
            inkscape:cx="-1714.734"
            inkscape:cy="1776.6058"
            inkscape:window-width="1870"
            inkscape:window-height="1051"
            inkscape:window-x="1920"
            inkscape:window-y="0"
            inkscape:window-maximized="1"
            inkscape:current-layer="svg26"/>
    <defs
            _id="defs402"
            id="defs8"/>
    <path
            id="path953"
            style="display:inline;fill:#354c6d;fill-opacity:1;stroke-linecap:square;paint-order:stroke fill markers;stop-color:#000000"
            inkscape:transform-center-x="1.007874e-05"
            inkscape:transform-center-y="-1.007874e-05"
            d="M 159.99998,112.84478 113.34375,159.7933 47.155202,159.99998 0.20668688,113.34375 7.720728e-6,47.155202 46.656235,0.20668688 112.84478,7.720728e-6 159.7933,46.656235 Z"
            sodipodi:insensitive="true"/>
    <g
            id="g2166"
            style="display:inline;fill:#6c9bd1;fill-opacity:1"
            transform="matrix(0.78660323,0,0,0.78660323,17.786643,8.7960914)">
        <path
                id="path4770"
                style="display:inline;fill:#557ead;fill-opacity:1;stroke:none;stroke-width:0.0300632px;stroke-linecap:butt;stroke-linejoin:miter;stroke-opacity:1"
                d="m 8.9895381,51.938921 c 0,0 -10.473054,38.701369 -3.4323037,57.703489 l 32.9665736,32.91464 h 90.940232 l 24.56666,-40.86817 c 3.13709,-19.20356 -4.18261,-47.170428 -4.18261,-47.170428 L 136.82097,77.426556 17.577701,69.226519 Z"
                sodipodi:nodetypes="ccccccccc"/>
        <path
                id="path285-9"
                style="display:inline;fill:#6c9bd1;fill-opacity:1;stroke-width:1.25043;stroke-linecap:square;paint-order:stroke fill markers;stop-color:#000000"
                d="m 5.1996014,108.61498 c 29.8500526,69.44764 136.1975286,71.86097 148.8310986,-6.9261 0,0 -8.35774,15.47869 -27.0884,26.7057 -0.78964,-60.452884 -13.07061,-2.39366 -40.215068,1.81981 9.545124,-74.774676 -27.713578,8.17864 -43.161005,-5.53806 10.292727,-62.50851 -19.815789,0.4394 -38.3666256,-16.06135 z"
                sodipodi:nodetypes="cccccc"/>
        <path
                id="path1052-3"
                style="display:inline;fill:#6c9bd1;fill-opacity:1;stroke:none;stroke-width:0.0136964px;stroke-linecap:butt;stroke-linejoin:miter;stroke-opacity:1"
                d="m 51.741442,74.708333 c 1.544736,17.150073 41.083478,14.457526 55.563958,3.752447 21.17762,16.073717 46.16637,2.687763 42.54269,-23.942328 -4.47106,7.025231 -18.88562,17.488704 -29.825,15.648992 C 114.59513,-4.3288676 91.441964,98.889341 68.634041,59.354537 35.795911,2.4335698 62.990098,100.89807 8.9895381,51.938921 6.2955352,79.885261 20.921614,95.030798 51.741442,74.708333 Z"
                sodipodi:nodetypes="ccccscc"/>
    </g>
</svg>
