ply
format ascii 1.0
comment Created by Blender 3.6.0 - www.blender.org
element vertex 356
property float x
property float y
property float z
property float nx
property float ny
property float nz
property uchar red
property uchar green
property uchar blue
property uchar alpha
element face 162
property list uchar uint vertex_indices
end_header
-0.677379 -0.200122 0.062500 -0.000000 -0.000000 1.000000 108 155 209 255
-0.634484 -0.117341 0.062500 -0.000000 -0.000000 1.000000 108 155 209 255
-0.659402 -0.154562 0.062500 -0.000000 -0.000000 1.000000 108 155 209 255
0.616824 -0.105839 0.062501 -0.000000 0.000000 1.000000 108 155 209 255
0.516560 -0.216394 0.062500 -0.000000 0.000000 1.000000 108 155 209 255
0.545201 -0.229088 0.062501 -0.000000 0.000000 1.000000 108 155 209 255
-0.221485 -0.472465 0.062500 -0.000000 -0.000000 1.000000 108 155 209 255
-0.299426 -0.425398 0.062500 -0.000000 -0.000000 1.000000 108 155 209 255
-0.280362 -0.466835 0.062500 -0.000000 -0.000000 1.000000 108 155 209 255
0.257857 -0.433302 0.062500 -0.000000 -0.000000 1.000000 108 155 209 255
0.385622 -0.348408 0.062500 -0.000000 0.000000 1.000000 108 155 209 255
0.213930 -0.381930 0.062500 -0.000000 -0.000000 1.000000 108 155 209 255
0.166443 -0.323397 0.062500 -0.000000 -0.000000 1.000000 108 155 209 255
0.213930 -0.381930 0.062500 -0.000000 -0.000000 1.000000 108 155 209 255
0.385622 -0.348408 0.062500 -0.000000 -0.000000 1.000000 108 155 209 255
-0.692352 -0.313161 0.062500 -0.000000 0.000000 1.000000 108 155 209 255
-0.689271 -0.379093 0.062500 -0.000000 0.000000 1.000000 108 155 209 255
-0.572357 -0.287239 0.062500 -0.000000 0.000000 1.000000 108 155 209 255
-0.340918 -0.316960 0.062500 -0.000000 0.000000 1.000000 108 155 209 255
-0.318005 -0.371994 0.062500 -0.000000 0.000000 1.000000 108 155 209 255
-0.102802 -0.306193 0.062500 -0.000000 0.000000 1.000000 108 155 209 255
0.572974 -0.244134 0.062501 -0.000000 -0.000000 1.000000 108 155 209 255
0.674708 -0.184294 0.062501 -0.000000 -0.000000 1.000000 108 155 209 255
0.649413 -0.141247 0.062501 -0.000000 0.000000 1.000000 108 155 209 255
0.545201 -0.229088 0.062501 -0.000000 -0.000000 1.000000 108 155 209 255
0.649413 -0.141247 0.062501 -0.000000 -0.000000 1.000000 108 155 209 255
0.616824 -0.105839 0.062501 -0.000000 -0.000000 1.000000 108 155 209 255
0.188589 -0.072850 0.062500 -0.000000 -0.000000 1.000000 108 155 209 255
0.075892 -0.043692 0.062500 -0.000000 -0.000000 1.000000 108 155 209 255
0.063256 -0.228607 0.062500 -0.000000 0.000000 1.000000 108 155 209 255
0.534191 -0.060153 0.062500 -0.000000 0.000000 1.000000 108 155 209 255
0.486361 -0.050983 0.062500 -0.000000 0.000000 1.000000 108 155 209 255
0.458512 -0.200215 0.062500 -0.000000 0.000000 1.000000 108 155 209 255
0.435664 -0.051665 0.062500 -0.000000 0.000000 1.000000 108 155 209 255
0.458512 -0.200215 0.062500 -0.000000 -0.000000 1.000000 108 155 209 255
0.486361 -0.050983 0.062500 -0.000000 0.000000 1.000000 108 155 209 255
0.646511 -0.298018 0.062501 -0.000000 -0.000000 1.000000 108 155 209 255
0.691601 -0.234427 0.062501 -0.000000 -0.000000 1.000000 108 155 209 255
0.599422 -0.260997 0.062501 -0.000000 -0.000000 1.000000 108 155 209 255
-0.341340 -0.112444 0.062500 -0.000000 -0.000000 1.000000 108 155 209 255
-0.372988 -0.270631 0.062500 -0.000000 -0.000000 1.000000 108 155 209 255
-0.268903 -0.155255 0.062500 -0.000000 -0.000000 1.000000 108 155 209 255
0.674708 -0.184294 0.062501 -0.000000 0.000000 1.000000 108 155 209 255
0.599422 -0.260997 0.062501 -0.000000 0.000000 1.000000 108 155 209 255
0.691601 -0.234427 0.062501 -0.000000 0.000000 1.000000 108 155 209 255
0.075892 -0.043692 0.062500 -0.000000 0.000000 1.000000 108 155 209 255
0.008790 -0.214228 0.062500 -0.000000 0.000000 1.000000 108 155 209 255
0.063256 -0.228607 0.062500 -0.000000 0.000000 1.000000 108 155 209 255
-0.602661 -0.089231 0.062500 -0.000000 -0.000000 1.000000 108 155 209 255
-0.518459 -0.063443 0.062500 -0.000000 -0.000000 1.000000 108 155 209 255
-0.563974 -0.071008 0.062500 -0.000000 -0.000000 1.000000 108 155 209 255
-0.483886 -0.245434 0.062500 -0.000000 0.000000 1.000000 108 155 209 255
-0.634484 -0.117341 0.062500 -0.000000 0.000000 1.000000 108 155 209 255
-0.572357 -0.287239 0.062500 -0.000000 0.000000 1.000000 108 155 209 255
0.116013 -0.268644 0.062500 -0.000000 -0.000000 1.000000 108 155 209 255
0.277443 -0.118366 0.062500 -0.000000 0.000000 1.000000 108 155 209 255
0.237073 -0.093765 0.062500 -0.000000 0.000000 1.000000 108 155 209 255
-0.692352 -0.313161 0.062500 -0.000000 -0.000000 1.000000 108 155 209 255
-0.677379 -0.200122 0.062500 -0.000000 -0.000000 1.000000 108 155 209 255
-0.688375 -0.253246 0.062500 0.000001 -0.000000 1.000000 108 155 209 255
0.534191 -0.060153 0.062500 -0.000000 -0.000000 1.000000 108 155 209 255
0.516560 -0.216394 0.062500 -0.000000 -0.000000 1.000000 108 155 209 255
0.578048 -0.078623 0.062501 -0.000000 -0.000000 1.000000 108 155 209 255
-0.233046 -0.086674 0.062500 -0.000000 -0.000000 1.000000 108 155 209 255
-0.268903 -0.155255 0.062500 -0.000001 0.000000 1.000000 108 155 209 255
-0.197151 -0.063565 0.062500 -0.000000 -0.000000 1.000000 108 155 209 255
-0.318005 -0.371994 0.062500 -0.000000 0.000000 1.000000 108 155 209 255
-0.172030 -0.415985 0.062500 -0.000000 -0.000000 1.000000 108 155 209 255
-0.102802 -0.306193 0.062500 -0.000000 -0.000000 1.000000 108 155 209 255
0.402493 -0.199895 0.062500 -0.000000 -0.000000 1.000000 108 155 209 255
0.435664 -0.051665 0.062500 -0.000000 -0.000000 1.000000 108 155 209 255
0.383207 -0.062755 0.062500 -0.000000 -0.000000 1.000000 108 155 209 255
0.188589 -0.072850 0.062500 -0.000000 -0.000000 1.000000 108 155 209 255
0.116013 -0.268644 0.062500 -0.000000 -0.000000 1.000000 108 155 209 255
0.237073 -0.093765 0.062500 -0.000000 -0.000000 1.000000 108 155 209 255
0.646511 -0.298018 0.062501 -0.000000 0.000000 1.000000 108 155 209 255
0.695754 -0.353735 0.062501 -0.000000 0.000000 1.000000 108 155 209 255
0.698985 -0.291092 0.062501 -0.000000 0.000000 1.000000 108 155 209 255
0.277443 -0.118366 0.062500 -0.000000 0.000000 1.000000 108 155 209 255
0.383207 -0.062755 0.062500 -0.000000 0.000000 1.000000 108 155 209 255
0.330098 -0.084804 0.062500 -0.000000 -0.000000 1.000000 108 155 209 255
-0.340918 -0.316960 0.062500 -0.000000 0.000000 1.000000 108 155 209 255
-0.268903 -0.155255 0.062500 -0.000000 0.000000 1.000000 108 155 209 255
-0.372988 -0.270631 0.062500 -0.000000 0.000000 1.000000 108 155 209 255
-0.341340 -0.112444 0.062500 -0.000000 -0.000000 1.000000 108 155 209 255
-0.407104 -0.083388 0.062500 -0.000000 -0.000000 1.000000 108 155 209 255
-0.419037 -0.243344 0.062500 -0.000000 -0.000000 1.000000 108 155 209 255
-0.268903 -0.155255 0.062500 -0.000000 0.000000 1.000000 108 155 209 255
-0.046768 -0.236443 0.062500 -0.000000 -0.000000 1.000000 108 155 209 255
-0.197151 -0.063565 0.062500 -0.000000 0.000000 1.000000 108 155 209 255
-0.100189 -0.037694 0.062500 -0.000000 0.000000 1.000000 108 155 209 255
-0.197151 -0.063565 0.062500 -0.000000 0.000000 1.000000 108 155 209 255
-0.046768 -0.236443 0.062500 -0.000000 0.000000 1.000000 108 155 209 255
-0.466157 -0.067312 0.062500 -0.000000 0.000000 1.000000 108 155 209 255
-0.518459 -0.063443 0.062500 -0.000000 0.000000 1.000000 108 155 209 255
-0.483886 -0.245434 0.062500 -0.000000 0.000000 1.000000 108 155 209 255
0.297606 -0.466574 0.062500 -0.000000 -0.000000 1.000000 108 155 209 255
0.362106 -0.435067 0.062500 -0.000000 -0.000000 1.000000 108 155 209 255
0.257857 -0.433302 0.062500 -0.000000 0.000000 1.000000 108 155 209 255
0.277443 -0.118366 0.062500 -0.000000 0.000000 1.000000 108 155 209 255
0.385622 -0.348408 0.062500 -0.000000 0.000000 1.000000 108 155 209 255
0.402493 -0.199895 0.062500 -0.000000 0.000000 1.000000 108 155 209 255
-0.483886 -0.245434 0.062500 -0.000000 -0.000000 1.000000 108 155 209 255
-0.407104 -0.083388 0.062500 -0.000000 0.000000 1.000000 108 155 209 255
-0.466157 -0.067312 0.062500 -0.000000 0.000000 1.000000 108 155 209 255
0.015984 -0.036257 0.062500 -0.000000 0.000000 1.000000 108 155 209 255
-0.043427 -0.034123 0.062500 -0.000000 0.000000 1.000000 108 155 209 255
0.008790 -0.214228 0.062500 -0.000000 0.000000 1.000000 108 155 209 255
-0.046768 -0.236443 0.062500 -0.000000 0.000000 1.000000 108 155 209 255
-0.043427 -0.034123 0.062500 -0.000000 0.000000 1.000000 108 155 209 255
-0.100189 -0.037694 0.062500 -0.000000 0.000000 1.000000 108 155 209 255
-0.572357 -0.287239 0.062500 -0.000000 0.000000 1.000000 108 155 209 255
0.578048 -0.078623 0.062501 -0.000000 0.000000 1.000000 108 155 209 255
-0.172030 -0.415985 0.062500 -0.000000 -0.000000 1.000000 108 155 209 255
0.362106 -0.435067 0.062500 -0.000000 0.000000 1.000000 108 155 209 255
0.599422 -0.260997 0.062501 -0.000000 -0.000000 1.000000 108 155 209 255
0.572974 -0.244134 0.062501 -0.000000 -0.000000 1.000000 108 155 209 255
0.134145 -0.056024 0.062500 -0.000001 -0.000001 1.000000 108 155 209 255
0.402493 -0.199895 0.062500 -0.000000 -0.000000 1.000000 108 155 209 255
0.698985 -0.291092 0.062501 -0.000000 -0.000000 1.000000 108 155 209 255
-0.419037 -0.243344 0.062500 -0.000000 -0.000000 1.000000 108 155 209 255
0.015984 -0.036257 0.062500 -0.000000 0.000000 1.000000 108 155 209 255
-0.483886 -0.245434 0.062500 -0.000000 0.000000 1.000000 108 155 209 255
-0.602661 -0.089231 0.062500 -0.000000 0.000000 1.000000 108 155 209 255
0.166443 -0.323397 0.062500 -0.000000 -0.000000 1.000000 108 155 209 255
-0.572357 -0.287239 0.062500 -0.000000 -0.000000 1.000000 108 155 209 255
0.458512 -0.200215 0.062500 -0.000000 -0.000000 1.000000 108 155 209 255
-0.257681 -0.117103 0.062500 -0.000001 0.000000 1.000000 108 155 209 255
-0.299426 -0.425398 0.062500 -0.000000 0.000000 1.000000 108 155 209 255
0.063256 -0.228607 0.062500 -0.000000 -0.000000 1.000000 108 155 209 255
0.402493 -0.199895 0.062500 -0.000000 0.000000 1.000000 108 155 209 255
-0.102802 -0.306193 0.062500 -0.000000 0.000000 1.000000 108 155 209 255
-0.102802 -0.306193 0.062500 -0.000000 -0.000000 1.000000 108 155 209 255
-0.152147 -0.047373 0.062500 -0.000000 -0.000000 1.000000 108 155 209 255
0.332561 -0.470809 0.062500 -0.000000 -0.000000 1.000000 108 155 209 255
0.166443 -0.323397 0.062500 -0.000000 0.000000 1.000000 108 155 209 255
-0.419037 -0.243344 0.062500 -0.000000 -0.000000 1.000000 108 155 209 255
0.008790 -0.214228 0.062500 -0.000000 0.000000 1.000000 108 155 209 255
0.001534 0.098229 0.052084 -0.000000 -0.000000 1.000000 108 155 209 255
0.040543 0.079553 0.052084 -0.000000 -0.000000 1.000000 108 155 209 255
0.069747 0.090748 0.052084 -0.000000 -0.000000 1.000000 108 155 209 255
-0.431558 0.087409 0.052084 -0.000000 -0.000000 1.000000 108 155 209 255
-0.361578 0.057964 0.052084 -0.000000 -0.000000 1.000000 108 155 209 255
-0.329424 0.122164 0.052084 -0.000000 -0.000000 1.000000 108 155 209 255
-0.476297 0.119762 0.052084 -0.000000 0.000000 1.000000 108 155 209 255
-0.329424 0.122164 0.052084 -0.000000 0.000000 1.000000 108 155 209 255
-0.331966 0.206867 0.052084 -0.000000 0.000000 1.000000 108 155 209 255
-0.525172 0.154544 0.052083 -0.000000 -0.000000 1.000000 108 155 209 255
-0.331966 0.206867 0.052084 -0.000000 -0.000000 1.000000 108 155 209 255
-0.349287 0.335963 0.052084 -0.000000 -0.000000 1.000000 108 155 209 255
-0.044938 0.138095 0.052084 -0.000000 0.000000 1.000000 108 155 209 255
0.089370 0.237491 0.052084 -0.000000 0.000000 1.000000 108 155 209 255
-0.096529 0.190465 0.052084 -0.000000 0.000000 1.000000 108 155 209 255
-0.576407 0.184760 0.052083 -0.000000 0.000000 1.000000 108 155 209 255
-0.525172 0.154544 0.052083 -0.000000 0.000000 1.000000 108 155 209 255
-0.349287 0.335963 0.052084 -0.000000 0.000000 1.000000 108 155 209 255
-0.638457 0.334939 0.052083 -0.000000 -0.000000 1.000000 108 155 209 255
-0.726536 0.178070 0.052083 -0.000000 -0.000000 1.000000 108 155 209 255
-0.678863 0.203517 0.052083 -0.000000 -0.000000 1.000000 108 155 209 255
-0.244289 0.635964 0.052084 -0.000000 0.000000 1.000000 108 155 209 255
-0.258594 0.335770 0.052084 -0.000000 0.000000 1.000000 108 155 209 255
-0.088960 0.678166 0.052084 -0.000000 0.000000 1.000000 108 155 209 255
-0.678863 0.203517 0.052083 -0.000000 0.000000 1.000000 108 155 209 255
-0.576407 0.184760 0.052083 -0.000000 0.000000 1.000000 108 155 209 255
-0.638457 0.334939 0.052083 -0.000000 -0.000000 1.000000 108 155 209 255
0.672769 0.199860 0.052084 -0.000000 -0.000000 1.000000 108 155 209 255
0.721162 0.135482 0.052084 -0.000000 -0.000000 1.000000 108 155 209 255
0.687596 0.287064 0.052084 -0.000000 -0.000000 1.000000 108 155 209 255
0.367490 0.623584 0.052084 -0.000000 0.000000 1.000000 108 155 209 255
0.470528 0.372516 0.052084 -0.000000 0.000000 1.000000 108 155 209 255
0.497090 0.543382 0.052084 -0.000000 0.000000 1.000000 108 155 209 255
0.470528 0.372516 0.052084 -0.000000 -0.000000 1.000000 108 155 209 255
0.605729 0.431370 0.052084 -0.000000 -0.000000 1.000000 108 155 209 255
0.497090 0.543382 0.052084 -0.000000 0.000000 1.000000 108 155 209 255
0.248397 0.286564 0.052084 -0.000000 -0.000000 1.000000 108 155 209 255
0.294519 0.235294 0.052084 -0.000000 -0.000000 1.000000 108 155 209 255
0.470528 0.372516 0.052084 -0.000000 -0.000000 1.000000 108 155 209 255
0.196530 0.333428 0.052084 -0.000000 0.000000 1.000000 108 155 209 255
0.222741 0.672460 0.052084 -0.000000 0.000000 1.000000 108 155 209 255
0.138804 0.370003 0.052084 -0.000000 0.000000 1.000000 108 155 209 255
-0.205699 0.297987 0.052084 -0.000000 0.000000 1.000000 108 155 209 255
-0.150897 0.246657 0.052084 -0.000000 0.000000 1.000000 108 155 209 255
0.075103 0.390406 0.052084 -0.000000 0.000000 1.000000 108 155 209 255
0.399574 0.113881 0.052084 -0.000000 -0.000000 1.000000 108 155 209 255
0.457076 0.164613 0.052084 -0.000000 -0.000000 1.000000 108 155 209 255
0.369993 0.143069 0.052084 -0.000000 -0.000000 1.000000 108 155 209 255
0.075103 0.390406 0.052084 -0.000000 -0.000000 1.000000 108 155 209 255
-0.088960 0.678166 0.052084 -0.000000 0.000000 1.000000 108 155 209 255
-0.205699 0.297987 0.052084 -0.000000 -0.000000 1.000000 108 155 209 255
0.514458 0.344165 0.052084 -0.000000 0.000000 1.000000 108 155 209 255
0.589844 0.284933 0.052084 -0.000000 0.000000 1.000000 108 155 209 255
0.605729 0.431370 0.052084 -0.000000 0.000000 1.000000 108 155 209 255
-0.258594 0.335770 0.052084 -0.000000 -0.000000 1.000000 108 155 209 255
-0.205699 0.297987 0.052084 -0.000000 -0.000000 1.000000 108 155 209 255
-0.088960 0.678166 0.052084 -0.000000 -0.000000 1.000000 108 155 209 255
0.649056 0.226817 0.052084 -0.000000 -0.000000 1.000000 108 155 209 255
0.687596 0.287064 0.052084 -0.000000 -0.000000 1.000000 108 155 209 255
0.621437 0.255399 0.052084 -0.000000 -0.000000 1.000000 108 155 209 255
0.222741 0.672460 0.052084 -0.000000 0.000000 1.000000 108 155 209 255
0.075103 0.390406 0.052084 -0.000000 0.000000 1.000000 108 155 209 255
0.138804 0.370003 0.052084 -0.000000 0.000000 1.000000 108 155 209 255
-0.349287 0.335963 0.052084 -0.000000 0.000000 1.000000 108 155 209 255
-0.391523 0.564370 0.052084 -0.000000 0.000000 1.000000 108 155 209 255
-0.524849 0.463867 0.052083 -0.000000 0.000000 1.000000 108 155 209 255
0.335013 0.185501 0.052084 -0.000000 0.000000 1.000000 108 155 209 255
0.457076 0.164613 0.052084 -0.000000 -0.000000 1.000000 108 155 209 255
0.466213 0.247234 0.052084 -0.000000 -0.000000 1.000000 108 155 209 255
0.196530 0.333428 0.052084 -0.000000 -0.000000 1.000000 108 155 209 255
0.470528 0.372516 0.052084 -0.000000 -0.000000 1.000000 108 155 209 255
0.367490 0.623584 0.052084 -0.000000 -0.000000 1.000000 108 155 209 255
0.001534 0.098229 0.052084 -0.000000 0.000000 1.000000 108 155 209 255
0.086803 0.140500 0.052084 -0.000000 0.000000 1.000000 108 155 209 255
-0.044938 0.138095 0.052084 -0.000000 0.000000 1.000000 108 155 209 255
0.589844 0.284933 0.052084 -0.000000 0.000000 1.000000 108 155 209 255
0.687596 0.287064 0.052084 -0.000000 0.000000 1.000000 108 155 209 255
0.605729 0.431370 0.052084 -0.000000 0.000000 1.000000 108 155 209 255
-0.391523 0.564370 0.052084 -0.000000 0.000000 1.000000 108 155 209 255
-0.307237 0.351324 0.052084 -0.000000 0.000000 1.000000 108 155 209 255
-0.244289 0.635964 0.052084 -0.000000 0.000000 1.000000 108 155 209 255
-0.150897 0.246657 0.052084 -0.000000 0.000000 1.000000 108 155 209 255
0.089370 0.237491 0.052084 -0.000000 -0.000000 1.000000 108 155 209 255
0.075103 0.390406 0.052084 -0.000000 -0.000000 1.000000 108 155 209 255
0.294519 0.235294 0.052084 -0.000000 0.000000 1.000000 108 155 209 255
0.466213 0.247234 0.052084 -0.000000 -0.000000 1.000000 108 155 209 255
0.470528 0.372516 0.052084 -0.000000 -0.000000 1.000000 108 155 209 255
-0.576407 0.184760 0.052083 -0.000000 -0.000000 1.000000 108 155 209 255
-0.524849 0.463867 0.052083 -0.000000 -0.000000 1.000000 108 155 209 255
-0.638457 0.334939 0.052083 -0.000000 -0.000000 1.000000 108 155 209 255
-0.392726 0.064478 0.052084 -0.000000 -0.000000 1.000000 108 155 209 255
-0.431558 0.087409 0.052084 -0.000000 0.000000 1.000000 108 155 209 255
-0.476297 0.119762 0.052084 -0.000000 -0.000000 1.000000 108 155 209 255
0.086803 0.140500 0.052084 -0.000000 0.000000 1.000000 108 155 209 255
-0.307237 0.351324 0.052084 -0.000000 0.000000 1.000000 108 155 209 255
-0.628228 0.203416 0.052083 0.000000 0.000000 -1.000000 108 155 209 255
0.692646 0.175204 0.052084 0.000000 -0.000000 -1.000000 108 155 209 255
0.514458 0.344165 0.052084 -0.000000 -0.000000 1.000000 108 155 209 255
0.367490 0.623584 0.052084 -0.000000 0.000000 1.000000 108 155 209 255
0.443000 0.118770 0.052084 -0.000000 0.000000 1.000000 108 155 209 255
0.068654 0.690493 0.052084 -0.000000 0.000000 1.000000 108 155 209 255
0.554207 0.314746 0.052084 0.000001 0.000001 -1.000000 108 155 209 255
0.672769 0.199860 0.052084 -0.000000 -0.000000 1.000000 108 155 209 255
0.068654 0.690493 0.052084 -0.000000 0.000000 1.000000 108 155 209 255
-0.307237 0.351324 0.052084 -0.000000 -0.000000 1.000000 108 155 209 255
0.369993 0.143069 0.052084 -0.000000 0.000000 1.000000 108 155 209 255
0.248397 0.286564 0.052084 -0.000000 -0.000000 1.000000 108 155 209 255
0.069747 0.090748 0.052084 -0.000000 0.000000 1.000000 108 155 209 255
0.621437 0.255399 0.052084 -0.000000 0.000000 1.000000 108 155 209 255
-0.096529 0.190465 0.052084 -0.000000 0.000000 1.000000 108 155 209 255
0.335013 0.185501 0.052084 -0.000000 0.000000 1.000000 108 155 209 255
-0.349287 0.335963 0.052084 -0.000000 -0.000000 1.000000 108 155 209 255
-0.449517 0.461184 0.041667 -0.000000 0.000000 1.000000 85 126 173 255
-0.604826 -0.209145 0.041667 -0.000000 0.000000 1.000000 85 126 173 255
0.567662 -0.128533 0.041667 -0.000000 0.000000 1.000000 85 126 173 255
0.662545 -0.295349 0.041667 -0.000000 0.000000 1.000000 85 126 173 255
0.713271 -0.275464 0.041667 -0.000000 0.000000 1.000000 85 126 173 255
0.720596 -0.236661 0.041667 -0.000000 0.000000 1.000000 85 126 173 255
0.495323 0.511742 0.041667 -0.000000 -0.000000 1.000000 85 126 173 255
-0.422879 0.487774 0.041667 -0.000000 -0.000000 1.000000 85 126 173 255
0.567662 -0.128533 0.041667 -0.000000 -0.000000 1.000000 85 126 173 255
-0.704280 -0.316728 0.041667 -0.000000 -0.000000 1.000000 85 126 173 255
-0.667378 -0.335033 0.041667 -0.000000 -0.000000 1.000000 85 126 173 255
-0.647048 -0.294119 0.041667 -0.000000 -0.000000 1.000000 85 126 173 255
0.662545 -0.295349 0.041667 -0.000000 -0.000000 1.000000 85 126 173 255
0.686266 -0.337053 0.041667 -0.000000 -0.000000 1.000000 85 126 173 255
0.706518 -0.307827 0.041667 -0.000000 -0.000000 1.000000 85 126 173 255
-0.422879 0.487774 0.041667 -0.000000 0.000000 1.000000 85 126 173 255
-0.449517 0.461184 0.041667 -0.000000 0.000000 1.000000 85 126 173 255
0.567662 -0.128533 0.041667 -0.000000 0.000000 1.000000 85 126 173 255
0.662545 -0.295349 0.041667 -0.000000 -0.000000 1.000000 85 126 173 255
0.706518 -0.307827 0.041667 -0.000000 -0.000000 1.000000 85 126 173 255
0.713271 -0.275464 0.041667 -0.000000 -0.000000 1.000000 85 126 173 255
-0.723020 0.188170 0.041667 -0.000000 0.000000 1.000000 85 126 173 255
-0.736899 0.137767 0.041667 -0.000000 0.000000 1.000000 85 126 173 255
-0.699008 0.212138 0.041667 -0.000000 0.000000 1.000000 85 126 173 255
0.631708 -0.241134 0.041667 -0.000000 -0.000000 1.000000 85 126 173 255
0.662545 -0.295349 0.041667 -0.000000 -0.000000 1.000000 85 126 173 255
0.720596 -0.236661 0.041667 -0.000000 -0.000000 1.000000 85 126 173 255
-0.722999 -0.222468 0.041667 -0.000000 0.000000 1.000000 85 126 173 255
-0.626719 -0.253206 0.041667 -0.000000 0.000000 1.000000 85 126 173 255
-0.604826 -0.209145 0.041667 -0.000000 0.000000 1.000000 85 126 173 255
-0.638980 0.272059 0.041667 -0.000000 -0.000000 1.000000 85 126 173 255
-0.744558 0.081288 0.041667 -0.000000 -0.000000 1.000000 85 126 173 255
-0.604826 -0.209145 0.041667 -0.000000 -0.000000 1.000000 85 126 173 255
0.615845 -0.213244 0.041667 -0.000000 0.000000 1.000000 85 126 173 255
0.720596 -0.236661 0.041667 -0.000000 -0.000000 1.000000 85 126 173 255
0.727885 -0.192671 0.041667 -0.000000 -0.000000 1.000000 85 126 173 255
0.587676 -0.163721 0.041667 -0.000000 -0.000000 1.000000 85 126 173 255
0.615845 -0.213244 0.041667 -0.000000 -0.000000 1.000000 85 126 173 255
0.727885 -0.192671 0.041667 -0.000000 -0.000000 1.000000 85 126 173 255
0.739928 -0.094145 0.041667 -0.000000 0.000000 1.000000 85 126 173 255
0.587676 -0.163721 0.041667 -0.000000 0.000000 1.000000 85 126 173 255
0.734531 -0.144748 0.041667 -0.000000 0.000000 1.000000 85 126 173 255
0.743468 -0.042117 0.041667 -0.000000 -0.000000 1.000000 85 126 173 255
0.742551 0.061200 0.041667 -0.000000 -0.000000 1.000000 85 126 173 255
0.567662 -0.128533 0.041667 -0.000000 -0.000000 1.000000 85 126 173 255
-0.713405 -0.273537 0.041667 -0.000000 0.000000 1.000000 85 126 173 255
-0.704280 -0.316728 0.041667 -0.000000 0.000000 1.000000 85 126 173 255
-0.647048 -0.294119 0.041667 -0.000000 0.000000 1.000000 85 126 173 255
-0.713405 -0.273537 0.041667 -0.000000 0.000000 1.000000 85 126 173 255
-0.626719 -0.253206 0.041667 -0.000000 -0.000000 1.000000 85 126 173 255
-0.722999 -0.222468 0.041667 -0.000000 0.000000 1.000000 85 126 173 255
-0.604826 -0.209145 0.041667 -0.000000 0.000000 1.000000 85 126 173 255
-0.732106 -0.165513 0.041667 -0.000000 0.000000 1.000000 85 126 173 255
-0.722999 -0.222468 0.041667 -0.000000 0.000000 1.000000 85 126 173 255
-0.736899 0.137767 0.041667 -0.000000 -0.000000 1.000000 85 126 173 255
-0.672371 0.238728 0.041667 -0.000000 0.000000 1.000000 85 126 173 255
-0.699008 0.212138 0.041667 -0.000001 0.000000 1.000000 85 126 173 255
-0.638980 0.272059 0.041667 -0.000000 0.000000 1.000000 85 126 173 255
-0.560944 0.349956 0.041667 -0.000000 0.000000 1.000000 85 126 173 255
-0.601088 0.309884 0.041667 0.006741 -0.006753 0.999955 85 126 173 255
-0.560944 0.349956 0.041667 -0.000000 0.000000 1.000000 85 126 173 255
-0.482907 0.427853 0.041667 -0.000000 0.000000 1.000000 85 126 173 255
-0.520800 0.390028 0.041667 0.033120 -0.033179 0.998901 85 126 173 255
-0.732106 -0.165513 0.041667 -0.000000 -0.000000 1.000000 85 126 173 255
-0.745039 -0.041922 0.041667 -0.000000 -0.000000 1.000000 85 126 173 255
-0.739772 -0.104667 0.041667 0.000001 0.000000 1.000000 85 126 173 255
-0.745039 -0.041922 0.041667 -0.000000 0.000000 1.000000 85 126 173 255
-0.744558 0.081288 0.041667 -0.000000 0.000000 1.000000 85 126 173 255
-0.746953 0.020727 0.041667 0.000000 0.000000 1.000000 85 126 173 255
0.567662 -0.128533 0.041667 -0.000000 -0.000000 1.000000 85 126 173 255
0.736881 0.109981 0.041667 -0.000000 -0.000000 1.000000 85 126 173 255
0.495323 0.511742 0.041667 -0.000000 -0.000000 1.000000 85 126 173 255
0.567662 -0.128533 0.041667 -0.000000 0.000000 1.000000 85 126 173 255
0.739928 -0.094145 0.041667 -0.000000 0.000000 1.000000 85 126 173 255
0.743468 -0.042117 0.041667 -0.000000 0.000000 1.000000 85 126 173 255
-0.704280 -0.316728 0.041667 -0.000000 0.000000 1.000000 85 126 173 255
-0.683016 -0.366505 0.041667 -0.000000 0.000000 1.000000 85 126 173 255
-0.667378 -0.335033 0.041667 -0.000000 0.000000 1.000000 85 126 173 255
0.587676 -0.163721 0.041667 -0.000000 -0.000000 1.000000 85 126 173 255
0.727885 -0.192671 0.041667 -0.000000 -0.000000 1.000000 85 126 173 255
0.734531 -0.144748 0.041667 -0.000000 -0.000000 1.000000 85 126 173 255
-0.482907 0.427853 0.041667 -0.000000 0.000000 1.000000 85 126 173 255
-0.398868 0.511742 0.041667 -0.000000 -0.000000 1.000000 85 126 173 255
-0.672371 0.238728 0.041667 -0.000000 -0.000000 1.000000 85 126 173 255
0.631708 -0.241134 0.041667 -0.000000 0.000000 1.000000 85 126 173 255
0.567662 -0.128533 0.041667 -0.000000 0.000000 1.000000 85 126 173 255
0.744545 0.010082 0.041667 -0.000002 -0.000000 1.000000 85 126 173 255
-0.647048 -0.294119 0.041667 -0.000000 -0.000000 1.000000 85 126 173 255
-0.744558 0.081288 0.041667 -0.000000 -0.000000 1.000000 85 126 173 255
-0.604826 -0.209145 0.041667 -0.000000 0.000000 1.000000 85 126 173 255
-0.604826 -0.209145 0.041667 -0.000000 0.000000 1.000000 85 126 173 255
-0.604826 -0.209145 0.041667 -0.000000 -0.000000 1.000000 85 126 173 255
-0.604826 -0.209145 0.041667 -0.000000 0.000000 1.000000 85 126 173 255
0.742551 0.061200 0.041667 -0.000000 -0.000000 1.000000 85 126 173 255
0.997456 -0.416526 0.031251 -0.000000 -0.000000 1.000000 53 76 109 255
0.416825 0.997417 0.031250 -0.000000 0.000000 1.000000 53 76 109 255
0.410588 -0.999617 0.031250 -0.000000 -0.000000 1.000000 53 76 109 255
-0.410548 1.000000 0.031250 -0.000000 -0.000000 1.000000 53 76 109 255
0.410588 -0.999617 0.031250 -0.000000 -0.000000 1.000000 53 76 109 255
0.416825 0.997417 0.031250 -0.000000 -0.000000 1.000000 53 76 109 255
-0.997416 0.416908 0.031250 -0.000000 -0.000000 1.000000 53 76 109 255
-0.416785 -0.997034 0.031250 -0.000000 0.000000 1.000000 53 76 109 255
-0.410548 1.000000 0.031250 -0.000000 -0.000000 1.000000 53 76 109 255
1.000040 0.410672 0.031251 -0.000000 0.000000 1.000000 53 76 109 255
-0.416785 -0.997034 0.031250 -0.000000 -0.000000 1.000000 53 76 109 255
-1.000000 -0.410290 0.031250 -0.000000 0.000000 1.000000 53 76 109 255
3 0 1 2
3 3 4 5
3 6 7 8
3 9 10 11
3 12 13 14
3 15 16 17
3 18 19 20
3 21 22 23
3 24 25 26
3 27 28 29
3 30 31 32
3 33 34 35
3 36 37 38
3 39 40 41
3 42 43 44
3 45 46 47
3 48 49 50
3 51 52 53
3 54 55 56
3 57 58 59
3 60 61 62
3 63 64 65
3 66 67 68
3 69 70 71
3 72 73 74
3 75 76 77
3 78 79 80
3 81 82 83
3 84 85 86
3 87 88 89
3 90 91 92
3 93 94 95
3 96 97 98
3 99 100 101
3 102 103 104
3 105 106 107
3 108 109 110
3 0 111 1
3 3 112 4
3 6 113 7
3 9 114 10
3 21 115 22
3 24 116 25
3 27 117 28
3 33 118 34
3 36 119 37
3 39 120 40
3 45 121 46
3 48 122 49
3 51 123 52
3 54 124 55
3 57 125 58
3 60 126 61
3 63 127 64
3 66 128 67
3 72 129 73
3 78 130 79
3 81 131 82
3 87 132 88
3 90 133 91
3 96 134 97
3 99 135 100
3 102 136 103
3 108 137 109
3 138 139 140
3 141 142 143
3 144 145 146
3 147 148 149
3 150 151 152
3 153 154 155
3 156 157 158
3 159 160 161
3 162 163 164
3 165 166 167
3 168 169 170
3 171 172 173
3 174 175 176
3 177 178 179
3 180 181 182
3 183 184 185
3 186 187 188
3 189 190 191
3 192 193 194
3 195 196 197
3 198 199 200
3 201 202 203
3 204 205 206
3 207 208 209
3 210 211 212
3 213 214 215
3 216 217 218
3 219 220 221
3 222 223 224
3 225 226 227
3 141 228 142
3 144 229 145
3 147 230 148
3 150 231 151
3 159 232 160
3 162 233 163
3 165 234 166
3 171 235 172
3 177 236 178
3 183 237 184
3 186 238 187
3 189 239 190
3 195 240 196
3 198 241 199
3 201 242 202
3 204 243 205
3 207 244 208
3 210 245 211
3 213 246 214
3 219 247 220
3 222 248 223
3 225 249 226
3 250 251 252
3 253 254 255
3 256 257 258
3 259 260 261
3 262 263 264
3 265 266 267
3 268 269 270
3 271 272 273
3 274 275 276
3 277 278 279
3 280 281 282
3 283 284 285
3 286 287 288
3 289 290 291
3 292 293 294
3 295 296 297
3 298 299 300
3 301 302 303
3 304 305 306
3 307 308 309
3 310 311 312
3 313 314 315
3 316 317 318
3 319 320 321
3 322 323 324
3 325 326 327
3 328 329 330
3 250 331 251
3 256 332 257
3 280 333 281
3 283 334 284
3 289 335 290
3 292 336 293
3 298 337 299
3 304 338 305
3 307 339 308
3 310 340 311
3 313 341 314
3 316 342 317
3 319 343 320
3 344 345 346
3 347 348 349
3 350 351 352
3 344 353 345
3 347 354 348
3 350 355 351
