ply
format ascii 1.0
comment Created by Blender 3.6.0 - www.blender.org
element vertex 525
property float x
property float y
property float z
property float nx
property float ny
property float nz
property uchar red
property uchar green
property uchar blue
property uchar alpha
element face 231
property list uchar uint vertex_indices
end_header
-0.117637 -0.354164 0.062500 -0.000000 -0.000000 1.000000 113 162 219 255
-0.083936 -0.388924 0.062500 -0.000000 -0.000000 1.000000 113 162 219 255
-0.042964 -0.335220 0.062500 -0.000000 -0.000000 1.000000 113 162 219 255
0.061294 -0.091984 0.062500 -0.000000 -0.000000 1.000000 113 162 219 255
0.020381 0.083551 0.062500 -0.000000 -0.000000 1.000000 113 162 219 255
-0.012673 -0.074492 0.062500 -0.000000 -0.000000 1.000000 113 162 219 255
0.248466 -0.266389 0.062500 -0.000000 0.000000 1.000000 113 162 219 255
0.295808 -0.331074 0.062500 -0.000000 0.000000 1.000000 113 162 219 255
0.372762 -0.243384 0.062500 -0.000000 0.000000 1.000000 113 162 219 255
-0.200147 -0.249695 0.062500 -0.000000 0.000000 1.000000 113 162 219 255
-0.157205 -0.305308 0.062500 -0.000000 0.000000 1.000000 113 162 219 255
-0.057662 -0.240192 0.062500 -0.000000 0.000000 1.000000 113 162 219 255
-0.719940 -0.093593 0.062500 -0.000000 -0.000000 1.000000 113 162 219 255
-0.606293 -0.187778 0.062500 -0.000000 -0.000000 1.000000 113 162 219 255
-0.682758 -0.041059 0.062500 -0.000000 -0.000000 1.000000 113 162 219 255
-0.355785 -0.106475 0.062500 -0.000000 -0.000000 1.000000 113 162 219 255
-0.387844 0.107420 0.062500 -0.000000 -0.000000 1.000000 113 162 219 255
-0.458227 0.100715 0.062500 -0.000000 -0.000000 1.000000 113 162 219 255
0.333889 -0.381988 0.062500 -0.000000 0.000000 1.000000 113 162 219 255
0.378100 -0.401594 0.062500 -0.000000 0.000000 1.000000 113 162 219 255
0.382145 -0.349830 0.062500 -0.000000 0.000000 1.000000 113 162 219 255
0.192905 -0.198160 0.062500 -0.000000 0.000000 1.000000 113 162 219 255
0.372762 -0.243384 0.062500 -0.000000 0.000000 1.000000 113 162 219 255
0.348907 -0.072030 0.062500 -0.000000 -0.000000 1.000000 113 162 219 255
0.554176 -0.103006 0.062501 -0.000000 -0.000000 1.000000 113 162 219 255
0.668330 -0.046730 0.062501 -0.000000 -0.000000 1.000000 113 162 219 255
0.635428 -0.002904 0.062501 -0.000000 -0.000000 1.000000 113 162 219 255
0.367822 0.063864 0.062500 -0.000000 -0.000000 1.000000 113 162 219 255
0.348907 -0.072030 0.062500 -0.000000 -0.000000 1.000000 113 162 219 255
0.402920 -0.069738 0.062500 -0.000000 -0.000000 1.000000 113 162 219 255
-0.012673 -0.074492 0.062500 -0.000000 -0.000000 1.000000 113 162 219 255
0.020381 0.083551 0.062500 -0.000000 -0.000000 1.000000 113 162 219 255
-0.056229 0.072052 0.062500 -0.000000 -0.000000 1.000000 113 162 219 255
-0.157205 -0.305308 0.062500 -0.000000 0.000000 1.000000 113 162 219 255
-0.042964 -0.335220 0.062500 -0.000000 0.000000 1.000000 113 162 219 255
-0.057662 -0.240192 0.062500 -0.000000 0.000000 1.000000 113 162 219 255
-0.688760 -0.220643 0.062500 -0.000000 0.000000 1.000000 113 162 219 255
-0.719940 -0.093593 0.062500 -0.000000 0.000000 1.000000 113 162 219 255
-0.747663 -0.148306 0.062500 -0.000000 0.000000 1.000000 113 162 219 255
0.598029 0.031968 0.062501 -0.000000 0.000000 1.000000 113 162 219 255
0.556826 0.057654 0.062501 -0.000000 0.000000 1.000000 113 162 219 255
0.489381 -0.079118 0.062500 -0.000000 0.000000 1.000000 113 162 219 255
-0.468938 -0.137624 0.062500 -0.000000 -0.000000 1.000000 113 162 219 255
-0.458227 0.100715 0.062500 -0.000000 -0.000000 1.000000 113 162 219 255
-0.523850 0.080185 0.062500 -0.000000 -0.000000 1.000000 113 162 219 255
0.554176 -0.103006 0.062501 -0.000000 0.000000 1.000000 113 162 219 255
0.598029 0.031968 0.062501 -0.000000 0.000000 1.000000 113 162 219 255
0.489381 -0.079118 0.062500 -0.000000 0.000000 1.000000 113 162 219 255
-0.637055 0.006969 0.062500 -0.000000 -0.000000 1.000000 113 162 219 255
-0.560637 -0.170340 0.062500 -0.000000 -0.000000 1.000000 113 162 219 255
-0.514289 -0.153343 0.062500 -0.000000 -0.000000 1.000000 113 162 219 255
-0.012673 -0.074492 0.062500 -0.000000 0.000000 1.000000 113 162 219 255
-0.126397 0.042921 0.062500 -0.000000 0.000000 1.000000 113 162 219 255
-0.090692 -0.094367 0.062500 -0.000000 0.000000 1.000000 113 162 219 255
0.652786 -0.174558 0.062501 -0.000000 -0.000000 1.000000 113 162 219 255
0.696041 -0.099275 0.062501 -0.000000 -0.000000 1.000000 113 162 219 255
0.605810 -0.136465 0.062501 -0.000000 -0.000000 1.000000 113 162 219 255
0.417316 0.077259 0.062500 -0.000000 -0.000000 1.000000 113 162 219 255
0.402920 -0.069738 0.062500 -0.000000 -0.000000 1.000000 113 162 219 255
0.465776 0.080533 0.062500 -0.000000 -0.000000 1.000000 113 162 219 255
-0.200147 -0.249695 0.062500 -0.000000 -0.000000 1.000000 113 162 219 255
-0.090692 -0.094367 0.062500 -0.000000 -0.000000 1.000000 113 162 219 255
-0.243969 -0.194666 0.062500 -0.000000 -0.000000 1.000000 113 162 219 255
0.207935 0.044628 0.062500 -0.000000 -0.000000 1.000000 113 162 219 255
0.061294 -0.091984 0.062500 -0.000000 -0.000000 1.000000 113 162 219 255
0.130167 -0.136616 0.062500 -0.000000 -0.000000 1.000000 113 162 219 255
-0.236558 0.070038 0.062500 -0.000000 -0.000000 1.000000 113 162 219 255
-0.313641 0.097971 0.062500 -0.000000 -0.000000 1.000000 113 162 219 255
-0.355785 -0.106475 0.062500 -0.000000 -0.000000 1.000000 113 162 219 255
-0.286178 -0.147559 0.062500 -0.000000 0.000000 1.000000 113 162 219 255
-0.090692 -0.094367 0.062500 -0.000000 0.000000 1.000000 113 162 219 255
-0.126397 0.042921 0.062500 -0.000000 0.000000 1.000000 113 162 219 255
-0.764986 -0.202868 0.062500 -0.000000 -0.000000 1.000000 113 162 219 255
-0.688760 -0.220643 0.062500 -0.000000 -0.000000 1.000000 113 162 219 255
-0.747663 -0.148306 0.062500 -0.000000 -0.000000 1.000000 113 162 219 255
0.268507 0.005779 0.062500 -0.000000 -0.000000 1.000000 113 162 219 255
0.348907 -0.072030 0.062500 -0.000000 -0.000000 1.000000 113 162 219 255
0.317988 0.040115 0.062500 -0.000000 -0.000000 1.000000 113 162 219 255
0.061294 -0.091984 0.062500 -0.000000 -0.000000 1.000000 113 162 219 255
0.098533 0.078861 0.062500 -0.000000 -0.000000 1.000000 113 162 219 255
0.020381 0.083551 0.062500 -0.000000 -0.000000 1.000000 113 162 219 255
-0.286178 -0.147559 0.062500 -0.000000 0.000000 1.000000 113 162 219 255
-0.236558 0.070038 0.062500 -0.000000 0.000000 1.000000 113 162 219 255
-0.355785 -0.106475 0.062500 -0.000000 0.000000 1.000000 113 162 219 255
0.489381 -0.079118 0.062500 -0.000000 -0.000000 1.000000 113 162 219 255
0.465776 0.080533 0.062500 -0.000000 -0.000000 1.000000 113 162 219 255
0.402920 -0.069738 0.062500 -0.000000 -0.000000 1.000000 113 162 219 255
0.668330 -0.046730 0.062501 -0.000000 -0.000000 1.000000 113 162 219 255
0.605810 -0.136465 0.062501 -0.000000 -0.000000 1.000000 113 162 219 255
0.696041 -0.099275 0.062501 -0.000000 -0.000000 1.000000 113 162 219 255
0.130167 -0.136616 0.062500 -0.000000 -0.000000 1.000000 113 162 219 255
0.268507 0.005779 0.062500 -0.000000 -0.000000 1.000000 113 162 219 255
0.207935 0.044628 0.062500 -0.000000 -0.000000 1.000000 113 162 219 255
0.402920 -0.069738 0.062500 -0.000000 -0.000000 1.000000 113 162 219 255
0.417316 0.077259 0.062500 -0.000000 -0.000000 1.000000 113 162 219 255
0.367822 0.063864 0.062500 -0.000000 -0.000000 1.000000 113 162 219 255
-0.514289 -0.153343 0.062500 -0.000000 0.000000 1.000000 113 162 219 255
-0.583772 0.048160 0.062500 -0.000000 0.000000 1.000000 113 162 219 255
-0.637055 0.006969 0.062500 -0.000000 0.000000 1.000000 113 162 219 255
0.556826 0.057654 0.062501 -0.000000 -0.000000 1.000000 113 162 219 255
0.465776 0.080533 0.062500 -0.000000 -0.000000 1.000000 113 162 219 255
0.489381 -0.079118 0.062500 -0.000000 -0.000000 1.000000 113 162 219 255
0.207935 0.044628 0.062500 -0.000000 -0.000000 1.000000 113 162 219 255
0.098533 0.078861 0.062500 -0.000000 -0.000000 1.000000 113 162 219 255
0.061294 -0.091984 0.062500 -0.000000 -0.000000 1.000000 113 162 219 255
-0.682758 -0.041059 0.062500 -0.000000 -0.000000 1.000000 113 162 219 255
-0.560637 -0.170340 0.062500 -0.000000 -0.000000 1.000000 113 162 219 255
-0.637055 0.006969 0.062500 -0.000000 -0.000000 1.000000 113 162 219 255
0.652786 -0.174558 0.062501 -0.000000 0.000000 1.000000 113 162 219 255
0.703609 -0.212350 0.062501 -0.000000 0.000000 1.000000 113 162 219 255
0.717869 -0.160306 0.062501 -0.000000 0.000000 1.000000 113 162 219 255
0.295808 -0.331074 0.062500 -0.000000 -0.000000 1.000000 113 162 219 255
0.382145 -0.349830 0.062500 -0.000000 -0.000000 1.000000 113 162 219 255
0.372762 -0.243384 0.062500 -0.000000 -0.000000 1.000000 113 162 219 255
0.192905 -0.198160 0.062500 -0.000000 0.000000 1.000000 113 162 219 255
0.268507 0.005779 0.062500 -0.000000 0.000000 1.000000 113 162 219 255
0.130167 -0.136616 0.062500 -0.000000 0.000000 1.000000 113 162 219 255
-0.583772 0.048160 0.062500 -0.000000 -0.000000 1.000000 113 162 219 255
-0.468938 -0.137624 0.062500 -0.000000 -0.000000 1.000000 113 162 219 255
-0.523850 0.080185 0.062500 -0.000000 -0.000000 1.000000 113 162 219 255
-0.313641 0.097971 0.062500 -0.000000 -0.000000 1.000000 113 162 219 255
-0.387844 0.107420 0.062500 -0.000000 -0.000000 1.000000 113 162 219 255
-0.355785 -0.106475 0.062500 -0.000000 -0.000000 1.000000 113 162 219 255
0.248466 -0.266389 0.062500 -0.000000 0.000000 1.000000 113 162 219 255
0.605810 -0.136465 0.062501 -0.000000 -0.000000 1.000000 113 162 219 255
0.317988 0.040115 0.062500 -0.000000 -0.000000 1.000000 113 162 219 255
-0.117637 -0.354164 0.062500 -0.000000 0.000000 1.000000 113 162 219 255
-0.606293 -0.187778 0.062500 -0.000000 0.000000 1.000000 113 162 219 255
-0.355785 -0.106475 0.062500 -0.000000 -0.000000 1.000000 113 162 219 255
0.635428 -0.002904 0.062501 -0.000000 0.000000 1.000000 113 162 219 255
-0.056229 0.072052 0.062500 -0.000000 0.000000 1.000000 113 162 219 255
0.717869 -0.160306 0.062501 -0.000000 -0.000000 1.000000 113 162 219 255
-0.057662 -0.240192 0.062500 -0.000000 -0.000000 1.000000 113 162 219 255
-0.243969 -0.194666 0.062500 -0.000000 0.000000 1.000000 113 162 219 255
-0.764986 -0.252387 0.062500 -0.000000 -0.000000 1.000000 113 162 219 255
-0.126397 0.042921 0.062500 -0.000000 0.000000 1.000000 113 162 219 255
-0.468938 -0.137624 0.062500 -0.000000 -0.000000 1.000000 113 162 219 255
-0.606293 -0.187778 0.062500 -0.000000 -0.000000 1.000000 113 162 219 255
0.333889 -0.381988 0.062500 -0.000000 -0.000000 1.000000 113 162 219 255
0.348907 -0.072030 0.062500 -0.000000 0.000000 1.000000 113 162 219 255
-0.644399 0.395539 0.052083 -0.000000 0.000000 1.000000 113 162 219 255
-0.535410 0.338938 0.052083 -0.000000 0.000000 1.000000 113 162 219 255
-0.532166 0.522098 0.052083 -0.000000 0.000000 1.000000 113 162 219 255
-0.535410 0.338938 0.052083 -0.000000 0.000000 1.000000 113 162 219 255
-0.434054 0.378825 0.052084 -0.000000 0.000000 1.000000 113 162 219 255
-0.532166 0.522098 0.052083 -0.000000 0.000000 1.000000 113 162 219 255
0.325293 0.185792 0.052084 -0.000000 -0.000000 1.000000 113 162 219 255
0.366922 0.243513 0.052084 -0.000000 -0.000000 1.000000 113 162 219 255
0.252131 0.214334 0.052084 -0.000000 -0.000000 1.000000 113 162 219 255
-0.434054 0.378825 0.052084 -0.000000 0.000000 1.000000 113 162 219 255
-0.385926 0.390450 0.052084 -0.000000 0.000000 1.000000 113 162 219 255
-0.532166 0.522098 0.052083 -0.000000 0.000000 1.000000 113 162 219 255
0.683738 0.232127 0.052084 -0.000000 -0.000000 1.000000 113 162 219 255
0.726171 0.179883 0.052084 -0.000000 -0.000000 1.000000 113 162 219 255
0.676844 0.339173 0.052084 -0.000000 -0.000000 1.000000 113 162 219 255
0.053046 0.734408 0.052084 -0.000000 -0.000000 1.000000 113 162 219 255
0.067871 0.443740 0.052084 -0.000000 -0.000000 1.000000 113 162 219 255
0.205796 0.714051 0.052084 -0.000000 -0.000000 1.000000 113 162 219 255
0.168686 0.292613 0.052084 -0.000000 0.000000 1.000000 113 162 219 255
0.210298 0.247465 0.052084 -0.000000 0.000000 1.000000 113 162 219 255
0.316709 0.353868 0.052084 -0.000000 0.000000 1.000000 113 162 219 255
-0.302578 0.328130 0.052084 -0.000000 -0.000000 1.000000 113 162 219 255
-0.225415 0.480245 0.052084 -0.000000 -0.000000 1.000000 113 162 219 255
-0.385926 0.390450 0.052084 -0.000000 -0.000000 1.000000 113 162 219 255
-0.165911 0.494929 0.052084 -0.000000 0.000000 1.000000 113 162 219 255
-0.102649 0.725400 0.052084 -0.000000 0.000000 1.000000 113 162 219 255
-0.255766 0.687019 0.052084 -0.000000 0.000000 1.000000 113 162 219 255
-0.102649 0.725400 0.052084 -0.000000 0.000000 1.000000 113 162 219 255
-0.165911 0.494929 0.052084 -0.000000 0.000000 1.000000 113 162 219 255
-0.061395 0.484253 0.052084 -0.000000 0.000000 1.000000 113 162 219 255
-0.385926 0.390450 0.052084 -0.000000 0.000000 1.000000 113 162 219 255
-0.225415 0.480245 0.052084 -0.000000 0.000000 1.000000 113 162 219 255
-0.400780 0.619254 0.052084 -0.000000 0.000000 1.000000 113 162 219 255
0.563962 0.353752 0.052084 -0.000000 0.000000 1.000000 113 162 219 255
0.676844 0.339173 0.052084 -0.000000 0.000000 1.000000 113 162 219 255
0.591123 0.476891 0.052084 -0.000000 0.000000 1.000000 113 162 219 255
0.067871 0.443740 0.052084 -0.000000 0.000000 1.000000 113 162 219 255
0.130084 0.349364 0.052084 -0.000000 0.000000 1.000000 113 162 219 255
0.259842 0.431856 0.052084 -0.000000 0.000000 1.000000 113 162 219 255
0.514625 0.392865 0.052084 -0.000000 0.000000 1.000000 113 162 219 255
0.563962 0.353752 0.052084 -0.000000 0.000000 1.000000 113 162 219 255
0.591123 0.476891 0.052084 -0.000000 0.000000 1.000000 113 162 219 255
0.350075 0.664340 0.052084 -0.000000 -0.000000 1.000000 113 162 219 255
0.307249 0.455739 0.052084 -0.000000 0.000000 1.000000 113 162 219 255
0.357819 0.460539 0.052084 -0.000000 0.000000 1.000000 113 162 219 255
-0.644399 0.395539 0.052083 -0.000000 -0.000000 1.000000 113 162 219 255
-0.653708 0.281822 0.052083 -0.000000 -0.000000 1.000000 113 162 219 255
-0.535410 0.338938 0.052083 -0.000000 -0.000000 1.000000 113 162 219 255
-0.644399 0.395539 0.052083 -0.000000 -0.000000 1.000000 113 162 219 255
-0.731956 0.239569 0.052083 -0.000000 -0.000000 1.000000 113 162 219 255
-0.653708 0.281822 0.052083 -0.000000 -0.000000 1.000000 113 162 219 255
-0.400780 0.619254 0.052084 -0.000000 0.000000 1.000000 113 162 219 255
-0.225415 0.480245 0.052084 -0.000000 0.000000 1.000000 113 162 219 255
-0.255766 0.687019 0.052084 -0.000000 0.000000 1.000000 113 162 219 255
-0.532166 0.522098 0.052083 -0.000000 0.000000 1.000000 113 162 219 255
-0.385926 0.390450 0.052084 -0.000000 0.000000 1.000000 113 162 219 255
-0.400780 0.619254 0.052084 -0.000000 0.000000 1.000000 113 162 219 255
0.351472 0.291226 0.052084 -0.000000 0.000000 1.000000 113 162 219 255
0.210298 0.247465 0.052084 -0.000000 0.000000 1.000000 113 162 219 255
0.252131 0.214334 0.052084 -0.000000 0.000000 1.000000 113 162 219 255
-0.131866 0.212484 0.052084 -0.000000 0.000000 1.000000 113 162 219 255
-0.107614 0.290231 0.052084 -0.000000 0.000000 1.000000 113 162 219 255
-0.203057 0.246631 0.052084 -0.000000 0.000000 1.000000 113 162 219 255
0.410165 0.449500 0.052084 -0.000000 0.000000 1.000000 113 162 219 255
0.462896 0.425861 0.052084 -0.000000 0.000000 1.000000 113 162 219 255
0.480359 0.585284 0.052084 -0.000000 0.000000 1.000000 113 162 219 255
-0.102649 0.725400 0.052084 -0.000000 0.000000 1.000000 113 162 219 255
-0.061395 0.484253 0.052084 -0.000000 0.000000 1.000000 113 162 219 255
0.053046 0.734408 0.052084 -0.000000 0.000000 1.000000 113 162 219 255
0.462896 0.425861 0.052084 -0.000000 -0.000000 1.000000 113 162 219 255
0.591123 0.476891 0.052084 -0.000000 0.000000 1.000000 113 162 219 255
0.480359 0.585284 0.052084 -0.000000 0.000000 1.000000 113 162 219 255
0.205796 0.714051 0.052084 -0.000000 0.000000 1.000000 113 162 219 255
0.259842 0.431856 0.052084 -0.000000 0.000000 1.000000 113 162 219 255
0.307249 0.455739 0.052084 -0.000000 0.000000 1.000000 113 162 219 255
-0.061395 0.484253 0.052084 -0.000000 -0.000000 1.000000 113 162 219 255
0.067871 0.443740 0.052084 -0.000000 -0.000000 1.000000 113 162 219 255
0.053046 0.734408 0.052084 -0.000000 -0.000000 1.000000 113 162 219 255
-0.132203 0.340819 0.052084 -0.000000 -0.000000 1.000000 113 162 219 255
-0.203057 0.246631 0.052084 -0.000000 0.000000 1.000000 113 162 219 255
-0.107614 0.290231 0.052084 -0.000000 -0.000000 1.000000 113 162 219 255
0.168686 0.292613 0.052084 -0.000000 -0.000000 1.000000 113 162 219 255
0.259842 0.431856 0.052084 -0.000000 -0.000000 1.000000 113 162 219 255
0.130084 0.349364 0.052084 -0.000000 -0.000000 1.000000 113 162 219 255
0.205796 0.714051 0.052084 -0.000000 0.000000 1.000000 113 162 219 255
0.067871 0.443740 0.052084 -0.000000 0.000000 1.000000 113 162 219 255
0.259842 0.431856 0.052084 -0.000000 0.000000 1.000000 113 162 219 255
-0.225415 0.480245 0.052084 -0.000000 0.000000 1.000000 113 162 219 255
-0.165911 0.494929 0.052084 -0.000000 0.000000 1.000000 113 162 219 255
-0.255766 0.687019 0.052084 -0.000000 0.000000 1.000000 113 162 219 255
-0.171125 0.404115 0.052084 -0.000000 0.000000 1.000000 113 162 219 255
-0.249794 0.281523 0.052084 -0.000000 0.000000 1.000000 113 162 219 255
-0.132203 0.340819 0.052084 -0.000000 0.000000 1.000000 113 162 219 255
0.357819 0.460539 0.052084 -0.000000 -0.000000 1.000000 113 162 219 255
0.480359 0.585284 0.052084 -0.000000 0.000000 1.000000 113 162 219 255
0.350075 0.664340 0.052084 -0.000000 0.000000 1.000000 113 162 219 255
0.366922 0.243513 0.052084 -0.000000 0.000000 1.000000 113 162 219 255
0.351472 0.291226 0.052084 -0.000000 0.000000 1.000000 113 162 219 255
0.252131 0.214334 0.052084 -0.000000 0.000000 1.000000 113 162 219 255
0.649907 0.270142 0.052084 -0.000000 -0.000000 1.000000 113 162 219 255
0.676844 0.339173 0.052084 -0.000000 -0.000000 1.000000 113 162 219 255
0.609519 0.311764 0.052084 -0.000000 -0.000000 1.000000 113 162 219 255
-0.171125 0.404115 0.052084 -0.000000 -0.000000 1.000000 113 162 219 255
0.609519 0.311764 0.052084 -0.000000 -0.000000 1.000000 113 162 219 255
0.205796 0.714051 0.052084 -0.000000 -0.000000 1.000000 113 162 219 255
0.316709 0.353868 0.052084 -0.000000 0.000000 1.000000 113 162 219 255
0.514625 0.392865 0.052084 -0.000000 -0.000000 1.000000 113 162 219 255
0.010402 0.466809 0.052084 0.000000 -0.000000 -1.000000 113 162 219 255
-0.249794 0.281523 0.052084 -0.000000 0.000000 1.000000 113 162 219 255
0.316709 0.353868 0.052084 -0.000000 0.000000 1.000000 113 162 219 255
-0.302578 0.328130 0.052084 -0.000000 0.000000 1.000000 113 162 219 255
0.410165 0.449500 0.052084 -0.000000 -0.000000 1.000000 113 162 219 255
0.683738 0.232127 0.052084 -0.000000 -0.000000 1.000000 113 162 219 255
0.259548 0.965746 0.031250 -0.000000 0.000000 1.000000 38 54 83 255
0.196025 -0.980229 0.031250 -0.000000 0.000000 1.000000 38 54 83 255
0.259548 -0.965363 0.031250 -0.000000 0.000000 1.000000 38 54 83 255
0.196025 -0.980229 0.031250 -0.000000 -0.000000 1.000000 38 54 83 255
0.066066 -0.997436 0.031250 -0.000000 -0.000000 1.000000 38 54 83 255
0.131466 -0.990947 0.031250 -0.000000 -0.000000 1.000000 38 54 83 255
-0.066027 -0.997436 0.031250 -0.000000 0.000000 1.000000 38 54 83 255
-0.195985 -0.980228 0.031250 -0.000000 0.000000 1.000000 38 54 83 255
-0.131427 -0.990946 0.031250 -0.000000 0.000000 1.000000 38 54 83 255
-0.066027 0.997819 0.031250 -0.000000 -0.000000 1.000000 38 54 83 255
-0.195985 0.980611 0.031250 -0.000000 -0.000000 1.000000 38 54 83 255
-0.066027 -0.997436 0.031250 -0.000000 0.000000 1.000000 38 54 83 255
0.608061 -0.793576 0.031251 -0.000001 0.000000 1.000000 38 54 83 255
0.499400 -0.866034 0.031250 -0.000000 0.000000 1.000000 38 54 83 255
0.554831 -0.831638 0.031251 -0.000000 -0.000000 1.000000 38 54 83 255
0.997858 -0.065841 0.031251 -0.000000 0.000000 1.000000 38 54 83 255
0.923917 -0.382419 0.031251 -0.000000 -0.000000 1.000000 38 54 83 255
0.946842 -0.321562 0.031251 -0.000000 -0.000000 1.000000 38 54 83 255
-0.499360 -0.866034 0.031250 -0.000000 0.000000 1.000000 38 54 83 255
-0.658856 0.752312 0.031250 -0.000000 0.000000 1.000000 38 54 83 255
-0.658856 -0.751930 0.031250 -0.000000 0.000000 1.000000 38 54 83 255
-0.980607 0.196155 0.031250 -0.000000 -0.000000 1.000000 38 54 83 255
-0.946802 0.321945 0.031250 -0.000000 0.000000 1.000000 38 54 83 255
-0.965739 0.259665 0.031250 -0.000001 0.000000 1.000000 38 54 83 255
0.897086 -0.441657 0.031251 -0.000000 0.000000 1.000000 38 54 83 255
0.923917 0.382801 0.031251 -0.000000 0.000000 1.000000 38 54 83 255
0.897086 0.442040 0.031251 -0.000000 0.000000 1.000000 38 54 83 255
0.897086 0.442040 0.031251 -0.000000 0.000000 1.000000 38 54 83 255
0.752300 0.658928 0.031251 -0.000000 0.000000 1.000000 38 54 83 255
0.707141 0.707162 0.031251 -0.000000 0.000000 1.000000 38 54 83 255
-0.997818 -0.065842 0.031250 -0.000000 -0.000000 1.000000 38 54 83 255
-0.946802 -0.321562 0.031250 -0.000000 -0.000000 1.000000 38 54 83 255
-1.000000 0.000191 0.031250 -0.000000 -0.000000 1.000000 38 54 83 255
-0.608022 0.793958 0.031250 -0.000001 0.000000 1.000000 38 54 83 255
-0.499360 0.866417 0.031250 -0.000000 0.000000 1.000000 38 54 83 255
-0.554792 0.832020 0.031250 -0.000000 -0.000000 1.000000 38 54 83 255
1.000040 0.000191 0.031251 -0.000000 0.000000 1.000000 38 54 83 255
0.923917 0.382801 0.031251 -0.000000 0.000000 1.000000 38 54 83 255
0.923917 -0.382419 0.031251 -0.000000 0.000000 1.000000 38 54 83 255
0.997858 -0.065841 0.031251 -0.000000 -0.000000 1.000000 38 54 83 255
0.980647 -0.195772 0.031251 -0.000000 -0.000000 1.000000 38 54 83 255
0.991367 -0.131227 0.031251 -0.000000 -0.000000 1.000000 38 54 83 255
-0.259508 0.965746 0.031250 -0.000000 0.000000 1.000000 38 54 83 255
-0.259508 -0.965363 0.031250 -0.000000 0.000000 1.000000 38 54 83 255
-0.195985 -0.980228 0.031250 -0.000000 0.000000 1.000000 38 54 83 255
-1.000000 0.000191 0.031250 -0.000000 0.000000 1.000000 38 54 83 255
-0.923878 -0.382419 0.031250 -0.000000 0.000000 1.000000 38 54 83 255
-0.923878 0.382801 0.031250 -0.000000 0.000000 1.000000 38 54 83 255
0.321841 0.946813 0.031250 -0.000000 0.000000 1.000000 38 54 83 255
0.259548 -0.965363 0.031250 -0.000000 0.000000 1.000000 38 54 83 255
0.321841 -0.946431 0.031250 -0.000000 0.000000 1.000000 38 54 83 255
-0.866389 -0.499084 0.031250 -0.000000 -0.000000 1.000000 38 54 83 255
-0.793915 -0.607722 0.031250 -0.000001 -0.000000 1.000000 38 54 83 255
-0.752260 -0.658546 0.031250 -0.000001 -0.000000 1.000000 38 54 83 255
0.707141 0.707162 0.031251 -0.000000 0.000000 1.000000 38 54 83 255
0.897086 -0.441657 0.031251 -0.000000 0.000000 1.000000 38 54 83 255
0.897086 0.442040 0.031251 -0.000000 0.000000 1.000000 38 54 83 255
0.499400 0.866417 0.031250 -0.000000 0.000000 1.000000 38 54 83 255
0.441962 -0.896686 0.031250 -0.000000 0.000000 1.000000 38 54 83 255
0.499400 -0.866034 0.031250 -0.000000 0.000000 1.000000 38 54 83 255
-0.991327 0.131610 0.031250 -0.000000 -0.000000 1.000000 38 54 83 255
-0.997818 0.066224 0.031250 -0.000000 -0.000000 1.000000 38 54 83 255
-0.980607 0.196155 0.031250 -0.000000 -0.000000 1.000000 38 54 83 255
0.991367 0.131610 0.031251 -0.000000 0.000000 1.000000 38 54 83 255
0.965778 0.259664 0.031251 -0.000000 0.000000 1.000000 38 54 83 255
0.997858 0.066224 0.031251 -0.000000 0.000000 1.000000 38 54 83 255
0.980647 -0.195772 0.031251 -0.000000 -0.000000 1.000000 38 54 83 255
0.946842 -0.321562 0.031251 -0.000000 0.000000 1.000000 38 54 83 255
0.965778 -0.259282 0.031251 -0.000001 0.000000 1.000000 38 54 83 255
0.946842 0.321945 0.031251 -0.000000 -0.000000 1.000000 38 54 83 255
0.997858 0.066224 0.031251 -0.000000 -0.000000 1.000000 38 54 83 255
0.965778 0.259664 0.031251 -0.000000 -0.000000 1.000000 38 54 83 255
-0.321802 0.946813 0.031250 -0.000000 0.000000 1.000000 38 54 83 255
-0.321802 -0.946430 0.031250 -0.000000 0.000000 1.000000 38 54 83 255
-0.259508 -0.965363 0.031250 -0.000000 0.000000 1.000000 38 54 83 255
-0.382671 -0.923511 0.031250 -0.000000 0.000000 1.000000 38 54 83 255
-0.499360 0.866417 0.031250 -0.000000 -0.000000 1.000000 38 54 83 255
-0.441922 -0.896685 0.031250 -0.000000 0.000000 1.000000 38 54 83 255
-0.752260 0.658928 0.031250 -0.000000 -0.000000 1.000000 38 54 83 255
-0.897047 0.442040 0.031250 -0.000000 -0.000000 1.000000 38 54 83 255
-0.707101 0.707162 0.031250 -0.000000 -0.000000 1.000000 38 54 83 255
0.499400 0.866417 0.031250 -0.000000 0.000000 1.000000 38 54 83 255
0.658896 -0.751930 0.031251 -0.000000 0.000000 1.000000 38 54 83 255
0.658896 0.752312 0.031251 -0.000000 0.000000 1.000000 38 54 83 255
0.897086 -0.441657 0.031251 -0.000000 -0.000000 1.000000 38 54 83 255
0.752300 -0.658546 0.031251 -0.000000 -0.000000 1.000000 38 54 83 255
0.866428 -0.499084 0.031251 -0.000000 -0.000000 1.000000 38 54 83 255
-0.923878 0.382801 0.031250 -0.000000 -0.000000 1.000000 38 54 83 255
-0.997818 0.066224 0.031250 -0.000000 0.000000 1.000000 38 54 83 255
-1.000000 0.000191 0.031250 -0.000000 0.000000 1.000000 38 54 83 255
0.793955 0.608104 0.031251 -0.000001 -0.000000 1.000000 38 54 83 255
0.866428 0.499466 0.031251 -0.000000 -0.000000 1.000000 38 54 83 255
0.832024 0.554885 0.031251 -0.000000 0.000000 1.000000 38 54 83 255
0.066067 0.997819 0.031250 -0.000000 0.000000 1.000000 38 54 83 255
0.000020 -0.999617 0.031250 -0.000000 0.000000 1.000000 38 54 83 255
0.066066 -0.997436 0.031250 -0.000000 0.000000 1.000000 38 54 83 255
-0.441922 -0.896685 0.031250 -0.000000 0.000000 1.000000 38 54 83 255
-0.499360 0.866417 0.031250 -0.000000 0.000000 1.000000 38 54 83 255
-0.499360 -0.866034 0.031250 -0.000000 0.000000 1.000000 38 54 83 255
-0.752260 -0.658546 0.031250 -0.000000 0.000000 1.000000 38 54 83 255
-0.897047 -0.441657 0.031250 -0.000000 0.000000 1.000000 38 54 83 255
-0.866389 -0.499084 0.031250 -0.000000 0.000000 1.000000 38 54 83 255
-0.382671 0.923894 0.031250 -0.000000 0.000000 1.000000 38 54 83 255
-0.382671 -0.923511 0.031250 -0.000000 0.000000 1.000000 38 54 83 255
-0.321802 -0.946430 0.031250 -0.000000 0.000000 1.000000 38 54 83 255
-0.195985 -0.980228 0.031250 -0.000000 0.000000 1.000000 38 54 83 255
-0.195985 0.980611 0.031250 -0.000000 0.000000 1.000000 38 54 83 255
-0.259508 0.965746 0.031250 -0.000000 0.000000 1.000000 38 54 83 255
0.499400 0.866417 0.031250 -0.000000 -0.000000 1.000000 38 54 83 255
0.608061 0.793958 0.031251 -0.000001 -0.000000 1.000000 38 54 83 255
0.554831 0.832020 0.031251 -0.000000 0.000000 1.000000 38 54 83 255
-0.923878 -0.382419 0.031250 -0.000000 0.000000 1.000000 38 54 83 255
-0.897047 0.442040 0.031250 -0.000000 0.000000 1.000000 38 54 83 255
-0.923878 0.382801 0.031250 -0.000000 0.000000 1.000000 38 54 83 255
0.793955 -0.607722 0.031251 -0.000001 0.000000 1.000000 38 54 83 255
0.866428 -0.499084 0.031251 -0.000000 0.000000 1.000000 38 54 83 255
0.752300 -0.658546 0.031251 -0.000001 0.000000 1.000000 38 54 83 255
0.658896 -0.751930 0.031251 -0.000000 0.000000 1.000000 38 54 83 255
0.707141 0.707162 0.031251 -0.000000 0.000000 1.000000 38 54 83 255
0.658896 0.752312 0.031251 -0.000000 0.000000 1.000000 38 54 83 255
0.131466 0.991329 0.031250 -0.000000 -0.000000 1.000000 38 54 83 255
0.259548 0.965746 0.031250 -0.000000 -0.000000 1.000000 38 54 83 255
0.196025 0.980611 0.031250 -0.000000 -0.000001 1.000000 38 54 83 255
-0.793915 0.608104 0.031250 -0.000001 0.000000 1.000000 38 54 83 255
-0.866389 0.499466 0.031250 -0.000000 0.000000 1.000000 38 54 83 255
-0.752260 0.658928 0.031250 -0.000001 0.000000 1.000000 38 54 83 255
0.441962 0.897068 0.031250 -0.000000 0.000000 1.000000 38 54 83 255
0.382711 -0.923511 0.031250 -0.000000 0.000000 1.000000 38 54 83 255
0.441962 -0.896686 0.031250 -0.000000 0.000000 1.000000 38 54 83 255
0.259548 0.965746 0.031250 -0.000000 0.000000 1.000000 38 54 83 255
0.066066 -0.997436 0.031250 -0.000000 0.000000 1.000000 38 54 83 255
0.196025 -0.980229 0.031250 -0.000000 0.000000 1.000000 38 54 83 255
0.000020 1.000000 0.031250 -0.000000 0.000000 1.000000 38 54 83 255
-0.066027 -0.997436 0.031250 -0.000000 0.000000 1.000000 38 54 83 255
0.000020 -0.999617 0.031250 -0.000000 0.000000 1.000000 38 54 83 255
-0.707101 0.707162 0.031250 -0.000000 0.000000 1.000000 38 54 83 255
-0.658856 -0.751930 0.031250 -0.000000 0.000000 1.000000 38 54 83 255
-0.658856 0.752312 0.031250 -0.000000 0.000000 1.000000 38 54 83 255
-0.991327 -0.131227 0.031250 -0.000000 0.000000 1.000000 38 54 83 255
-0.965739 -0.259282 0.031250 -0.000000 0.000000 1.000000 38 54 83 255
-0.997818 -0.065842 0.031250 -0.000000 0.000000 1.000000 38 54 83 255
0.321841 0.946813 0.031250 -0.000000 0.000000 1.000000 38 54 83 255
0.382711 -0.923511 0.031250 -0.000000 0.000000 1.000000 38 54 83 255
0.382711 0.923894 0.031250 -0.000000 0.000000 1.000000 38 54 83 255
-0.707101 0.707162 0.031250 -0.000000 0.000000 1.000000 38 54 83 255
-0.897047 -0.441657 0.031250 -0.000000 0.000000 1.000000 38 54 83 255
-0.707101 -0.706780 0.031250 -0.000000 0.000000 1.000000 38 54 83 255
-0.499360 -0.866034 0.031250 -0.000000 -0.000000 1.000000 38 54 83 255
-0.608022 -0.793576 0.031250 -0.000001 -0.000000 1.000000 38 54 83 255
-0.554792 -0.831638 0.031250 -0.000000 0.000000 1.000000 38 54 83 255
-0.131427 0.991329 0.031250 -0.000000 -0.000000 1.000000 38 54 83 255
0.658896 -0.751930 0.031251 -0.000001 0.000000 1.000000 38 54 83 255
1.000040 0.000191 0.031251 -0.000000 0.000000 1.000000 38 54 83 255
-0.499360 0.866417 0.031250 -0.000000 0.000000 1.000000 38 54 83 255
-0.997818 0.066224 0.031250 -0.000000 -0.000000 1.000000 38 54 83 255
0.923917 -0.382419 0.031251 -0.000000 0.000000 1.000000 38 54 83 255
0.866428 0.499466 0.031251 -0.000000 0.000000 1.000000 38 54 83 255
-0.965739 -0.259282 0.031250 -0.000000 -0.000000 1.000000 38 54 83 255
-0.658856 0.752312 0.031250 -0.000001 0.000000 1.000000 38 54 83 255
0.946842 0.321945 0.031251 -0.000000 0.000000 1.000000 38 54 83 255
-0.321802 0.946813 0.031250 -0.000000 0.000000 1.000000 38 54 83 255
-0.946802 -0.321562 0.031250 -0.000000 0.000000 1.000000 38 54 83 255
0.259548 0.965746 0.031250 -0.000000 0.000000 1.000000 38 54 83 255
-0.831985 -0.554503 0.031250 -0.000000 0.000000 1.000000 38 54 83 255
0.707141 -0.706780 0.031251 -0.000000 0.000000 1.000000 38 54 83 255
0.441962 0.897068 0.031250 -0.000000 0.000000 1.000000 38 54 83 255
0.980647 0.196155 0.031251 -0.000000 0.000000 1.000000 38 54 83 255
0.997858 -0.065841 0.031251 -0.000000 -0.000000 1.000000 38 54 83 255
1.000040 0.000191 0.031251 -0.000000 -0.000000 1.000000 38 54 83 255
-0.382671 0.923894 0.031250 -0.000000 0.000000 1.000000 38 54 83 255
-0.441922 0.897068 0.031250 -0.000000 -0.000000 1.000000 38 54 83 255
-0.866389 0.499466 0.031250 -0.000000 -0.000000 1.000000 38 54 83 255
0.499400 -0.866034 0.031250 -0.000000 0.000000 1.000000 38 54 83 255
0.707141 -0.706780 0.031251 -0.000000 -0.000000 1.000000 38 54 83 255
-0.946802 0.321945 0.031250 -0.000000 -0.000000 1.000000 38 54 83 255
0.752300 0.658928 0.031251 -0.000001 -0.000000 1.000000 38 54 83 255
0.000020 1.000000 0.031250 -0.000000 0.000000 1.000000 38 54 83 255
-0.707101 -0.706780 0.031250 -0.000000 0.000000 1.000000 38 54 83 255
-0.441922 0.897068 0.031250 -0.000000 0.000000 1.000000 38 54 83 255
-0.066027 -0.997436 0.031250 -0.000000 0.000000 1.000000 38 54 83 255
0.658896 0.752312 0.031251 -0.000001 -0.000000 1.000000 38 54 83 255
-0.897047 -0.441657 0.031250 -0.000000 0.000000 1.000000 38 54 83 255
0.832024 -0.554503 0.031251 -0.000000 -0.000000 1.000000 38 54 83 255
0.707141 -0.706780 0.031251 -0.000000 0.000000 1.000000 38 54 83 255
0.066067 0.997819 0.031250 -0.000000 -0.000000 1.000000 38 54 83 255
-0.831985 0.554886 0.031250 -0.000000 -0.000000 1.000000 38 54 83 255
0.382711 0.923894 0.031250 -0.000000 0.000000 1.000000 38 54 83 255
0.066067 0.997819 0.031250 -0.000000 0.000000 1.000000 38 54 83 255
-0.066027 0.997819 0.031250 -0.000000 0.000000 1.000000 38 54 83 255
-0.707101 -0.706780 0.031250 -0.000000 0.000000 1.000000 38 54 83 255
-0.980607 -0.195772 0.031250 -0.000000 0.000000 1.000000 38 54 83 255
0.321841 -0.946431 0.031250 -0.000000 0.000000 1.000000 38 54 83 255
-0.897047 0.442040 0.031250 -0.000000 0.000000 1.000000 38 54 83 255
-0.658856 -0.751930 0.031250 -0.000001 -0.000000 1.000000 38 54 83 255
-0.717308 -0.213499 0.041667 -0.000000 0.000000 1.000000 75 106 143 255
-0.777327 -0.125686 0.041667 -0.000000 0.000000 1.000000 75 106 143 255
-0.774609 -0.203949 0.041667 -0.000000 0.000000 1.000000 75 106 143 255
0.683780 -0.178378 0.041667 -0.000000 -0.000000 1.000000 75 106 143 255
0.719023 -0.214958 0.041667 -0.000000 -0.000000 1.000000 75 106 143 255
0.752100 -0.105096 0.041667 -0.000000 -0.000000 1.000000 75 106 143 255
-0.777327 -0.125686 0.041667 -0.000000 0.000000 1.000000 75 106 143 255
-0.641785 -0.155164 0.041667 -0.000000 0.000000 1.000000 75 106 143 255
-0.777424 -0.077741 0.041667 -0.000000 -0.000000 1.000000 75 106 143 255
-0.777424 -0.077741 0.041667 -0.000000 -0.000000 1.000000 75 106 143 255
-0.599253 -0.122312 0.041667 -0.000000 -0.000000 1.000000 75 106 143 255
-0.776078 -0.025904 0.041667 -0.000000 -0.000000 1.000000 75 106 143 255
0.637964 -0.130824 0.041667 -0.000000 -0.000000 1.000000 75 106 143 255
0.683780 -0.178378 0.041667 -0.000000 -0.000000 1.000000 75 106 143 255
0.752100 -0.105096 0.041667 -0.000000 -0.000000 1.000000 75 106 143 255
0.637964 -0.130824 0.041667 -0.000000 0.000000 1.000000 75 106 143 255
0.754490 -0.055515 0.041667 -0.000000 0.000000 1.000000 75 106 143 255
0.592148 -0.083270 0.041667 -0.000000 0.000000 1.000000 75 106 143 255
0.749913 0.061399 0.041667 -0.000000 -0.000000 1.000000 75 106 143 255
0.542808 -0.032058 0.041667 -0.000000 -0.000000 1.000000 75 106 143 255
0.754092 0.000272 0.041667 -0.000000 -0.000000 1.000000 75 106 143 255
0.592148 -0.083270 0.041667 -0.000000 -0.000000 1.000000 75 106 143 255
0.754092 0.000272 0.041667 -0.000000 -0.000000 1.000000 75 106 143 255
0.542808 -0.032058 0.041667 -0.000000 -0.000000 1.000000 75 106 143 255
-0.776078 -0.025904 0.041667 -0.000000 0.000000 1.000000 75 106 143 255
-0.556722 -0.089460 0.041667 -0.000000 -0.000000 1.000000 75 106 143 255
-0.772839 0.028337 0.041667 -0.000000 0.000000 1.000000 75 106 143 255
-0.731956 0.239569 0.041667 -0.000000 0.000000 1.000000 75 106 143 255
-0.747267 0.190597 0.041667 -0.000000 0.000000 1.000000 75 106 143 255
-0.434294 0.005104 0.041667 -0.000000 0.000000 1.000000 75 106 143 255
-0.481198 -0.031125 0.041667 -0.000000 0.000000 1.000000 75 106 143 255
-0.747267 0.190597 0.041667 -0.000000 0.000000 1.000000 75 106 143 255
-0.758884 0.138076 0.041667 -0.000000 0.000000 1.000000 75 106 143 255
-0.731956 0.239569 0.041667 -0.000000 -0.000000 1.000000 75 106 143 255
-0.434294 0.005104 0.041667 -0.000000 -0.000000 1.000000 75 106 143 255
-0.665998 0.297287 0.041667 -0.000000 -0.000000 1.000000 75 106 143 255
-0.520890 0.424268 0.041667 -0.000026 0.000030 1.000000 75 106 143 255
-0.419266 0.513198 0.041667 -0.000000 -0.000000 1.000000 75 106 143 255
-0.468612 0.470016 0.041667 -0.110431 0.126194 0.985840 75 106 143 255
-0.434294 0.005104 0.041667 -0.000000 -0.000000 1.000000 75 106 143 255
-0.622514 0.335339 0.041667 -0.000000 -0.000000 1.000000 75 106 143 255
-0.665998 0.297287 0.041667 -0.000000 -0.000000 1.000000 75 106 143 255
-0.622514 0.335339 0.041667 -0.000000 -0.000000 1.000000 75 106 143 255
-0.520890 0.424268 0.041667 -0.000000 -0.000000 1.000000 75 106 143 255
-0.573168 0.378521 0.041667 -0.129128 0.147561 0.980587 75 106 143 255
0.542808 -0.032058 0.041667 -0.000000 -0.000000 1.000000 75 106 143 255
0.675518 0.341987 0.041667 -0.000000 -0.000000 1.000000 75 106 143 255
0.425874 0.563141 0.041667 -0.000000 -0.000000 1.000000 75 106 143 255
-0.434294 0.005104 0.041667 -0.000000 -0.000000 1.000000 75 106 143 255
0.425874 0.563141 0.041667 -0.000000 -0.000000 1.000000 75 106 143 255
-0.341093 0.581605 0.041667 -0.000000 -0.000000 1.000000 75 106 143 255
0.749913 0.061399 0.041667 -0.000000 0.000000 1.000000 75 106 143 255
0.740960 0.127000 0.041667 -0.000000 0.000000 1.000000 75 106 143 255
0.542808 -0.032058 0.041667 -0.000000 0.000000 1.000000 75 106 143 255
-0.341093 0.581605 0.041667 -0.000000 -0.000000 1.000000 75 106 143 255
-0.419266 0.513198 0.041667 -0.000000 -0.000000 1.000000 75 106 143 255
-0.434294 0.005104 0.041667 -0.000000 -0.000000 1.000000 75 106 143 255
0.704756 0.268160 0.041667 -0.000000 -0.000000 1.000000 75 106 143 255
0.740960 0.127000 0.041667 -0.000000 -0.000000 1.000000 75 106 143 255
0.726239 0.196209 0.041667 -0.000001 -0.000000 1.000000 75 106 143 255
-0.767258 0.083493 0.041667 -0.000000 -0.000000 1.000000 75 106 143 255
-0.481198 -0.031125 0.041667 -0.000000 -0.000000 1.000000 75 106 143 255
-0.758884 0.138076 0.041667 -0.000000 -0.000000 1.000000 75 106 143 255
-0.556722 -0.089460 0.041667 -0.000000 0.000000 1.000000 75 106 143 255
-0.767258 0.083493 0.041667 -0.000000 0.000000 1.000000 75 106 143 255
-0.772839 0.028337 0.041667 -0.000000 0.000000 1.000000 75 106 143 255
-0.717308 -0.213499 0.041667 -0.000000 0.000000 1.000000 75 106 143 255
-0.641785 -0.155164 0.041667 -0.000000 -0.000000 1.000000 75 106 143 255
0.752100 -0.105096 0.041667 -0.000000 0.000000 1.000000 75 106 143 255
0.754490 -0.055515 0.041667 -0.000000 -0.000000 1.000000 75 106 143 255
-0.599253 -0.122312 0.041667 -0.000000 -0.000000 1.000000 75 106 143 255
-0.434294 0.005104 0.041667 -0.000000 0.000000 1.000000 75 106 143 255
-0.434294 0.005104 0.041667 -0.000000 -0.000000 1.000000 75 106 143 255
-0.434294 0.005104 0.041667 -0.000000 -0.000000 1.000000 75 106 143 255
0.704756 0.268160 0.041667 -0.000000 -0.000000 1.000000 75 106 143 255
0.542808 -0.032058 0.041667 -0.000000 -0.000000 1.000000 75 106 143 255
0.542808 -0.032058 0.041667 -0.000000 -0.000000 1.000000 75 106 143 255
-0.481198 -0.031125 0.041667 -0.000000 0.000000 1.000000 75 106 143 255
3 0 1 2
3 3 4 5
3 6 7 8
3 9 10 11
3 12 13 14
3 15 16 17
3 18 19 20
3 21 22 23
3 24 25 26
3 27 28 29
3 30 31 32
3 33 34 35
3 36 37 38
3 39 40 41
3 42 43 44
3 45 46 47
3 48 49 50
3 51 52 53
3 54 55 56
3 57 58 59
3 60 61 62
3 63 64 65
3 66 67 68
3 69 70 71
3 72 73 74
3 75 76 77
3 78 79 80
3 81 82 83
3 84 85 86
3 87 88 89
3 90 91 92
3 93 94 95
3 96 97 98
3 99 100 101
3 102 103 104
3 105 106 107
3 108 109 110
3 111 112 113
3 114 115 116
3 117 118 119
3 120 121 122
3 21 123 22
3 24 124 25
3 27 125 28
3 33 126 34
3 36 127 37
3 42 128 43
3 45 129 46
3 51 130 52
3 54 131 55
3 60 132 61
3 69 133 70
3 72 134 73
3 81 135 82
3 96 136 97
3 105 137 106
3 111 138 112
3 114 139 115
3 140 141 142
3 143 144 145
3 146 147 148
3 149 150 151
3 152 153 154
3 155 156 157
3 158 159 160
3 161 162 163
3 164 165 166
3 167 168 169
3 170 171 172
3 173 174 175
3 176 177 178
3 179 180 181
3 182 183 184
3 185 186 187
3 188 189 190
3 191 192 193
3 194 195 196
3 197 198 199
3 200 201 202
3 203 204 205
3 206 207 208
3 209 210 211
3 212 213 214
3 215 216 217
3 218 219 220
3 221 222 223
3 224 225 226
3 227 228 229
3 230 231 232
3 233 234 235
3 236 237 238
3 239 240 241
3 161 242 162
3 173 243 174
3 182 244 183
3 197 245 198
3 209 246 210
3 215 247 216
3 218 248 219
3 221 249 222
3 230 250 231
3 233 251 234
3 239 252 240
3 253 254 255
3 256 257 258
3 259 260 261
3 262 263 264
3 265 266 267
3 268 269 270
3 271 272 273
3 274 275 276
3 277 278 279
3 280 281 282
3 283 284 285
3 286 287 288
3 289 290 291
3 292 293 294
3 295 296 297
3 298 299 300
3 301 302 303
3 304 305 306
3 307 308 309
3 310 311 312
3 313 314 315
3 316 317 318
3 319 320 321
3 322 323 324
3 325 326 327
3 328 329 330
3 331 332 333
3 334 335 336
3 337 338 339
3 340 341 342
3 343 344 345
3 346 347 348
3 349 350 351
3 352 353 354
3 355 356 357
3 358 359 360
3 361 362 363
3 364 365 366
3 367 368 369
3 370 371 372
3 373 374 375
3 376 377 378
3 379 380 381
3 382 383 384
3 385 386 387
3 388 389 390
3 391 392 393
3 394 395 396
3 397 398 399
3 400 401 402
3 262 403 263
3 265 404 266
3 268 405 269
3 271 406 272
3 274 407 275
3 277 408 278
3 280 409 281
3 283 410 284
3 286 411 287
3 289 412 290
3 295 413 296
3 298 414 299
3 301 415 302
3 304 416 305
3 307 417 308
3 310 418 311
3 316 419 317
3 319 420 320
3 322 421 323
3 325 422 326
3 328 423 329
3 331 424 332
3 334 425 335
3 337 426 338
3 340 427 341
3 343 428 344
3 346 429 347
3 352 430 353
3 355 431 356
3 358 432 359
3 361 433 362
3 364 434 365
3 367 435 368
3 370 436 371
3 373 437 374
3 376 438 377
3 379 439 380
3 382 440 383
3 385 441 386
3 388 442 389
3 391 443 392
3 394 444 395
3 397 445 398
3 400 446 401
3 447 448 449
3 450 451 452
3 453 454 455
3 456 457 458
3 459 460 461
3 462 463 464
3 465 466 467
3 468 469 470
3 471 472 473
3 474 475 476
3 477 478 479
3 480 481 482
3 483 484 485
3 486 487 488
3 489 490 491
3 492 493 494
3 495 496 497
3 498 499 500
3 501 502 503
3 504 505 506
3 507 508 509
3 510 511 512
3 453 513 454
3 456 514 457
3 462 515 463
3 468 516 469
3 471 517 472
3 477 518 478
3 483 519 484
3 489 520 490
3 492 521 493
3 495 522 496
3 504 523 505
3 510 524 511
