<?xml version="1.0" encoding="UTF-8" standalone="no"?>
<!-- Created with Inkscape (http://www.inkscape.org/) -->

<svg
        width="160cm"
        height="160cm"
        viewBox="0 0 160 160"
        version="1.1"
        _id="SVGRoot"
        id="svg26"
        sodipodi:docname="water.svg"
        inkscape:version="1.3 (0e150ed6c4, 2023-07-21)"
        xmlns:inkscape="http://www.inkscape.org/namespaces/inkscape"
        xmlns:sodipodi="http://sodipodi.sourceforge.net/DTD/sodipodi-0.dtd"
        xmlns="http://www.w3.org/2000/svg"
>
    <sodipodi:namedview
            id="namedview22"
            pagecolor="#505050"
            bordercolor="#eeeeee"
            borderopacity="1"
            inkscape:showpageshadow="0"
            inkscape:pageopacity="0"
            inkscape:pagecheckerboard="0"
            inkscape:deskcolor="#505050"
            inkscape:document-units="cm"
            showgrid="false"
            inkscape:zoom="0.05656854"
            inkscape:cx="3031.7205"
            inkscape:cy="5073.4914"
            inkscape:window-width="1870"
            inkscape:window-height="1051"
            inkscape:window-x="1920"
            inkscape:window-y="0"
            inkscape:window-maximized="1"
            inkscape:current-layer="svg26"/>
    <defs
            _id="defs402"
            id="defs8"/>
    <path
            id="path1"
            style="fill:#253656;stroke-linecap:square;paint-order:stroke fill markers;fill-opacity:1"
            d="M 159.99998,79.999992 A 79.999992,79.999992 0 0 1 79.999992,159.99998 79.999992,79.999992 0 0 1 0,79.999992 79.999992,79.999992 0 0 1 79.999992,0 79.999992,79.999992 0 0 1 159.99998,79.999992 Z"/>
    <g
            id="g1"
            transform="matrix(0.89381625,0,0,0.88609525,9.0948925,3.270025)">
        <path
                id="100"
                style="display:inline;fill:#3d74b7;fill-opacity:1;stroke:none;stroke-width:0.0259434px;stroke-linecap:butt;stroke-linejoin:miter;stroke-opacity:1"
                d="m 21.914383,52.65859 c -5.033464,5.528053 -10.635419,29.706335 -6.668517,47.90498 l 15.028195,19.96456 h 98.479049 l 16.00101,-27.818039 c 0,-24.749178 -4.3781,-35.681433 -6.62893,-37.649101 L 128.75311,72.841776 26.989321,65.686195 Z"
                sodipodi:nodetypes="ccccccccc"
                inkscape:label="100"/>
        <path
                id="1000"
                style="display:inline;fill:#5698dd;fill-opacity:1;stroke-width:1.01139;stroke-linecap:square;paint-order:stroke fill markers;stop-color:#000000"
                d="m 13.902869,88.658817 c 0,80.507823 129.012661,80.507823 130.851251,4.051274 0,0 -14.88435,18.717869 -27.20673,23.012419 -6.9397,-58.345499 -9.75439,-5.43019 -31.544941,0 C 85.781635,58.17055 62.15929,121.98684 49.168274,111.47712 35.405512,64.001913 30.956555,114.2086 13.902869,88.658817 Z"
                sodipodi:nodetypes="cccccc"
                inkscape:label="1000"/>
        <path
                id="10000"
                style="display:inline;fill:#6da5e7;fill-opacity:1;stroke:none;stroke-width:0.0114793px;stroke-linecap:butt;stroke-linejoin:miter;stroke-opacity:1"
                d="m 56.145111,69.478989 c 1.318298,14.116109 35.061183,11.89989 47.419029,3.088613 3.7888,10.467891 50.95954,4.720696 35.15087,-16.856131 C 130.45215,44.433723 123.75339,67.255668 114.41758,65.741414 109.78529,4.4240016 90.026059,89.382212 70.561478,56.841383 47.496409,18.28127 58.723014,72.406333 40.351859,63.874502 30.713527,59.398321 32.836985,38.008774 21.342211,53.363387 8.4360335,70.60334 36.923596,91.295635 56.145111,69.478989 Z"
                sodipodi:nodetypes="ccscsssc"
                inkscape:label="10000"/>
    </g>
</svg>
