ply
format ascii 1.0
comment Created by Blender 3.6.0 - www.blender.org
element vertex 359
property float x
property float y
property float z
property float nx
property float ny
property float nz
property uchar red
property uchar green
property uchar blue
property uchar alpha
element face 163
property list uchar uint vertex_indices
end_header
-0.197716 -0.021583 0.062500 -0.000000 -0.000000 1.000000 108 155 209 255
-0.102935 0.006743 0.062500 -0.000000 -0.000000 1.000000 108 155 209 255
-0.153734 -0.004241 0.062500 -0.000000 -0.000000 1.000000 108 155 209 255
-0.595511 -0.023080 0.062500 -0.000000 -0.000000 1.000000 108 155 209 255
-0.507076 -0.005793 0.062500 -0.000000 -0.000000 1.000000 108 155 209 255
-0.553587 -0.008747 0.062500 -0.000000 -0.000000 1.000000 108 155 209 255
0.689963 -0.272643 0.062501 -0.000000 0.000000 1.000000 108 155 209 255
0.733121 -0.302336 0.062501 -0.000000 0.000000 1.000000 108 155 209 255
0.725956 -0.240483 0.062501 -0.000000 0.000000 1.000000 108 155 209 255
-0.271216 -0.426051 0.062500 -0.000000 0.000000 1.000000 108 155 209 255
-0.129206 -0.368008 0.062500 -0.000000 0.000000 1.000000 108 155 209 255
-0.304599 -0.366306 0.062500 -0.000000 0.000000 1.000000 108 155 209 255
-0.304599 -0.366306 0.062500 -0.000000 -0.000000 1.000000 108 155 209 255
-0.129206 -0.368008 0.062500 -0.000000 -0.000000 1.000000 108 155 209 255
-0.344508 -0.301368 0.062500 -0.000000 -0.000000 1.000000 108 155 209 255
0.069528 0.004814 0.062500 -0.000000 -0.000000 1.000000 108 155 209 255
0.045428 -0.154781 0.062500 -0.000000 0.000000 1.000000 108 155 209 255
0.126759 -0.006369 0.062500 -0.000000 -0.000000 1.000000 108 155 209 255
-0.748974 -0.252714 0.062500 -0.000000 0.000000 1.000000 108 155 209 255
-0.770969 -0.327695 0.062500 -0.000000 0.000000 1.000000 108 155 209 255
-0.643132 -0.234778 0.062500 -0.000000 0.000000 1.000000 108 155 209 255
0.139013 -0.262550 0.062500 -0.000000 -0.000000 1.000000 108 155 209 255
0.186247 -0.327222 0.062500 -0.000000 -0.000000 1.000000 108 155 209 255
0.374594 -0.302723 0.062500 -0.000000 -0.000000 1.000000 108 155 209 255
0.571346 -0.208763 0.062501 -0.000000 -0.000000 1.000000 108 155 209 255
0.685224 -0.134530 0.062501 -0.000000 0.000000 1.000000 108 155 209 255
0.653699 -0.091604 0.062501 -0.000000 0.000000 1.000000 108 155 209 255
0.709650 -0.184352 0.062501 -0.000000 -0.000000 1.000000 108 155 209 255
0.689963 -0.272643 0.062501 -0.000000 -0.000000 1.000000 108 155 209 255
0.725956 -0.240483 0.062501 -0.000000 -0.000000 1.000000 108 155 209 255
0.232035 -0.383895 0.062500 -0.000000 0.000000 1.000000 108 155 209 255
0.374594 -0.302723 0.062500 -0.000000 0.000000 1.000000 108 155 209 255
0.186247 -0.327222 0.062500 -0.000000 0.000000 1.000000 108 155 209 255
-0.336398 -0.068829 0.062500 -0.000000 0.000000 1.000000 108 155 209 255
-0.458649 -0.204931 0.062500 -0.000000 -0.000000 1.000000 108 155 209 255
-0.394629 -0.243492 0.062500 -0.000000 -0.000000 1.000000 108 155 209 255
0.639069 -0.242614 0.062501 -0.000000 -0.000000 1.000000 108 155 209 255
0.689963 -0.272643 0.062501 -0.000000 -0.000000 1.000000 108 155 209 255
0.709650 -0.184352 0.062501 -0.000000 -0.000000 1.000000 108 155 209 255
0.069528 0.004814 0.062500 -0.000000 0.000000 1.000000 108 155 209 255
-0.047403 0.011696 0.062500 -0.000000 0.000000 1.000000 108 155 209 255
0.001689 -0.134471 0.062500 -0.000000 -0.000000 1.000000 108 155 209 255
-0.643132 -0.234778 0.062500 -0.000000 -0.000000 1.000000 108 155 209 255
-0.667041 -0.084428 0.062500 -0.000000 -0.000000 1.000000 108 155 209 255
-0.697372 -0.130717 0.062500 -0.000000 -0.000000 1.000000 108 155 209 255
0.607184 -0.225871 0.062501 -0.000000 0.000000 1.000000 108 155 209 255
0.709650 -0.184352 0.062501 -0.000000 -0.000000 1.000000 108 155 209 255
0.685224 -0.134530 0.062501 -0.000000 -0.000000 1.000000 108 155 209 255
0.573438 -0.028793 0.062501 -0.000000 -0.000000 1.000000 108 155 209 255
0.531810 -0.191882 0.062500 -0.000000 -0.000000 1.000000 108 155 209 255
0.616096 -0.056163 0.062501 -0.000000 -0.000000 1.000000 108 155 209 255
-0.267917 -0.115016 0.062500 -0.000000 -0.000000 1.000000 108 155 209 255
-0.038273 -0.151736 0.062500 -0.000000 0.000000 1.000000 108 155 209 255
-0.232796 -0.045609 0.062500 -0.000000 -0.000000 1.000000 108 155 209 255
-0.073151 -0.217968 0.062500 -0.000000 -0.000000 1.000000 108 155 209 255
-0.344508 -0.301368 0.062500 -0.000000 -0.000000 1.000000 108 155 209 255
-0.129206 -0.368008 0.062500 -0.000000 -0.000000 1.000000 108 155 209 255
0.653699 -0.091604 0.062501 -0.000000 -0.000000 1.000000 108 155 209 255
0.531810 -0.191882 0.062500 -0.000000 0.000000 1.000000 108 155 209 255
0.571346 -0.208763 0.062501 -0.000000 0.000000 1.000000 108 155 209 255
-0.455616 -0.014580 0.062500 -0.000000 0.000000 1.000000 108 155 209 255
-0.458649 -0.204931 0.062500 -0.000000 0.000000 1.000000 108 155 209 255
-0.398843 -0.035471 0.062500 -0.000000 0.000000 1.000000 108 155 209 255
0.268507 -0.066967 0.062500 -0.000000 0.000000 1.000000 108 155 209 255
0.374594 -0.302723 0.062500 -0.000000 0.000000 1.000000 108 155 209 255
0.393556 -0.148496 0.062500 -0.000000 -0.000000 1.000000 108 155 209 255
-0.667041 -0.084428 0.062500 -0.000000 0.000000 1.000000 108 155 209 255
-0.595511 -0.023080 0.062500 -0.000000 0.000000 1.000000 108 155 209 255
-0.633208 -0.048427 0.062500 -0.000001 0.000000 1.000000 108 155 209 255
0.091638 -0.201272 0.062500 -0.000000 -0.000000 1.000000 108 155 209 255
0.268507 -0.066967 0.062500 -0.000000 -0.000000 1.000000 108 155 209 255
0.228332 -0.042586 0.062500 -0.000000 -0.000000 1.000000 108 155 209 255
0.526744 -0.010081 0.062500 -0.000000 -0.000000 1.000000 108 155 209 255
0.442660 -0.161157 0.062500 -0.000000 -0.000000 1.000000 108 155 209 255
0.488830 -0.175816 0.062500 -0.000000 -0.000000 1.000000 108 155 209 255
0.320053 -0.033573 0.062500 -0.000000 0.000000 1.000000 108 155 209 255
0.425339 -0.000985 0.062500 -0.000000 0.000000 1.000000 108 155 209 255
0.372671 -0.011775 0.062500 -0.000000 -0.000000 1.000000 108 155 209 255
-0.038273 -0.151736 0.062500 -0.000000 0.000000 1.000000 108 155 209 255
-0.197716 -0.021583 0.062500 -0.000000 0.000000 1.000000 108 155 209 255
-0.232796 -0.045609 0.062500 -0.000000 0.000000 1.000000 108 155 209 255
0.393556 -0.148496 0.062500 -0.000000 -0.000000 1.000000 108 155 209 255
0.320053 -0.033573 0.062500 -0.000000 -0.000000 1.000000 108 155 209 255
0.268507 -0.066967 0.062500 -0.000000 -0.000000 1.000000 108 155 209 255
0.275069 -0.421175 0.062500 -0.000000 -0.000000 1.000000 108 155 209 255
0.347655 -0.391982 0.062500 -0.000000 -0.000000 1.000000 108 155 209 255
0.232035 -0.383895 0.062500 -0.000000 0.000000 1.000000 108 155 209 255
0.425339 -0.000985 0.062500 -0.000000 0.000000 1.000000 108 155 209 255
0.442660 -0.161157 0.062500 -0.000000 0.000000 1.000000 108 155 209 255
0.477038 -0.000616 0.062500 -0.000000 -0.000000 1.000000 108 155 209 255
0.180388 -0.022277 0.062500 -0.000000 -0.000000 1.000000 108 155 209 255
0.091638 -0.201272 0.062500 -0.000000 -0.000000 1.000000 108 155 209 255
0.228332 -0.042586 0.062500 -0.000000 -0.000000 1.000000 108 155 209 255
-0.540254 -0.197942 0.062500 -0.000000 0.000000 1.000000 108 155 209 255
-0.455616 -0.014580 0.062500 -0.000000 -0.000000 1.000000 108 155 209 255
-0.507076 -0.005793 0.062500 -0.000000 -0.000000 1.000000 108 155 209 255
-0.724562 -0.186934 0.062500 -0.000000 0.000000 1.000000 108 155 209 255
-0.643132 -0.234778 0.062500 -0.000000 0.000000 1.000000 108 155 209 255
-0.697372 -0.130717 0.062500 -0.000000 0.000000 1.000000 108 155 209 255
0.573438 -0.028793 0.062501 -0.000000 -0.000000 1.000000 108 155 209 255
0.526744 -0.010081 0.062500 -0.000000 -0.000000 1.000000 108 155 209 255
0.488830 -0.175816 0.062500 -0.000000 -0.000000 1.000000 108 155 209 255
-0.256891 -0.076644 0.062500 -0.000001 0.000000 1.000000 108 155 209 255
-0.267917 -0.115016 0.062500 -0.000001 0.000000 1.000000 108 155 209 255
-0.232796 -0.045609 0.062500 -0.000001 0.000000 1.000000 108 155 209 255
0.180388 -0.022277 0.062500 -0.000000 0.000000 1.000000 108 155 209 255
0.126759 -0.006369 0.062500 -0.000000 0.000000 1.000000 108 155 209 255
0.045428 -0.154781 0.062500 -0.000000 0.000000 1.000000 108 155 209 255
-0.047403 0.011696 0.062500 -0.000000 -0.000000 1.000000 108 155 209 255
-0.038273 -0.151736 0.062500 -0.000000 -0.000000 1.000000 108 155 209 255
0.001689 -0.134471 0.062500 -0.000000 -0.000000 1.000000 108 155 209 255
-0.394629 -0.243492 0.062500 -0.000000 0.000000 1.000000 108 155 209 255
-0.267917 -0.115016 0.062500 -0.000000 -0.000000 1.000000 108 155 209 255
-0.336398 -0.068829 0.062500 -0.000000 -0.000000 1.000000 108 155 209 255
-0.240672 -0.468349 0.062500 -0.000000 0.000000 1.000000 108 155 209 255
-0.173354 -0.451582 0.062500 -0.000000 0.000000 1.000000 108 155 209 255
-0.271216 -0.426051 0.062500 -0.000000 -0.000000 1.000000 108 155 209 255
-0.038273 -0.151736 0.062500 -0.000000 0.000000 1.000000 108 155 209 255
-0.540254 -0.197942 0.062500 -0.000000 -0.000000 1.000000 108 155 209 255
-0.173354 -0.451582 0.062500 -0.000000 -0.000000 1.000000 108 155 209 255
0.001689 -0.134471 0.062500 -0.000000 0.000000 1.000000 108 155 209 255
0.607184 -0.225871 0.062501 -0.000000 -0.000000 1.000000 108 155 209 255
0.347655 -0.391982 0.062500 -0.000000 0.000000 1.000000 108 155 209 255
-0.398843 -0.035471 0.062500 -0.000000 0.000000 1.000000 108 155 209 255
0.010780 0.010944 0.062500 -0.000000 0.000001 1.000000 108 155 209 255
-0.540254 -0.197942 0.062500 -0.000000 0.000000 1.000000 108 155 209 255
0.639069 -0.242614 0.062501 -0.000000 0.000000 1.000000 108 155 209 255
0.488830 -0.175816 0.062500 -0.000000 -0.000000 1.000000 108 155 209 255
-0.073151 -0.217968 0.062500 -0.000000 0.000000 1.000000 108 155 209 255
-0.267917 -0.115016 0.062500 -0.000000 0.000000 1.000000 108 155 209 255
0.616096 -0.056163 0.062501 -0.000000 -0.000000 1.000000 108 155 209 255
0.139013 -0.262550 0.062500 -0.000000 0.000000 1.000000 108 155 209 255
-0.540254 -0.197942 0.062500 -0.000000 -0.000000 1.000000 108 155 209 255
0.139013 -0.262550 0.062500 -0.000000 0.000000 1.000000 108 155 209 255
0.477038 -0.000616 0.062500 -0.000000 -0.000000 1.000000 108 155 209 255
0.393556 -0.148496 0.062500 -0.000000 0.000000 1.000000 108 155 209 255
0.314045 -0.427669 0.062500 -0.000000 -0.000000 1.000000 108 155 209 255
0.393556 -0.148496 0.062500 -0.000000 0.000000 1.000000 108 155 209 255
0.045428 -0.154781 0.062500 -0.000000 -0.000000 1.000000 108 155 209 255
-0.458649 -0.204931 0.062500 -0.000000 0.000000 1.000000 108 155 209 255
-0.748974 -0.252714 0.062500 -0.000000 0.000000 1.000000 108 155 209 255
-0.102935 0.006743 0.062500 -0.000000 -0.000000 1.000000 108 155 209 255
-0.344508 -0.301368 0.062500 -0.000000 0.000000 1.000000 108 155 209 255
-0.209280 -0.480944 0.062500 -0.000000 0.000000 1.000000 108 155 209 255
-0.049987 0.215141 0.052084 -0.000000 -0.000000 1.000000 108 155 209 255
0.082492 0.302473 0.052084 -0.000000 -0.000000 1.000000 108 155 209 255
-0.102240 0.263143 0.052084 -0.000000 -0.000000 1.000000 108 155 209 255
0.505601 0.395776 0.052084 -0.000000 -0.000000 1.000000 108 155 209 255
0.581540 0.338013 0.052084 -0.000000 -0.000000 1.000000 108 155 209 255
0.591123 0.476891 0.052084 -0.000000 -0.000000 1.000000 108 155 209 255
-0.213003 0.360159 0.052084 -0.000000 0.000000 1.000000 108 155 209 255
-0.255766 0.687019 0.052084 -0.000000 0.000000 1.000000 108 155 209 255
-0.266637 0.393060 0.052084 -0.000000 0.000000 1.000000 108 155 209 255
-0.505949 0.212403 0.052083 -0.000000 0.000000 1.000000 108 155 209 255
-0.320959 0.257669 0.052084 -0.000000 -0.000000 1.000000 108 155 209 255
-0.358224 0.387362 0.052084 -0.000000 -0.000000 1.000000 108 155 209 255
-0.399617 0.142293 0.052084 -0.000000 0.000000 1.000000 108 155 209 255
-0.320959 0.257669 0.052084 -0.000000 0.000000 1.000000 108 155 209 255
-0.450049 0.176143 0.052084 -0.000000 0.000000 1.000000 108 155 209 255
-0.049987 0.215141 0.052084 -0.000000 -0.000000 1.000000 108 155 209 255
-0.003070 0.178220 0.052084 -0.000000 -0.000000 1.000000 108 155 209 255
0.081293 0.214505 0.052084 -0.000000 -0.000000 1.000000 108 155 209 255
-0.400780 0.619254 0.052084 -0.000000 0.000000 1.000000 108 155 209 255
-0.266637 0.393060 0.052084 -0.000000 0.000000 1.000000 108 155 209 255
-0.255766 0.687019 0.052084 -0.000000 -0.000000 1.000000 108 155 209 255
-0.564704 0.243974 0.052083 -0.000000 -0.000000 1.000000 108 155 209 255
-0.505949 0.212403 0.052083 -0.000000 -0.000000 1.000000 108 155 209 255
-0.358224 0.387362 0.052084 -0.000000 -0.000000 1.000000 108 155 209 255
0.442462 0.148594 0.052084 -0.000000 -0.000000 1.000000 108 155 209 255
0.483223 0.204717 0.052084 -0.000000 -0.000000 1.000000 108 155 209 255
0.411080 0.178362 0.052084 -0.000000 -0.000000 1.000000 108 155 209 255
0.324214 0.274255 0.052084 -0.000000 -0.000000 1.000000 108 155 209 255
0.371520 0.222268 0.052084 -0.000000 -0.000000 1.000000 108 155 209 255
0.477576 0.292098 0.052084 -0.000000 -0.000000 1.000000 108 155 209 255
-0.644399 0.395539 0.052083 -0.000000 0.000000 1.000000 108 155 209 255
-0.731956 0.239569 0.052083 -0.000000 0.000000 1.000000 108 155 209 255
-0.680321 0.264656 0.052083 -0.000000 0.000000 1.000000 108 155 209 255
-0.564704 0.243974 0.052083 -0.000000 0.000000 1.000000 108 155 209 255
-0.680321 0.264656 0.052083 -0.000000 0.000000 1.000000 108 155 209 255
-0.623699 0.263758 0.052083 0.000000 0.000000 -1.000000 108 155 209 255
0.665859 0.256638 0.052084 -0.000000 -0.000000 1.000000 108 155 209 255
0.715644 0.195957 0.052084 -0.000000 -0.000000 1.000000 108 155 209 255
0.676844 0.339173 0.052084 -0.000000 -0.000000 1.000000 108 155 209 255
0.350075 0.664340 0.052084 -0.000000 0.000000 1.000000 108 155 209 255
0.461591 0.423915 0.052084 -0.000000 0.000000 1.000000 108 155 209 255
0.480359 0.585284 0.052084 -0.000000 0.000000 1.000000 108 155 209 255
-0.357267 0.117953 0.052084 -0.000000 -0.000000 1.000000 108 155 209 255
-0.304845 0.172981 0.052084 -0.000000 -0.000000 1.000000 108 155 209 255
-0.399617 0.142293 0.052084 -0.000000 -0.000000 1.000000 108 155 209 255
-0.213003 0.360159 0.052084 -0.000000 0.000000 1.000000 108 155 209 255
-0.157391 0.314168 0.052084 -0.000000 0.000000 1.000000 108 155 209 255
0.066167 0.441805 0.052084 -0.000000 0.000000 1.000000 108 155 209 255
0.461591 0.423915 0.052084 -0.000000 0.000000 1.000000 108 155 209 255
0.591123 0.476891 0.052084 -0.000000 0.000000 1.000000 108 155 209 255
0.480359 0.585284 0.052084 -0.000000 0.000000 1.000000 108 155 209 255
-0.532166 0.522098 0.052083 -0.000000 -0.000000 1.000000 108 155 209 255
-0.564704 0.243974 0.052083 -0.000000 -0.000000 1.000000 108 155 209 255
-0.358224 0.387362 0.052084 -0.000000 -0.000000 1.000000 108 155 209 255
0.140139 0.418095 0.052084 -0.000000 0.000000 1.000000 108 155 209 255
0.350075 0.664340 0.052084 -0.000000 0.000000 1.000000 108 155 209 255
0.205796 0.714051 0.052084 -0.000000 0.000000 1.000000 108 155 209 255
0.641644 0.282262 0.052084 -0.000000 0.000000 1.000000 108 155 209 255
0.676844 0.339173 0.052084 -0.000000 0.000000 1.000000 108 155 209 255
0.613551 0.309586 0.052084 -0.000000 0.000000 1.000000 108 155 209 255
0.205796 0.714051 0.052084 -0.000000 0.000000 1.000000 108 155 209 255
0.066167 0.441805 0.052084 -0.000000 0.000000 1.000000 108 155 209 255
0.140139 0.418095 0.052084 -0.000000 0.000000 1.000000 108 155 209 255
-0.400780 0.619254 0.052084 -0.000000 0.000000 1.000000 108 155 209 255
-0.358224 0.387362 0.052084 -0.000000 0.000000 1.000000 108 155 209 255
-0.315857 0.404813 0.052084 -0.000000 -0.000000 1.000000 108 155 209 255
0.208092 0.378227 0.052084 -0.000000 -0.000000 1.000000 108 155 209 255
0.461591 0.423915 0.052084 -0.000000 0.000000 1.000000 108 155 209 255
0.350075 0.664340 0.052084 -0.000000 0.000000 1.000000 108 155 209 255
-0.157391 0.314168 0.052084 -0.000000 0.000000 1.000000 108 155 209 255
0.082492 0.302473 0.052084 -0.000000 0.000000 1.000000 108 155 209 255
0.066167 0.441805 0.052084 -0.000000 0.000000 1.000000 108 155 209 255
-0.003070 0.178220 0.052084 -0.000000 -0.000000 1.000000 108 155 209 255
0.065008 0.169845 0.052084 -0.000000 -0.000000 1.000000 108 155 209 255
0.081293 0.214505 0.052084 -0.000000 -0.000000 1.000000 108 155 209 255
0.324214 0.274255 0.052084 -0.000000 0.000000 1.000000 108 155 209 255
0.461591 0.423915 0.052084 -0.000000 -0.000000 1.000000 108 155 209 255
0.269594 0.328261 0.052084 -0.000000 0.000000 1.000000 108 155 209 255
0.066167 0.441805 0.052084 -0.000000 -0.000000 1.000000 108 155 209 255
0.053046 0.734408 0.052084 -0.000000 -0.000000 1.000000 108 155 209 255
-0.102649 0.725400 0.052084 -0.000000 -0.000000 1.000000 108 155 209 255
0.371520 0.222268 0.052084 -0.000000 -0.000000 1.000000 108 155 209 255
0.483223 0.204717 0.052084 -0.000000 0.000000 1.000000 108 155 209 255
0.477576 0.292098 0.052084 -0.000000 0.000000 1.000000 108 155 209 255
-0.213003 0.360159 0.052084 -0.000000 0.000000 1.000000 108 155 209 255
-0.102649 0.725400 0.052084 -0.000000 0.000000 1.000000 108 155 209 255
-0.255766 0.687019 0.052084 -0.000000 0.000000 1.000000 108 155 209 255
0.581540 0.338013 0.052084 -0.000000 -0.000000 1.000000 108 155 209 255
0.676844 0.339173 0.052084 -0.000000 -0.000000 1.000000 108 155 209 255
0.591123 0.476891 0.052084 -0.000000 -0.000000 1.000000 108 155 209 255
0.081293 0.214505 0.052084 -0.000000 0.000000 1.000000 108 155 209 255
0.545570 0.366942 0.052084 0.000000 -0.000000 -1.000000 108 155 209 255
-0.450049 0.176143 0.052084 -0.000000 0.000000 1.000000 108 155 209 255
-0.304845 0.172981 0.052084 -0.000000 0.000000 1.000000 108 155 209 255
-0.315857 0.404813 0.052084 -0.000000 0.000000 1.000000 108 155 209 255
0.478965 0.155712 0.052084 -0.000000 -0.000000 1.000000 108 155 209 255
-0.644399 0.395539 0.052083 -0.000000 0.000000 1.000000 108 155 209 255
-0.325612 0.110222 0.052084 -0.000000 -0.000000 1.000000 108 155 209 255
0.505601 0.395776 0.052084 -0.000000 0.000000 1.000000 108 155 209 255
-0.644399 0.395539 0.052083 -0.000000 -0.000000 1.000000 108 155 209 255
0.208092 0.378227 0.052084 -0.000000 0.000000 1.000000 108 155 209 255
0.665859 0.256638 0.052084 -0.000000 -0.000000 1.000000 108 155 209 255
0.053046 0.734408 0.052084 -0.000000 -0.000000 1.000000 108 155 209 255
-0.532166 0.522098 0.052083 -0.000000 0.000000 1.000000 108 155 209 255
0.269594 0.328261 0.052084 -0.000000 -0.000000 1.000000 108 155 209 255
-0.102240 0.263143 0.052084 -0.000000 0.000000 1.000000 108 155 209 255
0.477576 0.292098 0.052084 -0.000000 -0.000000 1.000000 108 155 209 255
0.411080 0.178362 0.052084 -0.000000 -0.000000 1.000000 108 155 209 255
0.066167 0.441805 0.052084 -0.000000 0.000000 1.000000 108 155 209 255
0.613551 0.309586 0.052084 -0.000000 -0.000000 1.000000 108 155 209 255
0.425874 0.563141 0.041667 -0.000000 -0.000000 1.000000 85 126 173 255
-0.374396 0.539173 0.041667 -0.000000 0.000000 1.000000 85 126 173 255
0.558726 -0.077134 0.041667 -0.000000 -0.000000 1.000000 85 126 173 255
-0.772887 -0.298648 0.041667 -0.000000 -0.000000 1.000000 85 126 173 255
-0.730212 -0.283634 0.041667 -0.000000 -0.000000 1.000000 85 126 173 255
-0.774609 -0.265329 0.041667 -0.000000 -0.000000 1.000000 85 126 173 255
0.705871 -0.267148 0.041667 -0.000000 -0.000000 1.000000 85 126 173 255
0.747917 -0.201490 0.041667 -0.000000 -0.000000 1.000000 85 126 173 255
0.667521 -0.217625 0.041667 -0.000000 -0.000000 1.000000 85 126 173 255
-0.777327 -0.171069 0.041667 -0.000000 0.000000 1.000000 85 126 173 255
-0.638326 -0.184301 0.041667 -0.000000 0.000000 1.000000 85 126 173 255
-0.777424 -0.114114 0.041667 -0.000000 -0.000000 1.000000 85 126 173 255
-0.776239 -0.222138 0.041667 -0.000000 0.000000 1.000000 85 126 173 255
-0.692366 -0.242721 0.041667 -0.000000 0.000000 1.000000 85 126 173 255
-0.777327 -0.171069 0.041667 -0.000000 0.000000 1.000000 85 126 173 255
-0.777424 -0.114114 0.041667 -0.000000 -0.000000 1.000000 85 126 173 255
-0.613762 -0.157746 0.041667 -0.000000 -0.000000 1.000000 85 126 173 255
-0.776078 -0.053268 0.041667 -0.000000 -0.000000 1.000000 85 126 173 255
0.558726 -0.077134 0.041667 -0.000000 -0.000000 1.000000 85 126 173 255
0.754092 -0.027092 0.041667 -0.000000 -0.000000 1.000000 85 126 173 255
0.749913 0.042539 0.041667 -0.000000 -0.000000 1.000000 85 126 173 255
-0.613762 -0.157746 0.041667 -0.000000 0.000000 1.000000 85 126 173 255
-0.445908 0.479252 0.041667 -0.000000 -0.000000 1.000000 85 126 173 255
-0.491050 0.441427 0.041667 -0.000000 -0.000000 1.000000 85 126 173 255
-0.445908 0.479252 0.041667 -0.000000 -0.000000 1.000000 85 126 173 255
-0.374396 0.539173 0.041667 0.000006 -0.000007 1.000000 85 126 173 255
-0.406130 0.512583 0.041667 0.022623 -0.026999 0.999379 85 126 173 255
0.645923 -0.189735 0.041667 -0.000000 0.000000 1.000000 85 126 173 255
0.747917 -0.201490 0.041667 -0.000000 0.000000 1.000000 85 126 173 255
0.752100 -0.150478 0.041667 -0.000000 0.000000 1.000000 85 126 173 255
0.705871 -0.267148 0.041667 -0.000000 0.000000 1.000000 85 126 173 255
0.729689 -0.297905 0.041667 -0.000000 0.000000 1.000000 85 126 173 255
0.742934 -0.243553 0.041667 -0.000000 0.000000 1.000000 85 126 173 255
0.585975 -0.112322 0.041667 -0.000000 0.000000 1.000000 85 126 173 255
0.754092 -0.027092 0.041667 -0.000000 0.000000 1.000000 85 126 173 255
0.558726 -0.077134 0.041667 -0.000000 0.000000 1.000000 85 126 173 255
-0.776239 -0.222138 0.041667 -0.000000 -0.000000 1.000000 85 126 173 255
-0.774609 -0.265329 0.041667 -0.000000 -0.000000 1.000000 85 126 173 255
-0.730212 -0.283634 0.041667 -0.000000 -0.000000 1.000000 85 126 173 255
-0.631839 0.323458 0.041667 0.000006 -0.000008 1.000000 85 126 173 255
-0.538874 0.401355 0.041667 -0.000000 0.000000 1.000000 85 126 173 255
-0.586697 0.361283 0.041667 0.028733 -0.034292 0.998999 85 126 173 255
-0.767258 0.072126 0.041667 -0.000000 -0.000000 1.000000 85 126 173 255
-0.613762 -0.157746 0.041667 -0.000000 -0.000000 1.000000 85 126 173 255
-0.758884 0.132687 0.041667 -0.000000 -0.000000 1.000000 85 126 173 255
-0.776078 -0.053268 0.041667 -0.000000 0.000000 1.000000 85 126 173 255
-0.767258 0.072126 0.041667 -0.000000 0.000000 1.000000 85 126 173 255
-0.772839 0.009477 0.041667 0.000000 0.000000 1.000000 85 126 173 255
0.726239 0.190820 0.041667 -0.000000 0.000000 1.000000 85 126 173 255
0.704756 0.266729 0.041667 -0.000000 0.000000 1.000000 85 126 173 255
0.558726 -0.077134 0.041667 -0.000000 0.000000 1.000000 85 126 173 255
0.754490 -0.091888 0.041667 -0.000000 -0.000000 1.000000 85 126 173 255
0.585975 -0.112322 0.041667 -0.000000 -0.000000 1.000000 85 126 173 255
0.624326 -0.161846 0.041667 -0.000000 -0.000000 1.000000 85 126 173 255
-0.613762 -0.157746 0.041667 -0.000000 0.000000 1.000000 85 126 173 255
-0.777424 -0.114114 0.041667 -0.000000 0.000000 1.000000 85 126 173 255
-0.638326 -0.184301 0.041667 -0.000000 0.000000 1.000000 85 126 173 255
0.749913 0.042539 0.041667 -0.000000 -0.000000 1.000000 85 126 173 255
0.726239 0.190820 0.041667 -0.000000 0.000000 1.000000 85 126 173 255
0.558726 -0.077134 0.041667 -0.000000 -0.000000 1.000000 85 126 173 255
-0.538874 0.401355 0.041667 -0.000000 0.000000 1.000000 85 126 173 255
-0.613762 -0.157746 0.041667 -0.000000 0.000000 1.000000 85 126 173 255
-0.491050 0.441427 0.041667 -0.000000 0.000000 1.000000 85 126 173 255
0.704756 0.266729 0.041667 -0.000000 -0.000000 1.000000 85 126 173 255
0.425874 0.563141 0.041667 -0.000000 -0.000000 1.000000 85 126 173 255
0.558726 -0.077134 0.041667 -0.000000 -0.000000 1.000000 85 126 173 255
-0.631839 0.323458 0.041667 -0.000000 -0.000000 1.000000 85 126 173 255
-0.758884 0.132687 0.041667 -0.000000 0.000000 1.000000 85 126 173 255
-0.613762 -0.157746 0.041667 -0.000000 0.000000 1.000000 85 126 173 255
-0.731956 0.239569 0.041667 -0.000000 0.000000 1.000000 85 126 173 255
-0.747267 0.189165 0.041667 -0.000000 0.000000 1.000000 85 126 173 255
-0.703351 0.263537 0.041667 -0.000000 0.000000 1.000000 85 126 173 255
0.624326 -0.161846 0.041667 -0.000000 0.000000 1.000000 85 126 173 255
0.752100 -0.150478 0.041667 -0.000000 0.000000 1.000000 85 126 173 255
0.754490 -0.091888 0.041667 -0.000000 0.000000 1.000000 85 126 173 255
-0.671618 0.290127 0.041667 -0.000000 0.000000 1.000000 85 126 173 255
-0.747267 0.189165 0.041667 -0.000000 0.000000 1.000000 85 126 173 255
-0.758884 0.132687 0.041667 -0.000000 0.000000 1.000000 85 126 173 255
-0.345792 0.563141 0.041667 -0.000000 0.000000 1.000000 85 126 173 255
0.742934 -0.243553 0.041667 -0.000000 -0.000000 1.000000 85 126 173 255
-0.692366 -0.242721 0.041667 -0.000000 0.000000 1.000000 85 126 173 255
-0.730212 -0.283634 0.041667 -0.000000 0.000000 1.000000 85 126 173 255
0.558726 -0.077134 0.041667 -0.000000 0.000000 1.000000 85 126 173 255
0.558726 -0.077134 0.041667 -0.000000 -0.000000 1.000000 85 126 173 255
0.667521 -0.217625 0.041667 -0.000000 0.000000 1.000000 85 126 173 255
0.754490 -0.091888 0.041667 -0.000000 -0.000000 1.000000 85 126 173 255
-0.613762 -0.157746 0.041667 -0.000000 0.000000 1.000000 85 126 173 255
-0.613762 -0.157746 0.041667 -0.000000 0.000000 1.000000 85 126 173 255
0.740960 0.115633 0.041667 0.000000 0.000000 1.000000 85 126 173 255
0.675518 0.341987 0.041667 -0.000000 -0.000000 1.000000 85 126 173 255
-0.671618 0.290127 0.041667 -0.000000 -0.000000 1.000000 85 126 173 255
0.645923 -0.189735 0.041667 -0.000000 0.000000 1.000000 85 126 173 255
-0.703351 0.263537 0.041667 -0.000000 0.000000 1.000000 85 126 173 255
0.997456 -0.416526 0.031251 -0.000000 -0.000000 1.000000 53 76 109 255
0.416825 0.997417 0.031250 -0.000000 0.000000 1.000000 53 76 109 255
0.410588 -0.999617 0.031250 -0.000000 -0.000000 1.000000 53 76 109 255
-0.410548 1.000000 0.031250 -0.000000 -0.000000 1.000000 53 76 109 255
0.410588 -0.999617 0.031250 -0.000000 -0.000000 1.000000 53 76 109 255
0.416825 0.997417 0.031250 -0.000000 -0.000000 1.000000 53 76 109 255
-0.997416 0.416908 0.031250 -0.000000 -0.000000 1.000000 53 76 109 255
-0.416785 -0.997034 0.031250 -0.000000 0.000000 1.000000 53 76 109 255
-0.410548 1.000000 0.031250 -0.000000 -0.000000 1.000000 53 76 109 255
1.000040 0.410672 0.031251 -0.000000 0.000000 1.000000 53 76 109 255
-0.416785 -0.997034 0.031250 -0.000000 -0.000000 1.000000 53 76 109 255
-1.000000 -0.410290 0.031250 -0.000000 0.000000 1.000000 53 76 109 255
3 0 1 2
3 3 4 5
3 6 7 8
3 9 10 11
3 12 13 14
3 15 16 17
3 18 19 20
3 21 22 23
3 24 25 26
3 27 28 29
3 30 31 32
3 33 34 35
3 36 37 38
3 39 40 41
3 42 43 44
3 45 46 47
3 48 49 50
3 51 52 53
3 54 55 56
3 57 58 59
3 60 61 62
3 63 64 65
3 66 67 68
3 69 70 71
3 72 73 74
3 75 76 77
3 78 79 80
3 81 82 83
3 84 85 86
3 87 88 89
3 90 91 92
3 93 94 95
3 96 97 98
3 99 100 101
3 102 103 104
3 105 106 107
3 108 109 110
3 111 112 113
3 114 115 116
3 0 117 1
3 3 118 4
3 9 119 10
3 15 120 16
3 24 121 25
3 30 122 31
3 33 123 34
3 39 124 40
3 42 125 43
3 45 126 46
3 48 127 49
3 51 128 52
3 54 129 55
3 57 130 58
3 63 131 64
3 66 132 67
3 69 133 70
3 72 134 73
3 75 135 76
3 84 136 85
3 87 137 88
3 90 138 91
3 93 139 94
3 96 140 97
3 108 141 109
3 111 142 112
3 114 143 115
3 144 145 146
3 147 148 149
3 150 151 152
3 153 154 155
3 156 157 158
3 159 160 161
3 162 163 164
3 165 166 167
3 168 169 170
3 171 172 173
3 174 175 176
3 177 178 179
3 180 181 182
3 183 184 185
3 186 187 188
3 189 190 191
3 192 193 194
3 195 196 197
3 198 199 200
3 201 202 203
3 204 205 206
3 207 208 209
3 210 211 212
3 213 214 215
3 216 217 218
3 219 220 221
3 222 223 224
3 225 226 227
3 228 229 230
3 231 232 233
3 144 234 145
3 147 235 148
3 153 236 154
3 156 237 157
3 162 238 163
3 168 239 169
3 177 240 178
3 186 241 187
3 192 242 193
3 195 243 196
3 198 244 199
3 201 245 202
3 204 246 205
3 207 247 208
3 210 248 211
3 213 249 214
3 219 250 220
3 225 251 226
3 228 252 229
3 231 253 232
3 254 255 256
3 257 258 259
3 260 261 262
3 263 264 265
3 266 267 268
3 269 270 271
3 272 273 274
3 275 276 277
3 278 279 280
3 281 282 283
3 284 285 286
3 287 288 289
3 290 291 292
3 293 294 295
3 296 297 298
3 299 300 301
3 302 303 304
3 305 306 307
3 308 309 310
3 311 312 313
3 314 315 316
3 317 318 319
3 320 321 322
3 323 324 325
3 326 327 328
3 329 330 331
3 254 332 255
3 260 333 261
3 263 334 264
3 266 335 267
3 275 336 276
3 278 337 279
3 281 338 282
3 287 339 288
3 293 340 294
3 299 341 300
3 311 342 312
3 317 343 318
3 320 344 321
3 326 345 327
3 329 346 330
3 347 348 349
3 350 351 352
3 353 354 355
3 347 356 348
3 350 357 351
3 353 358 354
