<?xml version="1.0" encoding="UTF-8" standalone="no"?>
<!-- Created with Inkscape (http://www.inkscape.org/) -->

<svg
        width="160cm"
        height="160cm"
        viewBox="0 0 160 160"
        version="1.1"
        _id="SVGRoot"
        id="svg26"
        sodipodi:docname="water.svg"
        inkscape:version="1.2.2 (b0a8486541, 2022-12-01)"
        xmlns:inkscape="http://www.inkscape.org/namespaces/inkscape"
        xmlns:sodipodi="http://sodipodi.sourceforge.net/DTD/sodipodi-0.dtd"
        xmlns="http://www.w3.org/2000/svg"
>
    <sodipodi:namedview
            id="namedview22"
            pagecolor="#505050"
            bordercolor="#eeeeee"
            borderopacity="1"
            inkscape:showpageshadow="0"
            inkscape:pageopacity="0"
            inkscape:pagecheckerboard="0"
            inkscape:deskcolor="#505050"
            inkscape:document-units="cm"
            showgrid="false"
            inkscape:zoom="0.079999999"
            inkscape:cx="2275"
            inkscape:cy="3068.75"
            inkscape:window-width="1870"
            inkscape:window-height="1051"
            inkscape:window-x="1920"
            inkscape:window-y="0"
            inkscape:window-maximized="1"
            inkscape:current-layer="g2166"/>
    <defs
            _id="defs402"
            id="defs8"/>
    <path
            id="path953"
            style="display:inline;fill:#354c6d;stroke-linecap:square;paint-order:stroke fill markers;stop-color:#000000;fill-opacity:1"
            inkscape:transform-center-x="1.007874e-05"
            inkscape:transform-center-y="-1.007874e-05"
            d="M 159.99998,112.84478 113.34375,159.7933 47.155202,159.99998 0.20668688,113.34375 7.720728e-6,47.155202 46.656235,0.20668688 112.84478,7.720728e-6 159.7933,46.656235 Z"/>
    <g
            id="g2166"
            style="display:inline;fill:#6c9bd1;fill-opacity:1"
            transform="matrix(0.78660323,0,0,0.78660323,17.071745,12.908781)">
        <path
                id="path4770"
                style="display:inline;fill:#557ead;fill-opacity:1;stroke:none;stroke-width:0.0300632px;stroke-linecap:butt;stroke-linejoin:miter;stroke-opacity:1"
                d="m 1.5895769,51.938921 c 0,0 -3.0730928,38.701369 3.9676576,57.703489 l 39.2733585,32.91464 h 78.479257 l 25.38904,-22.49641 c 13.60634,-30.303499 5.85827,-65.542188 5.85827,-65.542188 L 136.82097,77.426556 17.577701,69.226519 Z"
                sodipodi:nodetypes="ccccccccc"/>
        <path
                id="path285-9"
                style="display:inline;fill:#6c9bd1;fill-opacity:1;stroke-width:1.25043;stroke-linecap:square;paint-order:stroke fill markers;stop-color:#000000"
                d="m 5.5572344,109.64241 c 29.8500526,69.44764 133.4163156,67.06894 148.8854956,-6.85929 0,0 -8.76977,14.38445 -27.50043,25.61146 8.66359,-63.497153 -8.95742,-3.71825 -40.215068,1.81981 10.535928,-68.235374 -27.650248,8.59662 -43.161005,-5.53806 19.815951,-62.889433 -18.372313,1.4234 -38.0089926,-15.03392 z"
                sodipodi:nodetypes="cccccc"/>
        <path
                id="path1052-3"
                style="display:inline;fill:#6c9bd1;fill-opacity:1;stroke:none;stroke-width:0.0136964px;stroke-linecap:butt;stroke-linejoin:miter;stroke-opacity:1"
                d="m 52.750512,73.57311 c 1.544736,17.150073 40.074408,15.592749 54.554888,4.88767 20.61244,16.02662 46.33521,2.309423 47.25176,-23.942328 0,0 -13.99584,10.983912 -34.53407,15.648992 C 114.10897,-7.3482545 85.535951,101.55754 72.558448,63.100569 46.83286,-13.133516 59.170828,102.81694 1.5895769,51.938921 10.09471,84.270599 23.615622,95.025727 52.750512,73.57311 Z"
                sodipodi:nodetypes="ccccscc"/>
    </g>
</svg>
