ply
format ascii 1.0
comment Created by Blender 3.6.0 - www.blender.org
element vertex 509
property float x
property float y
property float z
property float nx
property float ny
property float nz
property uchar red
property uchar green
property uchar blue
property uchar alpha
element face 227
property list uchar uint vertex_indices
end_header
-0.232796 -0.045609 0.062500 -0.000000 0.000000 1.000000 113 162 219 255
-0.102935 0.006743 0.062500 -0.000000 0.000000 1.000000 113 162 219 255
-0.153734 -0.004241 0.062500 -0.000000 0.000000 1.000000 113 162 219 255
-0.507076 -0.005793 0.062500 -0.000000 -0.000000 1.000000 113 162 219 255
-0.633208 -0.048427 0.062500 -0.000000 -0.000000 1.000000 113 162 219 255
-0.540254 -0.197942 0.062500 -0.000000 -0.000000 1.000000 113 162 219 255
-0.271216 -0.426051 0.062500 -0.000000 0.000000 1.000000 113 162 219 255
-0.129206 -0.368008 0.062500 -0.000000 0.000000 1.000000 113 162 219 255
-0.304599 -0.366306 0.062500 -0.000000 0.000000 1.000000 113 162 219 255
-0.304599 -0.366306 0.062500 -0.000000 -0.000000 1.000000 113 162 219 255
-0.129206 -0.368008 0.062500 -0.000000 -0.000000 1.000000 113 162 219 255
-0.344508 -0.301368 0.062500 -0.000000 -0.000000 1.000000 113 162 219 255
0.069528 0.004814 0.062500 -0.000000 -0.000000 1.000000 113 162 219 255
0.045428 -0.154781 0.062500 -0.000000 0.000000 1.000000 113 162 219 255
0.126759 -0.006369 0.062500 -0.000000 -0.000000 1.000000 113 162 219 255
-0.748974 -0.252714 0.062500 -0.000000 0.000000 1.000000 113 162 219 255
-0.770969 -0.327695 0.062500 -0.000000 0.000000 1.000000 113 162 219 255
-0.643132 -0.234778 0.062500 -0.000000 0.000000 1.000000 113 162 219 255
0.139013 -0.262550 0.062500 -0.000000 -0.000000 1.000000 113 162 219 255
0.186247 -0.327222 0.062500 -0.000000 -0.000000 1.000000 113 162 219 255
0.374594 -0.302723 0.062500 -0.000000 -0.000000 1.000000 113 162 219 255
0.653699 -0.091604 0.062501 -0.000000 0.000000 1.000000 113 162 219 255
0.571346 -0.208763 0.062501 -0.000000 0.000000 1.000000 113 162 219 255
0.685224 -0.134530 0.062501 -0.000000 0.000000 1.000000 113 162 219 255
0.709650 -0.184352 0.062501 -0.000000 -0.000000 1.000000 113 162 219 255
0.689963 -0.272643 0.062501 -0.000000 -0.000000 1.000000 113 162 219 255
0.725956 -0.240483 0.062501 -0.000000 -0.000000 1.000000 113 162 219 255
0.689963 -0.272643 0.062501 -0.000000 0.000000 1.000000 113 162 219 255
0.733121 -0.302336 0.062501 -0.000000 0.000000 1.000000 113 162 219 255
0.725956 -0.240483 0.062501 -0.000000 0.000000 1.000000 113 162 219 255
0.232035 -0.383895 0.062500 -0.000000 0.000000 1.000000 113 162 219 255
0.374594 -0.302723 0.062500 -0.000000 0.000000 1.000000 113 162 219 255
0.186247 -0.327222 0.062500 -0.000000 0.000000 1.000000 113 162 219 255
-0.336398 -0.068829 0.062500 -0.000000 0.000000 1.000000 113 162 219 255
-0.458649 -0.204931 0.062500 -0.000000 -0.000000 1.000000 113 162 219 255
-0.394629 -0.243492 0.062500 -0.000000 -0.000000 1.000000 113 162 219 255
0.639069 -0.242614 0.062501 -0.000000 -0.000000 1.000000 113 162 219 255
0.689963 -0.272643 0.062501 -0.000000 -0.000000 1.000000 113 162 219 255
0.709650 -0.184352 0.062501 -0.000000 -0.000000 1.000000 113 162 219 255
0.069528 0.004814 0.062500 -0.000000 0.000000 1.000000 113 162 219 255
-0.047403 0.011696 0.062500 -0.000000 0.000000 1.000000 113 162 219 255
0.001689 -0.134471 0.062500 -0.000000 -0.000000 1.000000 113 162 219 255
-0.643132 -0.234778 0.062500 -0.000000 -0.000000 1.000000 113 162 219 255
-0.667041 -0.084428 0.062500 -0.000000 -0.000000 1.000000 113 162 219 255
-0.697372 -0.130717 0.062500 -0.000000 -0.000000 1.000000 113 162 219 255
0.685224 -0.134530 0.062501 -0.000000 -0.000000 1.000000 113 162 219 255
0.639069 -0.242614 0.062501 -0.000000 0.000000 1.000000 113 162 219 255
0.709650 -0.184352 0.062501 -0.000000 -0.000000 1.000000 113 162 219 255
0.616096 -0.056163 0.062501 -0.000000 -0.000000 1.000000 113 162 219 255
0.573438 -0.028793 0.062501 -0.000000 -0.000000 1.000000 113 162 219 255
0.488830 -0.175816 0.062500 -0.000000 -0.000000 1.000000 113 162 219 255
-0.232796 -0.045609 0.062500 -0.000000 -0.000000 1.000000 113 162 219 255
-0.073151 -0.217968 0.062500 -0.000000 0.000000 1.000000 113 162 219 255
0.001689 -0.134471 0.062500 -0.000000 0.000000 1.000000 113 162 219 255
-0.073151 -0.217968 0.062500 -0.000000 -0.000000 1.000000 113 162 219 255
-0.344508 -0.301368 0.062500 -0.000000 -0.000000 1.000000 113 162 219 255
-0.129206 -0.368008 0.062500 -0.000000 -0.000000 1.000000 113 162 219 255
0.616096 -0.056163 0.062501 -0.000000 -0.000000 1.000000 113 162 219 255
0.571346 -0.208763 0.062501 -0.000000 0.000000 1.000000 113 162 219 255
0.653699 -0.091604 0.062501 -0.000000 -0.000000 1.000000 113 162 219 255
-0.455616 -0.014580 0.062500 -0.000000 0.000000 1.000000 113 162 219 255
-0.458649 -0.204931 0.062500 -0.000000 0.000000 1.000000 113 162 219 255
-0.398843 -0.035471 0.062500 -0.000000 0.000000 1.000000 113 162 219 255
0.139013 -0.262550 0.062500 -0.000000 -0.000000 1.000000 113 162 219 255
0.393556 -0.148496 0.062500 -0.000000 -0.000000 1.000000 113 162 219 255
0.228332 -0.042586 0.062500 -0.000000 -0.000000 1.000000 113 162 219 255
-0.633208 -0.048427 0.062500 -0.000000 0.000000 1.000000 113 162 219 255
-0.667041 -0.084428 0.062500 -0.000000 0.000000 1.000000 113 162 219 255
-0.540254 -0.197942 0.062500 -0.000000 0.000000 1.000000 113 162 219 255
0.228332 -0.042586 0.062500 -0.000000 -0.000000 1.000000 113 162 219 255
0.091638 -0.201272 0.062500 -0.000000 -0.000000 1.000000 113 162 219 255
0.139013 -0.262550 0.062500 -0.000000 -0.000000 1.000000 113 162 219 255
0.526744 -0.010081 0.062500 -0.000000 -0.000000 1.000000 113 162 219 255
0.442660 -0.161157 0.062500 -0.000000 -0.000000 1.000000 113 162 219 255
0.488830 -0.175816 0.062500 -0.000000 -0.000000 1.000000 113 162 219 255
0.320053 -0.033573 0.062500 -0.000000 0.000000 1.000000 113 162 219 255
0.425339 -0.000985 0.062500 -0.000000 0.000000 1.000000 113 162 219 255
0.372671 -0.011775 0.062500 -0.000000 -0.000000 1.000000 113 162 219 255
0.393556 -0.148496 0.062500 -0.000000 -0.000000 1.000000 113 162 219 255
0.320053 -0.033573 0.062500 -0.000000 -0.000000 1.000000 113 162 219 255
0.228332 -0.042586 0.062500 -0.000000 -0.000000 1.000000 113 162 219 255
0.232035 -0.383895 0.062500 -0.000000 0.000000 1.000000 113 162 219 255
0.275069 -0.421175 0.062500 -0.000000 0.000000 1.000000 113 162 219 255
0.347655 -0.391982 0.062500 -0.000000 0.000000 1.000000 113 162 219 255
0.425339 -0.000985 0.062500 -0.000000 0.000000 1.000000 113 162 219 255
0.442660 -0.161157 0.062500 -0.000000 0.000000 1.000000 113 162 219 255
0.477038 -0.000616 0.062500 -0.000000 -0.000000 1.000000 113 162 219 255
0.180388 -0.022277 0.062500 -0.000000 -0.000000 1.000000 113 162 219 255
0.091638 -0.201272 0.062500 -0.000000 -0.000000 1.000000 113 162 219 255
0.228332 -0.042586 0.062500 -0.000000 -0.000000 1.000000 113 162 219 255
-0.540254 -0.197942 0.062500 -0.000000 0.000000 1.000000 113 162 219 255
-0.455616 -0.014580 0.062500 -0.000000 -0.000000 1.000000 113 162 219 255
-0.507076 -0.005793 0.062500 -0.000000 -0.000000 1.000000 113 162 219 255
-0.724562 -0.186934 0.062500 -0.000000 0.000000 1.000000 113 162 219 255
-0.643132 -0.234778 0.062500 -0.000000 0.000000 1.000000 113 162 219 255
-0.697372 -0.130717 0.062500 -0.000000 0.000000 1.000000 113 162 219 255
0.573438 -0.028793 0.062501 -0.000000 -0.000000 1.000000 113 162 219 255
0.526744 -0.010081 0.062500 -0.000000 -0.000000 1.000000 113 162 219 255
0.488830 -0.175816 0.062500 -0.000000 -0.000000 1.000000 113 162 219 255
0.180388 -0.022277 0.062500 -0.000000 0.000000 1.000000 113 162 219 255
0.126759 -0.006369 0.062500 -0.000000 0.000000 1.000000 113 162 219 255
0.045428 -0.154781 0.062500 -0.000000 0.000000 1.000000 113 162 219 255
0.001689 -0.134471 0.062500 -0.000000 -0.000000 1.000000 113 162 219 255
-0.047403 0.011696 0.062500 -0.000000 -0.000000 1.000000 113 162 219 255
-0.102935 0.006743 0.062500 -0.000000 -0.000000 1.000000 113 162 219 255
-0.394629 -0.243492 0.062500 -0.000000 0.000000 1.000000 113 162 219 255
-0.267917 -0.115016 0.062500 -0.000000 -0.000000 1.000000 113 162 219 255
-0.336398 -0.068829 0.062500 -0.000000 -0.000000 1.000000 113 162 219 255
-0.271216 -0.426051 0.062500 -0.000000 -0.000000 1.000000 113 162 219 255
-0.240672 -0.468349 0.062500 -0.000000 -0.000000 1.000000 113 162 219 255
-0.173354 -0.451582 0.062500 -0.000000 -0.000000 1.000000 113 162 219 255
0.001689 -0.134471 0.062500 -0.000000 0.000000 1.000000 113 162 219 255
-0.173354 -0.451582 0.062500 -0.000000 -0.000000 1.000000 113 162 219 255
0.001689 -0.134471 0.062500 -0.000000 0.000000 1.000000 113 162 219 255
0.347655 -0.391982 0.062500 -0.000000 0.000000 1.000000 113 162 219 255
-0.398843 -0.035471 0.062500 -0.000000 0.000000 1.000000 113 162 219 255
0.010780 0.010944 0.062500 -0.000000 0.000001 1.000000 113 162 219 255
-0.540254 -0.197942 0.062500 -0.000000 0.000000 1.000000 113 162 219 255
0.571346 -0.208763 0.062501 -0.000000 0.000000 1.000000 113 162 219 255
-0.267917 -0.115016 0.062500 -0.000000 -0.000000 1.000000 113 162 219 255
-0.267917 -0.115016 0.062500 -0.000000 0.000000 1.000000 113 162 219 255
0.488830 -0.175816 0.062500 -0.000000 0.000000 1.000000 113 162 219 255
0.374594 -0.302723 0.062500 -0.000000 -0.000000 1.000000 113 162 219 255
0.477038 -0.000616 0.062500 -0.000000 -0.000000 1.000000 113 162 219 255
0.393556 -0.148496 0.062500 -0.000000 0.000000 1.000000 113 162 219 255
0.393556 -0.148496 0.062500 -0.000000 0.000000 1.000000 113 162 219 255
0.045428 -0.154781 0.062500 -0.000000 -0.000000 1.000000 113 162 219 255
-0.458649 -0.204931 0.062500 -0.000000 0.000000 1.000000 113 162 219 255
-0.748974 -0.252714 0.062500 -0.000000 0.000000 1.000000 113 162 219 255
-0.344508 -0.301368 0.062500 -0.000000 0.000000 1.000000 113 162 219 255
0.259548 0.965746 0.031250 -0.000000 0.000000 1.000000 49 63 88 255
0.196025 -0.980229 0.031250 -0.000000 0.000000 1.000000 49 63 88 255
0.259548 -0.965363 0.031250 -0.000000 0.000000 1.000000 49 63 88 255
0.196025 -0.980229 0.031250 -0.000000 -0.000000 1.000000 49 63 88 255
0.066066 -0.997436 0.031250 -0.000000 -0.000000 1.000000 49 63 88 255
0.131466 -0.990947 0.031250 -0.000000 -0.000000 1.000000 49 63 88 255
-0.066027 -0.997436 0.031250 -0.000000 0.000000 1.000000 49 63 88 255
-0.195985 -0.980228 0.031250 -0.000000 0.000000 1.000000 49 63 88 255
-0.131427 -0.990946 0.031250 -0.000000 0.000000 1.000000 49 63 88 255
-0.066027 0.997819 0.031250 -0.000000 -0.000000 1.000000 49 63 88 255
-0.195985 0.980611 0.031250 -0.000000 -0.000000 1.000000 49 63 88 255
-0.066027 -0.997436 0.031250 -0.000000 0.000000 1.000000 49 63 88 255
0.608061 -0.793576 0.031251 -0.000001 0.000000 1.000000 49 63 88 255
0.499400 -0.866034 0.031250 -0.000000 0.000000 1.000000 49 63 88 255
0.554831 -0.831638 0.031251 -0.000000 -0.000000 1.000000 49 63 88 255
0.997858 -0.065841 0.031251 -0.000000 0.000000 1.000000 49 63 88 255
0.923917 -0.382419 0.031251 -0.000000 -0.000000 1.000000 49 63 88 255
0.946842 -0.321562 0.031251 -0.000000 -0.000000 1.000000 49 63 88 255
-0.499360 -0.866034 0.031250 -0.000000 0.000000 1.000000 49 63 88 255
-0.658856 0.752312 0.031250 -0.000000 0.000000 1.000000 49 63 88 255
-0.658856 -0.751930 0.031250 -0.000000 0.000000 1.000000 49 63 88 255
-0.980607 0.196155 0.031250 -0.000000 -0.000000 1.000000 49 63 88 255
-0.946802 0.321945 0.031250 -0.000000 0.000000 1.000000 49 63 88 255
-0.965739 0.259665 0.031250 -0.000001 0.000000 1.000000 49 63 88 255
0.897086 -0.441657 0.031251 -0.000000 0.000000 1.000000 49 63 88 255
0.923917 0.382801 0.031251 -0.000000 0.000000 1.000000 49 63 88 255
0.897086 0.442040 0.031251 -0.000000 0.000000 1.000000 49 63 88 255
0.897086 0.442040 0.031251 -0.000000 0.000000 1.000000 49 63 88 255
0.752300 0.658928 0.031251 -0.000000 0.000000 1.000000 49 63 88 255
0.707141 0.707162 0.031251 -0.000000 0.000000 1.000000 49 63 88 255
-0.997818 -0.065842 0.031250 -0.000000 -0.000000 1.000000 49 63 88 255
-0.946802 -0.321562 0.031250 -0.000000 -0.000000 1.000000 49 63 88 255
-1.000000 0.000191 0.031250 -0.000000 -0.000000 1.000000 49 63 88 255
-0.608022 0.793958 0.031250 -0.000001 0.000000 1.000000 49 63 88 255
-0.499360 0.866417 0.031250 -0.000000 0.000000 1.000000 49 63 88 255
-0.554792 0.832020 0.031250 -0.000000 -0.000000 1.000000 49 63 88 255
1.000040 0.000191 0.031251 -0.000000 0.000000 1.000000 49 63 88 255
0.923917 0.382801 0.031251 -0.000000 0.000000 1.000000 49 63 88 255
0.923917 -0.382419 0.031251 -0.000000 0.000000 1.000000 49 63 88 255
0.997858 -0.065841 0.031251 -0.000000 -0.000000 1.000000 49 63 88 255
0.980647 -0.195772 0.031251 -0.000000 -0.000000 1.000000 49 63 88 255
0.991367 -0.131227 0.031251 -0.000000 -0.000000 1.000000 49 63 88 255
-0.259508 0.965746 0.031250 -0.000000 0.000000 1.000000 49 63 88 255
-0.259508 -0.965363 0.031250 -0.000000 0.000000 1.000000 49 63 88 255
-0.195985 -0.980228 0.031250 -0.000000 0.000000 1.000000 49 63 88 255
-1.000000 0.000191 0.031250 -0.000000 0.000000 1.000000 49 63 88 255
-0.923878 -0.382419 0.031250 -0.000000 0.000000 1.000000 49 63 88 255
-0.923878 0.382801 0.031250 -0.000000 0.000000 1.000000 49 63 88 255
0.321841 0.946813 0.031250 -0.000000 0.000000 1.000000 49 63 88 255
0.259548 -0.965363 0.031250 -0.000000 0.000000 1.000000 49 63 88 255
0.321841 -0.946431 0.031250 -0.000000 0.000000 1.000000 49 63 88 255
-0.866389 -0.499084 0.031250 -0.000000 -0.000000 1.000000 49 63 88 255
-0.793915 -0.607722 0.031250 -0.000001 -0.000000 1.000000 49 63 88 255
-0.752260 -0.658546 0.031250 -0.000001 -0.000000 1.000000 49 63 88 255
0.707141 0.707162 0.031251 -0.000000 0.000000 1.000000 49 63 88 255
0.897086 -0.441657 0.031251 -0.000000 0.000000 1.000000 49 63 88 255
0.897086 0.442040 0.031251 -0.000000 0.000000 1.000000 49 63 88 255
0.499400 0.866417 0.031250 -0.000000 0.000000 1.000000 49 63 88 255
0.441962 -0.896686 0.031250 -0.000000 0.000000 1.000000 49 63 88 255
0.499400 -0.866034 0.031250 -0.000000 0.000000 1.000000 49 63 88 255
-0.991327 0.131610 0.031250 -0.000000 -0.000000 1.000000 49 63 88 255
-0.997818 0.066224 0.031250 -0.000000 -0.000000 1.000000 49 63 88 255
-0.980607 0.196155 0.031250 -0.000000 -0.000000 1.000000 49 63 88 255
0.991367 0.131610 0.031251 -0.000000 0.000000 1.000000 49 63 88 255
0.965778 0.259664 0.031251 -0.000000 0.000000 1.000000 49 63 88 255
0.997858 0.066224 0.031251 -0.000000 0.000000 1.000000 49 63 88 255
0.980647 -0.195772 0.031251 -0.000000 -0.000000 1.000000 49 63 88 255
0.946842 -0.321562 0.031251 -0.000000 0.000000 1.000000 49 63 88 255
0.965778 -0.259282 0.031251 -0.000001 0.000000 1.000000 49 63 88 255
0.946842 0.321945 0.031251 -0.000000 -0.000000 1.000000 49 63 88 255
0.997858 0.066224 0.031251 -0.000000 -0.000000 1.000000 49 63 88 255
0.965778 0.259664 0.031251 -0.000000 -0.000000 1.000000 49 63 88 255
-0.321802 0.946813 0.031250 -0.000000 0.000000 1.000000 49 63 88 255
-0.321802 -0.946430 0.031250 -0.000000 0.000000 1.000000 49 63 88 255
-0.259508 -0.965363 0.031250 -0.000000 0.000000 1.000000 49 63 88 255
-0.382671 -0.923511 0.031250 -0.000000 0.000000 1.000000 49 63 88 255
-0.499360 0.866417 0.031250 -0.000000 -0.000000 1.000000 49 63 88 255
-0.441922 -0.896685 0.031250 -0.000000 0.000000 1.000000 49 63 88 255
-0.752260 0.658928 0.031250 -0.000000 -0.000000 1.000000 49 63 88 255
-0.897047 0.442040 0.031250 -0.000000 -0.000000 1.000000 49 63 88 255
-0.707101 0.707162 0.031250 -0.000000 -0.000000 1.000000 49 63 88 255
0.499400 0.866417 0.031250 -0.000000 0.000000 1.000000 49 63 88 255
0.658896 -0.751930 0.031251 -0.000000 0.000000 1.000000 49 63 88 255
0.658896 0.752312 0.031251 -0.000000 0.000000 1.000000 49 63 88 255
0.897086 -0.441657 0.031251 -0.000000 -0.000000 1.000000 49 63 88 255
0.752300 -0.658546 0.031251 -0.000000 -0.000000 1.000000 49 63 88 255
0.866428 -0.499084 0.031251 -0.000000 -0.000000 1.000000 49 63 88 255
-0.923878 0.382801 0.031250 -0.000000 -0.000000 1.000000 49 63 88 255
-0.997818 0.066224 0.031250 -0.000000 0.000000 1.000000 49 63 88 255
-1.000000 0.000191 0.031250 -0.000000 0.000000 1.000000 49 63 88 255
0.793955 0.608104 0.031251 -0.000001 -0.000000 1.000000 49 63 88 255
0.866428 0.499466 0.031251 -0.000000 -0.000000 1.000000 49 63 88 255
0.832024 0.554885 0.031251 -0.000000 0.000000 1.000000 49 63 88 255
0.066067 0.997819 0.031250 -0.000000 0.000000 1.000000 49 63 88 255
0.000020 -0.999617 0.031250 -0.000000 0.000000 1.000000 49 63 88 255
0.066066 -0.997436 0.031250 -0.000000 0.000000 1.000000 49 63 88 255
-0.441922 -0.896685 0.031250 -0.000000 0.000000 1.000000 49 63 88 255
-0.499360 0.866417 0.031250 -0.000000 0.000000 1.000000 49 63 88 255
-0.499360 -0.866034 0.031250 -0.000000 0.000000 1.000000 49 63 88 255
-0.752260 -0.658546 0.031250 -0.000000 0.000000 1.000000 49 63 88 255
-0.897047 -0.441657 0.031250 -0.000000 0.000000 1.000000 49 63 88 255
-0.866389 -0.499084 0.031250 -0.000000 0.000000 1.000000 49 63 88 255
-0.382671 0.923894 0.031250 -0.000000 0.000000 1.000000 49 63 88 255
-0.382671 -0.923511 0.031250 -0.000000 0.000000 1.000000 49 63 88 255
-0.321802 -0.946430 0.031250 -0.000000 0.000000 1.000000 49 63 88 255
-0.195985 -0.980228 0.031250 -0.000000 0.000000 1.000000 49 63 88 255
-0.195985 0.980611 0.031250 -0.000000 0.000000 1.000000 49 63 88 255
-0.259508 0.965746 0.031250 -0.000000 0.000000 1.000000 49 63 88 255
0.499400 0.866417 0.031250 -0.000000 -0.000000 1.000000 49 63 88 255
0.608061 0.793958 0.031251 -0.000001 -0.000000 1.000000 49 63 88 255
0.554831 0.832020 0.031251 -0.000000 0.000000 1.000000 49 63 88 255
-0.923878 -0.382419 0.031250 -0.000000 0.000000 1.000000 49 63 88 255
-0.897047 0.442040 0.031250 -0.000000 0.000000 1.000000 49 63 88 255
-0.923878 0.382801 0.031250 -0.000000 0.000000 1.000000 49 63 88 255
0.793955 -0.607722 0.031251 -0.000001 0.000000 1.000000 49 63 88 255
0.866428 -0.499084 0.031251 -0.000000 0.000000 1.000000 49 63 88 255
0.752300 -0.658546 0.031251 -0.000001 0.000000 1.000000 49 63 88 255
0.658896 -0.751930 0.031251 -0.000000 0.000000 1.000000 49 63 88 255
0.707141 0.707162 0.031251 -0.000000 0.000000 1.000000 49 63 88 255
0.658896 0.752312 0.031251 -0.000000 0.000000 1.000000 49 63 88 255
0.131466 0.991329 0.031250 -0.000000 -0.000000 1.000000 49 63 88 255
0.259548 0.965746 0.031250 -0.000000 -0.000000 1.000000 49 63 88 255
0.196025 0.980611 0.031250 -0.000000 -0.000001 1.000000 49 63 88 255
-0.793915 0.608104 0.031250 -0.000001 0.000000 1.000000 49 63 88 255
-0.866389 0.499466 0.031250 -0.000000 0.000000 1.000000 49 63 88 255
-0.752260 0.658928 0.031250 -0.000001 0.000000 1.000000 49 63 88 255
0.441962 0.897068 0.031250 -0.000000 0.000000 1.000000 49 63 88 255
0.382711 -0.923511 0.031250 -0.000000 0.000000 1.000000 49 63 88 255
0.441962 -0.896686 0.031250 -0.000000 0.000000 1.000000 49 63 88 255
0.259548 0.965746 0.031250 -0.000000 0.000000 1.000000 49 63 88 255
0.066066 -0.997436 0.031250 -0.000000 0.000000 1.000000 49 63 88 255
0.196025 -0.980229 0.031250 -0.000000 0.000000 1.000000 49 63 88 255
0.000020 1.000000 0.031250 -0.000000 0.000000 1.000000 49 63 88 255
-0.066027 -0.997436 0.031250 -0.000000 0.000000 1.000000 49 63 88 255
0.000020 -0.999617 0.031250 -0.000000 0.000000 1.000000 49 63 88 255
-0.707101 0.707162 0.031250 -0.000000 0.000000 1.000000 49 63 88 255
-0.658856 -0.751930 0.031250 -0.000000 0.000000 1.000000 49 63 88 255
-0.658856 0.752312 0.031250 -0.000000 0.000000 1.000000 49 63 88 255
-0.991327 -0.131227 0.031250 -0.000000 0.000000 1.000000 49 63 88 255
-0.965739 -0.259282 0.031250 -0.000000 0.000000 1.000000 49 63 88 255
-0.997818 -0.065842 0.031250 -0.000000 0.000000 1.000000 49 63 88 255
0.321841 0.946813 0.031250 -0.000000 0.000000 1.000000 49 63 88 255
0.382711 -0.923511 0.031250 -0.000000 0.000000 1.000000 49 63 88 255
0.382711 0.923894 0.031250 -0.000000 0.000000 1.000000 49 63 88 255
-0.707101 0.707162 0.031250 -0.000000 0.000000 1.000000 49 63 88 255
-0.897047 -0.441657 0.031250 -0.000000 0.000000 1.000000 49 63 88 255
-0.707101 -0.706780 0.031250 -0.000000 0.000000 1.000000 49 63 88 255
-0.499360 -0.866034 0.031250 -0.000000 -0.000000 1.000000 49 63 88 255
-0.608022 -0.793576 0.031250 -0.000001 -0.000000 1.000000 49 63 88 255
-0.554792 -0.831638 0.031250 -0.000000 0.000000 1.000000 49 63 88 255
-0.131427 0.991329 0.031250 -0.000000 -0.000000 1.000000 49 63 88 255
0.658896 -0.751930 0.031251 -0.000001 0.000000 1.000000 49 63 88 255
1.000040 0.000191 0.031251 -0.000000 0.000000 1.000000 49 63 88 255
-0.499360 0.866417 0.031250 -0.000000 0.000000 1.000000 49 63 88 255
-0.997818 0.066224 0.031250 -0.000000 -0.000000 1.000000 49 63 88 255
0.923917 -0.382419 0.031251 -0.000000 0.000000 1.000000 49 63 88 255
0.866428 0.499466 0.031251 -0.000000 0.000000 1.000000 49 63 88 255
-0.965739 -0.259282 0.031250 -0.000000 -0.000000 1.000000 49 63 88 255
-0.658856 0.752312 0.031250 -0.000001 0.000000 1.000000 49 63 88 255
0.946842 0.321945 0.031251 -0.000000 0.000000 1.000000 49 63 88 255
-0.321802 0.946813 0.031250 -0.000000 0.000000 1.000000 49 63 88 255
-0.946802 -0.321562 0.031250 -0.000000 0.000000 1.000000 49 63 88 255
0.259548 0.965746 0.031250 -0.000000 0.000000 1.000000 49 63 88 255
-0.831985 -0.554503 0.031250 -0.000000 0.000000 1.000000 49 63 88 255
0.707141 -0.706780 0.031251 -0.000000 0.000000 1.000000 49 63 88 255
0.441962 0.897068 0.031250 -0.000000 0.000000 1.000000 49 63 88 255
0.980647 0.196155 0.031251 -0.000000 0.000000 1.000000 49 63 88 255
0.997858 -0.065841 0.031251 -0.000000 -0.000000 1.000000 49 63 88 255
1.000040 0.000191 0.031251 -0.000000 -0.000000 1.000000 49 63 88 255
-0.382671 0.923894 0.031250 -0.000000 0.000000 1.000000 49 63 88 255
-0.441922 0.897068 0.031250 -0.000000 -0.000000 1.000000 49 63 88 255
-0.866389 0.499466 0.031250 -0.000000 -0.000000 1.000000 49 63 88 255
0.499400 -0.866034 0.031250 -0.000000 0.000000 1.000000 49 63 88 255
0.707141 -0.706780 0.031251 -0.000000 -0.000000 1.000000 49 63 88 255
-0.946802 0.321945 0.031250 -0.000000 -0.000000 1.000000 49 63 88 255
0.752300 0.658928 0.031251 -0.000001 -0.000000 1.000000 49 63 88 255
0.000020 1.000000 0.031250 -0.000000 0.000000 1.000000 49 63 88 255
-0.707101 -0.706780 0.031250 -0.000000 0.000000 1.000000 49 63 88 255
-0.441922 0.897068 0.031250 -0.000000 0.000000 1.000000 49 63 88 255
-0.066027 -0.997436 0.031250 -0.000000 0.000000 1.000000 49 63 88 255
0.658896 0.752312 0.031251 -0.000001 -0.000000 1.000000 49 63 88 255
-0.897047 -0.441657 0.031250 -0.000000 0.000000 1.000000 49 63 88 255
0.832024 -0.554503 0.031251 -0.000000 -0.000000 1.000000 49 63 88 255
0.707141 -0.706780 0.031251 -0.000000 0.000000 1.000000 49 63 88 255
0.066067 0.997819 0.031250 -0.000000 -0.000000 1.000000 49 63 88 255
-0.831985 0.554886 0.031250 -0.000000 -0.000000 1.000000 49 63 88 255
0.382711 0.923894 0.031250 -0.000000 0.000000 1.000000 49 63 88 255
0.066067 0.997819 0.031250 -0.000000 0.000000 1.000000 49 63 88 255
-0.066027 0.997819 0.031250 -0.000000 0.000000 1.000000 49 63 88 255
-0.707101 -0.706780 0.031250 -0.000000 0.000000 1.000000 49 63 88 255
-0.980607 -0.195772 0.031250 -0.000000 0.000000 1.000000 49 63 88 255
0.321841 -0.946431 0.031250 -0.000000 0.000000 1.000000 49 63 88 255
-0.897047 0.442040 0.031250 -0.000000 0.000000 1.000000 49 63 88 255
-0.658856 -0.751930 0.031250 -0.000001 -0.000000 1.000000 49 63 88 255
-0.049987 0.215141 0.052084 -0.000000 -0.000000 1.000000 113 162 219 255
0.082492 0.302473 0.052084 -0.000000 -0.000000 1.000000 113 162 219 255
-0.102240 0.263143 0.052084 -0.000000 -0.000000 1.000000 113 162 219 255
0.591123 0.476891 0.052084 -0.000000 -0.000000 1.000000 113 162 219 255
0.505601 0.395776 0.052084 -0.000000 -0.000000 1.000000 113 162 219 255
0.581540 0.338013 0.052084 -0.000000 -0.000000 1.000000 113 162 219 255
-0.213003 0.360159 0.052084 -0.000000 0.000000 1.000000 113 162 219 255
-0.255766 0.687019 0.052084 -0.000000 0.000000 1.000000 113 162 219 255
-0.266637 0.393060 0.052084 -0.000000 0.000000 1.000000 113 162 219 255
-0.505949 0.212403 0.052083 -0.000000 0.000000 1.000000 113 162 219 255
-0.320959 0.257669 0.052084 -0.000000 -0.000000 1.000000 113 162 219 255
-0.358224 0.387362 0.052084 -0.000000 -0.000000 1.000000 113 162 219 255
-0.399617 0.142293 0.052084 -0.000000 0.000000 1.000000 113 162 219 255
-0.320959 0.257669 0.052084 -0.000000 0.000000 1.000000 113 162 219 255
-0.450049 0.176143 0.052084 -0.000000 0.000000 1.000000 113 162 219 255
-0.049987 0.215141 0.052084 -0.000000 -0.000000 1.000000 113 162 219 255
-0.003070 0.178220 0.052084 -0.000000 -0.000000 1.000000 113 162 219 255
0.081293 0.214505 0.052084 -0.000000 -0.000000 1.000000 113 162 219 255
-0.400780 0.619254 0.052084 -0.000000 0.000000 1.000000 113 162 219 255
-0.266637 0.393060 0.052084 -0.000000 0.000000 1.000000 113 162 219 255
-0.255766 0.687019 0.052084 -0.000000 -0.000000 1.000000 113 162 219 255
-0.564704 0.243974 0.052083 -0.000000 -0.000000 1.000000 113 162 219 255
-0.505949 0.212403 0.052083 -0.000000 -0.000000 1.000000 113 162 219 255
-0.358224 0.387362 0.052084 -0.000000 -0.000000 1.000000 113 162 219 255
0.411080 0.178362 0.052084 -0.000000 -0.000000 1.000000 113 162 219 255
0.465234 0.139024 0.052084 -0.000000 -0.000000 1.000000 113 162 219 255
0.483223 0.204717 0.052084 -0.000000 -0.000000 1.000000 113 162 219 255
0.324214 0.274255 0.052084 -0.000000 -0.000000 1.000000 113 162 219 255
0.371520 0.222268 0.052084 -0.000000 -0.000000 1.000000 113 162 219 255
0.477576 0.292098 0.052084 -0.000000 -0.000000 1.000000 113 162 219 255
-0.644399 0.395539 0.052083 -0.000000 0.000000 1.000000 113 162 219 255
-0.731956 0.239569 0.052083 -0.000000 0.000000 1.000000 113 162 219 255
-0.680321 0.264656 0.052083 -0.000000 0.000000 1.000000 113 162 219 255
-0.564704 0.243974 0.052083 -0.000000 0.000000 1.000000 113 162 219 255
-0.680321 0.264656 0.052083 -0.000000 0.000000 1.000000 113 162 219 255
-0.623699 0.263758 0.052083 0.000000 0.000000 -1.000000 113 162 219 255
0.686237 0.233313 0.052084 -0.000000 -0.000000 1.000000 113 162 219 255
0.676844 0.339173 0.052084 -0.000000 -0.000000 1.000000 113 162 219 255
0.641644 0.282262 0.052084 -0.000000 -0.000000 1.000000 113 162 219 255
0.350075 0.664340 0.052084 -0.000000 0.000000 1.000000 113 162 219 255
0.461591 0.423915 0.052084 -0.000000 0.000000 1.000000 113 162 219 255
0.480359 0.585284 0.052084 -0.000000 0.000000 1.000000 113 162 219 255
-0.399617 0.142293 0.052084 -0.000000 -0.000000 1.000000 113 162 219 255
-0.357267 0.117953 0.052084 -0.000000 -0.000000 1.000000 113 162 219 255
-0.304845 0.172981 0.052084 -0.000000 -0.000000 1.000000 113 162 219 255
-0.213003 0.360159 0.052084 -0.000000 0.000000 1.000000 113 162 219 255
-0.157391 0.314168 0.052084 -0.000000 0.000000 1.000000 113 162 219 255
0.066167 0.441805 0.052084 -0.000000 0.000000 1.000000 113 162 219 255
0.461591 0.423915 0.052084 -0.000000 0.000000 1.000000 113 162 219 255
0.591123 0.476891 0.052084 -0.000000 0.000000 1.000000 113 162 219 255
0.480359 0.585284 0.052084 -0.000000 0.000000 1.000000 113 162 219 255
-0.532166 0.522098 0.052083 -0.000000 -0.000000 1.000000 113 162 219 255
-0.564704 0.243974 0.052083 -0.000000 -0.000000 1.000000 113 162 219 255
-0.358224 0.387362 0.052084 -0.000000 -0.000000 1.000000 113 162 219 255
0.140139 0.418095 0.052084 -0.000000 0.000000 1.000000 113 162 219 255
0.350075 0.664340 0.052084 -0.000000 0.000000 1.000000 113 162 219 255
0.205796 0.714051 0.052084 -0.000000 0.000000 1.000000 113 162 219 255
0.581540 0.338013 0.052084 -0.000000 0.000000 1.000000 113 162 219 255
0.641644 0.282262 0.052084 -0.000000 0.000000 1.000000 113 162 219 255
0.676844 0.339173 0.052084 -0.000000 0.000000 1.000000 113 162 219 255
0.205796 0.714051 0.052084 -0.000000 0.000000 1.000000 113 162 219 255
0.066167 0.441805 0.052084 -0.000000 0.000000 1.000000 113 162 219 255
0.140139 0.418095 0.052084 -0.000000 0.000000 1.000000 113 162 219 255
-0.358224 0.387362 0.052084 -0.000000 0.000000 1.000000 113 162 219 255
-0.400780 0.619254 0.052084 -0.000000 0.000000 1.000000 113 162 219 255
-0.532166 0.522098 0.052083 -0.000000 0.000000 1.000000 113 162 219 255
0.208092 0.378227 0.052084 -0.000000 -0.000000 1.000000 113 162 219 255
0.461591 0.423915 0.052084 -0.000000 0.000000 1.000000 113 162 219 255
0.350075 0.664340 0.052084 -0.000000 0.000000 1.000000 113 162 219 255
-0.157391 0.314168 0.052084 -0.000000 0.000000 1.000000 113 162 219 255
0.082492 0.302473 0.052084 -0.000000 0.000000 1.000000 113 162 219 255
0.066167 0.441805 0.052084 -0.000000 0.000000 1.000000 113 162 219 255
-0.003070 0.178220 0.052084 -0.000000 -0.000000 1.000000 113 162 219 255
0.065008 0.169845 0.052084 -0.000000 -0.000000 1.000000 113 162 219 255
0.081293 0.214505 0.052084 -0.000000 -0.000000 1.000000 113 162 219 255
0.324214 0.274255 0.052084 -0.000000 0.000000 1.000000 113 162 219 255
0.461591 0.423915 0.052084 -0.000000 -0.000000 1.000000 113 162 219 255
0.269594 0.328261 0.052084 -0.000000 0.000000 1.000000 113 162 219 255
0.066167 0.441805 0.052084 -0.000000 -0.000000 1.000000 113 162 219 255
0.053046 0.734408 0.052084 -0.000000 -0.000000 1.000000 113 162 219 255
-0.102649 0.725400 0.052084 -0.000000 -0.000000 1.000000 113 162 219 255
0.371520 0.222268 0.052084 -0.000000 -0.000000 1.000000 113 162 219 255
0.483223 0.204717 0.052084 -0.000000 0.000000 1.000000 113 162 219 255
0.477576 0.292098 0.052084 -0.000000 0.000000 1.000000 113 162 219 255
-0.213003 0.360159 0.052084 -0.000000 0.000000 1.000000 113 162 219 255
-0.102649 0.725400 0.052084 -0.000000 0.000000 1.000000 113 162 219 255
-0.255766 0.687019 0.052084 -0.000000 0.000000 1.000000 113 162 219 255
0.591123 0.476891 0.052084 -0.000000 -0.000000 1.000000 113 162 219 255
0.581540 0.338013 0.052084 -0.000000 -0.000000 1.000000 113 162 219 255
0.676844 0.339173 0.052084 -0.000000 -0.000000 1.000000 113 162 219 255
0.081293 0.214505 0.052084 -0.000000 0.000000 1.000000 113 162 219 255
-0.450049 0.176143 0.052084 -0.000000 0.000000 1.000000 113 162 219 255
-0.304845 0.172981 0.052084 -0.000000 0.000000 1.000000 113 162 219 255
-0.358224 0.387362 0.052084 -0.000000 0.000000 1.000000 113 162 219 255
-0.644399 0.395539 0.052083 -0.000000 0.000000 1.000000 113 162 219 255
0.715644 0.195957 0.052084 -0.000000 -0.000000 1.000000 113 162 219 255
0.505601 0.395776 0.052084 -0.000000 0.000000 1.000000 113 162 219 255
-0.644399 0.395539 0.052083 -0.000000 -0.000000 1.000000 113 162 219 255
0.208092 0.378227 0.052084 -0.000000 0.000000 1.000000 113 162 219 255
0.053046 0.734408 0.052084 -0.000000 -0.000000 1.000000 113 162 219 255
0.269594 0.328261 0.052084 -0.000000 -0.000000 1.000000 113 162 219 255
-0.102240 0.263143 0.052084 -0.000000 0.000000 1.000000 113 162 219 255
0.477576 0.292098 0.052084 -0.000000 -0.000000 1.000000 113 162 219 255
0.411080 0.178362 0.052084 -0.000000 -0.000000 1.000000 113 162 219 255
0.066167 0.441805 0.052084 -0.000000 0.000000 1.000000 113 162 219 255
0.425874 0.563141 0.041667 -0.000000 -0.000000 1.000000 75 106 143 255
-0.374396 0.539173 0.041667 -0.000000 -0.000000 1.000000 75 106 143 255
0.558726 -0.077134 0.041667 -0.000000 -0.000000 1.000000 75 106 143 255
0.667521 -0.217625 0.041667 -0.000000 -0.000000 1.000000 75 106 143 255
0.705871 -0.267148 0.041667 -0.000000 -0.000000 1.000000 75 106 143 255
0.747917 -0.201490 0.041667 -0.000000 -0.000000 1.000000 75 106 143 255
-0.777327 -0.171069 0.041667 -0.000000 -0.000000 1.000000 75 106 143 255
-0.654519 -0.201807 0.041667 -0.000000 -0.000000 1.000000 75 106 143 255
-0.777424 -0.114114 0.041667 -0.000000 -0.000000 1.000000 75 106 143 255
-0.776239 -0.222138 0.041667 -0.000000 0.000000 1.000000 75 106 143 255
-0.711834 -0.263767 0.041667 -0.000000 0.000000 1.000000 75 106 143 255
-0.777327 -0.171069 0.041667 -0.000000 0.000000 1.000000 75 106 143 255
-0.777424 -0.114114 0.041667 -0.000000 -0.000000 1.000000 75 106 143 255
-0.654519 -0.201807 0.041667 -0.000000 -0.000000 1.000000 75 106 143 255
-0.613762 -0.157746 0.041667 -0.000000 -0.000000 1.000000 75 106 143 255
-0.777424 -0.114114 0.041667 -0.000000 -0.000000 1.000000 75 106 143 255
-0.613762 -0.157746 0.041667 -0.000000 -0.000000 1.000000 75 106 143 255
-0.776078 -0.053268 0.041667 -0.000000 -0.000000 1.000000 75 106 143 255
0.558726 -0.077134 0.041667 -0.000000 -0.000000 1.000000 75 106 143 255
0.754092 -0.027092 0.041667 -0.000000 -0.000000 1.000000 75 106 143 255
0.749913 0.042539 0.041667 -0.000000 -0.000000 1.000000 75 106 143 255
-0.613762 -0.157746 0.041667 -0.000000 0.000000 1.000000 75 106 143 255
-0.445908 0.479252 0.041667 -0.000000 -0.000000 1.000000 75 106 143 255
-0.491050 0.441427 0.041667 -0.000000 -0.000000 1.000000 75 106 143 255
-0.374396 0.539173 0.041667 -0.000000 -0.000000 1.000000 75 106 143 255
-0.445908 0.479252 0.041667 -0.000000 -0.000000 1.000000 75 106 143 255
0.558726 -0.077134 0.041667 -0.000000 -0.000000 1.000000 75 106 143 255
0.667521 -0.217625 0.041667 -0.000000 0.000000 1.000000 75 106 143 255
0.747917 -0.201490 0.041667 -0.000000 0.000000 1.000000 75 106 143 255
0.752100 -0.150478 0.041667 -0.000000 0.000000 1.000000 75 106 143 255
0.558726 -0.077134 0.041667 -0.000000 -0.000000 1.000000 75 106 143 255
0.754490 -0.091888 0.041667 -0.000000 -0.000000 1.000000 75 106 143 255
0.754092 -0.027092 0.041667 -0.000000 -0.000000 1.000000 75 106 143 255
-0.776239 -0.222138 0.041667 -0.000000 -0.000000 1.000000 75 106 143 255
-0.772887 -0.298648 0.041667 -0.000000 -0.000000 1.000000 75 106 143 255
-0.711834 -0.263767 0.041667 -0.000000 -0.000000 1.000000 75 106 143 255
-0.631839 0.323458 0.041667 0.000006 -0.000008 1.000000 75 106 143 255
-0.538874 0.401355 0.041667 -0.000000 0.000000 1.000000 75 106 143 255
-0.586697 0.361283 0.041667 0.028733 -0.034292 0.998999 75 106 143 255
-0.767258 0.072126 0.041667 -0.000000 -0.000000 1.000000 75 106 143 255
-0.613762 -0.157746 0.041667 -0.000000 -0.000000 1.000000 75 106 143 255
-0.758884 0.132687 0.041667 -0.000000 -0.000000 1.000000 75 106 143 255
-0.776078 -0.053268 0.041667 -0.000000 0.000000 1.000000 75 106 143 255
-0.767258 0.072126 0.041667 -0.000000 0.000000 1.000000 75 106 143 255
-0.772839 0.009477 0.041667 0.000000 0.000000 1.000000 75 106 143 255
0.726239 0.190820 0.041667 -0.000000 0.000000 1.000000 75 106 143 255
0.704756 0.266729 0.041667 -0.000000 0.000000 1.000000 75 106 143 255
0.558726 -0.077134 0.041667 -0.000000 0.000000 1.000000 75 106 143 255
0.754490 -0.091888 0.041667 -0.000000 0.000000 1.000000 75 106 143 255
0.558726 -0.077134 0.041667 -0.000000 0.000000 1.000000 75 106 143 255
0.603939 -0.135520 0.041667 -0.000000 0.000000 1.000000 75 106 143 255
0.749913 0.042539 0.041667 -0.000000 -0.000000 1.000000 75 106 143 255
0.726239 0.190820 0.041667 -0.000000 0.000000 1.000000 75 106 143 255
0.558726 -0.077134 0.041667 -0.000000 -0.000000 1.000000 75 106 143 255
-0.538874 0.401355 0.041667 -0.000000 0.000000 1.000000 75 106 143 255
-0.613762 -0.157746 0.041667 -0.000000 0.000000 1.000000 75 106 143 255
-0.491050 0.441427 0.041667 -0.000000 0.000000 1.000000 75 106 143 255
0.704756 0.266729 0.041667 -0.000000 -0.000000 1.000000 75 106 143 255
0.425874 0.563141 0.041667 -0.000000 -0.000000 1.000000 75 106 143 255
0.558726 -0.077134 0.041667 -0.000000 -0.000000 1.000000 75 106 143 255
-0.631839 0.323458 0.041667 -0.000000 -0.000000 1.000000 75 106 143 255
-0.758884 0.132687 0.041667 -0.000000 0.000000 1.000000 75 106 143 255
-0.613762 -0.157746 0.041667 -0.000000 0.000000 1.000000 75 106 143 255
0.603939 -0.135520 0.041667 -0.000000 0.000000 1.000000 75 106 143 255
0.752100 -0.150478 0.041667 -0.000000 0.000000 1.000000 75 106 143 255
0.754490 -0.091888 0.041667 -0.000000 0.000000 1.000000 75 106 143 255
-0.777327 -0.171069 0.041667 -0.000000 0.000000 1.000000 75 106 143 255
-0.711834 -0.263767 0.041667 -0.000000 0.000000 1.000000 75 106 143 255
-0.654519 -0.201807 0.041667 -0.000000 0.000000 1.000000 75 106 143 255
-0.731956 0.239569 0.041667 -0.000000 0.000000 1.000000 75 106 143 255
-0.758884 0.132687 0.041667 -0.000000 0.000000 1.000000 75 106 143 255
-0.671618 0.290127 0.041667 -0.000000 0.000000 1.000000 75 106 143 255
0.558726 -0.077134 0.041667 -0.000000 0.000000 1.000000 75 106 143 255
-0.613762 -0.157746 0.041667 -0.000000 0.000000 1.000000 75 106 143 255
-0.613762 -0.157746 0.041667 -0.000000 0.000000 1.000000 75 106 143 255
0.740960 0.115633 0.041667 0.000000 0.000000 1.000000 75 106 143 255
0.675518 0.341987 0.041667 -0.000000 -0.000000 1.000000 75 106 143 255
-0.671618 0.290127 0.041667 -0.000000 -0.000000 1.000000 75 106 143 255
0.667521 -0.217625 0.041667 -0.000000 0.000000 1.000000 75 106 143 255
-0.747267 0.189165 0.041667 -0.000000 -0.000000 1.000000 75 106 143 255
3 0 1 2
3 3 4 5
3 6 7 8
3 9 10 11
3 12 13 14
3 15 16 17
3 18 19 20
3 21 22 23
3 24 25 26
3 27 28 29
3 30 31 32
3 33 34 35
3 36 37 38
3 39 40 41
3 42 43 44
3 45 46 47
3 48 49 50
3 51 52 53
3 54 55 56
3 57 58 59
3 60 61 62
3 63 64 65
3 66 67 68
3 69 70 71
3 72 73 74
3 75 76 77
3 78 79 80
3 81 82 83
3 84 85 86
3 87 88 89
3 90 91 92
3 93 94 95
3 96 97 98
3 99 100 101
3 102 103 104
3 105 106 107
3 108 109 110
3 0 111 1
3 6 112 7
3 12 113 13
3 30 114 31
3 33 115 34
3 39 116 40
3 42 117 43
3 45 118 46
3 51 119 52
3 54 120 55
3 57 121 58
3 63 122 64
3 72 123 73
3 75 124 76
3 84 125 85
3 87 126 88
3 90 127 91
3 93 128 94
3 105 129 106
3 130 131 132
3 133 134 135
3 136 137 138
3 139 140 141
3 142 143 144
3 145 146 147
3 148 149 150
3 151 152 153
3 154 155 156
3 157 158 159
3 160 161 162
3 163 164 165
3 166 167 168
3 169 170 171
3 172 173 174
3 175 176 177
3 178 179 180
3 181 182 183
3 184 185 186
3 187 188 189
3 190 191 192
3 193 194 195
3 196 197 198
3 199 200 201
3 202 203 204
3 205 206 207
3 208 209 210
3 211 212 213
3 214 215 216
3 217 218 219
3 220 221 222
3 223 224 225
3 226 227 228
3 229 230 231
3 232 233 234
3 235 236 237
3 238 239 240
3 241 242 243
3 244 245 246
3 247 248 249
3 250 251 252
3 253 254 255
3 256 257 258
3 259 260 261
3 262 263 264
3 265 266 267
3 268 269 270
3 271 272 273
3 274 275 276
3 277 278 279
3 139 280 140
3 142 281 143
3 145 282 146
3 148 283 149
3 151 284 152
3 154 285 155
3 157 286 158
3 160 287 161
3 163 288 164
3 166 289 167
3 172 290 173
3 175 291 176
3 178 292 179
3 181 293 182
3 184 294 185
3 187 295 188
3 193 296 194
3 196 297 197
3 199 298 200
3 202 299 203
3 205 300 206
3 208 301 209
3 211 302 212
3 214 303 215
3 217 304 218
3 220 305 221
3 223 306 224
3 229 307 230
3 232 308 233
3 235 309 236
3 238 310 239
3 241 311 242
3 244 312 245
3 247 313 248
3 250 314 251
3 253 315 254
3 256 316 257
3 259 317 260
3 262 318 263
3 265 319 266
3 268 320 269
3 271 321 272
3 274 322 275
3 277 323 278
3 324 325 326
3 327 328 329
3 330 331 332
3 333 334 335
3 336 337 338
3 339 340 341
3 342 343 344
3 345 346 347
3 348 349 350
3 351 352 353
3 354 355 356
3 357 358 359
3 360 361 362
3 363 364 365
3 366 367 368
3 369 370 371
3 372 373 374
3 375 376 377
3 378 379 380
3 381 382 383
3 384 385 386
3 387 388 389
3 390 391 392
3 393 394 395
3 396 397 398
3 399 400 401
3 402 403 404
3 405 406 407
3 408 409 410
3 411 412 413
3 324 414 325
3 333 415 334
3 336 416 337
3 342 417 343
3 357 418 358
3 360 419 361
3 372 420 373
3 375 421 376
3 378 422 379
3 384 423 385
3 390 424 391
3 393 425 394
3 399 426 400
3 405 427 406
3 408 428 409
3 429 430 431
3 432 433 434
3 435 436 437
3 438 439 440
3 441 442 443
3 444 445 446
3 447 448 449
3 450 451 452
3 453 454 455
3 456 457 458
3 459 460 461
3 462 463 464
3 465 466 467
3 468 469 470
3 471 472 473
3 474 475 476
3 477 478 479
3 480 481 482
3 483 484 485
3 486 487 488
3 489 490 491
3 492 493 494
3 495 496 497
3 498 499 500
3 450 501 451
3 465 502 466
3 471 503 472
3 480 504 481
3 486 505 487
3 489 506 490
3 492 507 493
3 498 508 499
