<?xml version="1.0" encoding="UTF-8" standalone="no"?>
<!-- Created with Inkscape (http://www.inkscape.org/) -->

<svg
        width="160cm"
        height="160cm"
        viewBox="0 0 160 160"
        version="1.1"
        _id="SVGRoot"
        id="svg26"
        sodipodi:docname="water.svg"
        inkscape:version="1.2.2 (b0a8486541, 2022-12-01)"
        xmlns:inkscape="http://www.inkscape.org/namespaces/inkscape"
        xmlns:sodipodi="http://sodipodi.sourceforge.net/DTD/sodipodi-0.dtd"
        xmlns="http://www.w3.org/2000/svg"
>
    <sodipodi:namedview
            id="namedview22"
            pagecolor="#505050"
            bordercolor="#eeeeee"
            borderopacity="1"
            inkscape:showpageshadow="0"
            inkscape:pageopacity="0"
            inkscape:pagecheckerboard="0"
            inkscape:deskcolor="#505050"
            inkscape:document-units="cm"
            showgrid="false"
            inkscape:zoom="0.056568542"
            inkscape:cx="2015.2543"
            inkscape:cy="5506.5941"
            inkscape:window-width="1870"
            inkscape:window-height="1051"
            inkscape:window-x="1920"
            inkscape:window-y="0"
            inkscape:window-maximized="1"
            inkscape:current-layer="g2166"/>
    <defs
            _id="defs402"
            id="defs8"/>
    <path
            id="path4749"
            style="display:inline;fill:#263653;stroke-linecap:square;paint-order:stroke fill markers;stop-color:#000000"
            d="M 159.99998,79.999992 A 79.999992,79.999992 0 0 1 79.999992,159.99998 79.999992,79.999992 0 0 1 0,79.999992 79.999992,79.999992 0 0 1 79.999992,0 79.999992,79.999992 0 0 1 159.99998,79.999992 Z"
            sodipodi:insensitive="true"/>
    <g
            id="g2166"
            style="display:inline;fill:#71a2db;fill-opacity:1"
            transform="matrix(0.78660324,0,0,0.78660324,17.071745,12.908781)">
        <path
                id="path4770"
                style="display:inline;fill:#4b6a8f;fill-opacity:1;stroke:none;stroke-width:0.0300632px;stroke-linecap:butt;stroke-linejoin:miter;stroke-opacity:1"
                d="m 1.5895769,59.338885 c 0,0 -3.0730928,31.301405 3.9676576,50.303525 l 42.9312735,37.57628 74.821342,-4.66164 25.38904,-22.49641 c 13.60634,-30.303499 5.85827,-58.142224 5.85827,-58.142224 l -19.35505,20.093393 -98.685132,4.311164 z"
                sodipodi:nodetypes="ccccccccc"/>
        <path
                id="path285-9"
                style="display:inline;fill:#71a2db;fill-opacity:1;stroke-width:1.25043;stroke-linecap:square;paint-order:stroke fill markers;stop-color:#000000"
                d="m 5.5572344,109.64241 c 29.8500526,69.44764 133.4163156,67.06894 148.8854956,-6.85929 0,0 -29.565,40.45846 -48.01854,26.41928 28.0083,-34.910966 -4.74703,-31.343006 -16.532506,-1.48054 -2.197534,5.56823 -29.896527,10.45871 -32.818701,6.40273 25.351913,-33.60418 10.664434,-35.574012 -13.725243,-9.55362 -2.493781,2.66054 -22.434962,-6.26674 -37.7905056,-14.92856 z"
                sodipodi:nodetypes="cccscsc"/>
        <path
                id="path1052-3"
                style="display:inline;fill:#71a2db;fill-opacity:1;stroke:none;stroke-width:0.0136964px;stroke-linecap:butt;stroke-linejoin:miter;stroke-opacity:1"
                d="m 63.97662,87.438851 c 12.006924,9.795019 32.429491,7.507477 43.32878,-1.578107 19.96357,16.156636 42.47883,5.895798 47.25176,-23.942328 -12.77775,6.664754 -15.4239,18.03266 -39.07492,16.027403 C 128.27099,-6.3693088 103.19539,92.749955 70.774547,75.673633 88.278232,5.0090134 54.949828,76.276081 43.814251,74.442001 32.175318,72.525017 1.5895769,59.338885 1.5895769,59.338885 c 0,20.370451 29.9725771,52.484065 62.3870431,28.099966 z"
                sodipodi:nodetypes="cccccscc"/>
    </g>
</svg>
