ply
format ascii 1.0
comment Created by Blender 3.5.0 - www.blender.org
element vertex 258
property float x
property float y
property float z
property float nx
property float ny
property float nz
property uchar red
property uchar green
property uchar blue
property uchar alpha
element face 140
property list uchar uint vertex_indices
end_header
0.000000 -0.750000 0.060000 -0.500000 -0.866025 0.000000 62 64 73 255
-0.649519 -0.375000 0.030000 -0.500000 -0.866025 0.000000 62 64 73 255
0.000000 -0.750000 0.030000 -0.500000 -0.866025 0.000000 62 64 73 255
-0.649519 -0.375000 0.060000 -1.000000 0.000000 0.000000 62 64 73 255
-0.649519 0.375000 0.030000 -1.000000 0.000000 0.000000 65 67 77 255
-0.649519 -0.375000 0.030000 -1.000000 0.000000 0.000000 62 64 73 255
-0.649519 0.375000 0.060000 -0.500000 0.866025 0.000000 65 67 75 255
0.000000 0.750000 0.030000 -0.500000 0.866025 0.000000 63 67 74 255
-0.649519 0.375000 0.030000 -0.500000 0.866025 0.000000 65 67 77 255
0.000000 0.750000 0.060000 0.500000 0.866025 0.000000 63 66 73 255
0.649519 0.375000 0.030000 0.500000 0.866025 0.000000 62 64 73 255
0.000000 0.750000 0.030000 0.500000 0.866025 0.000000 63 67 74 255
0.000000 -0.750000 0.060000 0.000000 0.000000 1.000000 62 64 73 255
0.649519 0.375000 0.060000 0.000000 0.000000 1.000000 62 64 73 255
-0.649519 0.375000 0.060000 0.000000 0.000000 1.000000 65 67 75 255
0.649519 0.375000 0.060000 1.000000 0.000000 0.000000 62 64 73 255
0.649519 -0.375000 0.030000 1.000000 0.000000 0.000000 66 68 76 255
0.649519 0.375000 0.030000 1.000000 0.000000 0.000000 62 64 73 255
0.649519 -0.375000 0.060000 0.500000 -0.866025 0.000000 65 67 75 255
0.000000 -0.750000 0.030000 0.500000 -0.866025 0.000000 62 64 73 255
0.649519 -0.375000 0.030000 0.500000 -0.866025 0.000000 66 68 76 255
-0.649519 -0.375000 0.030000 0.000000 0.000000 -1.000000 62 64 73 255
0.000000 0.750000 0.030000 0.000000 0.000000 -1.000000 63 67 74 255
0.649519 -0.375000 0.030000 0.000000 0.000000 -1.000000 66 68 76 255
-0.649519 -0.375000 0.060000 -0.500000 -0.866025 0.000000 62 64 73 255
-0.649519 0.375000 0.060000 -1.000000 0.000000 0.000000 65 67 75 255
0.000000 0.750000 0.060000 -0.500000 0.866025 0.000000 63 66 73 255
0.649519 0.375000 0.060000 0.500000 0.866025 0.000000 62 64 73 255
-0.649519 -0.375000 0.060000 0.000000 0.000000 1.000000 62 64 73 255
0.649519 -0.375000 0.060000 0.000000 0.000000 1.000000 65 67 75 255
0.000000 0.750000 0.060000 0.000000 0.000000 1.000000 63 66 73 255
0.649519 -0.375000 0.060000 1.000000 0.000000 0.000000 65 67 75 255
0.000000 -0.750000 0.060000 0.500000 -0.866025 0.000000 62 64 73 255
0.000000 -0.750000 0.030000 0.000000 0.000000 -1.000000 62 64 73 255
-0.649519 0.375000 0.030000 0.000000 0.000000 -1.000000 65 67 77 255
0.649519 0.375000 0.030000 0.000000 0.000000 -1.000000 62 64 73 255
0.000000 -0.900000 0.030000 -0.163663 -0.283473 0.944911 186 173 204 255
-0.866025 -0.500000 0.000000 -0.163663 -0.283473 0.944911 186 173 204 255
0.000000 -1.000000 0.000000 -0.163663 -0.283473 0.944911 186 173 204 255
-0.779423 -0.450000 0.030000 -0.327327 0.000000 0.944911 186 173 204 255
-0.866025 0.500000 0.000000 -0.327327 0.000000 0.944911 186 173 204 255
-0.866025 -0.500000 0.000000 -0.327327 0.000000 0.944911 186 173 204 255
-0.866025 0.500000 0.000000 -0.163663 0.283473 0.944911 186 173 204 255
0.000000 0.900000 0.030000 -0.163663 0.283473 0.944911 186 173 204 255
0.000000 1.000000 0.000000 -0.163663 0.283473 0.944911 186 173 204 255
0.000000 0.900000 0.030000 0.163663 0.283473 0.944911 186 173 204 255
0.866025 0.500000 0.000000 0.163663 0.283473 0.944911 186 173 204 255
0.000000 1.000000 0.000000 0.163663 0.283473 0.944911 186 173 204 255
0.779423 0.450000 0.030000 0.000000 0.000000 1.000000 186 173 204 255
0.000000 0.900000 0.030000 0.000000 0.000000 1.000000 186 173 204 255
-0.779423 0.450000 0.030000 0.000000 0.000000 1.000000 186 173 204 255
0.779423 0.450000 0.030000 0.327327 0.000000 0.944911 186 173 204 255
0.866025 -0.500000 0.000000 0.327327 0.000000 0.944911 186 173 204 255
0.866025 0.500000 0.000000 0.327327 0.000000 0.944911 186 173 204 255
0.866025 -0.500000 0.000000 0.163663 -0.283473 0.944911 186 173 204 255
0.000000 -0.900000 0.030000 0.163663 -0.283473 0.944911 186 173 204 255
0.000000 -1.000000 0.000000 0.163663 -0.283473 0.944911 186 173 204 255
-0.866025 -0.500000 0.000000 0.000000 0.000000 -1.000000 186 173 204 255
0.000000 1.000000 0.000000 0.000000 0.000000 -1.000000 186 173 204 255
0.866025 -0.500000 0.000000 0.000000 0.000000 -1.000000 186 173 204 255
-0.779423 -0.450000 0.030000 -0.163663 -0.283473 0.944911 186 173 204 255
-0.779423 0.450000 0.030000 -0.327327 0.000000 0.944911 186 173 204 255
-0.779423 0.450000 0.030000 -0.163663 0.283473 0.944911 186 173 204 255
0.779423 0.450000 0.030000 0.163663 0.283473 0.944911 186 173 204 255
-0.779423 -0.450000 0.030000 0.000000 0.000000 1.000000 186 173 204 255
0.000000 -0.900000 0.030000 0.000000 0.000000 1.000000 186 173 204 255
0.779423 -0.450000 0.030000 0.000000 0.000000 1.000000 186 173 204 255
0.779423 -0.450000 0.030000 0.327327 0.000000 0.944911 186 173 204 255
0.779423 -0.450000 0.030000 0.163663 -0.283473 0.944911 186 173 204 255
0.000000 -1.000000 0.000000 0.000000 0.000000 -1.000000 186 173 204 255
-0.866025 0.500000 0.000000 0.000000 0.000000 -1.000000 186 173 204 255
0.866025 0.500000 0.000000 0.000000 0.000000 -1.000000 186 173 204 255
0.149260 0.310578 0.397572 0.473614 0.576658 0.665699 31 40 54 255
0.280566 0.221556 0.381269 0.469266 0.568394 0.675809 29 37 49 255
0.216628 0.374612 0.260329 0.512434 0.653893 0.556628 33 39 52 255
0.138244 -0.060983 0.501929 0.493501 -0.348066 0.797061 26 33 46 255
0.123823 -0.106380 0.483207 0.349572 -0.449961 0.821787 26 35 47 255
0.232141 -0.130935 0.423686 0.508461 -0.241862 0.826420 30 39 52 255
0.317563 -0.029633 0.422639 0.186699 -0.147399 0.971297 29 37 49 255
0.232141 -0.130935 0.423686 0.324129 -0.263935 0.908448 30 39 52 255
0.293093 -0.177548 0.379208 0.387913 -0.318168 0.865039 27 35 47 255
0.280566 0.221556 0.381269 0.168480 0.184295 0.968323 29 37 49 255
0.264277 -0.010044 0.428182 0.168480 0.184295 0.968323 30 37 49 255
0.317563 -0.029633 0.422639 0.168480 0.184295 0.968323 29 37 49 255
0.179601 0.060103 0.516736 0.648938 0.208202 0.731800 29 38 51 255
0.280566 0.221556 0.381269 0.528105 0.363420 0.767483 29 37 49 255
0.147421 0.217790 0.449363 0.389331 0.477488 0.787671 29 37 50 255
0.039722 0.310633 0.402053 -0.034821 0.936382 0.349251 32 41 54 255
0.085922 0.284596 0.469801 0.014781 0.936673 0.349893 30 39 53 255
0.149260 0.310578 0.397572 0.017097 0.913360 0.406794 31 40 54 255
-0.158389 -0.361952 0.278257 -0.630235 -0.563254 0.534368 29 35 45 255
-0.295960 -0.406761 0.068773 -0.632392 -0.560120 0.535114 34 44 60 255
-0.136878 -0.439437 0.221595 -0.628990 -0.565052 0.533935 27 34 44 255
0.025652 0.184865 0.534310 0.411977 0.334393 0.847618 26 34 47 255
0.098683 0.083311 0.545642 0.388908 0.391253 0.834070 26 34 46 255
0.147421 0.217790 0.449363 0.472091 0.331863 0.816699 29 37 50 255
-0.138568 -0.512405 0.069319 -0.517675 -0.769316 0.374386 34 44 60 255
-0.136878 -0.439437 0.221595 -0.517675 -0.769316 0.374386 27 34 44 255
-0.295960 -0.406761 0.068773 -0.517675 -0.769316 0.374386 34 44 60 255
-0.138568 -0.512405 0.069319 0.034524 -0.991458 0.125773 34 44 60 255
0.224079 -0.499788 0.069228 0.034524 -0.991458 0.125773 37 47 62 255
-0.080210 -0.499529 0.154795 0.034524 -0.991458 0.125773 35 40 49 255
0.000922 -0.079300 0.501059 -0.125003 -0.484221 0.865970 26 32 44 255
-0.039873 -0.047130 0.513158 -0.125003 -0.484221 0.865970 27 33 45 255
-0.059465 -0.091107 0.485740 -0.125003 -0.484221 0.865970 27 34 45 255
0.154019 -0.014850 0.512893 0.071494 -0.262060 0.962400 26 34 46 255
0.169351 0.029225 0.520987 0.233967 -0.133310 0.963062 27 36 48 255
0.098683 0.083311 0.545642 0.107207 -0.269706 0.956956 26 34 46 255
0.085922 0.284596 0.469801 -0.231199 0.760107 0.607276 30 39 53 255
0.039722 0.310633 0.402053 -0.202533 0.851479 0.483698 32 41 54 255
-0.061323 0.206737 0.511196 -0.106822 0.711728 0.694286 28 36 48 255
-0.114871 0.214628 0.487726 -0.230310 0.633678 0.738518 27 35 48 255
-0.061323 0.206737 0.511196 -0.230310 0.633678 0.738518 28 36 48 255
-0.094532 0.233905 0.477529 -0.230310 0.633678 0.738518 27 35 48 255
-0.104861 0.271215 0.429169 -0.299085 0.711226 0.636165 27 35 48 255
-0.114871 0.214628 0.487726 -0.293412 0.712027 0.637908 27 35 48 255
-0.094532 0.233905 0.477529 -0.355575 0.701747 0.617348 27 35 48 255
-0.426897 0.091192 0.240980 0.730172 0.331570 -0.597420 30 37 48 255
-0.389788 -0.300141 0.069145 0.729247 0.331898 -0.598366 34 44 60 255
-0.496153 -0.058041 0.069228 0.743332 0.326781 -0.583671 34 44 60 255
-0.426897 0.091192 0.240980 -0.811888 -0.223902 0.539171 30 37 48 255
-0.265716 0.046089 0.464959 -0.803896 -0.287657 0.520581 30 39 53 255
-0.313088 0.133874 0.374203 -0.775690 0.200192 0.598522 29 37 49 255
-0.287635 0.224118 0.392365 -0.826327 0.122417 0.549725 31 40 54 255
-0.313088 0.133874 0.374203 -0.826327 0.122417 0.549725 29 37 49 255
-0.265716 0.046089 0.464959 -0.826327 0.122417 0.549725 30 39 53 255
0.010753 0.106526 0.563504 -0.365150 0.210697 0.906793 29 35 48 255
-0.061323 0.206737 0.511196 -0.296946 0.265244 0.917316 28 36 48 255
-0.052111 0.038500 0.541401 -0.454006 0.133309 0.880969 28 36 48 255
-0.138568 -0.512405 0.069319 -0.402896 -0.823629 0.399137 34 44 60 255
-0.080210 -0.499529 0.154795 -0.402896 -0.823629 0.399137 35 40 49 255
-0.136878 -0.439437 0.221595 -0.402896 -0.823629 0.399137 27 34 44 255
0.224079 -0.499788 0.069228 0.349542 -0.669347 0.655588 37 47 62 255
0.293093 -0.177548 0.379208 0.290706 -0.668274 0.684763 27 35 47 255
-0.158389 -0.361952 0.278257 0.098671 -0.621082 0.777509 29 35 45 255
0.460872 0.281854 0.067929 0.419427 0.734982 -0.532807 34 44 60 255
0.201889 0.419196 0.053513 0.419427 0.734982 -0.532807 34 44 60 255
0.300707 0.433551 0.151105 0.419427 0.734982 -0.532807 31 39 51 255
0.300707 0.433551 0.151105 -0.103979 -0.839626 -0.533119 31 39 51 255
0.216628 0.374612 0.260329 -0.125403 -0.829549 -0.544172 33 39 52 255
0.057123 0.457049 0.064691 0.067044 -0.898724 -0.433359 34 44 60 255
0.300707 0.433551 0.151105 -0.211792 -0.912973 0.348746 31 39 51 255
0.057123 0.457049 0.064691 -0.211792 -0.912973 0.348746 34 44 60 255
0.201889 0.419196 0.053513 -0.211792 -0.912973 0.348746 34 44 60 255
-0.158389 -0.361952 0.278257 0.663000 0.444719 -0.602209 29 35 45 255
-0.389788 -0.300141 0.069145 0.663000 0.444719 -0.602209 34 44 60 255
-0.180723 -0.197645 0.375005 0.663000 0.444719 -0.602209 28 36 47 255
-0.265716 0.046089 0.464959 -0.738123 0.174827 0.651621 30 39 53 255
-0.211175 0.173719 0.492498 -0.738123 0.174827 0.651621 28 36 48 255
-0.287635 0.224118 0.392365 -0.738123 0.174827 0.651621 31 40 54 255
-0.265716 0.046089 0.464959 -0.338202 -0.058142 0.939276 30 39 53 255
-0.052111 0.038500 0.541401 -0.338202 -0.058142 0.939276 28 36 48 255
-0.211175 0.173719 0.492498 -0.338202 -0.058142 0.939276 28 36 48 255
-0.265716 0.046089 0.464959 -0.327747 -0.337846 0.882294 30 39 53 255
-0.039873 -0.047130 0.513158 -0.327747 -0.337846 0.882294 27 33 45 255
-0.052111 0.038500 0.541401 -0.327747 -0.337846 0.882294 28 36 48 255
-0.211175 0.173719 0.492498 -0.177961 0.272144 0.945657 28 36 48 255
-0.061323 0.206737 0.511196 -0.180246 0.284887 0.941462 28 36 48 255
-0.114871 0.214628 0.487726 -0.231450 0.631196 0.740285 27 35 48 255
-0.059465 -0.091107 0.485740 -0.341312 -0.383097 0.858337 27 34 45 255
-0.039873 -0.047130 0.513158 -0.341312 -0.383097 0.858337 27 33 45 255
-0.265716 0.046089 0.464959 -0.341312 -0.383097 0.858337 30 39 53 255
-0.180723 -0.197645 0.375005 -0.370549 -0.432564 0.821938 28 36 47 255
-0.059465 -0.091107 0.485740 -0.370549 -0.432564 0.821938 27 34 45 255
-0.265716 0.046089 0.464959 -0.370549 -0.432564 0.821938 30 39 53 255
0.149260 0.310578 0.397572 0.588784 0.385018 0.710700 31 40 54 255
0.147421 0.217790 0.449363 0.588331 0.385186 0.710985 29 37 50 255
0.188774 0.246983 0.403888 0.532223 0.404553 0.743691 29 37 49 255
0.407490 0.038071 0.316968 0.953056 0.087447 0.289892 37 46 58 255
0.503939 -0.191828 0.069228 0.953056 0.087447 0.289892 34 44 60 255
0.460872 0.281854 0.067929 0.953056 0.087447 0.289892 34 44 60 255
-0.176808 0.413947 0.064200 -0.022609 0.008915 -0.999705 34 44 60 255
0.201889 0.419196 0.053513 0.001850 0.010627 -0.999942 34 44 60 255
-0.295960 -0.406761 0.068773 -0.007473 -0.009418 -0.999928 34 44 60 255
-0.421059 0.233740 0.067098 0.495232 -0.679931 -0.540777 34 44 60 255
-0.176808 0.413947 0.064200 0.495232 -0.679931 -0.540777 34 44 60 255
-0.426897 0.091192 0.240980 0.495232 -0.679931 -0.540777 30 37 48 255
-0.104861 0.271215 0.429169 0.304441 -0.857701 -0.414324 27 35 48 255
-0.211175 0.173719 0.492498 0.310717 -0.732370 -0.605879 28 36 48 255
-0.287635 0.224118 0.392365 0.284390 -0.832533 -0.475407 31 40 54 255
-0.496153 -0.058041 0.069228 0.953999 -0.246769 -0.170267 34 44 60 255
-0.421059 0.233740 0.067098 0.953999 -0.246769 -0.170267 34 44 60 255
-0.426897 0.091192 0.240980 0.953999 -0.246769 -0.170267 30 37 48 255
-0.426897 0.091192 0.240980 0.798287 -0.545424 -0.255443 30 37 48 255
-0.287635 0.224118 0.392365 0.808757 -0.506125 -0.299582 31 40 54 255
-0.313088 0.133874 0.374203 0.771367 -0.090784 -0.629882 29 37 49 255
-0.058016 0.346071 0.263397 0.095169 -0.923560 -0.371456 26 33 43 255
-0.176808 0.413947 0.064200 0.095169 -0.923560 -0.371456 34 44 60 255
-0.007077 0.394201 0.156781 0.095169 -0.923560 -0.371456 36 42 54 255
0.057123 0.457049 0.064691 0.148806 -0.862013 -0.484551 34 44 60 255
0.216628 0.374612 0.260329 0.148806 -0.862013 -0.484551 33 39 52 255
-0.007077 0.394201 0.156781 0.148806 -0.862013 -0.484551 36 42 54 255
-0.176808 0.413947 0.064200 0.160147 -0.863736 -0.477821 34 44 60 255
0.057123 0.457049 0.064691 0.160147 -0.863736 -0.477821 34 44 60 255
-0.007077 0.394201 0.156781 0.160147 -0.863736 -0.477821 36 42 54 255
0.460872 0.281854 0.067929 0.685516 0.460026 0.564308 34 44 60 255
0.300707 0.433551 0.151105 0.567060 0.155177 0.808927 31 39 51 255
0.252123 0.386698 0.194151 0.624871 0.507106 0.593616 30 38 50 255
0.407490 0.038071 0.316968 0.772072 -0.066982 0.631996 37 46 58 255
0.317563 -0.029633 0.422639 0.789385 -0.104243 0.604983 29 37 49 255
0.293093 -0.177548 0.379208 0.799755 -0.269459 0.536454 27 35 47 255
0.188774 0.246983 0.403888 0.301742 0.278053 0.911942 29 37 49 255
0.264277 -0.010044 0.428182 0.577327 -0.232168 0.782810 30 37 49 255
0.179601 0.060103 0.516736 0.668007 -0.120638 0.734311 29 38 51 255
0.169351 0.029225 0.520987 0.631382 -0.226521 0.741650 27 36 48 255
0.154019 -0.014850 0.512893 0.579030 -0.356045 0.733455 26 34 46 255
0.264277 -0.010044 0.428182 0.081885 -0.058772 0.994907 30 37 49 255
0.264277 -0.010044 0.428182 0.751289 0.079862 0.655123 30 37 49 255
0.188774 0.246983 0.403888 0.345089 0.615255 0.708784 29 37 49 255
0.216628 0.374612 0.260329 -0.063388 0.929952 0.362175 33 39 52 255
-0.007077 0.394201 0.156781 -0.091784 0.923299 0.372955 36 42 54 255
-0.058016 0.346071 0.263397 -0.093325 0.934853 0.342549 26 33 43 255
-0.389788 -0.300141 0.069145 -0.633134 -0.559036 0.535369 34 44 60 255
0.085922 0.284596 0.469801 0.516586 0.222607 0.826792 30 39 53 255
0.010753 0.106526 0.563504 0.263905 0.292353 0.919176 29 35 48 255
0.179601 0.060103 0.516736 0.410391 0.427830 0.805320 29 38 51 255
0.010753 0.106526 0.563504 0.086892 -0.379572 0.921073 29 35 48 255
-0.052111 0.038500 0.541401 0.069531 -0.323297 0.943740 28 36 48 255
-0.039873 -0.047130 0.513158 0.056607 -0.297472 0.953051 27 33 45 255
0.000922 -0.079300 0.501059 0.047893 -0.301572 0.952240 26 32 44 255
0.123823 -0.106380 0.483207 0.046665 -0.393480 0.918148 26 35 47 255
0.138244 -0.060983 0.501929 0.033508 -0.296556 0.954427 26 33 46 255
0.179601 0.060103 0.516736 0.340529 0.016394 0.940091 29 38 51 255
-0.058016 0.346071 0.263397 -0.181488 0.914477 0.361655 26 33 43 255
-0.104861 0.271215 0.429169 -0.129817 0.839321 0.527909 27 35 48 255
-0.094532 0.233905 0.477529 -0.072474 0.760994 0.644698 27 35 48 255
0.025652 0.184865 0.534310 -0.073088 0.572429 0.816690 26 34 47 255
-0.211175 0.173719 0.492498 -0.271736 0.714840 0.644332 28 36 48 255
-0.180723 -0.197645 0.375005 0.722077 0.334404 -0.605622 28 36 47 255
-0.180723 -0.197645 0.375005 -0.768694 -0.439543 0.464663 28 36 47 255
0.025652 0.184865 0.534310 -0.150505 0.370231 0.916666 26 34 47 255
0.123823 -0.106380 0.483207 0.086019 -0.702041 0.706923 26 35 47 255
0.000922 -0.079300 0.501059 -0.047659 -0.691475 0.720827 26 32 44 255
-0.059465 -0.091107 0.485740 -0.047795 -0.692884 0.719463 27 34 45 255
-0.180723 -0.197645 0.375005 -0.126031 -0.554598 0.822519 28 36 47 255
-0.136878 -0.439437 0.221595 0.444391 -0.445128 0.777417 27 34 44 255
-0.080210 -0.499529 0.154795 0.238898 -0.569838 0.786265 35 40 49 255
0.503939 -0.191828 0.069228 0.652717 -0.593159 0.471300 34 44 60 255
0.232141 -0.130935 0.423686 0.125957 -0.672205 0.729572 30 39 52 255
0.252123 0.386698 0.194151 -0.790223 0.516719 -0.329468 30 38 50 255
-0.052111 0.038500 0.541401 -0.158052 0.166102 0.973360 28 36 48 255
0.085922 0.284596 0.469801 0.628739 0.369458 0.684242 30 39 53 255
0.057123 0.457049 0.064691 -0.030199 0.175099 -0.984088 34 44 60 255
0.460872 0.281854 0.067929 0.056862 0.002431 -0.998379 34 44 60 255
0.503939 -0.191828 0.069228 0.024474 -0.013611 -0.999608 34 44 60 255
0.224079 -0.499788 0.069228 0.004671 -0.015916 -0.999862 37 47 62 255
-0.138568 -0.512405 0.069319 -0.000067 -0.005266 -0.999986 34 44 60 255
-0.389788 -0.300141 0.069145 -0.009080 -0.004319 -0.999949 34 44 60 255
-0.496153 -0.058041 0.069228 -0.010973 -0.004475 -0.999930 34 44 60 255
-0.421059 0.233740 0.067098 -0.008956 -0.004357 -0.999950 34 44 60 255
-0.176808 0.413947 0.064200 0.222572 -0.874596 -0.430748 34 44 60 255
-0.058016 0.346071 0.263397 0.245176 -0.883570 -0.398989 26 33 43 255
-0.176808 0.413947 0.064200 0.751282 -0.648697 -0.121522 34 44 60 255
0.216628 0.374612 0.260329 0.635032 0.624524 0.454646 33 39 52 255
0.280566 0.221556 0.381269 0.709430 0.496613 0.500084 29 37 49 255
0.407490 0.038071 0.316968 0.778168 0.357273 0.516537 37 46 58 255
0.503939 -0.191828 0.069228 0.792467 -0.261373 0.551072 34 44 60 255
0.280566 0.221556 0.381269 0.671110 0.215665 0.709296 29 37 49 255
3 0 1 2
3 3 4 5
3 6 7 8
3 9 10 11
3 12 13 14
3 15 16 17
3 18 19 20
3 21 22 23
3 0 24 1
3 3 25 4
3 6 26 7
3 9 27 10
3 14 28 12
3 12 29 13
3 13 30 14
3 15 31 16
3 18 32 19
3 23 33 21
3 21 34 22
3 22 35 23
3 36 37 38
3 39 40 41
3 42 43 44
3 45 46 47
3 48 49 50
3 51 52 53
3 54 55 56
3 57 58 59
3 36 60 37
3 39 61 40
3 42 62 43
3 45 63 46
3 50 64 48
3 64 65 48
3 65 66 48
3 51 67 52
3 54 68 55
3 59 69 57
3 57 70 58
3 58 71 59
3 72 73 74
3 75 76 77
3 78 79 80
3 81 82 83
3 84 85 86
3 87 88 89
3 90 91 92
3 93 94 95
3 96 97 98
3 99 100 101
3 102 103 104
3 105 106 107
3 108 109 110
3 111 112 113
3 114 115 116
3 117 118 119
3 120 121 122
3 123 124 125
3 126 127 128
3 129 130 131
3 132 133 134
3 135 136 137
3 138 139 140
3 141 142 143
3 144 145 146
3 147 148 149
3 150 151 152
3 153 154 155
3 156 157 158
3 159 160 161
3 162 163 164
3 165 166 167
3 168 169 170
3 171 172 173
3 174 175 176
3 177 178 179
3 180 181 182
3 183 184 185
3 186 187 188
3 189 190 191
3 192 193 194
3 195 196 197
3 198 199 200
3 72 201 73
3 77 202 75
3 202 203 204
3 205 202 204
3 205 75 202
3 78 206 79
3 207 85 84
3 85 208 86
3 89 209 87
3 209 210 211
3 87 209 211
3 90 212 91
3 95 213 93
3 93 214 94
3 94 215 95
3 107 216 217
3 217 218 107
3 218 219 107
3 219 220 221
3 219 221 105
3 106 222 107
3 219 105 107
3 109 223 224
3 224 225 109
3 225 110 109
3 110 226 108
3 114 227 115
3 117 228 118
3 120 229 121
3 126 230 127
3 231 232 233
3 233 234 231
3 234 134 231
3 134 235 236
3 236 132 134
3 132 237 133
3 133 238 134
3 238 231 134
3 138 239 139
3 156 240 157
3 165 241 166
3 242 172 171
3 172 243 244
3 244 245 172
3 172 245 173
3 245 246 173
3 173 247 171
3 247 248 249
3 171 247 249
3 179 250 251
3 251 177 179
3 183 252 184
3 253 254 197
3 254 255 195
3 197 254 195
3 200 256 198
3 198 257 199
