ply
format ascii 1.0
comment Created by Blender 3.4.1 - www.blender.org
element vertex 82
property float x
property float y
property float z
property float nx
property float ny
property float nz
property uchar red
property uchar green
property uchar blue
property uchar alpha
element face 138
property list uchar uint vertex_indices
end_header
0.000000 -0.750000 0.060000 0.000000 -0.792406 0.609994 62 64 73 255
-0.649519 -0.375000 0.030000 -0.686244 -0.396203 -0.609994 62 64 73 255
0.000000 -0.750000 0.030000 -0.000000 -0.792406 -0.609994 62 64 73 255
-0.649519 -0.375000 0.060000 -0.686243 -0.396203 0.609994 62 64 73 255
-0.649519 0.375000 0.030000 -0.686243 0.396203 -0.609994 65 67 77 255
-0.649519 0.375000 0.060000 -0.686244 0.396203 0.609994 65 67 75 255
0.000000 0.750000 0.030000 0.000000 0.792406 -0.609994 63 67 74 255
0.000000 0.750000 0.060000 -0.000000 0.792406 0.609994 63 66 73 255
0.649519 0.375000 0.030000 0.686244 0.396203 -0.609994 62 64 73 255
0.649519 0.375000 0.060000 0.686243 0.396203 0.609994 62 64 73 255
0.649519 -0.375000 0.030000 0.686243 -0.396203 -0.609994 66 68 76 255
0.649519 -0.375000 0.060000 0.686244 -0.396203 0.609994 65 67 75 255
0.000000 -1.000000 0.030000 -0.000000 -0.792406 0.609994 186 173 204 255
-0.866025 -0.500000 0.000000 -0.686244 -0.396203 -0.609994 186 173 204 255
0.000000 -1.000000 0.000000 0.000000 -0.792406 -0.609994 186 173 204 255
-0.866025 -0.500000 0.030000 -0.686244 -0.396203 0.609994 186 173 204 255
-0.866025 0.500000 0.000000 -0.686244 0.396203 -0.609994 186 173 204 255
-0.866025 0.500000 0.030000 -0.686244 0.396203 0.609994 186 173 204 255
0.000000 1.000000 0.000000 -0.000000 0.792406 -0.609994 186 173 204 255
0.000000 1.000000 0.030000 0.000000 0.792406 0.609994 186 173 204 255
0.866025 0.500000 0.000000 0.686244 0.396203 -0.609994 186 173 204 255
0.866025 0.500000 0.030000 0.686244 0.396203 0.609994 186 173 204 255
0.866025 -0.500000 0.000000 0.686244 -0.396203 -0.609994 186 173 204 255
0.866025 -0.500000 0.030000 0.686244 -0.396203 0.609994 186 173 204 255
0.142922 0.293791 0.381633 0.405392 0.656951 0.635667 31 40 54 255
0.258289 0.208625 0.356712 0.648875 0.421932 0.633195 29 37 49 255
0.165033 0.400069 0.265282 0.756144 -0.337313 0.560773 33 38 49 255
0.137961 -0.060693 0.501072 0.273515 -0.363286 0.890625 23 29 40 255
0.122646 -0.104718 0.480464 0.179177 -0.592508 0.785385 24 32 44 255
0.230687 -0.128786 0.413186 0.359171 -0.489225 0.794767 29 37 50 255
0.310813 -0.028502 0.407599 0.643238 -0.024519 0.765273 28 35 47 255
0.288360 -0.171753 0.360656 0.531340 -0.502419 0.682094 24 31 41 255
0.261732 -0.009718 0.422106 0.527093 0.006745 0.849781 29 36 47 255
0.179601 0.060103 0.516736 0.586743 0.162959 0.793206 28 36 49 255
0.145482 0.216068 0.446159 0.497309 0.470196 0.729109 29 37 49 255
0.088311 0.374856 0.314756 0.697202 -0.610595 0.375610 36 42 53 255
0.047427 0.290988 0.414405 -0.121813 0.775259 0.619786 31 40 53 255
-0.166172 -0.343170 0.259726 -0.226367 -0.773266 0.592299 28 33 42 255
-0.295801 -0.406568 0.069228 -0.548178 -0.609468 0.572757 36 42 54 255
-0.124184 -0.416360 0.202739 -0.196931 -0.719756 0.665710 26 32 42 255
0.025201 0.178989 0.523196 -0.043720 0.549377 0.834430 23 30 41 255
0.098776 0.083397 0.545333 0.242160 0.091959 0.965868 23 29 39 255
-0.137245 -0.508846 0.069228 -0.314245 -0.829565 0.461598 35 41 51 255
0.224079 -0.499788 0.069228 0.300374 -0.694990 0.653272 40 44 52 255
-0.082404 -0.487647 0.145390 -0.085468 -0.799539 0.594502 35 40 49 255
0.002018 -0.078136 0.497094 -0.021848 -0.472253 0.881192 22 26 35 255
-0.038295 -0.045672 0.507906 -0.253989 -0.316404 0.913990 23 27 35 255
-0.058968 -0.090648 0.484088 -0.312940 -0.382330 0.869421 24 29 38 255
0.153994 -0.014827 0.512826 0.346190 -0.335694 0.876049 22 29 39 255
0.169351 0.029225 0.520987 0.452024 -0.189139 0.871723 25 33 44 255
-0.074113 0.240042 0.412478 -0.043501 0.493968 0.868391 25 32 44 255
-0.046840 0.199601 0.470658 -0.409018 0.550519 0.727759 25 30 41 255
-0.092431 0.202069 0.439898 -0.452928 0.587886 0.670259 23 29 39 255
-0.076069 0.212568 0.441411 -0.410233 0.647003 0.642726 23 29 40 255
0.305282 -0.104942 0.390756 0.211698 -0.383784 0.898829 27 35 45 255
-0.374827 0.122706 0.240449 0.711002 -0.382556 -0.590024 30 36 46 255
-0.389788 -0.300141 0.069145 0.722031 0.097043 -0.685021 35 39 46 255
-0.496153 -0.058041 0.069228 0.705578 0.176507 -0.686298 39 45 56 255
-0.215907 0.071051 0.419947 -0.626765 -0.029866 0.778636 29 37 50 255
-0.297100 0.130029 0.349358 -0.152749 -0.987828 0.029375 27 33 44 255
-0.230522 0.123138 0.398988 -0.404873 -0.093125 0.909618 29 38 52 255
0.011054 0.106576 0.560533 -0.155269 0.131395 0.979095 26 28 39 255
-0.050421 0.039830 0.535568 -0.378197 -0.105721 0.919668 24 30 39 255
0.375189 0.071816 0.285378 0.803650 0.135373 0.579501 37 46 58 255
-0.134682 -0.252366 0.381276 0.229526 -0.650146 0.724312 28 36 47 255
0.460301 0.281479 0.069228 0.752232 0.453361 0.478132 39 44 53 255
0.200730 0.420235 0.060433 -0.082395 -0.977689 0.193222 45 51 59 255
0.272492 0.428989 0.135329 0.906239 0.386945 0.170308 29 36 46 255
-0.476802 0.146129 0.069228 0.853673 -0.062754 -0.517015 43 48 58 255
0.232465 0.426408 0.188871 0.704098 -0.569804 0.423755 27 33 42 255
0.057123 0.457467 0.064969 -0.119081 -0.969806 -0.212830 33 39 47 255
-0.156341 0.187128 0.410159 0.073355 -0.808052 0.584527 24 31 41 255
0.183105 0.242629 0.397025 0.547052 0.547650 0.633098 29 37 49 255
0.012087 0.311972 0.375734 0.387903 0.319248 0.864646 32 40 53 255
0.084234 0.268549 0.453802 0.165506 0.690808 0.703840 29 38 52 255
0.503939 -0.191828 0.069228 0.755535 -0.313344 0.575311 36 41 49 255
-0.470087 0.236196 0.072317 0.665909 -0.386446 -0.638142 44 49 58 255
-0.380980 0.311077 0.069228 0.410661 -0.605904 -0.681350 39 44 52 255
-0.279638 0.373188 0.069228 0.464051 -0.669381 -0.580160 36 39 47 255
-0.175934 0.432964 0.074667 0.391625 -0.747240 -0.536901 40 45 53 255
-0.068691 0.480787 0.069228 0.144723 -0.878290 -0.455698 37 43 51 255
0.527139 0.025126 0.069228 0.821633 0.042381 0.568439 33 37 46 255
3 0 1 2
3 3 4 1
3 5 6 4
3 7 8 6
3 0 9 5
3 9 10 8
3 11 2 10
3 1 6 10
3 0 3 1
3 3 5 4
3 5 7 6
3 7 9 8
3 5 3 0
3 0 11 9
3 9 7 5
3 9 11 10
3 11 0 2
3 10 2 1
3 1 4 6
3 6 8 10
3 12 13 14
3 15 16 13
3 17 18 16
3 19 20 18
3 12 21 17
3 21 22 20
3 23 14 22
3 13 18 22
3 12 15 13
3 15 17 16
3 17 19 18
3 19 21 20
3 17 15 12
3 12 23 21
3 21 19 17
3 21 23 22
3 23 12 14
3 22 14 13
3 13 16 18
3 18 20 22
3 24 25 26
3 27 28 29
3 30 29 31
3 25 32 30
3 33 25 34
3 35 36 24
3 37 38 39
3 40 41 34
3 42 39 38
3 42 43 44
3 45 46 47
3 48 49 41
3 36 50 51
3 52 51 53
3 50 52 53
3 54 30 31
3 55 56 57
3 55 58 59
3 60 59 58
3 61 51 62
3 42 44 39
3 54 31 63
3 29 28 64
3 65 66 67
3 55 57 68
3 69 26 25
3 67 70 66
3 37 56 64
3 58 71 60
3 58 62 71
3 58 46 62
3 71 51 52
3 47 46 58
3 64 47 58
3 24 34 72
3 24 72 25
3 29 32 27
3 32 33 49
3 48 32 49
3 48 27 32
3 30 32 29
3 32 25 33
3 25 72 34
3 24 26 35
3 35 73 36
3 36 74 24
3 37 56 38
3 34 74 40
3 40 61 41
3 41 33 34
3 41 61 62
3 62 46 41
3 46 45 41
3 45 28 27
3 45 27 48
3 49 33 41
3 45 48 41
3 36 73 50
3 50 53 51
3 51 40 74
3 74 36 51
3 50 71 52
3 55 64 56
3 55 64 58
3 61 40 51
3 31 75 63
3 63 25 30
3 30 54 63
3 28 45 47
3 47 64 28
3 64 37 39
3 31 64 39
3 39 44 43
3 31 39 43
3 43 75 31
3 31 29 64
3 68 76 55
3 76 77 55
3 77 78 55
3 78 79 71
3 55 78 59
3 79 80 73
3 80 70 35
3 70 67 69
3 69 26 70
3 26 35 70
3 35 73 80
3 73 50 79
3 50 71 79
3 71 60 59
3 71 59 78
3 25 63 65
3 63 75 81
3 65 63 81
3 65 67 25
3 67 69 25
3 71 62 51
3 24 74 34
