ply
format ascii 1.0
comment Created by Blender 3.4.1 - www.blender.org
element vertex 76
property float x
property float y
property float z
property float nx
property float ny
property float nz
property uchar red
property uchar green
property uchar blue
property uchar alpha
element face 140
property list uchar uint vertex_indices
end_header
0.000000 -0.750000 0.060000 0.000000 -0.792406 0.609994 62 64 73 255
-0.649519 -0.375000 0.030000 -0.686244 -0.396203 -0.609994 62 64 73 255
0.000000 -0.750000 0.030000 -0.000000 -0.792406 -0.609994 62 64 73 255
-0.649519 -0.375000 0.060000 -0.686243 -0.396203 0.609994 62 64 73 255
-0.649519 0.375000 0.030000 -0.686243 0.396203 -0.609994 65 67 77 255
-0.649519 0.375000 0.060000 -0.686244 0.396203 0.609994 65 67 75 255
0.000000 0.750000 0.030000 0.000000 0.792406 -0.609994 63 67 74 255
0.000000 0.750000 0.060000 -0.000000 0.792406 0.609994 63 66 73 255
0.649519 0.375000 0.030000 0.686244 0.396203 -0.609994 62 64 73 255
0.649519 0.375000 0.060000 0.686243 0.396203 0.609994 62 64 73 255
0.649519 -0.375000 0.030000 0.686243 -0.396203 -0.609994 66 68 76 255
0.649519 -0.375000 0.060000 0.686244 -0.396203 0.609994 65 67 75 255
0.000000 -1.000000 0.030000 -0.000000 -0.792406 0.609994 186 173 204 255
-0.866025 -0.500000 0.000000 -0.686244 -0.396203 -0.609994 186 173 204 255
0.000000 -1.000000 0.000000 0.000000 -0.792406 -0.609994 186 173 204 255
-0.866025 -0.500000 0.030000 -0.686244 -0.396203 0.609994 186 173 204 255
-0.866025 0.500000 0.000000 -0.686244 0.396203 -0.609994 186 173 204 255
-0.866025 0.500000 0.030000 -0.686244 0.396203 0.609994 186 173 204 255
0.000000 1.000000 0.000000 -0.000000 0.792406 -0.609994 186 173 204 255
0.000000 1.000000 0.030000 0.000000 0.792406 0.609994 186 173 204 255
0.866025 0.500000 0.000000 0.686244 0.396203 -0.609994 186 173 204 255
0.866025 0.500000 0.030000 0.686244 0.396203 0.609994 186 173 204 255
0.866025 -0.500000 0.000000 0.686244 -0.396203 -0.609994 186 173 204 255
0.866025 -0.500000 0.030000 0.686244 -0.396203 0.609994 186 173 204 255
0.149260 0.310578 0.397572 0.316996 0.733218 0.601586 31 40 54 255
0.280566 0.221556 0.381269 0.599418 0.442381 0.667081 29 37 49 255
0.216628 0.374612 0.260329 0.580047 0.704714 0.408562 33 39 52 255
0.138244 -0.060983 0.501929 0.266112 -0.331758 0.905053 26 33 46 255
0.123823 -0.106380 0.483207 0.150772 -0.565426 0.810902 26 35 47 255
0.232141 -0.130935 0.423686 0.293700 -0.456117 0.840058 30 39 52 255
0.317563 -0.029633 0.422639 0.522372 -0.067620 0.850033 29 37 49 255
0.293093 -0.177548 0.379208 0.482883 -0.515967 0.707532 27 35 47 255
0.264277 -0.010044 0.428182 0.406777 -0.016124 0.913385 30 37 49 255
0.179601 0.060103 0.516736 0.545177 0.138156 0.826859 29 38 51 255
0.147421 0.217790 0.449363 0.480347 0.399086 0.781023 29 37 50 255
0.039722 0.310633 0.402053 -0.118141 0.900634 0.418212 32 41 54 255
0.085922 0.284596 0.469801 0.204897 0.672240 0.711415 30 39 53 255
-0.158389 -0.361952 0.278257 0.149892 -0.670092 0.726986 29 35 45 255
-0.295960 -0.406761 0.068773 -0.614788 -0.633524 -0.469769 34 44 60 255
-0.136878 -0.439437 0.221595 -0.118989 -0.681298 0.722271 27 34 44 255
0.025652 0.184865 0.534310 0.128909 0.427114 0.894961 26 34 47 255
0.098683 0.083311 0.545642 0.266476 0.065489 0.961614 26 34 46 255
-0.138568 -0.512405 0.069319 -0.291473 -0.804510 -0.517500 34 44 60 255
0.224079 -0.499788 0.069228 0.380866 -0.853330 -0.356046 37 47 62 255
-0.080210 -0.499529 0.154795 -0.023428 -0.859767 0.510149 35 40 49 255
0.000922 -0.079300 0.501059 -0.019032 -0.503293 0.863906 26 32 44 255
-0.039873 -0.047130 0.513158 -0.145198 -0.368943 0.918041 27 33 45 255
-0.059465 -0.091107 0.485740 -0.200147 -0.546740 0.813030 27 34 45 255
0.154019 -0.014850 0.512893 0.337010 -0.321780 0.884806 26 34 46 255
0.169351 0.029225 0.520987 0.436663 -0.183051 0.880805 27 36 48 255
-0.061323 0.206737 0.511196 -0.183242 0.504842 0.843539 28 36 48 255
-0.114871 0.214628 0.487726 -0.258335 0.667841 0.698034 27 35 48 255
-0.094532 0.233905 0.477529 -0.208309 0.718325 0.663789 27 35 48 255
-0.104861 0.271215 0.429169 0.085786 0.634281 0.768328 27 35 48 255
-0.426897 0.091192 0.240980 0.856190 -0.365214 -0.365456 30 37 48 255
-0.389788 -0.300141 0.069145 0.237326 0.062507 -0.969417 34 44 60 255
-0.496153 -0.058041 0.069228 0.511619 0.101372 -0.853211 34 44 60 255
-0.265716 0.046089 0.464959 -0.640853 -0.185443 0.744929 30 39 53 255
-0.313088 0.133874 0.374203 -0.824167 0.238075 0.513876 29 37 49 255
-0.287635 0.224118 0.392365 0.365614 -0.895009 -0.255510 31 40 54 255
0.010753 0.106526 0.563504 -0.051553 0.037789 0.997955 29 35 48 255
-0.052111 0.038500 0.541401 -0.188465 -0.179947 0.965453 28 36 48 255
0.460872 0.281854 0.067929 0.795368 0.423556 -0.433578 34 44 60 255
0.201889 0.419196 0.053513 -0.027782 -0.451045 -0.892069 34 44 60 255
0.300707 0.433551 0.151105 0.998502 0.050569 0.020869 31 39 51 255
0.057123 0.457049 0.064691 0.043451 -0.518583 -0.853923 34 44 60 255
-0.180723 -0.197645 0.375005 0.086415 -0.561245 0.823126 28 36 47 255
-0.211175 0.173719 0.492498 -0.469548 -0.059684 0.880888 28 36 48 255
0.188774 0.246983 0.403888 0.386480 0.441069 0.809995 29 37 49 255
0.407490 0.038071 0.316968 0.840968 0.064633 0.537210 37 46 58 255
0.503939 -0.191828 0.069228 0.842367 -0.330527 -0.425640 34 44 60 255
-0.176808 0.413947 0.064200 0.202812 -0.518214 -0.830856 34 44 60 255
-0.421059 0.233740 0.067098 0.412427 -0.359493 -0.837060 34 44 60 255
-0.058016 0.346071 0.263397 0.711652 -0.409889 -0.570563 26 33 43 255
-0.007077 0.394201 0.156781 0.154475 -0.865351 -0.476765 36 42 54 255
0.252123 0.386698 0.194151 0.005987 0.938476 0.345293 30 38 50 255
3 0 1 2
3 3 4 1
3 5 6 4
3 7 8 6
3 0 9 5
3 9 10 8
3 11 2 10
3 1 6 10
3 0 3 1
3 3 5 4
3 5 7 6
3 7 9 8
3 5 3 0
3 0 11 9
3 9 7 5
3 9 11 10
3 11 0 2
3 10 2 1
3 1 4 6
3 6 8 10
3 12 13 14
3 15 16 13
3 17 18 16
3 19 20 18
3 12 21 17
3 21 22 20
3 23 14 22
3 13 18 22
3 12 15 13
3 15 17 16
3 17 19 18
3 19 21 20
3 17 15 12
3 12 23 21
3 21 19 17
3 21 23 22
3 23 12 14
3 22 14 13
3 13 16 18
3 18 20 22
3 24 25 26
3 27 28 29
3 30 29 31
3 25 32 30
3 33 25 34
3 35 36 24
3 37 38 39
3 40 41 34
3 42 39 38
3 42 43 44
3 45 46 47
3 48 49 41
3 36 35 50
3 51 50 52
3 53 51 52
3 54 55 56
3 54 57 58
3 59 58 57
3 60 50 61
3 42 44 39
3 43 31 37
3 62 63 64
3 64 26 65
3 64 65 63
3 37 55 66
3 57 67 59
3 57 61 67
3 57 46 61
3 67 50 51
3 47 46 57
3 66 47 57
3 24 34 68
3 69 70 62
3 71 63 38
3 72 71 54
3 53 67 59
3 56 72 54
3 54 59 58
3 73 71 74
3 65 26 74
3 71 65 74
3 62 64 75
3 69 30 31
3 24 68 25
3 29 32 27
3 32 33 49
3 48 32 49
3 48 27 32
3 30 32 29
3 32 25 33
3 25 68 34
3 24 26 35
3 26 74 73
3 35 26 73
3 37 55 38
3 34 36 40
3 40 60 41
3 41 33 34
3 41 60 61
3 61 46 41
3 46 45 41
3 45 28 27
3 45 27 48
3 49 33 41
3 45 48 41
3 35 73 53
3 53 52 35
3 52 50 35
3 50 40 36
3 53 67 51
3 54 66 55
3 54 66 57
3 60 40 50
3 28 45 47
3 47 66 28
3 66 37 28
3 37 39 44
3 44 43 37
3 43 70 31
3 31 29 37
3 29 28 37
3 64 75 26
3 67 61 50
3 24 36 34
3 65 63 71
3 63 62 70
3 70 43 63
3 63 43 38
3 43 42 38
3 38 55 71
3 55 56 72
3 71 55 72
3 59 71 73
3 73 53 59
3 54 71 59
3 26 25 75
3 25 69 62
3 75 25 62
3 31 70 69
3 69 25 30
