ply
format ascii 1.0
comment Created by Blender 3.5.0 - www.blender.org
element vertex 167
property float x
property float y
property float z
property float nx
property float ny
property float nz
property uchar red
property uchar green
property uchar blue
property uchar alpha
element face 140
property list uchar uint vertex_indices
end_header
0.000000 -0.750000 0.060000 -0.500000 -0.866025 0.000000 62 64 73 255
-0.649519 -0.375000 0.030000 -0.500000 -0.866025 0.000000 62 64 73 255
0.000000 -0.750000 0.030000 -0.500000 -0.866025 0.000000 62 64 73 255
-0.649519 -0.375000 0.060000 -1.000000 0.000000 0.000000 62 64 73 255
-0.649519 0.375000 0.030000 -1.000000 0.000000 0.000000 65 67 77 255
-0.649519 -0.375000 0.030000 -1.000000 0.000000 0.000000 62 64 73 255
-0.649519 0.375000 0.060000 -0.500000 0.866025 0.000000 65 67 75 255
0.000000 0.750000 0.030000 -0.500000 0.866025 0.000000 63 67 74 255
-0.649519 0.375000 0.030000 -0.500000 0.866025 0.000000 65 67 77 255
0.000000 0.750000 0.060000 0.500000 0.866025 0.000000 63 66 73 255
0.649519 0.375000 0.030000 0.500000 0.866025 0.000000 62 64 73 255
0.000000 0.750000 0.030000 0.500000 0.866025 0.000000 63 67 74 255
0.000000 -0.750000 0.060000 0.000000 0.000000 1.000000 62 64 73 255
0.649519 0.375000 0.060000 0.000000 0.000000 1.000000 62 64 73 255
-0.649519 0.375000 0.060000 0.000000 0.000000 1.000000 65 67 75 255
0.649519 0.375000 0.060000 1.000000 0.000000 0.000000 62 64 73 255
0.649519 -0.375000 0.030000 1.000000 0.000000 0.000000 66 68 76 255
0.649519 0.375000 0.030000 1.000000 0.000000 0.000000 62 64 73 255
0.649519 -0.375000 0.060000 0.500000 -0.866025 0.000000 65 67 75 255
0.000000 -0.750000 0.030000 0.500000 -0.866025 0.000000 62 64 73 255
0.649519 -0.375000 0.030000 0.500000 -0.866025 0.000000 66 68 76 255
-0.649519 -0.375000 0.030000 0.000000 0.000000 -1.000000 62 64 73 255
0.000000 0.750000 0.030000 0.000000 0.000000 -1.000000 63 67 74 255
0.649519 -0.375000 0.030000 0.000000 0.000000 -1.000000 66 68 76 255
-0.649519 -0.375000 0.060000 -0.500000 -0.866025 0.000000 62 64 73 255
-0.649519 0.375000 0.060000 -1.000000 0.000000 0.000000 65 67 75 255
0.000000 0.750000 0.060000 -0.500000 0.866025 0.000000 63 66 73 255
0.649519 0.375000 0.060000 0.500000 0.866025 0.000000 62 64 73 255
-0.649519 -0.375000 0.060000 0.000000 0.000000 1.000000 62 64 73 255
0.649519 -0.375000 0.060000 0.000000 0.000000 1.000000 65 67 75 255
0.000000 0.750000 0.060000 0.000000 0.000000 1.000000 63 66 73 255
0.649519 -0.375000 0.060000 1.000000 0.000000 0.000000 65 67 75 255
0.000000 -0.750000 0.060000 0.500000 -0.866025 0.000000 62 64 73 255
0.000000 -0.750000 0.030000 0.000000 0.000000 -1.000000 62 64 73 255
-0.649519 0.375000 0.030000 0.000000 0.000000 -1.000000 65 67 77 255
0.649519 0.375000 0.030000 0.000000 0.000000 -1.000000 62 64 73 255
0.000000 -0.900000 0.030000 0.000000 -0.191771 0.981440 186 173 204 255
-0.866025 -0.500000 0.000000 -0.248851 -0.143674 0.957826 186 173 204 255
0.000000 -1.000000 0.000000 0.000000 -0.287348 0.957826 186 173 204 255
-0.779423 -0.450000 0.030000 -0.166079 -0.095885 0.981440 186 173 204 255
-0.866025 0.500000 0.000000 -0.248851 0.143674 0.957826 186 173 204 255
0.000000 0.900000 0.030000 -0.000000 0.191771 0.981440 186 173 204 255
0.000000 1.000000 0.000000 -0.000000 0.287348 0.957826 186 173 204 255
0.866025 0.500000 0.000000 0.248851 0.143674 0.957826 186 173 204 255
0.779423 0.450000 0.030000 0.166079 0.095885 0.981440 186 173 204 255
-0.779423 0.450000 0.030000 -0.166079 0.095885 0.981440 186 173 204 255
0.866025 -0.500000 0.000000 0.248851 -0.143674 0.957826 186 173 204 255
-0.866025 -0.500000 0.000000 0.000000 0.000000 -1.000000 186 173 204 255
0.000000 1.000000 0.000000 0.000000 0.000000 -1.000000 186 173 204 255
0.866025 -0.500000 0.000000 0.000000 0.000000 -1.000000 186 173 204 255
0.779423 -0.450000 0.030000 0.166079 -0.095885 0.981440 186 173 204 255
0.000000 -1.000000 0.000000 0.000000 0.000000 -1.000000 186 173 204 255
-0.866025 0.500000 0.000000 0.000000 0.000000 -1.000000 186 173 204 255
0.866025 0.500000 0.000000 0.000000 0.000000 -1.000000 186 173 204 255
0.149260 0.310578 0.397572 0.532201 0.488115 0.691741 31 40 54 255
0.280566 0.221556 0.381269 0.588494 0.467801 0.659422 29 37 49 255
0.216628 0.374612 0.260329 0.600662 0.634885 0.485929 33 39 52 255
0.138244 -0.060983 0.501929 0.266112 -0.331758 0.905053 26 33 46 255
0.123823 -0.106380 0.483207 0.150772 -0.565426 0.810902 26 35 47 255
0.232141 -0.130935 0.423686 0.293700 -0.456117 0.840058 30 39 52 255
0.317563 -0.029633 0.422639 0.182153 -0.021500 0.983035 29 37 49 255
0.293093 -0.177548 0.379208 0.319317 -0.591869 0.740086 27 35 47 255
0.264277 -0.010044 0.428182 0.406777 -0.016124 0.913385 30 37 49 255
0.179601 0.060103 0.516736 0.560626 0.300431 0.771648 29 38 51 255
0.147421 0.217790 0.449363 0.480347 0.399086 0.781023 29 37 50 255
0.039722 0.310633 0.402053 -0.118141 0.900634 0.418212 32 41 54 255
0.085922 0.284596 0.469801 -0.137734 0.845110 0.516545 30 39 53 255
0.149260 0.310578 0.397572 0.017097 0.913360 0.406794 31 40 54 255
-0.158389 -0.361952 0.278257 -0.630235 -0.563254 0.534368 29 35 45 255
-0.295960 -0.406761 0.068773 -0.605907 -0.622716 0.495077 34 44 60 255
-0.136878 -0.439437 0.221595 -0.560232 -0.683994 0.467217 27 34 44 255
0.025652 0.184865 0.534310 0.411977 0.334393 0.847618 26 34 47 255
0.098683 0.083311 0.545642 0.388908 0.391253 0.834070 26 34 46 255
-0.138568 -0.512405 0.069319 -0.481170 -0.788460 0.383154 34 44 60 255
-0.138568 -0.512405 0.069319 0.034524 -0.991458 0.125773 34 44 60 255
0.224079 -0.499788 0.069228 0.034524 -0.991458 0.125773 37 47 62 255
-0.080210 -0.499529 0.154795 0.034524 -0.991458 0.125773 35 40 49 255
0.000922 -0.079300 0.501059 -0.019032 -0.503293 0.863906 26 32 44 255
-0.039873 -0.047130 0.513158 -0.145198 -0.368943 0.918041 27 33 45 255
-0.059465 -0.091107 0.485740 -0.200147 -0.546740 0.813030 27 34 45 255
0.154019 -0.014850 0.512893 0.337010 -0.321780 0.884806 26 34 46 255
0.169351 0.029225 0.520987 0.436663 -0.183051 0.880805 27 36 48 255
0.098683 0.083311 0.545642 0.107207 -0.269706 0.956956 26 34 46 255
-0.061323 0.206737 0.511196 -0.183242 0.504842 0.843539 28 36 48 255
-0.114871 0.214628 0.487726 -0.258335 0.667841 0.698034 27 35 48 255
-0.094532 0.233905 0.477529 -0.208309 0.718325 0.663789 27 35 48 255
-0.104861 0.271215 0.429169 -0.174818 0.810432 0.559141 27 35 48 255
-0.426897 0.091192 0.240980 0.730172 0.331570 -0.597420 30 37 48 255
-0.389788 -0.300141 0.069145 0.713695 0.360932 -0.600306 34 44 60 255
-0.496153 -0.058041 0.069228 0.743332 0.326781 -0.583671 34 44 60 255
-0.426897 0.091192 0.240980 -0.811888 -0.223902 0.539171 30 37 48 255
-0.265716 0.046089 0.464959 -0.812318 -0.125859 0.569472 30 39 53 255
-0.313088 0.133874 0.374203 -0.800912 0.163364 0.576066 29 37 49 255
-0.287635 0.224118 0.392365 -0.780635 0.151166 0.606431 31 40 54 255
0.010753 0.106526 0.563504 -0.365150 0.210697 0.906793 29 35 48 255
-0.052111 0.038500 0.541401 -0.188465 -0.179947 0.965453 28 36 48 255
-0.080210 -0.499529 0.154795 -0.402896 -0.823629 0.399137 35 40 49 255
0.224079 -0.499788 0.069228 0.349542 -0.669347 0.655588 37 47 62 255
-0.158389 -0.361952 0.278257 0.098671 -0.621082 0.777509 29 35 45 255
0.460872 0.281854 0.067929 0.419427 0.734982 -0.532807 34 44 60 255
0.201889 0.419196 0.053513 0.419427 0.734982 -0.532807 34 44 60 255
0.300707 0.433551 0.151105 0.419427 0.734982 -0.532807 31 39 51 255
0.300707 0.433551 0.151105 -0.103979 -0.839626 -0.533119 31 39 51 255
0.216628 0.374612 0.260329 -0.043199 -0.846461 -0.530695 33 39 52 255
0.057123 0.457049 0.064691 0.135499 -0.871273 -0.471725 34 44 60 255
0.300707 0.433551 0.151105 -0.211792 -0.912973 0.348746 31 39 51 255
0.057123 0.457049 0.064691 -0.211792 -0.912973 0.348746 34 44 60 255
0.201889 0.419196 0.053513 -0.211792 -0.912973 0.348746 34 44 60 255
-0.158389 -0.361952 0.278257 0.663000 0.444719 -0.602209 29 35 45 255
-0.180723 -0.197645 0.375005 0.696444 0.385550 -0.605241 28 36 47 255
-0.211175 0.173719 0.492498 -0.738123 0.174827 0.651621 28 36 48 255
-0.265716 0.046089 0.464959 -0.352508 -0.245719 0.902973 30 39 53 255
-0.211175 0.173719 0.492498 -0.269011 0.095449 0.958396 28 36 48 255
-0.180723 -0.197645 0.375005 -0.370549 -0.432564 0.821938 28 36 47 255
0.188774 0.246983 0.403888 0.386480 0.441069 0.809995 29 37 49 255
0.407490 0.038071 0.316968 0.845055 -0.018697 0.534353 37 46 58 255
0.503939 -0.191828 0.069228 0.903865 -0.074730 0.421240 34 44 60 255
0.460872 0.281854 0.067929 0.953056 0.087447 0.289892 34 44 60 255
-0.176808 0.413947 0.064200 -0.022609 0.008915 -0.999705 34 44 60 255
0.201889 0.419196 0.053513 0.001850 0.010627 -0.999942 34 44 60 255
-0.295960 -0.406761 0.068773 -0.007473 -0.009418 -0.999928 34 44 60 255
-0.421059 0.233740 0.067098 0.495232 -0.679931 -0.540777 34 44 60 255
-0.176808 0.413947 0.064200 0.655236 -0.683694 -0.321292 34 44 60 255
-0.426897 0.091192 0.240980 0.712481 -0.603280 -0.358362 30 37 48 255
-0.104861 0.271215 0.429169 0.304441 -0.857701 -0.414324 27 35 48 255
-0.211175 0.173719 0.492498 0.310717 -0.732370 -0.605879 28 36 48 255
-0.287635 0.224118 0.392365 0.284390 -0.832533 -0.475407 31 40 54 255
-0.496153 -0.058041 0.069228 0.953999 -0.246769 -0.170267 34 44 60 255
-0.421059 0.233740 0.067098 0.953999 -0.246769 -0.170267 34 44 60 255
-0.426897 0.091192 0.240980 0.953999 -0.246769 -0.170267 30 37 48 255
-0.287635 0.224118 0.392365 0.808757 -0.506125 -0.299582 31 40 54 255
-0.313088 0.133874 0.374203 0.771367 -0.090784 -0.629882 29 37 49 255
-0.058016 0.346071 0.263397 0.203492 -0.897076 -0.392231 26 33 43 255
-0.176808 0.413947 0.064200 0.168401 -0.887584 -0.428760 34 44 60 255
-0.007077 0.394201 0.156781 0.134175 -0.886128 -0.443592 36 42 54 255
0.460872 0.281854 0.067929 0.685516 0.460026 0.564308 34 44 60 255
0.300707 0.433551 0.151105 0.567060 0.155177 0.808927 31 39 51 255
0.252123 0.386698 0.194151 0.624871 0.507106 0.593616 30 38 50 255
0.317563 -0.029633 0.422639 0.789385 -0.104243 0.604983 29 37 49 255
0.293093 -0.177548 0.379208 0.799755 -0.269459 0.536454 27 35 47 255
0.179601 0.060103 0.516736 0.508218 -0.050328 0.859757 29 38 51 255
0.216628 0.374612 0.260329 -0.063388 0.929952 0.362175 33 39 52 255
-0.007077 0.394201 0.156781 -0.091784 0.923299 0.372955 36 42 54 255
-0.058016 0.346071 0.263397 -0.119031 0.929756 0.348404 26 33 43 255
-0.389788 -0.300141 0.069145 -0.633134 -0.559036 0.535369 34 44 60 255
0.085922 0.284596 0.469801 0.570690 0.290362 0.768117 30 39 53 255
0.010753 0.106526 0.563504 0.263905 0.292353 0.919176 29 35 48 255
0.010753 0.106526 0.563504 0.086892 -0.379572 0.921073 29 35 48 255
0.025652 0.184865 0.534310 -0.073088 0.572429 0.816690 26 34 47 255
-0.211175 0.173719 0.492498 -0.271736 0.714840 0.644332 28 36 48 255
-0.180723 -0.197645 0.375005 -0.768694 -0.439543 0.464663 28 36 47 255
0.025652 0.184865 0.534310 -0.150505 0.370231 0.916666 26 34 47 255
-0.180723 -0.197645 0.375005 -0.126031 -0.554598 0.822519 28 36 47 255
-0.136878 -0.439437 0.221595 0.444391 -0.445128 0.777417 27 34 44 255
-0.080210 -0.499529 0.154795 0.238898 -0.569838 0.786265 35 40 49 255
0.503939 -0.191828 0.069228 0.652717 -0.593159 0.471300 34 44 60 255
0.252123 0.386698 0.194151 -0.790223 0.516719 -0.329468 30 38 50 255
0.057123 0.457049 0.064691 -0.030199 0.175099 -0.984088 34 44 60 255
0.460872 0.281854 0.067929 0.056862 0.002431 -0.998379 34 44 60 255
0.503939 -0.191828 0.069228 0.024474 -0.013611 -0.999608 34 44 60 255
0.224079 -0.499788 0.069228 0.004671 -0.015916 -0.999862 37 47 62 255
-0.138568 -0.512405 0.069319 -0.000067 -0.005266 -0.999986 34 44 60 255
-0.389788 -0.300141 0.069145 -0.009080 -0.004319 -0.999949 34 44 60 255
-0.496153 -0.058041 0.069228 -0.010973 -0.004475 -0.999930 34 44 60 255
-0.421059 0.233740 0.067098 -0.008956 -0.004357 -0.999950 34 44 60 255
0.407490 0.038071 0.316968 0.778168 0.357273 0.516537 37 46 58 255
0.280566 0.221556 0.381269 0.671110 0.215665 0.709296 29 37 49 255
3 0 1 2
3 3 4 5
3 6 7 8
3 9 10 11
3 12 13 14
3 15 16 17
3 18 19 20
3 21 22 23
3 0 24 1
3 3 25 4
3 6 26 7
3 9 27 10
3 14 28 12
3 12 29 13
3 13 30 14
3 15 31 16
3 18 32 19
3 23 33 21
3 21 34 22
3 22 35 23
3 36 37 38
3 39 40 37
3 40 41 42
3 41 43 42
3 44 41 45
3 44 46 43
3 46 36 38
3 47 48 49
3 36 39 37
3 39 45 40
3 40 45 41
3 41 44 43
3 45 39 44
3 39 36 44
3 36 50 44
3 44 50 46
3 46 50 36
3 49 51 47
3 47 52 48
3 48 53 49
3 54 55 56
3 57 58 59
3 60 59 61
3 55 62 60
3 63 55 64
3 65 66 67
3 68 69 70
3 71 72 64
3 73 70 69
3 74 75 76
3 77 78 79
3 80 81 82
3 66 65 83
3 84 83 85
3 86 84 85
3 87 88 89
3 90 91 92
3 93 92 91
3 94 83 95
3 73 96 70
3 97 61 98
3 99 100 101
3 102 103 104
3 105 106 107
3 108 88 109
3 91 110 93
3 111 95 112
3 111 78 95
3 112 83 84
3 79 78 111
3 113 79 111
3 54 64 114
3 115 116 117
3 118 119 120
3 121 122 123
3 124 125 126
3 127 128 129
3 123 130 131
3 132 133 134
3 104 103 134
3 133 104 134
3 135 136 137
3 115 138 139
3 54 114 55
3 59 62 57
3 62 140 81
3 80 62 81
3 80 57 62
3 60 62 59
3 62 55 63
3 55 114 64
3 67 141 65
3 141 142 143
3 65 141 143
3 68 144 69
3 64 145 71
3 71 146 72
3 72 63 64
3 82 147 95
3 95 78 82
3 78 77 82
3 77 58 57
3 77 57 80
3 81 140 82
3 77 80 82
3 65 143 86
3 86 85 65
3 85 83 65
3 83 148 66
3 86 149 84
3 87 109 88
3 90 150 91
3 94 151 83
3 58 77 79
3 79 152 58
3 152 98 58
3 98 153 154
3 154 97 98
3 97 155 61
3 61 59 98
3 59 58 98
3 102 156 103
3 112 95 83
3 54 145 64
3 157 119 118
3 119 158 159
3 159 160 119
3 119 160 120
3 160 161 120
3 120 162 118
3 162 163 164
3 118 162 164
3 126 133 132
3 132 124 126
3 123 122 130
3 56 55 137
3 55 165 135
3 137 55 135
3 139 116 115
3 115 166 138
