ply
format ascii 1.0
comment Created by Blender 3.5.1 - www.blender.org
element vertex 72
property float x
property float y
property float z
property float nx
property float ny
property float nz
property uchar red
property uchar green
property uchar blue
property uchar alpha
element face 40
property list uchar uint vertex_indices
end_header
0.000000 -0.750000 0.060000 -0.500000 -0.866025 0.000000 231 181 105 255
-0.649519 -0.375000 0.030000 -0.500000 -0.866025 0.000000 226 190 141 255
0.000000 -0.750000 0.030000 -0.500000 -0.866025 0.000000 231 181 105 255
-0.649519 -0.375000 0.060000 -1.000000 0.000000 0.000000 227 189 140 255
-0.649519 0.375000 0.030000 -1.000000 0.000000 0.000000 227 189 139 255
-0.649519 -0.375000 0.030000 -1.000000 0.000000 0.000000 226 190 141 255
-0.649519 0.375000 0.060000 -0.500000 0.866025 0.000000 227 189 138 255
0.000000 0.750000 0.030000 -0.500000 0.866025 0.000000 231 181 105 255
-0.649519 0.375000 0.030000 -0.500000 0.866025 0.000000 227 189 139 255
0.000000 0.750000 0.060000 0.500000 0.866025 0.000000 231 181 105 255
0.649519 0.375000 0.030000 0.500000 0.866025 0.000000 230 183 112 255
0.000000 0.750000 0.030000 0.500000 0.866025 0.000000 231 181 105 255
0.000000 -0.750000 0.060000 0.000000 0.000000 1.000000 231 181 105 255
0.649519 0.375000 0.060000 0.000000 0.000000 1.000000 230 182 111 255
-0.649519 0.375000 0.060000 0.000000 0.000000 1.000000 227 189 138 255
0.649519 0.375000 0.060000 1.000000 0.000000 0.000000 230 182 111 255
0.649519 -0.375000 0.030000 1.000000 0.000000 0.000000 226 192 149 255
0.649519 0.375000 0.030000 1.000000 0.000000 0.000000 230 183 112 255
0.649519 -0.375000 0.060000 0.500000 -0.866025 0.000000 226 192 147 255
0.000000 -0.750000 0.030000 0.500000 -0.866025 0.000000 231 181 105 255
0.649519 -0.375000 0.030000 0.500000 -0.866025 0.000000 226 192 149 255
-0.649519 -0.375000 0.030000 0.000000 0.000000 -1.000000 226 190 141 255
0.000000 0.750000 0.030000 0.000000 0.000000 -1.000000 231 181 105 255
0.649519 -0.375000 0.030000 0.000000 0.000000 -1.000000 226 192 149 255
-0.649519 -0.375000 0.060000 -0.500000 -0.866025 0.000000 227 189 140 255
-0.649519 0.375000 0.060000 -1.000000 0.000000 0.000000 227 189 138 255
0.000000 0.750000 0.060000 -0.500000 0.866025 0.000000 231 181 105 255
0.649519 0.375000 0.060000 0.500000 0.866025 0.000000 230 182 111 255
-0.649519 -0.375000 0.060000 0.000000 0.000000 1.000000 227 189 140 255
0.649519 -0.375000 0.060000 0.000000 0.000000 1.000000 226 192 147 255
0.000000 0.750000 0.060000 0.000000 0.000000 1.000000 231 181 105 255
0.649519 -0.375000 0.060000 1.000000 0.000000 0.000000 226 192 147 255
0.000000 -0.750000 0.060000 0.500000 -0.866025 0.000000 231 181 105 255
0.000000 -0.750000 0.030000 0.000000 0.000000 -1.000000 231 181 105 255
-0.649519 0.375000 0.030000 0.000000 0.000000 -1.000000 227 189 139 255
0.649519 0.375000 0.030000 0.000000 0.000000 -1.000000 230 183 112 255
0.000000 -0.900000 0.030000 -0.163663 -0.283473 0.944911 118 176 185 255
-0.866025 -0.500000 0.000000 -0.163663 -0.283473 0.944911 118 176 185 255
0.000000 -1.000000 0.000000 -0.163663 -0.283473 0.944911 118 176 185 255
-0.779423 -0.450000 0.030000 -0.327327 0.000000 0.944911 118 176 185 255
-0.866025 0.500000 0.000000 -0.327327 0.000000 0.944911 118 176 185 255
-0.866025 -0.500000 0.000000 -0.327327 0.000000 0.944911 118 176 185 255
-0.866025 0.500000 0.000000 -0.163663 0.283473 0.944911 118 176 185 255
0.000000 0.900000 0.030000 -0.163663 0.283473 0.944911 116 175 185 255
0.000000 1.000000 0.000000 -0.163663 0.283473 0.944911 116 174 185 255
0.000000 0.900000 0.030000 0.163663 0.283473 0.944911 116 175 185 255
0.866025 0.500000 0.000000 0.163663 0.283473 0.944911 118 176 185 255
0.000000 1.000000 0.000000 0.163663 0.283473 0.944911 116 174 185 255
0.779423 0.450000 0.030000 0.000000 0.000000 1.000000 118 176 185 255
0.000000 0.900000 0.030000 0.000000 0.000000 1.000000 116 175 185 255
-0.779423 0.450000 0.030000 0.000000 0.000000 1.000000 118 176 185 255
0.779423 0.450000 0.030000 0.327327 0.000000 0.944911 118 176 185 255
0.866025 -0.500000 0.000000 0.327327 0.000000 0.944911 118 176 185 255
0.866025 0.500000 0.000000 0.327327 0.000000 0.944911 118 176 185 255
0.866025 -0.500000 0.000000 0.163663 -0.283473 0.944911 118 176 185 255
0.000000 -0.900000 0.030000 0.163663 -0.283473 0.944911 118 176 185 255
0.000000 -1.000000 0.000000 0.163663 -0.283473 0.944911 118 176 185 255
-0.866025 -0.500000 0.000000 0.000000 0.000000 -1.000000 118 176 185 255
0.000000 1.000000 0.000000 0.000000 0.000000 -1.000000 116 174 185 255
0.866025 -0.500000 0.000000 0.000000 0.000000 -1.000000 118 176 185 255
-0.779423 -0.450000 0.030000 -0.163663 -0.283473 0.944911 118 176 185 255
-0.779423 0.450000 0.030000 -0.327327 0.000000 0.944911 118 176 185 255
-0.779423 0.450000 0.030000 -0.163663 0.283473 0.944911 118 176 185 255
0.779423 0.450000 0.030000 0.163663 0.283473 0.944911 118 176 185 255
-0.779423 -0.450000 0.030000 0.000000 0.000000 1.000000 118 176 185 255
0.000000 -0.900000 0.030000 0.000000 0.000000 1.000000 118 176 185 255
0.779423 -0.450000 0.030000 0.000000 0.000000 1.000000 118 176 185 255
0.779423 -0.450000 0.030000 0.327327 0.000000 0.944911 118 176 185 255
0.779423 -0.450000 0.030000 0.163663 -0.283473 0.944911 118 176 185 255
0.000000 -1.000000 0.000000 0.000000 0.000000 -1.000000 118 176 185 255
-0.866025 0.500000 0.000000 0.000000 0.000000 -1.000000 118 176 185 255
0.866025 0.500000 0.000000 0.000000 0.000000 -1.000000 118 176 185 255
3 0 1 2
3 3 4 5
3 6 7 8
3 9 10 11
3 12 13 14
3 15 16 17
3 18 19 20
3 21 22 23
3 0 24 1
3 3 25 4
3 6 26 7
3 9 27 10
3 14 28 12
3 12 29 13
3 13 30 14
3 15 31 16
3 18 32 19
3 23 33 21
3 21 34 22
3 22 35 23
3 36 37 38
3 39 40 41
3 42 43 44
3 45 46 47
3 48 49 50
3 51 52 53
3 54 55 56
3 57 58 59
3 36 60 37
3 39 61 40
3 42 62 43
3 45 63 46
3 50 64 48
3 64 65 48
3 65 66 48
3 51 67 52
3 54 68 55
3 59 69 57
3 57 70 58
3 58 71 59
