ply
format ascii 1.0
comment Created by Blender 3.5.0 - www.blender.org
element vertex 42
property float x
property float y
property float z
property float nx
property float ny
property float nz
property uchar red
property uchar green
property uchar blue
property uchar alpha
element face 78
property list uchar uint vertex_indices
end_header
0.000000 -0.750000 0.060000 0.000000 -0.792406 0.609994 115 156 185 255
-0.649519 -0.375000 0.030000 -0.686244 -0.396203 -0.609994 106 176 185 255
0.000000 -0.750000 0.030000 -0.000000 -0.792406 -0.609994 115 156 185 255
-0.649519 -0.375000 0.060000 -0.686243 -0.396203 0.609994 106 176 185 255
-0.649519 0.375000 0.030000 -0.686243 0.396203 -0.609994 110 182 185 255
-0.649519 0.375000 0.060000 -0.686244 0.396203 0.609994 109 182 185 255
0.000000 0.750000 0.030000 0.000000 0.792406 -0.609994 106 176 185 255
0.000000 0.750000 0.060000 -0.000000 0.792406 0.609994 106 176 185 255
0.649519 0.375000 0.030000 0.686244 0.396203 -0.609994 112 165 184 255
0.649519 0.375000 0.060000 0.686243 0.396203 0.609994 112 164 185 255
0.649519 -0.375000 0.030000 0.686243 -0.396203 -0.609994 109 183 185 255
0.649519 -0.375000 0.060000 0.686244 -0.396203 0.609994 109 183 185 255
0.000000 -1.000000 0.030000 -0.000000 -0.792406 0.609994 137 116 185 255
-0.866025 -0.500000 0.000000 -0.686244 -0.396203 -0.609994 137 116 185 255
0.000000 -1.000000 0.000000 0.000000 -0.792406 -0.609994 137 116 185 255
-0.866025 -0.500000 0.030000 -0.686244 -0.396203 0.609994 137 116 185 255
-0.866025 0.500000 0.000000 -0.686244 0.396203 -0.609994 137 116 185 255
-0.866025 0.500000 0.030000 -0.686244 0.396203 0.609994 137 116 185 255
0.000000 1.000000 0.000000 -0.000000 0.792406 -0.609994 137 113 185 255
0.000000 1.000000 0.030000 0.000000 0.792406 0.609994 137 113 185 255
0.866025 0.500000 0.000000 0.686244 0.396203 -0.609994 137 116 185 255
0.866025 0.500000 0.030000 0.686244 0.396203 0.609994 137 116 185 255
0.866025 -0.500000 0.000000 0.686244 -0.396203 -0.609994 137 116 185 255
0.866025 -0.500000 0.030000 0.686244 -0.396203 0.609994 137 116 185 255
-0.015367 0.000379 0.060000 -0.262648 -0.001577 -0.964890 202 226 214 255
0.035956 -0.029953 0.080000 0.144815 -0.224630 0.963623 202 226 214 255
0.036594 -0.029621 0.060000 0.120269 -0.240597 -0.963145 202 226 214 255
-0.290193 -0.595634 0.060000 0.211560 -0.788636 -0.577317 202 226 214 255
-0.290193 -0.595634 0.080000 0.211564 -0.788634 0.577319 202 226 214 255
-0.342155 -0.565634 0.060000 -0.788675 -0.211325 -0.577350 202 226 214 255
-0.342155 -0.565634 0.080000 -0.788675 -0.211326 0.577350 202 226 214 255
-0.342562 0.566260 0.080000 -0.788766 0.211079 0.577317 205 227 216 255
-0.290600 0.596260 0.060000 0.211511 0.788643 -0.577326 202 226 214 255
-0.342562 0.566260 0.060000 -0.788766 0.211078 -0.577316 206 228 217 255
-0.290600 0.596260 0.080000 0.211511 0.788643 0.577326 202 226 214 255
0.035956 0.030047 0.060000 0.132322 0.227912 -0.964649 202 226 214 255
0.035956 0.030047 0.080000 0.132599 0.229184 0.964309 202 226 214 255
-0.015367 0.000379 0.080000 -0.261468 -0.001958 0.965210 202 226 214 255
0.689531 0.030047 0.080000 0.577350 0.577350 0.577350 202 226 214 255
0.689531 -0.029953 0.060000 0.577217 -0.577510 -0.577324 203 226 215 255
0.689531 0.030047 0.060000 0.577350 0.577350 -0.577350 202 226 214 255
0.689531 -0.029953 0.080000 0.577221 -0.577508 0.577322 202 226 214 255
3 0 1 2
3 3 4 1
3 5 6 4
3 7 8 6
3 0 9 5
3 9 10 8
3 11 2 10
3 1 6 10
3 0 3 1
3 3 5 4
3 5 7 6
3 7 9 8
3 5 3 0
3 0 11 9
3 9 7 5
3 9 11 10
3 11 0 2
3 10 2 1
3 1 4 6
3 6 8 10
3 12 13 14
3 15 16 13
3 17 18 16
3 19 20 18
3 12 21 17
3 21 22 20
3 23 14 22
3 13 18 22
3 12 15 13
3 15 17 16
3 17 19 18
3 19 21 20
3 17 15 12
3 12 23 21
3 21 19 17
3 21 23 22
3 23 12 14
3 22 14 13
3 13 16 18
3 18 20 22
3 24 25 26
3 25 27 26
3 28 29 27
3 30 24 29
3 27 24 26
3 25 30 28
3 31 32 33
3 34 35 32
3 36 24 35
3 37 33 24
3 32 24 33
3 34 37 36
3 38 39 40
3 41 26 39
3 25 35 26
3 36 40 35
3 26 40 39
3 25 38 36
3 37 25 36
3 35 26 24
3 24 37 25
3 25 28 27
3 28 30 29
3 30 37 24
3 27 29 24
3 25 37 30
3 31 34 32
3 34 36 35
3 36 37 24
3 37 31 33
3 32 35 24
3 34 31 37
3 38 41 39
3 41 25 26
3 25 36 35
3 36 38 40
3 26 35 40
3 25 41 38
