ply
format ascii 1.0
comment Created by Blender 3.5.0 - www.blender.org
element vertex 256
property float x
property float y
property float z
property float nx
property float ny
property float nz
property uchar red
property uchar green
property uchar blue
property uchar alpha
element face 132
property list uchar uint vertex_indices
end_header
0.000000 -0.750000 0.060000 -0.500000 -0.866025 0.000000 115 156 185 255
-0.649519 -0.375000 0.030000 -0.500000 -0.866025 0.000000 106 176 185 255
0.000000 -0.750000 0.030000 -0.500000 -0.866025 0.000000 115 156 185 255
-0.649519 -0.375000 0.060000 -1.000000 0.000000 0.000000 106 176 185 255
-0.649519 0.375000 0.030000 -1.000000 0.000000 0.000000 110 182 185 255
-0.649519 -0.375000 0.030000 -1.000000 0.000000 0.000000 106 176 185 255
-0.649519 0.375000 0.060000 -0.500000 0.866025 0.000000 109 182 185 255
0.000000 0.750000 0.030000 -0.500000 0.866025 0.000000 106 176 185 255
-0.649519 0.375000 0.030000 -0.500000 0.866025 0.000000 110 182 185 255
0.000000 0.750000 0.060000 0.500000 0.866025 0.000000 106 176 185 255
0.649519 0.375000 0.030000 0.500000 0.866025 0.000000 112 165 184 255
0.000000 0.750000 0.030000 0.500000 0.866025 0.000000 106 176 185 255
0.000000 -0.750000 0.060000 0.000000 0.000000 1.000000 115 156 185 255
0.649519 0.375000 0.060000 0.000000 0.000000 1.000000 112 164 185 255
-0.649519 0.375000 0.060000 0.000000 0.000000 1.000000 109 182 185 255
0.649519 0.375000 0.060000 1.000000 0.000000 0.000000 112 164 185 255
0.649519 -0.375000 0.030000 1.000000 0.000000 0.000000 109 183 185 255
0.649519 0.375000 0.030000 1.000000 0.000000 0.000000 112 165 184 255
0.649519 -0.375000 0.060000 0.500000 -0.866025 0.000000 109 183 185 255
0.000000 -0.750000 0.030000 0.500000 -0.866025 0.000000 115 156 185 255
0.649519 -0.375000 0.030000 0.500000 -0.866025 0.000000 109 183 185 255
-0.649519 -0.375000 0.030000 0.000000 0.000000 -1.000000 106 176 185 255
0.000000 0.750000 0.030000 0.000000 0.000000 -1.000000 106 176 185 255
0.649519 -0.375000 0.030000 0.000000 0.000000 -1.000000 109 183 185 255
-0.649519 -0.375000 0.060000 -0.500000 -0.866025 0.000000 106 176 185 255
-0.649519 0.375000 0.060000 -1.000000 0.000000 0.000000 109 182 185 255
0.000000 0.750000 0.060000 -0.500000 0.866025 0.000000 106 176 185 255
0.649519 0.375000 0.060000 0.500000 0.866025 0.000000 112 164 185 255
-0.649519 -0.375000 0.060000 0.000000 0.000000 1.000000 106 176 185 255
0.649519 -0.375000 0.060000 0.000000 0.000000 1.000000 109 183 185 255
0.000000 0.750000 0.060000 0.000000 0.000000 1.000000 106 176 185 255
0.649519 -0.375000 0.060000 1.000000 0.000000 0.000000 109 183 185 255
0.000000 -0.750000 0.060000 0.500000 -0.866025 0.000000 115 156 185 255
0.000000 -0.750000 0.030000 0.000000 0.000000 -1.000000 115 156 185 255
-0.649519 0.375000 0.030000 0.000000 0.000000 -1.000000 110 182 185 255
0.649519 0.375000 0.030000 0.000000 0.000000 -1.000000 112 165 184 255
0.000000 -0.900000 0.030000 -0.163663 -0.283473 0.944911 137 116 185 255
-0.866025 -0.500000 0.000000 -0.163663 -0.283473 0.944911 137 116 185 255
0.000000 -1.000000 0.000000 -0.163663 -0.283473 0.944911 137 116 185 255
-0.779423 -0.450000 0.030000 -0.327327 0.000000 0.944911 137 116 185 255
-0.866025 0.500000 0.000000 -0.327327 0.000000 0.944911 137 116 185 255
-0.866025 -0.500000 0.000000 -0.327327 0.000000 0.944911 137 116 185 255
-0.866025 0.500000 0.000000 -0.163663 0.283473 0.944911 137 116 185 255
0.000000 0.900000 0.030000 -0.163663 0.283473 0.944911 137 113 185 255
0.000000 1.000000 0.000000 -0.163663 0.283473 0.944911 137 113 185 255
0.000000 0.900000 0.030000 0.163663 0.283473 0.944911 137 113 185 255
0.866025 0.500000 0.000000 0.163663 0.283473 0.944911 137 116 185 255
0.000000 1.000000 0.000000 0.163663 0.283473 0.944911 137 113 185 255
0.779423 0.450000 0.030000 0.000000 0.000000 1.000000 137 116 185 255
0.000000 0.900000 0.030000 0.000000 0.000000 1.000000 137 113 185 255
-0.779423 0.450000 0.030000 0.000000 0.000000 1.000000 137 116 185 255
0.779423 0.450000 0.030000 0.327327 0.000000 0.944911 137 116 185 255
0.866025 -0.500000 0.000000 0.327327 0.000000 0.944911 137 116 185 255
0.866025 0.500000 0.000000 0.327327 0.000000 0.944911 137 116 185 255
0.866025 -0.500000 0.000000 0.163663 -0.283473 0.944911 137 116 185 255
0.000000 -0.900000 0.030000 0.163663 -0.283473 0.944911 137 116 185 255
0.000000 -1.000000 0.000000 0.163663 -0.283473 0.944911 137 116 185 255
-0.866025 -0.500000 0.000000 0.000000 0.000000 -1.000000 137 116 185 255
0.000000 1.000000 0.000000 0.000000 0.000000 -1.000000 137 113 185 255
0.866025 -0.500000 0.000000 0.000000 0.000000 -1.000000 137 116 185 255
-0.779423 -0.450000 0.030000 -0.163663 -0.283473 0.944911 137 116 185 255
-0.779423 0.450000 0.030000 -0.327327 0.000000 0.944911 137 116 185 255
-0.779423 0.450000 0.030000 -0.163663 0.283473 0.944911 137 116 185 255
0.779423 0.450000 0.030000 0.163663 0.283473 0.944911 137 116 185 255
-0.779423 -0.450000 0.030000 0.000000 0.000000 1.000000 137 116 185 255
0.000000 -0.900000 0.030000 0.000000 0.000000 1.000000 137 116 185 255
0.779423 -0.450000 0.030000 0.000000 0.000000 1.000000 137 116 185 255
0.779423 -0.450000 0.030000 0.327327 0.000000 0.944911 137 116 185 255
0.779423 -0.450000 0.030000 0.163663 -0.283473 0.944911 137 116 185 255
0.000000 -1.000000 0.000000 0.000000 0.000000 -1.000000 137 116 185 255
-0.866025 0.500000 0.000000 0.000000 0.000000 -1.000000 137 116 185 255
0.866025 0.500000 0.000000 0.000000 0.000000 -1.000000 137 116 185 255
-0.015367 0.000379 0.060000 -0.506961 -0.861946 -0.006242 202 226 214 255
0.035956 -0.029953 0.080000 -0.501645 -0.864737 -0.024115 202 226 214 255
-0.015367 0.000379 0.080000 -0.508775 -0.860900 0.000000 202 226 214 255
0.035956 -0.029953 0.080000 0.865875 -0.499900 0.018969 202 226 214 255
-0.290193 -0.595634 0.060000 0.866316 -0.499497 0.000377 202 226 214 255
0.036594 -0.029621 0.060000 0.865863 -0.499906 0.019338 202 226 214 255
-0.290193 -0.595634 0.080000 -0.499999 -0.866026 0.000000 202 226 214 255
-0.342155 -0.565634 0.060000 -0.499999 -0.866026 0.000000 202 226 214 255
-0.290193 -0.595634 0.060000 -0.499999 -0.866026 0.000000 202 226 214 255
-0.342155 -0.565634 0.080000 -0.866025 0.500000 0.000000 202 226 214 255
-0.015367 0.000379 0.060000 -0.866025 0.500000 0.000000 202 226 214 255
-0.342155 -0.565634 0.060000 -0.866025 0.500000 0.000000 202 226 214 255
-0.290193 -0.595634 0.060000 0.000000 0.000000 -1.000000 197 214 206 255
-0.015367 0.000379 0.060000 0.000000 0.000000 -1.000000 202 226 214 255
0.036594 -0.029621 0.060000 0.000000 0.000000 -1.000000 202 226 214 255
0.035956 -0.029953 0.080000 0.000000 0.000000 1.000000 202 226 214 255
-0.342155 -0.565634 0.080000 0.000000 0.000000 1.000000 202 226 214 255
-0.290193 -0.595634 0.080000 0.000000 0.000000 1.000000 202 226 214 255
-0.342562 0.566260 0.080000 -0.500000 0.866026 0.000000 205 227 216 255
-0.290600 0.596260 0.060000 -0.500000 0.866026 0.000000 202 226 214 255
-0.342562 0.566260 0.060000 -0.500000 0.866026 0.000000 206 228 217 255
-0.290600 0.596260 0.080000 0.866255 0.499602 0.000000 202 226 214 255
0.035956 0.030047 0.060000 0.866255 0.499602 0.000000 202 226 214 255
-0.290600 0.596260 0.060000 0.866255 0.499602 0.000000 202 226 214 255
0.035956 0.030047 0.080000 0.500469 -0.865754 0.000000 202 226 214 255
-0.015367 0.000379 0.060000 0.500469 -0.865754 0.000000 202 226 214 255
0.035956 0.030047 0.060000 0.500469 -0.865755 0.000000 202 226 214 255
-0.015367 0.000379 0.080000 -0.865706 -0.500553 0.000000 202 226 214 255
-0.342562 0.566260 0.060000 -0.865706 -0.500553 0.000000 206 228 217 255
-0.015367 0.000379 0.060000 -0.865706 -0.500553 0.000000 202 226 214 255
-0.290600 0.596260 0.060000 0.000000 0.000000 -1.000000 202 226 214 255
-0.015367 0.000379 0.060000 0.000000 0.000000 -1.000000 202 226 214 255
-0.342562 0.566260 0.060000 0.000000 0.000000 -1.000000 206 228 217 255
-0.290600 0.596260 0.080000 0.000000 0.000000 1.000000 202 226 214 255
-0.015367 0.000379 0.080000 0.000000 0.000000 1.000000 202 226 214 255
0.035956 0.030047 0.080000 0.000000 0.000000 1.000000 202 226 214 255
0.689531 0.030047 0.080000 1.000000 0.000000 0.000000 202 226 214 255
0.689531 -0.029953 0.060000 1.000000 0.000000 0.000000 203 226 215 255
0.689531 0.030047 0.060000 1.000000 0.000000 0.000000 202 226 214 255
0.689531 -0.029953 0.080000 -0.000497 -1.000000 -0.000323 202 226 214 255
0.036594 -0.029621 0.060000 -0.000010 -0.999868 -0.016243 202 226 214 255
0.689531 -0.029953 0.060000 -0.000507 -1.000000 0.000000 203 226 215 255
0.035956 -0.029953 0.080000 -0.999641 -0.008474 -0.025422 202 226 214 255
0.035956 0.030047 0.060000 -0.999976 -0.002190 -0.006569 202 226 214 255
0.036594 -0.029621 0.060000 -0.999429 -0.010685 -0.032054 202 226 214 255
0.035956 0.030047 0.080000 -0.000000 1.000000 0.000000 202 226 214 255
0.689531 0.030047 0.060000 -0.000000 1.000000 0.000000 202 226 214 255
0.035956 0.030047 0.060000 -0.000000 1.000000 0.000000 202 226 214 255
0.036594 -0.029621 0.060000 0.000000 0.000000 -1.000000 202 226 214 255
0.689531 0.030047 0.060000 0.000000 0.000000 -1.000000 202 226 214 255
0.689531 -0.029953 0.060000 0.000000 0.000000 -1.000000 203 226 215 255
0.035956 -0.029953 0.080000 0.000000 0.000000 1.000000 202 226 214 255
0.689531 0.030047 0.080000 0.000000 0.000000 1.000000 202 226 214 255
0.035956 0.030047 0.080000 0.000000 0.000000 1.000000 202 226 214 255
-0.015367 0.000379 0.080000 0.000000 0.000000 1.000000 205 228 216 255
0.035956 -0.029953 0.080000 0.000000 0.000000 1.000000 202 226 214 255
0.035956 0.030047 0.080000 0.000000 0.000000 1.000000 202 226 214 255
0.035956 0.030047 0.060000 0.000000 0.000000 1.000000 202 226 214 255
-0.015367 0.000379 0.060000 0.000000 0.000000 1.000000 202 226 214 255
0.036594 -0.029621 0.060000 0.000000 0.000000 1.000000 202 226 214 255
0.001645 -0.029397 0.080000 -0.498187 0.867047 0.006245 202 226 214 255
0.053607 0.000603 0.060000 -0.492865 0.869770 0.024155 202 226 214 255
0.001645 -0.029397 0.060000 -0.500000 0.866025 0.000000 202 226 214 255
0.053575 -0.000115 0.080000 0.865864 0.499920 0.018969 202 226 214 255
0.380394 -0.565409 0.060000 0.865735 0.500503 0.000377 202 226 214 255
0.053607 0.000603 0.060000 0.865863 0.499907 0.019338 202 226 214 255
0.380394 -0.565409 0.080000 0.500001 -0.866025 0.000000 202 226 214 255
0.328433 -0.595409 0.060000 0.500001 -0.866025 0.000000 202 226 214 255
0.380394 -0.565409 0.060000 0.500001 -0.866025 0.000000 202 226 214 255
0.328433 -0.595409 0.080000 -0.866025 -0.500000 0.000000 202 226 214 255
0.001645 -0.029397 0.060000 -0.866025 -0.500000 0.000000 202 226 214 255
0.328433 -0.595409 0.060000 -0.866025 -0.500000 0.000000 202 226 214 255
0.053607 0.000603 0.060000 0.000000 0.000000 -1.000000 202 226 214 255
0.328433 -0.595409 0.060000 0.000000 0.000000 -1.000000 202 226 214 255
0.001645 -0.029397 0.060000 0.000000 0.000000 -1.000000 202 226 214 255
0.053575 -0.000115 0.080000 0.000000 0.000000 1.000000 202 226 214 255
0.328433 -0.595409 0.080000 0.000000 0.000000 1.000000 202 226 214 255
0.380394 -0.565409 0.080000 0.000000 0.000000 1.000000 202 226 214 255
-0.652019 -0.029815 0.080000 -1.000000 0.000002 0.000000 205 227 216 255
-0.652019 0.030185 0.060000 -1.000000 0.000002 0.000000 202 226 214 255
-0.652019 -0.029815 0.060000 -1.000000 0.000002 0.000000 206 228 217 255
-0.652019 0.030185 0.080000 0.000459 1.000000 0.000000 202 226 214 255
0.001613 0.029885 0.060000 0.000459 1.000000 0.000000 202 226 214 255
-0.652019 0.030185 0.060000 0.000459 1.000000 0.000000 202 226 214 255
0.001645 -0.029397 0.060000 -1.000000 -0.000541 0.000000 202 226 214 255
0.001613 0.029885 0.080000 -1.000000 -0.000541 0.000000 202 226 214 255
0.001613 0.029885 0.060000 -1.000000 -0.000541 0.000000 202 226 214 255
0.001645 -0.029397 0.080000 0.000639 -1.000000 0.000000 202 226 214 255
-0.652019 -0.029815 0.060000 0.000639 -1.000000 0.000000 206 228 217 255
0.001645 -0.029397 0.060000 0.000639 -1.000000 0.000000 202 226 214 255
0.001613 0.029885 0.060000 0.000000 0.000000 -1.000000 202 226 214 255
-0.652019 -0.029815 0.060000 0.000000 0.000000 -1.000000 206 228 217 255
-0.652019 0.030185 0.060000 0.000000 0.000000 -1.000000 202 226 214 255
0.001613 0.029885 0.080000 0.000000 0.000000 1.000000 202 226 214 255
-0.652019 -0.029815 0.080000 0.000000 0.000000 1.000000 205 227 216 255
0.001645 -0.029397 0.080000 0.000000 0.000000 1.000000 202 226 214 255
0.328401 0.595898 0.080000 0.500001 0.866025 0.000000 202 226 214 255
0.380362 0.565897 0.060000 0.500001 0.866025 0.000000 203 226 215 255
0.328401 0.595898 0.060000 0.500001 0.866025 0.000000 202 226 214 255
0.380362 0.565897 0.080000 0.865776 -0.500431 -0.000323 202 226 214 255
0.053607 0.000603 0.060000 0.865906 -0.499942 -0.016243 202 226 214 255
0.380362 0.565897 0.060000 0.865772 -0.500439 0.000000 203 226 215 255
0.053607 0.000603 0.060000 0.497951 0.866833 0.025386 202 226 214 255
0.001613 0.029885 0.080000 0.492619 0.870220 0.006567 202 226 214 255
0.053575 -0.000115 0.080000 0.499746 0.865585 0.031880 202 226 214 255
0.001613 0.029885 0.080000 -0.866025 0.500000 0.000000 202 226 214 255
0.328401 0.595898 0.060000 -0.866025 0.500000 0.000000 202 226 214 255
0.001613 0.029885 0.060000 -0.866025 0.500000 0.000000 202 226 214 255
0.053607 0.000603 0.060000 0.000000 0.000000 -1.000000 202 226 214 255
0.328401 0.595898 0.060000 0.000000 0.000000 -1.000000 202 226 214 255
0.380362 0.565897 0.060000 0.000000 0.000000 -1.000000 203 226 215 255
0.053575 -0.000115 0.080000 0.000000 0.000000 1.000000 202 226 214 255
0.328401 0.595898 0.080000 0.000000 0.000000 1.000000 202 226 214 255
0.001613 0.029885 0.080000 0.000000 0.000000 1.000000 202 226 214 255
0.001645 -0.029397 0.080000 0.000000 0.000000 1.000000 205 228 216 255
0.053575 -0.000115 0.080000 0.000000 0.000000 1.000000 202 226 214 255
0.001613 0.029885 0.080000 0.000000 0.000000 1.000000 202 226 214 255
0.001613 0.029885 0.060000 0.000000 0.000000 -1.000000 202 226 214 255
0.053607 0.000603 0.060000 0.000000 0.000000 -1.000000 202 226 214 255
0.001645 -0.029397 0.060000 0.000000 0.000000 -1.000000 202 226 214 255
0.036594 -0.029621 0.060000 -0.499771 -0.865628 -0.030277 202 226 214 255
-0.290193 -0.595634 0.080000 0.866322 -0.499487 0.000000 202 226 214 255
-0.342155 -0.565634 0.080000 -0.499999 -0.866026 0.000000 202 226 214 255
-0.015367 0.000379 0.080000 -0.866025 0.500000 0.000000 202 226 214 255
-0.342155 -0.565634 0.060000 0.000000 0.000000 -1.000000 202 226 214 255
-0.015367 0.000379 0.080000 0.000000 0.000000 1.000000 202 226 214 255
-0.290600 0.596260 0.080000 -0.500000 0.866026 0.000000 202 226 214 255
0.035956 0.030047 0.080000 0.866255 0.499602 0.000000 202 226 214 255
-0.015367 0.000379 0.080000 0.500469 -0.865755 0.000000 202 226 214 255
-0.342562 0.566260 0.080000 -0.865706 -0.500553 0.000000 205 227 216 255
0.035956 0.030047 0.060000 0.000000 0.000000 -1.000000 202 226 214 255
-0.342562 0.566260 0.080000 0.000000 0.000000 1.000000 205 227 216 255
0.689531 -0.029953 0.080000 1.000000 0.000000 0.000000 202 226 214 255
0.035956 -0.029953 0.080000 0.000000 -0.999863 -0.016560 202 226 214 255
0.035956 0.030047 0.080000 -1.000000 -0.000000 0.000000 202 226 214 255
0.689531 0.030047 0.080000 -0.000000 1.000000 0.000000 202 226 214 255
0.035956 0.030047 0.060000 0.000000 0.000000 -1.000000 202 226 214 255
0.689531 -0.029953 0.080000 0.000000 0.000000 1.000000 202 226 214 255
0.053575 -0.000115 0.080000 -0.490946 0.870657 0.030472 202 226 214 255
0.380394 -0.565409 0.080000 0.865729 0.500513 0.000000 202 226 214 255
0.328433 -0.595409 0.080000 0.500001 -0.866025 0.000000 202 226 214 255
0.001645 -0.029397 0.080000 -0.866025 -0.500000 0.000000 202 226 214 255
0.380394 -0.565409 0.060000 0.000000 0.000000 -1.000000 197 214 206 255
0.001645 -0.029397 0.080000 0.000000 0.000000 1.000000 202 226 214 255
-0.652019 0.030185 0.080000 -1.000000 0.000002 0.000000 202 226 214 255
0.001613 0.029885 0.080000 0.000459 1.000000 0.000000 202 226 214 255
0.001645 -0.029397 0.080000 -1.000000 -0.000541 0.000000 202 226 214 255
-0.652019 -0.029815 0.080000 0.000639 -1.000000 0.000000 205 227 216 255
0.001645 -0.029397 0.060000 0.000000 0.000000 -1.000000 202 226 214 255
-0.652019 0.030185 0.080000 0.000000 0.000000 1.000000 202 226 214 255
0.380362 0.565897 0.080000 0.500001 0.866025 0.000000 202 226 214 255
0.053575 -0.000115 0.080000 0.865907 -0.499931 -0.016560 202 226 214 255
0.001613 0.029885 0.060000 0.490713 0.871321 0.000000 202 226 214 255
0.328401 0.595898 0.080000 -0.866025 0.500000 0.000000 202 226 214 255
0.001613 0.029885 0.060000 0.000000 0.000000 -1.000000 202 226 214 255
0.380362 0.565897 0.080000 0.000000 0.000000 1.000000 202 226 214 255
-0.394042 -0.433778 0.085000 0.500000 0.866025 0.000000 226 167 87 255
-0.155885 -0.571278 0.060000 0.500000 0.866025 0.000000 226 167 87 255
-0.394042 -0.433778 0.060000 0.500000 0.866025 0.000000 226 167 87 255
-0.155885 -0.571278 0.085000 0.866025 -0.500000 0.000000 226 167 87 255
-0.180885 -0.614579 0.060000 0.866025 -0.500000 0.000000 226 167 87 255
-0.155885 -0.571278 0.060000 0.866025 -0.500001 0.000000 226 167 87 255
-0.324964 -0.589131 0.085000 -0.500000 -0.866025 0.000000 226 167 87 255
-0.419042 -0.477079 0.060000 -0.765855 -0.643013 0.000000 226 167 87 255
-0.324964 -0.589131 0.060000 -0.500000 -0.866025 0.000000 226 167 87 255
-0.419042 -0.477079 0.060000 -0.866025 0.500000 0.000000 226 167 87 255
-0.394042 -0.433778 0.085000 -0.866025 0.500000 0.000000 226 167 87 255
-0.394042 -0.433778 0.060000 -0.866025 0.500000 0.000000 226 167 87 255
-0.180885 -0.614579 0.060000 -0.000000 -0.000000 -1.000000 226 167 87 255
-0.419042 -0.477079 0.060000 -0.000000 -0.000000 -1.000000 226 167 87 255
-0.394042 -0.433778 0.060000 -0.000000 -0.000000 -1.000000 226 167 87 255
-0.155885 -0.571278 0.085000 0.000000 0.000000 1.000000 226 167 87 255
-0.394042 -0.433778 0.085000 0.000000 0.000000 1.000000 226 167 87 255
-0.419042 -0.477079 0.085000 0.000000 0.000000 1.000000 226 167 87 255
-0.155885 -0.571278 0.085000 0.500000 0.866025 0.000000 226 167 87 255
-0.180885 -0.614579 0.085000 0.866025 -0.500000 0.000000 226 167 87 255
-0.180885 -0.614579 0.060000 -0.173938 -0.984757 0.000000 226 167 87 255
-0.180885 -0.614579 0.085000 -0.173938 -0.984757 0.000000 226 167 87 255
-0.419042 -0.477079 0.085000 -0.765855 -0.643013 0.000000 226 167 87 255
-0.419042 -0.477079 0.085000 -0.866025 0.500000 0.000000 226 167 87 255
-0.155885 -0.571278 0.060000 -0.000000 -0.000000 -1.000000 226 167 87 255
-0.324964 -0.589131 0.060000 0.000000 0.000000 -1.000000 226 167 87 255
-0.324964 -0.589131 0.085000 -0.000000 -0.000000 1.000000 226 167 87 255
-0.180885 -0.614579 0.085000 0.000000 0.000000 1.000000 226 167 87 255
3 0 1 2
3 3 4 5
3 6 7 8
3 9 10 11
3 12 13 14
3 15 16 17
3 18 19 20
3 21 22 23
3 0 24 1
3 3 25 4
3 6 26 7
3 9 27 10
3 14 28 12
3 12 29 13
3 13 30 14
3 15 31 16
3 18 32 19
3 23 33 21
3 21 34 22
3 22 35 23
3 36 37 38
3 39 40 41
3 42 43 44
3 45 46 47
3 48 49 50
3 51 52 53
3 54 55 56
3 57 58 59
3 36 60 37
3 39 61 40
3 42 62 43
3 45 63 46
3 50 64 48
3 64 65 48
3 65 66 48
3 51 67 52
3 54 68 55
3 59 69 57
3 57 70 58
3 58 71 59
3 72 73 74
3 75 76 77
3 78 79 80
3 81 82 83
3 84 85 86
3 87 88 89
3 90 91 92
3 93 94 95
3 96 97 98
3 99 100 101
3 102 103 104
3 105 106 107
3 108 109 110
3 111 112 113
3 114 115 116
3 117 118 119
3 120 121 122
3 123 124 125
3 126 127 128
3 129 130 131
3 132 133 134
3 135 136 137
3 138 139 140
3 141 142 143
3 144 145 146
3 147 148 149
3 150 151 152
3 153 154 155
3 156 157 158
3 159 160 161
3 162 163 164
3 165 166 167
3 168 169 170
3 171 172 173
3 174 175 176
3 177 178 179
3 180 181 182
3 183 184 185
3 186 187 188
3 189 190 191
3 72 192 73
3 75 193 76
3 78 194 79
3 81 195 82
3 84 196 85
3 87 197 88
3 90 198 91
3 93 199 94
3 96 200 97
3 99 201 100
3 102 202 103
3 105 203 106
3 108 204 109
3 111 205 112
3 114 206 115
3 117 207 118
3 120 208 121
3 123 209 124
3 132 210 133
3 135 211 136
3 138 212 139
3 141 213 142
3 144 214 145
3 147 215 148
3 150 216 151
3 153 217 154
3 156 218 157
3 159 219 160
3 162 220 163
3 165 221 166
3 168 222 169
3 171 223 172
3 174 224 175
3 177 225 178
3 180 226 181
3 183 227 184
3 228 229 230
3 231 232 233
3 234 235 236
3 237 238 239
3 240 241 242
3 243 244 245
3 228 246 229
3 231 247 232
3 236 248 234
3 248 249 234
3 234 250 235
3 237 251 238
3 242 252 240
3 240 253 241
3 254 255 245
3 255 243 245
