ply
format ascii 1.0
comment Created by Blender 3.5.1 - www.blender.org
element vertex 190
property float x
property float y
property float z
property float nx
property float ny
property float nz
property uchar red
property uchar green
property uchar blue
property uchar alpha
element face 98
property list uchar uint vertex_indices
end_header
0.000000 -0.750000 0.060000 -0.500000 -0.866025 0.000000 115 156 185 255
-0.649519 -0.375000 0.030000 -0.500000 -0.866025 0.000000 106 176 185 255
0.000000 -0.750000 0.030000 -0.500000 -0.866025 0.000000 115 156 185 255
-0.649519 -0.375000 0.060000 -1.000000 0.000000 0.000000 106 176 185 255
-0.649519 0.375000 0.030000 -1.000000 0.000000 0.000000 110 182 185 255
-0.649519 -0.375000 0.030000 -1.000000 0.000000 0.000000 106 176 185 255
-0.649519 0.375000 0.060000 -0.500000 0.866025 0.000000 109 182 185 255
0.000000 0.750000 0.030000 -0.500000 0.866025 0.000000 106 176 185 255
-0.649519 0.375000 0.030000 -0.500000 0.866025 0.000000 110 182 185 255
0.000000 0.750000 0.060000 0.500000 0.866025 0.000000 106 176 185 255
0.649519 0.375000 0.030000 0.500000 0.866025 0.000000 112 165 184 255
0.000000 0.750000 0.030000 0.500000 0.866025 0.000000 106 176 185 255
0.000000 -0.750000 0.060000 0.000000 0.000000 1.000000 115 156 185 255
0.649519 0.375000 0.060000 0.000000 0.000000 1.000000 112 164 185 255
-0.649519 0.375000 0.060000 0.000000 0.000000 1.000000 109 182 185 255
0.649519 0.375000 0.060000 1.000000 0.000000 0.000000 112 164 185 255
0.649519 -0.375000 0.030000 1.000000 0.000000 0.000000 109 183 185 255
0.649519 0.375000 0.030000 1.000000 0.000000 0.000000 112 165 184 255
0.649519 -0.375000 0.060000 0.500000 -0.866025 0.000000 109 183 185 255
0.000000 -0.750000 0.030000 0.500000 -0.866025 0.000000 115 156 185 255
0.649519 -0.375000 0.030000 0.500000 -0.866025 0.000000 109 183 185 255
-0.649519 -0.375000 0.060000 -0.500000 -0.866025 0.000000 106 176 185 255
-0.649519 0.375000 0.060000 -1.000000 0.000000 0.000000 109 182 185 255
0.000000 0.750000 0.060000 -0.500000 0.866025 0.000000 106 176 185 255
0.649519 0.375000 0.060000 0.500000 0.866025 0.000000 112 164 185 255
-0.649519 -0.375000 0.060000 0.000000 0.000000 1.000000 106 176 185 255
0.649519 -0.375000 0.060000 0.000000 0.000000 1.000000 109 183 185 255
0.000000 0.750000 0.060000 0.000000 0.000000 1.000000 106 176 185 255
0.649519 -0.375000 0.060000 1.000000 0.000000 0.000000 109 183 185 255
0.000000 -0.750000 0.060000 0.500000 -0.866025 0.000000 115 156 185 255
0.000000 -0.900000 0.030000 -0.163663 -0.283473 0.944911 137 116 185 255
-0.866025 -0.500000 0.000000 -0.163663 -0.283473 0.944911 137 116 185 255
0.000000 -1.000000 0.000000 -0.163663 -0.283473 0.944911 137 116 185 255
-0.779423 -0.450000 0.030000 -0.327327 0.000000 0.944911 137 116 185 255
-0.866025 0.500000 0.000000 -0.327327 0.000000 0.944911 137 116 185 255
-0.866025 -0.500000 0.000000 -0.327327 0.000000 0.944911 137 116 185 255
-0.866025 0.500000 0.000000 -0.163663 0.283473 0.944911 137 116 185 255
0.000000 0.900000 0.030000 -0.163663 0.283473 0.944911 137 113 185 255
0.000000 1.000000 0.000000 -0.163663 0.283473 0.944911 137 113 185 255
0.000000 0.900000 0.030000 0.163663 0.283473 0.944911 137 113 185 255
0.866025 0.500000 0.000000 0.163663 0.283473 0.944911 137 116 185 255
0.000000 1.000000 0.000000 0.163663 0.283473 0.944911 137 113 185 255
0.779423 0.450000 0.030000 0.000000 0.000000 1.000000 137 116 185 255
0.000000 0.900000 0.030000 0.000000 0.000000 1.000000 137 113 185 255
-0.779423 0.450000 0.030000 0.000000 0.000000 1.000000 137 116 185 255
0.779423 0.450000 0.030000 0.327327 0.000000 0.944911 137 116 185 255
0.866025 -0.500000 0.000000 0.327327 0.000000 0.944911 137 116 185 255
0.866025 0.500000 0.000000 0.327327 0.000000 0.944911 137 116 185 255
0.866025 -0.500000 0.000000 0.163663 -0.283473 0.944911 137 116 185 255
0.000000 -0.900000 0.030000 0.163663 -0.283473 0.944911 137 116 185 255
0.000000 -1.000000 0.000000 0.163663 -0.283473 0.944911 137 116 185 255
-0.779423 -0.450000 0.030000 -0.163663 -0.283473 0.944911 137 116 185 255
-0.779423 0.450000 0.030000 -0.327327 0.000000 0.944911 137 116 185 255
-0.779423 0.450000 0.030000 -0.163663 0.283473 0.944911 137 116 185 255
0.779423 0.450000 0.030000 0.163663 0.283473 0.944911 137 116 185 255
-0.779423 -0.450000 0.030000 0.000000 0.000000 1.000000 137 116 185 255
0.000000 -0.900000 0.030000 0.000000 0.000000 1.000000 137 116 185 255
0.779423 -0.450000 0.030000 0.000000 0.000000 1.000000 137 116 185 255
0.779423 -0.450000 0.030000 0.327327 0.000000 0.944911 137 116 185 255
0.779423 -0.450000 0.030000 0.163663 -0.283473 0.944911 137 116 185 255
0.035956 -0.029953 0.080000 0.865875 -0.499900 0.018969 202 226 214 255
-0.290193 -0.595634 0.060000 0.866316 -0.499497 0.000377 202 226 214 255
0.036594 -0.029621 0.060000 0.865863 -0.499906 0.019338 202 226 214 255
-0.290193 -0.595634 0.080000 -0.499999 -0.866026 0.000000 202 226 214 255
-0.342155 -0.565634 0.060000 -0.499999 -0.866026 0.000000 202 226 214 255
-0.290193 -0.595634 0.060000 -0.499999 -0.866026 0.000000 202 226 214 255
-0.342155 -0.565634 0.080000 -0.866025 0.500000 0.000000 202 226 214 255
-0.015367 0.000379 0.060000 -0.866025 0.500000 0.000000 202 226 214 255
-0.342155 -0.565634 0.060000 -0.866025 0.500000 0.000000 202 226 214 255
0.035956 -0.029953 0.080000 0.000000 0.000000 1.000000 202 226 214 255
-0.342155 -0.565634 0.080000 0.000000 0.000000 1.000000 202 226 214 255
-0.290193 -0.595634 0.080000 0.000000 0.000000 1.000000 202 226 214 255
-0.342562 0.566260 0.080000 -0.500000 0.866026 0.000000 205 227 216 255
-0.290600 0.596260 0.060000 -0.500000 0.866026 0.000000 202 226 214 255
-0.342562 0.566260 0.060000 -0.500000 0.866026 0.000000 206 228 217 255
-0.290600 0.596260 0.080000 0.866255 0.499602 0.000000 202 226 214 255
0.035956 0.030047 0.060000 0.866255 0.499602 0.000000 202 226 214 255
-0.290600 0.596260 0.060000 0.866255 0.499602 0.000000 202 226 214 255
-0.015367 0.000379 0.080000 -0.865706 -0.500553 0.000000 202 226 214 255
-0.342562 0.566260 0.060000 -0.865706 -0.500553 0.000000 206 228 217 255
-0.015367 0.000379 0.060000 -0.865706 -0.500553 0.000000 202 226 214 255
-0.290600 0.596260 0.080000 0.000000 0.000000 1.000000 202 226 214 255
-0.015367 0.000379 0.080000 0.000000 0.000000 1.000000 202 226 214 255
0.035956 0.030047 0.080000 0.000000 0.000000 1.000000 202 226 214 255
0.689531 0.030047 0.080000 1.000000 0.000000 0.000000 202 226 214 255
0.689531 -0.029953 0.060000 1.000000 0.000000 0.000000 203 226 215 255
0.689531 0.030047 0.060000 1.000000 0.000000 0.000000 202 226 214 255
0.689531 -0.029953 0.080000 -0.000497 -1.000000 -0.000323 202 226 214 255
0.036594 -0.029621 0.060000 -0.000010 -0.999868 -0.016243 202 226 214 255
0.689531 -0.029953 0.060000 -0.000507 -1.000000 0.000000 203 226 215 255
0.035956 0.030047 0.080000 -0.000000 1.000000 0.000000 202 226 214 255
0.689531 0.030047 0.060000 -0.000000 1.000000 0.000000 202 226 214 255
0.035956 0.030047 0.060000 -0.000000 1.000000 0.000000 202 226 214 255
0.035956 -0.029953 0.080000 0.000000 0.000000 1.000000 202 226 214 255
0.689531 0.030047 0.080000 0.000000 0.000000 1.000000 202 226 214 255
0.035956 0.030047 0.080000 0.000000 0.000000 1.000000 202 226 214 255
-0.015367 0.000379 0.080000 0.000000 0.000000 1.000000 205 228 216 255
0.035956 -0.029953 0.080000 0.000000 0.000000 1.000000 202 226 214 255
0.035956 0.030047 0.080000 0.000000 0.000000 1.000000 202 226 214 255
0.053575 -0.000115 0.080000 0.865864 0.499920 0.018969 202 226 214 255
0.380394 -0.565409 0.060000 0.865735 0.500503 0.000377 202 226 214 255
0.053607 0.000603 0.060000 0.865863 0.499907 0.019338 202 226 214 255
0.380394 -0.565409 0.080000 0.500001 -0.866025 0.000000 202 226 214 255
0.328433 -0.595409 0.060000 0.500001 -0.866025 0.000000 202 226 214 255
0.380394 -0.565409 0.060000 0.500001 -0.866025 0.000000 202 226 214 255
0.328433 -0.595409 0.080000 -0.866025 -0.500000 0.000000 202 226 214 255
0.001645 -0.029397 0.060000 -0.866025 -0.500000 0.000000 202 226 214 255
0.328433 -0.595409 0.060000 -0.866025 -0.500000 0.000000 202 226 214 255
0.053575 -0.000115 0.080000 0.000000 0.000000 1.000000 202 226 214 255
0.328433 -0.595409 0.080000 0.000000 0.000000 1.000000 202 226 214 255
0.380394 -0.565409 0.080000 0.000000 0.000000 1.000000 202 226 214 255
-0.652019 -0.029815 0.080000 -1.000000 0.000002 0.000000 205 227 216 255
-0.652019 0.030185 0.060000 -1.000000 0.000002 0.000000 202 226 214 255
-0.652019 -0.029815 0.060000 -1.000000 0.000002 0.000000 206 228 217 255
-0.652019 0.030185 0.080000 0.000459 1.000000 0.000000 202 226 214 255
0.001613 0.029885 0.060000 0.000459 1.000000 0.000000 202 226 214 255
-0.652019 0.030185 0.060000 0.000459 1.000000 0.000000 202 226 214 255
0.001645 -0.029397 0.080000 0.000639 -1.000000 0.000000 202 226 214 255
-0.652019 -0.029815 0.060000 0.000639 -1.000000 0.000000 206 228 217 255
0.001645 -0.029397 0.060000 0.000639 -1.000000 0.000000 202 226 214 255
0.001613 0.029885 0.080000 0.000000 0.000000 1.000000 202 226 214 255
-0.652019 -0.029815 0.080000 0.000000 0.000000 1.000000 205 227 216 255
0.001645 -0.029397 0.080000 0.000000 0.000000 1.000000 202 226 214 255
0.328401 0.595898 0.080000 0.500001 0.866025 0.000000 202 226 214 255
0.380362 0.565897 0.060000 0.500001 0.866025 0.000000 203 226 215 255
0.328401 0.595898 0.060000 0.500001 0.866025 0.000000 202 226 214 255
0.380362 0.565897 0.080000 0.865776 -0.500431 -0.000323 202 226 214 255
0.053607 0.000603 0.060000 0.865906 -0.499942 -0.016243 202 226 214 255
0.380362 0.565897 0.060000 0.865772 -0.500439 0.000000 203 226 215 255
0.001613 0.029885 0.080000 -0.866025 0.500000 0.000000 202 226 214 255
0.328401 0.595898 0.060000 -0.866025 0.500000 0.000000 202 226 214 255
0.001613 0.029885 0.060000 -0.866025 0.500000 0.000000 202 226 214 255
0.053575 -0.000115 0.080000 0.000000 0.000000 1.000000 202 226 214 255
0.328401 0.595898 0.080000 0.000000 0.000000 1.000000 202 226 214 255
0.001613 0.029885 0.080000 0.000000 0.000000 1.000000 202 226 214 255
0.001645 -0.029397 0.080000 0.000000 0.000000 1.000000 205 228 216 255
0.053575 -0.000115 0.080000 0.000000 0.000000 1.000000 202 226 214 255
0.001613 0.029885 0.080000 0.000000 0.000000 1.000000 202 226 214 255
-0.290193 -0.595634 0.080000 0.866322 -0.499487 0.000000 202 226 214 255
-0.342155 -0.565634 0.080000 -0.499999 -0.866026 0.000000 202 226 214 255
-0.015367 0.000379 0.080000 -0.866025 0.500000 0.000000 202 226 214 255
-0.015367 0.000379 0.080000 0.000000 0.000000 1.000000 202 226 214 255
-0.290600 0.596260 0.080000 -0.500000 0.866026 0.000000 202 226 214 255
0.035956 0.030047 0.080000 0.866255 0.499602 0.000000 202 226 214 255
-0.342562 0.566260 0.080000 -0.865706 -0.500553 0.000000 205 227 216 255
-0.342562 0.566260 0.080000 0.000000 0.000000 1.000000 205 227 216 255
0.689531 -0.029953 0.080000 1.000000 0.000000 0.000000 202 226 214 255
0.035956 -0.029953 0.080000 0.000000 -0.999863 -0.016560 202 226 214 255
0.689531 0.030047 0.080000 -0.000000 1.000000 0.000000 202 226 214 255
0.689531 -0.029953 0.080000 0.000000 0.000000 1.000000 202 226 214 255
0.380394 -0.565409 0.080000 0.865729 0.500513 0.000000 202 226 214 255
0.328433 -0.595409 0.080000 0.500001 -0.866025 0.000000 202 226 214 255
0.001645 -0.029397 0.080000 -0.866025 -0.500000 0.000000 202 226 214 255
0.001645 -0.029397 0.080000 0.000000 0.000000 1.000000 202 226 214 255
-0.652019 0.030185 0.080000 -1.000000 0.000002 0.000000 202 226 214 255
0.001613 0.029885 0.080000 0.000459 1.000000 0.000000 202 226 214 255
-0.652019 -0.029815 0.080000 0.000639 -1.000000 0.000000 205 227 216 255
-0.652019 0.030185 0.080000 0.000000 0.000000 1.000000 202 226 214 255
0.380362 0.565897 0.080000 0.500001 0.866025 0.000000 202 226 214 255
0.053575 -0.000115 0.080000 0.865907 -0.499931 -0.016560 202 226 214 255
0.328401 0.595898 0.080000 -0.866025 0.500000 0.000000 202 226 214 255
0.380362 0.565897 0.080000 0.000000 0.000000 1.000000 202 226 214 255
-0.394042 -0.433778 0.085000 0.500000 0.866025 0.000000 226 167 87 255
-0.155885 -0.571278 0.060000 0.500000 0.866025 0.000000 226 167 87 255
-0.394042 -0.433778 0.060000 0.500000 0.866025 0.000000 226 167 87 255
-0.155885 -0.571278 0.085000 0.866025 -0.500000 0.000000 226 167 87 255
-0.180885 -0.614579 0.060000 0.866025 -0.500000 0.000000 226 167 87 255
-0.155885 -0.571278 0.060000 0.866025 -0.500001 0.000000 226 167 87 255
-0.324964 -0.589131 0.085000 -0.500000 -0.866025 0.000000 226 167 87 255
-0.419042 -0.477079 0.060000 -0.765855 -0.643013 0.000000 226 167 87 255
-0.324964 -0.589131 0.060000 -0.500000 -0.866025 0.000000 226 167 87 255
-0.419042 -0.477079 0.060000 -0.866025 0.500000 0.000000 226 167 87 255
-0.394042 -0.433778 0.085000 -0.866025 0.500000 0.000000 226 167 87 255
-0.394042 -0.433778 0.060000 -0.866025 0.500000 0.000000 226 167 87 255
-0.180885 -0.614579 0.060000 -0.000000 -0.000000 -1.000000 226 167 87 255
-0.419042 -0.477079 0.060000 -0.000000 -0.000000 -1.000000 226 167 87 255
-0.394042 -0.433778 0.060000 -0.000000 -0.000000 -1.000000 226 167 87 255
-0.155885 -0.571278 0.085000 0.000000 0.000000 1.000000 226 167 87 255
-0.394042 -0.433778 0.085000 0.000000 0.000000 1.000000 226 167 87 255
-0.419042 -0.477079 0.085000 0.000000 0.000000 1.000000 226 167 87 255
-0.155885 -0.571278 0.085000 0.500000 0.866025 0.000000 226 167 87 255
-0.180885 -0.614579 0.085000 0.866025 -0.500000 0.000000 226 167 87 255
-0.180885 -0.614579 0.060000 -0.173938 -0.984757 0.000000 226 167 87 255
-0.180885 -0.614579 0.085000 -0.173938 -0.984757 0.000000 226 167 87 255
-0.419042 -0.477079 0.085000 -0.765855 -0.643013 0.000000 226 167 87 255
-0.419042 -0.477079 0.085000 -0.866025 0.500000 0.000000 226 167 87 255
-0.155885 -0.571278 0.060000 -0.000000 -0.000000 -1.000000 226 167 87 255
-0.324964 -0.589131 0.060000 0.000000 0.000000 -1.000000 226 167 87 255
-0.324964 -0.589131 0.085000 -0.000000 -0.000000 1.000000 226 167 87 255
-0.180885 -0.614579 0.085000 0.000000 0.000000 1.000000 226 167 87 255
3 0 1 2
3 3 4 5
3 6 7 8
3 9 10 11
3 12 13 14
3 15 16 17
3 18 19 20
3 0 21 1
3 3 22 4
3 6 23 7
3 9 24 10
3 14 25 12
3 12 26 13
3 13 27 14
3 15 28 16
3 18 29 19
3 30 31 32
3 33 34 35
3 36 37 38
3 39 40 41
3 42 43 44
3 45 46 47
3 48 49 50
3 30 51 31
3 33 52 34
3 36 53 37
3 39 54 40
3 44 55 42
3 55 56 42
3 56 57 42
3 45 58 46
3 48 59 49
3 60 61 62
3 63 64 65
3 66 67 68
3 69 70 71
3 72 73 74
3 75 76 77
3 78 79 80
3 81 82 83
3 84 85 86
3 87 88 89
3 90 91 92
3 93 94 95
3 96 97 98
3 99 100 101
3 102 103 104
3 105 106 107
3 108 109 110
3 111 112 113
3 114 115 116
3 117 118 119
3 120 121 122
3 123 124 125
3 126 127 128
3 129 130 131
3 132 133 134
3 135 136 137
3 60 138 61
3 63 139 64
3 66 140 67
3 69 141 70
3 72 142 73
3 75 143 76
3 78 144 79
3 81 145 82
3 84 146 85
3 87 147 88
3 90 148 91
3 93 149 94
3 99 150 100
3 102 151 103
3 105 152 106
3 108 153 109
3 111 154 112
3 114 155 115
3 117 156 118
3 120 157 121
3 123 158 124
3 126 159 127
3 129 160 130
3 132 161 133
3 162 163 164
3 165 166 167
3 168 169 170
3 171 172 173
3 174 175 176
3 177 178 179
3 162 180 163
3 165 181 166
3 170 182 168
3 182 183 168
3 168 184 169
3 171 185 172
3 176 186 174
3 174 187 175
3 188 189 179
3 189 177 179
