ply
format ascii 1.0
comment Created by Blender 3.5.0 - www.blender.org
element vertex 230
property float x
property float y
property float z
property float nx
property float ny
property float nz
property uchar red
property uchar green
property uchar blue
property uchar alpha
element face 132
property list uchar uint vertex_indices
end_header
0.000000 -0.750000 0.060000 -0.500000 -0.866025 0.000000 115 156 185 255
-0.649519 -0.375000 0.030000 -0.500000 -0.866025 0.000000 106 176 185 255
0.000000 -0.750000 0.030000 -0.500000 -0.866025 0.000000 115 156 185 255
-0.649519 -0.375000 0.060000 -1.000000 0.000000 0.000000 106 176 185 255
-0.649519 0.375000 0.030000 -1.000000 0.000000 0.000000 110 182 185 255
-0.649519 -0.375000 0.030000 -1.000000 0.000000 0.000000 106 176 185 255
-0.649519 0.375000 0.060000 -0.500000 0.866025 0.000000 109 182 185 255
0.000000 0.750000 0.030000 -0.500000 0.866025 0.000000 106 176 185 255
-0.649519 0.375000 0.030000 -0.500000 0.866025 0.000000 110 182 185 255
0.000000 0.750000 0.060000 0.500000 0.866025 0.000000 106 176 185 255
0.649519 0.375000 0.030000 0.500000 0.866025 0.000000 112 165 184 255
0.000000 0.750000 0.030000 0.500000 0.866025 0.000000 106 176 185 255
0.000000 -0.750000 0.060000 0.000000 0.000000 1.000000 115 156 185 255
0.649519 0.375000 0.060000 0.000000 0.000000 1.000000 112 164 185 255
-0.649519 0.375000 0.060000 0.000000 0.000000 1.000000 109 182 185 255
0.649519 0.375000 0.060000 1.000000 0.000000 0.000000 112 164 185 255
0.649519 -0.375000 0.030000 1.000000 0.000000 0.000000 109 183 185 255
0.649519 0.375000 0.030000 1.000000 0.000000 0.000000 112 165 184 255
0.649519 -0.375000 0.060000 0.500000 -0.866025 0.000000 109 183 185 255
0.000000 -0.750000 0.030000 0.500000 -0.866025 0.000000 115 156 185 255
0.649519 -0.375000 0.030000 0.500000 -0.866025 0.000000 109 183 185 255
-0.649519 -0.375000 0.030000 0.000000 0.000000 -1.000000 106 176 185 255
0.000000 0.750000 0.030000 0.000000 0.000000 -1.000000 106 176 185 255
0.649519 -0.375000 0.030000 0.000000 0.000000 -1.000000 109 183 185 255
-0.649519 -0.375000 0.060000 -0.500000 -0.866025 0.000000 106 176 185 255
-0.649519 0.375000 0.060000 -1.000000 0.000000 0.000000 109 182 185 255
0.000000 0.750000 0.060000 -0.500000 0.866025 0.000000 106 176 185 255
0.649519 0.375000 0.060000 0.500000 0.866025 0.000000 112 164 185 255
-0.649519 -0.375000 0.060000 0.000000 0.000000 1.000000 106 176 185 255
0.649519 -0.375000 0.060000 0.000000 0.000000 1.000000 109 183 185 255
0.000000 0.750000 0.060000 0.000000 0.000000 1.000000 106 176 185 255
0.649519 -0.375000 0.060000 1.000000 0.000000 0.000000 109 183 185 255
0.000000 -0.750000 0.060000 0.500000 -0.866025 0.000000 115 156 185 255
0.000000 -0.750000 0.030000 0.000000 0.000000 -1.000000 115 156 185 255
-0.649519 0.375000 0.030000 0.000000 0.000000 -1.000000 110 182 185 255
0.649519 0.375000 0.030000 0.000000 0.000000 -1.000000 112 165 184 255
0.000000 -0.900000 0.030000 0.000000 -0.191771 0.981440 137 116 185 255
-0.866025 -0.500000 0.000000 -0.248851 -0.143674 0.957826 137 116 185 255
0.000000 -1.000000 0.000000 0.000000 -0.287348 0.957826 137 116 185 255
-0.779423 -0.450000 0.030000 -0.166079 -0.095885 0.981440 137 116 185 255
-0.866025 0.500000 0.000000 -0.248851 0.143674 0.957826 137 116 185 255
0.000000 0.900000 0.030000 -0.000000 0.191771 0.981440 137 113 185 255
0.000000 1.000000 0.000000 -0.000000 0.287348 0.957826 137 113 185 255
0.866025 0.500000 0.000000 0.248851 0.143674 0.957826 137 116 185 255
0.779423 0.450000 0.030000 0.166079 0.095885 0.981440 137 116 185 255
-0.779423 0.450000 0.030000 -0.166079 0.095885 0.981440 137 116 185 255
0.866025 -0.500000 0.000000 0.248851 -0.143674 0.957826 137 116 185 255
-0.866025 -0.500000 0.000000 0.000000 0.000000 -1.000000 137 116 185 255
0.000000 1.000000 0.000000 0.000000 0.000000 -1.000000 137 113 185 255
0.866025 -0.500000 0.000000 0.000000 0.000000 -1.000000 137 116 185 255
0.779423 -0.450000 0.030000 0.166079 -0.095885 0.981440 137 116 185 255
0.000000 -1.000000 0.000000 0.000000 0.000000 -1.000000 137 116 185 255
-0.866025 0.500000 0.000000 0.000000 0.000000 -1.000000 137 116 185 255
0.866025 0.500000 0.000000 0.000000 0.000000 -1.000000 137 116 185 255
-0.015367 0.000379 0.060000 -0.506961 -0.861946 -0.006242 202 226 214 255
0.035956 -0.029953 0.080000 -0.501645 -0.864737 -0.024115 202 226 214 255
-0.015367 0.000379 0.080000 -0.508775 -0.860900 0.000000 202 226 214 255
0.035956 -0.029953 0.080000 0.865875 -0.499900 0.018969 202 226 214 255
-0.290193 -0.595634 0.060000 0.866316 -0.499497 0.000377 202 226 214 255
0.036594 -0.029621 0.060000 0.865863 -0.499906 0.019338 202 226 214 255
-0.290193 -0.595634 0.080000 -0.499999 -0.866026 0.000000 202 226 214 255
-0.342155 -0.565634 0.060000 -0.499999 -0.866026 0.000000 202 226 214 255
-0.290193 -0.595634 0.060000 -0.499999 -0.866026 0.000000 202 226 214 255
-0.342155 -0.565634 0.080000 -0.866025 0.500000 0.000000 202 226 214 255
-0.015367 0.000379 0.060000 -0.866025 0.500000 0.000000 202 226 214 255
-0.342155 -0.565634 0.060000 -0.866025 0.500000 0.000000 202 226 214 255
-0.290193 -0.595634 0.060000 0.000000 0.000000 -1.000000 197 214 206 255
-0.015367 0.000379 0.060000 0.000000 0.000000 -1.000000 202 226 214 255
0.036594 -0.029621 0.060000 0.000000 0.000000 -1.000000 202 226 214 255
0.035956 -0.029953 0.080000 0.000000 0.000000 1.000000 202 226 214 255
-0.342155 -0.565634 0.080000 0.000000 0.000000 1.000000 202 226 214 255
-0.290193 -0.595634 0.080000 0.000000 0.000000 1.000000 202 226 214 255
-0.342562 0.566260 0.080000 -0.500000 0.866026 0.000000 205 227 216 255
-0.290600 0.596260 0.060000 0.259041 0.965866 0.000000 202 226 214 255
-0.342562 0.566260 0.060000 -0.500000 0.866026 0.000000 206 228 217 255
-0.290600 0.596260 0.080000 0.259042 0.965866 0.000000 202 226 214 255
0.035956 0.030047 0.060000 0.866255 0.499602 0.000000 202 226 214 255
0.035956 0.030047 0.080000 0.500469 -0.865754 0.000000 202 226 214 255
-0.015367 0.000379 0.060000 0.500469 -0.865754 0.000000 202 226 214 255
0.035956 0.030047 0.060000 0.500469 -0.865755 0.000000 202 226 214 255
-0.015367 0.000379 0.080000 -0.865706 -0.500553 0.000000 202 226 214 255
-0.342562 0.566260 0.060000 -0.865706 -0.500553 0.000000 206 228 217 255
-0.015367 0.000379 0.060000 -0.865706 -0.500553 0.000000 202 226 214 255
-0.290600 0.596260 0.060000 0.000000 0.000000 -1.000000 202 226 214 255
-0.015367 0.000379 0.060000 0.000000 0.000000 -1.000000 202 226 214 255
-0.342562 0.566260 0.060000 0.000000 0.000000 -1.000000 206 228 217 255
-0.290600 0.596260 0.080000 0.000000 0.000000 1.000000 202 226 214 255
-0.015367 0.000379 0.080000 0.000000 0.000000 1.000000 202 226 214 255
0.035956 0.030047 0.080000 0.000000 0.000000 1.000000 202 226 214 255
0.689531 0.030047 0.080000 0.707107 0.707107 0.000000 202 226 214 255
0.689531 -0.029953 0.060000 1.000000 0.000000 0.000000 203 226 215 255
0.689531 0.030047 0.060000 0.707107 0.707107 0.000000 202 226 214 255
0.689531 -0.029953 0.080000 -0.000497 -1.000000 -0.000323 202 226 214 255
0.036594 -0.029621 0.060000 -0.000010 -0.999868 -0.016243 202 226 214 255
0.689531 -0.029953 0.060000 -0.000507 -1.000000 0.000000 203 226 215 255
0.035956 -0.029953 0.080000 -0.999641 -0.008474 -0.025422 202 226 214 255
0.035956 0.030047 0.060000 -0.999976 -0.002190 -0.006569 202 226 214 255
0.036594 -0.029621 0.060000 -0.999429 -0.010685 -0.032054 202 226 214 255
0.035956 0.030047 0.080000 -0.000000 1.000000 0.000000 202 226 214 255
0.035956 0.030047 0.060000 -0.000000 1.000000 0.000000 202 226 214 255
0.036594 -0.029621 0.060000 0.000000 0.000000 -1.000000 202 226 214 255
0.689531 0.030047 0.060000 0.000000 0.000000 -1.000000 202 226 214 255
0.689531 -0.029953 0.060000 0.000000 0.000000 -1.000000 203 226 215 255
0.035956 -0.029953 0.080000 0.000000 0.000000 1.000000 202 226 214 255
0.689531 0.030047 0.080000 0.000000 0.000000 1.000000 202 226 214 255
0.035956 0.030047 0.080000 0.000000 0.000000 1.000000 202 226 214 255
-0.015367 0.000379 0.080000 0.000000 0.000000 1.000000 205 228 216 255
0.035956 -0.029953 0.080000 0.000000 0.000000 1.000000 202 226 214 255
0.035956 0.030047 0.080000 0.000000 0.000000 1.000000 202 226 214 255
0.035956 0.030047 0.060000 0.000000 0.000000 1.000000 202 226 214 255
-0.015367 0.000379 0.060000 0.000000 0.000000 1.000000 202 226 214 255
0.036594 -0.029621 0.060000 0.000000 0.000000 1.000000 202 226 214 255
0.001645 -0.029397 0.080000 -0.498187 0.867047 0.006245 202 226 214 255
0.053607 0.000603 0.060000 -0.492865 0.869770 0.024155 202 226 214 255
0.001645 -0.029397 0.060000 -0.500000 0.866025 0.000000 202 226 214 255
0.053575 -0.000115 0.080000 0.865864 0.499920 0.018969 202 226 214 255
0.380394 -0.565409 0.060000 0.865735 0.500503 0.000377 202 226 214 255
0.053607 0.000603 0.060000 0.865863 0.499907 0.019338 202 226 214 255
0.380394 -0.565409 0.080000 0.500001 -0.866025 0.000000 202 226 214 255
0.328433 -0.595409 0.060000 -0.258818 -0.965926 0.000000 202 226 214 255
0.380394 -0.565409 0.060000 0.500001 -0.866025 0.000000 202 226 214 255
0.328433 -0.595409 0.080000 -0.258820 -0.965926 0.000000 202 226 214 255
0.001645 -0.029397 0.060000 -0.866025 -0.500000 0.000000 202 226 214 255
0.053607 0.000603 0.060000 0.000000 0.000000 -1.000000 202 226 214 255
0.328433 -0.595409 0.060000 0.000000 0.000000 -1.000000 202 226 214 255
0.001645 -0.029397 0.060000 0.000000 0.000000 -1.000000 202 226 214 255
0.053575 -0.000115 0.080000 0.000000 0.000000 1.000000 202 226 214 255
0.328433 -0.595409 0.080000 0.000000 0.000000 1.000000 202 226 214 255
0.380394 -0.565409 0.080000 0.000000 0.000000 1.000000 202 226 214 255
-0.652019 -0.029815 0.080000 -0.706881 -0.707332 0.000000 205 227 216 255
-0.652019 0.030185 0.060000 -1.000000 0.000002 0.000000 202 226 214 255
-0.652019 -0.029815 0.060000 -0.706882 -0.707332 0.000000 206 228 217 255
-0.652019 0.030185 0.080000 0.000459 1.000000 0.000000 202 226 214 255
0.001613 0.029885 0.060000 0.000459 1.000000 0.000000 202 226 214 255
-0.652019 0.030185 0.060000 0.000459 1.000000 0.000000 202 226 214 255
0.001645 -0.029397 0.060000 -1.000000 -0.000541 0.000000 202 226 214 255
0.001613 0.029885 0.080000 -1.000000 -0.000541 0.000000 202 226 214 255
0.001613 0.029885 0.060000 -1.000000 -0.000541 0.000000 202 226 214 255
0.001645 -0.029397 0.080000 0.000639 -1.000000 0.000000 202 226 214 255
0.001645 -0.029397 0.060000 0.000639 -1.000000 0.000000 202 226 214 255
0.001613 0.029885 0.060000 0.000000 0.000000 -1.000000 202 226 214 255
-0.652019 -0.029815 0.060000 0.000000 0.000000 -1.000000 206 228 217 255
-0.652019 0.030185 0.060000 0.000000 0.000000 -1.000000 202 226 214 255
0.001613 0.029885 0.080000 0.000000 0.000000 1.000000 202 226 214 255
-0.652019 -0.029815 0.080000 0.000000 0.000000 1.000000 205 227 216 255
0.001645 -0.029397 0.080000 0.000000 0.000000 1.000000 202 226 214 255
0.328401 0.595898 0.080000 0.500001 0.866025 0.000000 202 226 214 255
0.380362 0.565897 0.060000 0.500001 0.866025 0.000000 203 226 215 255
0.328401 0.595898 0.060000 0.500001 0.866025 0.000000 202 226 214 255
0.380362 0.565897 0.080000 0.865776 -0.500431 -0.000323 202 226 214 255
0.053607 0.000603 0.060000 0.865906 -0.499942 -0.016243 202 226 214 255
0.380362 0.565897 0.060000 0.865772 -0.500439 0.000000 203 226 215 255
0.053607 0.000603 0.060000 0.497951 0.866833 0.025386 202 226 214 255
0.001613 0.029885 0.080000 0.492619 0.870220 0.006567 202 226 214 255
0.053575 -0.000115 0.080000 0.499746 0.865585 0.031880 202 226 214 255
0.001613 0.029885 0.080000 -0.866025 0.500000 0.000000 202 226 214 255
0.328401 0.595898 0.060000 -0.866025 0.500000 0.000000 202 226 214 255
0.001613 0.029885 0.060000 -0.866025 0.500000 0.000000 202 226 214 255
0.053607 0.000603 0.060000 0.000000 0.000000 -1.000000 202 226 214 255
0.328401 0.595898 0.060000 0.000000 0.000000 -1.000000 202 226 214 255
0.380362 0.565897 0.060000 0.000000 0.000000 -1.000000 203 226 215 255
0.053575 -0.000115 0.080000 0.000000 0.000000 1.000000 202 226 214 255
0.328401 0.595898 0.080000 0.000000 0.000000 1.000000 202 226 214 255
0.001613 0.029885 0.080000 0.000000 0.000000 1.000000 202 226 214 255
0.001645 -0.029397 0.080000 0.000000 0.000000 1.000000 205 228 216 255
0.053575 -0.000115 0.080000 0.000000 0.000000 1.000000 202 226 214 255
0.001613 0.029885 0.080000 0.000000 0.000000 1.000000 202 226 214 255
0.001613 0.029885 0.060000 0.000000 0.000000 -1.000000 202 226 214 255
0.053607 0.000603 0.060000 0.000000 0.000000 -1.000000 202 226 214 255
0.001645 -0.029397 0.060000 0.000000 0.000000 -1.000000 202 226 214 255
0.036594 -0.029621 0.060000 -0.499771 -0.865628 -0.030277 202 226 214 255
-0.290193 -0.595634 0.080000 0.866322 -0.499487 0.000000 202 226 214 255
-0.342155 -0.565634 0.080000 -0.499999 -0.866026 0.000000 202 226 214 255
-0.015367 0.000379 0.080000 -0.866025 0.500000 0.000000 202 226 214 255
-0.342155 -0.565634 0.060000 0.000000 0.000000 -1.000000 202 226 214 255
-0.015367 0.000379 0.080000 0.000000 0.000000 1.000000 202 226 214 255
0.035956 0.030047 0.080000 0.866255 0.499602 0.000000 202 226 214 255
-0.015367 0.000379 0.080000 0.500469 -0.865755 0.000000 202 226 214 255
-0.342562 0.566260 0.080000 -0.865706 -0.500553 0.000000 205 227 216 255
0.035956 0.030047 0.060000 0.000000 0.000000 -1.000000 202 226 214 255
-0.342562 0.566260 0.080000 0.000000 0.000000 1.000000 205 227 216 255
0.689531 -0.029953 0.080000 1.000000 0.000000 0.000000 202 226 214 255
0.035956 -0.029953 0.080000 0.000000 -0.999863 -0.016560 202 226 214 255
0.035956 0.030047 0.080000 -1.000000 -0.000000 0.000000 202 226 214 255
0.035956 0.030047 0.060000 0.000000 0.000000 -1.000000 202 226 214 255
0.689531 -0.029953 0.080000 0.000000 0.000000 1.000000 202 226 214 255
0.053575 -0.000115 0.080000 -0.490946 0.870657 0.030472 202 226 214 255
0.380394 -0.565409 0.080000 0.865729 0.500513 0.000000 202 226 214 255
0.001645 -0.029397 0.080000 -0.866025 -0.500000 0.000000 202 226 214 255
0.380394 -0.565409 0.060000 0.000000 0.000000 -1.000000 197 214 206 255
0.001645 -0.029397 0.080000 0.000000 0.000000 1.000000 202 226 214 255
-0.652019 0.030185 0.080000 -1.000000 0.000002 0.000000 202 226 214 255
0.001613 0.029885 0.080000 0.000459 1.000000 0.000000 202 226 214 255
0.001645 -0.029397 0.080000 -1.000000 -0.000541 0.000000 202 226 214 255
0.001645 -0.029397 0.060000 0.000000 0.000000 -1.000000 202 226 214 255
-0.652019 0.030185 0.080000 0.000000 0.000000 1.000000 202 226 214 255
0.380362 0.565897 0.080000 0.500001 0.866025 0.000000 202 226 214 255
0.053575 -0.000115 0.080000 0.865907 -0.499931 -0.016560 202 226 214 255
0.001613 0.029885 0.060000 0.490713 0.871321 0.000000 202 226 214 255
0.328401 0.595898 0.080000 -0.866025 0.500000 0.000000 202 226 214 255
0.001613 0.029885 0.060000 0.000000 0.000000 -1.000000 202 226 214 255
0.380362 0.565897 0.080000 0.000000 0.000000 1.000000 202 226 214 255
-0.394042 -0.433778 0.085000 0.500000 0.866025 0.000000 226 167 87 255
-0.155885 -0.571278 0.060000 0.500000 0.866025 0.000000 226 167 87 255
-0.394042 -0.433778 0.060000 0.500000 0.866025 0.000000 226 167 87 255
-0.155885 -0.571278 0.085000 0.866025 -0.500000 0.000000 226 167 87 255
-0.180885 -0.614579 0.060000 0.866025 -0.500000 0.000000 226 167 87 255
-0.155885 -0.571278 0.060000 0.866025 -0.500001 0.000000 226 167 87 255
-0.324964 -0.589131 0.085000 -0.500000 -0.866025 0.000000 226 167 87 255
-0.419042 -0.477079 0.060000 -0.765855 -0.643013 0.000000 226 167 87 255
-0.324964 -0.589131 0.060000 -0.500000 -0.866025 0.000000 226 167 87 255
-0.419042 -0.477079 0.060000 -0.866025 0.500000 0.000000 226 167 87 255
-0.394042 -0.433778 0.085000 -0.866025 0.500000 0.000000 226 167 87 255
-0.394042 -0.433778 0.060000 -0.866025 0.500000 0.000000 226 167 87 255
-0.180885 -0.614579 0.060000 -0.000000 -0.000000 -1.000000 226 167 87 255
-0.419042 -0.477079 0.060000 -0.000000 -0.000000 -1.000000 226 167 87 255
-0.394042 -0.433778 0.060000 -0.000000 -0.000000 -1.000000 226 167 87 255
-0.155885 -0.571278 0.085000 0.000000 0.000000 1.000000 226 167 87 255
-0.394042 -0.433778 0.085000 0.000000 0.000000 1.000000 226 167 87 255
-0.419042 -0.477079 0.085000 0.000000 0.000000 1.000000 226 167 87 255
-0.155885 -0.571278 0.085000 0.500000 0.866025 0.000000 226 167 87 255
-0.180885 -0.614579 0.085000 0.866025 -0.500000 0.000000 226 167 87 255
-0.180885 -0.614579 0.060000 -0.173938 -0.984757 0.000000 226 167 87 255
-0.180885 -0.614579 0.085000 -0.173938 -0.984757 0.000000 226 167 87 255
-0.419042 -0.477079 0.085000 -0.765855 -0.643013 0.000000 226 167 87 255
-0.419042 -0.477079 0.085000 -0.866025 0.500000 0.000000 226 167 87 255
-0.155885 -0.571278 0.060000 -0.000000 -0.000000 -1.000000 226 167 87 255
-0.324964 -0.589131 0.060000 0.000000 0.000000 -1.000000 226 167 87 255
-0.324964 -0.589131 0.085000 -0.000000 -0.000000 1.000000 226 167 87 255
-0.180885 -0.614579 0.085000 0.000000 0.000000 1.000000 226 167 87 255
3 0 1 2
3 3 4 5
3 6 7 8
3 9 10 11
3 12 13 14
3 15 16 17
3 18 19 20
3 21 22 23
3 0 24 1
3 3 25 4
3 6 26 7
3 9 27 10
3 14 28 12
3 12 29 13
3 13 30 14
3 15 31 16
3 18 32 19
3 23 33 21
3 21 34 22
3 22 35 23
3 36 37 38
3 39 40 37
3 40 41 42
3 41 43 42
3 44 41 45
3 44 46 43
3 46 36 38
3 47 48 49
3 36 39 37
3 39 45 40
3 40 45 41
3 41 44 43
3 45 39 44
3 39 36 44
3 36 50 44
3 44 50 46
3 46 50 36
3 49 51 47
3 47 52 48
3 48 53 49
3 54 55 56
3 57 58 59
3 60 61 62
3 63 64 65
3 66 67 68
3 69 70 71
3 72 73 74
3 75 76 73
3 77 78 79
3 80 81 82
3 83 84 85
3 86 87 88
3 89 90 91
3 92 93 94
3 95 96 97
3 98 91 99
3 100 101 102
3 103 104 105
3 106 107 108
3 109 110 111
3 112 113 114
3 115 116 117
3 118 119 120
3 121 122 119
3 123 124 125
3 126 127 128
3 129 130 131
3 132 133 134
3 135 136 137
3 138 131 139
3 140 141 142
3 143 144 145
3 146 147 148
3 149 150 151
3 152 153 154
3 155 156 157
3 158 159 160
3 161 162 163
3 164 165 166
3 167 168 169
3 54 170 55
3 57 171 58
3 60 172 61
3 63 173 64
3 66 174 67
3 69 175 70
3 72 75 73
3 75 176 76
3 77 177 78
3 80 178 81
3 83 179 84
3 86 180 87
3 89 181 90
3 92 182 93
3 95 183 96
3 98 89 91
3 100 184 101
3 103 185 104
3 112 186 113
3 115 187 116
3 118 121 119
3 121 188 122
3 123 189 124
3 126 190 127
3 129 191 130
3 132 192 133
3 135 193 136
3 138 129 131
3 140 194 141
3 143 195 144
3 146 196 147
3 149 197 150
3 152 198 153
3 155 199 156
3 158 200 159
3 161 201 162
3 202 203 204
3 205 206 207
3 208 209 210
3 211 212 213
3 214 215 216
3 217 218 219
3 202 220 203
3 205 221 206
3 210 222 208
3 222 223 208
3 208 224 209
3 211 225 212
3 216 226 214
3 214 227 215
3 228 229 219
3 229 217 219
