ply
format ascii 1.0
comment Created by Blender 3.4.1 - www.blender.org
element vertex 24
property float x
property float y
property float z
property uchar red
property uchar green
property uchar blue
property uchar alpha
element face 40
property list uchar uint vertex_indices
end_header
0.000000 0.750000 0.060000 214 214 214 255
0.649519 0.375000 0.030000 214 214 214 255
0.000000 0.750000 0.030000 214 214 214 255
0.649519 0.375000 0.060000 214 214 214 255
0.649519 -0.375000 0.030000 214 214 214 255
0.649519 -0.375000 0.060000 214 214 214 255
0.000000 -0.750000 0.030000 214 214 214 255
0.000000 -0.750000 0.060000 214 214 214 255
-0.649519 -0.375000 0.030000 214 214 214 255
-0.649519 -0.375000 0.060000 214 214 214 255
-0.649519 0.375000 0.030000 214 214 214 255
-0.649519 0.375000 0.060000 214 214 214 255
0.000000 1.000000 0.030000 186 173 204 255
0.866025 0.500000 0.000000 186 173 204 255
0.000000 1.000000 0.000000 186 173 204 255
0.866025 0.500000 0.030000 186 173 204 255
0.866025 -0.500000 0.000000 186 173 204 255
0.866025 -0.500000 0.030000 186 173 204 255
0.000000 -1.000000 0.000000 186 173 204 255
0.000000 -1.000000 0.030000 186 173 204 255
-0.866025 -0.500000 0.000000 186 173 204 255
-0.866025 -0.500000 0.030000 186 173 204 255
-0.866025 0.500000 0.000000 186 173 204 255
-0.866025 0.500000 0.030000 186 173 204 255
3 0 1 2
3 3 4 1
3 5 6 4
3 7 8 6
3 0 9 5
3 9 10 8
3 11 2 10
3 1 6 10
3 0 3 1
3 3 5 4
3 5 7 6
3 7 9 8
3 5 3 0
3 0 11 9
3 9 7 5
3 9 11 10
3 11 0 2
3 10 2 1
3 1 4 6
3 6 8 10
3 12 13 14
3 15 16 13
3 17 18 16
3 19 20 18
3 12 21 17
3 21 22 20
3 23 14 22
3 13 18 22
3 12 15 13
3 15 17 16
3 17 19 18
3 19 21 20
3 17 15 12
3 12 23 21
3 21 19 17
3 21 23 22
3 23 12 14
3 22 14 13
3 13 16 18
3 18 20 22
