ply
format ascii 1.0
comment Created by Blender 3.5.1 - www.blender.org
element vertex 111
property float x
property float y
property float z
property float nx
property float ny
property float nz
property uchar red
property uchar green
property uchar blue
property uchar alpha
element face 56
property list uchar uint vertex_indices
end_header
0.000000 -0.900000 0.030000 -0.163663 -0.283473 0.944911 0 0 0 255
-0.866025 -0.500000 0.000000 -0.163663 -0.283473 0.944911 0 0 0 255
0.000000 -1.000000 0.000000 -0.163663 -0.283473 0.944911 0 0 0 255
0.000000 -0.900000 0.030000 0.000000 0.000000 1.000000 0 0 0 255
-0.649519 -0.375000 0.030000 0.000000 0.000000 1.000000 0 0 0 255
-0.779423 -0.450000 0.030000 0.000000 0.000000 1.000000 0 0 0 255
-0.779423 0.000000 0.030000 0.000000 0.000000 1.000000 0 0 0 255
-0.649519 -0.375000 0.030000 0.000000 0.000000 1.000000 0 0 0 255
-0.649519 0.000000 0.030000 0.000000 0.000000 1.000000 0 0 0 255
-0.779423 -0.450000 0.030000 -0.327327 0.000000 0.944911 0 0 0 255
-0.866025 0.000000 0.000000 -0.327327 0.000000 0.944911 0 0 0 255
-0.866025 -0.500000 0.000000 -0.327327 0.000000 0.944911 0 0 0 255
0.000000 0.900000 0.030000 0.163663 0.283473 0.944911 0 0 0 255
0.866025 0.500000 0.000000 0.163663 0.283473 0.944911 0 0 0 255
0.000000 1.000000 0.000000 0.163663 0.283473 0.944911 0 0 0 255
0.000000 0.900000 0.030000 -0.000000 -0.000000 1.000000 0 0 0 255
0.649519 0.375000 0.030000 -0.000000 -0.000000 1.000000 0 0 0 255
0.779423 0.450000 0.030000 -0.000000 -0.000000 1.000000 0 0 0 255
0.779423 0.000000 0.030000 -0.000000 0.000000 1.000000 0 0 0 255
0.649519 0.375000 0.030000 -0.000000 0.000000 1.000000 0 0 0 255
0.649519 0.000000 0.030000 -0.000000 0.000000 1.000000 0 0 0 255
0.779423 0.450000 0.030000 0.327327 0.000000 0.944911 0 0 0 255
0.866025 0.000000 0.000000 0.327327 0.000000 0.944911 0 0 0 255
0.866025 0.500000 0.000000 0.327327 0.000000 0.944911 0 0 0 255
-0.866025 0.000000 0.000000 -0.327327 0.000000 0.944911 255 0 255 255
-0.779423 0.450000 0.030000 -0.327327 0.000000 0.944911 255 0 255 255
-0.866025 0.500000 0.000000 -0.327327 0.000000 0.944911 255 0 255 255
-0.866025 0.500000 0.000000 -0.163663 0.283473 0.944911 255 0 255 255
0.000000 0.900000 0.030000 -0.163663 0.283473 0.944911 255 0 255 255
0.000000 1.000000 0.000000 -0.163663 0.283473 0.944911 255 0 255 255
0.866025 0.000000 0.000000 0.327327 0.000000 0.944911 255 0 255 255
0.779423 -0.450000 0.030000 0.327327 0.000000 0.944911 255 0 255 255
0.866025 -0.500000 0.000000 0.327327 0.000000 0.944911 255 0 255 255
0.866025 -0.500000 0.000000 0.163663 -0.283473 0.944911 255 0 255 255
0.000000 -0.900000 0.030000 0.163663 -0.283473 0.944911 255 0 255 255
0.000000 -1.000000 0.000000 0.163663 -0.283473 0.944911 255 0 255 255
0.000000 -0.900000 0.030000 -0.000000 0.000000 1.000000 255 0 255 255
0.649519 -0.375000 0.030000 -0.000000 0.000000 1.000000 255 0 255 255
0.000000 -0.750000 0.030000 -0.000000 0.000000 1.000000 255 0 255 255
0.000000 0.900000 0.030000 0.000000 -0.000000 1.000000 255 0 255 255
-0.649519 0.375000 0.030000 0.000000 -0.000000 1.000000 255 0 255 255
0.000000 0.750000 0.030000 0.000000 -0.000000 1.000000 255 0 255 255
-0.779423 0.000000 0.030000 0.000000 0.000000 1.000000 255 0 255 255
-0.649519 0.375000 0.030000 0.000000 0.000000 1.000000 255 0 255 255
-0.779423 0.450000 0.030000 0.000000 0.000000 1.000000 255 0 255 255
0.779423 0.000000 0.030000 -0.000000 0.000000 1.000000 255 0 255 255
0.649519 -0.375000 0.030000 -0.000000 0.000000 1.000000 255 0 255 255
0.779423 -0.450000 0.030000 -0.000000 0.000000 1.000000 255 0 255 255
0.649519 -0.375000 0.060000 0.500000 -0.866025 0.000000 0 0 0 255
0.000000 -0.750000 0.030000 0.500000 -0.866025 0.000000 0 0 0 255
0.649519 -0.375000 0.030000 0.500000 -0.866025 0.000000 0 0 0 255
0.000000 -0.750000 0.060000 0.000000 0.000000 1.000000 0 0 0 255
0.000000 0.000000 0.060000 0.000000 0.000000 1.000000 0 0 0 255
-0.324759 -0.562500 0.060000 0.000000 0.000000 1.000000 0 0 0 255
0.000000 -0.750000 0.060000 -0.500000 -0.866025 0.000000 0 0 0 255
-0.324759 -0.562500 0.030000 -0.500000 -0.866025 0.000000 0 0 0 255
0.000000 -0.750000 0.030000 -0.500000 -0.866025 0.000000 0 0 0 255
-0.649519 0.375000 0.060000 -0.500000 0.866025 0.000000 0 0 0 255
-0.000000 0.750000 0.030000 -0.500000 0.866025 0.000000 0 0 0 255
-0.649519 0.375000 0.030000 -0.500000 0.866025 0.000000 0 0 0 255
0.000000 0.000000 0.060000 0.000000 0.000000 1.000000 0 0 0 255
-0.000000 0.750000 0.060000 0.000000 0.000000 1.000000 0 0 0 255
-0.649519 0.375000 0.060000 0.000000 0.000000 1.000000 0 0 0 255
-0.000000 0.750000 0.060000 0.500000 0.866025 0.000000 0 0 0 255
0.324759 0.562500 0.030000 0.500000 0.866025 0.000000 0 0 0 255
-0.000000 0.750000 0.030000 0.500000 0.866025 0.000000 0 0 0 255
-0.324759 -0.562500 0.060000 -0.500000 -0.866025 0.000000 255 0 255 255
-0.649519 -0.375000 0.030000 -0.500000 -0.866025 0.000000 255 0 255 255
-0.324759 -0.562500 0.030000 -0.500000 -0.866025 0.000000 255 0 255 255
-0.649519 -0.375000 0.060000 -1.000000 -0.000000 0.000000 255 0 255 255
-0.649519 0.375000 0.030000 -1.000000 -0.000000 0.000000 255 0 255 255
-0.649519 -0.375000 0.030000 -1.000000 -0.000000 0.000000 255 0 255 255
0.000000 0.000000 0.060000 0.000000 0.000000 1.000000 255 0 255 255
-0.649519 -0.375000 0.060000 0.000000 0.000000 1.000000 255 0 255 255
-0.324759 -0.562500 0.060000 0.000000 0.000000 1.000000 255 0 255 255
0.324759 0.562500 0.060000 0.500000 0.866025 0.000000 255 0 255 255
0.649519 0.375000 0.030000 0.500000 0.866025 0.000000 255 0 255 255
0.324759 0.562500 0.030000 0.500000 0.866025 0.000000 255 0 255 255
0.649519 0.375000 0.060000 1.000000 0.000000 0.000000 255 0 255 255
0.649519 -0.375000 0.030000 1.000000 0.000000 0.000000 255 0 255 255
0.649519 0.375000 0.030000 1.000000 0.000000 0.000000 255 0 255 255
0.649519 0.375000 0.060000 0.000000 0.000000 1.000000 255 0 255 255
0.324759 0.562500 0.060000 0.000000 0.000000 1.000000 255 0 255 255
-0.779423 -0.450000 0.030000 -0.163663 -0.283473 0.944911 0 0 0 255
0.000000 -0.750000 0.030000 0.000000 0.000000 1.000000 0 0 0 255
-0.779423 -0.450000 0.030000 0.000000 0.000000 1.000000 0 0 0 255
-0.779423 0.000000 0.030000 -0.327327 0.000000 0.944911 0 0 0 255
0.779423 0.450000 0.030000 0.163663 0.283473 0.944911 0 0 0 255
0.000000 0.750000 0.030000 -0.000000 -0.000000 1.000000 0 0 0 255
0.779423 0.450000 0.030000 -0.000000 0.000000 1.000000 0 0 0 255
0.779423 0.000000 0.030000 0.327327 0.000000 0.944911 0 0 0 255
-0.779423 0.000000 0.030000 -0.327327 0.000000 0.944911 255 0 255 255
-0.779423 0.450000 0.030000 -0.163663 0.283473 0.944911 255 0 255 255
0.779423 0.000000 0.030000 0.327327 0.000000 0.944911 255 0 255 255
0.779423 -0.450000 0.030000 0.163663 -0.283473 0.944911 255 0 255 255
0.779423 -0.450000 0.030000 -0.000000 0.000000 1.000000 255 0 255 255
-0.779423 0.450000 0.030000 0.000000 -0.000000 1.000000 255 0 255 255
-0.649519 0.000000 0.030000 0.000000 0.000000 1.000000 255 0 255 255
0.649519 0.000000 0.030000 -0.000000 0.000000 1.000000 255 0 255 255
0.000000 -0.750000 0.060000 0.500000 -0.866025 0.000000 0 0 0 255
0.649519 -0.375000 0.060000 0.000000 0.000000 1.000000 0 0 0 255
-0.324759 -0.562500 0.060000 -0.500000 -0.866025 0.000000 0 0 0 255
-0.000000 0.750000 0.060000 -0.500000 0.866025 0.000000 0 0 0 255
0.324759 0.562500 0.060000 0.000000 0.000000 1.000000 0 0 0 255
0.324759 0.562500 0.060000 0.500000 0.866025 0.000000 0 0 0 255
-0.649519 -0.375000 0.060000 -0.500000 -0.866025 0.000000 255 0 255 255
-0.649519 0.375000 0.060000 -1.000000 -0.000000 0.000000 255 0 255 255
-0.649519 0.375000 0.060000 0.000000 0.000000 1.000000 255 0 255 255
0.649519 0.375000 0.060000 0.500000 0.866025 0.000000 255 0 255 255
0.649519 -0.375000 0.060000 1.000000 0.000000 0.000000 255 0 255 255
0.649519 -0.375000 0.060000 0.000000 0.000000 1.000000 255 0 255 255
3 0 1 2
3 3 4 5
3 6 7 8
3 9 10 11
3 12 13 14
3 15 16 17
3 18 19 20
3 21 22 23
3 24 25 26
3 27 28 29
3 30 31 32
3 33 34 35
3 36 37 38
3 39 40 41
3 42 43 44
3 45 46 47
3 48 49 50
3 51 52 53
3 54 55 56
3 57 58 59
3 60 61 62
3 63 64 65
3 66 67 68
3 69 70 71
3 72 73 74
3 75 76 77
3 78 79 80
3 72 81 82
3 0 83 1
3 3 84 4
3 6 85 7
3 9 86 10
3 12 87 13
3 15 88 16
3 18 89 19
3 21 90 22
3 24 91 25
3 27 92 28
3 30 93 31
3 33 94 34
3 36 95 37
3 39 96 40
3 42 97 43
3 45 98 46
3 48 99 49
3 51 100 52
3 54 101 55
3 57 102 58
3 60 103 61
3 63 104 64
3 66 105 67
3 69 106 70
3 72 107 73
3 75 108 76
3 78 109 79
3 72 110 81
