ply
format ascii 1.0
comment Created by Blender 3.5.0 - www.blender.org
element vertex 150
property float x
property float y
property float z
property float nx
property float ny
property float nz
property uchar red
property uchar green
property uchar blue
property uchar alpha
element face 78
property list uchar uint vertex_indices
end_header
0.000000 -0.750000 0.060000 -0.500000 -0.866025 0.000000 115 156 185 255
-0.649519 -0.375000 0.030000 -0.500000 -0.866025 0.000000 106 176 185 255
0.000000 -0.750000 0.030000 -0.500000 -0.866025 0.000000 115 156 185 255
-0.649519 -0.375000 0.060000 -1.000000 0.000000 0.000000 106 176 185 255
-0.649519 0.375000 0.030000 -1.000000 0.000000 0.000000 110 182 185 255
-0.649519 -0.375000 0.030000 -1.000000 0.000000 0.000000 106 176 185 255
-0.649519 0.375000 0.060000 -0.500000 0.866025 0.000000 109 182 185 255
0.000000 0.750000 0.030000 -0.500000 0.866025 0.000000 106 176 185 255
-0.649519 0.375000 0.030000 -0.500000 0.866025 0.000000 110 182 185 255
0.000000 0.750000 0.060000 0.500000 0.866025 0.000000 106 176 185 255
0.649519 0.375000 0.030000 0.500000 0.866025 0.000000 112 165 184 255
0.000000 0.750000 0.030000 0.500000 0.866025 0.000000 106 176 185 255
0.000000 -0.750000 0.060000 0.000000 0.000000 1.000000 115 156 185 255
0.649519 0.375000 0.060000 0.000000 0.000000 1.000000 112 164 185 255
-0.649519 0.375000 0.060000 0.000000 0.000000 1.000000 109 182 185 255
0.649519 0.375000 0.060000 1.000000 0.000000 0.000000 112 164 185 255
0.649519 -0.375000 0.030000 1.000000 0.000000 0.000000 109 183 185 255
0.649519 0.375000 0.030000 1.000000 0.000000 0.000000 112 165 184 255
0.649519 -0.375000 0.060000 0.500000 -0.866025 0.000000 109 183 185 255
0.000000 -0.750000 0.030000 0.500000 -0.866025 0.000000 115 156 185 255
0.649519 -0.375000 0.030000 0.500000 -0.866025 0.000000 109 183 185 255
-0.649519 -0.375000 0.030000 0.000000 0.000000 -1.000000 106 176 185 255
0.000000 0.750000 0.030000 0.000000 0.000000 -1.000000 106 176 185 255
0.649519 -0.375000 0.030000 0.000000 0.000000 -1.000000 109 183 185 255
-0.649519 -0.375000 0.060000 -0.500000 -0.866025 0.000000 106 176 185 255
-0.649519 0.375000 0.060000 -1.000000 0.000000 0.000000 109 182 185 255
0.000000 0.750000 0.060000 -0.500000 0.866025 0.000000 106 176 185 255
0.649519 0.375000 0.060000 0.500000 0.866025 0.000000 112 164 185 255
-0.649519 -0.375000 0.060000 0.000000 0.000000 1.000000 106 176 185 255
0.649519 -0.375000 0.060000 0.000000 0.000000 1.000000 109 183 185 255
0.000000 0.750000 0.060000 0.000000 0.000000 1.000000 106 176 185 255
0.649519 -0.375000 0.060000 1.000000 0.000000 0.000000 109 183 185 255
0.000000 -0.750000 0.060000 0.500000 -0.866025 0.000000 115 156 185 255
0.000000 -0.750000 0.030000 0.000000 0.000000 -1.000000 115 156 185 255
-0.649519 0.375000 0.030000 0.000000 0.000000 -1.000000 110 182 185 255
0.649519 0.375000 0.030000 0.000000 0.000000 -1.000000 112 165 184 255
0.000000 -0.900000 0.030000 -0.163663 -0.283473 0.944911 137 116 185 255
-0.866025 -0.500000 0.000000 -0.163663 -0.283473 0.944911 137 116 185 255
0.000000 -1.000000 0.000000 -0.163663 -0.283473 0.944911 137 116 185 255
-0.779423 -0.450000 0.030000 -0.327327 0.000000 0.944911 137 116 185 255
-0.866025 0.500000 0.000000 -0.327327 0.000000 0.944911 137 116 185 255
-0.866025 -0.500000 0.000000 -0.327327 0.000000 0.944911 137 116 185 255
-0.866025 0.500000 0.000000 -0.163663 0.283473 0.944911 137 116 185 255
0.000000 0.900000 0.030000 -0.163663 0.283473 0.944911 137 113 185 255
0.000000 1.000000 0.000000 -0.163663 0.283473 0.944911 137 113 185 255
0.000000 0.900000 0.030000 0.163663 0.283473 0.944911 137 113 185 255
0.866025 0.500000 0.000000 0.163663 0.283473 0.944911 137 116 185 255
0.000000 1.000000 0.000000 0.163663 0.283473 0.944911 137 113 185 255
0.779423 0.450000 0.030000 0.000000 0.000000 1.000000 137 116 185 255
0.000000 0.900000 0.030000 0.000000 0.000000 1.000000 137 113 185 255
-0.779423 0.450000 0.030000 0.000000 0.000000 1.000000 137 116 185 255
0.779423 0.450000 0.030000 0.327327 0.000000 0.944911 137 116 185 255
0.866025 -0.500000 0.000000 0.327327 0.000000 0.944911 137 116 185 255
0.866025 0.500000 0.000000 0.327327 0.000000 0.944911 137 116 185 255
0.866025 -0.500000 0.000000 0.163663 -0.283473 0.944911 137 116 185 255
0.000000 -0.900000 0.030000 0.163663 -0.283473 0.944911 137 116 185 255
0.000000 -1.000000 0.000000 0.163663 -0.283473 0.944911 137 116 185 255
-0.866025 -0.500000 0.000000 0.000000 0.000000 -1.000000 137 116 185 255
0.000000 1.000000 0.000000 0.000000 0.000000 -1.000000 137 113 185 255
0.866025 -0.500000 0.000000 0.000000 0.000000 -1.000000 137 116 185 255
-0.779423 -0.450000 0.030000 -0.163663 -0.283473 0.944911 137 116 185 255
-0.779423 0.450000 0.030000 -0.327327 0.000000 0.944911 137 116 185 255
-0.779423 0.450000 0.030000 -0.163663 0.283473 0.944911 137 116 185 255
0.779423 0.450000 0.030000 0.163663 0.283473 0.944911 137 116 185 255
-0.779423 -0.450000 0.030000 0.000000 0.000000 1.000000 137 116 185 255
0.000000 -0.900000 0.030000 0.000000 0.000000 1.000000 137 116 185 255
0.779423 -0.450000 0.030000 0.000000 0.000000 1.000000 137 116 185 255
0.779423 -0.450000 0.030000 0.327327 0.000000 0.944911 137 116 185 255
0.779423 -0.450000 0.030000 0.163663 -0.283473 0.944911 137 116 185 255
0.000000 -1.000000 0.000000 0.000000 0.000000 -1.000000 137 116 185 255
-0.866025 0.500000 0.000000 0.000000 0.000000 -1.000000 137 116 185 255
0.866025 0.500000 0.000000 0.000000 0.000000 -1.000000 137 116 185 255
0.001646 -0.029397 0.060000 0.492987 -0.870014 -0.006242 202 226 214 255
0.053575 -0.000115 0.080000 0.498062 -0.866806 -0.024115 202 226 214 255
0.001646 -0.029397 0.080000 0.491174 -0.871062 0.000000 202 226 214 255
0.053575 -0.000115 0.080000 0.865864 0.499920 0.018969 202 226 214 255
0.380395 -0.565409 0.060000 0.865735 0.500503 0.000377 202 226 214 255
0.053607 0.000603 0.060000 0.865863 0.499907 0.019338 202 226 214 255
0.380395 -0.565409 0.080000 0.499999 -0.866026 0.000000 202 226 214 255
0.328433 -0.595409 0.060000 0.499999 -0.866026 0.000000 202 226 214 255
0.380395 -0.565409 0.060000 0.499999 -0.866026 0.000000 202 226 214 255
0.328433 -0.595409 0.080000 -0.866025 -0.500000 0.000000 202 226 214 255
0.001646 -0.029397 0.060000 -0.866025 -0.500000 0.000000 202 226 214 255
0.328433 -0.595409 0.060000 -0.866025 -0.500000 0.000000 202 226 214 255
0.380395 -0.565409 0.060000 0.000000 0.000000 -1.000000 197 214 206 255
0.001646 -0.029397 0.060000 0.000000 0.000000 -1.000000 202 226 214 255
0.053607 0.000603 0.060000 0.000000 0.000000 -1.000000 202 226 214 255
0.053575 -0.000115 0.080000 0.000000 0.000000 1.000000 202 226 214 255
0.328433 -0.595409 0.080000 0.000000 0.000000 1.000000 202 226 214 255
0.380395 -0.565409 0.080000 0.000000 0.000000 1.000000 202 226 214 255
-0.652019 -0.029815 0.080000 -1.000000 0.000002 0.000000 205 227 216 255
-0.652019 0.030185 0.060000 -1.000000 0.000002 0.000000 202 226 214 255
-0.652019 -0.029815 0.060000 -1.000000 0.000002 0.000000 206 228 217 255
-0.652019 0.030185 0.080000 0.000459 1.000000 0.000000 202 226 214 255
0.001613 0.029885 0.060000 0.000459 1.000000 0.000000 202 226 214 255
-0.652019 0.030185 0.060000 0.000459 1.000000 0.000000 202 226 214 255
0.001613 0.029885 0.080000 1.000000 0.000542 0.000000 202 226 214 255
0.001646 -0.029397 0.060000 1.000000 0.000542 0.000000 202 226 214 255
0.001613 0.029885 0.060000 1.000000 0.000542 0.000000 202 226 214 255
0.001646 -0.029397 0.080000 0.000639 -1.000000 0.000000 202 226 214 255
-0.652019 -0.029815 0.060000 0.000639 -1.000000 0.000000 206 228 217 255
0.001646 -0.029397 0.060000 0.000639 -1.000000 0.000000 202 226 214 255
-0.652019 0.030185 0.060000 0.000000 0.000000 -1.000000 202 226 214 255
0.001646 -0.029397 0.060000 0.000000 0.000000 -1.000000 202 226 214 255
-0.652019 -0.029815 0.060000 0.000000 0.000000 -1.000000 206 228 217 255
-0.652019 0.030185 0.080000 0.000000 0.000000 1.000000 202 226 214 255
0.001646 -0.029397 0.080000 0.000000 0.000000 1.000000 202 226 214 255
0.001613 0.029885 0.080000 0.000000 0.000000 1.000000 202 226 214 255
0.328401 0.595897 0.080000 0.499999 0.866026 0.000000 202 226 214 255
0.380362 0.565897 0.060000 0.499999 0.866026 0.000000 203 226 215 255
0.328401 0.595897 0.060000 0.499999 0.866026 0.000000 202 226 214 255
0.380362 0.565897 0.080000 0.865777 -0.500431 -0.000323 202 226 214 255
0.053607 0.000603 0.060000 0.865906 -0.499942 -0.016243 202 226 214 255
0.380362 0.565897 0.060000 0.865772 -0.500439 0.000000 203 226 215 255
0.053575 -0.000115 0.080000 -0.492482 -0.869951 -0.025422 202 226 214 255
0.001613 0.029885 0.060000 -0.498092 -0.867099 -0.006569 202 226 214 255
0.053607 0.000603 0.060000 -0.490461 -0.870873 -0.032054 202 226 214 255
0.001613 0.029885 0.080000 -0.866025 0.500000 0.000000 202 226 214 255
0.328401 0.595897 0.060000 -0.866025 0.500000 0.000000 202 226 214 255
0.001613 0.029885 0.060000 -0.866025 0.500000 0.000000 202 226 214 255
0.053607 0.000603 0.060000 0.000000 0.000000 -1.000000 202 226 214 255
0.328401 0.595897 0.060000 0.000000 0.000000 -1.000000 202 226 214 255
0.380362 0.565897 0.060000 0.000000 0.000000 -1.000000 203 226 215 255
0.053575 -0.000115 0.080000 0.000000 0.000000 1.000000 202 226 214 255
0.328401 0.595897 0.080000 0.000000 0.000000 1.000000 202 226 214 255
0.001613 0.029885 0.080000 0.000000 0.000000 1.000000 202 226 214 255
0.001646 -0.029397 0.080000 0.000000 0.000000 1.000000 205 228 216 255
0.053575 -0.000115 0.080000 0.000000 0.000000 1.000000 202 226 214 255
0.001613 0.029885 0.080000 0.000000 0.000000 1.000000 202 226 214 255
0.001613 0.029885 0.060000 0.000000 0.000000 1.000000 202 226 214 255
0.001646 -0.029397 0.060000 0.000000 0.000000 1.000000 202 226 214 255
0.053607 0.000603 0.060000 0.000000 0.000000 1.000000 202 226 214 255
0.053607 0.000603 0.060000 0.499771 -0.865628 -0.030277 202 226 214 255
0.380395 -0.565409 0.080000 0.865729 0.500513 0.000000 202 226 214 255
0.328433 -0.595409 0.080000 0.499999 -0.866026 0.000000 202 226 214 255
0.001646 -0.029397 0.080000 -0.866025 -0.500000 0.000000 202 226 214 255
0.328433 -0.595409 0.060000 0.000000 0.000000 -1.000000 202 226 214 255
0.001646 -0.029397 0.080000 0.000000 0.000000 1.000000 202 226 214 255
-0.652019 0.030185 0.080000 -1.000000 0.000002 0.000000 202 226 214 255
0.001613 0.029885 0.080000 0.000459 1.000000 0.000000 202 226 214 255
0.001646 -0.029397 0.080000 1.000000 0.000542 0.000000 202 226 214 255
-0.652019 -0.029815 0.080000 0.000639 -1.000000 0.000000 205 227 216 255
0.001613 0.029885 0.060000 0.000000 0.000000 -1.000000 202 226 214 255
-0.652019 -0.029815 0.080000 0.000000 0.000000 1.000000 205 227 216 255
0.380362 0.565897 0.080000 0.499999 0.866026 0.000000 202 226 214 255
0.053575 -0.000115 0.080000 0.865907 -0.499931 -0.016560 202 226 214 255
0.001613 0.029885 0.080000 -0.500000 -0.866025 0.000000 202 226 214 255
0.328401 0.595897 0.080000 -0.866025 0.500000 0.000000 202 226 214 255
0.001613 0.029885 0.060000 0.000000 0.000000 -1.000000 202 226 214 255
0.380362 0.565897 0.080000 0.000000 0.000000 1.000000 202 226 214 255
3 0 1 2
3 3 4 5
3 6 7 8
3 9 10 11
3 12 13 14
3 15 16 17
3 18 19 20
3 21 22 23
3 0 24 1
3 3 25 4
3 6 26 7
3 9 27 10
3 14 28 12
3 12 29 13
3 13 30 14
3 15 31 16
3 18 32 19
3 23 33 21
3 21 34 22
3 22 35 23
3 36 37 38
3 39 40 41
3 42 43 44
3 45 46 47
3 48 49 50
3 51 52 53
3 54 55 56
3 57 58 59
3 36 60 37
3 39 61 40
3 42 62 43
3 45 63 46
3 50 64 48
3 64 65 48
3 65 66 48
3 51 67 52
3 54 68 55
3 59 69 57
3 57 70 58
3 58 71 59
3 72 73 74
3 75 76 77
3 78 79 80
3 81 82 83
3 84 85 86
3 87 88 89
3 90 91 92
3 93 94 95
3 96 97 98
3 99 100 101
3 102 103 104
3 105 106 107
3 108 109 110
3 111 112 113
3 114 115 116
3 117 118 119
3 120 121 122
3 123 124 125
3 126 127 128
3 129 130 131
3 72 132 73
3 75 133 76
3 78 134 79
3 81 135 82
3 84 136 85
3 87 137 88
3 90 138 91
3 93 139 94
3 96 140 97
3 99 141 100
3 102 142 103
3 105 143 106
3 108 144 109
3 111 145 112
3 114 146 115
3 117 147 118
3 120 148 121
3 123 149 124
