ply
format ascii 1.0
comment Created by Blender 3.5.0 - www.blender.org
element vertex 128
property float x
property float y
property float z
property float nx
property float ny
property float nz
property uchar red
property uchar green
property uchar blue
property uchar alpha
element face 78
property list uchar uint vertex_indices
end_header
0.000000 -0.750000 0.060000 -0.500000 -0.866025 0.000000 115 156 185 255
-0.649519 -0.375000 0.030000 -0.500000 -0.866025 0.000000 106 176 185 255
0.000000 -0.750000 0.030000 -0.500000 -0.866025 0.000000 115 156 185 255
-0.649519 -0.375000 0.060000 -1.000000 0.000000 0.000000 106 176 185 255
-0.649519 0.375000 0.030000 -1.000000 0.000000 0.000000 110 182 185 255
-0.649519 -0.375000 0.030000 -1.000000 0.000000 0.000000 106 176 185 255
-0.649519 0.375000 0.060000 -0.500000 0.866025 0.000000 109 182 185 255
0.000000 0.750000 0.030000 -0.500000 0.866025 0.000000 106 176 185 255
-0.649519 0.375000 0.030000 -0.500000 0.866025 0.000000 110 182 185 255
0.000000 0.750000 0.060000 0.500000 0.866025 0.000000 106 176 185 255
0.649519 0.375000 0.030000 0.500000 0.866025 0.000000 112 165 184 255
0.000000 0.750000 0.030000 0.500000 0.866025 0.000000 106 176 185 255
0.000000 -0.750000 0.060000 0.000000 0.000000 1.000000 115 156 185 255
0.649519 0.375000 0.060000 0.000000 0.000000 1.000000 112 164 185 255
-0.649519 0.375000 0.060000 0.000000 0.000000 1.000000 109 182 185 255
0.649519 0.375000 0.060000 1.000000 0.000000 0.000000 112 164 185 255
0.649519 -0.375000 0.030000 1.000000 0.000000 0.000000 109 183 185 255
0.649519 0.375000 0.030000 1.000000 0.000000 0.000000 112 165 184 255
0.649519 -0.375000 0.060000 0.500000 -0.866025 0.000000 109 183 185 255
0.000000 -0.750000 0.030000 0.500000 -0.866025 0.000000 115 156 185 255
0.649519 -0.375000 0.030000 0.500000 -0.866025 0.000000 109 183 185 255
-0.649519 -0.375000 0.030000 0.000000 0.000000 -1.000000 106 176 185 255
0.000000 0.750000 0.030000 0.000000 0.000000 -1.000000 106 176 185 255
0.649519 -0.375000 0.030000 0.000000 0.000000 -1.000000 109 183 185 255
-0.649519 -0.375000 0.060000 -0.500000 -0.866025 0.000000 106 176 185 255
-0.649519 0.375000 0.060000 -1.000000 0.000000 0.000000 109 182 185 255
0.000000 0.750000 0.060000 -0.500000 0.866025 0.000000 106 176 185 255
0.649519 0.375000 0.060000 0.500000 0.866025 0.000000 112 164 185 255
-0.649519 -0.375000 0.060000 0.000000 0.000000 1.000000 106 176 185 255
0.649519 -0.375000 0.060000 0.000000 0.000000 1.000000 109 183 185 255
0.000000 0.750000 0.060000 0.000000 0.000000 1.000000 106 176 185 255
0.649519 -0.375000 0.060000 1.000000 0.000000 0.000000 109 183 185 255
0.000000 -0.750000 0.060000 0.500000 -0.866025 0.000000 115 156 185 255
0.000000 -0.750000 0.030000 0.000000 0.000000 -1.000000 115 156 185 255
-0.649519 0.375000 0.030000 0.000000 0.000000 -1.000000 110 182 185 255
0.649519 0.375000 0.030000 0.000000 0.000000 -1.000000 112 165 184 255
0.000000 -0.900000 0.030000 0.000000 -0.191771 0.981440 137 116 185 255
-0.866025 -0.500000 0.000000 -0.248851 -0.143674 0.957826 137 116 185 255
0.000000 -1.000000 0.000000 0.000000 -0.287348 0.957826 137 116 185 255
-0.779423 -0.450000 0.030000 -0.166079 -0.095885 0.981440 137 116 185 255
-0.866025 0.500000 0.000000 -0.248851 0.143674 0.957826 137 116 185 255
0.000000 0.900000 0.030000 -0.000000 0.191771 0.981440 137 113 185 255
0.000000 1.000000 0.000000 -0.000000 0.287348 0.957826 137 113 185 255
0.866025 0.500000 0.000000 0.248851 0.143674 0.957826 137 116 185 255
0.779423 0.450000 0.030000 0.166079 0.095885 0.981440 137 116 185 255
-0.779423 0.450000 0.030000 -0.166079 0.095885 0.981440 137 116 185 255
0.866025 -0.500000 0.000000 0.248851 -0.143674 0.957826 137 116 185 255
-0.866025 -0.500000 0.000000 0.000000 0.000000 -1.000000 137 116 185 255
0.000000 1.000000 0.000000 0.000000 0.000000 -1.000000 137 113 185 255
0.866025 -0.500000 0.000000 0.000000 0.000000 -1.000000 137 116 185 255
0.779423 -0.450000 0.030000 0.166079 -0.095885 0.981440 137 116 185 255
0.000000 -1.000000 0.000000 0.000000 0.000000 -1.000000 137 116 185 255
-0.866025 0.500000 0.000000 0.000000 0.000000 -1.000000 137 116 185 255
0.866025 0.500000 0.000000 0.000000 0.000000 -1.000000 137 116 185 255
0.001646 -0.029397 0.060000 0.492987 -0.870014 -0.006242 202 226 214 255
0.053575 -0.000115 0.080000 0.498062 -0.866806 -0.024115 202 226 214 255
0.001646 -0.029397 0.080000 0.491174 -0.871062 0.000000 202 226 214 255
0.053575 -0.000115 0.080000 0.865864 0.499920 0.018969 202 226 214 255
0.380395 -0.565409 0.060000 0.865735 0.500503 0.000377 202 226 214 255
0.053607 0.000603 0.060000 0.865863 0.499907 0.019338 202 226 214 255
0.380395 -0.565409 0.080000 0.499999 -0.866026 0.000000 202 226 214 255
0.328433 -0.595409 0.060000 0.499999 -0.866026 0.000000 202 226 214 255
0.380395 -0.565409 0.060000 0.499999 -0.866026 0.000000 202 226 214 255
0.328433 -0.595409 0.080000 -0.866025 -0.500000 0.000000 202 226 214 255
0.001646 -0.029397 0.060000 -0.866025 -0.500000 0.000000 202 226 214 255
0.328433 -0.595409 0.060000 -0.866025 -0.500000 0.000000 202 226 214 255
0.380395 -0.565409 0.060000 0.000000 0.000000 -1.000000 197 214 206 255
0.001646 -0.029397 0.060000 0.000000 0.000000 -1.000000 202 226 214 255
0.053607 0.000603 0.060000 0.000000 0.000000 -1.000000 202 226 214 255
0.053575 -0.000115 0.080000 0.000000 0.000000 1.000000 202 226 214 255
0.328433 -0.595409 0.080000 0.000000 0.000000 1.000000 202 226 214 255
0.380395 -0.565409 0.080000 0.000000 0.000000 1.000000 202 226 214 255
-0.652019 -0.029815 0.080000 -1.000000 0.000002 0.000000 205 227 216 255
-0.652019 0.030185 0.060000 -0.706944 0.707270 0.000000 202 226 214 255
-0.652019 -0.029815 0.060000 -1.000000 0.000002 0.000000 206 228 217 255
-0.652019 0.030185 0.080000 -0.706944 0.707269 0.000000 202 226 214 255
0.001613 0.029885 0.060000 0.000459 1.000000 0.000000 202 226 214 255
0.001613 0.029885 0.080000 1.000000 0.000542 0.000000 202 226 214 255
0.001646 -0.029397 0.060000 1.000000 0.000542 0.000000 202 226 214 255
0.001613 0.029885 0.060000 1.000000 0.000542 0.000000 202 226 214 255
0.001646 -0.029397 0.080000 0.000639 -1.000000 0.000000 202 226 214 255
-0.652019 -0.029815 0.060000 0.000639 -1.000000 0.000000 206 228 217 255
0.001646 -0.029397 0.060000 0.000639 -1.000000 0.000000 202 226 214 255
-0.652019 0.030185 0.060000 0.000000 0.000000 -1.000000 202 226 214 255
0.001646 -0.029397 0.060000 0.000000 0.000000 -1.000000 202 226 214 255
-0.652019 -0.029815 0.060000 0.000000 0.000000 -1.000000 206 228 217 255
-0.652019 0.030185 0.080000 0.000000 0.000000 1.000000 202 226 214 255
0.001646 -0.029397 0.080000 0.000000 0.000000 1.000000 202 226 214 255
0.001613 0.029885 0.080000 0.000000 0.000000 1.000000 202 226 214 255
0.328401 0.595897 0.080000 -0.258819 0.965926 0.000000 202 226 214 255
0.380362 0.565897 0.060000 0.499999 0.866026 0.000000 203 226 215 255
0.328401 0.595897 0.060000 -0.258819 0.965926 0.000000 202 226 214 255
0.380362 0.565897 0.080000 0.865777 -0.500431 -0.000323 202 226 214 255
0.053607 0.000603 0.060000 0.865906 -0.499942 -0.016243 202 226 214 255
0.380362 0.565897 0.060000 0.865772 -0.500439 0.000000 203 226 215 255
0.053575 -0.000115 0.080000 -0.492482 -0.869951 -0.025422 202 226 214 255
0.001613 0.029885 0.060000 -0.498092 -0.867099 -0.006569 202 226 214 255
0.053607 0.000603 0.060000 -0.490461 -0.870873 -0.032054 202 226 214 255
0.001613 0.029885 0.080000 -0.866025 0.500000 0.000000 202 226 214 255
0.001613 0.029885 0.060000 -0.866025 0.500000 0.000000 202 226 214 255
0.053607 0.000603 0.060000 0.000000 0.000000 -1.000000 202 226 214 255
0.328401 0.595897 0.060000 0.000000 0.000000 -1.000000 202 226 214 255
0.380362 0.565897 0.060000 0.000000 0.000000 -1.000000 203 226 215 255
0.053575 -0.000115 0.080000 0.000000 0.000000 1.000000 202 226 214 255
0.328401 0.595897 0.080000 0.000000 0.000000 1.000000 202 226 214 255
0.001613 0.029885 0.080000 0.000000 0.000000 1.000000 202 226 214 255
0.001646 -0.029397 0.080000 0.000000 0.000000 1.000000 205 228 216 255
0.053575 -0.000115 0.080000 0.000000 0.000000 1.000000 202 226 214 255
0.001613 0.029885 0.080000 0.000000 0.000000 1.000000 202 226 214 255
0.001613 0.029885 0.060000 0.000000 0.000000 1.000000 202 226 214 255
0.001646 -0.029397 0.060000 0.000000 0.000000 1.000000 202 226 214 255
0.053607 0.000603 0.060000 0.000000 0.000000 1.000000 202 226 214 255
0.053607 0.000603 0.060000 0.499771 -0.865628 -0.030277 202 226 214 255
0.380395 -0.565409 0.080000 0.865729 0.500513 0.000000 202 226 214 255
0.328433 -0.595409 0.080000 0.499999 -0.866026 0.000000 202 226 214 255
0.001646 -0.029397 0.080000 -0.866025 -0.500000 0.000000 202 226 214 255
0.328433 -0.595409 0.060000 0.000000 0.000000 -1.000000 202 226 214 255
0.001646 -0.029397 0.080000 0.000000 0.000000 1.000000 202 226 214 255
0.001613 0.029885 0.080000 0.000459 1.000000 0.000000 202 226 214 255
0.001646 -0.029397 0.080000 1.000000 0.000542 0.000000 202 226 214 255
-0.652019 -0.029815 0.080000 0.000639 -1.000000 0.000000 205 227 216 255
0.001613 0.029885 0.060000 0.000000 0.000000 -1.000000 202 226 214 255
-0.652019 -0.029815 0.080000 0.000000 0.000000 1.000000 205 227 216 255
0.380362 0.565897 0.080000 0.499999 0.866026 0.000000 202 226 214 255
0.053575 -0.000115 0.080000 0.865907 -0.499931 -0.016560 202 226 214 255
0.001613 0.029885 0.080000 -0.500000 -0.866025 0.000000 202 226 214 255
0.001613 0.029885 0.060000 0.000000 0.000000 -1.000000 202 226 214 255
0.380362 0.565897 0.080000 0.000000 0.000000 1.000000 202 226 214 255
3 0 1 2
3 3 4 5
3 6 7 8
3 9 10 11
3 12 13 14
3 15 16 17
3 18 19 20
3 21 22 23
3 0 24 1
3 3 25 4
3 6 26 7
3 9 27 10
3 14 28 12
3 12 29 13
3 13 30 14
3 15 31 16
3 18 32 19
3 23 33 21
3 21 34 22
3 22 35 23
3 36 37 38
3 39 40 37
3 40 41 42
3 41 43 42
3 44 41 45
3 44 46 43
3 46 36 38
3 47 48 49
3 36 39 37
3 39 45 40
3 40 45 41
3 41 44 43
3 45 39 44
3 39 36 44
3 36 50 44
3 44 50 46
3 46 50 36
3 49 51 47
3 47 52 48
3 48 53 49
3 54 55 56
3 57 58 59
3 60 61 62
3 63 64 65
3 66 67 68
3 69 70 71
3 72 73 74
3 75 76 73
3 77 78 79
3 80 81 82
3 83 84 85
3 86 87 88
3 89 90 91
3 92 93 94
3 95 96 97
3 98 91 99
3 100 101 102
3 103 104 105
3 106 107 108
3 109 110 111
3 54 112 55
3 57 113 58
3 60 114 61
3 63 115 64
3 66 116 67
3 69 117 70
3 72 75 73
3 75 118 76
3 77 119 78
3 80 120 81
3 83 121 84
3 86 122 87
3 89 123 90
3 92 124 93
3 95 125 96
3 98 89 91
3 100 126 101
3 103 127 104
