ply
format ascii 1.0
comment Created by Blender 3.5.0 - www.blender.org
element vertex 54
property float x
property float y
property float z
property float nx
property float ny
property float nz
property uchar red
property uchar green
property uchar blue
property uchar alpha
element face 40
property list uchar uint vertex_indices
end_header
0.000000 -0.750000 0.060000 -0.500000 -0.866025 0.000000 185 104 102 255
-0.649519 -0.375000 0.030000 -0.500000 -0.866025 0.000000 185 98 100 255
0.000000 -0.750000 0.030000 -0.500000 -0.866025 0.000000 185 105 103 255
-0.649519 -0.375000 0.060000 -1.000000 0.000000 0.000000 185 98 100 255
-0.649519 0.375000 0.030000 -1.000000 0.000000 0.000000 185 129 90 255
-0.649519 -0.375000 0.030000 -1.000000 0.000000 0.000000 185 98 100 255
-0.649519 0.375000 0.060000 -0.500000 0.866025 0.000000 185 128 88 255
0.000000 0.750000 0.030000 -0.500000 0.866025 0.000000 185 97 98 255
-0.649519 0.375000 0.030000 -0.500000 0.866025 0.000000 185 129 90 255
0.000000 0.750000 0.060000 0.500000 0.866025 0.000000 185 97 98 255
0.649519 0.375000 0.030000 0.500000 0.866025 0.000000 186 136 125 255
0.000000 0.750000 0.030000 0.500000 0.866025 0.000000 185 97 98 255
0.000000 -0.750000 0.060000 0.000000 0.000000 1.000000 185 104 102 255
0.649519 0.375000 0.060000 0.000000 0.000000 1.000000 185 135 125 255
-0.649519 0.375000 0.060000 0.000000 0.000000 1.000000 185 128 88 255
0.649519 0.375000 0.060000 1.000000 0.000000 0.000000 185 135 125 255
0.649519 -0.375000 0.030000 1.000000 0.000000 0.000000 185 129 88 255
0.649519 0.375000 0.030000 1.000000 0.000000 0.000000 186 136 125 255
0.649519 -0.375000 0.060000 0.500000 -0.866025 0.000000 185 129 88 255
0.000000 -0.750000 0.030000 0.500000 -0.866025 0.000000 185 105 103 255
0.649519 -0.375000 0.030000 0.500000 -0.866025 0.000000 185 129 88 255
-0.649519 -0.375000 0.030000 0.000000 0.000000 -1.000000 185 98 100 255
0.000000 0.750000 0.030000 0.000000 0.000000 -1.000000 185 97 98 255
0.649519 -0.375000 0.030000 0.000000 0.000000 -1.000000 185 129 88 255
-0.649519 -0.375000 0.060000 -0.500000 -0.866025 0.000000 185 98 100 255
-0.649519 0.375000 0.060000 -1.000000 0.000000 0.000000 185 128 88 255
0.000000 0.750000 0.060000 -0.500000 0.866025 0.000000 185 97 98 255
0.649519 0.375000 0.060000 0.500000 0.866025 0.000000 185 135 125 255
-0.649519 -0.375000 0.060000 0.000000 0.000000 1.000000 185 98 100 255
0.649519 -0.375000 0.060000 0.000000 0.000000 1.000000 185 129 88 255
0.000000 0.750000 0.060000 0.000000 0.000000 1.000000 185 97 98 255
0.649519 -0.375000 0.060000 1.000000 0.000000 0.000000 185 129 88 255
0.000000 -0.750000 0.060000 0.500000 -0.866025 0.000000 185 104 102 255
0.000000 -0.750000 0.030000 0.000000 0.000000 -1.000000 185 105 103 255
-0.649519 0.375000 0.030000 0.000000 0.000000 -1.000000 185 129 90 255
0.649519 0.375000 0.030000 0.000000 0.000000 -1.000000 186 136 125 255
0.000000 -1.000000 0.000000 0.000000 -0.514496 0.857493 110 185 124 255
-0.822724 -0.475000 0.030000 -0.298741 -0.172478 0.938619 110 185 124 255
-0.866025 -0.500000 0.000000 -0.445566 -0.257248 0.857493 110 185 124 255
-0.866025 0.500000 0.000000 -0.445566 0.257248 0.857493 110 185 124 255
-0.822724 0.475000 0.030000 -0.298741 0.172478 0.938619 110 185 124 255
0.000000 1.000000 0.000000 -0.000000 0.514496 0.857493 110 185 124 255
0.822724 0.475000 0.030000 0.298741 0.172478 0.938619 110 185 124 255
0.866025 0.500000 0.000000 0.445566 0.257248 0.857493 110 185 124 255
0.000000 0.950000 0.030000 0.000000 0.344956 0.938619 110 185 124 255
0.866025 -0.500000 0.000000 0.445566 -0.257248 0.857493 110 185 124 255
0.822724 -0.475000 0.030000 0.298741 -0.172478 0.938619 110 185 124 255
-0.866025 -0.500000 0.000000 0.000000 0.000000 -1.000000 110 185 124 255
0.000000 1.000000 0.000000 0.000000 0.000000 -1.000000 110 185 124 255
0.866025 -0.500000 0.000000 0.000000 0.000000 -1.000000 110 185 124 255
0.000000 -0.950000 0.030000 0.000000 -0.344956 0.938619 110 185 124 255
0.000000 -1.000000 0.000000 0.000000 0.000000 -1.000000 110 185 124 255
-0.866025 0.500000 0.000000 0.000000 0.000000 -1.000000 110 185 124 255
0.866025 0.500000 0.000000 0.000000 0.000000 -1.000000 110 185 124 255
3 0 1 2
3 3 4 5
3 6 7 8
3 9 10 11
3 12 13 14
3 15 16 17
3 18 19 20
3 21 22 23
3 0 24 1
3 3 25 4
3 6 26 7
3 9 27 10
3 14 28 12
3 12 29 13
3 13 30 14
3 15 31 16
3 18 32 19
3 23 33 21
3 21 34 22
3 22 35 23
3 36 37 38
3 37 39 38
3 40 41 39
3 41 42 43
3 42 44 40
3 42 45 43
3 46 36 45
3 47 48 49
3 36 50 37
3 37 40 39
3 40 44 41
3 41 44 42
3 40 37 42
3 37 50 42
3 50 46 42
3 42 46 45
3 46 50 36
3 49 51 47
3 47 52 48
3 48 53 49
