ply
format ascii 1.0
comment Created by Blender 3.5.0 - www.blender.org
element vertex 90
property float x
property float y
property float z
property float nx
property float ny
property float nz
property uchar red
property uchar green
property uchar blue
property uchar alpha
element face 60
property list uchar uint vertex_indices
end_header
0.000000 -0.750000 0.060000 -0.500000 -0.866025 0.000000 92 70 42 255
-0.649519 -0.375000 0.030000 -0.500000 -0.866025 0.000000 86 62 29 255
0.000000 -0.750000 0.030000 -0.500000 -0.866025 0.000000 93 71 44 255
-0.649519 -0.375000 0.060000 -1.000000 0.000000 0.000000 86 62 28 255
-0.649519 0.375000 0.030000 -1.000000 0.000000 0.000000 90 69 41 255
-0.649519 -0.375000 0.030000 -1.000000 0.000000 0.000000 86 62 29 255
-0.649519 0.375000 0.060000 -0.500000 0.866025 0.000000 90 67 39 255
0.000000 0.750000 0.030000 -0.500000 0.866025 0.000000 85 61 27 255
-0.649519 0.375000 0.030000 -0.500000 0.866025 0.000000 90 69 41 255
0.000000 0.750000 0.060000 0.500000 0.866025 0.000000 85 61 27 255
0.649519 0.375000 0.030000 0.500000 0.866025 0.000000 101 82 59 255
0.000000 0.750000 0.030000 0.500000 0.866025 0.000000 85 61 27 255
0.000000 -0.750000 0.060000 0.000000 0.000000 1.000000 92 70 42 255
0.649519 0.375000 0.060000 0.000000 0.000000 1.000000 100 79 55 255
-0.649519 0.375000 0.060000 0.000000 0.000000 1.000000 90 67 39 255
0.649519 0.375000 0.060000 1.000000 0.000000 0.000000 100 79 55 255
0.649519 -0.375000 0.030000 1.000000 0.000000 0.000000 86 62 29 255
0.649519 0.375000 0.030000 1.000000 0.000000 0.000000 101 82 59 255
0.649519 -0.375000 0.060000 0.500000 -0.866025 0.000000 86 62 29 255
0.000000 -0.750000 0.030000 0.500000 -0.866025 0.000000 93 71 44 255
0.649519 -0.375000 0.030000 0.500000 -0.866025 0.000000 86 62 29 255
-0.649519 -0.375000 0.030000 0.000000 0.000000 -1.000000 86 62 29 255
0.000000 0.750000 0.030000 0.000000 0.000000 -1.000000 85 61 27 255
0.649519 -0.375000 0.030000 0.000000 0.000000 -1.000000 86 62 29 255
-0.649519 -0.375000 0.060000 -0.500000 -0.866025 0.000000 86 62 28 255
-0.649519 0.375000 0.060000 -1.000000 0.000000 0.000000 90 67 39 255
0.000000 0.750000 0.060000 -0.500000 0.866025 0.000000 85 61 27 255
0.649519 0.375000 0.060000 0.500000 0.866025 0.000000 100 79 55 255
-0.649519 -0.375000 0.060000 0.000000 0.000000 1.000000 86 62 28 255
0.649519 -0.375000 0.060000 0.000000 0.000000 1.000000 86 62 29 255
0.000000 0.750000 0.060000 0.000000 0.000000 1.000000 85 61 27 255
0.649519 -0.375000 0.060000 1.000000 0.000000 0.000000 86 62 29 255
0.000000 -0.750000 0.060000 0.500000 -0.866025 0.000000 92 70 42 255
0.000000 -0.750000 0.030000 0.000000 0.000000 -1.000000 93 71 44 255
-0.649519 0.375000 0.030000 0.000000 0.000000 -1.000000 90 69 41 255
0.649519 0.375000 0.030000 0.000000 0.000000 -1.000000 101 82 59 255
0.000000 -0.900000 0.030000 0.000000 -0.191771 0.981440 137 116 185 255
-0.866025 -0.500000 0.000000 -0.248851 -0.143674 0.957826 137 116 185 255
0.000000 -1.000000 0.000000 0.000000 -0.287348 0.957826 137 116 185 255
-0.779423 -0.450000 0.030000 -0.166079 -0.095885 0.981440 137 116 185 255
-0.866025 0.500000 0.000000 -0.248851 0.143674 0.957826 137 116 185 255
0.000000 0.900000 0.030000 -0.000000 0.191771 0.981440 137 113 185 255
0.000000 1.000000 0.000000 -0.000000 0.287348 0.957826 137 113 185 255
0.866025 0.500000 0.000000 0.248851 0.143674 0.957826 137 116 185 255
0.779423 0.450000 0.030000 0.166079 0.095885 0.981440 137 116 185 255
-0.779423 0.450000 0.030000 -0.166079 0.095885 0.981440 137 116 185 255
0.866025 -0.500000 0.000000 0.248851 -0.143674 0.957826 137 116 185 255
-0.866025 -0.500000 0.000000 0.000000 0.000000 -1.000000 137 116 185 255
0.000000 1.000000 0.000000 0.000000 0.000000 -1.000000 137 113 185 255
0.866025 -0.500000 0.000000 0.000000 0.000000 -1.000000 137 116 185 255
0.779423 -0.450000 0.030000 0.166079 -0.095885 0.981440 137 116 185 255
0.000000 -1.000000 0.000000 0.000000 0.000000 -1.000000 137 116 185 255
-0.866025 0.500000 0.000000 0.000000 0.000000 -1.000000 137 116 185 255
0.866025 0.500000 0.000000 0.000000 0.000000 -1.000000 137 116 185 255
0.000000 -0.474922 0.236576 -0.498059 -0.867143 0.000000 158 142 114 255
-0.413431 -0.237461 0.060000 -0.498059 -0.867143 0.000000 147 132 91 255
0.000000 -0.474922 0.060000 -0.498059 -0.867143 0.000000 146 131 90 255
-0.413431 -0.237461 0.236576 -1.000000 0.000000 0.000000 178 164 143 255
-0.413431 0.237461 0.060000 -1.000000 0.000000 0.000000 153 140 106 255
-0.413431 -0.237461 0.060000 -1.000000 0.000000 0.000000 147 132 91 255
-0.413431 0.237461 0.236576 -0.498059 0.867143 0.000000 178 166 140 255
0.000000 0.474922 0.060000 -0.498059 0.867143 0.000000 155 140 106 255
-0.413431 0.237461 0.060000 -0.498059 0.867143 0.000000 153 140 106 255
0.000000 0.474922 0.236576 0.498059 0.867143 0.000000 178 163 142 255
0.413431 0.237461 0.060000 0.498059 0.867143 0.000000 147 129 94 255
0.000000 0.474922 0.060000 0.498059 0.867143 0.000000 155 140 106 255
0.000000 -0.474922 0.236576 0.000000 0.000000 1.000000 158 142 114 255
0.413431 0.237461 0.236576 0.000000 0.000000 1.000000 184 170 153 255
-0.413431 0.237461 0.236576 0.000000 0.000000 1.000000 178 166 140 255
0.413431 0.237461 0.236576 1.000000 0.000000 0.000000 184 170 153 255
0.413431 -0.237461 0.060000 1.000000 0.000000 0.000000 146 131 90 255
0.413431 0.237461 0.060000 1.000000 0.000000 0.000000 147 129 94 255
0.413431 -0.237461 0.236576 0.498059 -0.867143 0.000000 181 166 147 255
0.000000 -0.474922 0.060000 0.498059 -0.867143 0.000000 146 131 90 255
0.413431 -0.237461 0.060000 0.498059 -0.867143 0.000000 146 131 90 255
-0.413431 -0.237461 0.060000 0.000000 0.000000 -1.000000 147 132 91 255
0.000000 0.474922 0.060000 0.000000 0.000000 -1.000000 155 140 106 255
0.413431 -0.237461 0.060000 0.000000 0.000000 -1.000000 146 131 90 255
-0.413431 -0.237461 0.236576 -0.498059 -0.867143 0.000000 178 164 143 255
-0.413431 0.237461 0.236576 -1.000000 0.000000 0.000000 178 166 140 255
0.000000 0.474922 0.236576 -0.498059 0.867143 0.000000 178 163 142 255
0.413431 0.237461 0.236576 0.498059 0.867143 0.000000 184 170 153 255
-0.413431 -0.237461 0.236576 0.000000 0.000000 1.000000 178 164 143 255
0.413431 -0.237461 0.236576 0.000000 0.000000 1.000000 181 166 147 255
0.000000 0.474922 0.236576 0.000000 0.000000 1.000000 178 163 142 255
0.413431 -0.237461 0.236576 1.000000 0.000000 0.000000 181 166 147 255
0.000000 -0.474922 0.236576 0.498059 -0.867143 0.000000 158 142 114 255
0.000000 -0.474922 0.060000 0.000000 0.000000 -1.000000 146 131 90 255
-0.413431 0.237461 0.060000 0.000000 0.000000 -1.000000 153 140 106 255
0.413431 0.237461 0.060000 0.000000 0.000000 -1.000000 147 129 94 255
3 0 1 2
3 3 4 5
3 6 7 8
3 9 10 11
3 12 13 14
3 15 16 17
3 18 19 20
3 21 22 23
3 0 24 1
3 3 25 4
3 6 26 7
3 9 27 10
3 14 28 12
3 12 29 13
3 13 30 14
3 15 31 16
3 18 32 19
3 23 33 21
3 21 34 22
3 22 35 23
3 36 37 38
3 39 40 37
3 40 41 42
3 41 43 42
3 44 41 45
3 44 46 43
3 46 36 38
3 47 48 49
3 36 39 37
3 39 45 40
3 40 45 41
3 41 44 43
3 45 39 44
3 39 36 44
3 36 50 44
3 44 50 46
3 46 50 36
3 49 51 47
3 47 52 48
3 48 53 49
3 54 55 56
3 57 58 59
3 60 61 62
3 63 64 65
3 66 67 68
3 69 70 71
3 72 73 74
3 75 76 77
3 54 78 55
3 57 79 58
3 60 80 61
3 63 81 64
3 68 82 66
3 66 83 67
3 67 84 68
3 69 85 70
3 72 86 73
3 77 87 75
3 75 88 76
3 76 89 77
