ply
format ascii 1.0
comment Created by Blender 3.5.1 - www.blender.org
element vertex 84
property float x
property float y
property float z
property float nx
property float ny
property float nz
property uchar red
property uchar green
property uchar blue
property uchar alpha
element face 148
property list uchar uint vertex_indices
end_header
0.000000 -1.000000 0.030000 -0.000000 -0.792406 0.609994 110 185 124 255
-0.866025 -0.500000 0.000000 -0.686244 -0.396203 -0.609994 110 185 124 255
0.000000 -1.000000 0.000000 0.000000 -0.792406 -0.609994 110 185 124 255
-0.866025 -0.500000 0.030000 -0.686244 -0.396203 0.609994 110 185 124 255
-0.866025 0.500000 0.000000 -0.686244 0.396203 -0.609994 110 185 124 255
-0.866025 0.500000 0.030000 -0.686244 0.396203 0.609994 110 185 124 255
0.000000 1.000000 0.000000 -0.000000 0.792406 -0.609994 110 185 124 255
0.000000 1.000000 0.030000 0.000000 0.792406 0.609994 110 185 124 255
0.866025 0.500000 0.000000 0.686244 0.396203 -0.609994 110 185 124 255
0.866025 0.500000 0.030000 0.686244 0.396203 0.609994 110 185 124 255
0.866025 -0.500000 0.000000 0.686244 -0.396203 -0.609994 110 185 124 255
0.866025 -0.500000 0.030000 0.686244 -0.396203 0.609994 110 185 124 255
0.000000 -0.507013 0.030000 0.000000 0.000000 1.000000 110 185 124 255
-0.439086 0.253507 0.030000 0.000000 0.000000 1.000000 110 185 124 255
-0.439086 -0.253507 0.030000 0.000000 0.000000 1.000000 110 185 124 255
0.000000 0.507013 0.030000 0.000000 0.000000 1.000000 110 185 124 255
0.439086 -0.253507 0.030000 0.000000 0.000000 1.000000 110 185 124 255
0.439086 0.253507 0.030000 0.000000 0.000000 1.000000 110 185 124 255
0.439086 -0.253507 0.030000 0.821362 -0.474213 -0.316996 185 168 82 255
0.000000 -0.583916 0.260088 0.000000 -0.970639 0.240541 185 168 82 255
0.000000 -0.507013 0.030000 -0.000000 -0.948427 -0.316996 185 168 82 255
-0.505687 -0.291958 0.260088 -0.840598 -0.485320 0.240541 185 168 82 255
-0.296313 0.171076 0.456163 -0.752684 0.434562 0.494594 185 168 82 255
-0.505687 0.291958 0.260088 -0.840598 0.485320 0.240541 185 168 82 255
0.000000 0.507013 0.030000 0.000000 0.948427 -0.316996 185 168 82 255
0.505687 0.291958 0.260088 0.840598 0.485320 0.240541 185 168 82 255
0.439086 0.253507 0.030000 0.821362 0.474213 -0.316996 185 168 82 255
-0.439086 -0.253507 0.030000 -0.821362 -0.474213 -0.316996 185 168 82 255
-0.439086 0.253507 0.030000 -0.821362 0.474213 -0.316996 185 168 82 255
0.505687 -0.291958 0.260088 0.840598 -0.485320 0.240541 185 168 82 255
0.000000 0.583916 0.260088 -0.000000 0.970639 0.240541 185 168 82 255
0.000000 -0.342152 0.456163 0.000000 -0.869124 0.494594 185 168 82 255
-0.296313 -0.171076 0.761030 -0.831401 -0.480009 -0.279935 185 168 82 255
-0.296313 -0.171076 0.456163 -0.752684 -0.434562 0.494594 185 168 82 255
0.296313 0.171076 0.456163 0.752684 0.434562 0.494594 185 168 82 255
0.296313 -0.171076 0.456163 0.752684 -0.434562 0.494594 185 168 82 255
0.000000 0.342152 0.456163 0.000000 0.869124 0.494594 185 168 82 255
0.296313 0.171076 0.761030 0.831401 0.480010 -0.279935 185 168 82 255
0.365780 -0.211183 0.901216 0.853848 -0.492969 0.167106 185 168 82 255
0.296313 -0.171076 0.761030 0.831401 -0.480009 -0.279935 185 168 82 255
0.000000 -0.342152 0.761030 0.000000 -0.960019 -0.279935 185 168 82 255
-0.296313 0.171076 0.761030 -0.831401 0.480009 -0.279935 185 168 82 255
0.000000 0.342152 0.761030 -0.000000 0.960019 -0.279935 185 168 82 255
0.000000 -0.422366 0.901216 0.000000 -0.985939 0.167106 185 168 82 255
0.123413 -0.071253 1.114444 0.650839 -0.363102 0.666757 185 168 82 255
0.000000 -0.142505 1.114444 0.006956 -0.771841 0.635777 185 168 82 255
0.000000 0.422366 0.901216 0.000000 0.985939 0.167106 185 168 82 255
-0.365780 -0.211183 0.901216 -0.853848 -0.492970 0.167106 185 168 82 255
0.365780 0.211183 0.901216 0.853848 0.492969 0.167106 185 168 82 255
-0.365780 0.211183 0.901216 -0.853848 0.492969 0.167106 185 168 82 255
0.017897 -0.005877 1.344631 0.661926 0.375668 0.648635 185 168 82 255
0.015697 -0.044597 1.344631 0.795324 -0.415878 0.441029 185 168 82 255
0.123413 0.071253 1.114444 0.623463 0.365332 0.691250 185 168 82 255
-0.123413 0.071253 1.114444 -0.640700 0.382256 0.665871 185 168 82 255
0.000000 0.142505 1.114444 0.004989 0.723092 0.690733 185 168 82 255
-0.123413 -0.071253 1.114444 -0.672098 -0.380071 0.635476 185 168 82 255
-0.014511 0.015388 1.340811 0.014811 0.791924 0.610441 185 168 82 255
-0.018912 -0.062052 1.340811 0.110948 -0.944893 -0.308006 185 168 82 255
-0.051320 -0.040788 1.336990 -0.872944 -0.331870 -0.357536 185 168 82 255
-0.049120 -0.002068 1.336990 -0.739932 0.580674 0.339585 185 168 82 255
-0.085561 -0.179143 1.437965 0.644977 -0.708690 0.285941 185 168 82 255
-0.091719 -0.165222 1.395877 0.692215 -0.400808 -0.600159 185 168 82 255
-0.128656 -0.133881 1.468472 -0.469312 0.300632 0.830281 185 168 82 255
-0.104029 -0.163472 1.474263 0.144958 -0.343950 0.927732 185 168 82 255
-0.134814 -0.119960 1.426383 -0.788093 0.614080 0.042601 185 168 82 255
-0.116346 -0.135631 1.390086 -0.237137 0.423045 -0.874528 185 168 82 255
-0.326679 -0.343049 1.104625 -0.746572 0.357198 -0.561284 185 168 82 255
-0.334987 -0.359873 1.114552 -0.968661 -0.208356 -0.135218 185 168 82 255
-0.308811 -0.339659 1.095055 -0.095677 0.410770 -0.906705 185 168 82 255
-0.299252 -0.353094 1.095411 0.424866 -0.261100 -0.866785 185 168 82 255
-0.325428 -0.373308 1.114909 -0.438858 -0.893929 -0.091071 185 168 82 255
-0.307560 -0.369918 1.105338 0.209103 -0.841322 -0.498452 185 168 82 255
0.000000 -0.750000 0.060000 0.000000 -0.792406 0.609994 245 237 142 255
-0.649519 -0.375000 0.030000 -0.686244 -0.396203 -0.609994 245 237 142 255
0.000000 -0.750000 0.030000 -0.000000 -0.792406 -0.609994 245 237 142 255
-0.649519 -0.375000 0.060000 -0.686243 -0.396203 0.609994 245 237 142 255
-0.649519 0.375000 0.030000 -0.686243 0.396203 -0.609994 245 237 142 255
-0.649519 0.375000 0.060000 -0.686244 0.396203 0.609994 245 237 142 255
0.000000 0.750000 0.030000 0.000000 0.792406 -0.609994 245 237 142 255
0.000000 0.750000 0.060000 -0.000000 0.792406 0.609994 245 237 142 255
0.649519 0.375000 0.030000 0.686244 0.396203 -0.609994 245 237 142 255
0.649519 0.375000 0.060000 0.686243 0.396203 0.609994 245 237 142 255
0.649519 -0.375000 0.030000 0.686243 -0.396203 -0.609994 245 237 142 255
0.649519 -0.375000 0.060000 0.686244 -0.396203 0.609994 245 237 142 255
3 0 1 2
3 3 4 1
3 5 6 4
3 7 8 6
3 9 10 8
3 11 2 10
3 1 6 10
3 12 3 0
3 13 3 14
3 15 5 13
3 15 9 7
3 16 9 17
3 12 11 16
3 0 3 1
3 3 5 4
3 5 7 6
3 7 9 8
3 9 11 10
3 11 0 2
3 10 2 1
3 1 4 6
3 6 8 10
3 12 14 3
3 13 5 3
3 15 7 5
3 15 17 9
3 16 11 9
3 12 0 11
3 18 19 20
3 21 22 23
3 24 25 26
3 27 23 28
3 26 29 18
3 28 30 24
3 20 21 27
3 31 32 33
3 29 34 35
3 23 36 30
3 19 33 21
3 29 31 19
3 30 34 25
3 37 38 39
3 35 40 31
3 36 37 34
3 33 41 22
3 34 39 35
3 22 42 36
3 43 44 45
3 41 46 42
3 32 43 47
3 39 43 40
3 37 46 48
3 32 49 41
3 44 50 51
3 46 52 48
3 47 53 49
3 48 44 38
3 46 53 54
3 43 55 47
3 53 56 54
3 55 57 58
3 45 51 57
3 52 56 50
3 55 59 53
3 57 60 61
3 50 62 63
3 58 64 59
3 51 63 60
3 59 62 56
3 57 65 58
3 62 66 67
3 61 68 65
3 60 69 61
3 63 67 70
3 64 68 66
3 63 71 60
3 66 71 67
3 18 29 19
3 21 33 22
3 24 30 25
3 27 21 23
3 26 25 29
3 28 23 30
3 20 19 21
3 31 40 32
3 29 25 34
3 23 22 36
3 19 31 33
3 29 35 31
3 30 36 34
3 37 48 38
3 35 39 40
3 36 42 37
3 33 32 41
3 34 37 39
3 22 41 42
3 43 38 44
3 41 49 46
3 32 40 43
3 39 38 43
3 37 42 46
3 32 47 49
3 44 52 50
3 46 54 52
3 47 55 53
3 48 52 44
3 46 49 53
3 43 45 55
3 53 59 56
3 55 45 57
3 45 44 51
3 52 54 56
3 55 58 59
3 57 51 60
3 50 56 62
3 58 65 64
3 51 50 63
3 59 64 62
3 57 61 65
3 62 64 66
3 61 69 68
3 60 71 69
3 63 62 67
3 64 65 68
3 63 70 71
3 66 68 69
3 69 71 66
3 71 70 67
3 72 73 74
3 75 76 73
3 77 78 76
3 79 80 78
3 72 81 77
3 81 82 80
3 83 74 82
3 73 78 82
3 72 75 73
3 75 77 76
3 77 79 78
3 79 81 80
3 77 75 72
3 72 83 81
3 81 79 77
3 81 83 82
3 83 72 74
3 82 74 73
3 73 76 78
3 78 80 82
