ply
format ascii 1.0
comment Created by Blender 3.5.0 - www.blender.org
element vertex 202
property float x
property float y
property float z
property float nx
property float ny
property float nz
property uchar red
property uchar green
property uchar blue
property uchar alpha
element face 140
property list uchar uint vertex_indices
end_header
0.000000 -0.900000 0.030000 0.000000 -0.191771 0.981440 110 185 124 255
-0.866025 -0.500000 0.000000 -0.248851 -0.143674 0.957826 110 185 124 255
0.000000 -1.000000 0.000000 0.000000 -0.287348 0.957826 110 185 124 255
-0.779423 -0.450000 0.030000 -0.166079 -0.095885 0.981440 110 185 124 255
-0.866025 0.500000 0.000000 -0.248851 0.143674 0.957826 110 185 124 255
0.000000 0.900000 0.030000 -0.000000 0.191771 0.981440 110 185 124 255
0.000000 1.000000 0.000000 -0.000000 0.287348 0.957826 110 185 124 255
0.866025 0.500000 0.000000 0.248851 0.143674 0.957826 110 185 124 255
0.779423 0.450000 0.030000 0.166079 0.095885 0.981440 110 185 124 255
0.866025 -0.500000 0.000000 0.248851 -0.143674 0.957826 110 185 124 255
-0.866025 -0.500000 0.000000 0.000000 0.000000 -1.000000 110 185 124 255
0.000000 1.000000 0.000000 0.000000 0.000000 -1.000000 110 185 124 255
0.866025 -0.500000 0.000000 0.000000 0.000000 -1.000000 110 185 124 255
-0.779423 0.450000 0.030000 -0.166079 0.095885 0.981440 110 185 124 255
0.779423 -0.450000 0.030000 0.166079 -0.095885 0.981440 110 185 124 255
0.000000 -1.000000 0.000000 0.000000 0.000000 -1.000000 110 185 124 255
-0.866025 0.500000 0.000000 0.000000 0.000000 -1.000000 110 185 124 255
0.866025 0.500000 0.000000 0.000000 0.000000 -1.000000 110 185 124 255
0.439086 -0.253507 0.030000 0.480285 -0.831877 -0.278041 185 168 82 255
0.000000 -0.583916 0.260088 0.480285 -0.831877 -0.278041 185 168 82 255
0.000000 -0.507013 0.030000 0.480285 -0.831877 -0.278041 185 168 82 255
-0.505687 -0.291958 0.260088 -0.545507 -0.314949 0.776678 185 168 82 255
-0.296313 0.171076 0.456163 -0.545507 0.314949 0.776678 185 168 82 255
-0.505687 0.291958 0.260088 -0.545507 0.314949 0.776678 185 168 82 255
0.000000 0.507013 0.030000 0.480285 0.831877 -0.278041 185 168 82 255
0.505687 0.291958 0.260088 0.480285 0.831877 -0.278041 185 168 82 255
0.439086 0.253507 0.030000 0.480285 0.831877 -0.278041 185 168 82 255
-0.439086 -0.253507 0.030000 -0.960569 0.000000 -0.278041 185 168 82 255
-0.505687 0.291958 0.260088 -0.960569 0.000000 -0.278041 185 168 82 255
-0.439086 0.253507 0.030000 -0.960569 0.000000 -0.278041 185 168 82 255
0.439086 0.253507 0.030000 0.960569 0.000000 -0.278041 185 168 82 255
0.505687 -0.291958 0.260088 0.960569 0.000000 -0.278041 185 168 82 255
0.439086 -0.253507 0.030000 0.960569 0.000000 -0.278041 185 168 82 255
-0.439086 0.253507 0.030000 -0.480285 0.831877 -0.278041 185 168 82 255
0.000000 0.583916 0.260088 -0.480285 0.831877 -0.278041 185 168 82 255
0.000000 0.507013 0.030000 -0.480285 0.831877 -0.278041 185 168 82 255
0.000000 -0.507013 0.030000 -0.480285 -0.831877 -0.278041 185 168 82 255
-0.505687 -0.291958 0.260088 -0.480285 -0.831877 -0.278041 185 168 82 255
-0.439086 -0.253507 0.030000 -0.480285 -0.831877 -0.278041 185 168 82 255
0.000000 -0.342152 0.456163 -0.500000 -0.866026 0.000000 185 168 82 255
-0.296313 -0.171076 0.761030 -0.500000 -0.866026 0.000000 185 168 82 255
-0.296313 -0.171076 0.456163 -0.500000 -0.866025 0.000000 185 168 82 255
0.505687 -0.291958 0.260088 0.545507 -0.314949 0.776678 185 168 82 255
0.296313 0.171076 0.456163 0.545507 0.314949 0.776678 185 168 82 255
0.296313 -0.171076 0.456163 0.545507 -0.314949 0.776678 185 168 82 255
0.000000 0.342152 0.456163 0.000000 0.629898 0.776678 185 168 82 255
0.000000 0.583916 0.260088 -0.000000 0.629898 0.776678 185 168 82 255
0.000000 -0.583916 0.260088 0.000000 -0.629898 0.776678 185 168 82 255
-0.296313 -0.171076 0.456163 -0.545508 -0.314949 0.776678 185 168 82 255
0.000000 -0.342152 0.456163 0.000000 -0.629898 0.776678 185 168 82 255
0.505687 0.291958 0.260088 0.545508 0.314949 0.776678 185 168 82 255
0.296313 0.171076 0.761030 0.896021 0.000000 -0.444012 185 168 82 255
0.365780 -0.211183 0.901216 0.896021 0.000000 -0.444011 185 168 82 255
0.296313 -0.171076 0.761030 0.896021 0.000000 -0.444011 185 168 82 255
0.296313 -0.171076 0.456163 0.500000 -0.866026 0.000000 185 168 82 255
0.000000 -0.342152 0.761030 0.500000 -0.866026 0.000000 185 168 82 255
0.000000 -0.342152 0.456163 0.500000 -0.866025 0.000000 185 168 82 255
0.000000 0.342152 0.456163 0.500000 0.866025 0.000000 185 168 82 255
0.296313 0.171076 0.761030 0.500000 0.866025 0.000000 185 168 82 255
0.296313 0.171076 0.456163 0.500000 0.866025 0.000000 185 168 82 255
-0.296313 -0.171076 0.456163 -1.000000 0.000000 0.000000 185 168 82 255
-0.296313 0.171076 0.761030 -1.000000 0.000000 0.000000 185 168 82 255
-0.296313 0.171076 0.456163 -1.000000 0.000000 0.000000 185 168 82 255
0.296313 0.171076 0.456163 1.000000 0.000000 0.000000 185 168 82 255
0.296313 -0.171076 0.761030 1.000000 0.000000 0.000000 185 168 82 255
0.296313 -0.171076 0.456163 1.000000 0.000000 0.000000 185 168 82 255
-0.296313 0.171076 0.456163 -0.500000 0.866025 0.000000 185 168 82 255
0.000000 0.342152 0.761030 -0.500000 0.866025 0.000000 185 168 82 255
0.000000 0.342152 0.456163 -0.500000 0.866025 0.000000 185 168 82 255
0.000000 -0.422366 0.901216 0.000000 -0.606045 0.795430 185 168 82 255
0.123413 -0.071253 1.114444 0.650839 -0.363102 0.666757 185 168 82 255
0.000000 -0.142505 1.114444 0.138763 -0.703982 0.696530 185 168 82 255
-0.296313 0.171076 0.761030 -0.448011 0.775977 -0.444011 185 168 82 255
0.000000 0.422366 0.901216 -0.448011 0.775977 -0.444011 185 168 82 255
0.000000 0.342152 0.761030 -0.448011 0.775977 -0.444011 185 168 82 255
-0.296313 -0.171076 0.761030 -0.448011 -0.775977 -0.444011 185 168 82 255
0.000000 -0.422366 0.901216 -0.448010 -0.775977 -0.444011 185 168 82 255
-0.365780 -0.211183 0.901216 -0.448011 -0.775977 -0.444011 185 168 82 255
0.296313 -0.171076 0.761030 0.448011 -0.775977 -0.444011 185 168 82 255
0.000000 -0.422366 0.901216 0.448011 -0.775977 -0.444011 185 168 82 255
0.000000 -0.342152 0.761030 0.448010 -0.775977 -0.444011 185 168 82 255
0.296313 0.171076 0.761030 0.448011 0.775977 -0.444011 185 168 82 255
0.000000 0.422366 0.901216 0.448011 0.775977 -0.444011 185 168 82 255
0.365780 0.211183 0.901216 0.448011 0.775977 -0.444011 185 168 82 255
-0.296313 -0.171076 0.761030 -0.896021 0.000000 -0.444012 185 168 82 255
-0.365780 0.211183 0.901216 -0.896021 0.000000 -0.444011 185 168 82 255
-0.296313 0.171076 0.761030 -0.896021 0.000000 -0.444011 185 168 82 255
0.017897 -0.005877 1.344631 0.661926 0.375668 0.648635 185 168 82 255
0.015697 -0.044597 1.344631 0.824969 -0.056642 0.562332 185 168 82 255
0.000000 0.422366 0.901216 -0.000000 0.606045 0.795430 185 168 82 255
0.123413 0.071253 1.114444 0.623463 0.365332 0.691250 185 168 82 255
0.365780 0.211183 0.901216 0.524851 0.303023 0.795430 185 168 82 255
-0.365780 -0.211183 0.901216 -0.524851 -0.303023 0.795430 185 168 82 255
-0.123413 0.071253 1.114444 -0.640700 0.382256 0.665871 185 168 82 255
-0.365780 0.211183 0.901216 -0.524851 0.303023 0.795430 185 168 82 255
0.365780 -0.211183 0.901216 0.524851 -0.303023 0.795430 185 168 82 255
0.000000 0.142505 1.114444 0.004989 0.723092 0.690733 185 168 82 255
-0.123413 -0.071253 1.114444 -0.678326 -0.228996 0.698165 185 168 82 255
-0.014511 0.015388 1.340811 -0.444945 0.781216 0.437863 185 168 82 255
-0.123413 -0.071253 1.114444 -0.490624 -0.831586 0.260294 185 168 82 255
-0.018912 -0.062052 1.340811 -0.527103 -0.803732 0.276003 185 168 82 255
-0.051320 -0.040788 1.336990 -0.549070 -0.785536 0.285404 185 168 82 255
0.015697 -0.044597 1.344631 0.419649 -0.845224 0.330895 185 168 82 255
-0.018912 -0.062052 1.340811 0.394109 -0.855111 0.336843 185 168 82 255
-0.014511 0.015388 1.340811 0.364311 0.672537 0.644183 185 168 82 255
-0.049120 -0.002068 1.336990 -0.951285 0.036932 0.306093 185 168 82 255
-0.018912 -0.062052 1.340811 0.447603 -0.708011 -0.546235 185 168 82 255
-0.085561 -0.179143 1.437965 0.745136 -0.582727 -0.324348 185 168 82 255
-0.091719 -0.165222 1.395877 0.767660 -0.566468 -0.299686 185 168 82 255
-0.128656 -0.133881 1.468472 0.319551 0.444014 0.837101 185 168 82 255
-0.104029 -0.163472 1.474263 0.611472 0.144080 0.778037 185 168 82 255
-0.051320 -0.040788 1.336990 -0.571620 -0.121725 -0.811439 185 168 82 255
-0.134814 -0.119960 1.426383 -0.803964 0.227464 -0.549456 185 168 82 255
-0.049120 -0.002068 1.336990 -0.748667 0.042548 -0.661580 185 168 82 255
-0.085561 -0.179143 1.437965 0.814818 -0.250585 0.522761 185 168 82 255
-0.049120 -0.002068 1.336990 -0.448710 0.771259 0.451462 185 168 82 255
-0.128656 -0.133881 1.468472 -0.764983 0.564489 0.310086 185 168 82 255
-0.018912 -0.062052 1.340811 -0.163836 -0.389901 -0.906165 185 168 82 255
-0.116346 -0.135631 1.390086 -0.225771 0.112616 -0.967649 185 168 82 255
-0.326679 -0.343049 1.104625 -0.844958 0.507777 0.167956 185 168 82 255
-0.334987 -0.359873 1.114552 -0.842710 0.512837 0.163823 185 168 82 255
-0.091719 -0.165222 1.395877 0.296169 0.060677 -0.953206 185 168 82 255
-0.308811 -0.339659 1.095055 0.608203 0.412560 -0.678147 185 168 82 255
-0.299252 -0.353094 1.095411 0.811698 -0.534817 -0.234768 185 168 82 255
-0.104029 -0.163472 1.474263 -0.646673 -0.413488 0.640970 185 168 82 255
-0.334987 -0.359873 1.114552 -0.633108 -0.431945 0.642338 185 168 82 255
-0.325428 -0.373308 1.114909 -0.632383 -0.432912 0.642401 185 168 82 255
-0.134814 -0.119960 1.426383 -0.201677 0.861758 -0.465509 185 168 82 255
-0.308811 -0.339659 1.095055 -0.355021 0.854167 -0.379947 185 168 82 255
-0.326679 -0.343049 1.104625 -0.362760 0.853040 -0.375136 185 168 82 255
-0.104029 -0.163472 1.474263 0.118306 -0.892918 0.434397 185 168 82 255
-0.307560 -0.369918 1.105338 0.326130 -0.890162 0.318201 185 168 82 255
-0.085561 -0.179143 1.437965 0.107514 -0.891701 0.439671 185 168 82 255
-0.326679 -0.343049 1.104625 -0.402695 -0.309427 -0.861448 185 168 82 255
-0.307560 -0.369918 1.105338 -0.402694 -0.309425 -0.861448 185 168 82 255
-0.334987 -0.359873 1.114552 -0.402695 -0.309424 -0.861449 185 168 82 255
0.505687 -0.291958 0.260088 0.480285 -0.831877 -0.278041 185 168 82 255
0.000000 0.583916 0.260088 0.480285 0.831877 -0.278041 185 168 82 255
-0.505687 -0.291958 0.260088 -0.960569 0.000000 -0.278041 185 168 82 255
0.505687 0.291958 0.260088 0.960569 0.000000 -0.278041 185 168 82 255
-0.505687 0.291958 0.260088 -0.480285 0.831877 -0.278041 185 168 82 255
0.000000 -0.583916 0.260088 -0.480285 -0.831877 -0.278041 185 168 82 255
0.000000 -0.342152 0.761030 -0.500000 -0.866025 0.000000 185 168 82 255
0.365780 0.211183 0.901216 0.896021 0.000000 -0.444011 185 168 82 255
0.296313 -0.171076 0.761030 0.500000 -0.866025 0.000000 185 168 82 255
0.000000 0.342152 0.761030 0.500000 0.866025 0.000000 185 168 82 255
-0.296313 -0.171076 0.761030 -1.000000 0.000000 0.000000 185 168 82 255
0.296313 0.171076 0.761030 1.000000 0.000000 0.000000 185 168 82 255
-0.296313 0.171076 0.761030 -0.500000 0.866025 0.000000 185 168 82 255
-0.365780 0.211183 0.901216 -0.448011 0.775977 -0.444011 185 168 82 255
0.000000 -0.342152 0.761030 -0.448011 -0.775977 -0.444011 185 168 82 255
0.365780 -0.211183 0.901216 0.448011 -0.775977 -0.444011 185 168 82 255
0.000000 0.342152 0.761030 0.448011 0.775977 -0.444011 185 168 82 255
-0.365780 -0.211183 0.901216 -0.896021 0.000000 -0.444011 185 168 82 255
0.000000 -0.142505 1.114444 -0.483195 -0.836918 0.257082 185 168 82 255
-0.051320 -0.040788 1.336990 -0.952082 0.054108 0.301019 185 168 82 255
0.015697 -0.044597 1.344631 0.420149 -0.709051 -0.566323 185 168 82 255
-0.134814 -0.119960 1.426383 -0.772416 0.560626 0.298450 185 168 82 255
-0.299252 -0.353094 1.095411 0.607146 0.413997 -0.678218 185 168 82 255
-0.307560 -0.369918 1.105338 0.810510 -0.537540 -0.232644 185 168 82 255
-0.128656 -0.133881 1.468472 -0.647010 -0.413021 0.640931 185 168 82 255
-0.116346 -0.135631 1.390086 -0.192745 0.861389 -0.469955 185 168 82 255
-0.325428 -0.373308 1.114909 0.335768 -0.888741 0.312089 185 168 82 255
-0.308811 -0.339659 1.095055 -0.402693 -0.309423 -0.861450 185 168 82 255
-0.299252 -0.353094 1.095411 -0.402694 -0.309426 -0.861448 185 168 82 255
-0.325428 -0.373308 1.114909 -0.402693 -0.309415 -0.861453 185 168 82 255
0.000000 -0.750000 0.060000 -0.500000 -0.866025 0.000000 245 237 142 255
-0.649519 -0.375000 0.030000 -0.500000 -0.866025 0.000000 245 237 142 255
0.000000 -0.750000 0.030000 -0.500000 -0.866025 0.000000 245 237 142 255
-0.649519 -0.375000 0.060000 -1.000000 0.000000 0.000000 245 237 142 255
-0.649519 0.375000 0.030000 -1.000000 0.000000 0.000000 245 237 142 255
-0.649519 -0.375000 0.030000 -1.000000 0.000000 0.000000 245 237 142 255
-0.649519 0.375000 0.060000 -0.500000 0.866025 0.000000 245 237 142 255
0.000000 0.750000 0.030000 -0.500000 0.866025 0.000000 245 237 142 255
-0.649519 0.375000 0.030000 -0.500000 0.866025 0.000000 245 237 142 255
0.000000 0.750000 0.060000 0.500000 0.866025 0.000000 245 237 142 255
0.649519 0.375000 0.030000 0.500000 0.866025 0.000000 245 237 142 255
0.000000 0.750000 0.030000 0.500000 0.866025 0.000000 245 237 142 255
0.000000 -0.750000 0.060000 0.000000 0.000000 1.000000 245 237 142 255
0.649519 0.375000 0.060000 0.000000 0.000000 1.000000 245 237 142 255
-0.649519 0.375000 0.060000 0.000000 0.000000 1.000000 245 237 142 255
0.649519 0.375000 0.060000 1.000000 0.000000 0.000000 245 237 142 255
0.649519 -0.375000 0.030000 1.000000 0.000000 0.000000 245 237 142 255
0.649519 0.375000 0.030000 1.000000 0.000000 0.000000 245 237 142 255
0.649519 -0.375000 0.060000 0.500000 -0.866025 0.000000 245 237 142 255
0.000000 -0.750000 0.030000 0.500000 -0.866025 0.000000 245 237 142 255
0.649519 -0.375000 0.030000 0.500000 -0.866025 0.000000 245 237 142 255
-0.649519 -0.375000 0.030000 0.000000 0.000000 -1.000000 245 237 142 255
0.000000 0.750000 0.030000 0.000000 0.000000 -1.000000 245 237 142 255
0.649519 -0.375000 0.030000 0.000000 0.000000 -1.000000 245 237 142 255
-0.649519 -0.375000 0.060000 -0.500000 -0.866025 0.000000 245 237 142 255
-0.649519 0.375000 0.060000 -1.000000 0.000000 0.000000 245 237 142 255
0.000000 0.750000 0.060000 -0.500000 0.866025 0.000000 245 237 142 255
0.649519 0.375000 0.060000 0.500000 0.866025 0.000000 245 237 142 255
-0.649519 -0.375000 0.060000 0.000000 0.000000 1.000000 245 237 142 255
0.649519 -0.375000 0.060000 0.000000 0.000000 1.000000 245 237 142 255
0.000000 0.750000 0.060000 0.000000 0.000000 1.000000 245 237 142 255
0.649519 -0.375000 0.060000 1.000000 0.000000 0.000000 245 237 142 255
0.000000 -0.750000 0.060000 0.500000 -0.866025 0.000000 245 237 142 255
0.000000 -0.750000 0.030000 0.000000 0.000000 -1.000000 245 237 142 255
-0.649519 0.375000 0.030000 0.000000 0.000000 -1.000000 245 237 142 255
0.649519 0.375000 0.030000 0.000000 0.000000 -1.000000 245 237 142 255
3 0 1 2
3 3 4 1
3 4 5 6
3 5 7 6
3 8 9 7
3 9 0 2
3 10 11 12
3 8 5 13
3 0 3 1
3 3 13 4
3 4 13 5
3 5 8 7
3 8 14 9
3 9 14 0
3 12 15 10
3 10 16 11
3 11 17 12
3 13 3 8
3 3 0 8
3 0 14 8
3 18 19 20
3 21 22 23
3 24 25 26
3 27 28 29
3 30 31 32
3 33 34 35
3 36 37 38
3 39 40 41
3 42 43 44
3 23 45 46
3 47 48 21
3 42 49 47
3 46 43 50
3 51 52 53
3 54 55 56
3 57 58 59
3 60 61 62
3 63 64 65
3 66 67 68
3 69 70 71
3 72 73 74
3 75 76 77
3 78 79 80
3 81 82 83
3 84 85 86
3 70 87 88
3 89 90 91
3 92 93 94
3 91 70 95
3 89 93 96
3 69 97 92
3 93 98 96
3 99 100 101
3 71 102 103
3 90 104 87
3 97 105 93
3 106 107 108
3 87 109 110
3 111 112 113
3 88 110 114
3 115 116 98
3 117 118 111
3 116 119 120
3 121 122 118
3 107 123 108
3 124 125 126
3 127 128 129
3 130 131 132
3 133 134 135
3 18 136 19
3 21 48 22
3 24 137 25
3 27 138 28
3 30 139 31
3 33 140 34
3 36 141 37
3 39 142 40
3 42 50 43
3 23 22 45
3 47 49 48
3 42 44 49
3 46 45 43
3 51 143 52
3 54 144 55
3 57 145 58
3 60 146 61
3 63 147 64
3 66 148 67
3 69 95 70
3 72 149 73
3 75 150 76
3 78 151 79
3 81 152 82
3 84 153 85
3 70 90 87
3 89 96 90
3 92 97 93
3 91 90 70
3 89 94 93
3 69 71 97
3 93 115 98
3 99 154 100
3 71 70 102
3 90 96 104
3 97 155 105
3 106 156 107
3 87 104 109
3 111 118 112
3 88 87 110
3 115 157 116
3 117 121 118
3 116 157 119
3 121 158 122
3 107 159 123
3 124 160 125
3 127 161 128
3 130 162 131
3 133 163 164
3 164 134 133
3 134 165 135
3 166 167 168
3 169 170 171
3 172 173 174
3 175 176 177
3 178 179 180
3 181 182 183
3 184 185 186
3 187 188 189
3 166 190 167
3 169 191 170
3 172 192 173
3 175 193 176
3 180 194 178
3 178 195 179
3 179 196 180
3 181 197 182
3 184 198 185
3 189 199 187
3 187 200 188
3 188 201 189
