ply
format ascii 1.0
comment Created by Blender 3.5.0 - www.blender.org
element vertex 270
property float x
property float y
property float z
property float nx
property float ny
property float nz
property uchar red
property uchar green
property uchar blue
property uchar alpha
element face 140
property list uchar uint vertex_indices
end_header
0.000000 -0.900000 0.030000 -0.163663 -0.283473 0.944911 110 185 124 255
-0.866025 -0.500000 0.000000 -0.163663 -0.283473 0.944911 110 185 124 255
0.000000 -1.000000 0.000000 -0.163663 -0.283473 0.944911 110 185 124 255
-0.779423 -0.450000 0.030000 -0.327327 0.000000 0.944911 110 185 124 255
-0.866025 0.500000 0.000000 -0.327327 0.000000 0.944911 110 185 124 255
-0.866025 -0.500000 0.000000 -0.327327 0.000000 0.944911 110 185 124 255
-0.866025 0.500000 0.000000 -0.163663 0.283473 0.944911 110 185 124 255
0.000000 0.900000 0.030000 -0.163663 0.283473 0.944911 110 185 124 255
0.000000 1.000000 0.000000 -0.163663 0.283473 0.944911 110 185 124 255
0.000000 0.900000 0.030000 0.163663 0.283473 0.944911 110 185 124 255
0.866025 0.500000 0.000000 0.163663 0.283473 0.944911 110 185 124 255
0.000000 1.000000 0.000000 0.163663 0.283473 0.944911 110 185 124 255
0.779423 0.450000 0.030000 0.327327 0.000000 0.944911 110 185 124 255
0.866025 -0.500000 0.000000 0.327327 0.000000 0.944911 110 185 124 255
0.866025 0.500000 0.000000 0.327327 0.000000 0.944911 110 185 124 255
0.866025 -0.500000 0.000000 0.163663 -0.283473 0.944911 110 185 124 255
0.000000 -0.900000 0.030000 0.163663 -0.283473 0.944911 110 185 124 255
0.000000 -1.000000 0.000000 0.163663 -0.283473 0.944911 110 185 124 255
-0.866025 -0.500000 0.000000 0.000000 0.000000 -1.000000 110 185 124 255
0.000000 1.000000 0.000000 0.000000 0.000000 -1.000000 110 185 124 255
0.866025 -0.500000 0.000000 0.000000 0.000000 -1.000000 110 185 124 255
0.779423 0.450000 0.030000 0.000000 0.000000 1.000000 110 185 124 255
0.000000 0.900000 0.030000 0.000000 0.000000 1.000000 110 185 124 255
-0.779423 0.450000 0.030000 0.000000 0.000000 1.000000 110 185 124 255
-0.779423 -0.450000 0.030000 -0.163663 -0.283473 0.944911 110 185 124 255
-0.779423 0.450000 0.030000 -0.327327 0.000000 0.944911 110 185 124 255
-0.779423 0.450000 0.030000 -0.163663 0.283473 0.944911 110 185 124 255
0.779423 0.450000 0.030000 0.163663 0.283473 0.944911 110 185 124 255
0.779423 -0.450000 0.030000 0.327327 0.000000 0.944911 110 185 124 255
0.779423 -0.450000 0.030000 0.163663 -0.283473 0.944911 110 185 124 255
0.000000 -1.000000 0.000000 0.000000 0.000000 -1.000000 110 185 124 255
-0.866025 0.500000 0.000000 0.000000 0.000000 -1.000000 110 185 124 255
0.866025 0.500000 0.000000 0.000000 0.000000 -1.000000 110 185 124 255
-0.779423 -0.450000 0.030000 0.000000 0.000000 1.000000 110 185 124 255
0.000000 -0.900000 0.030000 0.000000 0.000000 1.000000 110 185 124 255
0.779423 -0.450000 0.030000 0.000000 0.000000 1.000000 110 185 124 255
0.439086 -0.253507 0.030000 0.480285 -0.831877 -0.278041 185 168 82 255
0.000000 -0.583916 0.260088 0.480285 -0.831877 -0.278041 185 168 82 255
0.000000 -0.507013 0.030000 0.480285 -0.831877 -0.278041 185 168 82 255
-0.505687 -0.291958 0.260088 -0.683545 0.000000 0.729909 185 168 82 255
-0.296313 0.171076 0.456163 -0.683545 0.000000 0.729909 185 168 82 255
-0.505687 0.291958 0.260088 -0.683545 0.000000 0.729909 185 168 82 255
0.000000 0.507013 0.030000 0.480285 0.831877 -0.278041 185 168 82 255
0.505687 0.291958 0.260088 0.480285 0.831877 -0.278041 185 168 82 255
0.439086 0.253507 0.030000 0.480285 0.831877 -0.278041 185 168 82 255
-0.439086 -0.253507 0.030000 -0.960569 0.000000 -0.278041 185 168 82 255
-0.505687 0.291958 0.260088 -0.960569 0.000000 -0.278041 185 168 82 255
-0.439086 0.253507 0.030000 -0.960569 0.000000 -0.278041 185 168 82 255
0.439086 0.253507 0.030000 0.960569 0.000000 -0.278041 185 168 82 255
0.505687 -0.291958 0.260088 0.960569 0.000000 -0.278041 185 168 82 255
0.439086 -0.253507 0.030000 0.960569 0.000000 -0.278041 185 168 82 255
-0.439086 0.253507 0.030000 -0.480285 0.831877 -0.278041 185 168 82 255
0.000000 0.583916 0.260088 -0.480285 0.831877 -0.278041 185 168 82 255
0.000000 0.507013 0.030000 -0.480285 0.831877 -0.278041 185 168 82 255
0.000000 -0.507013 0.030000 -0.480285 -0.831877 -0.278041 185 168 82 255
-0.505687 -0.291958 0.260088 -0.480285 -0.831877 -0.278041 185 168 82 255
-0.439086 -0.253507 0.030000 -0.480285 -0.831877 -0.278041 185 168 82 255
0.000000 -0.342152 0.456163 -0.500000 -0.866026 0.000000 185 168 82 255
-0.296313 -0.171076 0.761030 -0.500000 -0.866026 0.000000 185 168 82 255
-0.296313 -0.171076 0.456163 -0.500000 -0.866025 0.000000 185 168 82 255
0.505687 -0.291958 0.260088 0.683545 0.000000 0.729909 185 168 82 255
0.296313 0.171076 0.456163 0.683545 0.000000 0.729909 185 168 82 255
0.296313 -0.171076 0.456163 0.683545 0.000000 0.729909 185 168 82 255
-0.505687 0.291958 0.260088 -0.341772 0.591967 0.729909 185 168 82 255
0.000000 0.342152 0.456163 -0.341772 0.591967 0.729909 185 168 82 255
0.000000 0.583916 0.260088 -0.341772 0.591967 0.729909 185 168 82 255
0.000000 -0.583916 0.260088 -0.341772 -0.591967 0.729909 185 168 82 255
-0.296313 -0.171076 0.456163 -0.341772 -0.591967 0.729909 185 168 82 255
-0.505687 -0.291958 0.260088 -0.341772 -0.591967 0.729909 185 168 82 255
0.505687 -0.291958 0.260088 0.341772 -0.591967 0.729909 185 168 82 255
0.000000 -0.342152 0.456163 0.341772 -0.591967 0.729909 185 168 82 255
0.000000 -0.583916 0.260088 0.341772 -0.591967 0.729909 185 168 82 255
0.000000 0.583916 0.260088 0.341772 0.591967 0.729909 185 168 82 255
0.296313 0.171076 0.456163 0.341772 0.591967 0.729909 185 168 82 255
0.505687 0.291958 0.260088 0.341772 0.591967 0.729909 185 168 82 255
0.296313 0.171076 0.761030 0.896021 0.000000 -0.444012 185 168 82 255
0.365780 -0.211183 0.901216 0.896021 0.000000 -0.444011 185 168 82 255
0.296313 -0.171076 0.761030 0.896021 0.000000 -0.444011 185 168 82 255
0.296313 -0.171076 0.456163 0.500000 -0.866026 0.000000 185 168 82 255
0.000000 -0.342152 0.761030 0.500000 -0.866026 0.000000 185 168 82 255
0.000000 -0.342152 0.456163 0.500000 -0.866025 0.000000 185 168 82 255
0.000000 0.342152 0.456163 0.500000 0.866025 0.000000 185 168 82 255
0.296313 0.171076 0.761030 0.500000 0.866025 0.000000 185 168 82 255
0.296313 0.171076 0.456163 0.500000 0.866025 0.000000 185 168 82 255
-0.296313 -0.171076 0.456163 -1.000000 0.000000 0.000000 185 168 82 255
-0.296313 0.171076 0.761030 -1.000000 0.000000 0.000000 185 168 82 255
-0.296313 0.171076 0.456163 -1.000000 0.000000 0.000000 185 168 82 255
0.296313 0.171076 0.456163 1.000000 0.000000 0.000000 185 168 82 255
0.296313 -0.171076 0.761030 1.000000 0.000000 0.000000 185 168 82 255
0.296313 -0.171076 0.456163 1.000000 0.000000 0.000000 185 168 82 255
-0.296313 0.171076 0.456163 -0.500000 0.866025 0.000000 185 168 82 255
0.000000 0.342152 0.761030 -0.500000 0.866025 0.000000 185 168 82 255
0.000000 0.342152 0.456163 -0.500000 0.866025 0.000000 185 168 82 255
0.000000 -0.422366 0.901216 0.330267 -0.572039 0.750797 185 168 82 255
0.123413 -0.071253 1.114444 0.330267 -0.572039 0.750797 185 168 82 255
0.000000 -0.142505 1.114444 0.330267 -0.572039 0.750797 185 168 82 255
-0.296313 0.171076 0.761030 -0.448011 0.775977 -0.444011 185 168 82 255
0.000000 0.422366 0.901216 -0.448011 0.775977 -0.444011 185 168 82 255
0.000000 0.342152 0.761030 -0.448011 0.775977 -0.444011 185 168 82 255
-0.296313 -0.171076 0.761030 -0.448011 -0.775977 -0.444011 185 168 82 255
0.000000 -0.422366 0.901216 -0.448010 -0.775977 -0.444011 185 168 82 255
-0.365780 -0.211183 0.901216 -0.448011 -0.775977 -0.444011 185 168 82 255
0.296313 -0.171076 0.761030 0.448011 -0.775977 -0.444011 185 168 82 255
0.000000 -0.422366 0.901216 0.448011 -0.775977 -0.444011 185 168 82 255
0.000000 -0.342152 0.761030 0.448010 -0.775977 -0.444011 185 168 82 255
0.296313 0.171076 0.761030 0.448011 0.775977 -0.444011 185 168 82 255
0.000000 0.422366 0.901216 0.448011 0.775977 -0.444011 185 168 82 255
0.365780 0.211183 0.901216 0.448011 0.775977 -0.444011 185 168 82 255
-0.296313 -0.171076 0.761030 -0.896021 0.000000 -0.444012 185 168 82 255
-0.365780 0.211183 0.901216 -0.896021 0.000000 -0.444011 185 168 82 255
-0.296313 0.171076 0.761030 -0.896021 0.000000 -0.444011 185 168 82 255
0.123413 -0.071253 1.114444 0.908473 -0.005188 0.417912 185 168 82 255
0.017897 -0.005877 1.344631 0.904483 -0.036414 0.424952 185 168 82 255
0.015697 -0.044597 1.344631 0.902252 -0.051276 0.428150 185 168 82 255
0.000000 0.422366 0.901216 0.330267 0.572039 0.750797 185 168 82 255
0.123413 0.071253 1.114444 0.330267 0.572039 0.750797 185 168 82 255
0.365780 0.211183 0.901216 0.330267 0.572039 0.750797 185 168 82 255
-0.365780 -0.211183 0.901216 -0.660533 0.000000 0.750797 185 168 82 255
-0.123413 0.071253 1.114444 -0.660533 0.000000 0.750797 185 168 82 255
-0.365780 0.211183 0.901216 -0.660533 0.000000 0.750797 185 168 82 255
0.365780 0.211183 0.901216 0.660533 0.000000 0.750797 185 168 82 255
0.123413 -0.071253 1.114444 0.660533 0.000000 0.750797 185 168 82 255
0.365780 -0.211183 0.901216 0.660533 0.000000 0.750797 185 168 82 255
0.000000 0.422366 0.901216 -0.330267 0.572039 0.750797 185 168 82 255
-0.123413 0.071253 1.114444 -0.330267 0.572039 0.750797 185 168 82 255
0.000000 0.142505 1.114444 -0.330267 0.572039 0.750797 185 168 82 255
0.000000 -0.422366 0.901216 -0.330267 -0.572039 0.750797 185 168 82 255
-0.123413 -0.071253 1.114444 -0.330267 -0.572039 0.750797 185 168 82 255
-0.365780 -0.211183 0.901216 -0.330267 -0.572039 0.750797 185 168 82 255
-0.123413 0.071253 1.114444 -0.454328 0.789144 0.413326 185 168 82 255
-0.014511 0.015388 1.340811 -0.449158 0.792909 0.411768 185 168 82 255
0.000000 0.142505 1.114444 -0.455230 0.788482 0.413597 185 168 82 255
-0.123413 -0.071253 1.114444 -0.490624 -0.831586 0.260294 185 168 82 255
-0.018912 -0.062052 1.340811 -0.527103 -0.803732 0.276003 185 168 82 255
-0.051320 -0.040788 1.336990 -0.549070 -0.785536 0.285404 185 168 82 255
0.000000 -0.142505 1.114444 0.466021 -0.825185 0.319210 185 168 82 255
0.015697 -0.044597 1.344631 0.419649 -0.845224 0.330895 185 168 82 255
-0.018912 -0.062052 1.340811 0.394109 -0.855111 0.336843 185 168 82 255
0.123413 0.071253 1.114444 0.444321 0.768519 0.460388 185 168 82 255
-0.014511 0.015388 1.340811 0.446736 0.766529 0.461368 185 168 82 255
0.017897 -0.005877 1.344631 0.447881 0.765581 0.461832 185 168 82 255
-0.123413 -0.071253 1.114444 -0.949074 0.005912 0.314998 185 168 82 255
-0.049120 -0.002068 1.336990 -0.951285 0.036932 0.306093 185 168 82 255
-0.123413 0.071253 1.114444 -0.948540 0.000000 0.316657 185 168 82 255
-0.018912 -0.062052 1.340811 0.401499 -0.527147 -0.748942 185 168 82 255
-0.076356 -0.188516 1.399027 0.726333 -0.530898 -0.436563 185 168 82 255
-0.087069 -0.174849 1.357776 0.768626 -0.520397 -0.372022 185 168 82 255
0.017897 -0.005877 1.344631 0.147091 0.385506 0.910906 185 168 82 255
-0.128781 -0.157301 1.432401 0.154290 0.379342 0.912301 185 168 82 255
-0.097212 -0.179741 1.436339 0.155240 0.378525 0.912480 185 168 82 255
-0.051320 -0.040788 1.336990 -0.580960 0.071084 -0.810822 185 168 82 255
-0.139494 -0.143634 1.391151 -0.749844 0.345838 -0.564030 185 168 82 255
-0.049120 -0.002068 1.336990 -0.549327 0.031219 -0.835024 185 168 82 255
0.015697 -0.044597 1.344631 0.671586 -0.059948 0.738497 185 168 82 255
-0.097212 -0.179741 1.436339 0.786660 -0.285903 0.547197 185 168 82 255
-0.076356 -0.188516 1.399027 0.795771 -0.313050 0.518410 185 168 82 255
-0.049120 -0.002068 1.336990 -0.417082 0.621585 0.663079 185 168 82 255
-0.128781 -0.157301 1.432401 -0.674761 0.605570 0.421880 185 168 82 255
-0.014511 0.015388 1.340811 -0.387554 0.618836 0.683260 185 168 82 255
-0.018912 -0.062052 1.340811 0.013156 -0.156901 -0.987527 185 168 82 255
-0.118638 -0.152409 1.353838 0.012499 -0.156194 -0.987647 185 168 82 255
-0.051320 -0.040788 1.336990 0.013339 -0.157099 -0.987493 185 168 82 255
-0.128781 -0.157301 1.432401 -0.947488 0.141984 0.286544 185 168 82 255
-0.276383 -0.394578 1.061911 -0.942167 0.264279 0.206101 185 168 82 255
-0.279797 -0.413392 1.071131 -0.941415 0.269923 0.202187 185 168 82 255
-0.087069 -0.174849 1.357776 0.484679 0.566316 -0.666613 185 168 82 255
-0.260266 -0.386272 1.052237 0.462194 0.584778 -0.666642 185 168 82 255
-0.118638 -0.152409 1.353838 0.485334 0.565766 -0.666603 185 168 82 255
-0.076356 -0.188516 1.399027 0.920314 -0.234435 -0.313149 185 168 82 255
-0.247563 -0.396780 1.051781 0.915133 -0.296077 -0.273624 185 168 82 255
-0.087069 -0.174849 1.357776 0.920468 -0.230685 -0.315474 185 168 82 255
-0.097212 -0.179741 1.436339 -0.500152 -0.594009 0.630080 185 168 82 255
-0.279797 -0.413392 1.071131 -0.482261 -0.608371 0.630324 185 168 82 255
-0.267095 -0.423900 1.070676 -0.481311 -0.609120 0.630328 185 168 82 255
-0.139494 -0.143634 1.391151 -0.429756 0.799658 -0.419353 185 168 82 255
-0.260266 -0.386272 1.052237 -0.573510 0.748977 -0.331842 185 168 82 255
-0.276383 -0.394578 1.061911 -0.580561 0.745681 -0.326970 185 168 82 255
-0.097212 -0.179741 1.436339 0.356377 -0.849935 0.388079 185 168 82 255
-0.250978 -0.415594 1.061001 0.553145 -0.788505 0.268868 185 168 82 255
-0.076356 -0.188516 1.399027 0.345787 -0.851780 0.393577 185 168 82 255
-0.276383 -0.394578 1.061911 -0.333423 -0.365374 -0.869098 185 168 82 255
-0.250978 -0.415594 1.061001 -0.333423 -0.365373 -0.869098 185 168 82 255
-0.279797 -0.413392 1.071131 -0.333426 -0.365374 -0.869096 185 168 82 255
0.505687 -0.291958 0.260088 0.480285 -0.831877 -0.278041 185 168 82 255
-0.296313 -0.171076 0.456163 -0.683545 0.000000 0.729909 185 168 82 255
0.000000 0.583916 0.260088 0.480285 0.831877 -0.278041 185 168 82 255
-0.505687 -0.291958 0.260088 -0.960569 0.000000 -0.278041 185 168 82 255
0.505687 0.291958 0.260088 0.960569 0.000000 -0.278041 185 168 82 255
-0.505687 0.291958 0.260088 -0.480285 0.831877 -0.278041 185 168 82 255
0.000000 -0.583916 0.260088 -0.480285 -0.831877 -0.278041 185 168 82 255
0.000000 -0.342152 0.761030 -0.500000 -0.866025 0.000000 185 168 82 255
0.505687 0.291958 0.260088 0.683545 0.000000 0.729909 185 168 82 255
-0.296313 0.171076 0.456163 -0.341772 0.591967 0.729909 185 168 82 255
0.000000 -0.342152 0.456163 -0.341772 -0.591967 0.729909 185 168 82 255
0.296313 -0.171076 0.456163 0.341772 -0.591967 0.729909 185 168 82 255
0.000000 0.342152 0.456163 0.341772 0.591967 0.729909 185 168 82 255
0.365780 0.211183 0.901216 0.896021 0.000000 -0.444011 185 168 82 255
0.296313 -0.171076 0.761030 0.500000 -0.866025 0.000000 185 168 82 255
0.000000 0.342152 0.761030 0.500000 0.866025 0.000000 185 168 82 255
-0.296313 -0.171076 0.761030 -1.000000 0.000000 0.000000 185 168 82 255
0.296313 0.171076 0.761030 1.000000 0.000000 0.000000 185 168 82 255
-0.296313 0.171076 0.761030 -0.500000 0.866025 0.000000 185 168 82 255
0.365780 -0.211183 0.901216 0.330267 -0.572039 0.750797 185 168 82 255
-0.365780 0.211183 0.901216 -0.448011 0.775977 -0.444011 185 168 82 255
0.000000 -0.342152 0.761030 -0.448011 -0.775977 -0.444011 185 168 82 255
0.365780 -0.211183 0.901216 0.448011 -0.775977 -0.444011 185 168 82 255
0.000000 0.342152 0.761030 0.448011 0.775977 -0.444011 185 168 82 255
-0.365780 -0.211183 0.901216 -0.896021 0.000000 -0.444011 185 168 82 255
0.123413 0.071253 1.114444 0.909044 0.000000 0.416700 185 168 82 255
0.000000 0.142505 1.114444 0.330267 0.572039 0.750797 185 168 82 255
-0.123413 -0.071253 1.114444 -0.660533 0.000000 0.750797 185 168 82 255
0.123413 0.071253 1.114444 0.660533 0.000000 0.750797 185 168 82 255
-0.365780 0.211183 0.901216 -0.330267 0.572039 0.750797 185 168 82 255
0.000000 -0.142505 1.114444 -0.330267 -0.572039 0.750797 185 168 82 255
-0.049120 -0.002068 1.336990 -0.446318 0.794956 0.410907 185 168 82 255
0.000000 -0.142505 1.114444 -0.483195 -0.836918 0.257082 185 168 82 255
0.123413 -0.071253 1.114444 0.474209 -0.821354 0.317022 185 168 82 255
0.000000 0.142505 1.114444 0.443903 0.768863 0.460218 185 168 82 255
-0.051320 -0.040788 1.336990 -0.952082 0.054108 0.301019 185 168 82 255
0.015697 -0.044597 1.344631 0.347441 -0.517727 -0.781820 185 168 82 255
-0.014511 0.015388 1.340811 0.146120 0.386334 0.910711 185 168 82 255
-0.118638 -0.152409 1.353838 -0.764958 0.383203 -0.517682 185 168 82 255
0.017897 -0.005877 1.344631 0.656558 -0.037313 0.753352 185 168 82 255
-0.139494 -0.143634 1.391151 -0.706243 0.596653 0.381086 185 168 82 255
-0.087069 -0.174849 1.357776 0.012320 -0.156001 -0.987680 185 168 82 255
-0.139494 -0.143634 1.391151 -0.947192 0.135189 0.290778 185 168 82 255
-0.247563 -0.396780 1.051781 0.460801 0.585895 -0.666625 185 168 82 255
-0.250978 -0.415594 1.061001 0.914746 -0.299104 -0.271618 185 168 82 255
-0.128781 -0.157301 1.432401 -0.500599 -0.593644 0.630070 185 168 82 255
-0.118638 -0.152409 1.353838 -0.421158 0.801804 -0.423953 185 168 82 255
-0.267095 -0.423900 1.070676 0.561917 -0.784378 0.262681 185 168 82 255
-0.260266 -0.386272 1.052237 -0.333420 -0.365369 -0.869101 185 168 82 255
-0.247563 -0.396780 1.051781 -0.333420 -0.365371 -0.869100 185 168 82 255
-0.267095 -0.423900 1.070676 -0.333426 -0.365366 -0.869100 185 168 82 255
0.000000 -0.750000 0.060000 -0.500000 -0.866025 0.000000 245 237 142 255
-0.649519 -0.375000 0.030000 -0.500000 -0.866025 0.000000 245 237 142 255
0.000000 -0.750000 0.030000 -0.500000 -0.866025 0.000000 245 237 142 255
-0.649519 -0.375000 0.060000 -1.000000 0.000000 0.000000 245 237 142 255
-0.649519 0.375000 0.030000 -1.000000 0.000000 0.000000 245 237 142 255
-0.649519 -0.375000 0.030000 -1.000000 0.000000 0.000000 245 237 142 255
-0.649519 0.375000 0.060000 -0.500000 0.866025 0.000000 245 237 142 255
0.000000 0.750000 0.030000 -0.500000 0.866025 0.000000 245 237 142 255
-0.649519 0.375000 0.030000 -0.500000 0.866025 0.000000 245 237 142 255
0.000000 0.750000 0.060000 0.500000 0.866025 0.000000 245 237 142 255
0.649519 0.375000 0.030000 0.500000 0.866025 0.000000 245 237 142 255
0.000000 0.750000 0.030000 0.500000 0.866025 0.000000 245 237 142 255
0.000000 -0.750000 0.060000 0.000000 0.000000 1.000000 245 237 142 255
0.649519 0.375000 0.060000 0.000000 0.000000 1.000000 245 237 142 255
-0.649519 0.375000 0.060000 0.000000 0.000000 1.000000 245 237 142 255
0.649519 0.375000 0.060000 1.000000 0.000000 0.000000 245 237 142 255
0.649519 -0.375000 0.030000 1.000000 0.000000 0.000000 245 237 142 255
0.649519 0.375000 0.030000 1.000000 0.000000 0.000000 245 237 142 255
0.649519 -0.375000 0.060000 0.500000 -0.866025 0.000000 245 237 142 255
0.000000 -0.750000 0.030000 0.500000 -0.866025 0.000000 245 237 142 255
0.649519 -0.375000 0.030000 0.500000 -0.866025 0.000000 245 237 142 255
-0.649519 -0.375000 0.030000 0.000000 0.000000 -1.000000 245 237 142 255
0.000000 0.750000 0.030000 0.000000 0.000000 -1.000000 245 237 142 255
0.649519 -0.375000 0.030000 0.000000 0.000000 -1.000000 245 237 142 255
-0.649519 -0.375000 0.060000 -0.500000 -0.866025 0.000000 245 237 142 255
-0.649519 0.375000 0.060000 -1.000000 0.000000 0.000000 245 237 142 255
0.000000 0.750000 0.060000 -0.500000 0.866025 0.000000 245 237 142 255
0.649519 0.375000 0.060000 0.500000 0.866025 0.000000 245 237 142 255
-0.649519 -0.375000 0.060000 0.000000 0.000000 1.000000 245 237 142 255
0.649519 -0.375000 0.060000 0.000000 0.000000 1.000000 245 237 142 255
0.000000 0.750000 0.060000 0.000000 0.000000 1.000000 245 237 142 255
0.649519 -0.375000 0.060000 1.000000 0.000000 0.000000 245 237 142 255
0.000000 -0.750000 0.060000 0.500000 -0.866025 0.000000 245 237 142 255
0.000000 -0.750000 0.030000 0.000000 0.000000 -1.000000 245 237 142 255
-0.649519 0.375000 0.030000 0.000000 0.000000 -1.000000 245 237 142 255
0.649519 0.375000 0.030000 0.000000 0.000000 -1.000000 245 237 142 255
3 0 1 2
3 3 4 5
3 6 7 8
3 9 10 11
3 12 13 14
3 15 16 17
3 18 19 20
3 21 22 23
3 0 24 1
3 3 25 4
3 6 26 7
3 9 27 10
3 12 28 13
3 15 29 16
3 20 30 18
3 18 31 19
3 19 32 20
3 23 33 21
3 33 34 21
3 34 35 21
3 36 37 38
3 39 40 41
3 42 43 44
3 45 46 47
3 48 49 50
3 51 52 53
3 54 55 56
3 57 58 59
3 60 61 62
3 63 64 65
3 66 67 68
3 69 70 71
3 72 73 74
3 75 76 77
3 78 79 80
3 81 82 83
3 84 85 86
3 87 88 89
3 90 91 92
3 93 94 95
3 96 97 98
3 99 100 101
3 102 103 104
3 105 106 107
3 108 109 110
3 111 112 113
3 114 115 116
3 117 118 119
3 120 121 122
3 123 124 125
3 126 127 128
3 129 130 131
3 132 133 134
3 135 136 137
3 138 139 140
3 141 142 143
3 144 145 146
3 147 148 149
3 150 151 152
3 153 154 155
3 156 157 158
3 159 160 161
3 162 163 164
3 165 166 167
3 168 169 170
3 171 172 173
3 174 175 176
3 177 178 179
3 180 181 182
3 36 183 37
3 39 184 40
3 42 185 43
3 45 186 46
3 48 187 49
3 51 188 52
3 54 189 55
3 57 190 58
3 60 191 61
3 63 192 64
3 66 193 67
3 69 194 70
3 72 195 73
3 75 196 76
3 78 197 79
3 81 198 82
3 84 199 85
3 87 200 88
3 90 201 91
3 93 202 94
3 96 203 97
3 99 204 100
3 102 205 103
3 105 206 106
3 108 207 109
3 111 208 112
3 114 209 115
3 117 210 118
3 120 211 121
3 123 212 124
3 126 213 127
3 129 214 130
3 132 215 133
3 135 216 136
3 138 217 139
3 141 218 142
3 144 219 145
3 147 220 148
3 150 221 151
3 153 222 154
3 156 223 157
3 159 224 160
3 162 225 163
3 165 226 166
3 168 227 169
3 171 228 172
3 174 229 175
3 177 230 178
3 180 231 232
3 232 181 180
3 181 233 182
3 234 235 236
3 237 238 239
3 240 241 242
3 243 244 245
3 246 247 248
3 249 250 251
3 252 253 254
3 255 256 257
3 234 258 235
3 237 259 238
3 240 260 241
3 243 261 244
3 248 262 246
3 246 263 247
3 247 264 248
3 249 265 250
3 252 266 253
3 257 267 255
3 255 268 256
3 256 269 257
