ply
format ascii 1.0
comment Created by Blender 3.5.0 - www.blender.org
element vertex 54
property float x
property float y
property float z
property float nx
property float ny
property float nz
property uchar red
property uchar green
property uchar blue
property uchar alpha
element face 40
property list uchar uint vertex_indices
end_header
0.000000 -0.750000 0.060000 -0.500000 -0.866025 0.000000 42 42 42 255
-0.649519 -0.375000 0.030000 -0.500000 -0.866025 0.000000 7 7 7 255
0.000000 -0.750000 0.030000 -0.500000 -0.866025 0.000000 44 44 44 255
-0.649519 -0.375000 0.060000 -1.000000 0.000000 0.000000 6 6 6 255
-0.649519 0.375000 0.030000 -1.000000 0.000000 0.000000 40 40 40 255
-0.649519 -0.375000 0.030000 -1.000000 0.000000 0.000000 7 7 7 255
-0.649519 0.375000 0.060000 -0.500000 0.866025 0.000000 39 39 39 255
0.000000 0.750000 0.030000 -0.500000 0.866025 0.000000 7 7 7 255
-0.649519 0.375000 0.030000 -0.500000 0.866025 0.000000 40 40 40 255
0.000000 0.750000 0.060000 0.500000 0.866025 0.000000 6 6 6 255
0.649519 0.375000 0.030000 0.500000 0.866025 0.000000 8 8 8 255
0.000000 0.750000 0.030000 0.500000 0.866025 0.000000 7 7 7 255
0.000000 -0.750000 0.060000 0.000000 0.000000 1.000000 42 42 42 255
0.649519 0.375000 0.060000 0.000000 0.000000 1.000000 7 7 7 255
-0.649519 0.375000 0.060000 0.000000 0.000000 1.000000 39 39 39 255
0.649519 0.375000 0.060000 1.000000 0.000000 0.000000 7 7 7 255
0.649519 -0.375000 0.030000 1.000000 0.000000 0.000000 33 33 33 255
0.649519 0.375000 0.030000 1.000000 0.000000 0.000000 8 8 8 255
0.649519 -0.375000 0.060000 0.500000 -0.866025 0.000000 31 31 31 255
0.000000 -0.750000 0.030000 0.500000 -0.866025 0.000000 44 44 44 255
0.649519 -0.375000 0.030000 0.500000 -0.866025 0.000000 33 33 33 255
-0.649519 -0.375000 0.030000 0.000000 0.000000 -1.000000 7 7 7 255
0.000000 0.750000 0.030000 0.000000 0.000000 -1.000000 7 7 7 255
0.649519 -0.375000 0.030000 0.000000 0.000000 -1.000000 33 33 33 255
-0.649519 -0.375000 0.060000 -0.500000 -0.866025 0.000000 6 6 6 255
-0.649519 0.375000 0.060000 -1.000000 0.000000 0.000000 39 39 39 255
0.000000 0.750000 0.060000 -0.500000 0.866025 0.000000 6 6 6 255
0.649519 0.375000 0.060000 0.500000 0.866025 0.000000 7 7 7 255
-0.649519 -0.375000 0.060000 0.000000 0.000000 1.000000 6 6 6 255
0.649519 -0.375000 0.060000 0.000000 0.000000 1.000000 31 31 31 255
0.000000 0.750000 0.060000 0.000000 0.000000 1.000000 6 6 6 255
0.649519 -0.375000 0.060000 1.000000 0.000000 0.000000 31 31 31 255
0.000000 -0.750000 0.060000 0.500000 -0.866025 0.000000 42 42 42 255
0.000000 -0.750000 0.030000 0.000000 0.000000 -1.000000 44 44 44 255
-0.649519 0.375000 0.030000 0.000000 0.000000 -1.000000 40 40 40 255
0.649519 0.375000 0.030000 0.000000 0.000000 -1.000000 8 8 8 255
0.000000 -0.900000 0.030000 0.000000 -0.191771 0.981440 78 78 78 255
-0.866025 -0.500000 0.000000 -0.248851 -0.143674 0.957826 81 80 82 255
0.000000 -1.000000 0.000000 0.000000 -0.287348 0.957826 78 78 78 255
-0.779423 -0.450000 0.030000 -0.166079 -0.095885 0.981440 80 80 80 255
-0.866025 0.500000 0.000000 -0.248851 0.143674 0.957826 80 80 81 255
0.000000 0.900000 0.030000 -0.000000 0.191771 0.981440 78 78 78 255
0.000000 1.000000 0.000000 -0.000000 0.287348 0.957826 79 79 79 255
0.866025 0.500000 0.000000 0.248851 0.143674 0.957826 78 78 78 255
0.779423 0.450000 0.030000 0.166079 0.095885 0.981440 78 78 78 255
-0.779423 0.450000 0.030000 -0.166079 0.095885 0.981440 80 79 80 255
0.866025 -0.500000 0.000000 0.248851 -0.143674 0.957826 81 81 82 255
-0.866025 -0.500000 0.000000 0.000000 0.000000 -1.000000 81 80 82 255
0.000000 1.000000 0.000000 0.000000 0.000000 -1.000000 79 79 79 255
0.866025 -0.500000 0.000000 0.000000 0.000000 -1.000000 81 81 82 255
0.779423 -0.450000 0.030000 0.166079 -0.095885 0.981440 80 80 80 255
0.000000 -1.000000 0.000000 0.000000 0.000000 -1.000000 78 78 78 255
-0.866025 0.500000 0.000000 0.000000 0.000000 -1.000000 80 80 81 255
0.866025 0.500000 0.000000 0.000000 0.000000 -1.000000 78 78 78 255
3 0 1 2
3 3 4 5
3 6 7 8
3 9 10 11
3 12 13 14
3 15 16 17
3 18 19 20
3 21 22 23
3 0 24 1
3 3 25 4
3 6 26 7
3 9 27 10
3 14 28 12
3 12 29 13
3 13 30 14
3 15 31 16
3 18 32 19
3 23 33 21
3 21 34 22
3 22 35 23
3 36 37 38
3 39 40 37
3 40 41 42
3 41 43 42
3 44 41 45
3 44 46 43
3 46 36 38
3 47 48 49
3 36 39 37
3 39 45 40
3 40 45 41
3 41 44 43
3 45 39 44
3 39 36 44
3 36 50 44
3 44 50 46
3 46 50 36
3 49 51 47
3 47 52 48
3 48 53 49
