ply
format ascii 1.0
comment Created by Blender 3.6.0 - www.blender.org
element vertex 498
property float x
property float y
property float z
property float nx
property float ny
property float nz
property uchar red
property uchar green
property uchar blue
property uchar alpha
element face 166
property list uchar uint vertex_indices
end_header
0.153020 -0.372565 0.128015 0.000000 -0.990422 -0.138072 255 146 152 255
-0.205803 -0.356461 0.012500 0.000000 -0.990422 -0.138072 255 146 152 255
0.205803 -0.356461 0.012500 0.000000 -0.990422 -0.138072 255 146 152 255
0.330419 0.000662 0.955645 0.789169 0.021924 0.613785 255 146 152 255
0.360234 -0.045796 0.918971 0.789169 0.021924 0.613785 255 146 152 255
0.357561 0.050425 0.918971 0.789169 0.021924 0.613785 255 146 152 255
-0.153702 0.372527 0.128003 -0.505756 0.855751 0.109096 255 146 152 255
-0.205803 0.356460 0.012500 -0.505756 0.855750 0.109096 255 146 152 255
-0.247109 0.317317 0.128045 -0.505756 0.855751 0.109096 255 146 152 255
-0.272281 -0.354793 0.501588 -0.866025 -0.500000 0.000000 255 146 152 255
-0.443400 -0.058406 0.598269 -0.866025 -0.500000 0.000000 255 146 152 255
-0.443400 -0.058406 0.501588 -0.866025 -0.500000 0.000000 255 146 152 255
-0.245460 -0.319845 0.127994 -0.857796 -0.495249 -0.137533 255 146 152 255
-0.411605 -0.000001 0.012500 -0.857796 -0.495248 -0.137533 255 146 152 255
-0.205803 -0.356461 0.012500 -0.857796 -0.495249 -0.137533 255 146 152 255
-0.359345 -0.047334 0.918971 -0.519562 -0.299548 0.800204 255 146 152 255
-0.165110 -0.286263 0.955645 -0.519562 -0.299548 0.800204 255 146 152 255
-0.330349 0.000342 0.955645 -0.519562 -0.299548 0.800204 255 146 152 255
-0.273989 0.351834 0.501588 -0.866025 0.500000 0.000000 255 146 152 255
-0.441692 0.061364 0.598269 -0.866025 0.500000 0.000000 255 146 152 255
-0.273989 0.351834 0.598269 -0.866025 0.500000 0.000000 255 146 152 255
-0.398360 0.055344 0.128045 -0.857636 0.495156 -0.138857 255 146 152 255
-0.205803 0.356460 0.012500 -0.857636 0.495156 -0.138857 255 146 152 255
-0.411605 -0.000001 0.012500 -0.857636 0.495156 -0.138857 255 146 152 255
-0.222049 0.285137 0.918971 -0.521151 0.301021 0.798616 255 146 152 255
-0.330349 0.000342 0.955645 -0.521151 0.301021 0.798616 255 146 152 255
-0.165398 0.285919 0.955645 -0.521151 0.301021 0.798616 255 146 152 255
0.153703 0.372527 0.128003 0.509957 0.852383 -0.115703 255 146 152 255
0.170483 0.413198 0.501588 0.509957 0.852383 -0.115703 255 146 152 255
0.274484 0.350977 0.501588 0.509957 0.852383 -0.115703 255 146 152 255
-0.170483 0.413198 0.501588 -0.000000 1.000000 0.000000 255 146 152 255
0.170483 0.413198 0.598269 -0.000000 1.000000 0.000000 255 146 152 255
0.170483 0.413198 0.501588 -0.000000 1.000000 0.000000 255 146 152 255
-0.153702 0.372527 0.128003 -0.000000 0.990464 -0.137775 255 146 152 255
0.205803 0.356460 0.012500 -0.000000 0.990464 -0.137775 255 146 152 255
-0.205803 0.356460 0.012500 -0.000000 0.990464 -0.137775 255 146 152 255
0.138165 0.334869 0.918971 0.000180 0.598887 0.800834 255 146 152 255
-0.165398 0.285919 0.955645 0.000180 0.598887 0.800834 255 146 152 255
0.165456 0.285820 0.955645 0.000180 0.598887 0.800834 255 146 152 255
0.274484 0.350977 0.501588 0.866025 0.500000 0.000000 255 146 152 255
0.441198 0.062220 0.598269 0.866025 0.500000 0.000000 255 146 152 255
0.441198 0.062220 0.501588 0.866025 0.500000 0.000000 255 146 152 255
0.397966 0.056124 0.128060 0.857588 0.495129 -0.139252 255 146 152 255
0.205803 0.356460 0.012500 0.857588 0.495128 -0.139252 255 146 152 255
0.247588 0.316586 0.128060 0.857588 0.495129 -0.139252 255 146 152 255
0.222450 0.284443 0.918971 0.523115 0.302021 0.796953 255 146 152 255
0.330419 0.000662 0.955645 0.523115 0.302021 0.796953 255 146 152 255
0.357561 0.050425 0.918971 0.523115 0.302021 0.796953 255 146 152 255
0.271185 -0.356691 0.501588 0.866025 -0.500000 0.000000 255 146 152 255
0.444496 -0.056508 0.598269 0.866025 -0.500000 0.000000 255 146 152 255
0.271185 -0.356691 0.598269 0.866025 -0.500000 0.000000 255 146 152 255
0.244406 -0.321468 0.127963 0.857894 -0.495305 -0.136715 255 146 152 255
0.411605 -0.000001 0.012500 0.857894 -0.495305 -0.136715 255 146 152 255
0.400602 -0.050928 0.127963 0.857894 -0.495305 -0.136715 255 146 152 255
0.360234 -0.045796 0.918971 0.520640 -0.300592 0.799111 255 146 152 255
0.164983 -0.286483 0.955645 0.520640 -0.300592 0.799111 255 146 152 255
0.219777 -0.289074 0.918971 0.520640 -0.300592 0.799111 255 146 152 255
0.169709 -0.413199 0.501588 0.000000 -1.000000 0.000000 255 146 152 255
-0.169709 -0.413199 0.598269 0.000000 -1.000000 0.000000 255 146 152 255
-0.169709 -0.413199 0.501588 0.000000 -1.000000 0.000000 255 146 152 255
-0.137537 -0.334870 0.918971 -0.000402 -0.602446 0.798159 255 146 152 255
0.164983 -0.286483 0.955645 -0.000402 -0.602446 0.798159 255 146 152 255
-0.165110 -0.286263 0.955645 -0.000402 -0.602446 0.798159 255 146 152 255
-0.114118 0.196712 1.013482 0.000456 0.618237 0.785991 255 146 152 255
0.000000 -0.000001 1.168144 0.000456 0.618237 0.785991 255 146 152 255
0.114216 0.196543 1.013482 0.000456 0.618237 0.785991 255 146 152 255
0.114216 0.196543 1.013482 0.533411 0.309482 0.787206 255 146 152 255
0.000000 -0.000001 1.168144 0.533411 0.309482 0.787206 255 146 152 255
0.227598 0.001123 1.013482 0.533411 0.309482 0.787206 255 146 152 255
-0.113630 -0.197294 1.013482 -0.535443 -0.308071 0.786380 255 146 152 255
0.000000 -0.000001 1.168144 -0.535443 -0.308071 0.786380 255 146 152 255
-0.227479 0.000581 1.013482 -0.535443 -0.308071 0.786380 255 146 152 255
0.000000 -0.000001 1.168144 -0.001013 -0.616584 0.787288 255 146 152 255
-0.113630 -0.197294 1.013482 -0.001013 -0.616584 0.787288 255 146 152 255
0.113415 -0.197668 1.013482 -0.001013 -0.616584 0.787288 255 146 152 255
-0.227479 0.000581 1.013482 -0.534234 0.308781 0.786923 255 146 152 255
0.000000 -0.000001 1.168144 -0.534234 0.308781 0.786923 255 146 152 255
-0.114118 0.196712 1.013482 -0.534234 0.308781 0.786923 255 146 152 255
0.227598 0.001123 1.013482 0.535809 -0.307762 0.786252 255 146 152 255
0.000000 -0.000001 1.168144 0.535809 -0.307762 0.786252 255 146 152 255
0.113415 -0.197668 1.013482 0.535809 -0.307762 0.786252 255 146 152 255
0.360234 -0.045796 0.918971 -0.103790 -0.002883 -0.994595 255 146 152 255
0.088253 0.000369 0.947219 -0.103790 -0.002883 -0.994595 255 146 152 255
0.357561 0.050425 0.918971 -0.103790 -0.002883 -0.994595 255 146 152 255
0.222450 0.284443 0.918971 -0.053399 -0.089256 -0.994576 255 146 152 255
0.044262 0.076241 0.947222 -0.053399 -0.089256 -0.994576 255 146 152 255
0.138165 0.334869 0.918971 -0.053399 -0.089256 -0.994576 255 146 152 255
-0.359345 -0.047334 0.918971 -0.791475 0.011289 0.611098 255 146 152 255
-0.330349 0.000342 0.955645 -0.791475 0.011289 0.611098 255 146 152 255
-0.357961 0.049731 0.918971 -0.791475 0.011289 0.611098 255 146 152 255
-0.138165 0.334869 0.918971 -0.493382 0.832211 0.252982 255 146 152 255
-0.273989 0.351834 0.598269 -0.493382 0.832211 0.252982 255 146 152 255
-0.222049 0.285137 0.918971 -0.493382 0.832211 0.252982 255 146 152 255
0.219777 -0.289074 0.918971 0.382015 -0.686021 0.619224 255 146 152 255
0.164983 -0.286483 0.955645 0.382015 -0.686021 0.619224 255 146 152 255
0.137537 -0.334870 0.918971 0.382015 -0.686021 0.619224 255 146 152 255
-0.359345 -0.047334 0.918971 0.094091 0.054323 -0.994080 255 146 152 255
-0.044071 -0.076493 0.947218 0.094091 0.054323 -0.994080 255 146 152 255
-0.220665 -0.287536 0.918971 0.094091 0.054323 -0.994080 255 146 152 255
-0.222049 0.285137 0.918971 0.094126 -0.054343 -0.994076 255 146 152 255
-0.088212 0.000191 0.947220 0.094126 -0.054343 -0.994076 255 146 152 255
-0.357961 0.049731 0.918971 0.094126 -0.054343 -0.994076 255 146 152 255
0.138165 0.334869 0.918971 0.000000 -0.108610 -0.994084 255 146 152 255
-0.044230 0.076297 0.947221 0.000000 -0.108610 -0.994084 255 146 152 255
-0.138165 0.334869 0.918971 0.000000 -0.108610 -0.994084 255 146 152 255
0.222450 0.284443 0.918971 -0.093985 -0.054454 -0.994083 255 146 152 255
0.088253 0.000369 0.947219 -0.093985 -0.054454 -0.994083 255 146 152 255
0.044262 0.076241 0.947222 -0.093985 -0.054454 -0.994083 255 146 152 255
0.360234 -0.045796 0.918971 -0.094064 0.054109 -0.994095 255 146 152 255
0.044002 -0.076618 0.947216 -0.094064 0.054109 -0.994095 255 146 152 255
0.088253 0.000369 0.947219 -0.094064 0.054109 -0.994095 255 146 152 255
-0.137537 -0.334870 0.918971 -0.000000 0.108723 -0.994072 255 146 152 255
0.044002 -0.076618 0.947216 -0.000000 0.108723 -0.994072 255 146 152 255
0.137537 -0.334870 0.918971 -0.000000 0.108723 -0.994072 255 146 152 255
-0.220665 -0.287536 0.918971 0.051341 0.090165 -0.994603 255 146 152 255
-0.044071 -0.076493 0.947218 0.051341 0.090165 -0.994603 255 146 152 255
-0.137537 -0.334870 0.918971 0.051341 0.090165 -0.994603 255 146 152 255
0.044002 -0.076618 0.947216 -0.001382 -0.966010 -0.258500 255 146 152 255
-0.044071 -0.076493 0.947218 -0.001382 -0.966010 -0.258500 255 146 152 255
0.000000 -0.000001 0.661132 -0.001382 -0.966010 -0.258500 255 146 152 255
-0.044230 0.076297 0.947221 0.000620 0.966252 -0.257596 255 146 152 255
0.044262 0.076241 0.947222 0.000620 0.966252 -0.257596 255 146 152 255
0.000000 -0.000001 0.661132 0.000620 0.966252 -0.257596 255 146 152 255
-0.044071 -0.076493 0.947218 -0.837365 -0.481999 -0.257871 255 146 152 255
-0.088212 0.000191 0.947220 -0.837365 -0.481999 -0.257871 255 146 152 255
0.000000 -0.000001 0.661132 -0.837365 -0.481999 -0.257871 255 146 152 255
0.088253 0.000369 0.947219 0.837689 -0.481477 -0.257791 255 146 152 255
0.044002 -0.076618 0.947216 0.837689 -0.481477 -0.257791 255 146 152 255
0.000000 -0.000001 0.661132 0.837689 -0.481477 -0.257791 255 146 152 255
0.044262 0.076241 0.947222 0.835710 0.484565 -0.258429 255 146 152 255
0.088253 0.000369 0.947219 0.835710 0.484565 -0.258429 255 146 152 255
0.000000 -0.000001 0.661132 0.835710 0.484565 -0.258429 255 146 152 255
-0.088212 0.000191 0.947220 -0.836450 0.483389 -0.258235 255 146 152 255
-0.044230 0.076297 0.947221 -0.836451 0.483389 -0.258235 255 146 152 255
0.000000 -0.000001 0.661132 -0.836451 0.483389 -0.258235 255 146 152 255
-0.113630 -0.197294 1.013482 -0.471933 -0.272087 0.838599 255 146 152 255
-0.330349 0.000342 0.955645 -0.471933 -0.272087 0.838599 255 146 152 255
-0.165110 -0.286263 0.955645 -0.471933 -0.272087 0.838599 255 146 152 255
-0.227479 0.000581 1.013482 -0.472002 0.272633 0.838382 255 146 152 255
-0.165398 0.285919 0.955645 -0.472002 0.272633 0.838382 255 146 152 255
-0.330349 0.000342 0.955645 -0.472002 0.272633 0.838382 255 146 152 255
-0.114118 0.196712 1.013482 0.000163 0.544079 0.839034 255 146 152 255
0.165456 0.285820 0.955645 0.000163 0.544079 0.839034 255 146 152 255
-0.165398 0.285919 0.955645 0.000163 0.544079 0.839034 255 146 152 255
0.227598 0.001123 1.013482 0.470861 0.273192 0.838842 255 146 152 255
0.165456 0.285820 0.955645 0.470861 0.273192 0.838842 255 146 152 255
0.114216 0.196543 1.013482 0.470861 0.273192 0.838842 255 146 152 255
0.113415 -0.197668 1.013482 0.471055 -0.270568 0.839584 255 146 152 255
0.330419 0.000662 0.955645 0.471055 -0.270568 0.839584 255 146 152 255
0.227598 0.001123 1.013482 0.471055 -0.270568 0.839584 255 146 152 255
0.113415 -0.197668 1.013482 -0.000364 -0.545848 0.837884 255 146 152 255
-0.165110 -0.286263 0.955645 -0.000364 -0.545848 0.837884 255 146 152 255
0.164983 -0.286483 0.955645 -0.000364 -0.545848 0.837884 255 146 152 255
0.222450 0.284443 0.918971 0.407639 0.681360 0.607931 255 146 152 255
0.138165 0.334869 0.918971 0.407639 0.681360 0.607931 255 146 152 255
0.165456 0.285820 0.955645 0.407639 0.681360 0.607931 255 146 152 255
-0.220665 -0.287536 0.918971 -0.390216 -0.685300 0.614895 255 146 152 255
-0.137537 -0.334870 0.918971 -0.390216 -0.685300 0.614895 255 146 152 255
-0.165110 -0.286263 0.955645 -0.390216 -0.685300 0.614895 255 146 152 255
-0.138165 0.334869 0.918971 -0.404177 0.681745 0.609807 255 146 152 255
-0.222049 0.285137 0.918971 -0.404177 0.681745 0.609807 255 146 152 255
-0.165398 0.285919 0.955645 -0.404177 0.681745 0.609807 255 146 152 255
-0.088212 0.000191 0.947220 0.103887 -0.001482 -0.994588 255 146 152 255
-0.359345 -0.047334 0.918971 0.103887 -0.001482 -0.994588 255 146 152 255
-0.357961 0.049731 0.918971 0.103887 -0.001482 -0.994588 255 146 152 255
-0.441692 0.061364 0.598269 -0.967352 0.013797 0.253062 255 146 152 255
-0.359345 -0.047334 0.918971 -0.967352 0.013797 0.253062 255 146 152 255
-0.357961 0.049731 0.918971 -0.967352 0.013797 0.253062 255 146 152 255
0.044002 -0.076618 0.947216 -0.050409 0.090525 -0.994618 255 146 152 255
0.219777 -0.289074 0.918971 -0.050409 0.090525 -0.994618 255 146 152 255
0.137537 -0.334870 0.918971 -0.050409 0.090525 -0.994618 255 146 152 255
0.169709 -0.413199 0.598269 0.470604 -0.845108 0.253621 255 146 152 255
0.219777 -0.289074 0.918971 0.470604 -0.845108 0.253621 255 146 152 255
0.137537 -0.334870 0.918971 0.470604 -0.845108 0.253621 255 146 152 255
0.441198 0.062220 0.598269 0.967044 0.026865 0.253187 255 146 152 255
0.360234 -0.045796 0.918971 0.967044 0.026865 0.253187 255 146 152 255
0.444496 -0.056508 0.598269 0.967044 0.026865 0.253187 255 146 152 255
0.169709 -0.413199 0.501588 0.484678 -0.866973 -0.115955 255 146 152 255
0.153020 -0.372565 0.128015 0.484678 -0.866973 -0.115955 255 146 152 255
0.244406 -0.321468 0.127963 0.484678 -0.866973 -0.115955 255 146 152 255
0.444496 -0.056508 0.501588 0.992840 0.027582 -0.116227 255 146 152 255
0.400602 -0.050928 0.127963 0.992840 0.027582 -0.116227 255 146 152 255
0.441198 0.062220 0.501588 0.992840 0.027582 -0.116227 255 146 152 255
0.274484 0.350977 0.598269 0.496723 0.830263 0.252843 255 146 152 255
0.138165 0.334869 0.918971 0.496723 0.830263 0.252843 255 146 152 255
0.222450 0.284443 0.918971 0.496723 0.830263 0.252843 255 146 152 255
-0.044230 0.076297 0.947221 0.053006 -0.089408 -0.994584 255 146 152 255
-0.222049 0.285137 0.918971 0.053006 -0.089408 -0.994584 255 146 152 255
-0.138165 0.334869 0.918971 0.053006 -0.089408 -0.994584 255 146 152 255
-0.441692 0.061364 0.501588 -0.993237 0.012600 -0.115422 255 146 152 255
-0.398360 0.055344 0.128045 -0.993237 0.012600 -0.115422 255 146 152 255
-0.399724 -0.052653 0.127994 -0.993237 0.012600 -0.115422 255 146 152 255
-0.169709 -0.413199 0.598269 -0.478674 -0.840648 0.253341 255 146 152 255
-0.220665 -0.287536 0.918971 -0.478674 -0.840648 0.253341 255 146 152 255
-0.272281 -0.354793 0.598269 -0.478674 -0.840648 0.253341 255 146 152 255
-0.245460 -0.319845 0.127994 -0.492698 -0.863879 0.104702 255 146 152 255
-0.205803 -0.356461 0.012500 -0.492698 -0.863879 0.104702 255 146 152 255
-0.153019 -0.372565 0.128015 -0.492698 -0.863879 0.104702 255 146 152 255
0.153020 -0.372565 0.128015 0.000000 -0.990422 -0.138072 255 146 152 255
-0.153019 -0.372565 0.128015 0.000000 -0.990422 -0.138072 255 146 152 255
-0.205803 -0.356461 0.012500 0.000000 -0.990422 -0.138072 255 146 152 255
-0.273989 0.351834 0.501588 -0.509971 0.860192 0.000000 255 146 152 255
-0.273989 0.351834 0.598269 -0.509971 0.860191 0.000000 255 146 152 255
-0.170483 0.413198 0.598269 -0.509971 0.860191 0.000000 255 146 152 255
-0.170483 0.413198 0.598269 -0.509971 0.860192 0.000000 255 146 152 255
-0.170483 0.413198 0.501588 -0.509971 0.860191 0.000000 255 146 152 255
-0.273989 0.351834 0.501588 -0.509971 0.860191 0.000000 255 146 152 255
-0.170483 0.413198 0.501588 -0.506542 0.854408 -0.115770 255 146 152 255
-0.153702 0.372527 0.128003 -0.506542 0.854408 -0.115770 255 146 152 255
-0.273989 0.351834 0.501588 -0.506542 0.854408 -0.115770 255 146 152 255
-0.273989 0.351834 0.501588 -0.505469 0.855095 -0.115387 255 146 152 255
-0.153702 0.372527 0.128003 -0.505469 0.855095 -0.115387 255 146 152 255
-0.247109 0.317317 0.128045 -0.505469 0.855095 -0.115387 255 146 152 255
-0.272281 -0.354793 0.501588 -0.866025 -0.500000 0.000000 255 146 152 255
-0.272281 -0.354793 0.598269 -0.866025 -0.500000 0.000000 255 146 152 255
-0.443400 -0.058406 0.598269 -0.866025 -0.500000 0.000000 255 146 152 255
-0.245460 -0.319845 0.127994 -0.857796 -0.495249 -0.137534 255 146 152 255
-0.399724 -0.052653 0.127994 -0.857796 -0.495249 -0.137534 255 146 152 255
-0.411605 -0.000001 0.012500 -0.857796 -0.495249 -0.137534 255 146 152 255
-0.359345 -0.047334 0.918971 -0.520640 -0.300592 0.799111 255 146 152 255
-0.220665 -0.287536 0.918971 -0.520640 -0.300592 0.799111 255 146 152 255
-0.165110 -0.286263 0.955645 -0.520640 -0.300592 0.799111 255 146 152 255
-0.273989 0.351834 0.501588 -0.866025 0.500000 0.000000 255 146 152 255
-0.441692 0.061364 0.501588 -0.866025 0.500000 0.000000 255 146 152 255
-0.441692 0.061364 0.598269 -0.866025 0.500000 0.000000 255 146 152 255
-0.398360 0.055344 0.128045 -0.857636 0.495156 -0.138857 255 146 152 255
-0.247109 0.317317 0.128045 -0.857636 0.495156 -0.138857 255 146 152 255
-0.205803 0.356460 0.012500 -0.857636 0.495156 -0.138857 255 146 152 255
-0.222049 0.285137 0.918971 -0.521607 0.301150 0.798270 255 146 152 255
-0.357961 0.049731 0.918971 -0.521607 0.301150 0.798270 255 146 152 255
-0.330349 0.000342 0.955645 -0.521607 0.301150 0.798270 255 146 152 255
0.170483 0.413198 0.598269 0.513406 0.858146 0.000000 255 146 152 255
0.274484 0.350977 0.598269 0.513406 0.858146 0.000000 255 146 152 255
0.170483 0.413198 0.501588 0.513406 0.858146 0.000000 255 146 152 255
0.274484 0.350977 0.598269 0.513406 0.858146 0.000000 255 146 152 255
0.274484 0.350977 0.501588 0.513406 0.858146 0.000000 255 146 152 255
0.170483 0.413198 0.501588 0.513406 0.858146 0.000000 255 146 152 255
0.274484 0.350977 0.501588 0.508507 0.853319 -0.115181 255 146 152 255
0.247588 0.316586 0.128060 0.508507 0.853319 -0.115180 255 146 152 255
0.153703 0.372527 0.128003 0.508507 0.853319 -0.115180 255 146 152 255
0.247588 0.316586 0.128060 0.508668 0.853819 0.110679 255 146 152 255
0.205803 0.356460 0.012500 0.508668 0.853819 0.110679 255 146 152 255
0.153703 0.372527 0.128003 0.508668 0.853819 0.110679 255 146 152 255
-0.170483 0.413198 0.501588 -0.000000 1.000000 0.000000 255 146 152 255
-0.170483 0.413198 0.598269 -0.000000 1.000000 0.000000 255 146 152 255
0.170483 0.413198 0.598269 -0.000000 1.000000 0.000000 255 146 152 255
-0.153702 0.372527 0.128003 0.000000 0.990464 -0.137775 255 146 152 255
0.153703 0.372527 0.128003 0.000000 0.990464 -0.137775 255 146 152 255
0.205803 0.356460 0.012500 0.000000 0.990464 -0.137775 255 146 152 255
0.138165 0.334869 0.918971 -0.000000 0.599601 0.800299 255 146 152 255
-0.138165 0.334869 0.918971 -0.000000 0.599601 0.800299 255 146 152 255
-0.165398 0.285919 0.955645 -0.000000 0.599601 0.800299 255 146 152 255
0.274484 0.350977 0.501588 0.866025 0.500000 0.000000 255 146 152 255
0.274484 0.350977 0.598269 0.866025 0.500000 0.000000 255 146 152 255
0.441198 0.062220 0.598269 0.866025 0.500000 0.000000 255 146 152 255
0.397966 0.056124 0.128060 0.857588 0.495129 -0.139252 255 146 152 255
0.411605 -0.000001 0.012500 0.857588 0.495129 -0.139252 255 146 152 255
0.205803 0.356460 0.012500 0.857588 0.495129 -0.139252 255 146 152 255
0.222450 0.284443 0.918971 0.521086 0.301448 0.798498 255 146 152 255
0.165456 0.285820 0.955645 0.521086 0.301448 0.798497 255 146 152 255
0.330419 0.000662 0.955645 0.521086 0.301448 0.798498 255 146 152 255
0.271185 -0.356691 0.501588 0.866025 -0.500000 0.000000 255 146 152 255
0.444496 -0.056508 0.501588 0.866025 -0.500000 0.000000 255 146 152 255
0.444496 -0.056508 0.598269 0.866025 -0.500000 0.000000 255 146 152 255
0.244406 -0.321468 0.127963 0.857894 -0.495305 -0.136715 255 146 152 255
0.205803 -0.356461 0.012500 0.857894 -0.495305 -0.136715 255 146 152 255
0.411605 -0.000001 0.012500 0.857894 -0.495305 -0.136715 255 146 152 255
0.360234 -0.045796 0.918971 0.519022 -0.299030 0.800748 255 146 152 255
0.330419 0.000662 0.955645 0.519022 -0.299030 0.800748 255 146 152 255
0.164983 -0.286483 0.955645 0.519022 -0.299030 0.800748 255 146 152 255
0.169709 -0.413199 0.501588 0.000000 -1.000000 0.000000 255 146 152 255
0.169709 -0.413199 0.598269 0.000000 -1.000000 0.000000 255 146 152 255
-0.169709 -0.413199 0.598269 0.000000 -1.000000 0.000000 255 146 152 255
-0.137537 -0.334870 0.918971 0.000000 -0.604042 0.796952 255 146 152 255
0.137537 -0.334870 0.918971 0.000000 -0.604042 0.796952 255 146 152 255
0.164983 -0.286483 0.955645 0.000000 -0.604042 0.796952 255 146 152 255
-0.138165 0.334869 0.918971 -0.493382 0.832210 0.252982 255 146 152 255
-0.170483 0.413198 0.598269 -0.493382 0.832210 0.252982 255 146 152 255
-0.273989 0.351834 0.598269 -0.493382 0.832210 0.252982 255 146 152 255
-0.359345 -0.047334 0.918971 0.094078 0.054182 -0.994089 255 146 152 255
-0.088212 0.000191 0.947220 0.094078 0.054182 -0.994089 255 146 152 255
-0.044071 -0.076493 0.947218 0.094078 0.054182 -0.994089 255 146 152 255
-0.222049 0.285137 0.918971 0.094085 -0.054363 -0.994079 255 146 152 255
-0.044230 0.076297 0.947221 0.094085 -0.054363 -0.994079 255 146 152 255
-0.088212 0.000191 0.947220 0.094085 -0.054363 -0.994079 255 146 152 255
0.138165 0.334869 0.918971 -0.000058 -0.108569 -0.994089 255 146 152 255
0.044262 0.076241 0.947222 -0.000058 -0.108569 -0.994089 255 146 152 255
-0.044230 0.076297 0.947221 -0.000058 -0.108569 -0.994089 255 146 152 255
0.222450 0.284443 0.918971 -0.094166 -0.054367 -0.994071 255 146 152 255
0.357561 0.050425 0.918971 -0.094166 -0.054367 -0.994071 255 146 152 255
0.088253 0.000369 0.947219 -0.094166 -0.054367 -0.994071 255 146 152 255
0.360234 -0.045796 0.918971 -0.094084 0.054319 -0.994081 255 146 152 255
0.219777 -0.289074 0.918971 -0.094084 0.054319 -0.994081 255 146 152 255
0.044002 -0.076618 0.947216 -0.094084 0.054319 -0.994081 255 146 152 255
-0.137537 -0.334870 0.918971 0.000128 0.108634 -0.994082 255 146 152 255
-0.044071 -0.076493 0.947218 0.000128 0.108634 -0.994082 255 146 152 255
0.044002 -0.076618 0.947216 0.000128 0.108634 -0.994082 255 146 152 255
-0.113630 -0.197294 1.013482 -0.471251 -0.271137 0.839290 255 146 152 255
-0.227479 0.000581 1.013482 -0.471251 -0.271137 0.839290 255 146 152 255
-0.330349 0.000342 0.955645 -0.471250 -0.271137 0.839290 255 146 152 255
-0.227479 0.000581 1.013482 -0.471630 0.272596 0.838604 255 146 152 255
-0.114118 0.196712 1.013482 -0.471630 0.272596 0.838604 255 146 152 255
-0.165398 0.285919 0.955645 -0.471630 0.272596 0.838604 255 146 152 255
-0.114118 0.196712 1.013482 0.000401 0.543554 0.839374 255 146 152 255
0.114216 0.196543 1.013482 0.000401 0.543554 0.839374 255 146 152 255
0.165456 0.285820 0.955645 0.000401 0.543554 0.839374 255 146 152 255
0.227598 0.001123 1.013482 0.472521 0.273353 0.837855 255 146 152 255
0.330419 0.000662 0.955645 0.472521 0.273353 0.837855 255 146 152 255
0.165456 0.285820 0.955645 0.472521 0.273353 0.837856 255 146 152 255
0.113415 -0.197668 1.013482 0.472071 -0.271979 0.838556 255 146 152 255
0.164983 -0.286483 0.955645 0.472071 -0.271979 0.838556 255 146 152 255
0.330419 0.000662 0.955645 0.472071 -0.271979 0.838556 255 146 152 255
0.113415 -0.197668 1.013482 -0.000895 -0.544675 0.838647 255 146 152 255
-0.113630 -0.197294 1.013482 -0.000895 -0.544675 0.838647 255 146 152 255
-0.165110 -0.286263 0.955645 -0.000895 -0.544675 0.838647 255 146 152 255
-0.441692 0.061364 0.598269 -0.967351 0.013798 0.253062 255 146 152 255
-0.443400 -0.058406 0.598269 -0.967351 0.013798 0.253062 255 146 152 255
-0.359345 -0.047334 0.918971 -0.967352 0.013798 0.253062 255 146 152 255
0.169709 -0.413199 0.598269 0.470604 -0.845108 0.253621 255 146 152 255
0.271185 -0.356691 0.598269 0.470604 -0.845108 0.253621 255 146 152 255
0.219777 -0.289074 0.918971 0.470604 -0.845108 0.253621 255 146 152 255
0.441198 0.062220 0.598269 0.967044 0.026866 0.253187 255 146 152 255
0.357561 0.050425 0.918971 0.967044 0.026866 0.253187 255 146 152 255
0.360234 -0.045796 0.918971 0.967044 0.026866 0.253187 255 146 152 255
0.153020 -0.372565 0.128015 0.485578 -0.868360 0.100823 255 146 152 255
0.205803 -0.356461 0.012500 0.485578 -0.868360 0.100823 255 146 152 255
0.244406 -0.321468 0.127963 0.485578 -0.868360 0.100823 255 146 152 255
0.244406 -0.321468 0.127963 0.483202 -0.867732 -0.116437 255 146 152 255
0.271185 -0.356691 0.501588 0.483202 -0.867732 -0.116437 255 146 152 255
0.169709 -0.413199 0.501588 0.483202 -0.867732 -0.116437 255 146 152 255
0.271185 -0.356691 0.501588 0.486511 -0.873674 0.000000 255 146 152 255
0.271185 -0.356691 0.598269 0.486511 -0.873674 0.000000 255 146 152 255
0.169709 -0.413199 0.598269 0.486511 -0.873674 0.000000 255 146 152 255
0.169709 -0.413199 0.501588 0.486511 -0.873674 0.000000 255 146 152 255
0.271185 -0.356691 0.501588 0.486511 -0.873674 0.000000 255 146 152 255
0.169709 -0.413199 0.598269 0.486511 -0.873674 0.000000 255 146 152 255
0.400602 -0.050928 0.127963 0.994121 0.024383 0.105489 255 146 152 255
0.411605 -0.000001 0.012500 0.994121 0.024383 0.105489 255 146 152 255
0.397966 0.056124 0.128060 0.994121 0.024383 0.105489 255 146 152 255
0.397966 0.056124 0.128060 0.993023 0.024558 -0.115331 255 146 152 255
0.441198 0.062220 0.501588 0.993024 0.024558 -0.115331 255 146 152 255
0.400602 -0.050928 0.127963 0.993024 0.024558 -0.115331 255 146 152 255
0.441198 0.062220 0.501588 0.999614 0.027770 0.000000 255 146 152 255
0.441198 0.062220 0.598269 0.999614 0.027770 0.000000 255 146 152 255
0.444496 -0.056508 0.501588 0.999614 0.027770 0.000000 255 146 152 255
0.441198 0.062220 0.598269 0.999614 0.027770 0.000000 255 146 152 255
0.444496 -0.056508 0.598269 0.999614 0.027770 0.000000 255 146 152 255
0.444496 -0.056508 0.501588 0.999614 0.027770 0.000000 255 146 152 255
0.274484 0.350977 0.598269 0.496724 0.830263 0.252843 255 146 152 255
0.170483 0.413198 0.598269 0.496724 0.830263 0.252843 255 146 152 255
0.138165 0.334869 0.918971 0.496724 0.830263 0.252843 255 146 152 255
-0.398360 0.055344 0.128045 -0.994076 0.012505 0.107966 255 146 152 255
-0.411605 -0.000001 0.012500 -0.994076 0.012505 0.107966 255 146 152 255
-0.399724 -0.052653 0.127994 -0.994076 0.012505 0.107966 255 146 152 255
-0.399724 -0.052653 0.127994 -0.993161 0.014166 -0.115891 255 146 152 255
-0.443400 -0.058406 0.501588 -0.993161 0.014166 -0.115891 255 146 152 255
-0.441692 0.061364 0.501588 -0.993161 0.014166 -0.115891 255 146 152 255
-0.443400 -0.058406 0.501588 -0.999898 0.014262 0.000000 255 146 152 255
-0.443400 -0.058406 0.598269 -0.999898 0.014262 0.000000 255 146 152 255
-0.441692 0.061364 0.598269 -0.999898 0.014262 0.000000 255 146 152 255
-0.441692 0.061364 0.501588 -0.999898 0.014262 0.000000 255 146 152 255
-0.443400 -0.058406 0.501588 -0.999898 0.014262 0.000000 255 146 152 255
-0.441692 0.061364 0.598269 -0.999898 0.014262 0.000000 255 146 152 255
-0.169709 -0.413199 0.598269 -0.478673 -0.840648 0.253341 255 146 152 255
-0.137537 -0.334870 0.918971 -0.478673 -0.840648 0.253341 255 146 152 255
-0.220665 -0.287536 0.918971 -0.478673 -0.840648 0.253341 255 146 152 255
-0.153019 -0.372565 0.128015 -0.492048 -0.862827 -0.115834 255 146 152 255
-0.169709 -0.413199 0.501588 -0.492048 -0.862827 -0.115834 255 146 152 255
-0.245460 -0.319845 0.127994 -0.492048 -0.862827 -0.115834 255 146 152 255
-0.169709 -0.413199 0.501588 -0.494816 -0.868998 0.000000 255 146 152 255
-0.169709 -0.413199 0.598269 -0.494816 -0.868998 0.000000 255 146 152 255
-0.272281 -0.354793 0.501588 -0.494816 -0.868998 0.000000 255 146 152 255
-0.169709 -0.413199 0.598269 -0.494816 -0.868998 0.000000 255 146 152 255
-0.272281 -0.354793 0.598269 -0.494816 -0.868998 0.000000 255 146 152 255
-0.272281 -0.354793 0.501588 -0.494816 -0.868998 0.000000 255 146 152 255
-0.272281 -0.354793 0.501588 -0.491474 -0.863129 -0.116025 255 146 152 255
-0.245460 -0.319845 0.127994 -0.491474 -0.863129 -0.116025 255 146 152 255
-0.169709 -0.413199 0.501588 -0.491474 -0.863129 -0.116025 255 146 152 255
0.008660 -0.015000 0.940107 0.232588 -0.972575 0.000000 255 228 251 255
0.000000 -0.017071 -0.000107 0.232588 -0.972575 0.000000 255 228 251 255
0.008660 -0.015000 -0.000107 0.232588 -0.972575 0.000000 255 228 251 255
0.000000 -0.017071 0.940107 -0.232588 -0.972575 0.000000 255 228 251 255
-0.008660 -0.015000 -0.000107 -0.232588 -0.972575 0.000000 255 228 251 255
0.000000 -0.017071 -0.000107 -0.232588 -0.972575 0.000000 255 228 251 255
-0.017321 0.000000 -0.000107 -0.958569 -0.284861 0.000000 255 228 251 255
-0.014784 -0.008536 0.940107 -0.958569 -0.284861 0.000000 255 228 251 255
-0.017321 0.000000 0.940107 -0.958569 -0.284861 0.000000 255 228 251 255
-0.014784 -0.008536 -0.000107 -0.725981 -0.687715 0.000000 255 228 251 255
-0.008660 -0.015000 0.940107 -0.725981 -0.687715 0.000000 255 228 251 255
-0.014784 -0.008536 0.940107 -0.725981 -0.687715 0.000000 255 228 251 255
-0.008660 0.015000 -0.000107 -0.725981 0.687715 0.000000 255 228 251 255
-0.014784 0.008536 0.940107 -0.725981 0.687715 0.000000 255 228 251 255
-0.008660 0.015000 0.940107 -0.725981 0.687715 0.000000 255 228 251 255
-0.014784 0.008536 -0.000107 -0.958569 0.284861 0.000000 255 228 251 255
-0.017321 0.000000 0.940107 -0.958569 0.284861 0.000000 255 228 251 255
-0.014784 0.008536 0.940107 -0.958569 0.284861 0.000000 255 228 251 255
0.008660 0.015000 -0.000107 0.232588 0.972575 0.000000 255 228 251 255
0.000000 0.017071 0.940107 0.232588 0.972575 0.000000 255 228 251 255
0.008660 0.015000 0.940107 0.232588 0.972575 0.000000 255 228 251 255
0.000000 0.017071 -0.000107 -0.232588 0.972575 0.000000 255 228 251 255
-0.008660 0.015000 0.940107 -0.232588 0.972575 0.000000 255 228 251 255
0.000000 0.017071 0.940107 -0.232588 0.972575 0.000000 255 228 251 255
0.017321 0.000000 -0.000107 0.958569 0.284861 0.000000 255 228 251 255
0.014784 0.008536 0.940107 0.958569 0.284861 0.000000 255 228 251 255
0.017321 0.000000 0.940107 0.958569 0.284861 0.000000 255 228 251 255
0.014784 0.008536 -0.000107 0.725981 0.687715 0.000000 255 228 251 255
0.008660 0.015000 0.940107 0.725981 0.687715 0.000000 255 228 251 255
0.014784 0.008536 0.940107 0.725981 0.687715 0.000000 255 228 251 255
0.008660 -0.015000 -0.000107 0.725981 -0.687715 0.000000 255 228 251 255
0.014784 -0.008536 0.940107 0.725981 -0.687715 0.000000 255 228 251 255
0.008660 -0.015000 0.940107 0.725981 -0.687715 0.000000 255 228 251 255
0.014784 -0.008536 -0.000107 0.958569 -0.284861 0.000000 255 228 251 255
0.017321 0.000000 0.940107 0.958569 -0.284861 0.000000 255 228 251 255
0.014784 -0.008536 0.940107 0.958569 -0.284861 0.000000 255 228 251 255
0.008660 -0.015000 0.940107 0.232588 -0.972575 0.000000 255 228 251 255
0.000000 -0.017071 0.940107 0.232588 -0.972575 0.000000 255 228 251 255
0.000000 -0.017071 -0.000107 0.232588 -0.972575 0.000000 255 228 251 255
0.000000 -0.017071 0.940107 -0.232588 -0.972575 0.000000 255 228 251 255
-0.008660 -0.015000 0.940107 -0.232588 -0.972575 0.000000 255 228 251 255
-0.008660 -0.015000 -0.000107 -0.232588 -0.972575 0.000000 255 228 251 255
-0.017321 0.000000 -0.000107 -0.958569 -0.284861 0.000000 255 228 251 255
-0.014784 -0.008536 -0.000107 -0.958569 -0.284861 0.000000 255 228 251 255
-0.014784 -0.008536 0.940107 -0.958569 -0.284861 0.000000 255 228 251 255
-0.014784 -0.008536 -0.000107 -0.725981 -0.687715 0.000000 255 228 251 255
-0.008660 -0.015000 -0.000107 -0.725981 -0.687715 0.000000 255 228 251 255
-0.008660 -0.015000 0.940107 -0.725981 -0.687715 0.000000 255 228 251 255
-0.008660 0.015000 -0.000107 -0.725981 0.687715 0.000000 255 228 251 255
-0.014784 0.008536 -0.000107 -0.725981 0.687715 0.000000 255 228 251 255
-0.014784 0.008536 0.940107 -0.725981 0.687715 0.000000 255 228 251 255
-0.014784 0.008536 -0.000107 -0.958569 0.284861 0.000000 255 228 251 255
-0.017321 0.000000 -0.000107 -0.958569 0.284861 0.000000 255 228 251 255
-0.017321 0.000000 0.940107 -0.958569 0.284861 0.000000 255 228 251 255
0.008660 0.015000 -0.000107 0.232588 0.972575 0.000000 255 228 251 255
0.000000 0.017071 -0.000107 0.232588 0.972575 0.000000 255 228 251 255
0.000000 0.017071 0.940107 0.232588 0.972575 0.000000 255 228 251 255
0.000000 0.017071 -0.000107 -0.232588 0.972575 0.000000 255 228 251 255
-0.008660 0.015000 -0.000107 -0.232588 0.972575 0.000000 255 228 251 255
-0.008660 0.015000 0.940107 -0.232588 0.972575 0.000000 255 228 251 255
0.017321 0.000000 -0.000107 0.958569 0.284861 0.000000 255 228 251 255
0.014784 0.008536 -0.000107 0.958569 0.284861 0.000000 255 228 251 255
0.014784 0.008536 0.940107 0.958569 0.284861 0.000000 255 228 251 255
0.014784 0.008536 -0.000107 0.725981 0.687715 0.000000 255 228 251 255
0.008660 0.015000 -0.000107 0.725981 0.687715 0.000000 255 228 251 255
0.008660 0.015000 0.940107 0.725981 0.687715 0.000000 255 228 251 255
0.008660 -0.015000 -0.000107 0.725981 -0.687715 0.000000 255 228 251 255
0.014784 -0.008536 -0.000107 0.725981 -0.687715 0.000000 255 228 251 255
0.014784 -0.008536 0.940107 0.725981 -0.687715 0.000000 255 228 251 255
0.014784 -0.008536 -0.000107 0.958569 -0.284861 0.000000 255 228 251 255
0.017321 0.000000 -0.000107 0.958569 -0.284861 0.000000 255 228 251 255
0.017321 0.000000 0.940107 0.958569 -0.284861 0.000000 255 228 251 255
0.000000 -0.750000 0.000000 0.000000 0.000000 1.000000 240 231 160 255
0.649519 0.375000 0.000000 0.000000 0.000000 1.000000 240 231 160 255
-0.649519 0.375000 0.000000 0.000000 0.000000 1.000000 240 231 160 255
-0.649519 0.375000 0.000000 0.000000 0.000000 1.000000 240 231 160 255
-0.649519 -0.375000 0.000000 0.000000 0.000000 1.000000 240 231 160 255
0.000000 -0.750000 0.000000 0.000000 0.000000 1.000000 240 231 160 255
0.000000 -0.750000 0.000000 0.000000 0.000000 1.000000 240 231 160 255
0.649519 -0.375000 0.000000 0.000000 0.000000 1.000000 240 231 160 255
0.649519 0.375000 0.000000 0.000000 0.000000 1.000000 240 231 160 255
0.649519 0.375000 0.000000 0.000000 0.000000 1.000000 240 231 160 255
0.000000 0.750000 0.000000 0.000000 0.000000 1.000000 240 231 160 255
-0.649519 0.375000 0.000000 0.000000 0.000000 1.000000 240 231 160 255
0.866025 0.500000 0.000000 0.000000 0.000000 1.000000 240 183 125 255
0.000000 0.750000 0.000000 0.000000 0.000000 1.000000 240 183 125 255
0.649519 0.375000 0.000000 0.000000 0.000000 1.000000 240 183 125 255
-0.866025 -0.500000 0.000000 0.000000 0.000000 1.000000 240 183 125 255
0.000000 -0.750000 0.000000 0.000000 0.000000 1.000000 240 183 125 255
-0.649519 -0.375000 0.000000 0.000000 0.000000 1.000000 240 183 125 255
0.000000 1.000000 0.000000 0.000000 0.000000 1.000000 240 183 125 255
-0.649519 0.375000 0.000000 0.000000 0.000000 1.000000 240 183 125 255
0.000000 0.750000 0.000000 0.000000 0.000000 1.000000 240 183 125 255
-0.866025 0.500000 0.000000 0.000000 0.000000 1.000000 240 183 125 255
-0.649519 -0.375000 0.000000 0.000000 0.000000 1.000000 240 183 125 255
-0.649519 0.375000 0.000000 0.000000 0.000000 1.000000 240 183 125 255
0.000000 -1.000000 0.000000 0.000000 0.000000 1.000000 240 183 125 255
0.649519 -0.375000 0.000000 0.000000 0.000000 1.000000 240 183 125 255
0.000000 -0.750000 0.000000 0.000000 0.000000 1.000000 240 183 125 255
0.866025 -0.500000 0.000000 0.000000 0.000000 1.000000 240 183 125 255
0.649519 0.375000 0.000000 0.000000 0.000000 1.000000 240 183 125 255
0.649519 -0.375000 0.000000 0.000000 0.000000 1.000000 240 183 125 255
0.866025 0.500000 0.000000 0.000000 0.000000 1.000000 240 183 125 255
0.000000 1.000000 0.000000 0.000000 0.000000 1.000000 240 183 125 255
0.000000 0.750000 0.000000 0.000000 0.000000 1.000000 240 183 125 255
-0.866025 -0.500000 0.000000 0.000000 0.000000 1.000000 240 183 125 255
0.000000 -1.000000 0.000000 0.000000 0.000000 1.000000 240 183 125 255
0.000000 -0.750000 0.000000 0.000000 0.000000 1.000000 240 183 125 255
0.000000 1.000000 0.000000 0.000000 0.000000 1.000000 240 183 125 255
-0.866025 0.500000 0.000000 0.000000 0.000000 1.000000 240 183 125 255
-0.649519 0.375000 0.000000 0.000000 0.000000 1.000000 240 183 125 255
-0.866025 0.500000 0.000000 0.000000 0.000000 1.000000 240 183 125 255
-0.866025 -0.500000 0.000000 0.000000 0.000000 1.000000 240 183 125 255
-0.649519 -0.375000 0.000000 0.000000 0.000000 1.000000 240 183 125 255
0.000000 -1.000000 0.000000 0.000000 0.000000 1.000000 240 183 125 255
0.866025 -0.500000 0.000000 0.000000 0.000000 1.000000 240 183 125 255
0.649519 -0.375000 0.000000 0.000000 0.000000 1.000000 240 183 125 255
0.866025 -0.500000 0.000000 0.000000 0.000000 1.000000 240 183 125 255
0.866025 0.500000 0.000000 0.000000 0.000000 1.000000 240 183 125 255
0.649519 0.375000 0.000000 0.000000 0.000000 1.000000 240 183 125 255
3 0 1 2
3 3 4 5
3 6 7 8
3 9 10 11
3 12 13 14
3 15 16 17
3 18 19 20
3 21 22 23
3 24 25 26
3 27 28 29
3 30 31 32
3 33 34 35
3 36 37 38
3 39 40 41
3 42 43 44
3 45 46 47
3 48 49 50
3 51 52 53
3 54 55 56
3 57 58 59
3 60 61 62
3 63 64 65
3 66 67 68
3 69 70 71
3 72 73 74
3 75 76 77
3 78 79 80
3 81 82 83
3 84 85 86
3 87 88 89
3 90 91 92
3 93 94 95
3 96 97 98
3 99 100 101
3 102 103 104
3 105 106 107
3 108 109 110
3 111 112 113
3 114 115 116
3 117 118 119
3 120 121 122
3 123 124 125
3 126 127 128
3 129 130 131
3 132 133 134
3 135 136 137
3 138 139 140
3 141 142 143
3 144 145 146
3 147 148 149
3 150 151 152
3 153 154 155
3 156 157 158
3 159 160 161
3 162 163 164
3 165 166 167
3 168 169 170
3 171 172 173
3 174 175 176
3 177 178 179
3 180 181 182
3 183 184 185
3 186 187 188
3 189 190 191
3 192 193 194
3 195 196 197
3 198 199 200
3 201 202 203
3 204 205 206
3 207 208 209
3 210 211 212
3 213 214 215
3 216 217 218
3 219 220 221
3 222 223 224
3 225 226 227
3 228 229 230
3 231 232 233
3 234 235 236
3 237 238 239
3 240 241 242
3 243 244 245
3 246 247 248
3 249 250 251
3 252 253 254
3 255 256 257
3 258 259 260
3 261 262 263
3 264 265 266
3 267 268 269
3 270 271 272
3 273 274 275
3 276 277 278
3 279 280 281
3 282 283 284
3 285 286 287
3 288 289 290
3 291 292 293
3 294 295 296
3 297 298 299
3 300 301 302
3 303 304 305
3 306 307 308
3 309 310 311
3 312 313 314
3 315 316 317
3 318 319 320
3 321 322 323
3 324 325 326
3 327 328 329
3 330 331 332
3 333 334 335
3 336 337 338
3 339 340 341
3 342 343 344
3 345 346 347
3 348 349 350
3 351 352 353
3 354 355 356
3 357 358 359
3 360 361 362
3 363 364 365
3 366 367 368
3 369 370 371
3 372 373 374
3 375 376 377
3 378 379 380
3 381 382 383
3 384 385 386
3 387 388 389
3 390 391 392
3 393 394 395
3 396 397 398
3 399 400 401
3 402 403 404
3 405 406 407
3 408 409 410
3 411 412 413
3 414 415 416
3 417 418 419
3 420 421 422
3 423 424 425
3 426 427 428
3 429 430 431
3 432 433 434
3 435 436 437
3 438 439 440
3 441 442 443
3 444 445 446
3 447 448 449
3 450 451 452
3 453 454 455
3 456 457 458
3 459 460 461
3 462 463 464
3 465 466 467
3 468 469 470
3 471 472 473
3 474 475 476
3 477 478 479
3 480 481 482
3 483 484 485
3 486 487 488
3 489 490 491
3 492 493 494
3 495 496 497
