ply
format ascii 1.0
comment Created by Blender 3.6.0 - www.blender.org
element vertex 298
property float x
property float y
property float z
property float nx
property float ny
property float nz
property uchar red
property uchar green
property uchar blue
property uchar alpha
element face 156
property list uchar uint vertex_indices
end_header
0.000000 0.564212 0.514031 -0.497143 0.861694 0.101651 141 143 143 255
-0.537876 0.310585 0.033439 -0.497068 0.861750 0.101536 141 143 143 255
-0.489760 0.281765 0.515434 -0.496802 0.861952 0.101132 141 143 143 255
0.537912 0.310585 0.033439 0.497510 0.861411 0.102248 141 143 143 255
0.000000 0.564212 0.514031 0.497481 0.861433 0.102205 141 143 143 255
0.489021 0.281704 0.513966 0.497609 0.861336 0.102399 141 143 143 255
0.537912 -0.310522 0.033439 0.994890 0.000213 0.100963 141 143 143 255
0.489021 0.281704 0.513966 0.994884 0.000164 0.101024 141 143 143 255
0.489099 -0.283033 0.515379 0.994912 0.000389 0.100748 141 143 143 255
-0.435455 -0.251893 0.570652 -0.341429 -0.591571 0.730390 141 143 143 255
-0.000522 -0.563121 0.521890 -0.330704 -0.578920 0.745309 141 143 143 255
-0.000019 -0.502905 0.568612 -0.329192 -0.577129 0.747365 141 143 143 255
-0.437341 0.255574 0.565550 -0.356048 0.621070 0.698213 141 143 143 255
0.000000 0.564212 0.514031 -0.351442 0.615719 0.705251 141 143 143 255
-0.489760 0.281765 0.515434 -0.356435 0.621518 0.697617 141 143 143 255
0.489021 0.281704 0.513966 0.705429 0.004221 0.708768 141 143 143 255
0.435515 -0.251925 0.570398 0.716011 0.002030 0.698086 141 143 143 255
0.489099 -0.283033 0.515379 0.716907 0.001843 0.697166 141 143 143 255
-0.214310 -0.123706 0.956946 -0.070762 -0.103265 0.992134 141 143 143 255
-0.000009 -0.316281 0.952187 -0.045443 -0.075188 0.996133 141 143 143 255
-0.000127 -0.247260 0.956820 -0.038060 -0.066995 0.997027 141 143 143 255
-0.214374 0.123698 0.956976 -0.062974 0.076847 0.995052 141 143 143 255
-0.000008 0.318024 0.955535 -0.022502 0.032233 0.999227 141 143 143 255
-0.277239 0.158315 0.949723 -0.068833 0.083304 0.994144 141 143 143 255
0.214029 -0.123646 0.956607 0.068523 -0.098916 0.992734 141 143 143 255
-0.000009 -0.316281 0.952187 0.046115 -0.074098 0.996184 141 143 143 255
0.274892 -0.158649 0.948591 0.071741 -0.102479 0.992145 141 143 143 255
0.214061 0.123646 0.956703 0.060925 0.073079 0.995463 141 143 143 255
-0.000008 0.318024 0.955535 0.023015 0.031351 0.999243 141 143 143 255
-0.000121 0.247332 0.956879 0.011787 0.018989 0.999750 141 143 143 255
0.435515 -0.251925 0.570398 0.359534 -0.613379 0.703208 141 143 143 255
-0.000522 -0.563121 0.521890 0.335022 -0.584599 0.738921 141 143 143 255
0.489099 -0.283033 0.515379 0.361506 -0.615670 0.700188 141 143 143 255
0.437277 0.255567 0.565412 0.363096 0.628874 0.687516 141 143 143 255
0.000000 0.564212 0.514031 0.352522 0.616624 0.703919 141 143 143 255
0.000000 0.503741 0.566693 0.351070 0.614933 0.706121 141 143 143 255
-0.214374 0.123698 0.956976 -0.118938 -0.003892 0.992894 141 143 143 255
-0.274912 -0.158653 0.948618 -0.132102 -0.001021 0.991236 141 143 143 255
-0.214310 -0.123706 0.956946 -0.136067 -0.000155 0.990700 141 143 143 255
-0.214374 0.123698 0.956976 -0.499417 0.864731 0.053130 141 143 143 255
-0.001178 0.245778 0.974032 -0.499232 0.865147 0.047840 141 143 143 255
-0.000121 0.247332 0.956879 -0.499222 0.865166 0.047583 141 143 143 255
0.214061 0.123646 0.956703 0.990712 0.000346 0.135975 141 143 143 255
0.211823 -0.123013 0.973638 0.991669 -0.000154 0.128815 141 143 143 255
0.214029 -0.123646 0.956607 0.991713 -0.000178 0.128471 141 143 143 255
-0.000121 0.247332 0.956879 0.496603 0.861219 0.108113 141 143 143 255
0.211689 0.123054 0.973939 0.497687 0.861746 0.098491 141 143 143 255
0.214061 0.123646 0.956703 0.497736 0.861769 0.098049 141 143 143 255
-0.214374 0.123698 0.956976 -0.999421 -0.000056 0.034033 141 143 143 255
-0.213740 -0.122928 0.975168 -0.999507 -0.000250 0.031410 141 143 143 255
-0.213751 0.122933 0.975172 -0.999416 -0.000046 0.034173 141 143 143 255
-0.214310 -0.123706 0.956946 -0.499184 -0.864912 0.052377 141 143 143 255
-0.001203 -0.245658 0.974165 -0.499067 -0.865170 0.049111 141 143 143 255
-0.213740 -0.122928 0.975168 -0.499189 -0.864899 0.052539 141 143 143 255
-0.000127 -0.247260 0.956820 0.496173 -0.861259 0.109753 141 143 143 255
0.211823 -0.123013 0.973638 0.497587 -0.861961 0.097113 141 143 143 255
-0.001203 -0.245658 0.974165 0.496103 -0.861221 0.110362 141 143 143 255
0.214061 0.123646 0.956703 0.114047 -0.003973 0.993467 141 143 143 255
0.274892 -0.158649 0.948591 0.126567 -0.001232 0.991957 141 143 143 255
0.277224 0.158315 0.949727 0.112163 -0.004385 0.993680 141 143 143 255
0.043490 -0.121134 0.979353 0.002875 -0.042656 0.999086 141 143 143 255
-0.028699 -0.125420 0.973415 0.018159 0.010389 0.999781 141 143 143 255
-0.001203 -0.245658 0.974165 0.009167 -0.013871 0.999862 141 143 143 255
0.187545 0.094086 0.973878 0.034409 -0.029039 0.998986 141 143 143 255
0.182175 -0.109184 0.975386 0.036163 -0.048667 0.998160 141 143 143 255
0.211823 -0.123013 0.973638 0.039007 -0.022085 0.998995 141 143 143 255
-0.001178 0.245778 0.974032 -0.003625 0.008683 0.999956 141 143 143 255
-0.028706 0.109598 0.973369 0.016827 -0.008273 0.999824 141 143 143 255
0.043490 0.105122 0.979353 -0.029133 0.028544 0.999168 141 143 143 255
-0.093099 0.105584 0.979353 0.092403 0.000166 0.995722 141 143 143 255
-0.028699 -0.125420 0.973415 0.091942 0.000036 0.995764 141 143 143 255
-0.028706 0.109598 0.973369 0.092522 0.000199 0.995711 141 143 143 255
0.043490 -0.121134 0.979353 0.038757 -0.012503 0.999170 141 143 143 255
0.114591 0.099267 0.979353 0.009330 -0.003010 0.999952 141 143 143 255
0.043490 0.105122 0.979353 0.000000 0.000000 1.000000 141 143 143 255
0.435515 -0.251925 0.570398 0.921694 -0.003041 0.387905 141 143 143 255
0.277224 0.158315 0.949727 0.921614 -0.003245 0.388093 141 143 143 255
0.274892 -0.158649 0.948591 0.919669 -0.008173 0.392610 141 143 143 255
-0.000008 0.318024 0.955535 0.460374 0.798336 0.388220 141 143 143 255
0.437277 0.255567 0.565412 0.460116 0.798650 0.387881 141 143 143 255
0.000000 0.503741 0.566693 0.456717 0.802747 0.383415 141 143 143 255
-0.437341 0.255574 0.565550 -0.460013 0.798667 0.387969 141 143 143 255
-0.000008 0.318024 0.955535 -0.460274 0.798350 0.388312 141 143 143 255
0.000000 0.503741 0.566693 -0.456562 0.802827 0.383432 141 143 143 255
-0.277239 0.158315 0.949723 -0.921565 -0.003298 0.388211 141 143 143 255
-0.435455 -0.251893 0.570652 -0.921642 -0.003100 0.388029 141 143 143 255
-0.274912 -0.158653 0.948618 -0.919659 -0.008120 0.392634 141 143 143 255
-0.435455 -0.251893 0.570652 -0.687591 0.005160 0.726080 141 143 143 255
-0.489760 0.281765 0.515434 -0.689553 0.004768 0.724219 141 143 143 255
-0.487628 -0.282256 0.521484 -0.687427 0.005193 0.726235 141 143 143 255
-0.000009 -0.316281 0.952187 -0.459917 -0.797584 0.390302 141 143 143 255
-0.435455 -0.251893 0.570652 -0.459849 -0.797668 0.390211 141 143 143 255
-0.000019 -0.502905 0.568612 -0.458771 -0.798998 0.388756 141 143 143 255
0.435515 -0.251925 0.570398 0.459901 -0.797656 0.390174 141 143 143 255
-0.000009 -0.316281 0.952187 0.459969 -0.797572 0.390266 141 143 143 255
-0.000019 -0.502905 0.568612 0.458826 -0.798982 0.388725 141 143 143 255
-0.000522 -0.563121 0.521890 0.565358 0.815067 -0.126635 141 143 143 255
-0.110250 -0.562900 0.033439 0.496831 0.860691 -0.111220 141 143 143 255
-0.119017 -0.504090 0.314727 0.627354 0.765939 -0.140584 141 143 143 255
-0.377007 -0.355182 0.314618 -0.499246 -0.865608 0.038424 141 143 143 255
-0.000522 -0.563121 0.521890 -0.499366 -0.865525 0.038726 141 143 143 255
-0.487628 -0.282256 0.521484 -0.499172 -0.865659 0.038239 141 143 143 255
-0.432361 -0.376929 0.033439 -0.496744 -0.860804 0.110730 141 143 143 255
-0.487628 -0.282256 0.521484 -0.422509 -0.897521 0.126260 141 143 143 255
-0.537876 -0.310522 0.033439 -0.529803 -0.841806 0.103301 141 143 143 255
-0.537876 -0.310522 0.033439 -0.994875 -0.001455 0.101102 141 143 143 255
-0.489760 0.281765 0.515434 -0.994916 -0.001129 0.100706 141 143 143 255
-0.537876 0.310585 0.033439 -0.995054 0.000000 0.099333 141 143 143 255
0.489099 -0.283033 0.515379 0.496424 -0.862188 0.100975 141 143 143 255
0.000018 -0.621075 0.033439 0.496109 -0.862321 0.101389 141 143 143 255
0.537912 -0.310522 0.033439 0.497517 -0.861724 0.099541 141 143 143 255
-0.181882 0.096476 0.969856 0.044753 -0.144699 0.988463 141 143 143 255
-0.213751 0.122933 0.975172 0.040948 -0.059159 0.997408 141 143 143 255
-0.213740 -0.122928 0.975168 0.141928 0.070978 0.987329 141 143 143 255
0.000018 0.621138 0.033439 -0.497391 0.861506 0.102027 141 143 143 255
0.000018 0.621138 0.033439 0.497389 0.861503 0.102064 141 143 143 255
0.537912 0.310585 0.033439 0.994864 0.000000 0.101223 141 143 143 255
-0.487628 -0.282256 0.521484 -0.342295 -0.592588 0.729159 141 143 143 255
0.000000 0.503741 0.566693 -0.350820 0.614993 0.706193 141 143 143 255
0.437277 0.255567 0.565412 0.703898 0.004535 0.710287 141 143 143 255
-0.274912 -0.158653 0.948618 -0.074391 -0.107286 0.991441 141 143 143 255
-0.000121 0.247332 0.956879 -0.010525 0.019025 0.999764 141 143 143 255
-0.000127 -0.247260 0.956820 0.039584 -0.066859 0.996977 141 143 143 255
0.277224 0.158315 0.949727 0.066427 0.079134 0.994648 141 143 143 255
-0.000019 -0.502905 0.568612 0.331254 -0.580130 0.744124 141 143 143 255
0.489021 0.281704 0.513966 0.363984 0.629898 0.686108 141 143 143 255
-0.277239 0.158315 0.949723 -0.116968 -0.004321 0.993126 141 143 143 255
-0.213751 0.122933 0.975172 -0.499425 0.864710 0.053389 141 143 143 255
0.211689 0.123054 0.973939 0.990663 0.000371 0.136330 141 143 143 255
-0.001178 0.245778 0.974032 0.496549 0.861191 0.108582 141 143 143 255
-0.214310 -0.123706 0.956946 -0.999511 -0.000260 0.031277 141 143 143 255
-0.000127 -0.247260 0.956820 -0.499062 -0.865183 0.048952 141 143 143 255
0.214029 -0.123646 0.956607 0.497651 -0.861990 0.096524 141 143 143 255
0.214029 -0.123646 0.956607 0.130358 -0.000401 0.991467 141 143 143 255
-0.093099 -0.121581 0.979353 0.093409 0.027568 0.995246 141 143 143 255
0.115273 -0.115771 0.975919 0.052190 -0.060261 0.996817 141 143 143 255
0.115273 -0.115771 0.975919 0.020857 -0.036639 0.999111 141 143 143 255
-0.001203 -0.245658 0.974165 0.021172 -0.032478 0.999248 141 143 143 255
0.211689 0.123054 0.973939 0.035385 0.005594 0.999358 141 143 143 255
-0.001178 0.245778 0.974032 0.039144 0.067137 0.996976 141 143 143 255
0.114591 0.099267 0.979353 0.043404 0.049939 0.997809 141 143 143 255
-0.093099 0.105584 0.979353 0.093981 -0.023847 0.995288 141 143 143 255
0.114591 0.099267 0.979353 0.003196 0.038814 0.999241 141 143 143 255
-0.093099 -0.121581 0.979353 0.091814 -0.000000 0.995776 141 143 143 255
0.115273 -0.115771 0.975919 0.048956 -0.015793 0.998676 141 143 143 255
0.437277 0.255567 0.565412 0.923092 0.000574 0.384579 141 143 143 255
0.277224 0.158315 0.949727 0.464936 0.792727 0.394232 141 143 143 255
-0.277239 0.158315 0.949723 -0.464906 0.792652 0.394419 141 143 143 255
-0.437341 0.255574 0.565550 -0.923012 0.000438 0.384772 141 143 143 255
-0.437341 0.255574 0.565550 -0.689816 0.004715 0.723969 141 143 143 255
-0.274912 -0.158653 0.948618 -0.461382 -0.795765 0.392281 141 143 143 255
0.274892 -0.158649 0.948591 0.461429 -0.795759 0.392238 141 143 143 255
0.000018 -0.621075 0.033439 0.464097 0.879675 -0.103858 141 143 143 255
-0.119017 -0.504090 0.314727 -0.499523 -0.865417 0.039121 141 143 143 255
-0.377007 -0.355182 0.314618 -0.348575 -0.926721 0.140296 141 143 143 255
-0.487628 -0.282256 0.521484 -0.994722 -0.002659 0.102568 141 143 143 255
-0.000522 -0.563121 0.521890 0.494940 -0.862811 0.102918 141 143 143 255
-0.093099 0.105584 0.979353 -0.032103 0.017576 0.999330 141 143 143 255
-0.001178 0.245778 0.974032 -0.026630 0.055341 0.998112 141 143 143 255
-0.001203 -0.245658 0.974165 -0.058006 -0.046512 0.997232 141 143 143 255
-0.181886 -0.112730 0.969855 0.104830 0.069413 0.992065 141 143 143 255
-0.093099 -0.121581 0.979353 -0.118155 -0.128678 0.984623 141 143 143 255
0.000000 -1.000000 0.030000 -0.500000 -0.866025 0.000000 110 185 124 255
-0.866025 -0.500000 0.000000 -0.500000 -0.866025 0.000000 110 185 124 255
0.000000 -1.000000 0.000000 -0.500000 -0.866025 0.000000 110 185 124 255
-0.866025 -0.500000 0.030000 -1.000000 0.000000 0.000000 110 185 124 255
-0.866025 0.500000 0.000000 -1.000000 0.000000 0.000000 110 185 124 255
-0.866025 -0.500000 0.000000 -1.000000 0.000000 0.000000 110 185 124 255
-0.866025 0.500000 0.030000 -0.500000 0.866025 0.000000 110 185 124 255
0.000000 1.000000 0.000000 -0.500000 0.866025 0.000000 110 185 124 255
-0.866025 0.500000 0.000000 -0.500000 0.866025 0.000000 110 185 124 255
0.000000 1.000000 0.030000 0.500000 0.866025 0.000000 110 185 124 255
0.866025 0.500000 0.000000 0.500000 0.866025 0.000000 110 185 124 255
0.000000 1.000000 0.000000 0.500000 0.866025 0.000000 110 185 124 255
0.000000 -1.000000 0.030000 0.000000 0.000000 1.000000 110 185 124 255
0.866025 0.500000 0.030000 0.000000 0.000000 1.000000 110 185 124 255
-0.866025 0.500000 0.030000 0.000000 0.000000 1.000000 110 185 124 255
0.866025 0.500000 0.030000 1.000000 0.000000 0.000000 110 185 124 255
0.866025 -0.500000 0.000000 1.000000 0.000000 0.000000 110 185 124 255
0.866025 0.500000 0.000000 1.000000 0.000000 0.000000 110 185 124 255
0.866025 -0.500000 0.030000 0.500000 -0.866025 0.000000 110 185 124 255
0.000000 -1.000000 0.000000 0.500000 -0.866025 0.000000 110 185 124 255
0.866025 -0.500000 0.000000 0.500000 -0.866025 0.000000 110 185 124 255
-0.866025 -0.500000 0.030000 -0.500000 -0.866025 0.000000 110 185 124 255
-0.866025 0.500000 0.030000 -1.000000 0.000000 0.000000 110 185 124 255
0.000000 1.000000 0.030000 -0.500000 0.866025 0.000000 110 185 124 255
0.866025 0.500000 0.030000 0.500000 0.866025 0.000000 110 185 124 255
-0.866025 -0.500000 0.030000 0.000000 0.000000 1.000000 110 185 124 255
0.866025 -0.500000 0.030000 0.000000 0.000000 1.000000 110 185 124 255
0.000000 1.000000 0.030000 0.000000 0.000000 1.000000 110 185 124 255
0.866025 -0.500000 0.030000 1.000000 0.000000 0.000000 110 185 124 255
0.000000 -1.000000 0.030000 0.500000 -0.866025 0.000000 110 185 124 255
0.000000 -0.750000 0.060000 -0.500000 -0.866025 0.000000 245 237 142 255
-0.649519 -0.375000 0.030000 -0.500000 -0.866025 0.000000 245 237 142 255
0.000000 -0.750000 0.030000 -0.500000 -0.866025 0.000000 245 237 142 255
-0.649519 -0.375000 0.060000 -1.000000 0.000000 0.000000 245 237 142 255
-0.649519 0.375000 0.030000 -1.000000 0.000000 0.000000 245 237 142 255
-0.649519 -0.375000 0.030000 -1.000000 0.000000 0.000000 245 237 142 255
-0.649519 0.375000 0.060000 -0.500000 0.866025 0.000000 245 237 142 255
0.000000 0.750000 0.030000 -0.500000 0.866025 0.000000 245 237 142 255
-0.649519 0.375000 0.030000 -0.500000 0.866025 0.000000 245 237 142 255
0.000000 0.750000 0.060000 0.500000 0.866025 0.000000 245 237 142 255
0.649519 0.375000 0.030000 0.500000 0.866025 0.000000 245 237 142 255
0.000000 0.750000 0.030000 0.500000 0.866025 0.000000 245 237 142 255
0.000000 -0.750000 0.060000 0.000000 0.000000 1.000000 245 237 142 255
0.649519 0.375000 0.060000 0.000000 0.000000 1.000000 245 237 142 255
-0.649519 0.375000 0.060000 0.000000 0.000000 1.000000 245 237 142 255
0.649519 0.375000 0.060000 1.000000 0.000000 0.000000 245 237 142 255
0.649519 -0.375000 0.030000 1.000000 0.000000 0.000000 245 237 142 255
0.649519 0.375000 0.030000 1.000000 0.000000 0.000000 245 237 142 255
0.649519 -0.375000 0.060000 0.500000 -0.866025 0.000000 245 237 142 255
0.000000 -0.750000 0.030000 0.500000 -0.866025 0.000000 245 237 142 255
0.649519 -0.375000 0.030000 0.500000 -0.866025 0.000000 245 237 142 255
-0.649519 -0.375000 0.060000 -0.500000 -0.866025 0.000000 245 237 142 255
-0.649519 0.375000 0.060000 -1.000000 0.000000 0.000000 245 237 142 255
0.000000 0.750000 0.060000 -0.500000 0.866025 0.000000 245 237 142 255
0.649519 0.375000 0.060000 0.500000 0.866025 0.000000 245 237 142 255
-0.649519 -0.375000 0.060000 0.000000 0.000000 1.000000 245 237 142 255
0.649519 -0.375000 0.060000 0.000000 0.000000 1.000000 245 237 142 255
0.000000 0.750000 0.060000 0.000000 0.000000 1.000000 245 237 142 255
0.649519 -0.375000 0.060000 1.000000 0.000000 0.000000 245 237 142 255
0.000000 -0.750000 0.060000 0.500000 -0.866025 0.000000 245 237 142 255
-0.119017 -0.504090 0.314727 -0.867732 0.487289 -0.097934 255 139 113 255
-0.026949 -0.396675 0.033439 -0.879329 0.463106 -0.110964 255 139 113 255
-0.110250 -0.562900 0.033439 -0.887491 0.444752 -0.120645 255 139 113 255
-0.052628 -0.392822 0.314662 -0.499682 -0.865549 -0.033816 255 139 113 255
-0.326735 -0.223593 0.033439 -0.499675 -0.865552 -0.033824 255 139 113 255
-0.026949 -0.396675 0.033439 -0.499715 -0.865531 -0.033773 255 139 113 255
-0.377007 -0.355182 0.314618 0.842551 -0.529758 -0.097283 255 139 113 255
-0.326735 -0.223593 0.033439 0.828628 -0.549118 -0.108832 255 139 113 255
-0.310606 -0.243911 0.314714 0.855578 -0.510490 -0.085937 255 139 113 255
-0.119017 -0.504090 0.314727 -0.000117 -0.000135 -1.000000 255 139 113 255
-0.310606 -0.243911 0.314714 0.000400 0.000245 -1.000000 255 139 113 255
-0.052628 -0.392822 0.314662 -0.000397 -0.000341 -1.000000 255 139 113 255
-0.026044 -0.125571 0.960537 -0.034166 0.000017 0.999416 255 139 113 255
0.041398 0.104398 0.962839 -0.034319 0.000062 0.999411 255 139 113 255
-0.026049 0.109756 0.960520 -0.034361 0.000074 0.999410 255 139 113 255
-0.094771 -0.120811 0.961724 -0.036973 0.000000 0.999316 255 139 113 255
-0.181613 0.096720 0.958511 -0.036975 -0.000001 0.999316 255 139 113 255
-0.181616 -0.112975 0.958511 -0.036971 0.000001 0.999316 255 139 113 255
0.116667 0.098485 0.963411 0.041551 -0.007957 0.999105 255 139 113 255
0.182104 -0.108752 0.959039 0.044516 -0.007018 0.998984 255 139 113 255
0.184288 0.092877 0.960620 0.040545 -0.008275 0.999143 255 139 113 255
-0.181886 -0.112730 0.969855 0.999717 -0.000015 0.023788 255 139 113 255
-0.181613 0.096720 0.958511 0.999718 -0.000018 0.023733 255 139 113 255
-0.181882 0.096476 0.969856 0.999718 -0.000018 0.023731 255 139 113 255
-0.181886 -0.112730 0.969855 0.091169 0.995752 -0.012852 255 139 113 255
-0.094771 -0.120811 0.961724 0.095128 0.995004 0.030306 255 139 113 255
-0.181616 -0.112975 0.958511 0.090561 0.995704 -0.019316 255 139 113 255
-0.094769 0.104814 0.961725 -0.995543 0.000000 0.094313 255 139 113 255
-0.093099 -0.121581 0.979353 -0.995533 0.000008 0.094411 255 139 113 255
-0.093099 0.105584 0.979353 -0.995543 0.000000 0.094307 255 139 113 255
-0.026044 -0.125571 0.960537 0.979406 0.000070 0.201902 255 139 113 255
-0.028706 0.109598 0.973369 0.979282 0.000036 0.202504 255 139 113 255
-0.028699 -0.125420 0.973415 0.979411 0.000071 0.201879 255 139 113 255
0.043490 -0.121134 0.979353 -0.075280 0.996222 0.043287 255 139 113 255
-0.026044 -0.125571 0.960537 -0.060069 0.998105 -0.013367 255 139 113 255
-0.028699 -0.125420 0.973415 -0.057310 0.998079 -0.023559 255 139 113 255
0.043490 0.105122 0.979353 -0.992072 -0.000006 0.125673 255 139 113 255
0.041400 -0.120410 0.962840 -0.992082 -0.000000 0.125592 255 139 113 255
0.043490 -0.121134 0.979353 -0.992083 0.000000 0.125588 255 139 113 255
0.043490 0.105122 0.979353 -0.078140 -0.995994 0.043469 255 139 113 255
-0.026049 0.109756 0.960520 -0.062633 -0.997935 -0.014267 255 139 113 255
0.041398 0.104398 0.962839 -0.080912 -0.995264 0.053883 255 139 113 255
0.182175 -0.109184 0.975386 -0.091964 0.995284 0.030845 255 139 113 255
0.116882 -0.114801 0.961965 -0.096480 0.993902 0.053391 255 139 113 255
0.115273 -0.115771 0.975919 -0.097359 0.993569 0.057810 255 139 113 255
0.114591 0.099267 0.979353 -0.078490 -0.995775 0.047656 255 139 113 255
0.184288 0.092877 0.960620 -0.064865 -0.993125 0.097446 255 139 113 255
0.187545 0.094086 0.973878 -0.062534 -0.992411 0.105874 255 139 113 255
0.114591 0.099267 0.979353 0.991709 0.000175 0.128506 255 139 113 255
0.116882 -0.114801 0.961965 0.993326 0.001262 0.115331 255 139 113 255
0.116667 0.098485 0.963411 0.991627 0.000123 0.129135 255 139 113 255
0.184288 0.092877 0.960620 -0.973942 0.026645 0.225226 255 139 113 255
0.182175 -0.109184 0.975386 -0.999825 0.011535 0.014755 255 139 113 255
0.187545 0.094086 0.973878 -0.971334 0.027415 0.236133 255 139 113 255
-0.181882 0.096476 0.969856 0.094089 -0.995481 -0.012817 255 139 113 255
-0.094769 0.104814 0.961725 0.098020 -0.994730 0.030068 255 139 113 255
-0.093099 0.105584 0.979353 0.098382 -0.994564 0.034115 255 139 113 255
-0.052628 -0.392822 0.314662 -0.855663 0.510484 -0.085126 255 139 113 255
-0.310606 -0.243911 0.314714 -0.499638 -0.865572 -0.033872 255 139 113 255
-0.432361 -0.376929 0.033439 0.817826 -0.563357 -0.117428 255 139 113 255
-0.377007 -0.355182 0.314618 0.000680 0.000452 -1.000000 255 139 113 255
0.041400 -0.120410 0.962840 -0.034120 0.000004 0.999418 255 139 113 255
-0.094769 0.104814 0.961725 -0.036977 -0.000002 0.999316 255 139 113 255
0.116882 -0.114801 0.961965 0.045443 -0.006725 0.998944 255 139 113 255
-0.181616 -0.112975 0.958511 0.999717 -0.000015 0.023790 255 139 113 255
-0.093099 -0.121581 0.979353 0.095492 0.994836 0.034380 255 139 113 255
-0.094771 -0.120811 0.961724 -0.995533 0.000009 0.094416 255 139 113 255
-0.026049 0.109756 0.960520 0.979277 0.000035 0.202526 255 139 113 255
0.041400 -0.120410 0.962840 -0.078006 0.995515 0.053531 255 139 113 255
0.041398 0.104398 0.962839 -0.992071 -0.000007 0.125678 255 139 113 255
-0.028706 0.109598 0.973369 -0.059820 -0.997905 -0.024644 255 139 113 255
0.182104 -0.108752 0.959039 -0.091128 0.995481 0.026694 255 139 113 255
0.116667 0.098485 0.963411 -0.081013 -0.995975 0.038340 255 139 113 255
0.115273 -0.115771 0.975919 0.993403 0.001317 0.114667 255 139 113 255
0.182104 -0.108752 0.959039 -0.999931 0.010793 0.004592 255 139 113 255
-0.181613 0.096720 0.958511 0.093485 -0.995435 -0.019238 255 139 113 255
3 0 1 2
3 3 4 5
3 6 7 8
3 9 10 11
3 12 13 14
3 15 16 17
3 18 19 20
3 21 22 23
3 24 25 26
3 27 28 29
3 30 31 32
3 33 34 35
3 36 37 38
3 39 40 41
3 42 43 44
3 45 46 47
3 48 49 50
3 51 52 53
3 54 55 56
3 57 58 59
3 60 61 62
3 63 64 65
3 66 67 68
3 69 70 71
3 72 73 74
3 75 76 77
3 78 79 80
3 81 82 83
3 84 85 86
3 87 88 89
3 90 91 92
3 93 94 95
3 96 97 98
3 99 100 101
3 102 103 104
3 105 106 107
3 108 109 110
3 111 112 113
3 0 114 1
3 3 115 4
3 6 116 7
3 9 117 10
3 12 118 13
3 15 119 16
3 18 120 19
3 21 121 22
3 24 122 25
3 27 123 28
3 30 124 31
3 33 125 34
3 36 126 37
3 39 127 40
3 42 128 43
3 45 129 46
3 48 130 49
3 51 131 52
3 54 132 55
3 57 133 58
3 61 134 62
3 62 135 60
3 64 136 65
3 136 137 65
3 138 139 140
3 138 140 63
3 138 63 65
3 66 141 67
3 68 142 66
3 69 143 70
3 72 144 73
3 75 145 76
3 78 146 79
3 81 147 82
3 84 148 85
3 87 149 88
3 90 150 91
3 93 151 94
3 96 152 97
3 99 153 100
3 102 154 103
3 105 155 106
3 108 156 109
3 111 157 112
3 157 158 112
3 113 159 160
3 159 161 160
3 113 160 111
3 162 163 164
3 165 166 167
3 168 169 170
3 171 172 173
3 174 175 176
3 177 178 179
3 180 181 182
3 162 183 163
3 165 184 166
3 168 185 169
3 171 186 172
3 176 187 174
3 174 188 175
3 175 189 176
3 177 190 178
3 180 191 181
3 192 193 194
3 195 196 197
3 198 199 200
3 201 202 203
3 204 205 206
3 207 208 209
3 210 211 212
3 192 213 193
3 195 214 196
3 198 215 199
3 201 216 202
3 206 217 204
3 204 218 205
3 205 219 206
3 207 220 208
3 210 221 211
3 222 223 224
3 225 226 227
3 228 229 230
3 231 232 233
3 234 235 236
3 237 238 239
3 240 241 242
3 243 244 245
3 246 247 248
3 249 250 251
3 252 253 254
3 255 256 257
3 258 259 260
3 261 262 263
3 264 265 266
3 267 268 269
3 270 271 272
3 273 274 275
3 276 277 278
3 222 279 223
3 225 280 226
3 228 281 229
3 231 282 232
3 234 283 235
3 237 284 238
3 240 285 241
3 243 286 244
3 246 287 247
3 249 288 250
3 252 289 253
3 255 290 256
3 258 291 259
3 261 292 262
3 264 293 265
3 267 294 268
3 270 295 271
3 273 296 274
3 276 297 277
