ply
format ascii 1.0
comment Created by Blender 3.6.0 - www.blender.org
element vertex 384
property float x
property float y
property float z
property float nx
property float ny
property float nz
property uchar red
property uchar green
property uchar blue
property uchar alpha
element face 128
property list uchar uint vertex_indices
end_header
0.000000 0.543486 0.354535 -0.481106 0.866552 0.132760 125 122 139 255
-0.537876 0.299176 0.000000 -0.481106 0.866552 0.132760 125 122 139 255
-0.489760 0.271415 0.355569 -0.481105 0.866552 0.132760 125 122 139 255
0.537912 0.299176 0.000000 0.481858 0.865879 0.134414 125 122 139 255
0.000000 0.543486 0.354535 0.481858 0.865879 0.134414 125 122 139 255
0.489021 0.271355 0.354487 0.481858 0.865879 0.134414 125 122 139 255
0.537912 -0.299114 0.000000 0.990710 0.000403 0.135993 125 122 139 255
0.489021 0.271355 0.354487 0.990710 0.000403 0.135993 125 122 139 255
0.489099 -0.272636 0.355529 0.990710 0.000403 0.135993 125 122 139 255
-0.435455 -0.242639 0.396304 -0.269350 -0.490225 0.828933 125 122 139 255
-0.000522 -0.542435 0.360332 -0.269350 -0.490225 0.828933 125 122 139 255
-0.000019 -0.484430 0.394799 -0.269350 -0.490225 0.828933 125 122 139 255
-0.437341 0.246186 0.392541 -0.297274 0.538127 0.788700 125 122 139 255
0.000000 0.543486 0.354535 -0.297274 0.538127 0.788700 125 122 139 255
-0.489760 0.271415 0.355569 -0.297274 0.538127 0.788700 125 122 139 255
0.489021 0.271355 0.354487 0.604371 0.001613 0.796702 125 122 139 255
0.435515 -0.242670 0.396117 0.604371 0.001613 0.796702 125 122 139 255
0.489099 -0.272636 0.355529 0.604371 0.001613 0.796702 125 122 139 255
-0.214310 -0.119161 0.706194 -0.212678 -0.383443 0.898743 125 122 139 255
-0.000009 -0.304662 0.677763 -0.212678 -0.383443 0.898743 125 122 139 255
-0.000127 -0.238177 0.706101 -0.212678 -0.383443 0.898743 125 122 139 255
-0.214374 0.119154 0.706216 -0.227072 0.384253 0.894867 125 122 139 255
-0.000008 0.306341 0.680233 -0.227072 0.384253 0.894868 125 122 139 255
-0.277239 0.152500 0.675946 -0.227072 0.384253 0.894867 125 122 139 255
0.214029 -0.119104 0.705944 0.228887 -0.398874 0.887981 125 122 139 255
-0.000009 -0.304662 0.677763 0.228887 -0.398874 0.887981 125 122 139 255
0.274892 -0.152820 0.675111 0.228887 -0.398874 0.887981 125 122 139 255
0.214061 0.119104 0.706015 0.194452 0.348567 0.916891 125 122 139 255
-0.000008 0.306341 0.680233 0.194452 0.348567 0.916891 125 122 139 255
-0.000121 0.238246 0.706144 0.194452 0.348567 0.916891 125 122 139 255
0.435515 -0.242670 0.396117 0.301246 -0.532610 0.790934 125 122 139 255
-0.000522 -0.542435 0.360332 0.301246 -0.532610 0.790934 125 122 139 255
0.489099 -0.272636 0.355529 0.301246 -0.532610 0.790934 125 122 139 255
0.437277 0.246179 0.392438 0.291850 0.530699 0.795727 125 122 139 255
0.000000 0.543486 0.354535 0.291850 0.530699 0.795727 125 122 139 255
0.000000 0.485236 0.393383 0.291850 0.530699 0.795727 125 122 139 255
-0.214374 0.119154 0.706216 -0.456065 -0.000204 0.889946 125 122 139 255
-0.274912 -0.152824 0.675130 -0.456065 -0.000204 0.889947 125 122 139 255
-0.214310 -0.119161 0.706194 -0.456065 -0.000204 0.889947 125 122 139 255
0.214061 0.119104 0.706015 0.432283 -0.005776 0.901720 125 122 139 255
0.274892 -0.152820 0.675111 0.432283 -0.005776 0.901719 125 122 139 255
0.277224 0.152500 0.675948 0.432283 -0.005776 0.901719 125 122 139 255
-0.435455 -0.242639 0.396304 -0.572511 0.004489 0.819885 125 122 139 255
-0.489760 0.271415 0.355569 -0.572511 0.004489 0.819885 125 122 139 255
-0.487628 -0.271887 0.360033 -0.572511 0.004489 0.819885 125 122 139 255
-0.377007 -0.342134 0.207427 -0.484959 -0.873085 0.050359 125 122 139 255
-0.000522 -0.542435 0.360332 -0.484960 -0.873086 0.050359 125 122 139 255
-0.487628 -0.271887 0.360033 -0.484960 -0.873085 0.050359 125 122 139 255
-0.432361 -0.363082 0.000000 -0.513618 -0.847212 0.135753 125 122 139 255
-0.487628 -0.271887 0.360033 -0.513618 -0.847212 0.135753 125 122 139 255
-0.537876 -0.299114 0.000000 -0.513618 -0.847212 0.135753 125 122 139 255
-0.537876 -0.299114 0.000000 -0.990968 0.000000 0.134099 125 122 139 255
-0.489760 0.271415 0.355569 -0.990968 0.000000 0.134099 125 122 139 255
-0.537876 0.299176 0.000000 -0.990968 0.000000 0.134099 125 122 139 255
0.489099 -0.272636 0.355529 0.481865 -0.866444 0.130689 125 122 139 255
0.000018 -0.598259 0.000000 0.481865 -0.866445 0.130689 125 122 139 255
0.537912 -0.299114 0.000000 0.481865 -0.866445 0.130689 125 122 139 255
0.160490 -0.119095 0.705986 0.000784 -0.000091 1.000000 125 122 139 255
0.106952 -0.119087 0.706028 0.000784 -0.000091 1.000000 125 122 139 255
-0.000127 -0.238177 0.706101 0.000784 -0.000091 1.000000 125 122 139 255
-0.160811 0.119151 0.706195 0.000383 -0.000092 1.000000 125 122 139 255
-0.214310 -0.119161 0.706194 0.000383 -0.000092 1.000000 125 122 139 255
-0.160764 -0.119139 0.706173 0.000383 -0.000092 1.000000 125 122 139 255
-0.107248 0.119147 0.706175 0.000384 -0.000091 1.000000 125 122 139 255
-0.026898 -0.119082 0.706122 0.000384 -0.000091 1.000000 125 122 139 255
-0.026904 0.119142 0.706144 0.000384 -0.000091 1.000000 125 122 139 255
0.106969 0.119122 0.706074 0.000784 -0.000194 1.000000 125 122 139 255
0.026644 -0.119075 0.706091 0.000784 -0.000194 1.000000 125 122 139 255
0.106952 -0.119087 0.706028 0.000784 -0.000194 1.000000 125 122 139 255
0.214061 0.119104 0.706015 0.000785 -0.000297 1.000000 125 122 139 255
0.160490 -0.119095 0.705986 0.000785 -0.000297 1.000000 125 122 139 255
0.214029 -0.119104 0.705944 0.000785 -0.000297 1.000000 125 122 139 255
-0.000008 0.306341 0.680233 0.421657 0.769387 0.479843 125 122 139 255
0.437277 0.246179 0.392438 0.421657 0.769387 0.479843 125 122 139 255
0.000000 0.485236 0.393383 0.421657 0.769387 0.479843 125 122 139 255
-0.437341 0.246186 0.392541 -0.421509 0.769457 0.479861 125 122 139 255
-0.000008 0.306341 0.680233 -0.421509 0.769457 0.479861 125 122 139 255
0.000000 0.485236 0.393383 -0.421509 0.769457 0.479861 125 122 139 255
-0.277239 0.152500 0.675946 -0.865479 -0.007933 0.500883 125 122 139 255
-0.435455 -0.242639 0.396304 -0.865479 -0.007933 0.500883 125 122 139 255
-0.274912 -0.152824 0.675130 -0.865479 -0.007933 0.500883 125 122 139 255
-0.000009 -0.304662 0.677763 -0.423015 -0.764821 0.485909 125 122 139 255
-0.435455 -0.242639 0.396304 -0.423015 -0.764821 0.485909 125 122 139 255
-0.000019 -0.484430 0.394799 -0.423015 -0.764821 0.485909 125 122 139 255
0.435515 -0.242670 0.396117 0.423069 -0.764812 0.485875 125 122 139 255
-0.000009 -0.304662 0.677763 0.423069 -0.764812 0.485875 125 122 139 255
-0.000019 -0.484430 0.394799 0.423069 -0.764812 0.485875 125 122 139 255
0.435515 -0.242670 0.396117 0.865494 -0.007985 0.500856 125 122 139 255
0.277224 0.152500 0.675948 0.865494 -0.007985 0.500856 125 122 139 255
0.274892 -0.152820 0.675111 0.865494 -0.007985 0.500856 125 122 139 255
-0.000522 -0.542435 0.360332 -0.448831 -0.883183 0.136154 125 122 139 255
-0.110250 -0.542221 0.000000 -0.448831 -0.883183 0.136154 125 122 139 255
0.000018 -0.598259 0.000000 -0.448831 -0.883183 0.136154 125 122 139 255
-0.026904 0.119142 0.706144 0.000470 -0.000110 1.000000 125 122 139 255
0.026650 0.119136 0.706119 0.000470 -0.000110 1.000000 125 122 139 255
-0.000121 0.238246 0.706144 0.000470 -0.000110 1.000000 125 122 139 255
0.000000 0.543486 0.354535 -0.481655 0.866067 0.133928 125 122 139 255
0.000018 0.598321 0.000000 -0.481655 0.866067 0.133928 125 122 139 255
-0.537876 0.299176 0.000000 -0.481655 0.866067 0.133928 125 122 139 255
0.537912 0.299176 0.000000 0.481652 0.866061 0.133977 125 122 139 255
0.000018 0.598321 0.000000 0.481652 0.866061 0.133977 125 122 139 255
0.000000 0.543486 0.354535 0.481652 0.866061 0.133977 125 122 139 255
0.537912 -0.299114 0.000000 0.990622 0.000000 0.136629 125 122 139 255
0.537912 0.299176 0.000000 0.990622 0.000000 0.136629 125 122 139 255
0.489021 0.271355 0.354487 0.990622 0.000000 0.136629 125 122 139 255
-0.435455 -0.242639 0.396304 -0.282071 -0.506951 0.814516 125 122 139 255
-0.487628 -0.271887 0.360033 -0.282071 -0.506951 0.814516 125 122 139 255
-0.000522 -0.542435 0.360332 -0.282071 -0.506951 0.814516 125 122 139 255
-0.437341 0.246186 0.392541 -0.291633 0.530734 0.795784 125 122 139 255
0.000000 0.485236 0.393383 -0.291633 0.530734 0.795784 125 122 139 255
0.000000 0.543486 0.354535 -0.291633 0.530734 0.795784 125 122 139 255
0.489021 0.271355 0.354487 0.590169 0.003947 0.807270 125 122 139 255
0.437277 0.246179 0.392438 0.590169 0.003947 0.807270 125 122 139 255
0.435515 -0.242670 0.396117 0.590169 0.003947 0.807270 125 122 139 255
-0.214310 -0.119161 0.706194 -0.230681 -0.402285 0.885976 125 122 139 255
-0.274912 -0.152824 0.675130 -0.230681 -0.402285 0.885976 125 122 139 255
-0.000009 -0.304662 0.677763 -0.230681 -0.402285 0.885976 125 122 139 255
-0.214374 0.119154 0.706216 -0.193783 0.349176 0.916801 125 122 139 255
-0.000121 0.238246 0.706144 -0.193783 0.349176 0.916801 125 122 139 255
-0.000008 0.306341 0.680233 -0.193783 0.349176 0.916801 125 122 139 255
0.214029 -0.119104 0.705944 0.213468 -0.382740 0.898856 125 122 139 255
-0.000127 -0.238177 0.706101 0.213468 -0.382740 0.898856 125 122 139 255
-0.000009 -0.304662 0.677763 0.213468 -0.382740 0.898856 125 122 139 255
0.214061 0.119104 0.706015 0.225331 0.381086 0.896660 125 122 139 255
0.277224 0.152500 0.675948 0.225331 0.381086 0.896660 125 122 139 255
-0.000008 0.306341 0.680233 0.225331 0.381086 0.896660 125 122 139 255
0.435515 -0.242670 0.396117 0.271381 -0.493399 0.826383 125 122 139 255
-0.000019 -0.484430 0.394799 0.271381 -0.493399 0.826384 125 122 139 255
-0.000522 -0.542435 0.360332 0.271381 -0.493399 0.826384 125 122 139 255
0.437277 0.246179 0.392438 0.304901 0.547773 0.779089 125 122 139 255
0.489021 0.271355 0.354487 0.304901 0.547773 0.779089 125 122 139 255
0.000000 0.543486 0.354535 0.304901 0.547773 0.779089 125 122 139 255
-0.214374 0.119154 0.706216 -0.436299 -0.005728 0.899783 125 122 139 255
-0.277239 0.152500 0.675946 -0.436299 -0.005728 0.899783 125 122 139 255
-0.274912 -0.152824 0.675130 -0.436299 -0.005728 0.899784 125 122 139 255
0.214061 0.119104 0.706015 0.451777 -0.000325 0.892131 125 122 139 255
0.214029 -0.119104 0.705944 0.451777 -0.000325 0.892131 125 122 139 255
0.274892 -0.152820 0.675111 0.451777 -0.000325 0.892131 125 122 139 255
-0.435455 -0.242639 0.396304 -0.575050 0.004080 0.818108 125 122 139 255
-0.437341 0.246186 0.392541 -0.575050 0.004080 0.818108 125 122 139 255
-0.489760 0.271415 0.355569 -0.575050 0.004080 0.818108 125 122 139 255
-0.377007 -0.342134 0.207427 -0.485296 -0.872831 0.051520 125 122 139 255
-0.119017 -0.485572 0.207507 -0.485295 -0.872831 0.051520 125 122 139 255
-0.000522 -0.542435 0.360332 -0.485295 -0.872831 0.051520 125 122 139 255
-0.432361 -0.363082 0.000000 -0.334915 -0.924361 0.182727 125 122 139 255
-0.377007 -0.342134 0.207427 -0.334915 -0.924361 0.182727 125 122 139 255
-0.487628 -0.271887 0.360033 -0.334915 -0.924361 0.182727 125 122 139 255
-0.537876 -0.299114 0.000000 -0.990369 -0.002749 0.138428 125 122 139 255
-0.487628 -0.271887 0.360033 -0.990369 -0.002749 0.138428 125 122 139 255
-0.489760 0.271415 0.355569 -0.990369 -0.002749 0.138428 125 122 139 255
0.489099 -0.272636 0.355529 0.479209 -0.867245 0.135077 125 122 139 255
-0.000522 -0.542435 0.360332 0.479209 -0.867245 0.135077 125 122 139 255
0.000018 -0.598259 0.000000 0.479209 -0.867245 0.135077 125 122 139 255
0.106952 -0.119087 0.706028 0.000784 -0.000091 1.000000 125 122 139 255
0.026644 -0.119075 0.706091 0.000784 -0.000091 1.000000 125 122 139 255
-0.000127 -0.238177 0.706101 0.000784 -0.000091 1.000000 125 122 139 255
0.026644 -0.119075 0.706091 0.000584 -0.000046 1.000000 125 122 139 255
-0.026898 -0.119082 0.706122 0.000584 -0.000046 1.000000 125 122 139 255
-0.000127 -0.238177 0.706101 0.000584 -0.000046 1.000000 125 122 139 255
-0.107218 -0.119116 0.706153 0.000384 -0.000090 1.000000 125 122 139 255
-0.160764 -0.119139 0.706173 0.000384 -0.000090 1.000000 125 122 139 255
-0.000127 -0.238177 0.706101 0.000384 -0.000090 1.000000 125 122 139 255
-0.160764 -0.119139 0.706173 0.000383 -0.000092 1.000000 125 122 139 255
-0.214310 -0.119161 0.706194 0.000383 -0.000092 1.000000 125 122 139 255
-0.000127 -0.238177 0.706101 0.000383 -0.000092 1.000000 125 122 139 255
-0.107218 -0.119116 0.706153 0.000383 -0.000091 1.000000 125 122 139 255
-0.000127 -0.238177 0.706101 0.000383 -0.000091 1.000000 125 122 139 255
-0.026898 -0.119082 0.706122 0.000383 -0.000091 1.000000 125 122 139 255
0.214029 -0.119104 0.705944 0.000785 -0.000092 1.000000 125 122 139 255
0.160490 -0.119095 0.705986 0.000785 -0.000092 1.000000 125 122 139 255
-0.000127 -0.238177 0.706101 0.000785 -0.000092 1.000000 125 122 139 255
-0.160811 0.119151 0.706195 0.000385 -0.000092 1.000000 125 122 139 255
-0.214374 0.119154 0.706216 0.000385 -0.000092 1.000000 125 122 139 255
-0.214310 -0.119161 0.706194 0.000385 -0.000092 1.000000 125 122 139 255
-0.107248 0.119147 0.706175 0.000383 -0.000092 1.000000 125 122 139 255
-0.107218 -0.119116 0.706153 0.000383 -0.000092 1.000000 125 122 139 255
-0.026898 -0.119082 0.706122 0.000383 -0.000092 1.000000 125 122 139 255
0.106969 0.119122 0.706074 0.000556 -0.000117 1.000000 125 122 139 255
0.026650 0.119136 0.706119 0.000556 -0.000117 1.000000 125 122 139 255
0.026644 -0.119075 0.706091 0.000556 -0.000117 1.000000 125 122 139 255
0.214061 0.119104 0.706015 0.000557 -0.000246 1.000000 125 122 139 255
0.160515 0.119113 0.706044 0.000557 -0.000246 1.000000 125 122 139 255
0.160490 -0.119095 0.705986 0.000557 -0.000246 1.000000 125 122 139 255
-0.000008 0.306341 0.680233 0.428187 0.757911 0.492165 125 122 139 255
0.277224 0.152500 0.675948 0.428187 0.757911 0.492165 125 122 139 255
0.437277 0.246179 0.392438 0.428187 0.757911 0.492165 125 122 139 255
-0.437341 0.246186 0.392541 -0.428139 0.757803 0.492375 125 122 139 255
-0.277239 0.152500 0.675946 -0.428139 0.757803 0.492375 125 122 139 255
-0.000008 0.306341 0.680233 -0.428139 0.757803 0.492375 125 122 139 255
-0.277239 0.152500 0.675946 -0.870612 0.000429 0.491971 125 122 139 255
-0.437341 0.246186 0.392541 -0.870612 0.000429 0.491971 125 122 139 255
-0.435455 -0.242639 0.396304 -0.870612 0.000429 0.491971 125 122 139 255
-0.000009 -0.304662 0.677763 -0.425078 -0.761110 0.489919 125 122 139 255
-0.274912 -0.152824 0.675130 -0.425078 -0.761110 0.489919 125 122 139 255
-0.435455 -0.242639 0.396304 -0.425078 -0.761110 0.489919 125 122 139 255
0.435515 -0.242670 0.396117 0.425127 -0.761114 0.489871 125 122 139 255
0.274892 -0.152820 0.675111 0.425127 -0.761114 0.489871 125 122 139 255
-0.000009 -0.304662 0.677763 0.425127 -0.761114 0.489871 125 122 139 255
0.435515 -0.242670 0.396117 0.870735 0.000562 0.491751 125 122 139 255
0.437277 0.246179 0.392438 0.870735 0.000562 0.491752 125 122 139 255
0.277224 0.152500 0.675948 0.870735 0.000562 0.491752 125 122 139 255
-0.000522 -0.542435 0.360332 -0.608723 -0.771534 0.184910 125 122 139 255
-0.119017 -0.485572 0.207507 -0.608723 -0.771534 0.184910 125 122 139 255
-0.110250 -0.542221 0.000000 -0.608723 -0.771534 0.184910 125 122 139 255
0.106969 0.119122 0.706074 0.000554 -0.000092 1.000000 125 122 139 255
0.160515 0.119113 0.706044 0.000554 -0.000092 1.000000 125 122 139 255
-0.000121 0.238246 0.706144 0.000554 -0.000092 1.000000 125 122 139 255
0.160515 0.119113 0.706044 0.000557 -0.000089 1.000000 125 122 139 255
0.214061 0.119104 0.706015 0.000557 -0.000089 1.000000 125 122 139 255
-0.000121 0.238246 0.706144 0.000557 -0.000089 1.000000 125 122 139 255
-0.000121 0.238246 0.706144 0.000385 -0.000091 1.000000 125 122 139 255
-0.214374 0.119154 0.706216 0.000385 -0.000091 1.000000 125 122 139 255
-0.160811 0.119151 0.706195 0.000385 -0.000091 1.000000 125 122 139 255
-0.000121 0.238246 0.706144 0.000385 -0.000091 1.000000 125 122 139 255
-0.160811 0.119151 0.706195 0.000385 -0.000091 1.000000 125 122 139 255
-0.107248 0.119147 0.706175 0.000385 -0.000091 1.000000 125 122 139 255
0.026650 0.119136 0.706119 0.000556 -0.000090 1.000000 125 122 139 255
0.106969 0.119122 0.706074 0.000556 -0.000090 1.000000 125 122 139 255
-0.000121 0.238246 0.706144 0.000556 -0.000090 1.000000 125 122 139 255
-0.000121 0.238246 0.706144 0.000384 -0.000090 1.000000 125 122 139 255
-0.107248 0.119147 0.706175 0.000384 -0.000090 1.000000 125 122 139 255
-0.026904 0.119142 0.706144 0.000384 -0.000090 1.000000 125 122 139 255
-0.119017 -0.485572 0.207507 -0.875506 0.455478 -0.161332 255 139 113 255
-0.026949 -0.382103 0.000000 -0.875506 0.455478 -0.161332 255 139 113 255
-0.110250 -0.542221 0.000000 -0.875506 0.455478 -0.161332 255 139 113 255
-0.052628 -0.378392 0.207460 -0.485553 -0.873075 -0.044484 255 139 113 255
-0.326735 -0.215379 0.000000 -0.485553 -0.873075 -0.044484 255 139 113 255
-0.026949 -0.382103 0.000000 -0.485553 -0.873075 -0.044484 255 139 113 255
-0.377007 -0.342134 0.207427 0.844487 -0.523088 -0.114982 255 139 113 255
-0.326735 -0.215379 0.000000 0.844487 -0.523088 -0.114982 255 139 113 255
-0.310606 -0.234950 0.207498 0.844487 -0.523088 -0.114982 255 139 113 255
-0.119017 -0.485572 0.207507 -0.000293 -0.000261 -1.000000 255 139 113 255
-0.310606 -0.234950 0.207498 -0.000293 -0.000261 -1.000000 255 139 113 255
-0.052628 -0.378392 0.207460 -0.000293 -0.000261 -1.000000 255 139 113 255
-0.119017 -0.485572 0.207507 -0.844619 0.523111 -0.113904 255 139 113 255
-0.052628 -0.378392 0.207460 -0.844619 0.523111 -0.113904 255 139 113 255
-0.026949 -0.382103 0.000000 -0.844619 0.523111 -0.113904 255 139 113 255
-0.052628 -0.378392 0.207460 -0.485476 -0.873111 -0.044614 255 139 113 255
-0.310606 -0.234950 0.207498 -0.485476 -0.873111 -0.044614 255 139 113 255
-0.326735 -0.215379 0.000000 -0.485476 -0.873111 -0.044614 255 139 113 255
-0.377007 -0.342134 0.207427 0.803407 -0.574530 -0.156374 255 139 113 255
-0.432361 -0.363082 0.000000 0.803407 -0.574530 -0.156374 255 139 113 255
-0.326735 -0.215379 0.000000 0.803407 -0.574530 -0.156374 255 139 113 255
-0.119017 -0.485572 0.207507 0.000502 0.000346 -1.000000 255 139 113 255
-0.377007 -0.342134 0.207427 0.000502 0.000346 -1.000000 255 139 113 255
-0.310606 -0.234950 0.207498 0.000502 0.000346 -1.000000 255 139 113 255
-0.160828 0.119155 0.688051 0.000385 -0.000092 1.000000 255 139 113 255
-0.107235 -0.119112 0.688009 0.000385 -0.000092 1.000000 255 139 113 255
-0.107266 0.119151 0.688030 0.000385 -0.000092 1.000000 255 139 113 255
0.106934 -0.119083 0.687884 0.000554 -0.000194 1.000000 255 139 113 255
0.160497 0.119117 0.687900 0.000554 -0.000194 1.000000 255 139 113 255
0.106952 0.119126 0.687930 0.000554 -0.000194 1.000000 255 139 113 255
-0.026922 0.119147 0.688000 0.000470 -0.000117 1.000000 255 139 113 255
0.026626 -0.119071 0.687947 0.000470 -0.000117 1.000000 255 139 113 255
0.026633 0.119140 0.687974 0.000470 -0.000117 1.000000 255 139 113 255
-0.160764 -0.119139 0.706174 -0.000422 1.000000 0.000237 255 139 113 255
-0.107235 -0.119112 0.688009 -0.000422 1.000000 0.000237 255 139 113 255
-0.160782 -0.119134 0.688029 -0.000422 1.000000 0.000237 255 139 113 255
-0.026898 -0.119082 0.706122 -0.000135 1.000000 0.000237 255 139 113 255
0.026626 -0.119071 0.687947 -0.000135 1.000000 0.000237 255 139 113 255
-0.026916 -0.119078 0.687978 -0.000135 1.000000 0.000237 255 139 113 255
0.106952 -0.119087 0.706028 0.000152 1.000000 0.000236 255 139 113 255
0.160473 -0.119091 0.687842 0.000152 1.000000 0.000236 255 139 113 255
0.106934 -0.119083 0.687884 0.000152 1.000000 0.000236 255 139 113 255
-0.107248 0.119147 0.706175 -1.000000 -0.000127 0.000968 255 139 113 255
-0.107235 -0.119112 0.688009 -1.000000 -0.000127 0.000968 255 139 113 255
-0.107218 -0.119116 0.706153 -0.999999 -0.000127 0.000968 255 139 113 255
0.160515 0.119113 0.706045 -1.000000 0.000103 0.000968 255 139 113 255
0.160473 -0.119091 0.687842 -1.000000 0.000103 0.000968 255 139 113 255
0.160490 -0.119095 0.705986 -1.000000 0.000103 0.000968 255 139 113 255
0.026650 0.119136 0.706119 -1.000000 0.000027 0.000968 255 139 113 255
0.026626 -0.119071 0.687947 -0.999999 0.000027 0.000968 255 139 113 255
0.026644 -0.119075 0.706091 -1.000000 0.000027 0.000968 255 139 113 255
0.106969 0.119122 0.706074 -0.000172 -1.000000 -0.000236 255 139 113 255
0.160497 0.119117 0.687900 -0.000172 -1.000000 -0.000236 255 139 113 255
0.160515 0.119113 0.706045 -0.000172 -1.000000 -0.000236 255 139 113 255
-0.026904 0.119142 0.706144 -0.000117 -1.000000 -0.000236 255 139 113 255
0.026633 0.119140 0.687974 -0.000117 -1.000000 -0.000236 255 139 113 255
0.026650 0.119136 0.706119 -0.000117 -1.000000 -0.000236 255 139 113 255
0.106969 0.119122 0.706074 1.000000 -0.000073 -0.000968 255 139 113 255
0.106934 -0.119083 0.687884 0.999999 -0.000073 -0.000968 255 139 113 255
0.106952 0.119126 0.687930 1.000000 -0.000073 -0.000968 255 139 113 255
-0.160811 0.119151 0.706196 -0.000062 -1.000000 -0.000236 255 139 113 255
-0.107266 0.119151 0.688030 -0.000062 -1.000000 -0.000236 255 139 113 255
-0.107248 0.119147 0.706175 -0.000062 -1.000000 -0.000236 255 139 113 255
-0.026904 0.119142 0.706144 1.000000 0.000023 -0.000968 255 139 113 255
-0.026916 -0.119078 0.687978 1.000000 0.000023 -0.000968 255 139 113 255
-0.026922 0.119147 0.688000 0.999999 0.000023 -0.000968 255 139 113 255
-0.160811 0.119151 0.706196 1.000000 0.000197 -0.000968 255 139 113 255
-0.160782 -0.119134 0.688029 1.000000 0.000197 -0.000968 255 139 113 255
-0.160828 0.119155 0.688051 1.000000 0.000197 -0.000968 255 139 113 255
-0.160828 0.119155 0.688051 0.000384 -0.000092 1.000000 255 139 113 255
-0.160782 -0.119134 0.688029 0.000384 -0.000092 1.000000 255 139 113 255
-0.107235 -0.119112 0.688009 0.000384 -0.000092 1.000000 255 139 113 255
0.106934 -0.119083 0.687884 0.000784 -0.000246 1.000000 255 139 113 255
0.160473 -0.119091 0.687842 0.000784 -0.000246 1.000000 255 139 113 255
0.160497 0.119117 0.687900 0.000784 -0.000246 1.000000 255 139 113 255
-0.026922 0.119147 0.688000 0.000584 -0.000091 1.000000 255 139 113 255
-0.026916 -0.119078 0.687978 0.000584 -0.000091 1.000000 255 139 113 255
0.026626 -0.119071 0.687947 0.000584 -0.000091 1.000000 255 139 113 255
-0.160764 -0.119139 0.706174 -0.000422 1.000000 0.000237 255 139 113 255
-0.107218 -0.119116 0.706153 -0.000422 1.000000 0.000237 255 139 113 255
-0.107235 -0.119112 0.688009 -0.000422 1.000000 0.000237 255 139 113 255
-0.026898 -0.119082 0.706122 -0.000135 1.000000 0.000236 255 139 113 255
0.026644 -0.119075 0.706091 -0.000135 1.000000 0.000236 255 139 113 255
0.026626 -0.119071 0.687947 -0.000135 1.000000 0.000236 255 139 113 255
0.106952 -0.119087 0.706028 0.000152 1.000000 0.000236 255 139 113 255
0.160490 -0.119095 0.705986 0.000152 1.000000 0.000236 255 139 113 255
0.160473 -0.119091 0.687842 0.000152 1.000000 0.000236 255 139 113 255
-0.107248 0.119147 0.706175 -1.000000 -0.000127 0.000968 255 139 113 255
-0.107266 0.119151 0.688030 -0.999999 -0.000127 0.000968 255 139 113 255
-0.107235 -0.119112 0.688009 -1.000000 -0.000127 0.000968 255 139 113 255
0.160515 0.119113 0.706045 -1.000000 0.000103 0.000969 255 139 113 255
0.160497 0.119117 0.687900 -1.000000 0.000103 0.000969 255 139 113 255
0.160473 -0.119091 0.687842 -1.000000 0.000103 0.000969 255 139 113 255
0.026650 0.119136 0.706119 -0.999999 0.000027 0.000968 255 139 113 255
0.026633 0.119140 0.687974 -1.000000 0.000027 0.000968 255 139 113 255
0.026626 -0.119071 0.687947 -1.000000 0.000027 0.000968 255 139 113 255
0.106969 0.119122 0.706074 -0.000172 -1.000000 -0.000236 255 139 113 255
0.106952 0.119126 0.687930 -0.000172 -1.000000 -0.000236 255 139 113 255
0.160497 0.119117 0.687900 -0.000172 -1.000000 -0.000236 255 139 113 255
-0.026904 0.119142 0.706144 -0.000117 -1.000000 -0.000236 255 139 113 255
-0.026922 0.119147 0.688000 -0.000117 -1.000000 -0.000236 255 139 113 255
0.026633 0.119140 0.687974 -0.000117 -1.000000 -0.000236 255 139 113 255
0.106969 0.119122 0.706074 0.999999 -0.000073 -0.000968 255 139 113 255
0.106952 -0.119087 0.706028 1.000000 -0.000073 -0.000968 255 139 113 255
0.106934 -0.119083 0.687884 1.000000 -0.000073 -0.000968 255 139 113 255
-0.160811 0.119151 0.706196 -0.000062 -1.000000 -0.000236 255 139 113 255
-0.160828 0.119155 0.688051 -0.000062 -1.000000 -0.000236 255 139 113 255
-0.107266 0.119151 0.688030 -0.000062 -1.000000 -0.000236 255 139 113 255
-0.026904 0.119142 0.706144 1.000000 0.000023 -0.000968 255 139 113 255
-0.026898 -0.119082 0.706122 0.999999 0.000023 -0.000968 255 139 113 255
-0.026916 -0.119078 0.687978 1.000000 0.000023 -0.000968 255 139 113 255
-0.160811 0.119151 0.706196 0.999999 0.000197 -0.000969 255 139 113 255
-0.160764 -0.119139 0.706174 1.000000 0.000197 -0.000969 255 139 113 255
-0.160782 -0.119134 0.688029 1.000000 0.000197 -0.000969 255 139 113 255
0.000000 -0.750000 0.000000 0.000000 0.000000 1.000000 245 237 142 255
0.649519 0.375000 0.000000 0.000000 0.000000 1.000000 245 237 142 255
-0.649519 0.375000 0.000000 0.000000 0.000000 1.000000 245 237 142 255
-0.649519 0.375000 0.000000 0.000000 0.000000 1.000000 245 237 142 255
-0.649519 -0.375000 0.000000 0.000000 0.000000 1.000000 245 237 142 255
0.000000 -0.750000 0.000000 0.000000 0.000000 1.000000 245 237 142 255
0.000000 -0.750000 0.000000 0.000000 0.000000 1.000000 245 237 142 255
0.649519 -0.375000 0.000000 0.000000 0.000000 1.000000 245 237 142 255
0.649519 0.375000 0.000000 0.000000 0.000000 1.000000 245 237 142 255
0.649519 0.375000 0.000000 0.000000 0.000000 1.000000 245 237 142 255
0.000000 0.750000 0.000000 0.000000 0.000000 1.000000 245 237 142 255
-0.649519 0.375000 0.000000 0.000000 0.000000 1.000000 245 237 142 255
0.866025 0.500000 0.000000 0.000000 0.000000 1.000000 110 185 124 255
0.000000 0.750000 0.000000 0.000000 0.000000 1.000000 110 185 124 255
0.649519 0.375000 0.000000 0.000000 0.000000 1.000000 110 185 124 255
-0.866025 -0.500000 0.000000 0.000000 0.000000 1.000000 110 185 124 255
0.000000 -0.750000 0.000000 0.000000 0.000000 1.000000 110 185 124 255
-0.649519 -0.375000 0.000000 0.000000 0.000000 1.000000 110 185 124 255
0.000000 1.000000 0.000000 0.000000 0.000000 1.000000 110 185 124 255
-0.649519 0.375000 0.000000 0.000000 0.000000 1.000000 110 185 124 255
0.000000 0.750000 0.000000 0.000000 0.000000 1.000000 110 185 124 255
-0.866025 0.500000 0.000000 0.000000 0.000000 1.000000 110 185 124 255
-0.649519 -0.375000 0.000000 0.000000 0.000000 1.000000 110 185 124 255
-0.649519 0.375000 0.000000 0.000000 0.000000 1.000000 110 185 124 255
0.000000 -1.000000 0.000000 0.000000 0.000000 1.000000 110 185 124 255
0.649519 -0.375000 0.000000 0.000000 0.000000 1.000000 110 185 124 255
0.000000 -0.750000 0.000000 0.000000 0.000000 1.000000 110 185 124 255
0.866025 -0.500000 0.000000 0.000000 0.000000 1.000000 110 185 124 255
0.649519 0.375000 0.000000 0.000000 0.000000 1.000000 110 185 124 255
0.649519 -0.375000 0.000000 0.000000 0.000000 1.000000 110 185 124 255
0.866025 0.500000 0.000000 0.000000 0.000000 1.000000 110 185 124 255
0.000000 1.000000 0.000000 0.000000 0.000000 1.000000 110 185 124 255
0.000000 0.750000 0.000000 0.000000 0.000000 1.000000 110 185 124 255
-0.866025 -0.500000 0.000000 0.000000 0.000000 1.000000 110 185 124 255
0.000000 -1.000000 0.000000 0.000000 0.000000 1.000000 110 185 124 255
0.000000 -0.750000 0.000000 0.000000 0.000000 1.000000 110 185 124 255
0.000000 1.000000 0.000000 0.000000 0.000000 1.000000 110 185 124 255
-0.866025 0.500000 0.000000 0.000000 0.000000 1.000000 110 185 124 255
-0.649519 0.375000 0.000000 0.000000 0.000000 1.000000 110 185 124 255
-0.866025 0.500000 0.000000 0.000000 0.000000 1.000000 110 185 124 255
-0.866025 -0.500000 0.000000 0.000000 0.000000 1.000000 110 185 124 255
-0.649519 -0.375000 0.000000 0.000000 0.000000 1.000000 110 185 124 255
0.000000 -1.000000 0.000000 0.000000 0.000000 1.000000 110 185 124 255
0.866025 -0.500000 0.000000 0.000000 0.000000 1.000000 110 185 124 255
0.649519 -0.375000 0.000000 0.000000 0.000000 1.000000 110 185 124 255
0.866025 -0.500000 0.000000 0.000000 0.000000 1.000000 110 185 124 255
0.866025 0.500000 0.000000 0.000000 0.000000 1.000000 110 185 124 255
0.649519 0.375000 0.000000 0.000000 0.000000 1.000000 110 185 124 255
3 0 1 2
3 3 4 5
3 6 7 8
3 9 10 11
3 12 13 14
3 15 16 17
3 18 19 20
3 21 22 23
3 24 25 26
3 27 28 29
3 30 31 32
3 33 34 35
3 36 37 38
3 39 40 41
3 42 43 44
3 45 46 47
3 48 49 50
3 51 52 53
3 54 55 56
3 57 58 59
3 60 61 62
3 63 64 65
3 66 67 68
3 69 70 71
3 72 73 74
3 75 76 77
3 78 79 80
3 81 82 83
3 84 85 86
3 87 88 89
3 90 91 92
3 93 94 95
3 96 97 98
3 99 100 101
3 102 103 104
3 105 106 107
3 108 109 110
3 111 112 113
3 114 115 116
3 117 118 119
3 120 121 122
3 123 124 125
3 126 127 128
3 129 130 131
3 132 133 134
3 135 136 137
3 138 139 140
3 141 142 143
3 144 145 146
3 147 148 149
3 150 151 152
3 153 154 155
3 156 157 158
3 159 160 161
3 162 163 164
3 165 166 167
3 168 169 170
3 171 172 173
3 174 175 176
3 177 178 179
3 180 181 182
3 183 184 185
3 186 187 188
3 189 190 191
3 192 193 194
3 195 196 197
3 198 199 200
3 201 202 203
3 204 205 206
3 207 208 209
3 210 211 212
3 213 214 215
3 216 217 218
3 219 220 221
3 222 223 224
3 225 226 227
3 228 229 230
3 231 232 233
3 234 235 236
3 237 238 239
3 240 241 242
3 243 244 245
3 246 247 248
3 249 250 251
3 252 253 254
3 255 256 257
3 258 259 260
3 261 262 263
3 264 265 266
3 267 268 269
3 270 271 272
3 273 274 275
3 276 277 278
3 279 280 281
3 282 283 284
3 285 286 287
3 288 289 290
3 291 292 293
3 294 295 296
3 297 298 299
3 300 301 302
3 303 304 305
3 306 307 308
3 309 310 311
3 312 313 314
3 315 316 317
3 318 319 320
3 321 322 323
3 324 325 326
3 327 328 329
3 330 331 332
3 333 334 335
3 336 337 338
3 339 340 341
3 342 343 344
3 345 346 347
3 348 349 350
3 351 352 353
3 354 355 356
3 357 358 359
3 360 361 362
3 363 364 365
3 366 367 368
3 369 370 371
3 372 373 374
3 375 376 377
3 378 379 380
3 381 382 383
