ply
format ascii 1.0
comment Created by Blender 3.6.0 - www.blender.org
element vertex 498
property float x
property float y
property float z
property float nx
property float ny
property float nz
property uchar red
property uchar green
property uchar blue
property uchar alpha
element face 166
property list uchar uint vertex_indices
end_header
0.153020 -0.372565 0.128015 0.000000 -0.908327 -0.418261 209 139 145 255
-0.184390 -0.319373 0.012500 0.000000 -0.908327 -0.418261 209 139 145 255
0.184390 -0.319373 0.012500 0.000000 -0.908327 -0.418261 209 139 145 255
0.274484 0.350977 0.598269 0.513406 0.858146 0.000000 209 139 145 255
0.170483 0.413198 0.501588 0.513406 0.858146 0.000000 209 139 145 255
0.170483 0.413198 0.598269 0.513406 0.858146 0.000000 209 139 145 255
-0.272281 -0.354793 0.501588 -0.866025 -0.500000 0.000000 209 139 145 255
-0.443400 -0.058406 0.598269 -0.866025 -0.500000 0.000000 209 139 145 255
-0.443400 -0.058406 0.501588 -0.866025 -0.500000 0.000000 209 139 145 255
-0.245460 -0.319845 0.127994 -0.786783 -0.454249 -0.417888 209 139 145 255
-0.368780 -0.000001 0.012500 -0.786783 -0.454249 -0.417888 209 139 145 255
-0.184390 -0.319373 0.012500 -0.786783 -0.454249 -0.417888 209 139 145 255
-0.273989 0.351834 0.501588 -0.866025 0.500000 0.000000 209 139 145 255
-0.441692 0.061364 0.598269 -0.866025 0.500000 0.000000 209 139 145 255
-0.273989 0.351834 0.598269 -0.866025 0.500000 0.000000 209 139 145 255
-0.398360 0.055344 0.128045 -0.786418 0.454039 -0.418803 209 139 145 255
-0.184390 0.319372 0.012500 -0.786418 0.454039 -0.418804 209 139 145 255
-0.368780 -0.000001 0.012500 -0.786418 0.454039 -0.418803 209 139 145 255
-0.441692 0.061364 0.598269 -0.999898 0.014262 0.000000 209 139 145 255
-0.443400 -0.058406 0.501588 -0.999898 0.014262 0.000000 209 139 145 255
-0.443400 -0.058406 0.598269 -0.999898 0.014262 0.000000 209 139 145 255
-0.170483 0.413198 0.501588 -0.000000 1.000000 0.000000 209 139 145 255
0.170483 0.413198 0.598269 -0.000000 1.000000 0.000000 209 139 145 255
0.170483 0.413198 0.501588 -0.000000 1.000000 0.000000 209 139 145 255
-0.153702 0.372527 0.128003 -0.000000 0.908422 -0.418055 209 139 145 255
0.184390 0.319372 0.012500 -0.000000 0.908422 -0.418055 209 139 145 255
-0.184390 0.319372 0.012500 -0.000000 0.908422 -0.418055 209 139 145 255
0.274484 0.350977 0.501588 0.866025 0.500000 0.000000 209 139 145 255
0.441198 0.062220 0.598269 0.866025 0.500000 0.000000 209 139 145 255
0.441198 0.062220 0.501588 0.866025 0.500000 0.000000 209 139 145 255
0.397966 0.056124 0.128060 0.786309 0.453976 -0.419076 209 139 145 255
0.184390 0.319372 0.012500 0.786309 0.453976 -0.419076 209 139 145 255
0.247588 0.316586 0.128060 0.786309 0.453976 -0.419076 209 139 145 255
0.271185 -0.356691 0.501588 0.866025 -0.500000 0.000000 209 139 145 255
0.444496 -0.056508 0.598269 0.866025 -0.500000 0.000000 209 139 145 255
0.271185 -0.356691 0.598269 0.866025 -0.500000 0.000000 209 139 145 255
0.244406 -0.321468 0.127963 0.787008 -0.454379 -0.417322 209 139 145 255
0.368780 -0.000001 0.012500 0.787008 -0.454379 -0.417322 209 139 145 255
0.400602 -0.050928 0.127963 0.787008 -0.454379 -0.417322 209 139 145 255
0.169709 -0.413199 0.501588 0.000000 -1.000000 0.000000 209 139 145 255
-0.169709 -0.413199 0.598269 0.000000 -1.000000 0.000000 209 139 145 255
-0.169709 -0.413199 0.501588 0.000000 -1.000000 0.000000 209 139 145 255
-0.169709 -0.413199 0.501588 -0.492048 -0.862827 -0.115834 209 139 145 255
-0.245460 -0.319845 0.127994 -0.492048 -0.862827 -0.115834 209 139 145 255
-0.153019 -0.372565 0.128015 -0.492048 -0.862827 -0.115834 209 139 145 255
0.274484 0.350977 0.501588 0.509957 0.852383 -0.115703 209 139 145 255
0.153703 0.372527 0.128003 0.509957 0.852383 -0.115703 209 139 145 255
0.170483 0.413198 0.501588 0.509957 0.852383 -0.115703 209 139 145 255
-0.441692 0.061364 0.501588 -0.993161 0.014166 -0.115891 209 139 145 255
-0.399724 -0.052653 0.127994 -0.993161 0.014166 -0.115891 209 139 145 255
-0.443400 -0.058406 0.501588 -0.993161 0.014166 -0.115891 209 139 145 255
-0.273989 0.351834 0.501588 -0.505469 0.855095 -0.115387 209 139 145 255
-0.153702 0.372527 0.128003 -0.505469 0.855095 -0.115387 209 139 145 255
-0.247109 0.317317 0.128045 -0.505469 0.855095 -0.115387 209 139 145 255
0.360234 -0.045796 0.918971 -0.103790 -0.002883 -0.994595 209 139 145 255
0.088253 0.000369 0.947219 -0.103790 -0.002883 -0.994595 209 139 145 255
0.357561 0.050425 0.918971 -0.103790 -0.002883 -0.994595 209 139 145 255
0.222450 0.284443 0.918971 -0.053399 -0.089256 -0.994576 209 139 145 255
0.044262 0.076241 0.947222 -0.053399 -0.089256 -0.994576 209 139 145 255
0.138165 0.334869 0.918971 -0.053399 -0.089256 -0.994576 209 139 145 255
-0.138165 0.334869 0.918971 -0.493382 0.832211 0.252982 209 139 145 255
-0.273989 0.351834 0.598269 -0.493382 0.832211 0.252982 209 139 145 255
-0.222049 0.285137 0.918971 -0.493382 0.832211 0.252982 209 139 145 255
-0.359345 -0.047334 0.918971 0.094091 0.054323 -0.994080 209 139 145 255
-0.044071 -0.076493 0.947218 0.094091 0.054323 -0.994080 209 139 145 255
-0.220665 -0.287536 0.918971 0.094091 0.054323 -0.994080 209 139 145 255
-0.222049 0.285137 0.918971 0.094126 -0.054343 -0.994076 209 139 145 255
-0.088212 0.000191 0.947220 0.094126 -0.054343 -0.994076 209 139 145 255
-0.357961 0.049731 0.918971 0.094126 -0.054343 -0.994076 209 139 145 255
0.138165 0.334869 0.918971 0.000000 -0.108610 -0.994084 209 139 145 255
-0.044230 0.076297 0.947221 0.000000 -0.108610 -0.994084 209 139 145 255
-0.138165 0.334869 0.918971 0.000000 -0.108610 -0.994084 209 139 145 255
0.222450 0.284443 0.918971 -0.093985 -0.054454 -0.994083 209 139 145 255
0.088253 0.000369 0.947219 -0.093985 -0.054454 -0.994083 209 139 145 255
0.044262 0.076241 0.947222 -0.093985 -0.054454 -0.994083 209 139 145 255
0.360234 -0.045796 0.918971 -0.094064 0.054109 -0.994095 209 139 145 255
0.044002 -0.076618 0.947216 -0.094064 0.054109 -0.994095 209 139 145 255
0.088253 0.000369 0.947219 -0.094064 0.054109 -0.994095 209 139 145 255
-0.137537 -0.334870 0.918971 -0.000000 0.108723 -0.994072 209 139 145 255
0.044002 -0.076618 0.947216 -0.000000 0.108723 -0.994072 209 139 145 255
0.137537 -0.334870 0.918971 -0.000000 0.108723 -0.994072 209 139 145 255
-0.220665 -0.287536 0.918971 0.051341 0.090165 -0.994603 209 139 145 255
-0.044071 -0.076493 0.947218 0.051341 0.090165 -0.994603 209 139 145 255
-0.137537 -0.334870 0.918971 0.051341 0.090165 -0.994603 209 139 145 255
0.044002 -0.076618 0.947216 -0.001382 -0.966010 -0.258500 209 139 145 255
-0.044071 -0.076493 0.947218 -0.001382 -0.966010 -0.258500 209 139 145 255
0.000000 -0.000001 0.661132 -0.001382 -0.966010 -0.258500 209 139 145 255
-0.044230 0.076297 0.947221 0.000620 0.966252 -0.257596 209 139 145 255
0.044262 0.076241 0.947222 0.000620 0.966252 -0.257596 209 139 145 255
0.000000 -0.000001 0.661132 0.000620 0.966252 -0.257596 209 139 145 255
-0.044071 -0.076493 0.947218 -0.837365 -0.481999 -0.257871 209 139 145 255
-0.088212 0.000191 0.947220 -0.837365 -0.481999 -0.257871 209 139 145 255
0.000000 -0.000001 0.661132 -0.837365 -0.481999 -0.257871 209 139 145 255
0.088253 0.000369 0.947219 0.837689 -0.481477 -0.257791 209 139 145 255
0.044002 -0.076618 0.947216 0.837689 -0.481477 -0.257791 209 139 145 255
0.000000 -0.000001 0.661132 0.837689 -0.481477 -0.257791 209 139 145 255
0.044262 0.076241 0.947222 0.835710 0.484565 -0.258429 209 139 145 255
0.088253 0.000369 0.947219 0.835710 0.484565 -0.258429 209 139 145 255
0.000000 -0.000001 0.661132 0.835710 0.484565 -0.258429 209 139 145 255
-0.088212 0.000191 0.947220 -0.836450 0.483389 -0.258235 209 139 145 255
-0.044230 0.076297 0.947221 -0.836451 0.483389 -0.258235 209 139 145 255
0.000000 -0.000001 0.661132 -0.836451 0.483389 -0.258235 209 139 145 255
-0.088212 0.000191 0.947220 0.103887 -0.001482 -0.994588 209 139 145 255
-0.359345 -0.047334 0.918971 0.103887 -0.001482 -0.994588 209 139 145 255
-0.357961 0.049731 0.918971 0.103887 -0.001482 -0.994588 209 139 145 255
-0.441692 0.061364 0.598269 -0.967352 0.013797 0.253062 209 139 145 255
-0.359345 -0.047334 0.918971 -0.967352 0.013797 0.253062 209 139 145 255
-0.357961 0.049731 0.918971 -0.967352 0.013797 0.253062 209 139 145 255
0.044002 -0.076618 0.947216 -0.050409 0.090525 -0.994618 209 139 145 255
0.219777 -0.289074 0.918971 -0.050409 0.090525 -0.994618 209 139 145 255
0.137537 -0.334870 0.918971 -0.050409 0.090525 -0.994618 209 139 145 255
0.169709 -0.413199 0.598269 0.470604 -0.845108 0.253621 209 139 145 255
0.219777 -0.289074 0.918971 0.470604 -0.845108 0.253621 209 139 145 255
0.137537 -0.334870 0.918971 0.470604 -0.845108 0.253621 209 139 145 255
0.441198 0.062220 0.598269 0.967044 0.026865 0.253187 209 139 145 255
0.360234 -0.045796 0.918971 0.967044 0.026865 0.253187 209 139 145 255
0.444496 -0.056508 0.598269 0.967044 0.026865 0.253187 209 139 145 255
-0.272281 -0.354793 0.501588 -0.494816 -0.868998 0.000000 209 139 145 255
-0.169709 -0.413199 0.598269 -0.494816 -0.868998 0.000000 209 139 145 255
-0.272281 -0.354793 0.598269 -0.494816 -0.868998 0.000000 209 139 145 255
-0.170483 0.413198 0.598269 -0.509971 0.860191 0.000000 209 139 145 255
-0.273989 0.351834 0.501588 -0.509971 0.860192 0.000000 209 139 145 255
-0.273989 0.351834 0.598269 -0.509971 0.860191 0.000000 209 139 145 255
0.274484 0.350977 0.598269 0.496723 0.830263 0.252843 209 139 145 255
0.138165 0.334869 0.918971 0.496723 0.830263 0.252843 209 139 145 255
0.222450 0.284443 0.918971 0.496723 0.830263 0.252843 209 139 145 255
-0.044230 0.076297 0.947221 0.053006 -0.089408 -0.994584 209 139 145 255
-0.222049 0.285137 0.918971 0.053006 -0.089408 -0.994584 209 139 145 255
-0.138165 0.334869 0.918971 0.053006 -0.089408 -0.994584 209 139 145 255
0.444496 -0.056508 0.598269 0.999614 0.027770 0.000000 209 139 145 255
0.441198 0.062220 0.501588 0.999614 0.027770 0.000000 209 139 145 255
0.441198 0.062220 0.598269 0.999614 0.027770 0.000000 209 139 145 255
-0.169709 -0.413199 0.598269 -0.478674 -0.840648 0.253341 209 139 145 255
-0.220665 -0.287536 0.918971 -0.478674 -0.840648 0.253341 209 139 145 255
-0.272281 -0.354793 0.598269 -0.478674 -0.840648 0.253341 209 139 145 255
0.271185 -0.356691 0.501588 0.486511 -0.873674 0.000000 209 139 145 255
0.169709 -0.413199 0.598269 0.486511 -0.873674 0.000000 209 139 145 255
0.169709 -0.413199 0.501588 0.486511 -0.873674 0.000000 209 139 145 255
0.219777 -0.289074 0.918971 0.483131 -0.278936 0.829927 209 139 145 255
0.282447 -0.035907 0.967577 0.483131 -0.278936 0.829927 209 139 145 255
0.172320 -0.226653 0.967577 0.483131 -0.278936 0.829927 209 139 145 255
0.357561 0.050425 0.918971 0.483131 0.278936 0.829927 209 139 145 255
0.175365 0.224236 0.966616 0.483131 0.278936 0.829927 209 139 145 255
0.281877 0.039752 0.966616 0.483131 0.278936 0.829927 209 139 145 255
0.172320 -0.226653 0.967577 0.258198 -0.463671 0.847551 209 139 145 255
0.137537 -0.334870 0.918971 0.258198 -0.463671 0.847551 209 139 145 255
0.219777 -0.289074 0.918971 0.258198 -0.463671 0.847551 209 139 145 255
0.169709 -0.413199 0.501588 0.483202 -0.867732 -0.116437 209 139 145 255
0.244406 -0.321468 0.127963 0.483202 -0.867732 -0.116437 209 139 145 255
0.271185 -0.356691 0.501588 0.483202 -0.867732 -0.116437 209 139 145 255
0.441198 0.062220 0.501588 0.993024 0.024558 -0.115331 209 139 145 255
0.400602 -0.050928 0.127963 0.993024 0.024558 -0.115331 209 139 145 255
0.397966 0.056124 0.128060 0.993023 0.024558 -0.115331 209 139 145 255
0.368780 -0.000001 0.012500 0.966442 0.024031 -0.255760 209 139 145 255
0.397966 0.056124 0.128060 0.966442 0.024031 -0.255760 209 139 145 255
0.400602 -0.050928 0.127963 0.966442 0.024031 -0.255760 209 139 145 255
0.247588 0.316586 0.128060 0.495591 0.831502 -0.250986 209 139 145 255
0.184390 0.319372 0.012500 0.495591 0.831502 -0.250986 209 139 145 255
0.153703 0.372527 0.128003 0.495591 0.831502 -0.250986 209 139 145 255
-0.184390 0.319372 0.012500 -0.492427 0.832927 -0.252482 209 139 145 255
-0.247109 0.317317 0.128045 -0.492427 0.832927 -0.252482 209 139 145 255
-0.153702 0.372527 0.128003 -0.492427 0.832927 -0.252482 209 139 145 255
-0.368780 -0.000001 0.012500 -0.967249 0.012337 -0.253529 209 139 145 255
-0.399724 -0.052653 0.127994 -0.967249 0.012337 -0.253529 209 139 145 255
-0.398360 0.055344 0.128045 -0.967249 0.012337 -0.253529 209 139 145 255
-0.184390 -0.319373 0.012500 -0.478773 -0.839605 -0.256595 209 139 145 255
-0.153019 -0.372565 0.128015 -0.478773 -0.839605 -0.256595 209 139 145 255
-0.245460 -0.319845 0.127994 -0.478773 -0.839604 -0.256595 209 139 145 255
0.184390 -0.319373 0.012500 0.471102 -0.842838 -0.260168 209 139 145 255
0.244406 -0.321468 0.127963 0.471102 -0.842838 -0.260168 209 139 145 255
0.153020 -0.372565 0.128015 0.471102 -0.842838 -0.260168 209 139 145 255
0.108585 0.263175 0.967162 0.273114 0.456505 0.846766 209 139 145 255
0.222450 0.284443 0.918971 0.273114 0.456505 0.846766 209 139 145 255
0.138165 0.334869 0.918971 0.273114 0.456505 0.846766 209 139 145 255
-0.138165 0.334869 0.918971 -0.000000 0.557871 0.829928 209 139 145 255
0.108585 0.263175 0.967162 -0.000000 0.557871 0.829928 209 139 145 255
0.138165 0.334869 0.918971 -0.000000 0.557871 0.829928 209 139 145 255
-0.222049 0.285137 0.918971 -0.271173 0.457400 0.846907 209 139 145 255
-0.108585 0.263175 0.967162 -0.271173 0.457400 0.846907 209 139 145 255
-0.138165 0.334869 0.918971 -0.271173 0.457400 0.846907 209 139 145 255
-0.222049 0.285137 0.918971 -0.483130 0.278935 0.829928 209 139 145 255
-0.281966 0.039173 0.966759 -0.483130 0.278935 0.829928 209 139 145 255
-0.174908 0.224602 0.966759 -0.483130 0.278935 0.829928 209 139 145 255
-0.282263 -0.037181 0.967255 -0.531557 0.007582 0.846988 209 139 145 255
-0.357961 0.049731 0.918971 -0.531557 0.007582 0.846988 209 139 145 255
-0.359345 -0.047334 0.918971 -0.531557 0.007582 0.846988 209 139 145 255
-0.220665 -0.287536 0.918971 -0.483130 -0.278935 0.829928 209 139 145 255
-0.282263 -0.037181 0.967255 -0.483130 -0.278935 0.829928 209 139 145 255
-0.359345 -0.047334 0.918971 -0.483130 -0.278935 0.829928 209 139 145 255
-0.137537 -0.334870 0.918971 -0.262828 -0.461579 0.847270 209 139 145 255
-0.173331 -0.225858 0.967255 -0.262828 -0.461579 0.847270 209 139 145 255
-0.220665 -0.287536 0.918971 -0.262828 -0.461579 0.847270 209 139 145 255
0.137537 -0.334870 0.918971 0.000000 -0.557871 0.829928 209 139 145 255
-0.108160 -0.263344 0.967050 0.000000 -0.557871 0.829928 209 139 145 255
-0.137537 -0.334870 0.918971 0.000000 -0.557871 0.829928 209 139 145 255
0.357561 0.050425 0.918971 0.531206 0.014758 0.847114 209 139 145 255
0.282447 -0.035907 0.967577 0.531206 0.014758 0.847114 209 139 145 255
0.360234 -0.045796 0.918971 0.531206 0.014758 0.847114 209 139 145 255
-0.173331 -0.225858 0.967255 -0.213757 -0.376565 0.901392 209 139 145 255
-0.108160 -0.263344 0.967050 -0.213757 -0.376565 0.901392 209 139 145 255
-0.000038 0.000152 1.102768 -0.213757 -0.376565 0.901392 209 139 145 255
-0.108160 -0.263344 0.967050 -0.000000 -0.457897 0.889005 209 139 145 255
0.108161 -0.263344 0.967050 -0.000000 -0.457897 0.889005 209 139 145 255
-0.000038 0.000152 1.102768 -0.000000 -0.457897 0.889005 209 139 145 255
0.108161 -0.263344 0.967050 0.209079 -0.378558 0.901654 209 139 145 255
0.172320 -0.226653 0.967577 0.209079 -0.378558 0.901654 209 139 145 255
-0.000038 0.000152 1.102768 0.209079 -0.378558 0.901654 209 139 145 255
0.172320 -0.226653 0.967577 0.396316 -0.228813 0.889145 209 139 145 255
0.282447 -0.035907 0.967577 0.396316 -0.228813 0.889145 209 139 145 255
-0.000038 0.000152 1.102768 0.396316 -0.228813 0.889145 209 139 145 255
0.282447 -0.035907 0.967577 0.433168 0.014705 0.901193 209 139 145 255
0.281877 0.039752 0.966616 0.433168 0.014705 0.901193 209 139 145 255
-0.000038 0.000152 1.102768 0.433168 0.014705 0.901193 209 139 145 255
0.175365 0.224236 0.966616 0.397016 0.229217 0.888728 209 139 145 255
-0.000038 0.000152 1.102768 0.397016 0.229217 0.888728 209 139 145 255
0.281877 0.039752 0.966616 0.397016 0.229217 0.888728 209 139 145 255
0.108585 0.263175 0.967162 0.224190 0.371843 0.900817 209 139 145 255
-0.000038 0.000152 1.102768 0.224190 0.371843 0.900817 209 139 145 255
0.175365 0.224236 0.966616 0.224190 0.371843 0.900817 209 139 145 255
-0.108585 0.263175 0.967162 -0.000000 0.458246 0.888825 209 139 145 255
-0.000038 0.000152 1.102768 -0.000000 0.458246 0.888825 209 139 145 255
0.108585 0.263175 0.967162 -0.000000 0.458246 0.888825 209 139 145 255
-0.174908 0.224602 0.966759 -0.222271 0.372752 0.900917 209 139 145 255
-0.000038 0.000152 1.102768 -0.222271 0.372752 0.900917 209 139 145 255
-0.108585 0.263175 0.967162 -0.222271 0.372752 0.900917 209 139 145 255
-0.281966 0.039173 0.966759 -0.397019 0.229219 0.888727 209 139 145 255
-0.000038 0.000152 1.102768 -0.397019 0.229219 0.888727 209 139 145 255
-0.174908 0.224602 0.966759 -0.397019 0.229219 0.888727 209 139 145 255
-0.281966 0.039173 0.966759 -0.433645 0.007551 0.901052 209 139 145 255
-0.282263 -0.037181 0.967255 -0.433645 0.007551 0.901052 209 139 145 255
-0.000038 0.000152 1.102768 -0.433645 0.007551 0.901052 209 139 145 255
-0.173331 -0.225858 0.967255 -0.396570 -0.228960 0.888994 209 139 145 255
-0.000038 0.000152 1.102768 -0.396570 -0.228960 0.888994 209 139 145 255
-0.282263 -0.037181 0.967255 -0.396570 -0.228960 0.888994 209 139 145 255
0.153020 -0.372565 0.128015 0.000000 -0.908327 -0.418260 209 139 145 255
-0.153019 -0.372565 0.128015 0.000000 -0.908327 -0.418260 209 139 145 255
-0.184390 -0.319373 0.012500 0.000000 -0.908327 -0.418260 209 139 145 255
0.274484 0.350977 0.598269 0.513406 0.858146 0.000000 209 139 145 255
0.274484 0.350977 0.501588 0.513406 0.858146 0.000000 209 139 145 255
0.170483 0.413198 0.501588 0.513406 0.858146 0.000000 209 139 145 255
-0.272281 -0.354793 0.501588 -0.866025 -0.500000 0.000000 209 139 145 255
-0.272281 -0.354793 0.598269 -0.866025 -0.500000 0.000000 209 139 145 255
-0.443400 -0.058406 0.598269 -0.866025 -0.500000 0.000000 209 139 145 255
-0.245460 -0.319845 0.127994 -0.786783 -0.454249 -0.417889 209 139 145 255
-0.399724 -0.052653 0.127994 -0.786783 -0.454249 -0.417889 209 139 145 255
-0.368780 -0.000001 0.012500 -0.786783 -0.454249 -0.417889 209 139 145 255
-0.273989 0.351834 0.501588 -0.866025 0.500000 0.000000 209 139 145 255
-0.441692 0.061364 0.501588 -0.866025 0.500000 0.000000 209 139 145 255
-0.441692 0.061364 0.598269 -0.866025 0.500000 0.000000 209 139 145 255
-0.398360 0.055344 0.128045 -0.786418 0.454038 -0.418803 209 139 145 255
-0.247109 0.317317 0.128045 -0.786418 0.454038 -0.418803 209 139 145 255
-0.184390 0.319372 0.012500 -0.786418 0.454038 -0.418803 209 139 145 255
-0.441692 0.061364 0.598269 -0.999898 0.014262 0.000000 209 139 145 255
-0.441692 0.061364 0.501588 -0.999898 0.014262 0.000000 209 139 145 255
-0.443400 -0.058406 0.501588 -0.999898 0.014262 0.000000 209 139 145 255
-0.170483 0.413198 0.501588 -0.000000 1.000000 0.000000 209 139 145 255
-0.170483 0.413198 0.598269 -0.000000 1.000000 0.000000 209 139 145 255
0.170483 0.413198 0.598269 -0.000000 1.000000 0.000000 209 139 145 255
-0.153702 0.372527 0.128003 0.000000 0.908422 -0.418055 209 139 145 255
0.153703 0.372527 0.128003 0.000000 0.908422 -0.418055 209 139 145 255
0.184390 0.319372 0.012500 0.000000 0.908422 -0.418055 209 139 145 255
0.274484 0.350977 0.501588 0.866025 0.500000 0.000000 209 139 145 255
0.274484 0.350977 0.598269 0.866025 0.500000 0.000000 209 139 145 255
0.441198 0.062220 0.598269 0.866025 0.500000 0.000000 209 139 145 255
0.397966 0.056124 0.128060 0.786309 0.453976 -0.419076 209 139 145 255
0.368780 -0.000001 0.012500 0.786309 0.453976 -0.419076 209 139 145 255
0.184390 0.319372 0.012500 0.786309 0.453976 -0.419076 209 139 145 255
0.271185 -0.356691 0.501588 0.866025 -0.500000 0.000000 209 139 145 255
0.444496 -0.056508 0.501588 0.866025 -0.500000 0.000000 209 139 145 255
0.444496 -0.056508 0.598269 0.866025 -0.500000 0.000000 209 139 145 255
0.244406 -0.321468 0.127963 0.787008 -0.454379 -0.417323 209 139 145 255
0.184390 -0.319373 0.012500 0.787008 -0.454379 -0.417323 209 139 145 255
0.368780 -0.000001 0.012500 0.787008 -0.454379 -0.417323 209 139 145 255
0.169709 -0.413199 0.501588 0.000000 -1.000000 0.000000 209 139 145 255
0.169709 -0.413199 0.598269 0.000000 -1.000000 0.000000 209 139 145 255
-0.169709 -0.413199 0.598269 0.000000 -1.000000 0.000000 209 139 145 255
-0.169709 -0.413199 0.501588 -0.491474 -0.863129 -0.116025 209 139 145 255
-0.272281 -0.354793 0.501588 -0.491474 -0.863129 -0.116025 209 139 145 255
-0.245460 -0.319845 0.127994 -0.491474 -0.863129 -0.116025 209 139 145 255
0.274484 0.350977 0.501588 0.508507 0.853319 -0.115181 209 139 145 255
0.247588 0.316586 0.128060 0.508507 0.853319 -0.115180 209 139 145 255
0.153703 0.372527 0.128003 0.508507 0.853319 -0.115180 209 139 145 255
-0.441692 0.061364 0.501588 -0.993237 0.012600 -0.115422 209 139 145 255
-0.398360 0.055344 0.128045 -0.993237 0.012600 -0.115422 209 139 145 255
-0.399724 -0.052653 0.127994 -0.993237 0.012600 -0.115422 209 139 145 255
-0.273989 0.351834 0.501588 -0.506542 0.854408 -0.115770 209 139 145 255
-0.170483 0.413198 0.501588 -0.506542 0.854408 -0.115770 209 139 145 255
-0.153702 0.372527 0.128003 -0.506542 0.854408 -0.115770 209 139 145 255
-0.138165 0.334869 0.918971 -0.493382 0.832210 0.252982 209 139 145 255
-0.170483 0.413198 0.598269 -0.493382 0.832210 0.252982 209 139 145 255
-0.273989 0.351834 0.598269 -0.493382 0.832210 0.252982 209 139 145 255
-0.359345 -0.047334 0.918971 0.094078 0.054182 -0.994089 209 139 145 255
-0.088212 0.000191 0.947220 0.094078 0.054182 -0.994089 209 139 145 255
-0.044071 -0.076493 0.947218 0.094078 0.054182 -0.994089 209 139 145 255
-0.222049 0.285137 0.918971 0.094085 -0.054363 -0.994079 209 139 145 255
-0.044230 0.076297 0.947221 0.094085 -0.054363 -0.994079 209 139 145 255
-0.088212 0.000191 0.947220 0.094085 -0.054363 -0.994079 209 139 145 255
0.138165 0.334869 0.918971 -0.000058 -0.108569 -0.994089 209 139 145 255
0.044262 0.076241 0.947222 -0.000058 -0.108569 -0.994089 209 139 145 255
-0.044230 0.076297 0.947221 -0.000058 -0.108569 -0.994089 209 139 145 255
0.222450 0.284443 0.918971 -0.094166 -0.054367 -0.994071 209 139 145 255
0.357561 0.050425 0.918971 -0.094166 -0.054367 -0.994071 209 139 145 255
0.088253 0.000369 0.947219 -0.094166 -0.054367 -0.994071 209 139 145 255
0.360234 -0.045796 0.918971 -0.094084 0.054319 -0.994081 209 139 145 255
0.219777 -0.289074 0.918971 -0.094084 0.054319 -0.994081 209 139 145 255
0.044002 -0.076618 0.947216 -0.094084 0.054319 -0.994081 209 139 145 255
-0.137537 -0.334870 0.918971 0.000128 0.108634 -0.994082 209 139 145 255
-0.044071 -0.076493 0.947218 0.000128 0.108634 -0.994082 209 139 145 255
0.044002 -0.076618 0.947216 0.000128 0.108634 -0.994082 209 139 145 255
-0.441692 0.061364 0.598269 -0.967351 0.013798 0.253062 209 139 145 255
-0.443400 -0.058406 0.598269 -0.967351 0.013798 0.253062 209 139 145 255
-0.359345 -0.047334 0.918971 -0.967352 0.013798 0.253062 209 139 145 255
0.169709 -0.413199 0.598269 0.470604 -0.845108 0.253621 209 139 145 255
0.271185 -0.356691 0.598269 0.470604 -0.845108 0.253621 209 139 145 255
0.219777 -0.289074 0.918971 0.470604 -0.845108 0.253621 209 139 145 255
0.441198 0.062220 0.598269 0.967044 0.026866 0.253187 209 139 145 255
0.357561 0.050425 0.918971 0.967044 0.026866 0.253187 209 139 145 255
0.360234 -0.045796 0.918971 0.967044 0.026866 0.253187 209 139 145 255
-0.272281 -0.354793 0.501588 -0.494816 -0.868998 0.000000 209 139 145 255
-0.169709 -0.413199 0.501588 -0.494816 -0.868998 0.000000 209 139 145 255
-0.169709 -0.413199 0.598269 -0.494816 -0.868998 0.000000 209 139 145 255
-0.170483 0.413198 0.598269 -0.509971 0.860192 0.000000 209 139 145 255
-0.170483 0.413198 0.501588 -0.509971 0.860191 0.000000 209 139 145 255
-0.273989 0.351834 0.501588 -0.509971 0.860191 0.000000 209 139 145 255
0.274484 0.350977 0.598269 0.496724 0.830263 0.252843 209 139 145 255
0.170483 0.413198 0.598269 0.496724 0.830263 0.252843 209 139 145 255
0.138165 0.334869 0.918971 0.496724 0.830263 0.252843 209 139 145 255
0.444496 -0.056508 0.598269 0.999614 0.027770 0.000000 209 139 145 255
0.444496 -0.056508 0.501588 0.999614 0.027770 0.000000 209 139 145 255
0.441198 0.062220 0.501588 0.999614 0.027770 0.000000 209 139 145 255
-0.169709 -0.413199 0.598269 -0.478673 -0.840648 0.253341 209 139 145 255
-0.137537 -0.334870 0.918971 -0.478673 -0.840648 0.253341 209 139 145 255
-0.220665 -0.287536 0.918971 -0.478673 -0.840648 0.253341 209 139 145 255
0.271185 -0.356691 0.501588 0.486511 -0.873674 0.000000 209 139 145 255
0.271185 -0.356691 0.598269 0.486511 -0.873674 0.000000 209 139 145 255
0.169709 -0.413199 0.598269 0.486511 -0.873674 0.000000 209 139 145 255
0.219777 -0.289074 0.918971 0.483130 -0.278935 0.829928 209 139 145 255
0.360234 -0.045796 0.918971 0.483130 -0.278935 0.829928 209 139 145 255
0.282447 -0.035907 0.967577 0.483130 -0.278935 0.829928 209 139 145 255
0.357561 0.050425 0.918971 0.483130 0.278935 0.829928 209 139 145 255
0.222450 0.284443 0.918971 0.483130 0.278935 0.829928 209 139 145 255
0.175365 0.224236 0.966616 0.483130 0.278935 0.829928 209 139 145 255
0.172320 -0.226653 0.967577 0.258198 -0.463671 0.847551 209 139 145 255
0.108161 -0.263344 0.967050 0.258198 -0.463671 0.847551 209 139 145 255
0.137537 -0.334870 0.918971 0.258198 -0.463671 0.847551 209 139 145 255
0.169709 -0.413199 0.501588 0.484678 -0.866973 -0.115955 209 139 145 255
0.153020 -0.372565 0.128015 0.484678 -0.866973 -0.115955 209 139 145 255
0.244406 -0.321468 0.127963 0.484678 -0.866973 -0.115955 209 139 145 255
0.441198 0.062220 0.501588 0.992840 0.027582 -0.116227 209 139 145 255
0.444496 -0.056508 0.501588 0.992840 0.027582 -0.116227 209 139 145 255
0.400602 -0.050928 0.127963 0.992840 0.027582 -0.116227 209 139 145 255
0.108585 0.263175 0.967162 0.273114 0.456504 0.846766 209 139 145 255
0.175365 0.224236 0.966616 0.273114 0.456504 0.846766 209 139 145 255
0.222450 0.284443 0.918971 0.273114 0.456504 0.846766 209 139 145 255
-0.138165 0.334869 0.918971 -0.000000 0.557871 0.829928 209 139 145 255
-0.108585 0.263175 0.967162 -0.000000 0.557871 0.829928 209 139 145 255
0.108585 0.263175 0.967162 -0.000000 0.557871 0.829928 209 139 145 255
-0.222049 0.285137 0.918971 -0.271173 0.457400 0.846906 209 139 145 255
-0.174908 0.224602 0.966759 -0.271173 0.457400 0.846906 209 139 145 255
-0.108585 0.263175 0.967162 -0.271173 0.457400 0.846907 209 139 145 255
-0.222049 0.285137 0.918971 -0.483130 0.278935 0.829928 209 139 145 255
-0.357961 0.049731 0.918971 -0.483130 0.278935 0.829928 209 139 145 255
-0.281966 0.039173 0.966759 -0.483130 0.278935 0.829928 209 139 145 255
-0.282263 -0.037181 0.967255 -0.531557 0.007581 0.846988 209 139 145 255
-0.281966 0.039173 0.966759 -0.531557 0.007581 0.846988 209 139 145 255
-0.357961 0.049731 0.918971 -0.531558 0.007581 0.846988 209 139 145 255
-0.220665 -0.287536 0.918971 -0.483130 -0.278935 0.829928 209 139 145 255
-0.173331 -0.225858 0.967255 -0.483130 -0.278935 0.829928 209 139 145 255
-0.282263 -0.037181 0.967255 -0.483130 -0.278935 0.829928 209 139 145 255
-0.137537 -0.334870 0.918971 -0.262828 -0.461579 0.847270 209 139 145 255
-0.108160 -0.263344 0.967050 -0.262828 -0.461579 0.847270 209 139 145 255
-0.173331 -0.225858 0.967255 -0.262828 -0.461579 0.847270 209 139 145 255
0.137537 -0.334870 0.918971 -0.000000 -0.557871 0.829927 209 139 145 255
0.108161 -0.263344 0.967050 -0.000000 -0.557871 0.829927 209 139 145 255
-0.108160 -0.263344 0.967050 -0.000000 -0.557871 0.829927 209 139 145 255
0.357561 0.050425 0.918971 0.531207 0.014756 0.847114 209 139 145 255
0.281877 0.039752 0.966616 0.531207 0.014756 0.847114 209 139 145 255
0.282447 -0.035907 0.967577 0.531207 0.014756 0.847114 209 139 145 255
0.008660 -0.015000 0.940107 0.232588 -0.972575 0.000000 255 228 251 255
0.000000 -0.017071 -0.000107 0.232588 -0.972575 0.000000 255 228 251 255
0.008660 -0.015000 -0.000107 0.232588 -0.972575 0.000000 255 228 251 255
0.000000 -0.017071 0.940107 -0.232588 -0.972575 0.000000 255 228 251 255
-0.008660 -0.015000 -0.000107 -0.232588 -0.972575 0.000000 255 228 251 255
0.000000 -0.017071 -0.000107 -0.232588 -0.972575 0.000000 255 228 251 255
-0.017321 0.000000 -0.000107 -0.958569 -0.284861 0.000000 255 228 251 255
-0.014784 -0.008536 0.940107 -0.958569 -0.284861 0.000000 255 228 251 255
-0.017321 0.000000 0.940107 -0.958569 -0.284861 0.000000 255 228 251 255
-0.014784 -0.008536 -0.000107 -0.725981 -0.687715 0.000000 255 228 251 255
-0.008660 -0.015000 0.940107 -0.725981 -0.687715 0.000000 255 228 251 255
-0.014784 -0.008536 0.940107 -0.725981 -0.687715 0.000000 255 228 251 255
-0.008660 0.015000 -0.000107 -0.725981 0.687715 0.000000 255 228 251 255
-0.014784 0.008536 0.940107 -0.725981 0.687715 0.000000 255 228 251 255
-0.008660 0.015000 0.940107 -0.725981 0.687715 0.000000 255 228 251 255
-0.014784 0.008536 -0.000107 -0.958569 0.284861 0.000000 255 228 251 255
-0.017321 0.000000 0.940107 -0.958569 0.284861 0.000000 255 228 251 255
-0.014784 0.008536 0.940107 -0.958569 0.284861 0.000000 255 228 251 255
0.008660 0.015000 -0.000107 0.232588 0.972575 0.000000 255 228 251 255
0.000000 0.017071 0.940107 0.232588 0.972575 0.000000 255 228 251 255
0.008660 0.015000 0.940107 0.232588 0.972575 0.000000 255 228 251 255
0.000000 0.017071 -0.000107 -0.232588 0.972575 0.000000 255 228 251 255
-0.008660 0.015000 0.940107 -0.232588 0.972575 0.000000 255 228 251 255
0.000000 0.017071 0.940107 -0.232588 0.972575 0.000000 255 228 251 255
0.017321 0.000000 -0.000107 0.958569 0.284861 0.000000 255 228 251 255
0.014784 0.008536 0.940107 0.958569 0.284861 0.000000 255 228 251 255
0.017321 0.000000 0.940107 0.958569 0.284861 0.000000 255 228 251 255
0.014784 0.008536 -0.000107 0.725981 0.687715 0.000000 255 228 251 255
0.008660 0.015000 0.940107 0.725981 0.687715 0.000000 255 228 251 255
0.014784 0.008536 0.940107 0.725981 0.687715 0.000000 255 228 251 255
0.008660 -0.015000 -0.000107 0.725981 -0.687715 0.000000 255 228 251 255
0.014784 -0.008536 0.940107 0.725981 -0.687715 0.000000 255 228 251 255
0.008660 -0.015000 0.940107 0.725981 -0.687715 0.000000 255 228 251 255
0.014784 -0.008536 -0.000107 0.958569 -0.284861 0.000000 255 228 251 255
0.017321 0.000000 0.940107 0.958569 -0.284861 0.000000 255 228 251 255
0.014784 -0.008536 0.940107 0.958569 -0.284861 0.000000 255 228 251 255
0.008660 -0.015000 0.940107 0.232588 -0.972575 0.000000 255 228 251 255
0.000000 -0.017071 0.940107 0.232588 -0.972575 0.000000 255 228 251 255
0.000000 -0.017071 -0.000107 0.232588 -0.972575 0.000000 255 228 251 255
0.000000 -0.017071 0.940107 -0.232588 -0.972575 0.000000 255 228 251 255
-0.008660 -0.015000 0.940107 -0.232588 -0.972575 0.000000 255 228 251 255
-0.008660 -0.015000 -0.000107 -0.232588 -0.972575 0.000000 255 228 251 255
-0.017321 0.000000 -0.000107 -0.958569 -0.284861 0.000000 255 228 251 255
-0.014784 -0.008536 -0.000107 -0.958569 -0.284861 0.000000 255 228 251 255
-0.014784 -0.008536 0.940107 -0.958569 -0.284861 0.000000 255 228 251 255
-0.014784 -0.008536 -0.000107 -0.725981 -0.687715 0.000000 255 228 251 255
-0.008660 -0.015000 -0.000107 -0.725981 -0.687715 0.000000 255 228 251 255
-0.008660 -0.015000 0.940107 -0.725981 -0.687715 0.000000 255 228 251 255
-0.008660 0.015000 -0.000107 -0.725981 0.687715 0.000000 255 228 251 255
-0.014784 0.008536 -0.000107 -0.725981 0.687715 0.000000 255 228 251 255
-0.014784 0.008536 0.940107 -0.725981 0.687715 0.000000 255 228 251 255
-0.014784 0.008536 -0.000107 -0.958569 0.284861 0.000000 255 228 251 255
-0.017321 0.000000 -0.000107 -0.958569 0.284861 0.000000 255 228 251 255
-0.017321 0.000000 0.940107 -0.958569 0.284861 0.000000 255 228 251 255
0.008660 0.015000 -0.000107 0.232588 0.972575 0.000000 255 228 251 255
0.000000 0.017071 -0.000107 0.232588 0.972575 0.000000 255 228 251 255
0.000000 0.017071 0.940107 0.232588 0.972575 0.000000 255 228 251 255
0.000000 0.017071 -0.000107 -0.232588 0.972575 0.000000 255 228 251 255
-0.008660 0.015000 -0.000107 -0.232588 0.972575 0.000000 255 228 251 255
-0.008660 0.015000 0.940107 -0.232588 0.972575 0.000000 255 228 251 255
0.017321 0.000000 -0.000107 0.958569 0.284861 0.000000 255 228 251 255
0.014784 0.008536 -0.000107 0.958569 0.284861 0.000000 255 228 251 255
0.014784 0.008536 0.940107 0.958569 0.284861 0.000000 255 228 251 255
0.014784 0.008536 -0.000107 0.725981 0.687715 0.000000 255 228 251 255
0.008660 0.015000 -0.000107 0.725981 0.687715 0.000000 255 228 251 255
0.008660 0.015000 0.940107 0.725981 0.687715 0.000000 255 228 251 255
0.008660 -0.015000 -0.000107 0.725981 -0.687715 0.000000 255 228 251 255
0.014784 -0.008536 -0.000107 0.725981 -0.687715 0.000000 255 228 251 255
0.014784 -0.008536 0.940107 0.725981 -0.687715 0.000000 255 228 251 255
0.014784 -0.008536 -0.000107 0.958569 -0.284861 0.000000 255 228 251 255
0.017321 0.000000 -0.000107 0.958569 -0.284861 0.000000 255 228 251 255
0.017321 0.000000 0.940107 0.958569 -0.284861 0.000000 255 228 251 255
0.000000 -0.750000 0.000000 0.000000 0.000000 1.000000 240 231 160 255
0.649519 0.375000 0.000000 0.000000 0.000000 1.000000 240 231 160 255
-0.649519 0.375000 0.000000 0.000000 0.000000 1.000000 240 231 160 255
-0.649519 0.375000 0.000000 0.000000 0.000000 1.000000 240 231 160 255
-0.649519 -0.375000 0.000000 0.000000 0.000000 1.000000 240 231 160 255
0.000000 -0.750000 0.000000 0.000000 0.000000 1.000000 240 231 160 255
0.000000 -0.750000 0.000000 0.000000 0.000000 1.000000 240 231 160 255
0.649519 -0.375000 0.000000 0.000000 0.000000 1.000000 240 231 160 255
0.649519 0.375000 0.000000 0.000000 0.000000 1.000000 240 231 160 255
0.649519 0.375000 0.000000 0.000000 0.000000 1.000000 240 231 160 255
0.000000 0.750000 0.000000 0.000000 0.000000 1.000000 240 231 160 255
-0.649519 0.375000 0.000000 0.000000 0.000000 1.000000 240 231 160 255
0.866025 0.500000 0.000000 0.000000 0.000000 1.000000 240 183 125 255
0.000000 0.750000 0.000000 0.000000 0.000000 1.000000 240 183 125 255
0.649519 0.375000 0.000000 0.000000 0.000000 1.000000 240 183 125 255
-0.866025 -0.500000 0.000000 0.000000 0.000000 1.000000 240 183 125 255
0.000000 -0.750000 0.000000 0.000000 0.000000 1.000000 240 183 125 255
-0.649519 -0.375000 0.000000 0.000000 0.000000 1.000000 240 183 125 255
0.000000 1.000000 0.000000 0.000000 0.000000 1.000000 240 183 125 255
-0.649519 0.375000 0.000000 0.000000 0.000000 1.000000 240 183 125 255
0.000000 0.750000 0.000000 0.000000 0.000000 1.000000 240 183 125 255
-0.866025 0.500000 0.000000 0.000000 0.000000 1.000000 240 183 125 255
-0.649519 -0.375000 0.000000 0.000000 0.000000 1.000000 240 183 125 255
-0.649519 0.375000 0.000000 0.000000 0.000000 1.000000 240 183 125 255
0.000000 -1.000000 0.000000 0.000000 0.000000 1.000000 240 183 125 255
0.649519 -0.375000 0.000000 0.000000 0.000000 1.000000 240 183 125 255
0.000000 -0.750000 0.000000 0.000000 0.000000 1.000000 240 183 125 255
0.866025 -0.500000 0.000000 0.000000 0.000000 1.000000 240 183 125 255
0.649519 0.375000 0.000000 0.000000 0.000000 1.000000 240 183 125 255
0.649519 -0.375000 0.000000 0.000000 0.000000 1.000000 240 183 125 255
0.866025 0.500000 0.000000 0.000000 0.000000 1.000000 240 183 125 255
0.000000 1.000000 0.000000 0.000000 0.000000 1.000000 240 183 125 255
0.000000 0.750000 0.000000 0.000000 0.000000 1.000000 240 183 125 255
-0.866025 -0.500000 0.000000 0.000000 0.000000 1.000000 240 183 125 255
0.000000 -1.000000 0.000000 0.000000 0.000000 1.000000 240 183 125 255
0.000000 -0.750000 0.000000 0.000000 0.000000 1.000000 240 183 125 255
0.000000 1.000000 0.000000 0.000000 0.000000 1.000000 240 183 125 255
-0.866025 0.500000 0.000000 0.000000 0.000000 1.000000 240 183 125 255
-0.649519 0.375000 0.000000 0.000000 0.000000 1.000000 240 183 125 255
-0.866025 0.500000 0.000000 0.000000 0.000000 1.000000 240 183 125 255
-0.866025 -0.500000 0.000000 0.000000 0.000000 1.000000 240 183 125 255
-0.649519 -0.375000 0.000000 0.000000 0.000000 1.000000 240 183 125 255
0.000000 -1.000000 0.000000 0.000000 0.000000 1.000000 240 183 125 255
0.866025 -0.500000 0.000000 0.000000 0.000000 1.000000 240 183 125 255
0.649519 -0.375000 0.000000 0.000000 0.000000 1.000000 240 183 125 255
0.866025 -0.500000 0.000000 0.000000 0.000000 1.000000 240 183 125 255
0.866025 0.500000 0.000000 0.000000 0.000000 1.000000 240 183 125 255
0.649519 0.375000 0.000000 0.000000 0.000000 1.000000 240 183 125 255
3 0 1 2
3 3 4 5
3 6 7 8
3 9 10 11
3 12 13 14
3 15 16 17
3 18 19 20
3 21 22 23
3 24 25 26
3 27 28 29
3 30 31 32
3 33 34 35
3 36 37 38
3 39 40 41
3 42 43 44
3 45 46 47
3 48 49 50
3 51 52 53
3 54 55 56
3 57 58 59
3 60 61 62
3 63 64 65
3 66 67 68
3 69 70 71
3 72 73 74
3 75 76 77
3 78 79 80
3 81 82 83
3 84 85 86
3 87 88 89
3 90 91 92
3 93 94 95
3 96 97 98
3 99 100 101
3 102 103 104
3 105 106 107
3 108 109 110
3 111 112 113
3 114 115 116
3 117 118 119
3 120 121 122
3 123 124 125
3 126 127 128
3 129 130 131
3 132 133 134
3 135 136 137
3 138 139 140
3 141 142 143
3 144 145 146
3 147 148 149
3 150 151 152
3 153 154 155
3 156 157 158
3 159 160 161
3 162 163 164
3 165 166 167
3 168 169 170
3 171 172 173
3 174 175 176
3 177 178 179
3 180 181 182
3 183 184 185
3 186 187 188
3 189 190 191
3 192 193 194
3 195 196 197
3 198 199 200
3 201 202 203
3 204 205 206
3 207 208 209
3 210 211 212
3 213 214 215
3 216 217 218
3 219 220 221
3 222 223 224
3 225 226 227
3 228 229 230
3 231 232 233
3 234 235 236
3 237 238 239
3 240 241 242
3 243 244 245
3 246 247 248
3 249 250 251
3 252 253 254
3 255 256 257
3 258 259 260
3 261 262 263
3 264 265 266
3 267 268 269
3 270 271 272
3 273 274 275
3 276 277 278
3 279 280 281
3 282 283 284
3 285 286 287
3 288 289 290
3 291 292 293
3 294 295 296
3 297 298 299
3 300 301 302
3 303 304 305
3 306 307 308
3 309 310 311
3 312 313 314
3 315 316 317
3 318 319 320
3 321 322 323
3 324 325 326
3 327 328 329
3 330 331 332
3 333 334 335
3 336 337 338
3 339 340 341
3 342 343 344
3 345 346 347
3 348 349 350
3 351 352 353
3 354 355 356
3 357 358 359
3 360 361 362
3 363 364 365
3 366 367 368
3 369 370 371
3 372 373 374
3 375 376 377
3 378 379 380
3 381 382 383
3 384 385 386
3 387 388 389
3 390 391 392
3 393 394 395
3 396 397 398
3 399 400 401
3 402 403 404
3 405 406 407
3 408 409 410
3 411 412 413
3 414 415 416
3 417 418 419
3 420 421 422
3 423 424 425
3 426 427 428
3 429 430 431
3 432 433 434
3 435 436 437
3 438 439 440
3 441 442 443
3 444 445 446
3 447 448 449
3 450 451 452
3 453 454 455
3 456 457 458
3 459 460 461
3 462 463 464
3 465 466 467
3 468 469 470
3 471 472 473
3 474 475 476
3 477 478 479
3 480 481 482
3 483 484 485
3 486 487 488
3 489 490 491
3 492 493 494
3 495 496 497
