ply
format ascii 1.0
comment Created by Blender 3.6.0 - www.blender.org
element vertex 432
property float x
property float y
property float z
property float nx
property float ny
property float nz
property uchar red
property uchar green
property uchar blue
property uchar alpha
element face 144
property list uchar uint vertex_indices
end_header
0.000000 0.543486 0.514031 -0.483050 0.870054 0.098333 141 143 143 255
-0.537876 0.299176 0.033439 -0.483050 0.870054 0.098333 141 143 143 255
-0.489760 0.271415 0.515434 -0.483050 0.870054 0.098333 141 143 143 255
0.537912 0.299176 0.033439 0.483854 0.869466 0.099568 141 143 143 255
0.000000 0.543486 0.514031 0.483854 0.869466 0.099569 141 143 143 255
0.489021 0.271355 0.513966 0.483854 0.869466 0.099568 141 143 143 255
0.537912 -0.299114 0.033439 0.994912 0.000404 0.100748 141 143 143 255
0.489021 0.271355 0.513966 0.994912 0.000404 0.100748 141 143 143 255
0.489099 -0.272636 0.515379 0.994912 0.000404 0.100748 141 143 143 255
-0.435455 -0.242639 0.570652 -0.325012 -0.591531 0.737875 141 143 143 255
-0.000522 -0.542435 0.521890 -0.325012 -0.591531 0.737875 141 143 143 255
-0.000019 -0.484430 0.568612 -0.325012 -0.591531 0.737875 141 143 143 255
-0.437341 0.246186 0.565550 -0.351201 0.635747 0.687374 141 143 143 255
0.000000 0.543486 0.514031 -0.351201 0.635747 0.687374 141 143 143 255
-0.489760 0.271415 0.515434 -0.351201 0.635747 0.687374 141 143 143 255
0.489021 0.271355 0.513966 0.716907 0.001914 0.697166 141 143 143 255
0.435515 -0.242670 0.570398 0.716907 0.001914 0.697166 141 143 143 255
0.489099 -0.272636 0.515379 0.716907 0.001914 0.697166 141 143 143 255
-0.214310 -0.119161 0.990726 -0.267560 -0.482391 0.834093 141 143 143 255
-0.000009 -0.304662 0.952187 -0.267560 -0.482391 0.834093 141 143 143 255
-0.000127 -0.238177 0.990601 -0.267560 -0.482391 0.834093 141 143 143 255
-0.214374 0.119154 0.990756 -0.284954 0.482202 0.828422 141 143 143 255
-0.000008 0.306341 0.955535 -0.284954 0.482202 0.828422 141 143 143 255
-0.277239 0.152500 0.949723 -0.284954 0.482202 0.828422 141 143 143 255
0.214029 -0.119104 0.990388 0.285974 -0.498358 0.818449 141 143 143 255
-0.000009 -0.304662 0.952187 0.285974 -0.498358 0.818449 141 143 143 255
0.274892 -0.152820 0.948591 0.285974 -0.498358 0.818449 141 143 143 255
0.214061 0.119104 0.990483 0.247591 0.443822 0.861232 141 143 143 255
-0.000008 0.306341 0.955535 0.247591 0.443822 0.861232 141 143 143 255
-0.000121 0.238246 0.990659 0.247591 0.443822 0.861232 141 143 143 255
0.435515 -0.242670 0.570398 0.356295 -0.629937 0.690096 141 143 143 255
-0.000522 -0.542435 0.521890 0.356295 -0.629937 0.690096 141 143 143 255
0.489099 -0.272636 0.515379 0.356295 -0.629937 0.690096 141 143 143 255
0.437277 0.246179 0.565412 0.346022 0.629205 0.695967 141 143 143 255
0.000000 0.543486 0.514031 0.346022 0.629205 0.695967 141 143 143 255
0.000000 0.485236 0.566693 0.346022 0.629205 0.695967 141 143 143 255
-0.214374 0.119154 0.990756 -0.570524 -0.000255 0.821281 141 143 143 255
-0.274912 -0.152824 0.948618 -0.570524 -0.000255 0.821281 141 143 143 255
-0.214310 -0.119161 0.990726 -0.570524 -0.000255 0.821281 141 143 143 255
0.214061 0.119104 0.990483 0.544888 -0.007280 0.838477 141 143 143 255
0.274892 -0.152820 0.948591 0.544888 -0.007280 0.838477 141 143 143 255
0.277224 0.152500 0.949727 0.544888 -0.007280 0.838477 141 143 143 255
-0.435455 -0.242639 0.570652 -0.687426 0.005391 0.726234 141 143 143 255
-0.489760 0.271415 0.515434 -0.687426 0.005391 0.726234 141 143 143 255
-0.487628 -0.271887 0.521484 -0.687426 0.005391 0.726234 141 143 143 255
-0.377007 -0.342134 0.314618 -0.485240 -0.873590 0.037172 141 143 143 255
-0.000522 -0.542435 0.521890 -0.485240 -0.873591 0.037172 141 143 143 255
-0.487628 -0.271887 0.521484 -0.485240 -0.873591 0.037172 141 143 143 255
-0.432361 -0.363082 0.033439 -0.515789 -0.850792 0.100569 141 143 143 255
-0.487628 -0.271887 0.521484 -0.515789 -0.850792 0.100569 141 143 143 255
-0.537876 -0.299114 0.033439 -0.515789 -0.850792 0.100569 141 143 143 255
-0.537876 -0.299114 0.033439 -0.995054 0.000000 0.099333 141 143 143 255
-0.489760 0.271415 0.515434 -0.995054 0.000000 0.099333 141 143 143 255
-0.537876 0.299176 0.033439 -0.995054 0.000000 0.099333 141 143 143 255
0.489099 -0.272636 0.515379 0.483752 -0.869837 0.096787 141 143 143 255
0.000018 -0.598259 0.033439 0.483752 -0.869837 0.096787 141 143 143 255
0.537912 -0.299114 0.033439 0.483752 -0.869837 0.096787 141 143 143 255
0.160490 -0.119095 0.990444 0.001062 -0.000122 0.999999 141 143 143 255
0.106952 -0.119087 0.990501 0.001062 -0.000122 0.999999 141 143 143 255
-0.000127 -0.238177 0.990601 0.001062 -0.000122 0.999999 141 143 143 255
-0.160811 0.119151 0.990728 0.000519 -0.000125 1.000000 141 143 143 255
-0.214310 -0.119161 0.990726 0.000519 -0.000125 1.000000 141 143 143 255
-0.160764 -0.119139 0.990699 0.000519 -0.000125 1.000000 141 143 143 255
-0.107248 0.119147 0.990700 0.000522 -0.000124 1.000000 141 143 143 255
-0.026898 -0.119082 0.990629 0.000522 -0.000124 1.000000 141 143 143 255
-0.026904 0.119142 0.990659 0.000522 -0.000124 1.000000 141 143 143 255
0.106969 0.119122 0.990564 0.001064 -0.000263 0.999999 141 143 143 255
0.026644 -0.119075 0.990587 0.001064 -0.000263 0.999999 141 143 143 255
0.106952 -0.119087 0.990501 0.001064 -0.000263 0.999999 141 143 143 255
0.214061 0.119104 0.990483 0.001063 -0.000402 0.999999 141 143 143 255
0.160490 -0.119095 0.990444 0.001063 -0.000402 0.999999 141 143 143 255
0.214029 -0.119104 0.990388 0.001063 -0.000402 0.999999 141 143 143 255
-0.000008 0.306341 0.955535 0.445692 0.813243 0.374159 141 143 143 255
0.437277 0.246179 0.565412 0.445692 0.813243 0.374159 141 143 143 255
0.000000 0.485236 0.566693 0.445692 0.813243 0.374159 141 143 143 255
-0.437341 0.246186 0.565550 -0.445538 0.813320 0.374174 141 143 143 255
-0.000008 0.306341 0.955535 -0.445538 0.813320 0.374174 141 143 143 255
0.000000 0.485236 0.566693 -0.445538 0.813320 0.374174 141 143 143 255
-0.277239 0.152500 0.949723 -0.919657 -0.008430 0.392633 141 143 143 255
-0.435455 -0.242639 0.570652 -0.919657 -0.008430 0.392633 141 143 143 255
-0.274912 -0.152824 0.948618 -0.919657 -0.008430 0.392633 141 143 143 255
-0.000009 -0.304662 0.952187 -0.447796 -0.809625 0.379455 141 143 143 255
-0.435455 -0.242639 0.570652 -0.447796 -0.809625 0.379455 141 143 143 255
-0.000019 -0.484430 0.568612 -0.447796 -0.809625 0.379455 141 143 143 255
0.435515 -0.242670 0.570398 0.447849 -0.809609 0.379425 141 143 143 255
-0.000009 -0.304662 0.952187 0.447849 -0.809609 0.379425 141 143 143 255
-0.000019 -0.484430 0.568612 0.447849 -0.809609 0.379425 141 143 143 255
0.435515 -0.242670 0.570398 0.919666 -0.008484 0.392609 141 143 143 255
0.277224 0.152500 0.949727 0.919666 -0.008484 0.392609 141 143 143 255
0.274892 -0.152820 0.948591 0.919666 -0.008484 0.392609 141 143 143 255
-0.000522 -0.542435 0.521890 -0.450739 -0.886938 0.100868 141 143 143 255
-0.110250 -0.542221 0.033439 -0.450739 -0.886938 0.100868 141 143 143 255
0.000018 -0.598259 0.033439 -0.450739 -0.886938 0.100868 141 143 143 255
-0.026904 0.119142 0.990659 0.000637 -0.000149 1.000000 141 143 143 255
0.026650 0.119136 0.990624 0.000637 -0.000149 1.000000 141 143 143 255
-0.000121 0.238246 0.990659 0.000637 -0.000149 1.000000 141 143 143 255
0.000000 0.543486 0.514031 -0.483636 0.869629 0.099206 141 143 143 255
0.000018 0.598321 0.033439 -0.483636 0.869629 0.099206 141 143 143 255
-0.537876 0.299176 0.033439 -0.483636 0.869629 0.099206 141 143 143 255
0.537912 0.299176 0.033439 0.483635 0.869625 0.099242 141 143 143 255
0.000018 0.598321 0.033439 0.483635 0.869625 0.099242 141 143 143 255
0.000000 0.543486 0.514031 0.483635 0.869626 0.099242 141 143 143 255
0.537912 -0.299114 0.033439 0.994864 0.000000 0.101223 141 143 143 255
0.537912 0.299176 0.033439 0.994864 0.000000 0.101223 141 143 143 255
0.489021 0.271355 0.513966 0.994864 0.000000 0.101223 141 143 143 255
-0.435455 -0.242639 0.570652 -0.337717 -0.606960 0.719408 141 143 143 255
-0.487628 -0.271887 0.521484 -0.337717 -0.606960 0.719407 141 143 143 255
-0.000522 -0.542435 0.521890 -0.337717 -0.606960 0.719408 141 143 143 255
-0.437341 0.246186 0.565550 -0.345774 0.629264 0.696037 141 143 143 255
0.000000 0.485236 0.566693 -0.345774 0.629264 0.696037 141 143 143 255
0.000000 0.543486 0.514031 -0.345774 0.629264 0.696037 141 143 143 255
0.489021 0.271355 0.513966 0.703897 0.004708 0.710286 141 143 143 255
0.437277 0.246179 0.565412 0.703897 0.004708 0.710286 141 143 143 255
0.435515 -0.242670 0.570398 0.703897 0.004708 0.710286 141 143 143 255
-0.214310 -0.119161 0.990726 -0.287852 -0.501985 0.815568 141 143 143 255
-0.274912 -0.152824 0.948618 -0.287852 -0.501985 0.815568 141 143 143 255
-0.000009 -0.304662 0.952187 -0.287852 -0.501985 0.815568 141 143 143 255
-0.214374 0.119154 0.990756 -0.246724 0.444570 0.861095 141 143 143 255
-0.000121 0.238246 0.990659 -0.246724 0.444570 0.861095 141 143 143 255
-0.000008 0.306341 0.955535 -0.246724 0.444570 0.861095 141 143 143 255
0.214029 -0.119104 0.990388 0.268573 -0.481541 0.834258 141 143 143 255
-0.000127 -0.238177 0.990601 0.268573 -0.481541 0.834258 141 143 143 255
-0.000009 -0.304662 0.952187 0.268573 -0.481541 0.834258 141 143 143 255
0.214061 0.119104 0.990483 0.283096 0.478780 0.831039 141 143 143 255
0.277224 0.152500 0.949727 0.283096 0.478780 0.831039 141 143 143 255
-0.000008 0.306341 0.955535 0.283096 0.478780 0.831039 141 143 143 255
0.435515 -0.242670 0.570398 0.327004 -0.594529 0.734578 141 143 143 255
-0.000019 -0.484430 0.568612 0.327004 -0.594528 0.734577 141 143 143 255
-0.000522 -0.542435 0.521890 0.327004 -0.594529 0.734577 141 143 143 255
0.437277 0.246179 0.565412 0.358498 0.644064 0.675767 141 143 143 255
0.489021 0.271355 0.513966 0.358498 0.644064 0.675767 141 143 143 255
0.000000 0.543486 0.514031 0.358498 0.644064 0.675767 141 143 143 255
-0.214374 0.119154 0.990756 -0.549257 -0.007211 0.835623 141 143 143 255
-0.277239 0.152500 0.949723 -0.549257 -0.007211 0.835623 141 143 143 255
-0.274912 -0.152824 0.948618 -0.549257 -0.007211 0.835623 141 143 143 255
0.214061 0.119104 0.990483 0.565945 -0.000407 0.824443 141 143 143 255
0.214029 -0.119104 0.990388 0.565945 -0.000407 0.824443 141 143 143 255
0.274892 -0.152820 0.948591 0.565945 -0.000407 0.824443 141 143 143 255
-0.435455 -0.242639 0.570652 -0.689816 0.004895 0.723968 141 143 143 255
-0.437341 0.246186 0.565550 -0.689816 0.004895 0.723968 141 143 143 255
-0.489760 0.271415 0.515434 -0.689816 0.004895 0.723968 141 143 143 255
-0.377007 -0.342134 0.314618 -0.485589 -0.873360 0.038029 141 143 143 255
-0.119017 -0.485572 0.314727 -0.485589 -0.873360 0.038029 141 143 143 255
-0.000522 -0.542435 0.521890 -0.485589 -0.873360 0.038029 141 143 143 255
-0.432361 -0.363082 0.033439 -0.337493 -0.931476 0.135836 141 143 143 255
-0.377007 -0.342134 0.314618 -0.337493 -0.931476 0.135836 141 143 143 255
-0.487628 -0.271887 0.521484 -0.337493 -0.931476 0.135836 141 143 143 255
-0.537876 -0.299114 0.033439 -0.994722 -0.002761 0.102568 141 143 143 255
-0.487628 -0.271887 0.521484 -0.994722 -0.002761 0.102567 141 143 143 255
-0.489760 0.271415 0.515434 -0.994722 -0.002761 0.102568 141 143 143 255
0.489099 -0.272636 0.515379 0.481214 -0.870873 0.100063 141 143 143 255
-0.000522 -0.542435 0.521890 0.481214 -0.870874 0.100063 141 143 143 255
0.000018 -0.598259 0.033439 0.481214 -0.870874 0.100063 141 143 143 255
0.106952 -0.119087 0.990501 0.001064 -0.000123 0.999999 141 143 143 255
0.026644 -0.119075 0.990587 0.001064 -0.000123 0.999999 141 143 143 255
-0.000127 -0.238177 0.990601 0.001064 -0.000123 0.999999 141 143 143 255
0.026644 -0.119075 0.990587 0.000790 -0.000062 1.000000 141 143 143 255
-0.026898 -0.119082 0.990629 0.000790 -0.000062 1.000000 141 143 143 255
-0.000127 -0.238177 0.990601 0.000790 -0.000062 1.000000 141 143 143 255
-0.107218 -0.119116 0.990671 0.000520 -0.000123 1.000000 141 143 143 255
-0.160764 -0.119139 0.990699 0.000520 -0.000123 1.000000 141 143 143 255
-0.000127 -0.238177 0.990601 0.000520 -0.000123 1.000000 141 143 143 255
-0.160764 -0.119139 0.990699 0.000519 -0.000125 1.000000 141 143 143 255
-0.214310 -0.119161 0.990726 0.000519 -0.000125 1.000000 141 143 143 255
-0.000127 -0.238177 0.990601 0.000519 -0.000125 1.000000 141 143 143 255
-0.107218 -0.119116 0.990671 0.000520 -0.000123 1.000000 141 143 143 255
-0.000127 -0.238177 0.990601 0.000520 -0.000123 1.000000 141 143 143 255
-0.026898 -0.119082 0.990629 0.000520 -0.000123 1.000000 141 143 143 255
0.214029 -0.119104 0.990388 0.001063 -0.000124 0.999999 141 143 143 255
0.160490 -0.119095 0.990444 0.001063 -0.000124 0.999999 141 143 143 255
-0.000127 -0.238177 0.990601 0.001063 -0.000124 0.999999 141 143 143 255
-0.160811 0.119151 0.990728 0.000522 -0.000125 1.000000 141 143 143 255
-0.214374 0.119154 0.990756 0.000522 -0.000125 1.000000 141 143 143 255
-0.214310 -0.119161 0.990726 0.000522 -0.000125 1.000000 141 143 143 255
-0.107248 0.119147 0.990700 0.000520 -0.000124 1.000000 141 143 143 255
-0.107218 -0.119116 0.990671 0.000520 -0.000124 1.000000 141 143 143 255
-0.026898 -0.119082 0.990629 0.000520 -0.000124 1.000000 141 143 143 255
0.106969 0.119122 0.990564 0.000752 -0.000158 1.000000 141 143 143 255
0.026650 0.119136 0.990624 0.000752 -0.000158 1.000000 141 143 143 255
0.026644 -0.119075 0.990587 0.000752 -0.000158 1.000000 141 143 143 255
0.214061 0.119104 0.990483 0.000755 -0.000333 1.000000 141 143 143 255
0.160515 0.119113 0.990524 0.000755 -0.000333 1.000000 141 143 143 255
0.160490 -0.119095 0.990444 0.000755 -0.000333 1.000000 141 143 143 255
-0.000008 0.306341 0.955535 0.453981 0.803567 0.384943 141 143 143 255
0.277224 0.152500 0.949727 0.453981 0.803567 0.384943 141 143 143 255
0.437277 0.246179 0.565412 0.453981 0.803567 0.384943 141 143 143 255
-0.437341 0.246186 0.565550 -0.453953 0.803495 0.385127 141 143 143 255
-0.277239 0.152500 0.949723 -0.453953 0.803495 0.385127 141 143 143 255
-0.000008 0.306341 0.955535 -0.453953 0.803495 0.385127 141 143 143 255
-0.277239 0.152500 0.949723 -0.923012 0.000455 0.384772 141 143 143 255
-0.437341 0.246186 0.565550 -0.923012 0.000455 0.384772 141 143 143 255
-0.435455 -0.242639 0.570652 -0.923012 0.000455 0.384772 141 143 143 255
-0.000009 -0.304662 0.952187 -0.450430 -0.806503 0.382969 141 143 143 255
-0.274912 -0.152824 0.948618 -0.450430 -0.806503 0.382969 141 143 143 255
-0.435455 -0.242639 0.570652 -0.450430 -0.806503 0.382969 141 143 143 255
0.435515 -0.242670 0.570398 0.450476 -0.806497 0.382927 141 143 143 255
0.274892 -0.152820 0.948591 0.450476 -0.806497 0.382927 141 143 143 255
-0.000009 -0.304662 0.952187 0.450476 -0.806497 0.382927 141 143 143 255
0.435515 -0.242670 0.570398 0.923092 0.000596 0.384579 141 143 143 255
0.437277 0.246179 0.565412 0.923092 0.000596 0.384579 141 143 143 255
0.277224 0.152500 0.949727 0.923092 0.000596 0.384579 141 143 143 255
-0.000522 -0.542435 0.521890 -0.613522 -0.777617 0.137484 141 143 143 255
-0.119017 -0.485572 0.314727 -0.613522 -0.777617 0.137484 141 143 143 255
-0.110250 -0.542221 0.033439 -0.613522 -0.777617 0.137484 141 143 143 255
0.106969 0.119122 0.990564 0.000752 -0.000123 1.000000 141 143 143 255
0.160515 0.119113 0.990524 0.000752 -0.000123 1.000000 141 143 143 255
-0.000121 0.238246 0.990659 0.000752 -0.000123 1.000000 141 143 143 255
0.160515 0.119113 0.990524 0.000755 -0.000120 1.000000 141 143 143 255
0.214061 0.119104 0.990483 0.000755 -0.000120 1.000000 141 143 143 255
-0.000121 0.238246 0.990659 0.000755 -0.000120 1.000000 141 143 143 255
-0.000121 0.238246 0.990659 0.000522 -0.000124 1.000000 141 143 143 255
-0.214374 0.119154 0.990756 0.000522 -0.000124 1.000000 141 143 143 255
-0.160811 0.119151 0.990728 0.000522 -0.000124 1.000000 141 143 143 255
-0.000121 0.238246 0.990659 0.000522 -0.000124 1.000000 141 143 143 255
-0.160811 0.119151 0.990728 0.000522 -0.000124 1.000000 141 143 143 255
-0.107248 0.119147 0.990700 0.000522 -0.000124 1.000000 141 143 143 255
0.026650 0.119136 0.990624 0.000752 -0.000123 1.000000 141 143 143 255
0.106969 0.119122 0.990564 0.000752 -0.000123 1.000000 141 143 143 255
-0.000121 0.238246 0.990659 0.000752 -0.000123 1.000000 141 143 143 255
-0.000121 0.238246 0.990659 0.000522 -0.000123 1.000000 141 143 143 255
-0.107248 0.119147 0.990700 0.000522 -0.000123 1.000000 141 143 143 255
-0.026904 0.119142 0.990659 0.000522 -0.000123 1.000000 141 143 143 255
0.000000 -1.000000 0.030000 -0.500000 -0.866025 0.000000 110 185 124 255
-0.866025 -0.500000 0.000000 -0.500000 -0.866025 0.000000 110 185 124 255
0.000000 -1.000000 0.000000 -0.500000 -0.866025 0.000000 110 185 124 255
-0.866025 -0.500000 0.030000 -1.000000 0.000000 0.000000 110 185 124 255
-0.866025 0.500000 0.000000 -1.000000 0.000000 0.000000 110 185 124 255
-0.866025 -0.500000 0.000000 -1.000000 0.000000 0.000000 110 185 124 255
-0.866025 0.500000 0.030000 -0.500000 0.866025 0.000000 110 185 124 255
0.000000 1.000000 0.000000 -0.500000 0.866025 0.000000 110 185 124 255
-0.866025 0.500000 0.000000 -0.500000 0.866025 0.000000 110 185 124 255
0.000000 1.000000 0.030000 0.500000 0.866025 0.000000 110 185 124 255
0.866025 0.500000 0.000000 0.500000 0.866025 0.000000 110 185 124 255
0.000000 1.000000 0.000000 0.500000 0.866025 0.000000 110 185 124 255
0.000000 -1.000000 0.030000 0.000000 0.000000 1.000000 110 185 124 255
0.866025 0.500000 0.030000 0.000000 0.000000 1.000000 110 185 124 255
-0.866025 0.500000 0.030000 0.000000 0.000000 1.000000 110 185 124 255
0.866025 0.500000 0.030000 1.000000 0.000000 0.000000 110 185 124 255
0.866025 -0.500000 0.000000 1.000000 0.000000 0.000000 110 185 124 255
0.866025 0.500000 0.000000 1.000000 0.000000 0.000000 110 185 124 255
0.866025 -0.500000 0.030000 0.500000 -0.866025 0.000000 110 185 124 255
0.000000 -1.000000 0.000000 0.500000 -0.866025 0.000000 110 185 124 255
0.866025 -0.500000 0.000000 0.500000 -0.866025 0.000000 110 185 124 255
0.000000 -1.000000 0.030000 -0.500000 -0.866025 0.000000 110 185 124 255
-0.866025 -0.500000 0.030000 -0.500000 -0.866025 0.000000 110 185 124 255
-0.866025 -0.500000 0.000000 -0.500000 -0.866025 0.000000 110 185 124 255
-0.866025 -0.500000 0.030000 -1.000000 0.000000 0.000000 110 185 124 255
-0.866025 0.500000 0.030000 -1.000000 0.000000 0.000000 110 185 124 255
-0.866025 0.500000 0.000000 -1.000000 0.000000 0.000000 110 185 124 255
-0.866025 0.500000 0.030000 -0.500000 0.866025 0.000000 110 185 124 255
0.000000 1.000000 0.030000 -0.500000 0.866025 0.000000 110 185 124 255
0.000000 1.000000 0.000000 -0.500000 0.866025 0.000000 110 185 124 255
0.000000 1.000000 0.030000 0.500000 0.866025 0.000000 110 185 124 255
0.866025 0.500000 0.030000 0.500000 0.866025 0.000000 110 185 124 255
0.866025 0.500000 0.000000 0.500000 0.866025 0.000000 110 185 124 255
-0.866025 0.500000 0.030000 0.000000 0.000000 1.000000 110 185 124 255
-0.866025 -0.500000 0.030000 0.000000 0.000000 1.000000 110 185 124 255
0.000000 -1.000000 0.030000 0.000000 0.000000 1.000000 110 185 124 255
0.000000 -1.000000 0.030000 0.000000 0.000000 1.000000 110 185 124 255
0.866025 -0.500000 0.030000 0.000000 0.000000 1.000000 110 185 124 255
0.866025 0.500000 0.030000 0.000000 0.000000 1.000000 110 185 124 255
0.866025 0.500000 0.030000 0.000000 0.000000 1.000000 110 185 124 255
0.000000 1.000000 0.030000 0.000000 0.000000 1.000000 110 185 124 255
-0.866025 0.500000 0.030000 0.000000 0.000000 1.000000 110 185 124 255
0.866025 0.500000 0.030000 1.000000 0.000000 0.000000 110 185 124 255
0.866025 -0.500000 0.030000 1.000000 0.000000 0.000000 110 185 124 255
0.866025 -0.500000 0.000000 1.000000 0.000000 0.000000 110 185 124 255
0.866025 -0.500000 0.030000 0.500000 -0.866025 0.000000 110 185 124 255
0.000000 -1.000000 0.030000 0.500000 -0.866025 0.000000 110 185 124 255
0.000000 -1.000000 0.000000 0.500000 -0.866025 0.000000 110 185 124 255
0.000000 -0.750000 0.060000 -0.500000 -0.866025 0.000000 245 237 142 255
-0.649519 -0.375000 0.030000 -0.500000 -0.866025 0.000000 245 237 142 255
0.000000 -0.750000 0.030000 -0.500000 -0.866025 0.000000 245 237 142 255
-0.649519 -0.375000 0.060000 -1.000000 0.000000 0.000000 245 237 142 255
-0.649519 0.375000 0.030000 -1.000000 0.000000 0.000000 245 237 142 255
-0.649519 -0.375000 0.030000 -1.000000 0.000000 0.000000 245 237 142 255
-0.649519 0.375000 0.060000 -0.500000 0.866025 0.000000 245 237 142 255
0.000000 0.750000 0.030000 -0.500000 0.866025 0.000000 245 237 142 255
-0.649519 0.375000 0.030000 -0.500000 0.866025 0.000000 245 237 142 255
0.000000 0.750000 0.060000 0.500000 0.866025 0.000000 245 237 142 255
0.649519 0.375000 0.030000 0.500000 0.866025 0.000000 245 237 142 255
0.000000 0.750000 0.030000 0.500000 0.866025 0.000000 245 237 142 255
0.000000 -0.750000 0.060000 0.000000 0.000000 1.000000 245 237 142 255
0.649519 0.375000 0.060000 0.000000 0.000000 1.000000 245 237 142 255
-0.649519 0.375000 0.060000 0.000000 0.000000 1.000000 245 237 142 255
0.649519 0.375000 0.060000 1.000000 0.000000 0.000000 245 237 142 255
0.649519 -0.375000 0.030000 1.000000 0.000000 0.000000 245 237 142 255
0.649519 0.375000 0.030000 1.000000 0.000000 0.000000 245 237 142 255
0.649519 -0.375000 0.060000 0.500000 -0.866025 0.000000 245 237 142 255
0.000000 -0.750000 0.030000 0.500000 -0.866025 0.000000 245 237 142 255
0.649519 -0.375000 0.030000 0.500000 -0.866025 0.000000 245 237 142 255
0.000000 -0.750000 0.060000 -0.500000 -0.866025 0.000000 245 237 142 255
-0.649519 -0.375000 0.060000 -0.500000 -0.866025 0.000000 245 237 142 255
-0.649519 -0.375000 0.030000 -0.500000 -0.866025 0.000000 245 237 142 255
-0.649519 -0.375000 0.060000 -1.000000 0.000000 0.000000 245 237 142 255
-0.649519 0.375000 0.060000 -1.000000 0.000000 0.000000 245 237 142 255
-0.649519 0.375000 0.030000 -1.000000 0.000000 0.000000 245 237 142 255
-0.649519 0.375000 0.060000 -0.500000 0.866025 0.000000 245 237 142 255
0.000000 0.750000 0.060000 -0.500000 0.866025 0.000000 245 237 142 255
0.000000 0.750000 0.030000 -0.500000 0.866025 0.000000 245 237 142 255
0.000000 0.750000 0.060000 0.500000 0.866025 0.000000 245 237 142 255
0.649519 0.375000 0.060000 0.500000 0.866025 0.000000 245 237 142 255
0.649519 0.375000 0.030000 0.500000 0.866025 0.000000 245 237 142 255
-0.649519 0.375000 0.060000 0.000000 0.000000 1.000000 245 237 142 255
-0.649519 -0.375000 0.060000 0.000000 0.000000 1.000000 245 237 142 255
0.000000 -0.750000 0.060000 0.000000 0.000000 1.000000 245 237 142 255
0.000000 -0.750000 0.060000 0.000000 0.000000 1.000000 245 237 142 255
0.649519 -0.375000 0.060000 0.000000 0.000000 1.000000 245 237 142 255
0.649519 0.375000 0.060000 0.000000 0.000000 1.000000 245 237 142 255
0.649519 0.375000 0.060000 0.000000 0.000000 1.000000 245 237 142 255
0.000000 0.750000 0.060000 0.000000 0.000000 1.000000 245 237 142 255
-0.649519 0.375000 0.060000 0.000000 0.000000 1.000000 245 237 142 255
0.649519 0.375000 0.060000 1.000000 0.000000 0.000000 245 237 142 255
0.649519 -0.375000 0.060000 1.000000 0.000000 0.000000 245 237 142 255
0.649519 -0.375000 0.030000 1.000000 0.000000 0.000000 245 237 142 255
0.649519 -0.375000 0.060000 0.500000 -0.866025 0.000000 245 237 142 255
0.000000 -0.750000 0.060000 0.500000 -0.866025 0.000000 245 237 142 255
0.000000 -0.750000 0.030000 0.500000 -0.866025 0.000000 245 237 142 255
-0.119017 -0.485572 0.314727 -0.880746 0.458205 -0.119728 255 139 113 255
-0.026949 -0.382103 0.033439 -0.880746 0.458205 -0.119728 255 139 113 255
-0.110250 -0.542221 0.033439 -0.880746 0.458205 -0.119728 255 139 113 255
-0.052628 -0.378392 0.314662 -0.485772 -0.873469 -0.032830 255 139 113 255
-0.326735 -0.215379 0.033439 -0.485772 -0.873469 -0.032830 255 139 113 255
-0.026949 -0.382103 0.033439 -0.485772 -0.873469 -0.032830 255 139 113 255
-0.377007 -0.342134 0.314618 0.847043 -0.524671 -0.085079 255 139 113 255
-0.326735 -0.215379 0.033439 0.847043 -0.524671 -0.085079 255 139 113 255
-0.310606 -0.234950 0.314714 0.847043 -0.524671 -0.085079 255 139 113 255
-0.119017 -0.485572 0.314727 -0.000397 -0.000354 -1.000000 255 139 113 255
-0.310606 -0.234950 0.314714 -0.000397 -0.000354 -1.000000 255 139 113 255
-0.052628 -0.378392 0.314662 -0.000397 -0.000354 -1.000000 255 139 113 255
-0.119017 -0.485572 0.314727 -0.847127 0.524665 -0.084277 255 139 113 255
-0.052628 -0.378392 0.314662 -0.847127 0.524665 -0.084277 255 139 113 255
-0.026949 -0.382103 0.033439 -0.847127 0.524665 -0.084277 255 139 113 255
-0.052628 -0.378392 0.314662 -0.485696 -0.873507 -0.032927 255 139 113 255
-0.310606 -0.234950 0.314714 -0.485696 -0.873507 -0.032927 255 139 113 255
-0.326735 -0.215379 0.033439 -0.485696 -0.873507 -0.032927 255 139 113 255
-0.377007 -0.342134 0.314618 0.807922 -0.577759 -0.116005 255 139 113 255
-0.432361 -0.363082 0.033439 0.807922 -0.577759 -0.116005 255 139 113 255
-0.326735 -0.215379 0.033439 0.807922 -0.577759 -0.116005 255 139 113 255
-0.119017 -0.485572 0.314727 0.000680 0.000469 -1.000000 255 139 113 255
-0.377007 -0.342134 0.314618 0.000680 0.000469 -1.000000 255 139 113 255
-0.310606 -0.234950 0.314714 0.000680 0.000469 -1.000000 255 139 113 255
-0.160828 0.119155 0.966133 0.000522 -0.000124 1.000000 255 139 113 255
-0.107235 -0.119112 0.966075 0.000522 -0.000124 1.000000 255 139 113 255
-0.107266 0.119151 0.966105 0.000522 -0.000124 1.000000 255 139 113 255
0.106934 -0.119083 0.965906 0.000752 -0.000263 1.000000 255 139 113 255
0.160497 0.119117 0.965928 0.000752 -0.000263 1.000000 255 139 113 255
0.106952 0.119126 0.965968 0.000752 -0.000263 1.000000 255 139 113 255
-0.026922 0.119147 0.966063 0.000638 -0.000158 1.000000 255 139 113 255
0.026626 -0.119071 0.965991 0.000638 -0.000158 1.000000 255 139 113 255
0.026633 0.119140 0.966029 0.000638 -0.000158 1.000000 255 139 113 255
-0.160764 -0.119139 0.990699 -0.000422 1.000000 0.000175 255 139 113 255
-0.107235 -0.119112 0.966075 -0.000422 1.000000 0.000175 255 139 113 255
-0.160782 -0.119134 0.966103 -0.000422 1.000000 0.000175 255 139 113 255
-0.026898 -0.119082 0.990629 -0.000135 1.000000 0.000175 255 139 113 255
0.026626 -0.119071 0.965991 -0.000135 1.000000 0.000175 255 139 113 255
-0.026916 -0.119078 0.966033 -0.000135 1.000000 0.000175 255 139 113 255
0.106952 -0.119087 0.990501 0.000152 1.000000 0.000174 255 139 113 255
0.160473 -0.119091 0.965849 0.000152 1.000000 0.000174 255 139 113 255
0.106934 -0.119083 0.965906 0.000152 1.000000 0.000174 255 139 113 255
-0.107248 0.119147 0.990700 -1.000000 -0.000127 0.000714 255 139 113 255
-0.107235 -0.119112 0.966075 -1.000000 -0.000127 0.000714 255 139 113 255
-0.107218 -0.119116 0.990671 -1.000000 -0.000127 0.000714 255 139 113 255
0.160515 0.119113 0.990524 -1.000000 0.000103 0.000714 255 139 113 255
0.160473 -0.119091 0.965849 -1.000000 0.000103 0.000714 255 139 113 255
0.160490 -0.119095 0.990444 -1.000000 0.000103 0.000714 255 139 113 255
0.026650 0.119136 0.990624 -1.000000 0.000027 0.000714 255 139 113 255
0.026626 -0.119071 0.965991 -1.000000 0.000027 0.000714 255 139 113 255
0.026644 -0.119075 0.990587 -1.000000 0.000027 0.000714 255 139 113 255
0.106969 0.119122 0.990564 -0.000172 -1.000000 -0.000174 255 139 113 255
0.160497 0.119117 0.965928 -0.000172 -1.000000 -0.000174 255 139 113 255
0.160515 0.119113 0.990524 -0.000172 -1.000000 -0.000174 255 139 113 255
-0.026904 0.119142 0.990659 -0.000117 -1.000000 -0.000174 255 139 113 255
0.026633 0.119140 0.966029 -0.000117 -1.000000 -0.000174 255 139 113 255
0.026650 0.119136 0.990624 -0.000117 -1.000000 -0.000174 255 139 113 255
0.106969 0.119122 0.990564 1.000000 -0.000073 -0.000714 255 139 113 255
0.106934 -0.119083 0.965906 1.000000 -0.000073 -0.000714 255 139 113 255
0.106952 0.119126 0.965968 1.000000 -0.000073 -0.000714 255 139 113 255
-0.160811 0.119151 0.990728 -0.000062 -1.000000 -0.000174 255 139 113 255
-0.107266 0.119151 0.966105 -0.000062 -1.000000 -0.000174 255 139 113 255
-0.107248 0.119147 0.990700 -0.000062 -1.000000 -0.000174 255 139 113 255
-0.026904 0.119142 0.990659 1.000000 0.000023 -0.000714 255 139 113 255
-0.026916 -0.119078 0.966033 1.000000 0.000023 -0.000714 255 139 113 255
-0.026922 0.119147 0.966063 1.000000 0.000023 -0.000714 255 139 113 255
-0.160811 0.119151 0.990728 1.000000 0.000197 -0.000714 255 139 113 255
-0.160782 -0.119134 0.966103 1.000000 0.000197 -0.000714 255 139 113 255
-0.160828 0.119155 0.966133 1.000000 0.000197 -0.000714 255 139 113 255
-0.160828 0.119155 0.966133 0.000520 -0.000125 1.000000 255 139 113 255
-0.160782 -0.119134 0.966103 0.000520 -0.000125 1.000000 255 139 113 255
-0.107235 -0.119112 0.966075 0.000520 -0.000125 1.000000 255 139 113 255
0.106934 -0.119083 0.965906 0.001063 -0.000333 0.999999 255 139 113 255
0.160473 -0.119091 0.965849 0.001063 -0.000333 0.999999 255 139 113 255
0.160497 0.119117 0.965928 0.001063 -0.000333 0.999999 255 139 113 255
-0.026922 0.119147 0.966063 0.000792 -0.000124 1.000000 255 139 113 255
-0.026916 -0.119078 0.966033 0.000792 -0.000124 1.000000 255 139 113 255
0.026626 -0.119071 0.965991 0.000792 -0.000124 1.000000 255 139 113 255
-0.160764 -0.119139 0.990699 -0.000422 1.000000 0.000175 255 139 113 255
-0.107218 -0.119116 0.990671 -0.000422 1.000000 0.000175 255 139 113 255
-0.107235 -0.119112 0.966075 -0.000422 1.000000 0.000175 255 139 113 255
-0.026898 -0.119082 0.990629 -0.000135 1.000000 0.000174 255 139 113 255
0.026644 -0.119075 0.990587 -0.000135 1.000000 0.000174 255 139 113 255
0.026626 -0.119071 0.965991 -0.000135 1.000000 0.000174 255 139 113 255
0.106952 -0.119087 0.990501 0.000152 1.000000 0.000174 255 139 113 255
0.160490 -0.119095 0.990444 0.000152 1.000000 0.000174 255 139 113 255
0.160473 -0.119091 0.965849 0.000152 1.000000 0.000174 255 139 113 255
-0.107248 0.119147 0.990700 -1.000000 -0.000127 0.000714 255 139 113 255
-0.107266 0.119151 0.966105 -1.000000 -0.000127 0.000714 255 139 113 255
-0.107235 -0.119112 0.966075 -1.000000 -0.000127 0.000714 255 139 113 255
0.160515 0.119113 0.990524 -1.000000 0.000103 0.000715 255 139 113 255
0.160497 0.119117 0.965928 -1.000000 0.000103 0.000715 255 139 113 255
0.160473 -0.119091 0.965849 -1.000000 0.000103 0.000715 255 139 113 255
0.026650 0.119136 0.990624 -1.000000 0.000027 0.000714 255 139 113 255
0.026633 0.119140 0.966029 -1.000000 0.000027 0.000714 255 139 113 255
0.026626 -0.119071 0.965991 -1.000000 0.000027 0.000714 255 139 113 255
0.106969 0.119122 0.990564 -0.000172 -1.000000 -0.000174 255 139 113 255
0.106952 0.119126 0.965968 -0.000172 -1.000000 -0.000174 255 139 113 255
0.160497 0.119117 0.965928 -0.000172 -1.000000 -0.000174 255 139 113 255
-0.026904 0.119142 0.990659 -0.000117 -1.000000 -0.000174 255 139 113 255
-0.026922 0.119147 0.966063 -0.000117 -1.000000 -0.000174 255 139 113 255
0.026633 0.119140 0.966029 -0.000117 -1.000000 -0.000174 255 139 113 255
0.106969 0.119122 0.990564 1.000000 -0.000073 -0.000714 255 139 113 255
0.106952 -0.119087 0.990501 1.000000 -0.000073 -0.000714 255 139 113 255
0.106934 -0.119083 0.965906 1.000000 -0.000073 -0.000714 255 139 113 255
-0.160811 0.119151 0.990728 -0.000062 -1.000000 -0.000174 255 139 113 255
-0.160828 0.119155 0.966133 -0.000062 -1.000000 -0.000174 255 139 113 255
-0.107266 0.119151 0.966105 -0.000062 -1.000000 -0.000174 255 139 113 255
-0.026904 0.119142 0.990659 1.000000 0.000023 -0.000714 255 139 113 255
-0.026898 -0.119082 0.990629 1.000000 0.000023 -0.000714 255 139 113 255
-0.026916 -0.119078 0.966033 1.000000 0.000023 -0.000714 255 139 113 255
-0.160811 0.119151 0.990728 1.000000 0.000197 -0.000715 255 139 113 255
-0.160764 -0.119139 0.990699 1.000000 0.000197 -0.000715 255 139 113 255
-0.160782 -0.119134 0.966103 1.000000 0.000197 -0.000715 255 139 113 255
3 0 1 2
3 3 4 5
3 6 7 8
3 9 10 11
3 12 13 14
3 15 16 17
3 18 19 20
3 21 22 23
3 24 25 26
3 27 28 29
3 30 31 32
3 33 34 35
3 36 37 38
3 39 40 41
3 42 43 44
3 45 46 47
3 48 49 50
3 51 52 53
3 54 55 56
3 57 58 59
3 60 61 62
3 63 64 65
3 66 67 68
3 69 70 71
3 72 73 74
3 75 76 77
3 78 79 80
3 81 82 83
3 84 85 86
3 87 88 89
3 90 91 92
3 93 94 95
3 96 97 98
3 99 100 101
3 102 103 104
3 105 106 107
3 108 109 110
3 111 112 113
3 114 115 116
3 117 118 119
3 120 121 122
3 123 124 125
3 126 127 128
3 129 130 131
3 132 133 134
3 135 136 137
3 138 139 140
3 141 142 143
3 144 145 146
3 147 148 149
3 150 151 152
3 153 154 155
3 156 157 158
3 159 160 161
3 162 163 164
3 165 166 167
3 168 169 170
3 171 172 173
3 174 175 176
3 177 178 179
3 180 181 182
3 183 184 185
3 186 187 188
3 189 190 191
3 192 193 194
3 195 196 197
3 198 199 200
3 201 202 203
3 204 205 206
3 207 208 209
3 210 211 212
3 213 214 215
3 216 217 218
3 219 220 221
3 222 223 224
3 225 226 227
3 228 229 230
3 231 232 233
3 234 235 236
3 237 238 239
3 240 241 242
3 243 244 245
3 246 247 248
3 249 250 251
3 252 253 254
3 255 256 257
3 258 259 260
3 261 262 263
3 264 265 266
3 267 268 269
3 270 271 272
3 273 274 275
3 276 277 278
3 279 280 281
3 282 283 284
3 285 286 287
3 288 289 290
3 291 292 293
3 294 295 296
3 297 298 299
3 300 301 302
3 303 304 305
3 306 307 308
3 309 310 311
3 312 313 314
3 315 316 317
3 318 319 320
3 321 322 323
3 324 325 326
3 327 328 329
3 330 331 332
3 333 334 335
3 336 337 338
3 339 340 341
3 342 343 344
3 345 346 347
3 348 349 350
3 351 352 353
3 354 355 356
3 357 358 359
3 360 361 362
3 363 364 365
3 366 367 368
3 369 370 371
3 372 373 374
3 375 376 377
3 378 379 380
3 381 382 383
3 384 385 386
3 387 388 389
3 390 391 392
3 393 394 395
3 396 397 398
3 399 400 401
3 402 403 404
3 405 406 407
3 408 409 410
3 411 412 413
3 414 415 416
3 417 418 419
3 420 421 422
3 423 424 425
3 426 427 428
3 429 430 431
