ply
format ascii 1.0
comment Created by Blender 3.6.0 - www.blender.org
element vertex 414
property float x
property float y
property float z
property float nx
property float ny
property float nz
property uchar red
property uchar green
property uchar blue
property uchar alpha
element face 138
property list uchar uint vertex_indices
end_header
0.000000 -0.900000 0.030000 -0.163663 -0.283473 0.944911 110 185 124 255
-0.866025 -0.500000 0.000000 -0.163663 -0.283473 0.944911 110 185 124 255
0.000000 -1.000000 0.000000 -0.163663 -0.283473 0.944911 110 185 124 255
-0.779423 -0.450000 0.030000 -0.327327 0.000000 0.944911 110 185 124 255
-0.866025 0.500000 0.000000 -0.327327 0.000000 0.944911 110 185 124 255
-0.866025 -0.500000 0.000000 -0.327327 0.000000 0.944911 110 185 124 255
-0.866025 0.500000 0.000000 -0.163663 0.283473 0.944911 110 185 124 255
0.000000 0.900000 0.030000 -0.163663 0.283473 0.944911 110 185 124 255
0.000000 1.000000 0.000000 -0.163663 0.283473 0.944911 110 185 124 255
0.000000 0.900000 0.030000 0.163663 0.283473 0.944911 110 185 124 255
0.866025 0.500000 0.000000 0.163663 0.283473 0.944911 110 185 124 255
0.000000 1.000000 0.000000 0.163663 0.283473 0.944911 110 185 124 255
0.779423 0.450000 0.030000 0.327327 0.000000 0.944911 110 185 124 255
0.866025 -0.500000 0.000000 0.327327 0.000000 0.944911 110 185 124 255
0.866025 0.500000 0.000000 0.327327 0.000000 0.944911 110 185 124 255
0.866025 -0.500000 0.000000 0.163663 -0.283473 0.944911 110 185 124 255
0.000000 -0.900000 0.030000 0.163663 -0.283473 0.944911 110 185 124 255
0.000000 -1.000000 0.000000 0.163663 -0.283473 0.944911 110 185 124 255
-0.779423 -0.450000 0.030000 0.000000 0.000000 1.000000 110 185 124 255
0.000000 -0.900000 0.030000 0.000000 0.000000 1.000000 110 185 124 255
0.779423 -0.450000 0.030000 0.000000 0.000000 1.000000 110 185 124 255
0.000000 -0.900000 0.030000 -0.163663 -0.283473 0.944911 110 185 124 255
-0.779423 -0.450000 0.030000 -0.163663 -0.283473 0.944911 110 185 124 255
-0.866025 -0.500000 0.000000 -0.163663 -0.283473 0.944911 110 185 124 255
-0.779423 -0.450000 0.030000 -0.327327 0.000000 0.944911 110 185 124 255
-0.779423 0.450000 0.030000 -0.327327 0.000000 0.944911 110 185 124 255
-0.866025 0.500000 0.000000 -0.327327 0.000000 0.944911 110 185 124 255
-0.866025 0.500000 0.000000 -0.163663 0.283473 0.944911 110 185 124 255
-0.779423 0.450000 0.030000 -0.163663 0.283473 0.944911 110 185 124 255
0.000000 0.900000 0.030000 -0.163663 0.283473 0.944911 110 185 124 255
0.000000 0.900000 0.030000 0.163663 0.283473 0.944911 110 185 124 255
0.779423 0.450000 0.030000 0.163663 0.283473 0.944911 110 185 124 255
0.866025 0.500000 0.000000 0.163663 0.283473 0.944911 110 185 124 255
0.779423 0.450000 0.030000 0.327327 0.000000 0.944911 110 185 124 255
0.779423 -0.450000 0.030000 0.327327 0.000000 0.944911 110 185 124 255
0.866025 -0.500000 0.000000 0.327327 0.000000 0.944911 110 185 124 255
0.866025 -0.500000 0.000000 0.163663 -0.283473 0.944911 110 185 124 255
0.779423 -0.450000 0.030000 0.163663 -0.283473 0.944911 110 185 124 255
0.000000 -0.900000 0.030000 0.163663 -0.283473 0.944911 110 185 124 255
0.779423 -0.450000 0.030000 0.000000 0.000000 1.000000 110 185 124 255
0.779423 0.450000 0.030000 0.000000 0.000000 1.000000 110 185 124 255
-0.779423 -0.450000 0.030000 0.000000 0.000000 1.000000 110 185 124 255
0.779423 0.450000 0.030000 0.000000 0.000000 1.000000 110 185 124 255
0.000000 0.900000 0.030000 0.000000 0.000000 1.000000 110 185 124 255
-0.779423 -0.450000 0.030000 0.000000 0.000000 1.000000 110 185 124 255
0.000000 0.900000 0.030000 0.000000 0.000000 1.000000 110 185 124 255
-0.779423 0.450000 0.030000 0.000000 0.000000 1.000000 110 185 124 255
-0.779423 -0.450000 0.030000 0.000000 0.000000 1.000000 110 185 124 255
0.000000 -0.750000 0.060000 -0.500000 -0.866025 0.000000 245 237 142 255
-0.649519 -0.375000 0.030000 -0.500000 -0.866025 0.000000 245 237 142 255
0.000000 -0.750000 0.030000 -0.500000 -0.866025 0.000000 245 237 142 255
-0.649519 -0.375000 0.060000 -1.000000 0.000000 0.000000 245 237 142 255
-0.649519 0.375000 0.030000 -1.000000 0.000000 0.000000 245 237 142 255
-0.649519 -0.375000 0.030000 -1.000000 0.000000 0.000000 245 237 142 255
-0.649519 0.375000 0.060000 -0.500000 0.866025 0.000000 245 237 142 255
0.000000 0.750000 0.030000 -0.500000 0.866025 0.000000 245 237 142 255
-0.649519 0.375000 0.030000 -0.500000 0.866025 0.000000 245 237 142 255
0.000000 0.750000 0.060000 0.500000 0.866025 0.000000 245 237 142 255
0.649519 0.375000 0.030000 0.500000 0.866025 0.000000 245 237 142 255
0.000000 0.750000 0.030000 0.500000 0.866025 0.000000 245 237 142 255
0.000000 -0.750000 0.060000 0.000000 0.000000 1.000000 245 237 142 255
0.649519 0.375000 0.060000 0.000000 0.000000 1.000000 245 237 142 255
-0.649519 0.375000 0.060000 0.000000 0.000000 1.000000 245 237 142 255
0.649519 0.375000 0.060000 1.000000 0.000000 0.000000 245 237 142 255
0.649519 -0.375000 0.030000 1.000000 0.000000 0.000000 245 237 142 255
0.649519 0.375000 0.030000 1.000000 0.000000 0.000000 245 237 142 255
0.649519 -0.375000 0.060000 0.500000 -0.866025 0.000000 245 237 142 255
0.000000 -0.750000 0.030000 0.500000 -0.866025 0.000000 245 237 142 255
0.649519 -0.375000 0.030000 0.500000 -0.866025 0.000000 245 237 142 255
0.000000 -0.750000 0.060000 -0.500000 -0.866025 0.000000 245 237 142 255
-0.649519 -0.375000 0.060000 -0.500000 -0.866025 0.000000 245 237 142 255
-0.649519 -0.375000 0.030000 -0.500000 -0.866025 0.000000 245 237 142 255
-0.649519 -0.375000 0.060000 -1.000000 0.000000 0.000000 245 237 142 255
-0.649519 0.375000 0.060000 -1.000000 0.000000 0.000000 245 237 142 255
-0.649519 0.375000 0.030000 -1.000000 0.000000 0.000000 245 237 142 255
-0.649519 0.375000 0.060000 -0.500000 0.866025 0.000000 245 237 142 255
0.000000 0.750000 0.060000 -0.500000 0.866025 0.000000 245 237 142 255
0.000000 0.750000 0.030000 -0.500000 0.866025 0.000000 245 237 142 255
0.000000 0.750000 0.060000 0.500000 0.866025 0.000000 245 237 142 255
0.649519 0.375000 0.060000 0.500000 0.866025 0.000000 245 237 142 255
0.649519 0.375000 0.030000 0.500000 0.866025 0.000000 245 237 142 255
-0.649519 0.375000 0.060000 0.000000 0.000000 1.000000 245 237 142 255
-0.649519 -0.375000 0.060000 0.000000 0.000000 1.000000 245 237 142 255
0.000000 -0.750000 0.060000 0.000000 0.000000 1.000000 245 237 142 255
0.000000 -0.750000 0.060000 0.000000 0.000000 1.000000 245 237 142 255
0.649519 -0.375000 0.060000 0.000000 0.000000 1.000000 245 237 142 255
0.649519 0.375000 0.060000 0.000000 0.000000 1.000000 245 237 142 255
0.649519 0.375000 0.060000 0.000000 0.000000 1.000000 245 237 142 255
0.000000 0.750000 0.060000 0.000000 0.000000 1.000000 245 237 142 255
-0.649519 0.375000 0.060000 0.000000 0.000000 1.000000 245 237 142 255
0.649519 0.375000 0.060000 1.000000 0.000000 0.000000 245 237 142 255
0.649519 -0.375000 0.060000 1.000000 0.000000 0.000000 245 237 142 255
0.649519 -0.375000 0.030000 1.000000 0.000000 0.000000 245 237 142 255
0.649519 -0.375000 0.060000 0.500000 -0.866025 0.000000 245 237 142 255
0.000000 -0.750000 0.060000 0.500000 -0.866025 0.000000 245 237 142 255
0.000000 -0.750000 0.030000 0.500000 -0.866025 0.000000 245 237 142 255
0.495149 -0.285874 0.242816 0.373159 -0.646330 0.665590 245 199 150 255
0.000000 -0.330960 0.476637 0.373159 -0.646330 0.665590 245 199 150 255
0.000000 -0.571749 0.242816 0.373159 -0.646330 0.665590 245 199 150 255
0.495149 -0.285874 0.242816 0.746317 0.000000 0.665590 245 199 150 255
0.286619 0.165480 0.476637 0.746317 0.000000 0.665590 245 199 150 255
0.286619 -0.165480 0.476637 0.746317 0.000000 0.665590 245 199 150 255
0.425900 -0.245894 0.029550 0.475558 -0.823691 -0.308833 245 199 150 255
0.000000 -0.571749 0.242816 0.475558 -0.823691 -0.308833 245 199 150 255
0.000000 -0.491787 0.029550 0.475558 -0.823691 -0.308833 245 199 150 255
0.425900 0.245894 0.029550 0.951116 -0.000000 -0.308833 245 199 150 255
0.495149 -0.285874 0.242816 0.951116 -0.000000 -0.308833 245 199 150 255
0.425900 -0.245894 0.029550 0.951116 -0.000000 -0.308833 245 199 150 255
-0.172279 0.099465 0.936363 -0.500000 0.866025 0.000000 255 158 129 255
-0.000000 0.198930 1.068908 -0.500000 0.866025 0.000000 255 177 109 255
-0.000000 0.198930 0.936363 -0.500000 0.866025 0.000000 255 158 129 255
-0.000000 0.198930 0.936363 0.500000 0.866026 0.000000 255 158 129 255
0.172279 0.099465 1.068908 0.500000 0.866026 0.000000 255 177 109 255
0.172279 0.099465 0.936363 0.500000 0.866026 0.000000 255 158 129 255
0.299196 0.172741 0.677305 0.782751 0.000000 -0.622335 250 179 140 255
0.400949 -0.231488 0.805285 0.782751 0.000000 -0.622335 255 158 129 255
0.299196 -0.172741 0.677305 0.782751 0.000000 -0.622335 250 179 140 255
0.299196 -0.172741 0.677305 0.391375 -0.677882 -0.622335 250 179 140 255
0.000000 -0.462976 0.805285 0.391376 -0.677882 -0.622335 255 158 129 255
-0.000000 -0.345482 0.677305 0.391376 -0.677882 -0.622335 250 179 140 255
0.299196 -0.172741 0.677305 0.998042 0.000000 -0.062552 250 179 140 255
0.286619 0.165480 0.476637 0.998042 0.000000 -0.062552 245 199 150 255
0.299196 0.172741 0.677305 0.998042 0.000000 -0.062552 250 179 140 255
0.000000 -0.330960 0.476637 0.499021 -0.864329 -0.062551 245 199 150 255
0.299196 -0.172741 0.677305 0.499021 -0.864330 -0.062551 250 179 140 255
-0.000000 -0.345482 0.677305 0.499021 -0.864330 -0.062551 250 179 140 255
0.000000 0.571749 0.242816 0.373159 0.646330 0.665590 245 199 150 255
0.286619 0.165480 0.476637 0.373159 0.646330 0.665590 245 199 150 255
0.495149 0.285874 0.242816 0.373159 0.646330 0.665590 245 199 150 255
0.000000 0.491787 0.029550 0.475558 0.823691 -0.308833 245 199 150 255
0.495149 0.285874 0.242816 0.475558 0.823691 -0.308833 245 199 150 255
0.425900 0.245894 0.029550 0.475558 0.823691 -0.308833 245 199 150 255
0.172279 0.099465 0.936363 1.000000 0.000000 0.000000 255 158 129 255
0.172279 -0.099465 1.068908 1.000000 0.000000 0.000000 255 177 109 255
0.172279 -0.099465 0.936363 1.000000 0.000000 0.000000 255 158 129 255
0.299196 0.172741 0.677305 0.391376 0.677882 -0.622335 250 179 140 255
-0.000000 0.462976 0.805285 0.391376 0.677882 -0.622335 255 158 129 255
0.400949 0.231488 0.805285 0.391376 0.677882 -0.622335 255 158 129 255
0.299196 0.172741 0.677305 0.499021 0.864329 -0.062552 250 179 140 255
0.000000 0.330960 0.476637 0.499021 0.864329 -0.062552 245 199 150 255
-0.000000 0.345482 0.677305 0.499021 0.864329 -0.062552 250 179 140 255
0.000000 0.571749 0.242816 -0.373159 0.646330 0.665590 245 199 150 255
-0.286619 0.165480 0.476637 -0.373159 0.646330 0.665590 245 199 150 255
0.000000 0.330960 0.476637 -0.373159 0.646330 0.665590 245 199 150 255
-0.495149 -0.285875 0.242816 -0.746317 -0.000000 0.665590 245 199 150 255
-0.286619 0.165480 0.476637 -0.746317 -0.000000 0.665590 245 199 150 255
-0.495149 0.285874 0.242816 -0.746317 -0.000000 0.665590 245 199 150 255
-0.425900 0.245894 0.029550 -0.475558 0.823691 -0.308833 245 199 150 255
0.000000 0.571749 0.242816 -0.475558 0.823691 -0.308833 245 199 150 255
0.000000 0.491787 0.029550 -0.475558 0.823691 -0.308833 245 199 150 255
-0.425900 -0.245894 0.029550 -0.951116 -0.000000 -0.308833 245 199 150 255
-0.495149 0.285874 0.242816 -0.951116 -0.000000 -0.308833 245 199 150 255
-0.425900 0.245894 0.029550 -0.951116 -0.000000 -0.308833 245 199 150 255
0.000000 -0.198930 0.936363 -0.499999 -0.866026 -0.000000 255 158 129 255
-0.172279 -0.099465 1.068908 -0.500000 -0.866026 -0.000000 255 177 109 255
-0.172279 -0.099465 0.936363 -0.500000 -0.866026 -0.000000 255 158 129 255
-0.172279 -0.099465 0.936363 -1.000000 -0.000000 0.000000 255 158 129 255
-0.172279 0.099465 1.068908 -1.000000 -0.000000 0.000000 255 177 109 255
-0.172279 0.099465 0.936363 -1.000000 -0.000000 0.000000 255 158 129 255
-0.299196 -0.172741 0.677305 -0.782751 -0.000000 -0.622335 250 179 140 255
-0.400949 0.231488 0.805285 -0.782751 -0.000000 -0.622335 255 158 129 255
-0.299196 0.172741 0.677305 -0.782751 -0.000000 -0.622335 250 179 140 255
-0.299196 0.172741 0.677305 -0.391376 0.677882 -0.622335 250 179 140 255
-0.000000 0.462976 0.805285 -0.391376 0.677882 -0.622335 255 158 129 255
-0.000000 0.345482 0.677305 -0.391376 0.677882 -0.622335 250 179 140 255
-0.299196 0.172741 0.677305 -0.998042 -0.000000 -0.062552 250 179 140 255
-0.286619 -0.165480 0.476637 -0.998042 -0.000000 -0.062552 245 199 150 255
-0.299196 -0.172741 0.677305 -0.998042 -0.000000 -0.062552 250 179 140 255
0.000000 0.330960 0.476637 -0.499021 0.864329 -0.062552 245 199 150 255
-0.299196 0.172741 0.677305 -0.499021 0.864329 -0.062552 250 179 140 255
-0.000000 0.345482 0.677305 -0.499021 0.864329 -0.062552 250 179 140 255
-0.495149 -0.285875 0.242816 -0.373159 -0.646329 0.665591 245 199 150 255
0.000000 -0.330960 0.476637 -0.373159 -0.646329 0.665591 245 199 150 255
-0.286619 -0.165480 0.476637 -0.373159 -0.646329 0.665591 245 199 150 255
0.000000 -0.491787 0.029550 -0.475558 -0.823691 -0.308833 245 199 150 255
-0.495149 -0.285875 0.242816 -0.475558 -0.823691 -0.308833 245 199 150 255
-0.425900 -0.245894 0.029550 -0.475558 -0.823691 -0.308833 245 199 150 255
0.172279 -0.099465 0.936363 0.500000 -0.866025 0.000000 255 158 129 255
0.000000 -0.198930 1.068908 0.500000 -0.866026 0.000000 255 177 109 255
0.000000 -0.198930 0.936363 0.500000 -0.866026 0.000000 255 158 129 255
-0.000000 -0.345482 0.677305 -0.391376 -0.677882 -0.622335 250 179 140 255
-0.400949 -0.231488 0.805285 -0.391376 -0.677882 -0.622335 255 158 129 255
-0.299196 -0.172741 0.677305 -0.391376 -0.677882 -0.622335 250 179 140 255
-0.000000 -0.345482 0.677305 -0.499021 -0.864330 -0.062552 250 179 140 255
-0.286619 -0.165480 0.476637 -0.499021 -0.864330 -0.062552 245 199 150 255
0.000000 -0.330960 0.476637 -0.499021 -0.864330 -0.062552 245 199 150 255
0.000000 -0.462976 0.805285 -0.248654 -0.430682 0.867574 255 158 129 255
-0.172279 -0.099465 0.936363 -0.248654 -0.430682 0.867574 255 158 129 255
-0.400949 -0.231488 0.805285 -0.248654 -0.430682 0.867574 255 158 129 255
-0.000000 0.462976 0.805285 -0.248654 0.430682 0.867574 255 158 129 255
-0.172279 0.099465 0.936363 -0.248654 0.430682 0.867574 255 158 129 255
-0.000000 0.198930 0.936363 -0.248654 0.430682 0.867574 255 158 129 255
-0.400949 -0.231488 0.805285 -0.497308 -0.000000 0.867574 255 158 129 255
-0.172279 0.099465 0.936363 -0.497308 -0.000000 0.867574 255 158 129 255
-0.400949 0.231488 0.805285 -0.497308 -0.000000 0.867574 255 158 129 255
-0.000000 0.462976 0.805285 0.248654 0.430682 0.867574 255 158 129 255
0.172279 0.099465 0.936363 0.248654 0.430682 0.867574 255 158 129 255
0.400949 0.231488 0.805285 0.248654 0.430682 0.867574 255 158 129 255
0.400949 -0.231488 0.805285 0.248654 -0.430682 0.867574 255 158 129 255
0.000000 -0.198930 0.936363 0.248654 -0.430682 0.867574 255 158 129 255
0.000000 -0.462976 0.805285 0.248654 -0.430682 0.867574 255 158 129 255
0.400949 0.231488 0.805285 0.497309 -0.000000 0.867574 255 158 129 255
0.172279 -0.099465 0.936363 0.497309 -0.000000 0.867574 255 158 129 255
0.400949 -0.231488 0.805285 0.497309 -0.000000 0.867574 255 158 129 255
0.040615 0.023449 1.153435 0.491738 0.851716 0.181036 255 101 55 255
-0.000000 0.046898 1.153435 0.491738 0.851716 0.181036 255 101 55 255
0.004175 0.007257 1.328595 0.491738 0.851716 0.181036 255 87 71 255
0.000000 -0.198930 1.068908 -0.270119 -0.467861 0.841512 255 177 109 255
-0.040615 -0.023449 1.153435 -0.270119 -0.467861 0.841512 255 101 55 255
-0.172279 -0.099465 1.068908 -0.270119 -0.467861 0.841512 255 177 109 255
-0.000000 0.198930 1.068908 -0.270120 0.467861 0.841512 255 177 109 255
-0.040615 0.023449 1.153435 -0.270119 0.467861 0.841512 255 101 55 255
-0.000000 0.046898 1.153435 -0.270120 0.467861 0.841512 255 101 55 255
-0.172279 -0.099465 1.068908 -0.540239 -0.000000 0.841512 255 177 109 255
-0.040615 0.023449 1.153435 -0.540239 -0.000000 0.841512 255 101 55 255
-0.172279 0.099465 1.068908 -0.540239 -0.000000 0.841512 255 177 109 255
-0.000000 0.198930 1.068908 0.270119 0.467861 0.841512 255 177 109 255
0.040615 0.023449 1.153435 0.270119 0.467861 0.841512 255 101 55 255
0.172279 0.099465 1.068908 0.270119 0.467861 0.841512 255 177 109 255
0.000000 -0.198930 1.068908 0.270119 -0.467861 0.841512 255 177 109 255
0.040615 -0.023449 1.153435 0.270120 -0.467861 0.841512 255 101 55 255
0.000000 -0.046898 1.153435 0.270119 -0.467861 0.841511 255 101 55 255
0.172279 0.099465 1.068908 0.540239 0.000000 0.841512 255 177 109 255
0.040615 -0.023449 1.153435 0.540239 0.000000 0.841512 255 101 55 255
0.172279 -0.099465 1.068908 0.540239 0.000000 0.841512 255 177 109 255
0.040615 -0.023449 1.153435 0.612809 -0.778368 0.136412 255 101 55 255
0.011846 -0.017436 1.316988 0.612809 -0.778368 0.136412 255 87 71 255
-0.031306 -0.054212 1.300995 0.612809 -0.778368 0.136412 255 87 71 255
-0.040615 -0.023449 1.153435 -0.494539 -0.856569 -0.147380 255 101 55 255
0.000000 -0.046898 1.153435 -0.494539 -0.856569 -0.147380 255 101 55 255
-0.031306 -0.054212 1.300995 -0.494539 -0.856569 -0.147380 255 87 71 255
-0.040615 0.023449 1.153435 -0.998016 -0.000000 0.062958 255 101 55 255
-0.040615 -0.023449 1.153435 -0.998016 -0.000000 0.062958 255 101 55 255
-0.031306 -0.054212 1.300995 -0.998016 -0.000000 0.062958 255 87 71 255
-0.021045 0.001554 1.316988 -0.492451 0.852950 0.173112 255 87 71 255
-0.000000 0.046898 1.153435 -0.492451 0.852950 0.173112 255 101 55 255
-0.040615 0.023449 1.153435 -0.492451 0.852950 0.173112 255 101 55 255
-0.000000 0.046898 1.153435 -0.309213 0.925922 0.216921 255 101 55 255
-0.021045 0.001554 1.316988 -0.309213 0.925922 0.216921 255 87 71 255
0.004175 0.007257 1.328595 -0.309213 0.925923 0.216921 255 87 71 255
0.040615 -0.023449 1.153435 0.984880 0.000000 0.173241 255 101 55 255
0.040615 0.023449 1.153435 0.984879 0.000000 0.173241 255 101 55 255
0.011846 -0.017436 1.316988 0.984879 0.000000 0.173241 255 87 71 255
-0.101943 -0.176850 1.476028 0.819918 -0.014293 0.572302 255 88 88 255
0.011846 -0.017436 1.316988 0.819918 -0.014293 0.572302 255 87 71 255
0.004175 0.007257 1.328595 0.819918 -0.014293 0.572302 255 87 71 255
-0.021045 0.001554 1.316988 -0.980537 0.141358 0.136253 255 87 71 255
-0.040615 0.023449 1.153435 -0.980537 0.141358 0.136253 255 101 55 255
-0.031306 -0.054212 1.300995 -0.980537 0.141358 0.136253 255 87 71 255
0.000000 -0.046898 1.153435 0.499006 -0.864304 0.063028 255 101 55 255
0.040615 -0.023449 1.153435 0.499006 -0.864304 0.063028 255 101 55 255
-0.031306 -0.054212 1.300995 0.499006 -0.864304 0.063028 255 87 71 255
-0.099533 -0.172414 1.452715 0.703748 0.437761 -0.559558 255 88 88 255
-0.082024 -0.184618 1.465188 0.703748 0.437761 -0.559558 255 88 88 255
-0.177375 -0.306361 1.250023 0.703748 0.437761 -0.559558 255 0 42 255
-0.082024 -0.184618 1.465188 -0.056729 -0.857956 0.510582 255 88 88 255
-0.101943 -0.176850 1.476028 -0.056729 -0.857956 0.510582 255 88 88 255
-0.177375 -0.306361 1.250023 -0.056729 -0.857956 0.510582 255 0 42 255
-0.101943 -0.176850 1.476028 -0.719397 -0.471336 0.510206 255 88 88 255
-0.118537 -0.163311 1.465139 -0.719397 -0.471336 0.510206 255 88 88 255
-0.177375 -0.306361 1.250023 -0.719397 -0.471336 0.510206 255 0 42 255
-0.118537 -0.163311 1.465139 0.031123 0.828343 -0.559356 255 88 88 255
-0.099533 -0.172414 1.452715 0.031123 0.828343 -0.559356 255 88 88 255
-0.177375 -0.306361 1.250023 0.031123 0.828343 -0.559356 255 0 42 255
-0.031306 -0.054212 1.300995 -0.913665 0.258168 -0.313952 255 87 71 255
-0.118537 -0.163311 1.465139 -0.913665 0.258168 -0.313952 255 88 88 255
-0.021045 0.001554 1.316988 -0.913665 0.258168 -0.313952 255 87 71 255
-0.082024 -0.184618 1.465188 0.680542 -0.661474 -0.315143 255 88 88 255
-0.031306 -0.054212 1.300995 0.680542 -0.661474 -0.315143 255 87 71 255
0.011846 -0.017436 1.316988 0.680542 -0.661474 -0.315143 255 87 71 255
0.040615 0.023449 1.153435 0.956467 0.195125 0.217020 255 101 55 255
0.004175 0.007257 1.328595 0.956467 0.195125 0.217020 255 87 71 255
0.011846 -0.017436 1.316988 0.956467 0.195125 0.217020 255 87 71 255
-0.021045 0.001554 1.316988 -0.422489 0.702322 0.572928 255 87 71 255
-0.101943 -0.176850 1.476028 -0.422489 0.702322 0.572928 255 88 88 255
0.004175 0.007257 1.328595 -0.422489 0.702322 0.572928 255 87 71 255
0.495149 -0.285874 0.242816 0.373159 -0.646330 0.665590 245 199 150 255
0.286619 -0.165480 0.476637 0.373159 -0.646330 0.665590 245 199 150 255
0.000000 -0.330960 0.476637 0.373159 -0.646330 0.665590 245 199 150 255
0.495149 -0.285874 0.242816 0.746317 -0.000000 0.665590 245 199 150 255
0.495149 0.285874 0.242816 0.746317 -0.000000 0.665590 245 199 150 255
0.286619 0.165480 0.476637 0.746317 -0.000000 0.665590 245 199 150 255
0.425900 -0.245894 0.029550 0.475558 -0.823691 -0.308833 245 199 150 255
0.495149 -0.285874 0.242816 0.475558 -0.823691 -0.308833 245 199 150 255
0.000000 -0.571749 0.242816 0.475558 -0.823691 -0.308833 245 199 150 255
0.425900 0.245894 0.029550 0.951116 -0.000000 -0.308833 245 199 150 255
0.495149 0.285874 0.242816 0.951116 -0.000000 -0.308833 245 199 150 255
0.495149 -0.285874 0.242816 0.951116 -0.000000 -0.308833 245 199 150 255
-0.172279 0.099465 0.936363 -0.500000 0.866025 0.000000 255 158 129 255
-0.172279 0.099465 1.068908 -0.500000 0.866025 0.000000 255 177 109 255
-0.000000 0.198930 1.068908 -0.500000 0.866025 0.000000 255 177 109 255
-0.000000 0.198930 0.936363 0.500000 0.866026 0.000000 255 158 129 255
-0.000000 0.198930 1.068908 0.500000 0.866026 0.000000 255 177 109 255
0.172279 0.099465 1.068908 0.500000 0.866026 0.000000 255 177 109 255
0.299196 0.172741 0.677305 0.782751 -0.000000 -0.622335 250 179 140 255
0.400949 0.231488 0.805285 0.782751 -0.000000 -0.622335 255 158 129 255
0.400949 -0.231488 0.805285 0.782751 -0.000000 -0.622335 255 158 129 255
0.299196 -0.172741 0.677305 0.391376 -0.677882 -0.622335 250 179 140 255
0.400949 -0.231488 0.805285 0.391376 -0.677882 -0.622335 255 158 129 255
0.000000 -0.462976 0.805285 0.391376 -0.677882 -0.622335 255 158 129 255
0.299196 -0.172741 0.677305 0.998042 -0.000000 -0.062552 250 179 140 255
0.286619 -0.165480 0.476637 0.998042 -0.000000 -0.062552 245 199 150 255
0.286619 0.165480 0.476637 0.998042 -0.000000 -0.062552 245 199 150 255
0.000000 -0.330960 0.476637 0.499021 -0.864330 -0.062552 245 199 150 255
0.286619 -0.165480 0.476637 0.499021 -0.864329 -0.062552 245 199 150 255
0.299196 -0.172741 0.677305 0.499021 -0.864329 -0.062552 250 179 140 255
0.000000 0.571749 0.242816 0.373159 0.646330 0.665590 245 199 150 255
0.000000 0.330960 0.476637 0.373159 0.646330 0.665590 245 199 150 255
0.286619 0.165480 0.476637 0.373159 0.646330 0.665590 245 199 150 255
0.000000 0.491787 0.029550 0.475558 0.823691 -0.308833 245 199 150 255
0.000000 0.571749 0.242816 0.475558 0.823691 -0.308833 245 199 150 255
0.495149 0.285874 0.242816 0.475558 0.823691 -0.308833 245 199 150 255
0.172279 0.099465 0.936363 1.000000 0.000000 0.000000 255 158 129 255
0.172279 0.099465 1.068908 1.000000 0.000000 0.000000 255 177 109 255
0.172279 -0.099465 1.068908 1.000000 0.000000 0.000000 255 177 109 255
0.299196 0.172741 0.677305 0.391376 0.677882 -0.622335 250 179 140 255
-0.000000 0.345482 0.677305 0.391376 0.677882 -0.622335 250 179 140 255
-0.000000 0.462976 0.805285 0.391376 0.677882 -0.622335 255 158 129 255
0.299196 0.172741 0.677305 0.499021 0.864329 -0.062552 250 179 140 255
0.286619 0.165480 0.476637 0.499021 0.864330 -0.062552 245 199 150 255
0.000000 0.330960 0.476637 0.499021 0.864330 -0.062552 245 199 150 255
0.000000 0.571749 0.242816 -0.373159 0.646330 0.665590 245 199 150 255
-0.495149 0.285874 0.242816 -0.373159 0.646330 0.665590 245 199 150 255
-0.286619 0.165480 0.476637 -0.373159 0.646330 0.665590 245 199 150 255
-0.495149 -0.285875 0.242816 -0.746317 -0.000000 0.665591 245 199 150 255
-0.286619 -0.165480 0.476637 -0.746317 -0.000000 0.665591 245 199 150 255
-0.286619 0.165480 0.476637 -0.746317 -0.000000 0.665591 245 199 150 255
-0.425900 0.245894 0.029550 -0.475558 0.823691 -0.308833 245 199 150 255
-0.495149 0.285874 0.242816 -0.475558 0.823691 -0.308833 245 199 150 255
0.000000 0.571749 0.242816 -0.475558 0.823691 -0.308833 245 199 150 255
-0.425900 -0.245894 0.029550 -0.951116 -0.000000 -0.308833 245 199 150 255
-0.495149 -0.285875 0.242816 -0.951116 -0.000000 -0.308833 245 199 150 255
-0.495149 0.285874 0.242816 -0.951116 -0.000000 -0.308833 245 199 150 255
0.000000 -0.198930 0.936363 -0.500000 -0.866026 0.000000 255 158 129 255
0.000000 -0.198930 1.068908 -0.499999 -0.866026 0.000000 255 177 109 255
-0.172279 -0.099465 1.068908 -0.499999 -0.866026 0.000000 255 177 109 255
-0.172279 -0.099465 0.936363 -1.000000 -0.000000 -0.000000 255 158 129 255
-0.172279 -0.099465 1.068908 -1.000000 -0.000000 -0.000000 255 177 109 255
-0.172279 0.099465 1.068908 -1.000000 -0.000000 -0.000000 255 177 109 255
-0.299196 -0.172741 0.677305 -0.782751 -0.000000 -0.622335 250 179 140 255
-0.400949 -0.231488 0.805285 -0.782751 -0.000000 -0.622335 255 158 129 255
-0.400949 0.231488 0.805285 -0.782751 -0.000000 -0.622335 255 158 129 255
-0.299196 0.172741 0.677305 -0.391375 0.677882 -0.622335 250 179 140 255
-0.400949 0.231488 0.805285 -0.391375 0.677882 -0.622335 255 158 129 255
-0.000000 0.462976 0.805285 -0.391376 0.677882 -0.622335 255 158 129 255
-0.299196 0.172741 0.677305 -0.998042 -0.000000 -0.062552 250 179 140 255
-0.286619 0.165480 0.476637 -0.998042 -0.000000 -0.062552 245 199 150 255
-0.286619 -0.165480 0.476637 -0.998042 -0.000000 -0.062552 245 199 150 255
0.000000 0.330960 0.476637 -0.499021 0.864329 -0.062552 245 199 150 255
-0.286619 0.165480 0.476637 -0.499021 0.864330 -0.062552 245 199 150 255
-0.299196 0.172741 0.677305 -0.499021 0.864330 -0.062552 250 179 140 255
-0.495149 -0.285875 0.242816 -0.373159 -0.646330 0.665590 245 199 150 255
0.000000 -0.571749 0.242816 -0.373159 -0.646330 0.665590 245 199 150 255
0.000000 -0.330960 0.476637 -0.373159 -0.646330 0.665590 245 199 150 255
0.000000 -0.491787 0.029550 -0.475558 -0.823691 -0.308833 245 199 150 255
0.000000 -0.571749 0.242816 -0.475558 -0.823691 -0.308833 245 199 150 255
-0.495149 -0.285875 0.242816 -0.475558 -0.823691 -0.308833 245 199 150 255
0.172279 -0.099465 0.936363 0.500000 -0.866026 0.000000 255 158 129 255
0.172279 -0.099465 1.068908 0.500000 -0.866026 0.000000 255 177 109 255
0.000000 -0.198930 1.068908 0.500000 -0.866025 0.000000 255 177 109 255
-0.000000 -0.345482 0.677305 -0.391376 -0.677883 -0.622335 250 179 140 255
0.000000 -0.462976 0.805285 -0.391376 -0.677883 -0.622335 255 158 129 255
-0.400949 -0.231488 0.805285 -0.391376 -0.677883 -0.622335 255 158 129 255
-0.000000 -0.345482 0.677305 -0.499021 -0.864330 -0.062552 250 179 140 255
-0.299196 -0.172741 0.677305 -0.499021 -0.864330 -0.062552 250 179 140 255
-0.286619 -0.165480 0.476637 -0.499021 -0.864329 -0.062552 245 199 150 255
0.000000 -0.462976 0.805285 -0.248654 -0.430682 0.867574 255 158 129 255
0.000000 -0.198930 0.936363 -0.248654 -0.430682 0.867574 255 158 129 255
-0.172279 -0.099465 0.936363 -0.248654 -0.430682 0.867574 255 158 129 255
-0.000000 0.462976 0.805285 -0.248654 0.430682 0.867574 255 158 129 255
-0.400949 0.231488 0.805285 -0.248654 0.430682 0.867574 255 158 129 255
-0.172279 0.099465 0.936363 -0.248654 0.430682 0.867574 255 158 129 255
-0.400949 -0.231488 0.805285 -0.497308 -0.000000 0.867574 255 158 129 255
-0.172279 -0.099465 0.936363 -0.497308 -0.000000 0.867574 255 158 129 255
-0.172279 0.099465 0.936363 -0.497308 -0.000000 0.867574 255 158 129 255
-0.000000 0.462976 0.805285 0.248654 0.430682 0.867574 255 158 129 255
-0.000000 0.198930 0.936363 0.248654 0.430682 0.867574 255 158 129 255
0.172279 0.099465 0.936363 0.248654 0.430682 0.867574 255 158 129 255
0.400949 -0.231488 0.805285 0.248654 -0.430682 0.867574 255 158 129 255
0.172279 -0.099465 0.936363 0.248654 -0.430682 0.867574 255 158 129 255
0.000000 -0.198930 0.936363 0.248654 -0.430682 0.867574 255 158 129 255
0.400949 0.231488 0.805285 0.497308 0.000000 0.867574 255 158 129 255
0.172279 0.099465 0.936363 0.497308 0.000000 0.867574 255 158 129 255
0.172279 -0.099465 0.936363 0.497309 0.000000 0.867574 255 158 129 255
0.000000 -0.198930 1.068908 -0.270119 -0.467861 0.841512 255 177 109 255
0.000000 -0.046898 1.153435 -0.270119 -0.467861 0.841511 255 101 55 255
-0.040615 -0.023449 1.153435 -0.270119 -0.467861 0.841512 255 101 55 255
-0.000000 0.198930 1.068908 -0.270119 0.467861 0.841512 255 177 109 255
-0.172279 0.099465 1.068908 -0.270119 0.467861 0.841512 255 177 109 255
-0.040615 0.023449 1.153435 -0.270119 0.467861 0.841512 255 101 55 255
-0.172279 -0.099465 1.068908 -0.540239 -0.000000 0.841512 255 177 109 255
-0.040615 -0.023449 1.153435 -0.540239 -0.000000 0.841512 255 101 55 255
-0.040615 0.023449 1.153435 -0.540239 -0.000000 0.841512 255 101 55 255
-0.000000 0.198930 1.068908 0.270119 0.467861 0.841512 255 177 109 255
-0.000000 0.046898 1.153435 0.270119 0.467861 0.841512 255 101 55 255
0.040615 0.023449 1.153435 0.270119 0.467861 0.841512 255 101 55 255
0.000000 -0.198930 1.068908 0.270119 -0.467861 0.841512 255 177 109 255
0.172279 -0.099465 1.068908 0.270119 -0.467861 0.841512 255 177 109 255
0.040615 -0.023449 1.153435 0.270119 -0.467861 0.841512 255 101 55 255
0.172279 0.099465 1.068908 0.540239 0.000000 0.841512 255 177 109 255
0.040615 0.023449 1.153435 0.540239 0.000000 0.841512 255 101 55 255
0.040615 -0.023449 1.153435 0.540239 0.000000 0.841512 255 101 55 255
-0.101943 -0.176850 1.476028 0.550279 0.359209 0.753765 255 88 88 255
-0.082024 -0.184618 1.465188 0.550279 0.359209 0.753765 255 88 88 255
0.011846 -0.017436 1.316988 0.550279 0.359209 0.753765 255 87 71 255
-0.031306 -0.054212 1.300995 -0.629604 -0.449739 -0.633508 255 87 71 255
-0.099533 -0.172414 1.452715 -0.629604 -0.449739 -0.633508 255 88 88 255
-0.118537 -0.163311 1.465139 -0.629604 -0.449739 -0.633508 255 88 88 255
-0.082024 -0.184618 1.465188 -0.082579 -0.767817 -0.635324 255 88 88 255
-0.099533 -0.172414 1.452715 -0.082579 -0.767817 -0.635324 255 88 88 255
-0.031306 -0.054212 1.300995 -0.082579 -0.767817 -0.635324 255 87 71 255
-0.021045 0.001554 1.316988 0.039187 0.654964 0.754643 255 87 71 255
-0.118537 -0.163311 1.465139 0.039187 0.654964 0.754643 255 88 88 255
-0.101943 -0.176850 1.476028 0.039187 0.654964 0.754643 255 88 88 255
3 0 1 2
3 3 4 5
3 6 7 8
3 9 10 11
3 12 13 14
3 15 16 17
3 18 19 20
3 21 22 23
3 24 25 26
3 27 28 29
3 30 31 32
3 33 34 35
3 36 37 38
3 39 40 41
3 42 43 44
3 45 46 47
3 48 49 50
3 51 52 53
3 54 55 56
3 57 58 59
3 60 61 62
3 63 64 65
3 66 67 68
3 69 70 71
3 72 73 74
3 75 76 77
3 78 79 80
3 81 82 83
3 84 85 86
3 87 88 89
3 90 91 92
3 93 94 95
3 96 97 98
3 99 100 101
3 102 103 104
3 105 106 107
3 108 109 110
3 111 112 113
3 114 115 116
3 117 118 119
3 120 121 122
3 123 124 125
3 126 127 128
3 129 130 131
3 132 133 134
3 135 136 137
3 138 139 140
3 141 142 143
3 144 145 146
3 147 148 149
3 150 151 152
3 153 154 155
3 156 157 158
3 159 160 161
3 162 163 164
3 165 166 167
3 168 169 170
3 171 172 173
3 174 175 176
3 177 178 179
3 180 181 182
3 183 184 185
3 186 187 188
3 189 190 191
3 192 193 194
3 195 196 197
3 198 199 200
3 201 202 203
3 204 205 206
3 207 208 209
3 210 211 212
3 213 214 215
3 216 217 218
3 219 220 221
3 222 223 224
3 225 226 227
3 228 229 230
3 231 232 233
3 234 235 236
3 237 238 239
3 240 241 242
3 243 244 245
3 246 247 248
3 249 250 251
3 252 253 254
3 255 256 257
3 258 259 260
3 261 262 263
3 264 265 266
3 267 268 269
3 270 271 272
3 273 274 275
3 276 277 278
3 279 280 281
3 282 283 284
3 285 286 287
3 288 289 290
3 291 292 293
3 294 295 296
3 297 298 299
3 300 301 302
3 303 304 305
3 306 307 308
3 309 310 311
3 312 313 314
3 315 316 317
3 318 319 320
3 321 322 323
3 324 325 326
3 327 328 329
3 330 331 332
3 333 334 335
3 336 337 338
3 339 340 341
3 342 343 344
3 345 346 347
3 348 349 350
3 351 352 353
3 354 355 356
3 357 358 359
3 360 361 362
3 363 364 365
3 366 367 368
3 369 370 371
3 372 373 374
3 375 376 377
3 378 379 380
3 381 382 383
3 384 385 386
3 387 388 389
3 390 391 392
3 393 394 395
3 396 397 398
3 399 400 401
3 402 403 404
3 405 406 407
3 408 409 410
3 411 412 413
