ply
format ascii 1.0
comment Created by Blender 3.6.0 - www.blender.org
element vertex 378
property float x
property float y
property float z
property float nx
property float ny
property float nz
property uchar red
property uchar green
property uchar blue
property uchar alpha
element face 200
property list uchar uint vertex_indices
end_header
0.000000 -0.900000 0.030000 -0.163663 -0.283473 0.944911 110 185 124 255
-0.866025 -0.500000 0.000000 -0.163663 -0.283473 0.944911 110 185 124 255
0.000000 -1.000000 0.000000 -0.163663 -0.283473 0.944911 110 185 124 255
-0.779423 -0.450000 0.030000 -0.327327 0.000000 0.944911 110 185 124 255
-0.866025 0.500000 0.000000 -0.327327 0.000000 0.944911 110 185 124 255
-0.866025 -0.500000 0.000000 -0.327327 0.000000 0.944911 110 185 124 255
-0.866025 0.500000 0.000000 -0.163663 0.283473 0.944911 110 185 124 255
0.000000 0.900000 0.030000 -0.163663 0.283473 0.944911 110 185 124 255
0.000000 1.000000 0.000000 -0.163663 0.283473 0.944911 110 185 124 255
0.000000 0.900000 0.030000 0.163663 0.283473 0.944911 110 185 124 255
0.866025 0.500000 0.000000 0.163663 0.283473 0.944911 110 185 124 255
0.000000 1.000000 0.000000 0.163663 0.283473 0.944911 110 185 124 255
0.779423 0.450000 0.030000 0.327327 0.000000 0.944911 110 185 124 255
0.866025 -0.500000 0.000000 0.327327 0.000000 0.944911 110 185 124 255
0.866025 0.500000 0.000000 0.327327 0.000000 0.944911 110 185 124 255
0.866025 -0.500000 0.000000 0.163663 -0.283473 0.944911 110 185 124 255
0.000000 -0.900000 0.030000 0.163663 -0.283473 0.944911 110 185 124 255
0.000000 -1.000000 0.000000 0.163663 -0.283473 0.944911 110 185 124 255
-0.779423 -0.450000 0.030000 0.000000 0.000000 1.000000 110 185 124 255
0.000000 -0.900000 0.030000 0.000000 0.000000 1.000000 110 185 124 255
0.779423 -0.450000 0.030000 0.000000 0.000000 1.000000 110 185 124 255
-0.779423 -0.450000 0.030000 -0.163663 -0.283473 0.944911 110 185 124 255
-0.779423 0.450000 0.030000 -0.327327 0.000000 0.944911 110 185 124 255
-0.779423 0.450000 0.030000 -0.163663 0.283473 0.944911 110 185 124 255
0.779423 0.450000 0.030000 0.163663 0.283473 0.944911 110 185 124 255
0.779423 -0.450000 0.030000 0.327327 0.000000 0.944911 110 185 124 255
0.779423 -0.450000 0.030000 0.163663 -0.283473 0.944911 110 185 124 255
0.779423 0.450000 0.030000 0.000000 0.000000 1.000000 110 185 124 255
0.000000 0.900000 0.030000 0.000000 0.000000 1.000000 110 185 124 255
-0.779423 0.450000 0.030000 0.000000 0.000000 1.000000 110 185 124 255
0.000000 -0.750000 0.060000 -0.500000 -0.866025 0.000000 245 237 142 255
-0.649519 -0.375000 0.030000 -0.500000 -0.866025 0.000000 245 237 142 255
0.000000 -0.750000 0.030000 -0.500000 -0.866025 0.000000 245 237 142 255
-0.649519 -0.375000 0.060000 -1.000000 0.000000 0.000000 245 237 142 255
-0.649519 0.375000 0.030000 -1.000000 0.000000 0.000000 245 237 142 255
-0.649519 -0.375000 0.030000 -1.000000 0.000000 0.000000 245 237 142 255
-0.649519 0.375000 0.060000 -0.500000 0.866025 0.000000 245 237 142 255
0.000000 0.750000 0.030000 -0.500000 0.866025 0.000000 245 237 142 255
-0.649519 0.375000 0.030000 -0.500000 0.866025 0.000000 245 237 142 255
0.000000 0.750000 0.060000 0.500000 0.866025 0.000000 245 237 142 255
0.649519 0.375000 0.030000 0.500000 0.866025 0.000000 245 237 142 255
0.000000 0.750000 0.030000 0.500000 0.866025 0.000000 245 237 142 255
0.000000 -0.750000 0.060000 0.000000 0.000000 1.000000 245 237 142 255
0.649519 0.375000 0.060000 0.000000 0.000000 1.000000 245 237 142 255
-0.649519 0.375000 0.060000 0.000000 0.000000 1.000000 245 237 142 255
0.649519 0.375000 0.060000 1.000000 0.000000 0.000000 245 237 142 255
0.649519 -0.375000 0.030000 1.000000 0.000000 0.000000 245 237 142 255
0.649519 0.375000 0.030000 1.000000 0.000000 0.000000 245 237 142 255
0.649519 -0.375000 0.060000 0.500000 -0.866025 0.000000 245 237 142 255
0.000000 -0.750000 0.030000 0.500000 -0.866025 0.000000 245 237 142 255
0.649519 -0.375000 0.030000 0.500000 -0.866025 0.000000 245 237 142 255
-0.649519 -0.375000 0.060000 -0.500000 -0.866025 0.000000 245 237 142 255
-0.649519 0.375000 0.060000 -1.000000 0.000000 0.000000 245 237 142 255
0.000000 0.750000 0.060000 -0.500000 0.866025 0.000000 245 237 142 255
0.649519 0.375000 0.060000 0.500000 0.866025 0.000000 245 237 142 255
-0.649519 -0.375000 0.060000 0.000000 0.000000 1.000000 245 237 142 255
0.649519 -0.375000 0.060000 0.000000 0.000000 1.000000 245 237 142 255
0.000000 0.750000 0.060000 0.000000 0.000000 1.000000 245 237 142 255
0.649519 -0.375000 0.060000 1.000000 0.000000 0.000000 245 237 142 255
0.000000 -0.750000 0.060000 0.500000 -0.866025 0.000000 245 237 142 255
-0.495149 0.285875 0.242816 -0.373159 0.646330 0.665590 255 158 129 255
0.000000 0.330960 0.476637 -0.373159 0.646330 0.665590 245 199 150 255
-0.000000 0.571749 0.242816 -0.373159 0.646330 0.665590 255 158 129 255
-0.495149 0.285875 0.242816 -0.746317 0.000000 0.665590 255 158 129 255
-0.286619 -0.165480 0.476637 -0.746317 0.000000 0.665590 245 199 150 255
-0.286619 0.165480 0.476637 -0.746317 -0.000000 0.665590 245 199 150 255
-0.425900 0.245894 0.029550 -0.475558 0.823691 -0.308833 245 199 150 255
-0.000000 0.571749 0.242816 -0.475558 0.823691 -0.308833 255 158 129 255
-0.000000 0.491787 0.029550 -0.475558 0.823691 -0.308833 245 199 150 255
-0.425900 -0.245894 0.029550 -0.951116 0.000000 -0.308833 245 199 150 255
-0.495149 0.285875 0.242816 -0.951116 0.000000 -0.308833 255 158 129 255
-0.425900 0.245894 0.029550 -0.951116 0.000000 -0.308833 245 199 150 255
-0.369023 0.181247 0.909073 -0.568657 0.000000 0.822575 255 158 129 255
-0.119707 -0.038531 1.081428 -0.568657 0.000000 0.822575 255 158 129 255
-0.119707 0.038531 1.081428 -0.568657 0.000000 0.822575 255 158 129 255
-0.027547 0.410207 0.909073 -0.284328 0.492471 0.822575 255 158 129 255
-0.093222 0.084404 1.081428 -0.284328 0.492471 0.822575 255 158 129 255
-0.026485 0.122935 1.081428 -0.284328 0.492471 0.822575 255 158 129 255
-0.369023 -0.181247 0.909073 -0.897829 -0.001296 -0.440341 255 158 129 255
-0.369023 0.181247 0.909073 -0.897830 0.001296 -0.440341 255 158 129 255
-0.299196 -0.172741 0.766675 -0.897846 -0.000620 -0.440309 245 199 150 255
-0.341476 0.228960 0.909073 -0.450037 0.776896 -0.440341 255 158 129 255
-0.027547 0.410207 0.909073 -0.447793 0.778191 -0.440341 255 158 129 255
-0.299196 0.172741 0.766675 -0.449460 0.777248 -0.440309 245 199 150 255
-0.119707 0.038531 1.081428 -0.593063 -0.744038 0.307706 255 158 129 255
-0.371628 0.182751 0.944610 -0.509967 -0.859563 0.032926 255 158 129 255
-0.369023 0.181247 0.909073 -0.496951 -0.867779 0.000299 255 158 129 255
-0.093222 0.084404 1.081428 0.358091 0.887292 0.290660 255 158 129 255
-0.344081 0.230464 0.944610 0.490287 0.871013 0.030897 255 158 129 255
-0.109586 0.064255 1.158763 0.349592 0.885937 0.304795 255 158 129 255
-0.109586 0.064255 1.158763 -0.518864 0.299567 0.800649 255 158 129 255
-0.344081 0.230464 0.944610 -0.518864 0.299567 0.800649 255 158 129 255
-0.371628 0.182751 0.944610 -0.518864 0.299567 0.800649 255 158 129 255
-0.344081 -0.230464 0.944610 -0.518864 -0.299567 0.800649 255 158 129 255
-0.110440 -0.062777 1.158763 -0.518864 -0.299567 0.800649 255 158 129 255
-0.371628 -0.182751 0.944610 -0.518864 -0.299567 0.800649 255 158 129 255
-0.093222 -0.084404 1.081428 0.347825 -0.885627 0.307706 255 158 129 255
-0.344081 -0.230464 0.944610 0.489421 -0.871426 0.032923 255 158 129 255
-0.341476 -0.228960 0.909073 0.503044 -0.864261 0.000297 255 158 129 255
-0.371628 -0.182751 0.944610 -0.838027 -0.528885 -0.134133 255 158 129 255
-0.369023 -0.181247 0.909073 -0.758180 -0.646746 -0.082962 255 158 129 255
-0.347672 -0.200728 0.865822 -0.859547 -0.496260 -0.122084 255 158 129 255
-0.299196 0.172741 0.766675 -0.999061 0.000000 -0.043322 245 199 150 255
-0.286619 -0.165480 0.476637 -0.999061 0.000000 -0.043322 245 199 150 255
-0.299196 -0.172741 0.766675 -0.999061 0.000000 -0.043322 245 199 150 255
0.000000 0.330960 0.476637 -0.499531 0.865212 -0.043322 245 199 150 255
-0.299196 0.172741 0.766675 -0.499531 0.865212 -0.043322 245 199 150 255
0.000000 0.345482 0.766675 -0.499530 0.865212 -0.043321 245 199 150 255
-0.000000 -0.571749 0.242816 -0.373159 -0.646330 0.665590 255 158 129 255
-0.286619 -0.165480 0.476637 -0.373159 -0.646330 0.665590 245 199 150 255
-0.495149 -0.285874 0.242816 -0.373159 -0.646330 0.665590 255 158 129 255
-0.000000 -0.491787 0.029550 -0.475558 -0.823691 -0.308833 245 199 150 255
-0.495149 -0.285874 0.242816 -0.475558 -0.823691 -0.308833 255 158 129 255
-0.425900 -0.245894 0.029550 -0.475558 -0.823691 -0.308833 245 199 150 255
-0.027547 -0.410207 0.909073 -0.284329 -0.492471 0.822575 255 158 129 255
-0.093222 -0.084404 1.081428 -0.284328 -0.492471 0.822575 255 158 129 255
-0.341476 -0.228960 0.909073 -0.284328 -0.492471 0.822575 255 158 129 255
-0.027547 -0.410207 0.909073 -0.447793 -0.778191 -0.440341 255 158 129 255
-0.341476 -0.228960 0.909073 -0.450037 -0.776895 -0.440341 255 158 129 255
-0.000000 -0.345482 0.766675 -0.448387 -0.777867 -0.440309 245 199 150 255
-0.119707 -0.038531 1.081428 -0.589372 0.753762 0.290660 255 158 129 255
-0.371628 -0.182751 0.944610 -0.509176 0.860108 0.030896 255 158 129 255
-0.110440 -0.062777 1.158763 -0.592448 0.745724 0.304796 255 158 129 255
-0.026485 -0.122935 1.081428 -0.940745 -0.141757 0.308063 255 158 129 255
-0.027547 -0.413215 0.944610 -0.999385 -0.011889 0.032983 255 158 129 255
0.000905 -0.127047 1.158800 -0.934644 -0.148799 0.322954 255 158 129 255
0.027547 -0.413215 0.944610 0.000000 -0.599218 0.800586 255 158 129 255
0.000905 -0.127047 1.158800 0.000000 -0.599218 0.800586 255 158 129 255
-0.027547 -0.413215 0.944610 0.000000 -0.599218 0.800586 255 158 129 255
0.026485 -0.122935 1.081428 0.947710 -0.133218 0.289999 255 158 129 255
0.027547 -0.413215 0.944610 0.999465 -0.010876 0.030832 255 158 129 255
0.027547 -0.410207 0.909073 0.999994 0.003518 0.000297 255 158 129 255
-0.299196 -0.172741 0.766675 -0.499531 -0.865212 -0.043322 245 199 150 255
-0.000000 -0.330960 0.476637 -0.499531 -0.865212 -0.043322 245 199 150 255
-0.000000 -0.345482 0.766675 -0.499531 -0.865212 -0.043322 245 199 150 255
-0.000000 -0.571749 0.242816 0.373159 -0.646330 0.665590 255 158 129 255
0.286619 -0.165480 0.476637 0.373159 -0.646330 0.665590 245 199 150 255
-0.000000 -0.330960 0.476637 0.373159 -0.646330 0.665590 245 199 150 255
0.495149 0.285874 0.242816 0.746317 0.000000 0.665590 255 158 129 255
0.286619 -0.165480 0.476637 0.746317 0.000000 0.665590 245 199 150 255
0.495149 -0.285874 0.242816 0.746317 -0.000000 0.665590 255 158 129 255
0.425900 -0.245894 0.029550 0.475558 -0.823691 -0.308832 245 199 150 255
-0.000000 -0.571749 0.242816 0.475558 -0.823691 -0.308833 255 158 129 255
-0.000000 -0.491787 0.029550 0.475558 -0.823691 -0.308833 245 199 150 255
0.425900 0.245894 0.029550 0.951116 -0.000000 -0.308833 245 199 150 255
0.495149 -0.285874 0.242816 0.951116 0.000000 -0.308833 255 158 129 255
0.425900 -0.245894 0.029550 0.951116 0.000000 -0.308832 245 199 150 255
0.369023 -0.181247 0.909073 0.568657 -0.000000 0.822575 255 158 129 255
0.119707 0.038531 1.081428 0.568657 -0.000000 0.822575 255 158 129 255
0.119707 -0.038531 1.081428 0.568657 -0.000000 0.822575 255 158 129 255
0.027547 -0.410207 0.909073 0.284328 -0.492471 0.822575 255 158 129 255
0.093222 -0.084404 1.081428 0.284328 -0.492471 0.822575 255 158 129 255
0.026485 -0.122935 1.081428 0.284328 -0.492471 0.822575 255 158 129 255
0.369023 0.181247 0.909073 0.897830 0.001296 -0.440341 255 158 129 255
0.369023 -0.181247 0.909073 0.897830 -0.001295 -0.440341 255 158 129 255
0.299196 0.172741 0.766675 0.897846 0.000620 -0.440309 245 199 150 255
0.341476 -0.228960 0.909073 0.450037 -0.776896 -0.440341 255 158 129 255
0.027547 -0.410207 0.909073 0.447794 -0.778191 -0.440341 255 158 129 255
0.299196 -0.172741 0.766675 0.449460 -0.777248 -0.440309 245 199 150 255
0.119707 -0.038531 1.081428 0.593063 0.744039 0.307705 255 158 129 255
0.371628 -0.182751 0.944610 0.509967 0.859564 0.032925 255 158 129 255
0.369023 -0.181247 0.909073 0.496951 0.867779 0.000299 255 158 129 255
0.093222 -0.084404 1.081428 -0.358091 -0.887292 0.290660 255 158 129 255
0.344081 -0.230464 0.944610 -0.490287 -0.871013 0.030896 255 158 129 255
0.109586 -0.064255 1.158763 -0.349592 -0.885937 0.304796 255 158 129 255
0.109586 -0.064255 1.158763 0.518864 -0.299567 0.800649 255 158 129 255
0.344081 -0.230464 0.944610 0.518864 -0.299567 0.800649 255 158 129 255
0.371628 -0.182751 0.944610 0.518864 -0.299567 0.800649 255 158 129 255
0.344081 0.230464 0.944610 0.518864 0.299567 0.800650 255 158 129 255
0.110440 0.062777 1.158763 0.518864 0.299567 0.800650 255 158 129 255
0.371628 0.182751 0.944610 0.518864 0.299567 0.800650 255 158 129 255
0.093222 0.084404 1.081428 -0.347825 0.885627 0.307705 255 158 129 255
0.344081 0.230464 0.944610 -0.489421 0.871426 0.032924 255 158 129 255
0.341476 0.228960 0.909073 -0.503044 0.864261 0.000298 255 158 129 255
0.371628 0.182751 0.944610 0.838027 0.528884 -0.134133 255 158 129 255
0.369023 0.181247 0.909073 0.758181 0.646745 -0.082962 255 158 129 255
0.347672 0.200729 0.865822 0.859547 0.496260 -0.122085 255 158 129 255
0.299196 0.172741 0.766675 0.999061 0.000000 -0.043322 245 199 150 255
0.286619 -0.165480 0.476637 0.999061 0.000000 -0.043322 245 199 150 255
0.286619 0.165480 0.476637 0.999061 -0.000000 -0.043322 245 199 150 255
-0.000000 -0.330960 0.476637 0.499530 -0.865212 -0.043322 245 199 150 255
0.299196 -0.172741 0.766675 0.499530 -0.865212 -0.043322 245 199 150 255
-0.000000 -0.345482 0.766675 0.499531 -0.865212 -0.043322 245 199 150 255
0.495149 0.285874 0.242816 0.373159 0.646330 0.665591 255 158 129 255
0.000000 0.330960 0.476637 0.373159 0.646330 0.665590 245 199 150 255
0.286619 0.165480 0.476637 0.373159 0.646329 0.665591 245 199 150 255
-0.000000 0.491787 0.029550 0.475558 0.823691 -0.308833 245 199 150 255
0.495149 0.285874 0.242816 0.475558 0.823691 -0.308833 255 158 129 255
0.425900 0.245894 0.029550 0.475558 0.823691 -0.308833 245 199 150 255
0.027547 0.410207 0.909073 0.284328 0.492471 0.822575 255 158 129 255
0.093222 0.084404 1.081428 0.284328 0.492471 0.822575 255 158 129 255
0.341476 0.228960 0.909073 0.284328 0.492471 0.822575 255 158 129 255
0.027547 0.410207 0.909073 0.447793 0.778191 -0.440341 255 158 129 255
0.341476 0.228960 0.909073 0.450037 0.776895 -0.440341 255 158 129 255
0.000000 0.345482 0.766675 0.448386 0.777868 -0.440309 245 199 150 255
0.119707 0.038531 1.081428 0.589372 -0.753762 0.290660 255 158 129 255
0.371628 0.182751 0.944610 0.509176 -0.860108 0.030896 255 158 129 255
0.110440 0.062777 1.158763 0.592448 -0.745724 0.304796 255 158 129 255
0.026485 0.122935 1.081428 0.940745 0.141757 0.308063 255 158 129 255
0.027547 0.413215 0.944610 0.999385 0.011890 0.032983 255 158 129 255
-0.000905 0.127047 1.158800 0.934644 0.148799 0.322954 255 158 129 255
-0.027547 0.413215 0.944610 0.000000 0.599218 0.800586 255 158 129 255
-0.000905 0.127047 1.158800 0.000000 0.599218 0.800586 255 158 129 255
0.027547 0.413215 0.944610 0.000000 0.599218 0.800586 255 158 129 255
-0.026485 0.122935 1.081428 -0.947710 0.133218 0.289999 255 158 129 255
-0.027547 0.413215 0.944610 -0.999465 0.010875 0.030833 255 158 129 255
-0.027547 0.410207 0.909073 -0.999994 -0.003519 0.000297 255 158 129 255
-0.027547 -0.413215 0.944610 0.039012 -0.990195 -0.134132 255 158 129 255
-0.027547 -0.410207 0.909073 0.181003 -0.979977 -0.082962 255 158 129 255
-0.000000 -0.401457 0.865822 0.000000 -0.992520 -0.122084 255 158 129 255
0.000000 0.345482 0.766675 0.499531 0.865212 -0.043322 245 199 150 255
0.286619 0.165480 0.476637 0.499531 0.865212 -0.043322 245 199 150 255
0.000000 0.330960 0.476637 0.499531 0.865212 -0.043322 245 199 150 255
0.027547 0.413215 0.944610 -0.039013 0.990195 -0.134133 255 158 129 255
0.027547 0.410207 0.909073 -0.181006 0.979976 -0.082962 255 158 129 255
0.000000 0.401457 0.865822 0.000000 0.992520 -0.122085 255 158 129 255
-0.000905 0.127047 1.158800 -0.496618 0.859819 0.118668 255 158 129 255
-0.093222 0.084404 1.081428 -0.496653 0.859791 0.118726 255 158 129 255
-0.109586 0.064255 1.158763 -0.496746 0.859716 0.118879 255 158 129 255
-0.119707 0.038531 1.081428 -0.992198 0.004352 0.124600 255 158 129 255
-0.110440 -0.062777 1.158763 -0.992348 0.003444 0.123428 255 158 129 255
-0.109586 0.064255 1.158763 -0.991806 0.006663 0.127580 255 158 129 255
-0.026485 -0.122935 1.081428 -0.495733 -0.858718 0.129817 255 158 129 255
-0.110440 -0.062777 1.158763 -0.495741 -0.858715 0.129805 255 158 129 255
-0.093222 -0.084404 1.081428 -0.495773 -0.858703 0.129762 255 158 129 255
0.093222 -0.084404 1.081428 0.496653 -0.859791 0.118726 255 158 129 255
0.000905 -0.127047 1.158800 0.496617 -0.859819 0.118668 255 158 129 255
0.026485 -0.122935 1.081428 0.496480 -0.859930 0.118443 255 158 129 255
0.119707 -0.038531 1.081428 0.992198 -0.004351 0.124600 255 158 129 255
0.110440 0.062777 1.158763 0.992348 -0.003444 0.123428 255 158 129 255
0.109586 -0.064255 1.158763 0.991806 -0.006662 0.127580 255 158 129 255
0.026485 0.122935 1.081428 0.495733 0.858718 0.129817 255 158 129 255
0.110440 0.062777 1.158763 0.495741 0.858715 0.129805 255 158 129 255
0.093222 0.084404 1.081428 0.495772 0.858703 0.129762 255 158 129 255
-0.045830 0.026460 1.196285 -0.266299 0.921115 0.283958 255 158 129 255
-0.017237 -0.047142 1.461854 -0.398146 0.872069 0.284561 245 157 103 255
0.025832 0.044742 1.200287 -0.251885 0.925282 0.283561 255 158 129 255
-0.048576 -0.057610 1.445812 -0.740415 -0.664150 -0.103396 245 157 103 255
-0.025832 -0.044742 1.200287 -0.945989 -0.307157 -0.103727 255 158 129 255
-0.028714 -0.068858 1.416973 -0.593196 -0.799213 -0.096838 245 157 103 255
-0.017237 -0.047142 1.461854 0.834605 -0.115274 0.538653 245 157 103 255
-0.085989 -0.213471 1.532785 0.774708 -0.051466 0.630222 255 138 72 255
-0.011627 -0.076481 1.445820 0.842714 -0.125028 0.523642 245 157 103 255
-0.108409 -0.206395 1.517048 -0.374625 0.581384 -0.722252 255 138 72 255
-0.291970 -0.507746 1.369684 -0.620692 0.615557 -0.485624 249 60 45 255
-0.121785 -0.190577 1.536477 -0.369062 0.579953 -0.726256 255 138 72 255
-0.108409 -0.206395 1.517048 0.592426 0.069335 -0.802636 255 138 72 255
-0.274278 -0.515728 1.367898 0.757843 -0.095149 -0.645462 249 61 45 255
-0.285145 -0.512597 1.354442 0.762444 -0.100645 -0.639179 249 61 45 255
-0.025832 -0.044742 1.200287 0.217732 -0.966274 -0.137503 255 158 129 255
-0.011627 -0.076481 1.445820 -0.064625 -0.990144 -0.124252 245 157 103 255
-0.028714 -0.068858 1.416973 -0.243351 -0.963625 -0.110484 245 157 103 255
-0.121785 -0.190577 1.536477 -0.334910 0.615350 0.713568 255 138 72 255
-0.017237 -0.047142 1.461854 -0.485274 0.655030 0.579175 245 157 103 255
-0.048576 -0.057610 1.445812 -0.505400 0.658493 0.557636 245 157 103 255
-0.115014 -0.223321 1.567109 -0.866498 0.232472 0.441744 255 138 72 255
-0.291970 -0.507746 1.369684 -0.856098 0.202612 0.475442 249 60 45 255
-0.286992 -0.515706 1.381916 -0.855148 0.200100 0.478207 249 61 45 255
-0.085989 -0.213471 1.532785 -0.313191 0.666125 0.676897 255 138 72 255
-0.028714 -0.068858 1.416973 -0.543765 0.645181 0.536713 245 157 103 255
-0.108409 -0.206395 1.517048 -0.276897 0.665079 0.693540 255 138 72 255
-0.028714 -0.068858 1.416973 0.812210 -0.050444 0.581180 245 157 103 255
-0.121785 -0.190577 1.536477 0.808239 -0.041296 0.587405 255 138 72 255
-0.108409 -0.206395 1.517048 0.807589 -0.039821 0.588400 255 138 72 255
-0.286992 -0.515706 1.381916 -0.449504 -0.883737 -0.130213 249 61 45 255
-0.285145 -0.512597 1.354442 -0.412861 -0.901503 -0.129760 249 61 45 255
-0.274278 -0.515728 1.367898 -0.134426 -0.983590 -0.120335 249 61 45 255
-0.115014 -0.223321 1.567109 0.669452 -0.631333 0.391475 255 138 72 255
-0.274278 -0.515728 1.367898 0.569582 -0.651574 0.501028 249 61 45 255
-0.085989 -0.213471 1.532785 0.672471 -0.630431 0.387737 255 138 72 255
-0.017237 -0.047142 1.461854 0.966919 0.094398 0.236976 245 157 103 255
0.045830 -0.026460 1.196285 0.941096 0.236275 0.241893 255 158 129 255
0.025832 0.044742 1.200287 0.937566 0.249716 0.242101 255 158 129 255
-0.347672 0.200729 0.865822 -0.859547 0.496260 -0.122084 255 158 129 255
-0.369023 0.181247 0.909073 -0.758182 0.646744 -0.082962 255 158 129 255
-0.371628 0.182751 0.944610 -0.838028 0.528884 -0.134132 255 158 129 255
0.344081 -0.230464 0.944610 0.877040 -0.461312 -0.134132 255 158 129 255
0.347672 -0.200729 0.865822 0.859547 -0.496260 -0.122084 255 158 129 255
0.371628 -0.182751 0.944610 0.838028 -0.528884 -0.134132 255 158 129 255
0.110440 0.062777 1.158763 0.467502 0.032955 0.883377 255 158 129 255
0.025832 0.044742 1.200287 0.427557 0.069419 0.901319 255 158 129 255
0.045830 -0.026460 1.196285 0.354964 -0.203830 0.912389 255 158 129 255
-0.110440 -0.062777 1.158763 -0.413666 -0.217951 0.883956 255 158 129 255
-0.025832 -0.044742 1.200287 -0.370096 -0.293300 0.881478 255 158 129 255
-0.045830 0.026460 1.196285 -0.354964 0.203830 0.912389 255 158 129 255
-0.286619 0.165480 0.476637 -0.373159 0.646330 0.665590 245 199 150 255
-0.495149 -0.285874 0.242816 -0.746317 0.000000 0.665590 255 158 129 255
-0.495149 0.285875 0.242816 -0.475558 0.823691 -0.308833 255 158 129 255
-0.495149 -0.285874 0.242816 -0.951116 0.000000 -0.308833 255 158 129 255
-0.369023 -0.181247 0.909073 -0.568657 0.000000 0.822575 255 158 129 255
-0.341476 0.228960 0.909073 -0.284328 0.492471 0.822575 255 158 129 255
-0.347672 0.200729 0.865822 -0.897709 0.005788 -0.440550 255 158 129 255
-0.299196 0.172741 0.766675 -0.897846 0.000620 -0.440309 245 199 150 255
-0.347672 -0.200728 0.865822 -0.897709 -0.005790 -0.440551 255 158 129 255
0.000000 0.401457 0.865822 -0.443841 0.780334 -0.440551 255 158 129 255
0.000000 0.345482 0.766675 -0.448386 0.777867 -0.440309 245 199 150 255
-0.347672 0.200729 0.865822 -0.453867 0.774545 -0.440550 255 158 129 255
-0.109586 0.064255 1.158763 -0.596111 -0.735251 0.322580 255 158 129 255
-0.341476 0.228960 0.909073 0.503044 0.864261 0.000299 255 158 129 255
-0.110440 -0.062777 1.158763 0.338690 -0.883873 0.322580 255 158 129 255
-0.341476 -0.228960 0.909073 -0.939189 -0.333228 -0.082960 255 158 129 255
-0.344081 -0.230464 0.944610 -0.877041 -0.461312 -0.134132 255 158 129 255
-0.286619 0.165480 0.476637 -0.999061 0.000000 -0.043322 245 199 150 255
-0.286619 0.165480 0.476637 -0.499531 0.865212 -0.043322 245 199 150 255
-0.000000 -0.330960 0.476637 -0.373159 -0.646330 0.665590 245 199 150 255
-0.000000 -0.571749 0.242816 -0.475558 -0.823691 -0.308833 255 158 129 255
-0.026485 -0.122935 1.081428 -0.284328 -0.492471 0.822575 255 158 129 255
-0.347672 -0.200728 0.865822 -0.453869 -0.774544 -0.440551 255 158 129 255
-0.299196 -0.172741 0.766675 -0.449460 -0.777247 -0.440309 245 199 150 255
-0.000000 -0.401457 0.865822 -0.443843 -0.780333 -0.440550 255 158 129 255
-0.369023 -0.181247 0.909073 -0.496950 0.867779 0.000298 255 158 129 255
-0.027547 -0.410207 0.909073 -0.999994 0.003518 0.000298 255 158 129 255
0.000905 -0.127047 1.158800 0.942311 -0.139887 0.304107 255 158 129 255
-0.286619 -0.165480 0.476637 -0.499531 -0.865212 -0.043322 245 199 150 255
0.495149 -0.285874 0.242816 0.373159 -0.646330 0.665590 255 158 129 255
0.286619 0.165480 0.476637 0.746317 0.000000 0.665591 245 199 150 255
0.495149 -0.285874 0.242816 0.475558 -0.823691 -0.308832 255 158 129 255
0.495149 0.285874 0.242816 0.951116 -0.000000 -0.308833 255 158 129 255
0.369023 0.181247 0.909073 0.568657 -0.000000 0.822575 255 158 129 255
0.341476 -0.228960 0.909073 0.284328 -0.492471 0.822575 255 158 129 255
0.347672 -0.200729 0.865822 0.897709 -0.005788 -0.440550 255 158 129 255
0.299196 -0.172741 0.766675 0.897846 -0.000620 -0.440309 245 199 150 255
0.347672 0.200729 0.865822 0.897709 0.005790 -0.440551 255 158 129 255
-0.000000 -0.401457 0.865822 0.443844 -0.780332 -0.440550 255 158 129 255
-0.000000 -0.345482 0.766675 0.448387 -0.777868 -0.440308 245 199 150 255
0.347672 -0.200729 0.865822 0.453868 -0.774544 -0.440550 255 158 129 255
0.109586 -0.064255 1.158763 0.596111 0.735251 0.322580 255 158 129 255
0.341476 -0.228960 0.909073 -0.503044 -0.864261 0.000298 255 158 129 255
0.110440 0.062777 1.158763 -0.338690 0.883873 0.322580 255 158 129 255
0.341476 0.228960 0.909073 0.939189 0.333229 -0.082960 255 158 129 255
0.344081 0.230464 0.944610 0.877040 0.461312 -0.134133 255 158 129 255
0.299196 -0.172741 0.766675 0.999061 0.000000 -0.043322 245 199 150 255
0.286619 -0.165480 0.476637 0.499530 -0.865212 -0.043322 245 199 150 255
-0.000000 0.571749 0.242816 0.373159 0.646330 0.665590 255 158 129 255
-0.000000 0.571749 0.242816 0.475558 0.823691 -0.308833 255 158 129 255
0.026485 0.122935 1.081428 0.284328 0.492471 0.822575 255 158 129 255
0.347672 0.200729 0.865822 0.453869 0.774544 -0.440551 255 158 129 255
0.299196 0.172741 0.766675 0.449460 0.777248 -0.440309 245 199 150 255
0.000000 0.401457 0.865822 0.443840 0.780334 -0.440550 255 158 129 255
0.369023 0.181247 0.909073 0.496950 -0.867779 0.000298 255 158 129 255
0.027547 0.410207 0.909073 0.999994 -0.003518 0.000298 255 158 129 255
-0.000905 0.127047 1.158800 -0.942311 0.139887 0.304107 255 158 129 255
0.027547 -0.410207 0.909073 -0.181003 -0.979977 -0.082962 255 158 129 255
0.027547 -0.413215 0.944610 -0.039011 -0.990195 -0.134132 255 158 129 255
0.299196 0.172741 0.766675 0.499531 0.865212 -0.043322 245 199 150 255
-0.027547 0.410207 0.909073 0.181007 0.979977 -0.082962 255 158 129 255
-0.027547 0.413215 0.944610 0.039013 0.990195 -0.134133 255 158 129 255
-0.026485 0.122935 1.081428 -0.496480 0.859929 0.118444 255 158 129 255
-0.119707 -0.038531 1.081428 -0.992896 0.000000 0.118983 255 158 129 255
0.000905 -0.127047 1.158800 -0.495712 -0.858726 0.129845 255 158 129 255
0.109586 -0.064255 1.158763 0.496746 -0.859716 0.118879 255 158 129 255
0.119707 0.038531 1.081428 0.992896 -0.000000 0.118984 255 158 129 255
-0.000905 0.127047 1.158800 0.495712 0.858726 0.129845 255 158 129 255
-0.048576 -0.057610 1.445812 -0.431332 0.856397 0.283790 245 157 103 255
-0.045830 0.026460 1.196285 -0.956113 -0.274320 -0.102944 255 158 129 255
-0.115014 -0.223321 1.567109 0.769278 -0.046230 0.637239 255 138 72 255
-0.285145 -0.512597 1.354442 -0.627557 0.615451 -0.476857 249 61 45 255
-0.085989 -0.213471 1.532785 0.588297 0.072861 -0.805356 255 138 72 255
0.045830 -0.026460 1.196285 0.237581 -0.961510 -0.138035 255 158 129 255
-0.115014 -0.223321 1.567109 -0.321213 0.610689 0.723797 255 138 72 255
-0.121785 -0.190577 1.536477 -0.866737 0.233219 0.440882 255 138 72 255
-0.011627 -0.076481 1.445820 -0.577298 0.637371 0.510377 245 157 103 255
-0.048576 -0.057610 1.445812 0.812874 -0.051999 0.580113 245 157 103 255
-0.291970 -0.507746 1.369684 -0.744143 -0.656357 -0.124286 249 60 45 255
-0.286992 -0.515706 1.381916 0.560745 -0.652595 0.509592 249 61 45 255
-0.011627 -0.076481 1.445820 0.970338 0.057187 0.234890 245 157 103 255
-0.344081 0.230464 0.944610 -0.877040 0.461312 -0.134132 255 158 129 255
-0.341476 0.228960 0.909073 -0.939187 0.333235 -0.082962 255 158 129 255
0.341476 -0.228960 0.909073 0.939188 -0.333233 -0.082961 255 158 129 255
0.369023 -0.181247 0.909073 0.758181 -0.646744 -0.082962 255 158 129 255
-0.025832 -0.044742 1.200287 0.153555 -0.404552 0.901531 255 158 129 255
0.000905 -0.127047 1.158800 0.203115 -0.420290 0.884365 255 158 129 255
0.109586 -0.064255 1.158763 0.390140 -0.227605 0.892181 255 158 129 255
0.025832 0.044742 1.200287 0.069203 0.466875 0.881612 255 158 129 255
0.110440 0.062777 1.158763 0.291406 0.504384 0.812822 255 158 129 255
-0.000905 0.127047 1.158800 -0.017181 0.466275 0.884473 255 158 129 255
-0.109586 0.064255 1.158763 -0.390140 0.227605 0.892181 255 158 129 255
0.000905 -0.127047 1.158800 -0.291406 -0.504384 0.812822 255 158 129 255
3 0 1 2
3 3 4 5
3 6 7 8
3 9 10 11
3 12 13 14
3 15 16 17
3 18 19 20
3 0 21 1
3 3 22 4
3 6 23 7
3 9 24 10
3 12 25 13
3 15 26 16
3 20 27 18
3 27 28 18
3 28 29 18
3 30 31 32
3 33 34 35
3 36 37 38
3 39 40 41
3 42 43 44
3 45 46 47
3 48 49 50
3 30 51 31
3 33 52 34
3 36 53 37
3 39 54 40
3 44 55 42
3 42 56 43
3 43 57 44
3 45 58 46
3 48 59 49
3 60 61 62
3 63 64 65
3 66 67 68
3 69 70 71
3 72 73 74
3 75 76 77
3 78 79 80
3 81 82 83
3 84 85 86
3 87 88 89
3 90 91 92
3 93 94 95
3 96 97 98
3 99 100 101
3 102 103 104
3 105 106 107
3 108 109 110
3 111 112 113
3 114 115 116
3 117 118 119
3 120 121 122
3 123 124 125
3 126 127 128
3 129 130 131
3 132 133 134
3 135 136 137
3 138 139 140
3 141 142 143
3 144 145 146
3 147 148 149
3 150 151 152
3 153 154 155
3 156 157 158
3 159 160 161
3 162 163 164
3 165 166 167
3 168 169 170
3 171 172 173
3 174 175 176
3 177 178 179
3 180 181 182
3 183 184 185
3 186 187 188
3 189 190 191
3 192 193 194
3 195 196 197
3 198 199 200
3 201 202 203
3 204 205 206
3 207 208 209
3 210 211 212
3 213 214 215
3 216 217 218
3 219 220 221
3 222 223 224
3 225 226 227
3 228 229 230
3 231 232 233
3 234 235 236
3 237 238 239
3 240 241 242
3 243 244 245
3 246 247 248
3 249 250 251
3 252 253 254
3 255 256 257
3 258 259 260
3 261 262 263
3 264 265 266
3 267 268 269
3 270 271 272
3 273 274 275
3 276 277 278
3 279 280 281
3 282 283 284
3 60 285 61
3 63 286 64
3 66 287 67
3 69 288 70
3 72 289 73
3 75 290 76
3 291 292 79
3 292 80 79
3 80 293 78
3 294 295 82
3 295 83 82
3 83 296 81
3 84 297 85
3 87 298 88
3 96 299 97
3 101 300 301
3 301 99 101
3 102 302 103
3 105 303 106
3 108 304 109
3 111 305 112
3 114 306 115
3 307 308 118
3 308 119 118
3 119 309 117
3 120 310 121
3 123 311 124
3 129 312 130
3 132 313 133
3 135 314 136
3 138 315 139
3 141 316 142
3 144 317 145
3 147 318 148
3 150 319 151
3 320 321 154
3 321 155 154
3 155 322 153
3 323 324 157
3 324 158 157
3 158 325 156
3 159 326 160
3 162 327 163
3 171 328 172
3 176 329 330
3 330 174 176
3 177 331 178
3 180 332 181
3 183 333 184
3 186 334 187
3 189 335 190
3 336 337 193
3 337 194 193
3 194 338 192
3 195 339 196
3 198 340 199
3 204 341 205
3 209 342 343
3 343 207 209
3 210 344 211
3 215 345 346
3 346 213 215
3 216 347 217
3 219 348 220
3 222 349 223
3 225 350 226
3 228 351 229
3 231 352 232
3 234 353 235
3 237 354 238
3 240 355 241
3 243 356 244
3 246 357 247
3 249 358 250
3 252 359 253
3 255 360 256
3 258 361 259
3 261 362 262
3 264 363 265
3 267 364 268
3 270 365 271
3 275 366 273
3 366 367 273
3 368 277 276
3 277 369 278
3 281 370 371
3 371 372 281
3 372 279 281
3 373 374 375
3 375 376 284
3 376 282 284
3 282 377 283
3 284 373 375
