ply
format ascii 1.0
comment Created by Blender 3.6.0 - www.blender.org
element vertex 388
property float x
property float y
property float z
property float nx
property float ny
property float nz
property uchar red
property uchar green
property uchar blue
property uchar alpha
element face 198
property list uchar uint vertex_indices
end_header
0.153020 -0.372565 0.173015 0.000000 -0.990422 -0.138072 255 146 152 255
-0.205803 -0.356461 0.057500 0.000000 -0.990422 -0.138072 255 146 152 255
0.205803 -0.356461 0.057500 0.000000 -0.990422 -0.138072 254 144 143 255
0.330419 0.000662 1.000645 0.789169 0.021924 0.613785 255 146 152 255
0.360234 -0.045796 0.963971 0.789169 0.021924 0.613785 255 146 152 255
0.357561 0.050425 0.963971 0.789169 0.021924 0.613785 255 146 152 255
-0.153702 0.372527 0.173004 -0.508844 0.860589 -0.021575 255 146 152 255
-0.205803 0.356460 0.057500 -0.505756 0.855750 0.109096 255 146 152 255
-0.247109 0.317317 0.173045 -0.508709 0.860648 -0.022363 255 146 152 255
-0.272281 -0.354793 0.546589 -0.866025 -0.500000 0.000000 255 146 152 255
-0.443400 -0.058406 0.643269 -0.866025 -0.500000 0.000000 255 146 152 255
-0.443400 -0.058406 0.546589 -0.866025 -0.500000 0.000000 255 146 152 255
-0.245460 -0.319845 0.172994 -0.857796 -0.495249 -0.137533 255 146 152 255
-0.411605 -0.000001 0.057500 -0.857796 -0.495249 -0.137534 255 146 152 255
-0.205803 -0.356461 0.057500 -0.857796 -0.495249 -0.137533 255 146 152 255
-0.359345 -0.047334 0.963971 -0.519670 -0.299652 0.800095 255 146 152 255
-0.165110 -0.286263 1.000645 -0.520456 -0.300413 0.799299 255 146 152 255
-0.330349 0.000342 1.000645 -0.519562 -0.299548 0.800204 255 146 152 255
-0.273989 0.351834 0.546589 -0.866025 0.500000 0.000000 255 146 152 255
-0.441692 0.061364 0.643269 -0.866025 0.500000 0.000000 255 146 152 255
-0.273989 0.351834 0.643269 -0.866025 0.500000 0.000000 255 146 152 255
-0.398360 0.055344 0.173045 -0.857636 0.495156 -0.138857 255 146 152 255
-0.205803 0.356460 0.057500 -0.857636 0.495156 -0.138857 255 146 152 255
-0.411605 -0.000001 0.057500 -0.857636 0.495156 -0.138857 255 146 152 255
-0.222049 0.285137 0.963971 -0.521196 0.301034 0.798582 255 146 152 255
-0.330349 0.000342 1.000645 -0.521526 0.301127 0.798331 255 146 152 255
-0.165398 0.285919 1.000645 -0.521151 0.301021 0.798616 255 146 152 255
0.153703 0.372527 0.173004 0.511932 0.858774 -0.020790 254 143 132 255
0.170483 0.413198 0.546589 0.512552 0.856720 -0.057629 255 146 152 255
0.274484 0.350977 0.546589 0.512419 0.856799 -0.057634 255 146 152 255
-0.170483 0.413198 0.546589 -0.000000 1.000000 0.000000 255 146 152 255
0.170483 0.413198 0.643269 -0.000000 1.000000 0.000000 255 146 152 255
0.170483 0.413198 0.546589 -0.000000 1.000000 0.000000 255 146 152 255
-0.153702 0.372527 0.173004 -0.000000 0.990464 -0.137775 255 146 152 255
0.205803 0.356460 0.057500 -0.000000 0.990464 -0.137775 254 145 140 255
-0.205803 0.356460 0.057500 -0.000000 0.990464 -0.137775 255 146 152 255
0.138165 0.334869 0.963971 0.000162 0.598958 0.800780 255 146 152 255
-0.165398 0.285919 1.000645 0.000031 0.599478 0.800391 255 146 152 255
0.165456 0.285820 1.000645 0.000180 0.598887 0.800834 255 146 152 255
0.274484 0.350977 0.546589 0.866025 0.500000 0.000000 255 146 152 255
0.441198 0.062220 0.643269 0.866025 0.500000 0.000000 255 146 152 255
0.441198 0.062220 0.546589 0.866025 0.500000 0.000000 255 144 147 255
0.397966 0.056124 0.173060 0.857588 0.495128 -0.139252 255 146 151 255
0.205803 0.356460 0.057500 0.857588 0.495129 -0.139252 254 145 140 255
0.247588 0.316586 0.173060 0.857588 0.495129 -0.139252 255 146 152 255
0.222450 0.284443 0.963971 0.521286 0.301505 0.798345 255 146 152 255
0.330419 0.000662 1.000645 0.522752 0.301918 0.797230 255 146 152 255
0.357561 0.050425 0.963971 0.523115 0.302021 0.796953 255 146 152 255
0.271185 -0.356691 0.546589 0.866025 -0.500000 0.000000 255 146 152 255
0.444496 -0.056508 0.643269 0.866025 -0.500000 0.000000 255 146 152 255
0.271185 -0.356691 0.643269 0.866025 -0.500000 0.000000 255 146 152 255
0.244406 -0.321468 0.172963 0.857894 -0.495305 -0.136715 255 145 148 255
0.411605 -0.000001 0.057500 0.857894 -0.495305 -0.136715 255 146 151 255
0.400602 -0.050928 0.172963 0.857894 -0.495305 -0.136715 255 146 152 255
0.360234 -0.045796 0.963971 0.519184 -0.299187 0.800584 255 146 152 255
0.164983 -0.286483 1.000645 0.520370 -0.300331 0.799385 255 146 152 255
0.219777 -0.289074 0.963971 0.520640 -0.300592 0.799111 255 146 152 255
0.169709 -0.413199 0.546589 0.000000 -1.000000 0.000000 255 146 152 255
-0.169709 -0.413199 0.643269 0.000000 -1.000000 0.000000 255 146 152 255
-0.169709 -0.413199 0.546589 0.000000 -1.000000 0.000000 255 146 152 255
-0.137537 -0.334870 0.963971 -0.000362 -0.602605 0.798040 255 146 152 255
0.164983 -0.286483 1.000645 -0.000069 -0.603766 0.797162 255 146 152 255
-0.165110 -0.286263 1.000645 -0.000402 -0.602446 0.798159 255 146 152 255
-0.114118 0.196712 1.058482 0.000456 0.618237 0.785991 255 146 152 255
0.000000 -0.000001 1.213144 0.000456 0.618237 0.785991 255 146 152 255
0.114216 0.196543 1.058482 0.000456 0.618237 0.785991 255 146 152 255
0.114216 0.196543 1.058482 0.533411 0.309482 0.787206 255 146 152 255
0.000000 -0.000001 1.213144 0.533411 0.309482 0.787206 255 146 152 255
0.227598 0.001123 1.058482 0.533411 0.309482 0.787206 255 146 152 255
-0.113630 -0.197294 1.058482 -0.535443 -0.308071 0.786380 255 146 152 255
0.000000 -0.000001 1.213144 -0.535443 -0.308071 0.786380 255 146 152 255
-0.227479 0.000581 1.058482 -0.535443 -0.308071 0.786380 255 146 152 255
0.000000 -0.000001 1.213144 -0.001013 -0.616584 0.787288 255 146 152 255
-0.113630 -0.197294 1.058482 -0.001013 -0.616584 0.787288 255 146 152 255
0.113415 -0.197668 1.058482 -0.001013 -0.616584 0.787288 255 146 152 255
-0.227479 0.000581 1.058482 -0.534234 0.308781 0.786923 255 146 152 255
0.000000 -0.000001 1.213144 -0.534234 0.308781 0.786923 255 146 152 255
-0.114118 0.196712 1.058482 -0.534234 0.308781 0.786923 255 146 152 255
0.227598 0.001123 1.058482 0.535809 -0.307762 0.786252 255 146 152 255
0.000000 -0.000001 1.213144 0.535809 -0.307762 0.786252 255 146 152 255
0.113415 -0.197668 1.058482 0.535809 -0.307762 0.786252 255 146 152 255
0.360234 -0.045796 0.963971 -0.103790 -0.002883 -0.994595 255 146 152 255
0.088253 0.000369 0.992219 -0.103790 -0.002883 -0.994595 255 146 152 255
0.357561 0.050425 0.963971 -0.103790 -0.002883 -0.994595 255 146 152 255
0.222450 0.284443 0.963971 -0.053399 -0.089256 -0.994576 255 146 152 255
0.044262 0.076241 0.992222 -0.053399 -0.089256 -0.994576 255 146 152 255
0.138165 0.334869 0.963971 -0.053399 -0.089256 -0.994576 255 146 152 255
-0.359345 -0.047334 0.963971 -0.791475 0.011289 0.611098 255 146 152 255
-0.330349 0.000342 1.000645 -0.791475 0.011289 0.611098 255 146 152 255
-0.357961 0.049731 0.963971 -0.791475 0.011289 0.611098 255 146 152 255
-0.138165 0.334869 0.963971 -0.493382 0.832211 0.252982 255 146 152 255
-0.273989 0.351834 0.643269 -0.493382 0.832210 0.252982 255 146 152 255
-0.222049 0.285137 0.963971 -0.493382 0.832211 0.252982 255 146 152 255
0.219777 -0.289074 0.963971 0.382015 -0.686021 0.619224 255 146 152 255
0.164983 -0.286483 1.000645 0.382015 -0.686021 0.619224 255 146 152 255
0.137537 -0.334870 0.963971 0.382015 -0.686021 0.619224 255 146 152 255
-0.359345 -0.047334 0.963971 0.094088 0.054293 -0.994082 255 146 152 255
-0.044071 -0.076493 0.992218 0.094085 0.054253 -0.994085 255 146 152 255
-0.220665 -0.287536 0.963971 0.094091 0.054323 -0.994080 255 146 152 255
-0.222049 0.285137 0.963971 0.094117 -0.054348 -0.994077 255 146 152 255
-0.088212 0.000191 0.992221 0.094105 -0.054353 -0.994077 255 146 152 255
-0.357961 0.049731 0.963971 0.094126 -0.054344 -0.994076 255 146 152 255
0.138165 0.334869 0.963971 -0.000013 -0.108601 -0.994085 255 146 152 255
-0.044230 0.076297 0.992221 -0.000029 -0.108590 -0.994087 255 146 152 255
-0.138165 0.334869 0.963971 0.000000 -0.108610 -0.994084 255 146 152 255
0.222450 0.284443 0.963971 -0.094127 -0.054386 -0.994074 255 146 152 255
0.088253 0.000369 0.992219 -0.094074 -0.054411 -0.994077 255 146 152 255
0.044262 0.076241 0.992222 -0.093984 -0.054454 -0.994083 255 146 152 255
0.360234 -0.045796 0.963971 -0.094080 0.054274 -0.994084 255 146 152 255
0.044002 -0.076618 0.992216 -0.094074 0.054215 -0.994088 255 146 152 255
0.088253 0.000369 0.992219 -0.094065 0.054110 -0.994094 255 146 152 255
-0.137537 -0.334870 0.963971 0.000028 0.108703 -0.994074 255 146 152 255
0.044002 -0.076618 0.992216 0.000064 0.108678 -0.994077 255 146 152 255
0.137537 -0.334870 0.963971 -0.000000 0.108723 -0.994072 255 146 152 255
-0.220665 -0.287536 0.963971 0.051341 0.090165 -0.994603 255 146 152 255
-0.044071 -0.076493 0.992218 0.051341 0.090165 -0.994603 255 146 152 255
-0.137537 -0.334870 0.963971 0.051341 0.090165 -0.994603 255 146 152 255
0.044002 -0.076618 0.992216 -0.001382 -0.966010 -0.258500 255 146 152 255
-0.044071 -0.076493 0.992218 -0.001382 -0.966010 -0.258500 255 146 152 255
0.000000 -0.000001 0.706133 -0.001382 -0.966010 -0.258500 197 147 219 255
-0.044230 0.076297 0.992221 0.000620 0.966252 -0.257596 255 146 152 255
0.044262 0.076241 0.992222 0.000620 0.966252 -0.257596 255 146 152 255
0.000000 -0.000001 0.706133 0.000620 0.966252 -0.257596 197 147 219 255
-0.044071 -0.076493 0.992218 -0.837365 -0.481999 -0.257871 255 146 152 255
-0.088212 0.000191 0.992221 -0.837365 -0.481999 -0.257871 255 146 152 255
0.000000 -0.000001 0.706133 -0.837365 -0.481999 -0.257871 197 147 220 255
0.088253 0.000369 0.992219 0.837689 -0.481477 -0.257791 255 146 152 255
0.044002 -0.076618 0.992216 0.837690 -0.481477 -0.257791 255 146 152 255
0.000000 -0.000001 0.706133 0.837689 -0.481477 -0.257791 197 147 219 255
0.044262 0.076241 0.992222 0.835710 0.484565 -0.258429 255 146 152 255
0.088253 0.000369 0.992219 0.835710 0.484565 -0.258429 255 146 152 255
0.000000 -0.000001 0.706133 0.835710 0.484565 -0.258429 197 147 219 255
-0.088212 0.000191 0.992221 -0.836450 0.483389 -0.258235 255 146 152 255
-0.044230 0.076297 0.992221 -0.836451 0.483389 -0.258235 255 146 152 255
0.000000 -0.000001 0.706133 -0.836451 0.483389 -0.258235 197 147 219 255
-0.113630 -0.197294 1.058482 -0.471810 -0.271917 0.838723 255 146 152 255
-0.330349 0.000342 1.000645 -0.471472 -0.271445 0.839066 255 146 152 255
-0.165110 -0.286263 1.000645 -0.471933 -0.272088 0.838599 255 146 152 255
-0.227479 0.000581 1.058482 -0.471936 0.272626 0.838422 255 146 152 255
-0.165398 0.285919 1.000645 -0.471752 0.272608 0.838531 255 146 152 255
-0.330349 0.000342 1.000645 -0.472003 0.272633 0.838382 255 146 152 255
-0.114118 0.196712 1.058482 0.000206 0.543985 0.839095 255 146 152 255
0.165456 0.285820 1.000645 0.000324 0.543724 0.839264 255 146 152 255
-0.165398 0.285919 1.000645 0.000163 0.544079 0.839034 255 146 152 255
0.227598 0.001123 1.058482 0.472222 0.273325 0.838033 255 146 152 255
0.165456 0.285820 1.000645 0.471403 0.273245 0.838521 255 146 152 255
0.114216 0.196543 1.058482 0.470861 0.273192 0.838842 255 146 152 255
0.113415 -0.197668 1.058482 0.471888 -0.271726 0.838741 255 146 152 255
0.330419 0.000662 1.000645 0.471382 -0.271023 0.839253 255 146 152 255
0.227598 0.001123 1.058482 0.471055 -0.270568 0.839583 255 146 152 255
0.113415 -0.197668 1.058482 -0.000459 -0.545637 0.838021 255 146 152 255
-0.165110 -0.286263 1.000645 -0.000723 -0.545056 0.838399 255 146 152 255
0.164983 -0.286483 1.000645 -0.000364 -0.545848 0.837884 255 146 152 255
0.222450 0.284443 0.963971 0.407639 0.681360 0.607931 255 146 152 255
0.138165 0.334869 0.963971 0.407639 0.681360 0.607931 255 146 152 255
0.165456 0.285820 1.000645 0.407639 0.681360 0.607931 255 146 152 255
-0.220665 -0.287536 0.963971 -0.390216 -0.685300 0.614895 255 146 152 255
-0.137537 -0.334870 0.963971 -0.390216 -0.685300 0.614895 255 146 152 255
-0.165110 -0.286263 1.000645 -0.390216 -0.685300 0.614895 255 146 152 255
-0.138165 0.334869 0.963971 -0.404177 0.681745 0.609807 255 146 152 255
-0.222049 0.285137 0.963971 -0.404177 0.681745 0.609807 255 146 152 255
-0.165398 0.285919 1.000645 -0.404177 0.681745 0.609807 255 146 152 255
-0.088212 0.000191 0.992221 0.103888 -0.001482 -0.994588 255 146 152 255
-0.359345 -0.047334 0.963971 0.103888 -0.001482 -0.994588 255 146 152 255
-0.357961 0.049731 0.963971 0.103888 -0.001482 -0.994588 255 146 152 255
-0.441692 0.061364 0.643269 -0.967352 0.013797 0.253062 255 146 152 255
-0.359345 -0.047334 0.963971 -0.967352 0.013797 0.253062 255 146 152 255
-0.357961 0.049731 0.963971 -0.967352 0.013797 0.253062 255 146 152 255
0.044002 -0.076618 0.992216 -0.050409 0.090525 -0.994618 255 146 152 255
0.219777 -0.289074 0.963971 -0.050409 0.090525 -0.994618 255 146 152 255
0.137537 -0.334870 0.963971 -0.050409 0.090525 -0.994618 255 146 152 255
0.169709 -0.413199 0.643269 0.470604 -0.845108 0.253621 255 146 152 255
0.219777 -0.289074 0.963971 0.470604 -0.845108 0.253621 255 146 152 255
0.137537 -0.334870 0.963971 0.470604 -0.845108 0.253621 255 146 152 255
0.441198 0.062220 0.643269 0.967044 0.026865 0.253187 255 146 152 255
0.360234 -0.045796 0.963971 0.967044 0.026866 0.253187 255 146 152 255
0.444496 -0.056508 0.643269 0.967044 0.026865 0.253187 255 146 152 255
0.169709 -0.413199 0.546589 0.485817 -0.872133 -0.058019 255 146 152 255
0.153020 -0.372565 0.173015 0.487849 -0.872552 -0.025633 255 146 152 255
0.244406 -0.321468 0.172963 0.487702 -0.872662 -0.024650 255 145 148 255
0.444496 -0.056508 0.546589 0.997939 0.027723 -0.057875 255 146 152 255
0.400602 -0.050928 0.172963 0.999439 0.024972 -0.022317 255 146 152 255
0.441198 0.062220 0.546589 0.997945 0.027455 -0.057891 255 144 147 255
0.274484 0.350977 0.643269 0.496724 0.830263 0.252843 255 146 152 255
0.138165 0.334869 0.963971 0.496723 0.830263 0.252843 255 146 152 255
0.222450 0.284443 0.963971 0.496723 0.830263 0.252843 255 146 152 255
-0.044230 0.076297 0.992221 0.053006 -0.089408 -0.994584 255 146 152 255
-0.222049 0.285137 0.963971 0.053006 -0.089408 -0.994584 255 146 152 255
-0.138165 0.334869 0.963971 0.053006 -0.089408 -0.994584 255 146 152 255
-0.441692 0.061364 0.546589 -0.998232 0.014098 -0.057735 255 146 152 255
-0.398360 0.055344 0.173045 -0.999659 0.012638 -0.022865 255 146 152 255
-0.399724 -0.052653 0.172994 -0.999678 0.012816 -0.021901 254 143 130 255
-0.169709 -0.413199 0.643269 -0.478674 -0.840648 0.253341 255 146 152 255
-0.220665 -0.287536 0.963971 -0.478673 -0.840648 0.253341 255 146 152 255
-0.272281 -0.354793 0.643269 -0.478674 -0.840648 0.253341 255 146 152 255
-0.245460 -0.319845 0.172994 -0.495199 -0.868462 -0.023514 255 146 152 255
-0.205803 -0.356461 0.057500 -0.492698 -0.863879 0.104702 255 146 152 255
-0.153019 -0.372565 0.173015 -0.495257 -0.868417 -0.023906 255 145 145 255
-0.153019 -0.372565 0.173015 0.000000 -0.990422 -0.138072 255 145 145 255
-0.273989 0.351834 0.546589 -0.509024 0.858818 -0.057676 255 146 152 255
-0.273989 0.351834 0.643269 -0.509971 0.860191 0.000000 255 146 152 255
-0.170483 0.413198 0.643269 -0.509971 0.860191 0.000000 255 145 150 255
-0.170483 0.413198 0.546589 -0.509122 0.858760 -0.057672 255 146 152 255
-0.272281 -0.354793 0.643269 -0.866025 -0.500000 0.000000 255 146 152 255
-0.399724 -0.052653 0.172994 -0.857796 -0.495249 -0.137534 254 143 130 255
-0.220665 -0.287536 0.963971 -0.520640 -0.300592 0.799111 255 146 152 255
-0.441692 0.061364 0.546589 -0.866025 0.500000 0.000000 255 146 152 255
-0.247109 0.317317 0.173045 -0.857636 0.495156 -0.138857 255 146 152 255
-0.357961 0.049731 0.963971 -0.521607 0.301150 0.798270 255 146 152 255
0.170483 0.413198 0.643269 0.513406 0.858146 0.000000 255 146 152 255
0.274484 0.350977 0.643269 0.513406 0.858146 0.000000 255 146 152 255
0.247588 0.316586 0.173060 0.511750 0.858856 -0.021866 255 146 152 255
0.205803 0.356460 0.057500 0.508668 0.853819 0.110679 254 145 140 255
-0.170483 0.413198 0.643269 -0.000000 1.000000 0.000000 255 145 150 255
0.153703 0.372527 0.173004 0.000000 0.990464 -0.137775 254 143 132 255
-0.138165 0.334869 0.963971 -0.000000 0.599601 0.800299 255 146 152 255
0.274484 0.350977 0.643269 0.866025 0.500000 0.000000 255 146 152 255
0.411605 -0.000001 0.057500 0.857588 0.495129 -0.139252 255 146 151 255
0.165456 0.285820 1.000645 0.521086 0.301448 0.798497 255 146 152 255
0.444496 -0.056508 0.546589 0.866025 -0.500000 0.000000 255 146 152 255
0.205803 -0.356461 0.057500 0.857894 -0.495305 -0.136715 254 144 143 255
0.330419 0.000662 1.000645 0.519022 -0.299030 0.800748 255 146 152 255
0.169709 -0.413199 0.643269 0.000000 -1.000000 0.000000 255 146 152 255
0.137537 -0.334870 0.963971 0.000000 -0.604042 0.796952 255 146 152 255
-0.170483 0.413198 0.643269 -0.493382 0.832210 0.252982 255 145 150 255
-0.088212 0.000191 0.992221 0.094079 0.054183 -0.994089 255 146 152 255
-0.044230 0.076297 0.992221 0.094085 -0.054363 -0.994079 255 146 152 255
0.044262 0.076241 0.992222 -0.000059 -0.108569 -0.994089 255 146 152 255
0.357561 0.050425 0.963971 -0.094166 -0.054367 -0.994071 255 146 152 255
0.219777 -0.289074 0.963971 -0.094084 0.054319 -0.994081 255 146 152 255
-0.044071 -0.076493 0.992218 0.000128 0.108634 -0.994082 255 146 152 255
-0.227479 0.000581 1.058482 -0.471251 -0.271137 0.839290 255 146 152 255
-0.114118 0.196712 1.058482 -0.471630 0.272597 0.838604 255 146 152 255
0.114216 0.196543 1.058482 0.000401 0.543554 0.839374 255 146 152 255
0.330419 0.000662 1.000645 0.472521 0.273354 0.837855 255 146 152 255
0.164983 -0.286483 1.000645 0.472071 -0.271979 0.838556 255 146 152 255
-0.113630 -0.197294 1.058482 -0.000895 -0.544675 0.838647 255 146 152 255
-0.443400 -0.058406 0.643269 -0.967352 0.013797 0.253062 255 146 152 255
0.271185 -0.356691 0.643269 0.470604 -0.845108 0.253621 255 146 152 255
0.357561 0.050425 0.963971 0.967044 0.026866 0.253187 255 146 152 255
0.205803 -0.356461 0.057500 0.485578 -0.868360 0.100823 254 144 143 255
0.271185 -0.356691 0.546589 0.485692 -0.872203 -0.058007 255 146 152 255
0.271185 -0.356691 0.643269 0.486511 -0.873674 0.000000 255 146 152 255
0.169709 -0.413199 0.643269 0.486511 -0.873674 0.000000 255 146 152 255
0.411605 -0.000001 0.057500 0.994121 0.024383 0.105489 255 146 151 255
0.397966 0.056124 0.173060 0.999405 0.024632 -0.024155 255 146 151 255
0.441198 0.062220 0.643269 0.999614 0.027770 0.000000 255 146 152 255
0.444496 -0.056508 0.643269 0.999614 0.027770 0.000000 255 146 152 255
0.170483 0.413198 0.643269 0.496724 0.830263 0.252843 255 146 152 255
-0.411605 -0.000001 0.057500 -0.994076 0.012505 0.107966 255 146 152 255
-0.443400 -0.058406 0.546589 -0.998231 0.014238 -0.057728 255 146 152 255
-0.443400 -0.058406 0.643269 -0.999898 0.014262 0.000000 255 146 152 255
-0.441692 0.061364 0.643269 -0.999898 0.014262 0.000000 255 146 152 255
-0.137537 -0.334870 0.963971 -0.478673 -0.840648 0.253341 255 146 152 255
-0.169709 -0.413199 0.546589 -0.494038 -0.867516 -0.057817 255 146 152 255
-0.169709 -0.413199 0.643269 -0.494816 -0.868998 0.000000 255 146 152 255
-0.272281 -0.354793 0.546589 -0.493988 -0.867544 -0.057814 255 146 152 255
-0.272281 -0.354793 0.643269 -0.494816 -0.868998 0.000000 255 146 152 255
0.000000 -0.900000 0.030000 -0.163663 -0.283473 0.944911 240 183 125 255
-0.866025 -0.500000 0.000000 -0.163663 -0.283473 0.944911 240 183 125 255
0.000000 -1.000000 0.000000 -0.163663 -0.283473 0.944911 240 183 125 255
-0.779423 -0.450000 0.030000 -0.327327 0.000000 0.944911 240 183 125 255
-0.866025 0.500000 0.000000 -0.327327 0.000000 0.944911 240 183 125 255
-0.866025 -0.500000 0.000000 -0.327327 0.000000 0.944911 240 183 125 255
-0.866025 0.500000 0.000000 -0.163663 0.283473 0.944911 240 183 125 255
0.000000 0.900000 0.030000 -0.163663 0.283473 0.944911 240 183 125 255
0.000000 1.000000 0.000000 -0.163663 0.283473 0.944911 240 183 125 255
0.000000 0.900000 0.030000 0.163663 0.283473 0.944911 240 183 125 255
0.866025 0.500000 0.000000 0.163663 0.283473 0.944911 240 183 125 255
0.000000 1.000000 0.000000 0.163663 0.283473 0.944911 240 183 125 255
0.779423 0.450000 0.030000 0.000000 0.000000 1.000000 240 183 125 255
0.000000 0.900000 0.030000 0.000000 0.000000 1.000000 240 183 125 255
-0.779423 0.450000 0.030000 0.000000 0.000000 1.000000 240 183 125 255
0.779423 0.450000 0.030000 0.327327 0.000000 0.944911 240 183 125 255
0.866025 -0.500000 0.000000 0.327327 0.000000 0.944911 240 183 125 255
0.866025 0.500000 0.000000 0.327327 0.000000 0.944911 240 183 125 255
0.866025 -0.500000 0.000000 0.163663 -0.283473 0.944911 240 183 125 255
0.000000 -0.900000 0.030000 0.163663 -0.283473 0.944911 240 183 125 255
0.000000 -1.000000 0.000000 0.163663 -0.283473 0.944911 240 183 125 255
-0.779423 -0.450000 0.030000 -0.163663 -0.283473 0.944911 240 183 125 255
-0.779423 0.450000 0.030000 -0.327327 0.000000 0.944911 240 183 125 255
-0.779423 0.450000 0.030000 -0.163663 0.283473 0.944911 240 183 125 255
0.779423 0.450000 0.030000 0.163663 0.283473 0.944911 240 183 125 255
-0.779423 -0.450000 0.030000 0.000000 0.000000 1.000000 240 183 125 255
0.000000 -0.900000 0.030000 0.000000 0.000000 1.000000 240 183 125 255
0.779423 -0.450000 0.030000 0.000000 0.000000 1.000000 240 183 125 255
0.779423 -0.450000 0.030000 0.327327 0.000000 0.944911 240 183 125 255
0.779423 -0.450000 0.030000 0.163663 -0.283473 0.944911 240 183 125 255
0.008660 -0.015000 1.000000 0.232588 -0.972575 0.000000 233 199 253 255
0.000000 -0.017071 0.059786 0.232588 -0.972575 0.000000 255 237 254 255
0.008660 -0.015000 0.059786 0.232588 -0.972575 0.000000 255 237 254 255
0.000000 -0.017071 1.000000 -0.232588 -0.972575 0.000000 255 237 254 255
-0.008660 -0.015000 0.059786 -0.232588 -0.972575 0.000000 233 199 253 255
0.000000 -0.017071 0.059786 -0.232588 -0.972575 0.000000 255 237 254 255
-0.017321 0.000000 0.059786 -0.958569 -0.284861 0.000000 255 237 254 255
-0.014784 -0.008536 1.000000 -0.958569 -0.284861 0.000000 255 237 254 255
-0.017321 0.000000 1.000000 -0.958569 -0.284861 0.000000 234 201 253 255
-0.014784 -0.008536 0.059786 -0.725981 -0.687715 0.000000 255 237 254 255
-0.008660 -0.015000 1.000000 -0.725981 -0.687715 0.000000 255 237 254 255
-0.014784 -0.008536 1.000000 -0.725981 -0.687715 0.000000 255 237 254 255
-0.008660 0.015000 0.059786 -0.725981 0.687715 0.000000 255 237 254 255
-0.014784 0.008536 1.000000 -0.725981 0.687715 0.000000 255 237 254 255
-0.008660 0.015000 1.000000 -0.725981 0.687715 0.000000 234 201 253 255
-0.014784 0.008536 0.059786 -0.958569 0.284861 0.000000 255 237 254 255
-0.017321 0.000000 1.000000 -0.958569 0.284861 0.000000 234 201 253 255
-0.014784 0.008536 1.000000 -0.958569 0.284861 0.000000 255 237 254 255
0.008660 0.015000 0.059786 0.232588 0.972575 0.000000 233 199 253 255
0.000000 0.017071 1.000000 0.232588 0.972575 0.000000 255 237 254 255
0.008660 0.015000 1.000000 0.232588 0.972575 0.000000 233 199 253 255
0.000000 0.017071 0.059786 -0.232588 0.972575 0.000000 255 237 254 255
-0.008660 0.015000 1.000000 -0.232588 0.972575 0.000000 234 201 253 255
0.000000 0.017071 1.000000 -0.232588 0.972575 0.000000 255 237 254 255
0.017321 0.000000 0.059786 0.958569 0.284861 0.000000 255 237 254 255
0.014784 0.008536 1.000000 0.958569 0.284861 0.000000 255 237 254 255
0.017321 0.000000 1.000000 0.958569 0.284861 0.000000 233 199 253 255
0.014784 0.008536 0.059786 0.725981 0.687715 0.000000 255 237 254 255
0.008660 0.015000 1.000000 0.725981 0.687715 0.000000 233 199 253 255
0.014784 0.008536 1.000000 0.725981 0.687715 0.000000 255 237 254 255
0.008660 -0.015000 0.059786 0.725981 -0.687715 0.000000 255 237 254 255
0.014784 -0.008536 1.000000 0.725981 -0.687715 0.000000 255 237 254 255
0.008660 -0.015000 1.000000 0.725981 -0.687715 0.000000 233 199 253 255
0.014784 -0.008536 0.059786 0.958569 -0.284861 0.000000 255 237 254 255
0.017321 0.000000 1.000000 0.958569 -0.284861 0.000000 233 199 253 255
0.014784 -0.008536 1.000000 0.958569 -0.284861 0.000000 255 237 254 255
0.000000 -0.017071 1.000000 0.232588 -0.972575 0.000000 255 237 254 255
-0.008660 -0.015000 1.000000 -0.232588 -0.972575 0.000000 255 237 254 255
-0.014784 -0.008536 0.059786 -0.958569 -0.284861 0.000000 255 237 254 255
-0.008660 -0.015000 0.059786 -0.725981 -0.687715 0.000000 233 199 253 255
-0.014784 0.008536 0.059786 -0.725981 0.687715 0.000000 255 237 254 255
-0.017321 0.000000 0.059786 -0.958569 0.284861 0.000000 255 237 254 255
0.000000 0.017071 0.059786 0.232588 0.972575 0.000000 255 237 254 255
-0.008660 0.015000 0.059786 -0.232588 0.972575 0.000000 255 237 254 255
0.014784 0.008536 0.059786 0.958569 0.284861 0.000000 255 237 254 255
0.008660 0.015000 0.059786 0.725981 0.687715 0.000000 233 199 253 255
0.014784 -0.008536 0.059786 0.725981 -0.687715 0.000000 255 237 254 255
0.017321 0.000000 0.059786 0.958569 -0.284861 0.000000 255 237 254 255
-0.636574 -0.367526 0.060000 -0.999961 0.000000 0.008811 240 231 160 255
-0.636838 0.367679 0.030032 -0.999961 0.000000 0.008811 240 231 160 255
-0.636838 -0.367679 0.030032 -0.999961 0.000000 0.008811 240 231 160 255
-0.636574 0.367526 0.060000 -0.499981 0.865992 0.008810 240 231 160 255
0.000000 0.735357 0.030032 -0.499981 0.865992 0.008810 240 231 160 255
-0.636838 0.367679 0.030032 -0.499981 0.865992 0.008810 240 231 160 255
0.000000 0.735357 0.030032 0.499981 0.865992 0.008810 240 231 160 255
0.636574 0.367526 0.060000 0.499981 0.865992 0.008810 240 231 160 255
0.636838 0.367679 0.030032 0.499981 0.865992 0.008810 240 231 160 255
0.636574 0.367526 0.060000 0.999961 0.000000 0.008811 240 231 160 255
0.636838 -0.367679 0.030032 0.999961 0.000000 0.008811 240 231 160 255
0.636838 0.367679 0.030032 0.999961 0.000000 0.008811 240 231 160 255
0.636574 -0.367526 0.060000 0.499981 -0.865992 0.008810 240 231 160 255
0.000000 -0.735357 0.030032 0.499981 -0.865992 0.008810 240 231 160 255
0.636838 -0.367679 0.030032 0.499981 -0.865992 0.008810 240 231 160 255
0.000000 -0.735357 0.030032 -0.499981 -0.865992 0.008810 240 231 160 255
-0.636574 -0.367526 0.060000 -0.499981 -0.865992 0.008810 240 231 160 255
-0.636838 -0.367679 0.030032 -0.499981 -0.865992 0.008810 240 231 160 255
0.272879 0.157547 0.060000 0.000000 0.000000 1.000000 240 231 160 255
0.000000 0.735052 0.060000 0.000000 0.000000 1.000000 240 231 160 255
0.000000 0.315094 0.060000 0.000000 0.000000 1.000000 240 231 160 255
0.636574 -0.367526 0.060000 0.000000 0.000000 1.000000 240 231 160 255
0.272879 -0.157547 0.060000 0.000000 0.000000 1.000000 240 231 160 255
-0.000000 -0.315094 0.060000 0.000000 0.000000 1.000000 240 231 160 255
-0.272879 0.157547 0.060000 0.000000 0.000000 1.000000 112 228 189 255
-0.272879 -0.157547 0.060000 0.000000 0.000000 1.000000 112 228 189 255
-0.000000 -0.315094 0.060000 0.000000 0.000000 1.000000 112 228 189 255
-0.272879 0.157547 0.060000 0.000000 0.000000 1.000000 252 254 253 255
-0.272879 -0.157547 0.060000 0.000000 0.000000 1.000000 255 255 255 255
-0.000000 -0.315094 0.060000 0.000000 0.000000 1.000000 255 255 255 255
-0.636574 0.367526 0.060000 -0.999961 0.000000 0.008811 240 231 160 255
0.000000 0.735052 0.060000 -0.499981 0.865992 0.008810 240 231 160 255
0.000000 0.735052 0.060000 0.499981 0.865992 0.008810 240 231 160 255
0.636574 -0.367526 0.060000 0.999961 0.000000 0.008811 240 231 160 255
0.000000 -0.735052 0.060000 0.499981 -0.865992 0.008810 240 231 160 255
0.000000 -0.735052 0.060000 -0.499981 -0.865992 0.008810 240 231 160 255
0.272879 -0.157547 0.060000 0.000000 0.000000 1.000000 240 231 160 255
0.636574 -0.367526 0.060000 0.000000 0.000000 1.000000 240 231 160 255
0.636574 0.367526 0.060000 0.000000 0.000000 1.000000 240 231 160 255
-0.636574 0.367526 0.060000 0.000000 0.000000 1.000000 240 231 160 255
-0.272879 0.157547 0.060000 0.000000 0.000000 1.000000 240 231 160 255
-0.636574 -0.367526 0.060000 0.000000 0.000000 1.000000 240 231 160 255
-0.272879 -0.157547 0.060000 0.000000 0.000000 1.000000 240 231 160 255
-0.272879 -0.157547 0.060000 0.000000 0.000000 1.000000 240 231 160 255
-0.636574 -0.367526 0.060000 0.000000 0.000000 1.000000 240 231 160 255
0.000000 -0.735052 0.060000 0.000000 0.000000 1.000000 240 231 160 255
0.272879 -0.157547 0.060000 0.000000 0.000000 1.000000 112 228 189 255
0.272879 0.157547 0.060000 0.000000 0.000000 1.000000 112 228 189 255
0.000000 0.315094 0.060000 0.000000 0.000000 1.000000 112 228 189 255
0.272879 -0.157547 0.060000 0.000000 0.000000 1.000000 255 255 255 255
0.272879 0.157547 0.060000 0.000000 0.000000 1.000000 255 255 255 255
0.000000 0.315094 0.060000 0.000000 0.000000 1.000000 255 255 255 255
3 0 1 2
3 3 4 5
3 6 7 8
3 9 10 11
3 12 13 14
3 15 16 17
3 18 19 20
3 21 22 23
3 24 25 26
3 27 28 29
3 30 31 32
3 33 34 35
3 36 37 38
3 39 40 41
3 42 43 44
3 45 46 47
3 48 49 50
3 51 52 53
3 54 55 56
3 57 58 59
3 60 61 62
3 63 64 65
3 66 67 68
3 69 70 71
3 72 73 74
3 75 76 77
3 78 79 80
3 81 82 83
3 84 85 86
3 87 88 89
3 90 91 92
3 93 94 95
3 96 97 98
3 99 100 101
3 102 103 104
3 105 106 107
3 108 109 110
3 111 112 113
3 114 115 116
3 117 118 119
3 120 121 122
3 123 124 125
3 126 127 128
3 129 130 131
3 132 133 134
3 135 136 137
3 138 139 140
3 141 142 143
3 144 145 146
3 147 148 149
3 150 151 152
3 153 154 155
3 156 157 158
3 159 160 161
3 162 163 164
3 165 166 167
3 168 169 170
3 171 172 173
3 174 175 176
3 177 178 179
3 180 181 182
3 183 184 185
3 186 187 188
3 189 190 191
3 192 193 194
3 195 196 197
3 0 198 1
3 199 200 201
3 201 202 199
3 202 6 199
3 199 6 8
3 9 203 10
3 12 204 13
3 15 205 16
3 18 206 19
3 21 207 22
3 24 208 25
3 209 210 28
3 210 29 28
3 29 211 27
3 211 212 27
3 30 213 31
3 33 214 34
3 36 215 37
3 39 216 40
3 42 217 43
3 45 218 46
3 48 219 49
3 51 220 52
3 54 221 55
3 57 222 58
3 60 223 61
3 90 224 91
3 96 225 97
3 99 226 100
3 102 227 103
3 105 228 106
3 108 229 109
3 111 230 112
3 135 231 136
3 138 232 139
3 141 233 142
3 144 234 145
3 147 235 148
3 150 236 151
3 165 237 166
3 171 238 172
3 174 239 175
3 178 240 179
3 179 241 177
3 241 242 243
3 177 241 243
3 181 244 245
3 245 182 181
3 182 246 180
3 246 247 180
3 183 248 184
3 190 249 191
3 191 250 189
3 250 251 252
3 189 250 252
3 192 253 193
3 197 254 195
3 254 255 256
3 255 257 256
3 256 195 254
3 258 259 260
3 261 262 263
3 264 265 266
3 267 268 269
3 270 271 272
3 273 274 275
3 276 277 278
3 258 279 259
3 261 280 262
3 264 281 265
3 267 282 268
3 272 283 270
3 283 284 270
3 284 285 270
3 273 286 274
3 276 287 277
3 288 289 290
3 291 292 293
3 294 295 296
3 297 298 299
3 300 301 302
3 303 304 305
3 306 307 308
3 309 310 311
3 312 313 314
3 315 316 317
3 318 319 320
3 321 322 323
3 288 324 289
3 291 325 292
3 294 326 295
3 297 327 298
3 300 328 301
3 303 329 304
3 306 330 307
3 309 331 310
3 312 332 313
3 315 333 316
3 318 334 319
3 321 335 322
3 336 337 338
3 339 340 341
3 342 343 344
3 345 346 347
3 348 349 350
3 351 352 353
3 354 355 356
3 357 358 359
3 360 361 362
3 363 364 365
3 336 366 337
3 339 367 340
3 342 368 343
3 345 369 346
3 348 370 349
3 351 371 352
3 354 372 373
3 373 374 354
3 374 355 354
3 355 375 376
3 375 377 376
3 377 378 376
3 355 376 356
3 359 379 380
3 380 381 359
3 381 357 359
3 362 382 383
3 383 384 362
3 384 360 362
3 365 385 386
3 386 387 365
3 387 363 365
