ply
format ascii 1.0
comment Created by Blender 3.6.0 - www.blender.org
element vertex 370
property float x
property float y
property float z
property float nx
property float ny
property float nz
property uchar red
property uchar green
property uchar blue
property uchar alpha
element face 178
property list uchar uint vertex_indices
end_header
0.000000 -0.900000 0.030000 -0.163663 -0.283473 0.944911 112 115 127 255
-0.866025 -0.500000 0.000000 -0.163663 -0.283473 0.944911 112 115 127 255
0.000000 -1.000000 0.000000 -0.163663 -0.283473 0.944911 112 115 127 255
0.000000 -0.900000 0.030000 0.000000 0.000000 1.000000 112 115 127 255
-0.649519 -0.375000 0.030000 0.000000 0.000000 1.000000 112 115 127 255
-0.779423 -0.450000 0.030000 0.000000 0.000000 1.000000 112 115 127 255
-0.866025 0.500000 0.000000 -0.327327 0.000000 0.944911 112 115 127 255
-0.779423 -0.450000 0.030000 -0.327327 0.000000 0.944911 112 115 127 255
-0.779423 0.450000 0.030000 -0.327327 0.000000 0.944911 112 115 127 255
0.000000 0.750000 0.030000 0.000000 -0.000000 1.000000 112 115 127 255
0.000000 0.900000 0.030000 0.000000 -0.000000 1.000000 112 115 127 255
-0.779423 0.450000 0.030000 0.000000 -0.000000 1.000000 112 115 127 255
0.000000 0.900000 0.030000 0.163663 0.283473 0.944911 112 115 127 255
0.866025 0.500000 0.000000 0.163663 0.283473 0.944911 112 115 127 255
0.000000 1.000000 0.000000 0.163663 0.283473 0.944911 112 115 127 255
0.000000 0.900000 0.030000 -0.000000 -0.000000 1.000000 112 115 127 255
0.649519 0.375000 0.030000 -0.000000 -0.000000 1.000000 112 115 127 255
0.779423 0.450000 0.030000 -0.000000 -0.000000 1.000000 112 115 127 255
0.866025 -0.500000 0.000000 0.327327 0.000000 0.944911 112 115 127 255
0.779423 0.450000 0.030000 0.327327 0.000000 0.944911 112 115 127 255
0.779423 -0.450000 0.030000 0.327327 0.000000 0.944911 112 115 127 255
-0.866025 0.500000 0.000000 -0.163663 0.283473 0.944911 112 115 127 255
0.000000 0.900000 0.030000 -0.163663 0.283473 0.944911 112 115 127 255
0.000000 1.000000 0.000000 -0.163663 0.283473 0.944911 112 115 127 255
0.866025 -0.500000 0.000000 0.163663 -0.283473 0.944911 112 115 127 255
0.000000 -0.900000 0.030000 0.163663 -0.283473 0.944911 112 115 127 255
0.000000 -1.000000 0.000000 0.163663 -0.283473 0.944911 112 115 127 255
0.649519 -0.375000 0.030000 -0.000000 0.000000 1.000000 112 115 127 255
0.000000 -0.750000 0.030000 -0.000000 0.000000 1.000000 112 115 127 255
0.779423 -0.450000 0.030000 -0.000000 0.000000 1.000000 112 115 127 255
-0.779423 -0.450000 0.030000 -0.163663 -0.283473 0.944911 112 115 127 255
0.000000 -0.750000 0.030000 0.000000 0.000000 1.000000 112 115 127 255
-0.866025 -0.500000 0.000000 -0.327327 0.000000 0.944911 112 115 127 255
-0.779423 -0.450000 0.030000 0.000000 0.000000 1.000000 112 115 127 255
-0.649519 0.375000 0.030000 0.000000 -0.000000 1.000000 112 115 127 255
-0.649519 -0.375000 0.030000 0.000000 0.000000 1.000000 112 115 127 255
0.779423 0.450000 0.030000 0.163663 0.283473 0.944911 112 115 127 255
0.000000 0.750000 0.030000 -0.000000 -0.000000 1.000000 112 115 127 255
0.866025 0.500000 0.000000 0.327327 0.000000 0.944911 112 115 127 255
-0.779423 0.450000 0.030000 -0.163663 0.283473 0.944911 112 115 127 255
0.779423 -0.450000 0.030000 0.163663 -0.283473 0.944911 112 115 127 255
0.000000 -0.900000 0.030000 -0.000000 0.000000 1.000000 112 115 127 255
0.779423 0.450000 0.030000 -0.000000 -0.000000 1.000000 112 115 127 255
0.649519 0.375000 0.030000 -0.000000 -0.000000 1.000000 112 115 127 255
0.000000 0.000000 0.365751 -0.187597 0.577354 -0.794651 16 16 16 255
-0.330208 0.239907 0.618009 -0.187597 0.577354 -0.794651 48 134 134 255
0.126126 0.388182 0.618009 -0.187597 0.577354 -0.794651 16 128 16 255
-0.330208 0.239907 0.618009 -0.607065 0.000000 -0.794652 48 134 134 255
0.000000 0.000000 0.365751 -0.607065 0.000000 -0.794652 16 16 16 255
-0.330208 -0.239907 0.618009 -0.607065 0.000000 -0.794652 128 1 128 255
0.000000 0.000000 0.365751 0.491122 0.356829 -0.794652 16 16 16 255
0.126126 0.388182 0.618009 0.491122 0.356829 -0.794652 16 128 16 255
0.408163 0.000000 0.618009 0.491122 0.356829 -0.794652 129 129 3 255
0.000000 0.000000 0.365751 0.491122 -0.356829 -0.794652 16 16 16 255
0.408163 0.000000 0.618009 0.491122 -0.356829 -0.794652 129 129 3 255
0.126126 -0.388182 0.618009 0.491122 -0.356829 -0.794652 128 0 0 255
0.000000 0.000000 0.365751 -0.187597 -0.577354 -0.794651 16 16 16 255
0.126126 -0.388182 0.618009 -0.187597 -0.577354 -0.794651 128 0 0 255
-0.330208 -0.239907 0.618009 -0.187597 -0.577354 -0.794651 128 1 128 255
-0.330208 0.239907 0.618009 -0.982246 0.000000 -0.187597 48 134 134 255
-0.330208 -0.239907 0.618009 -0.982246 0.000000 -0.187597 128 1 128 255
-0.408163 0.000000 1.026174 -0.982246 0.000000 -0.187597 36 36 255 255
0.126126 0.388182 0.618009 -0.303536 0.934172 -0.187589 16 128 16 255
-0.330208 0.239907 0.618009 -0.303536 0.934172 -0.187589 48 134 134 255
-0.126126 0.388182 1.026174 -0.303536 0.934171 -0.187589 36 255 255 255
0.408163 0.000000 0.618009 0.794649 0.577359 -0.187587 129 129 3 255
0.126126 0.388182 0.618009 0.794649 0.577359 -0.187587 16 128 16 255
0.330208 0.239907 1.026174 0.794649 0.577359 -0.187587 39 255 39 255
0.126126 -0.388182 0.618009 0.794649 -0.577359 -0.187587 128 0 0 255
0.408163 0.000000 0.618009 0.794649 -0.577359 -0.187587 129 129 3 255
0.330208 -0.239907 1.026174 0.794649 -0.577359 -0.187587 255 255 32 255
-0.330208 -0.239907 0.618009 -0.303536 -0.934172 -0.187589 128 1 128 255
0.126126 -0.388182 0.618009 -0.303536 -0.934172 -0.187589 128 0 0 255
-0.126126 -0.388182 1.026174 -0.303536 -0.934171 -0.187589 255 0 0 255
-0.330208 0.239907 0.618009 -0.794649 0.577359 0.187587 48 134 134 255
-0.408163 0.000000 1.026174 -0.794649 0.577359 0.187587 36 36 255 255
-0.126126 0.388182 1.026174 -0.794649 0.577359 0.187587 36 255 255 255
0.126126 0.388182 0.618009 0.303536 0.934171 0.187589 16 128 16 255
-0.126126 0.388182 1.026174 0.303536 0.934172 0.187589 36 255 255 255
0.330208 0.239907 1.026174 0.303536 0.934172 0.187589 39 255 39 255
0.408163 0.000000 0.618009 0.982246 0.000000 0.187597 129 129 3 255
0.330208 0.239907 1.026174 0.982246 0.000000 0.187597 39 255 39 255
0.330208 -0.239907 1.026174 0.982246 0.000000 0.187597 255 255 32 255
0.126126 -0.388182 0.618009 0.303536 -0.934171 0.187589 128 0 0 255
0.330208 -0.239907 1.026174 0.303536 -0.934172 0.187589 255 255 32 255
-0.126126 -0.388182 1.026174 0.303536 -0.934172 0.187589 255 0 0 255
-0.330208 -0.239907 0.618009 -0.794649 -0.577359 0.187587 128 1 128 255
-0.126126 -0.388182 1.026174 -0.794649 -0.577359 0.187587 255 0 0 255
-0.408163 0.000000 1.026174 -0.794649 -0.577359 0.187587 36 36 255 255
-0.126126 0.388182 1.026174 -0.491122 0.356829 0.794652 36 255 255 255
-0.408163 0.000000 1.026174 -0.491122 0.356829 0.794652 36 36 255 255
0.000000 0.000000 1.278433 -0.491122 0.356829 0.794652 255 255 255 255
0.330208 0.239907 1.026174 0.187597 0.577354 0.794651 39 255 39 255
-0.126126 0.388182 1.026174 0.187597 0.577354 0.794651 36 255 255 255
0.000000 0.000000 1.278433 0.187597 0.577354 0.794651 255 255 255 255
0.330208 -0.239907 1.026174 0.607065 0.000000 0.794652 255 255 32 255
0.330208 0.239907 1.026174 0.607065 0.000000 0.794652 39 255 39 255
0.000000 0.000000 1.278433 0.607065 0.000000 0.794652 255 255 255 255
-0.126126 -0.388182 1.026174 0.187597 -0.577354 0.794651 255 0 0 255
0.330208 -0.239907 1.026174 0.187597 -0.577354 0.794651 255 255 32 255
0.000000 0.000000 1.278433 0.187597 -0.577354 0.794651 255 255 255 255
-0.408163 0.000000 1.026174 -0.491122 -0.356829 0.794652 36 36 255 255
-0.126126 -0.388182 1.026174 -0.491122 -0.356829 0.794652 255 0 0 255
0.000000 0.000000 1.278433 -0.491122 -0.356829 0.794652 255 255 255 255
-0.593125 0.407559 0.060000 0.367674 -0.638933 -0.675707 112 115 127 255
-0.537533 0.310345 0.182173 0.367675 -0.638933 -0.675707 112 115 127 255
-0.649612 0.375054 0.060000 0.367674 -0.638933 -0.675707 112 115 127 255
0.056394 0.717441 0.060000 -0.369495 -0.637882 -0.675707 112 115 127 255
-0.000000 0.620690 0.182173 -0.369495 -0.637882 -0.675707 112 115 127 255
-0.000000 0.750107 0.060000 -0.369495 -0.637882 -0.675707 112 115 127 255
0.649519 0.309882 0.060000 -0.737169 0.001051 -0.675707 112 115 127 255
0.537533 0.310345 0.182173 -0.737169 0.001050 -0.675707 112 115 127 255
0.649612 0.375054 0.060000 -0.737169 0.001051 -0.675707 112 115 127 255
0.593125 -0.407559 0.060000 -0.367674 0.638933 -0.675707 112 115 127 255
0.537533 -0.310345 0.182173 -0.367675 0.638933 -0.675707 112 115 127 255
0.649612 -0.375054 0.060000 -0.367674 0.638933 -0.675707 112 115 127 255
-0.056394 -0.717441 0.060000 0.369495 0.637882 -0.675707 112 115 127 255
0.000000 -0.620690 0.182173 0.369495 0.637882 -0.675707 112 115 127 255
0.000000 -0.750107 0.060000 0.369495 0.637882 -0.675707 112 115 127 255
-0.649519 -0.309882 0.060000 0.737169 -0.001051 -0.675707 112 115 127 255
-0.537533 -0.310345 0.182173 0.737169 -0.001050 -0.675707 112 115 127 255
-0.649612 -0.375054 0.060000 0.737169 -0.001051 -0.675707 112 115 127 255
-0.537456 -0.256417 0.182173 0.925082 -0.001318 -0.379766 112 115 127 255
-0.510018 -0.294459 0.249143 0.925082 -0.001318 -0.379766 112 115 127 255
-0.537533 -0.310345 0.182173 0.925082 -0.001318 -0.379766 112 115 127 255
0.046664 0.593659 0.182173 -0.463683 -0.800485 -0.379766 112 115 127 255
-0.000000 0.588918 0.249143 -0.463683 -0.800485 -0.379766 112 115 127 255
-0.000000 0.620690 0.182173 -0.463683 -0.800485 -0.379766 112 115 127 255
0.490792 -0.337242 0.182173 -0.461399 0.801804 -0.379766 112 115 127 255
0.510018 -0.294459 0.249143 -0.461399 0.801804 -0.379766 112 115 127 255
0.537533 -0.310345 0.182173 -0.461399 0.801804 -0.379766 112 115 127 255
-0.046664 -0.593659 0.182173 0.463683 0.800485 -0.379766 112 115 127 255
0.000000 -0.588918 0.249143 0.463683 0.800485 -0.379766 112 115 127 255
0.000000 -0.620690 0.182173 0.463683 0.800485 -0.379766 112 115 127 255
-0.490792 0.337242 0.182173 0.461399 -0.801804 -0.379766 112 115 127 255
-0.510018 0.294459 0.249143 0.461399 -0.801804 -0.379766 112 115 127 255
-0.537533 0.310345 0.182173 0.461399 -0.801804 -0.379766 112 115 127 255
0.537456 0.256417 0.182173 -0.925082 0.001318 -0.379766 112 115 127 255
0.510018 0.294459 0.249143 -0.925082 0.001318 -0.379766 112 115 127 255
0.537533 0.310345 0.182173 -0.925082 0.001318 -0.379766 112 115 127 255
0.490792 0.337242 0.182173 -0.462496 -0.801066 -0.379987 112 115 127 255
0.044276 0.563271 0.249143 -0.462496 -0.801066 -0.379987 112 115 127 255
0.046664 0.593659 0.182173 -0.462496 -0.801066 -0.379987 112 115 127 255
-0.044276 0.563271 0.249143 0.462496 -0.801066 -0.379987 112 115 127 255
-0.490792 0.337242 0.182173 0.462496 -0.801066 -0.379987 112 115 127 255
-0.046664 0.593659 0.182173 0.462496 -0.801066 -0.379987 112 115 127 255
-0.537456 0.256417 0.182173 0.924992 0.000000 -0.379987 112 115 127 255
-0.509945 -0.243292 0.249143 0.924992 0.000000 -0.379987 112 115 127 255
-0.537456 -0.256417 0.182173 0.924992 0.000000 -0.379987 112 115 127 255
-0.044276 -0.563271 0.249143 0.462496 0.801066 -0.379987 112 115 127 255
-0.490792 -0.337242 0.182173 0.462496 0.801066 -0.379987 112 115 127 255
-0.465669 -0.319979 0.249143 0.462496 0.801066 -0.379988 112 115 127 255
0.490792 -0.337242 0.182173 -0.462496 0.801066 -0.379987 112 115 127 255
0.044276 -0.563271 0.249143 -0.462496 0.801066 -0.379987 112 115 127 255
0.465669 -0.319979 0.249143 -0.462496 0.801066 -0.379987 112 115 127 255
0.509945 0.243292 0.249143 -0.924992 -0.000000 -0.379987 112 115 127 255
0.537456 -0.256417 0.182173 -0.924992 -0.000000 -0.379987 112 115 127 255
0.509945 -0.243292 0.249143 -0.924992 -0.000000 -0.379987 112 115 127 255
-0.509945 -0.243292 0.249143 0.849946 0.006677 -0.526827 112 115 127 255
-0.357594 -0.206457 0.495402 0.838086 0.108271 -0.534686 112 115 127 255
-0.510018 -0.294459 0.249143 0.850493 -0.001212 -0.525985 112 115 127 255
0.044276 0.563271 0.249143 -0.419191 -0.739413 -0.526827 112 115 127 255
-0.000000 0.412914 0.495402 -0.325278 -0.779939 -0.534686 112 115 127 255
-0.000000 0.588918 0.249143 -0.426296 -0.735942 -0.525985 112 115 127 255
0.465669 -0.319979 0.249143 -0.430755 0.732737 -0.526827 112 115 127 255
0.357594 -0.206457 0.495402 -0.512808 0.671668 -0.534686 112 115 127 255
0.510018 -0.294459 0.249143 -0.424196 0.737155 -0.525985 112 115 127 255
-0.044276 -0.563271 0.249143 0.419191 0.739413 -0.526827 112 115 127 255
0.000000 -0.412914 0.495402 0.325278 0.779939 -0.534686 112 115 127 255
0.000000 -0.588918 0.249143 0.426296 0.735942 -0.525985 112 115 127 255
-0.465669 0.319979 0.249143 0.430755 -0.732737 -0.526827 112 115 127 255
-0.357594 0.206457 0.495402 0.512808 -0.671668 -0.534686 112 115 127 255
-0.510018 0.294459 0.249143 0.424196 -0.737155 -0.525985 112 115 127 255
0.509945 0.243292 0.249143 -0.849946 -0.006677 -0.526827 112 115 127 255
0.357594 0.206457 0.495402 -0.838086 -0.108271 -0.534686 112 115 127 255
0.510018 0.294459 0.249143 -0.850493 0.001212 -0.525985 112 115 127 255
-0.369506 -0.176289 0.483767 -0.499143 -0.504760 -0.704325 112 115 127 255
-0.281535 -0.162544 0.411573 -0.425254 -0.639943 -0.640025 112 115 127 255
-0.357594 -0.206457 0.495402 -0.511602 -0.477507 -0.714318 112 115 127 255
0.032082 0.408146 0.483767 -0.187564 0.684651 -0.704325 112 115 127 255
-0.000000 0.325089 0.411573 -0.341580 0.688252 -0.640025 112 115 127 255
-0.000000 0.412914 0.495402 -0.157732 0.681814 -0.714318 112 115 127 255
0.337424 -0.231857 0.483767 0.686706 -0.179890 -0.704325 112 115 127 255
0.281535 -0.162544 0.411573 0.766833 -0.048310 -0.640026 112 115 127 255
0.357594 -0.206457 0.495402 0.669334 -0.204307 -0.714318 112 115 127 255
-0.032082 -0.408146 0.483767 0.187564 -0.684651 -0.704325 112 115 127 255
0.000000 -0.325089 0.411573 0.341580 -0.688252 -0.640025 112 115 127 255
0.000000 -0.412914 0.495402 0.157732 -0.681814 -0.714318 112 115 127 255
-0.337424 0.231857 0.483767 -0.686706 0.179890 -0.704325 112 115 127 255
-0.281535 0.162544 0.411573 -0.766833 0.048310 -0.640026 112 115 127 255
-0.357594 0.206457 0.495402 -0.669334 0.204307 -0.714318 112 115 127 255
0.369506 0.176289 0.483767 0.499143 0.504760 -0.704325 112 115 127 255
0.281535 0.162544 0.411573 0.425254 0.639943 -0.640025 112 115 127 255
0.357594 0.206457 0.495402 0.511602 0.477507 -0.714318 112 115 127 255
-0.032082 0.408146 0.483767 0.187564 0.684651 -0.704325 112 115 127 255
-0.000000 0.325089 0.411573 0.341580 0.688252 -0.640025 112 115 127 255
-0.025964 0.330306 0.401562 0.377592 0.686233 -0.621698 112 115 127 255
-0.044276 0.563271 0.249143 0.419191 -0.739413 -0.526827 112 115 127 255
-0.000000 0.412914 0.495402 0.325278 -0.779939 -0.534686 112 115 127 255
-0.032082 0.408146 0.483767 0.310875 -0.785318 -0.535381 112 115 127 255
-0.046664 0.593659 0.182173 0.463683 -0.800485 -0.379766 112 115 127 255
-0.000000 0.588918 0.249143 0.463683 -0.800485 -0.379766 112 115 127 255
-0.044276 0.563271 0.249143 0.463683 -0.800485 -0.379766 112 115 127 255
-0.056394 0.717441 0.060000 0.369495 -0.637882 -0.675707 112 115 127 255
-0.000000 0.620690 0.182173 0.369495 -0.637882 -0.675707 112 115 127 255
-0.046664 0.593659 0.182173 0.369495 -0.637882 -0.675707 112 115 127 255
-0.369506 0.176289 0.483767 -0.499143 0.504760 -0.704325 112 115 127 255
-0.281535 0.162544 0.411573 -0.425254 0.639943 -0.640025 112 115 127 255
-0.299035 0.142668 0.401562 -0.405499 0.670121 -0.621698 112 115 127 255
-0.509945 0.243292 0.249143 0.849946 -0.006677 -0.526827 112 115 127 255
-0.357594 0.206457 0.495402 0.838086 -0.108270 -0.534686 112 115 127 255
-0.369506 0.176289 0.483767 0.835543 -0.123433 -0.535381 112 115 127 255
-0.537456 0.256417 0.182173 0.925082 0.001319 -0.379766 112 115 127 255
-0.510018 0.294459 0.249143 0.925082 0.001318 -0.379766 112 115 127 255
-0.509945 0.243292 0.249143 0.925082 0.001318 -0.379766 112 115 127 255
-0.649519 0.309882 0.060000 0.737169 0.001051 -0.675707 112 115 127 255
-0.537533 0.310345 0.182173 0.737169 0.001051 -0.675707 112 115 127 255
-0.537456 0.256417 0.182173 0.737169 0.001051 -0.675707 112 115 127 255
-0.337424 -0.231857 0.483767 -0.686706 -0.179891 -0.704325 112 115 127 255
-0.281535 -0.162544 0.411573 -0.766834 -0.048309 -0.640025 112 115 127 255
-0.273071 -0.187638 0.401562 -0.783091 -0.016112 -0.621698 112 115 127 255
-0.465669 -0.319979 0.249143 0.430755 0.732737 -0.526827 112 115 127 255
-0.357594 -0.206457 0.495402 0.512809 0.671668 -0.534686 112 115 127 255
-0.337424 -0.231857 0.483767 0.524668 0.661885 -0.535380 112 115 127 255
-0.490792 -0.337242 0.182173 0.461399 0.801804 -0.379766 112 115 127 255
-0.510018 -0.294459 0.249143 0.461399 0.801804 -0.379766 112 115 127 255
-0.465669 -0.319979 0.249143 0.461399 0.801804 -0.379766 112 115 127 255
-0.593125 -0.407559 0.060000 0.367674 0.638933 -0.675707 112 115 127 255
-0.537533 -0.310345 0.182173 0.367675 0.638933 -0.675707 112 115 127 255
-0.490792 -0.337242 0.182173 0.367675 0.638933 -0.675707 112 115 127 255
0.032082 -0.408146 0.483767 -0.187564 -0.684651 -0.704325 112 115 127 255
0.000000 -0.325089 0.411573 -0.341580 -0.688252 -0.640025 112 115 127 255
0.025964 -0.330306 0.401562 -0.377592 -0.686233 -0.621698 112 115 127 255
0.044276 -0.563271 0.249143 -0.419191 0.739413 -0.526827 112 115 127 255
0.000000 -0.412914 0.495402 -0.325278 0.779939 -0.534686 112 115 127 255
0.032082 -0.408146 0.483767 -0.310875 0.785318 -0.535381 112 115 127 255
0.046664 -0.593659 0.182173 -0.463683 0.800485 -0.379766 112 115 127 255
0.000000 -0.588918 0.249143 -0.463683 0.800485 -0.379766 112 115 127 255
0.044276 -0.563271 0.249143 -0.463683 0.800485 -0.379766 112 115 127 255
0.056394 -0.717441 0.060000 -0.369495 0.637882 -0.675707 112 115 127 255
0.000000 -0.620690 0.182173 -0.369495 0.637882 -0.675707 112 115 127 255
0.046664 -0.593659 0.182173 -0.369495 0.637882 -0.675707 112 115 127 255
0.369506 -0.176289 0.483767 0.499143 -0.504760 -0.704325 112 115 127 255
0.281535 -0.162544 0.411573 0.425254 -0.639943 -0.640025 112 115 127 255
0.299035 -0.142668 0.401562 0.405498 -0.670121 -0.621698 112 115 127 255
0.509945 -0.243292 0.249143 -0.849946 0.006677 -0.526827 112 115 127 255
0.357594 -0.206457 0.495402 -0.838086 0.108270 -0.534686 112 115 127 255
0.369506 -0.176289 0.483767 -0.835543 0.123433 -0.535381 112 115 127 255
0.537456 -0.256417 0.182173 -0.925082 -0.001319 -0.379766 112 115 127 255
0.510018 -0.294459 0.249143 -0.925082 -0.001318 -0.379766 112 115 127 255
0.509945 -0.243292 0.249143 -0.925082 -0.001318 -0.379766 112 115 127 255
0.649519 -0.309882 0.060000 -0.737169 -0.001051 -0.675707 112 115 127 255
0.537533 -0.310345 0.182173 -0.737169 -0.001051 -0.675707 112 115 127 255
0.537456 -0.256417 0.182173 -0.737169 -0.001051 -0.675707 112 115 127 255
0.337424 0.231857 0.483767 0.686706 0.179891 -0.704325 112 115 127 255
0.281535 0.162544 0.411573 0.766834 0.048309 -0.640025 112 115 127 255
0.273071 0.187638 0.401562 0.783091 0.016112 -0.621698 112 115 127 255
0.465669 0.319979 0.249143 -0.430755 -0.732737 -0.526827 112 115 127 255
0.357594 0.206457 0.495402 -0.512809 -0.671668 -0.534686 112 115 127 255
0.337424 0.231857 0.483767 -0.524668 -0.661885 -0.535380 112 115 127 255
0.490792 0.337242 0.182173 -0.461399 -0.801804 -0.379766 112 115 127 255
0.510018 0.294459 0.249143 -0.461399 -0.801804 -0.379766 112 115 127 255
0.465669 0.319979 0.249143 -0.461399 -0.801804 -0.379766 112 115 127 255
0.593125 0.407559 0.060000 -0.367674 -0.638933 -0.675707 112 115 127 255
0.537533 0.310345 0.182173 -0.367675 -0.638933 -0.675707 112 115 127 255
0.490792 0.337242 0.182173 -0.367675 -0.638933 -0.675707 112 115 127 255
-0.490792 0.337242 0.182173 0.367675 -0.638933 -0.675707 112 115 127 255
0.046664 0.593659 0.182173 -0.369495 -0.637882 -0.675707 112 115 127 255
0.537456 0.256417 0.182173 -0.737169 0.001050 -0.675707 112 115 127 255
0.490792 -0.337242 0.182173 -0.367675 0.638933 -0.675707 112 115 127 255
-0.046664 -0.593659 0.182173 0.369495 0.637882 -0.675707 112 115 127 255
-0.537456 -0.256417 0.182173 0.737169 -0.001050 -0.675707 112 115 127 255
-0.509945 -0.243292 0.249143 0.925082 -0.001318 -0.379766 112 115 127 255
0.044276 0.563271 0.249143 -0.463683 -0.800485 -0.379766 112 115 127 255
0.465669 -0.319979 0.249143 -0.461398 0.801804 -0.379766 112 115 127 255
-0.044276 -0.563271 0.249143 0.463683 0.800485 -0.379766 112 115 127 255
-0.465669 0.319979 0.249143 0.461398 -0.801804 -0.379766 112 115 127 255
0.509945 0.243292 0.249143 -0.925082 0.001318 -0.379766 112 115 127 255
0.465669 0.319979 0.249143 -0.462496 -0.801066 -0.379988 112 115 127 255
-0.465669 0.319979 0.249143 0.462496 -0.801066 -0.379988 112 115 127 255
-0.509945 0.243292 0.249143 0.924992 0.000000 -0.379987 112 115 127 255
-0.046664 -0.593659 0.182173 0.462496 0.801066 -0.379987 112 115 127 255
0.046664 -0.593659 0.182173 -0.462496 0.801066 -0.379987 112 115 127 255
0.537456 0.256417 0.182173 -0.924992 -0.000000 -0.379987 112 115 127 255
-0.369506 -0.176289 0.483767 0.835543 0.123434 -0.535380 112 115 127 255
0.032082 0.408146 0.483767 -0.310875 -0.785318 -0.535380 112 115 127 255
0.337424 -0.231857 0.483767 -0.524668 0.661885 -0.535380 112 115 127 255
-0.032082 -0.408146 0.483767 0.310875 0.785318 -0.535381 112 115 127 255
-0.337424 0.231857 0.483767 0.524668 -0.661885 -0.535380 112 115 127 255
0.369506 0.176289 0.483767 -0.835543 -0.123434 -0.535380 112 115 127 255
-0.299035 -0.142668 0.401562 -0.405499 -0.670121 -0.621698 112 115 127 255
0.025964 0.330306 0.401562 -0.377592 0.686233 -0.621698 112 115 127 255
0.273071 -0.187638 0.401562 0.783091 -0.016112 -0.621699 112 115 127 255
-0.025964 -0.330306 0.401562 0.377592 -0.686233 -0.621698 112 115 127 255
-0.273071 0.187638 0.401562 -0.783091 0.016112 -0.621699 112 115 127 255
0.299035 0.142668 0.401562 0.405498 0.670121 -0.621698 112 115 127 255
-0.000000 0.412914 0.495402 0.157732 0.681814 -0.714318 112 115 127 255
-0.000000 0.588918 0.249143 0.426297 -0.735942 -0.525985 112 115 127 255
-0.000000 0.620690 0.182173 0.463683 -0.800485 -0.379766 112 115 127 255
-0.000000 0.750107 0.060000 0.369495 -0.637882 -0.675707 112 115 127 255
-0.357594 0.206457 0.495402 -0.511602 0.477507 -0.714318 112 115 127 255
-0.510018 0.294459 0.249143 0.850493 0.001212 -0.525985 112 115 127 255
-0.537533 0.310345 0.182173 0.925081 0.001319 -0.379766 112 115 127 255
-0.649612 0.375054 0.060000 0.737169 0.001051 -0.675707 112 115 127 255
-0.357594 -0.206457 0.495402 -0.669334 -0.204307 -0.714318 112 115 127 255
-0.510018 -0.294459 0.249143 0.424196 0.737155 -0.525985 112 115 127 255
-0.537533 -0.310345 0.182173 0.461399 0.801804 -0.379766 112 115 127 255
-0.649612 -0.375054 0.060000 0.367674 0.638933 -0.675707 112 115 127 255
0.000000 -0.412914 0.495402 -0.157732 -0.681814 -0.714318 112 115 127 255
0.000000 -0.588918 0.249143 -0.426297 0.735942 -0.525985 112 115 127 255
0.000000 -0.620690 0.182173 -0.463683 0.800485 -0.379766 112 115 127 255
0.000000 -0.750107 0.060000 -0.369495 0.637882 -0.675707 112 115 127 255
0.357594 -0.206457 0.495402 0.511602 -0.477507 -0.714318 112 115 127 255
0.510018 -0.294459 0.249143 -0.850493 -0.001212 -0.525985 112 115 127 255
0.537533 -0.310345 0.182173 -0.925081 -0.001319 -0.379766 112 115 127 255
0.649612 -0.375054 0.060000 -0.737169 -0.001051 -0.675707 112 115 127 255
0.357594 0.206457 0.495402 0.669334 0.204307 -0.714318 112 115 127 255
0.510018 0.294459 0.249143 -0.424196 -0.737155 -0.525985 112 115 127 255
0.537533 0.310345 0.182173 -0.461399 -0.801804 -0.379766 112 115 127 255
0.649612 0.375054 0.060000 -0.367674 -0.638933 -0.675707 112 115 127 255
-0.048728 -0.151726 0.564037 -0.807011 -0.590536 0.000000 112 115 127 255
-0.159357 -0.000542 0.060000 -0.807011 -0.590536 0.000000 112 115 127 255
-0.048728 -0.151726 0.060000 -0.807011 -0.590536 0.000000 112 115 127 255
-0.159357 -0.000542 0.564037 -0.811013 0.585028 0.000000 112 115 127 255
-0.049760 0.151390 0.060000 -0.811013 0.585028 0.000000 112 115 127 255
-0.159357 -0.000542 0.060000 -0.811013 0.585028 0.000000 112 115 127 255
-0.049760 0.151390 0.564037 0.305778 0.952103 0.000000 112 115 127 255
0.128604 0.094107 0.060000 0.305778 0.952103 0.000000 112 115 127 255
-0.049760 0.151390 0.060000 0.305778 0.952103 0.000000 112 115 127 255
0.128604 0.094107 0.564037 0.999994 0.003404 0.000000 112 115 127 255
0.129242 -0.093229 0.060000 0.999994 0.003404 0.000000 112 115 127 255
0.128604 0.094107 0.060000 0.999994 0.003404 0.000000 112 115 127 255
0.129242 -0.093229 0.564037 0.312253 -0.949999 0.000000 112 115 127 255
-0.048728 -0.151726 0.060000 0.312253 -0.949999 0.000000 112 115 127 255
0.129242 -0.093229 0.060000 0.312253 -0.949999 0.000000 112 115 127 255
-0.159357 -0.000542 0.564037 -0.807011 -0.590536 0.000000 112 115 127 255
-0.049760 0.151390 0.564037 -0.811013 0.585028 0.000000 112 115 127 255
0.128604 0.094107 0.564037 0.305778 0.952103 0.000000 112 115 127 255
0.129242 -0.093229 0.564037 0.999994 0.003404 0.000000 112 115 127 255
-0.048728 -0.151726 0.564037 0.312253 -0.949999 0.000000 112 115 127 255
-0.649519 -0.375000 0.030000 -0.500000 -0.866025 0.000000 64 1 64 255
0.000000 -0.750000 0.060000 -0.500000 -0.866025 0.000000 64 0 0 255
-0.649519 -0.375000 0.060000 -0.500000 -0.866025 0.000000 64 0 64 255
0.649519 -0.375000 0.060000 0.500000 -0.866025 0.000000 64 64 0 255
0.000000 -0.750000 0.030000 0.500000 -0.866025 0.000000 64 0 0 255
0.649519 -0.375000 0.030000 0.500000 -0.866025 0.000000 64 64 0 255
-0.649519 0.375000 0.030000 -0.500000 0.866025 -0.000000 0 0 64 255
-0.000000 0.750000 0.060000 -0.500000 0.866025 -0.000001 1 64 64 255
0.000000 0.750000 0.030000 -0.500000 0.866025 -0.000001 3 64 64 255
0.649519 0.375000 0.030000 0.500000 0.866025 0.000000 0 64 0 255
-0.000000 0.750000 0.060000 0.500000 0.866025 0.000001 1 64 64 255
0.649519 0.375000 0.060000 0.500000 0.866025 0.000000 0 64 0 255
-0.649519 -0.375000 0.060000 -1.000000 -0.000000 0.000000 64 0 64 255
-0.649519 0.375000 0.030000 -1.000000 -0.000000 0.000000 0 0 64 255
-0.649519 -0.375000 0.030000 -1.000000 -0.000000 0.000000 64 1 64 255
0.649519 0.375000 0.060000 1.000000 0.000000 0.000000 0 64 0 255
0.649519 -0.375000 0.030000 1.000000 0.000000 0.000000 64 64 0 255
0.649519 0.375000 0.030000 1.000000 0.000000 0.000000 0 64 0 255
0.649519 0.375000 0.060000 0.000000 0.000000 1.000000 0 64 0 255
-0.649519 0.375000 0.060000 0.000000 0.000000 1.000000 0 0 64 255
0.000000 -0.750000 0.060000 0.000000 0.000000 1.000000 64 0 0 255
0.000000 -0.750000 0.030000 -0.500000 -0.866025 0.000000 64 0 0 255
0.000000 -0.750000 0.060000 0.500000 -0.866025 0.000000 64 0 0 255
-0.649519 0.375000 0.060000 -0.500000 0.866025 0.000000 0 0 64 255
0.000000 0.750000 0.030000 0.500000 0.866025 0.000001 3 64 64 255
-0.649519 0.375000 0.060000 -1.000000 -0.000000 0.000000 0 0 64 255
0.649519 -0.375000 0.060000 1.000000 0.000000 0.000000 64 64 0 255
0.649519 -0.375000 0.060000 0.000000 0.000000 1.000000 64 64 0 255
-0.000000 0.750000 0.060000 0.000000 0.000000 1.000000 1 64 64 255
-0.649519 -0.375000 0.060000 0.000000 0.000000 1.000000 64 0 64 255
3 0 1 2
3 3 4 5
3 6 7 8
3 9 10 11
3 12 13 14
3 15 16 17
3 18 19 20
3 21 22 23
3 24 25 26
3 27 28 29
3 0 30 1
3 3 31 4
3 6 32 7
3 11 33 34
3 33 35 34
3 34 9 11
3 12 36 13
3 15 37 16
3 18 38 19
3 21 39 22
3 24 40 25
3 28 41 29
3 29 42 27
3 42 43 27
3 44 45 46
3 47 48 49
3 50 51 52
3 53 54 55
3 56 57 58
3 59 60 61
3 62 63 64
3 65 66 67
3 68 69 70
3 71 72 73
3 74 75 76
3 77 78 79
3 80 81 82
3 83 84 85
3 86 87 88
3 89 90 91
3 92 93 94
3 95 96 97
3 98 99 100
3 101 102 103
3 104 105 106
3 107 108 109
3 110 111 112
3 113 114 115
3 116 117 118
3 119 120 121
3 122 123 124
3 125 126 127
3 128 129 130
3 131 132 133
3 134 135 136
3 137 138 139
3 140 141 142
3 143 144 145
3 146 147 148
3 149 150 151
3 152 153 154
3 155 156 157
3 158 159 160
3 161 162 163
3 164 165 166
3 167 168 169
3 170 171 172
3 173 174 175
3 176 177 178
3 179 180 181
3 182 183 184
3 185 186 187
3 188 189 190
3 191 192 193
3 194 195 196
3 197 198 199
3 200 201 202
3 203 204 205
3 206 207 208
3 209 210 211
3 212 213 214
3 215 216 217
3 218 219 220
3 221 222 223
3 224 225 226
3 227 228 229
3 230 231 232
3 233 234 235
3 236 237 238
3 239 240 241
3 242 243 244
3 245 246 247
3 248 249 250
3 251 252 253
3 254 255 256
3 257 258 259
3 260 261 262
3 263 264 265
3 104 266 105
3 107 267 108
3 110 268 111
3 113 269 114
3 116 270 117
3 119 271 120
3 122 272 123
3 125 273 126
3 128 274 129
3 131 275 132
3 134 276 135
3 137 277 138
3 140 278 141
3 143 279 144
3 146 280 147
3 149 281 150
3 152 282 153
3 155 283 156
3 158 284 159
3 161 285 162
3 164 286 165
3 167 287 168
3 170 288 171
3 173 289 174
3 176 290 177
3 179 291 180
3 182 292 183
3 185 293 186
3 188 294 189
3 191 295 192
3 194 296 195
3 197 297 198
3 200 298 201
3 203 299 204
3 206 300 207
3 209 301 210
3 212 302 213
3 215 303 216
3 218 304 219
3 221 305 222
3 224 306 225
3 227 307 228
3 230 308 231
3 233 309 234
3 236 310 237
3 239 311 240
3 242 312 243
3 245 313 246
3 248 314 249
3 251 315 252
3 254 316 255
3 257 317 258
3 260 318 261
3 263 319 264
3 320 321 322
3 323 324 325
3 326 327 328
3 329 330 331
3 332 333 334
3 320 335 321
3 323 336 324
3 326 337 327
3 329 338 330
3 332 339 333
3 340 341 342
3 343 344 345
3 346 347 348
3 349 350 351
3 352 353 354
3 355 356 357
3 358 359 360
3 340 361 341
3 343 362 344
3 346 363 347
3 349 364 350
3 352 365 353
3 355 366 356
3 360 367 358
3 358 368 359
3 359 369 360
