ply
format ascii 1.0
comment Created by Blender 3.6.0 - www.blender.org
element vertex 447
property float x
property float y
property float z
property float nx
property float ny
property float nz
property uchar red
property uchar green
property uchar blue
property uchar alpha
element face 149
property list uchar uint vertex_indices
end_header
0.000000 0.000000 0.431810 -0.180097 0.554273 -0.812617 16 16 16 255
-0.264302 0.192024 0.621363 -0.180097 0.554273 -0.812617 48 134 134 255
0.100952 0.310705 0.621363 -0.180097 0.554273 -0.812617 16 128 16 255
-0.264302 0.192024 0.621363 -0.582797 0.000000 -0.812618 48 134 134 255
0.000000 0.000000 0.431810 -0.582797 0.000000 -0.812618 16 16 16 255
-0.264302 -0.192024 0.621363 -0.582797 0.000000 -0.812618 128 1 128 255
0.000000 0.000000 0.431810 0.471489 0.342564 -0.812618 16 16 16 255
0.100952 0.310705 0.621363 0.471489 0.342564 -0.812618 16 128 16 255
0.326698 0.000000 0.621363 0.471489 0.342564 -0.812618 129 129 3 255
0.000000 0.000000 0.431810 0.471489 -0.342564 -0.812618 16 16 16 255
0.326698 0.000000 0.621363 0.471489 -0.342564 -0.812618 129 129 3 255
0.100952 -0.310705 0.621363 0.471489 -0.342564 -0.812618 128 0 0 255
0.000000 0.000000 0.431810 -0.180097 -0.554273 -0.812617 16 16 16 255
0.100952 -0.310705 0.621363 -0.180097 -0.554273 -0.812617 128 0 0 255
-0.264302 -0.192024 0.621363 -0.180097 -0.554273 -0.812617 128 1 128 255
-0.264302 0.192024 0.621363 -0.979927 0.000000 -0.199355 48 134 134 255
-0.264302 -0.192024 0.621363 -0.979927 0.000000 -0.199355 128 1 128 255
-0.326698 0.000000 0.928068 -0.979927 0.000000 -0.199355 36 36 255 255
0.100952 0.310705 0.621363 -0.302819 0.931967 -0.199347 16 128 16 255
-0.264302 0.192024 0.621363 -0.302819 0.931966 -0.199347 48 134 134 255
-0.100952 0.310705 0.928068 -0.302819 0.931966 -0.199347 36 255 255 255
0.326698 0.000000 0.621363 0.792773 0.575997 -0.199344 129 129 3 255
0.100952 0.310705 0.621363 0.792773 0.575997 -0.199344 16 128 16 255
0.264302 0.192024 0.928068 0.792773 0.575997 -0.199344 39 255 39 255
0.100952 -0.310705 0.621363 0.792774 -0.575997 -0.199344 128 0 0 255
0.326698 0.000000 0.621363 0.792773 -0.575997 -0.199344 129 129 3 255
0.264302 -0.192024 0.928068 0.792773 -0.575997 -0.199344 255 255 32 255
-0.264302 -0.192024 0.621363 -0.302819 -0.931967 -0.199347 128 1 128 255
0.100952 -0.310705 0.621363 -0.302819 -0.931967 -0.199347 128 0 0 255
-0.100952 -0.310705 0.928068 -0.302819 -0.931967 -0.199347 255 0 0 255
-0.264302 0.192024 0.621363 -0.792773 0.575997 0.199344 48 134 134 255
-0.326698 0.000000 0.928068 -0.792773 0.575997 0.199344 36 36 255 255
-0.100952 0.310705 0.928068 -0.792773 0.575997 0.199344 36 255 255 255
0.100952 0.310705 0.621363 0.302819 0.931966 0.199347 16 128 16 255
-0.100952 0.310705 0.928068 0.302819 0.931967 0.199347 36 255 255 255
0.264302 0.192024 0.928068 0.302819 0.931966 0.199347 39 255 39 255
0.326698 0.000000 0.621363 0.979927 0.000000 0.199355 129 129 3 255
0.264302 0.192024 0.928068 0.979927 0.000000 0.199355 39 255 39 255
0.264302 -0.192024 0.928068 0.979927 0.000000 0.199355 255 255 32 255
0.100952 -0.310705 0.621363 0.302819 -0.931967 0.199347 128 0 0 255
0.264302 -0.192024 0.928068 0.302819 -0.931967 0.199347 255 255 32 255
-0.100952 -0.310705 0.928068 0.302819 -0.931967 0.199347 255 0 0 255
-0.264302 -0.192024 0.621363 -0.792773 -0.575997 0.199344 128 1 128 255
-0.100952 -0.310705 0.928068 -0.792774 -0.575997 0.199344 255 0 0 255
-0.326698 0.000000 0.928068 -0.792773 -0.575997 0.199344 36 36 255 255
-0.100952 0.310705 0.928068 -0.471489 0.342564 0.812618 36 255 255 255
-0.326698 0.000000 0.928068 -0.471489 0.342564 0.812618 36 36 255 255
0.000000 0.000000 1.117621 -0.471489 0.342564 0.812618 255 255 255 255
0.264302 0.192024 0.928068 0.180097 0.554273 0.812617 39 255 39 255
-0.100952 0.310705 0.928068 0.180097 0.554273 0.812617 36 255 255 255
0.000000 0.000000 1.117621 0.180097 0.554273 0.812617 255 255 255 255
0.264302 -0.192024 0.928068 0.582797 0.000000 0.812618 255 255 32 255
0.264302 0.192024 0.928068 0.582797 0.000000 0.812618 39 255 39 255
0.000000 0.000000 1.117621 0.582797 0.000000 0.812618 255 255 255 255
-0.100952 -0.310705 0.928068 0.180097 -0.554273 0.812617 255 0 0 255
0.264302 -0.192024 0.928068 0.180097 -0.554273 0.812617 255 255 32 255
0.000000 0.000000 1.117621 0.180097 -0.554273 0.812617 255 255 255 255
-0.326698 0.000000 0.928068 -0.471489 -0.342564 0.812618 36 36 255 255
-0.100952 -0.310705 0.928068 -0.471489 -0.342564 0.812618 255 0 0 255
0.000000 0.000000 1.117621 -0.471489 -0.342564 0.812618 255 255 255 255
-0.535503 -0.396856 0.647084 0.466509 0.674251 0.572499 112 115 127 255
-0.498260 -0.287671 0.488146 0.466509 0.674251 0.572499 112 115 127 255
-0.598430 -0.345504 0.637882 0.466509 0.674251 0.572499 112 115 127 255
0.075936 -0.662187 0.647084 -0.350663 0.741135 0.572499 112 115 127 255
-0.000000 -0.575342 0.488146 -0.350663 0.741135 0.572499 112 115 127 255
-0.000000 -0.691007 0.637882 -0.350663 0.741135 0.572499 112 115 127 255
0.611439 -0.265331 0.647084 -0.817172 0.066884 0.572500 112 115 127 255
0.498260 -0.287671 0.488146 -0.817172 0.066884 0.572500 112 115 127 255
0.598430 -0.345504 0.637882 -0.817172 0.066884 0.572500 112 115 127 255
0.535503 0.396856 0.647084 -0.466509 -0.674250 0.572500 112 115 127 255
0.498260 0.287671 0.488146 -0.466509 -0.674250 0.572500 112 115 127 255
0.598430 0.345503 0.637881 -0.466509 -0.674250 0.572500 112 115 127 255
-0.075936 0.662187 0.647084 0.350663 -0.741134 0.572500 112 115 127 255
0.000000 0.575341 0.488146 0.350663 -0.741134 0.572500 112 115 127 255
0.000000 0.691007 0.637881 0.350663 -0.741134 0.572500 112 115 127 255
-0.611439 0.265331 0.647084 0.817172 -0.066883 0.572500 112 115 127 255
-0.498260 0.287671 0.488146 0.817172 -0.066883 0.572500 112 115 127 255
-0.598430 0.345503 0.637881 0.817172 -0.066883 0.572500 112 115 127 255
-0.503904 0.219571 0.487974 0.695938 -0.059481 0.715634 112 115 127 255
-0.458527 0.264731 0.447600 0.695938 -0.059481 0.715634 112 115 127 255
-0.498260 0.287671 0.488146 0.695938 -0.059481 0.715634 112 115 127 255
0.061798 -0.546179 0.487974 -0.296456 0.632440 0.715635 112 115 127 255
-0.000000 -0.529462 0.447600 -0.296455 0.632440 0.715635 112 115 127 255
-0.000000 -0.575342 0.488146 -0.296456 0.632440 0.715635 112 115 127 255
0.442106 0.326608 0.487973 -0.399482 -0.572958 0.715635 112 115 127 255
0.458527 0.264731 0.447600 -0.399482 -0.572958 0.715635 112 115 127 255
0.498260 0.287671 0.488146 -0.399482 -0.572958 0.715635 112 115 127 255
-0.061798 0.546179 0.487973 0.296456 -0.632440 0.715635 112 115 127 255
0.000000 0.529461 0.447599 0.296456 -0.632440 0.715635 112 115 127 255
0.000000 0.575341 0.488146 0.296456 -0.632440 0.715635 112 115 127 255
-0.442106 -0.326608 0.487974 0.399482 0.572959 0.715634 112 115 127 255
-0.458527 -0.264731 0.447600 0.399482 0.572959 0.715635 112 115 127 255
-0.498260 -0.287671 0.488146 0.399482 0.572959 0.715635 112 115 127 255
0.503904 -0.219571 0.487974 -0.695938 0.059482 0.715634 112 115 127 255
0.458527 -0.264731 0.447600 -0.695938 0.059482 0.715634 112 115 127 255
0.498260 -0.287671 0.488146 -0.695938 0.059482 0.715634 112 115 127 255
0.061798 -0.546179 0.487974 -0.347944 0.602658 0.718149 112 115 127 255
0.410296 -0.307194 0.456270 -0.347944 0.602658 0.718149 112 115 127 255
0.060890 -0.508924 0.456270 -0.347944 0.602658 0.718149 112 115 127 255
-0.410296 -0.307194 0.456270 0.347946 0.602659 0.718147 112 115 127 255
-0.061798 -0.546179 0.487974 0.347946 0.602659 0.718147 112 115 127 255
-0.060890 -0.508924 0.456270 0.347946 0.602659 0.718147 112 115 127 255
-0.503904 0.219571 0.487974 0.695890 -0.000000 0.718148 112 115 127 255
-0.471186 -0.201730 0.456270 0.695890 -0.000000 0.718148 112 115 127 255
-0.471186 0.201730 0.456270 0.695890 -0.000000 0.718148 112 115 127 255
-0.410296 0.307194 0.456270 0.347945 -0.602659 0.718148 112 115 127 255
-0.061798 0.546179 0.487973 0.347945 -0.602658 0.718148 112 115 127 255
-0.442106 0.326608 0.487973 0.347945 -0.602659 0.718148 112 115 127 255
0.061798 0.546179 0.487973 -0.347944 -0.602657 0.718149 112 115 127 255
0.410296 0.307194 0.456270 -0.347944 -0.602658 0.718149 112 115 127 255
0.442106 0.326608 0.487973 -0.347944 -0.602658 0.718149 112 115 127 255
0.471186 0.201730 0.456270 -0.695891 0.000000 0.718148 112 115 127 255
0.503904 -0.219571 0.487974 -0.695891 0.000000 0.718148 112 115 127 255
0.503904 0.219571 0.487974 -0.695891 0.000000 0.718148 112 115 127 255
-0.471186 0.201730 0.456270 0.858982 -0.103590 0.501417 112 115 127 255
-0.305896 0.176609 0.167920 0.858982 -0.103590 0.501417 112 115 127 255
-0.458527 0.264731 0.447600 0.858982 -0.103590 0.501417 112 115 127 255
0.060890 -0.508924 0.456270 -0.339778 0.795696 0.501417 112 115 127 255
-0.000000 -0.353218 0.167920 -0.339778 0.795696 0.501417 112 115 127 255
-0.000000 -0.529462 0.447600 -0.339778 0.795696 0.501417 112 115 127 255
0.410296 0.307194 0.456270 -0.519203 -0.692105 0.501417 112 115 127 255
0.305896 0.176609 0.167920 -0.519204 -0.692105 0.501417 112 115 127 255
0.458527 0.264731 0.447600 -0.519203 -0.692105 0.501417 112 115 127 255
-0.060890 0.508924 0.456270 0.339777 -0.795696 0.501417 112 115 127 255
0.000000 0.353218 0.167920 0.339777 -0.795696 0.501417 112 115 127 255
0.000000 0.529461 0.447599 0.339777 -0.795696 0.501417 112 115 127 255
-0.410296 -0.307194 0.456270 0.519204 0.692105 0.501417 112 115 127 255
-0.305896 -0.176609 0.167920 0.519204 0.692105 0.501417 112 115 127 255
-0.458527 -0.264731 0.447600 0.519204 0.692105 0.501417 112 115 127 255
0.471186 -0.201730 0.456270 -0.858982 0.103591 0.501417 112 115 127 255
0.305896 -0.176609 0.167920 -0.858982 0.103591 0.501417 112 115 127 255
0.458527 -0.264731 0.447600 -0.858982 0.103591 0.501417 112 115 127 255
-0.322606 0.125166 0.187161 -0.490964 0.440589 0.751556 112 115 127 255
-0.190051 0.109725 0.282806 -0.490964 0.440589 0.751556 112 115 127 255
-0.305896 0.176609 0.167920 -0.490964 0.440589 0.751556 112 115 127 255
0.052906 -0.341968 0.187161 -0.136078 -0.645481 0.751556 112 115 127 255
-0.000000 -0.219452 0.282806 -0.136078 -0.645481 0.751556 112 115 127 255
-0.000000 -0.353218 0.167920 -0.136078 -0.645481 0.751556 112 115 127 255
0.269700 0.216802 0.187161 0.627043 0.204892 0.751556 112 115 127 255
0.190051 0.109725 0.282806 0.627043 0.204892 0.751556 112 115 127 255
0.305896 0.176609 0.167920 0.627043 0.204892 0.751556 112 115 127 255
-0.052906 0.341968 0.187161 0.136079 0.645482 0.751556 112 115 127 255
0.000000 0.219451 0.282806 0.136079 0.645482 0.751556 112 115 127 255
0.000000 0.353218 0.167920 0.136079 0.645482 0.751556 112 115 127 255
-0.269700 -0.216802 0.187161 -0.627043 -0.204892 0.751556 112 115 127 255
-0.190051 -0.109726 0.282806 -0.627043 -0.204892 0.751556 112 115 127 255
-0.305896 -0.176609 0.167920 -0.627043 -0.204892 0.751556 112 115 127 255
0.322606 -0.125166 0.187161 0.490964 -0.440589 0.751556 112 115 127 255
0.190051 -0.109726 0.282806 0.490964 -0.440589 0.751556 112 115 127 255
0.305896 -0.176609 0.167920 0.490964 -0.440589 0.751556 112 115 127 255
-0.052906 -0.341968 0.187161 0.322987 -0.665097 0.673294 112 115 127 255
-0.000000 -0.219452 0.282806 0.322987 -0.665097 0.673294 112 115 127 255
-0.039254 -0.224093 0.297052 0.322987 -0.665097 0.673294 112 115 127 255
-0.060890 -0.508924 0.456270 0.350521 0.791143 0.501227 112 115 127 255
-0.000000 -0.353218 0.167920 0.350521 0.791143 0.501227 112 115 127 255
-0.052906 -0.341968 0.187161 0.350521 0.791143 0.501227 112 115 127 255
-0.061798 -0.546179 0.487974 0.309975 0.611773 0.727770 112 115 127 255
-0.000000 -0.529462 0.447600 0.309975 0.611773 0.727770 112 115 127 255
-0.060890 -0.508924 0.456270 0.309975 0.611773 0.727770 112 115 127 255
-0.075936 -0.662187 0.647084 0.348698 0.742296 0.572195 112 115 127 255
-0.000000 -0.575342 0.488146 0.348698 0.742296 0.572195 112 115 127 255
-0.061798 -0.546179 0.487974 0.348698 0.742296 0.572195 112 115 127 255
-0.322606 -0.125166 0.187161 -0.414497 -0.612264 0.673294 112 115 127 255
-0.190051 -0.109726 0.282806 -0.414497 -0.612264 0.673294 112 115 127 255
-0.213697 -0.078052 0.297052 -0.414497 -0.612264 0.673294 112 115 127 255
-0.471186 -0.201730 0.456270 0.860410 0.092011 0.501227 112 115 127 255
-0.305896 -0.176609 0.167920 0.860410 0.092011 0.501227 112 115 127 255
-0.322606 -0.125166 0.187161 0.860410 0.092011 0.501227 112 115 127 255
-0.503904 -0.219571 0.487974 0.684798 0.037441 0.727770 112 115 127 255
-0.458527 -0.264731 0.447600 0.684798 0.037441 0.727770 112 115 127 255
-0.471186 -0.201730 0.456270 0.684798 0.037441 0.727770 112 115 127 255
-0.611439 -0.265331 0.647084 0.817196 0.069168 0.572195 112 115 127 255
-0.498260 -0.287671 0.488146 0.817196 0.069168 0.572195 112 115 127 255
-0.503904 -0.219571 0.487974 0.817196 0.069168 0.572195 112 115 127 255
-0.269700 0.216802 0.187161 -0.737485 0.052833 0.673294 112 115 127 255
-0.190051 0.109725 0.282806 -0.737485 0.052833 0.673294 112 115 127 255
-0.174443 0.146041 0.297052 -0.737485 0.052833 0.673294 112 115 127 255
-0.410296 0.307194 0.456270 0.509889 -0.699131 0.501227 112 115 127 255
-0.305896 0.176609 0.167920 0.509889 -0.699131 0.501227 112 115 127 255
-0.269700 0.216802 0.187161 0.509889 -0.699131 0.501227 112 115 127 255
-0.442106 0.326608 0.487973 0.374823 -0.574332 0.727771 112 115 127 255
-0.458527 0.264731 0.447600 0.374823 -0.574332 0.727771 112 115 127 255
-0.410296 0.307194 0.456270 0.374823 -0.574332 0.727771 112 115 127 255
-0.535503 0.396856 0.647084 0.468499 -0.673128 0.572195 112 115 127 255
-0.498260 0.287671 0.488146 0.468499 -0.673128 0.572195 112 115 127 255
-0.442106 0.326608 0.487973 0.468499 -0.673128 0.572195 112 115 127 255
0.052906 0.341968 0.187161 -0.322988 0.665098 0.673294 112 115 127 255
0.000000 0.219451 0.282806 -0.322988 0.665098 0.673294 112 115 127 255
0.039254 0.224092 0.297052 -0.322988 0.665098 0.673294 112 115 127 255
0.060890 0.508924 0.456270 -0.350520 -0.791143 0.501227 112 115 127 255
0.000000 0.353218 0.167920 -0.350520 -0.791143 0.501227 112 115 127 255
0.052906 0.341968 0.187161 -0.350520 -0.791143 0.501227 112 115 127 255
0.061798 0.546179 0.487973 -0.309975 -0.611773 0.727770 112 115 127 255
0.000000 0.529461 0.447599 -0.309975 -0.611773 0.727770 112 115 127 255
0.060890 0.508924 0.456270 -0.309975 -0.611773 0.727770 112 115 127 255
0.075936 0.662187 0.647084 -0.348698 -0.742295 0.572195 112 115 127 255
0.000000 0.575341 0.488146 -0.348698 -0.742295 0.572195 112 115 127 255
0.061798 0.546179 0.487973 -0.348698 -0.742295 0.572195 112 115 127 255
0.322606 0.125166 0.187161 0.414496 0.612266 0.673293 112 115 127 255
0.190051 0.109725 0.282806 0.414496 0.612266 0.673293 112 115 127 255
0.213697 0.078051 0.297052 0.414496 0.612266 0.673293 112 115 127 255
0.471186 0.201730 0.456270 -0.860410 -0.092011 0.501227 112 115 127 255
0.305896 0.176609 0.167920 -0.860410 -0.092011 0.501227 112 115 127 255
0.322606 0.125166 0.187161 -0.860410 -0.092011 0.501227 112 115 127 255
0.503904 0.219571 0.487974 -0.684798 -0.037440 0.727770 112 115 127 255
0.458527 0.264731 0.447600 -0.684798 -0.037440 0.727770 112 115 127 255
0.471186 0.201730 0.456270 -0.684798 -0.037440 0.727770 112 115 127 255
0.611439 0.265331 0.647084 -0.817196 -0.069167 0.572195 112 115 127 255
0.498260 0.287671 0.488146 -0.817196 -0.069167 0.572195 112 115 127 255
0.503904 0.219571 0.487974 -0.817196 -0.069167 0.572195 112 115 127 255
0.269700 -0.216802 0.187161 0.737485 -0.052833 0.673293 112 115 127 255
0.190051 -0.109726 0.282806 0.737485 -0.052833 0.673293 112 115 127 255
0.174443 -0.146041 0.297052 0.737485 -0.052833 0.673294 112 115 127 255
0.410296 -0.307194 0.456270 -0.509890 0.699131 0.501226 112 115 127 255
0.305896 -0.176609 0.167920 -0.509890 0.699131 0.501226 112 115 127 255
0.269700 -0.216802 0.187161 -0.509890 0.699131 0.501226 112 115 127 255
0.442106 -0.326608 0.487974 -0.374823 0.574333 0.727770 112 115 127 255
0.458527 -0.264731 0.447600 -0.374823 0.574333 0.727770 112 115 127 255
0.410296 -0.307194 0.456270 -0.374823 0.574333 0.727770 112 115 127 255
0.535503 -0.396856 0.647084 -0.468498 0.673129 0.572195 112 115 127 255
0.498260 -0.287671 0.488146 -0.468498 0.673129 0.572195 112 115 127 255
0.442106 -0.326608 0.487974 -0.468498 0.673129 0.572195 112 115 127 255
-0.535503 -0.396856 0.647084 0.468499 0.673129 0.572195 112 115 127 255
-0.442106 -0.326608 0.487974 0.468499 0.673129 0.572195 112 115 127 255
-0.498260 -0.287671 0.488146 0.468499 0.673129 0.572195 112 115 127 255
0.075936 -0.662187 0.647084 -0.348697 0.742296 0.572195 112 115 127 255
0.061798 -0.546179 0.487974 -0.348697 0.742296 0.572195 112 115 127 255
-0.000000 -0.575342 0.488146 -0.348697 0.742296 0.572195 112 115 127 255
0.611439 -0.265331 0.647084 -0.817195 0.069167 0.572195 112 115 127 255
0.503904 -0.219571 0.487974 -0.817196 0.069167 0.572195 112 115 127 255
0.498260 -0.287671 0.488146 -0.817195 0.069167 0.572195 112 115 127 255
0.535503 0.396856 0.647084 -0.468499 -0.673128 0.572195 112 115 127 255
0.442106 0.326608 0.487973 -0.468499 -0.673128 0.572195 112 115 127 255
0.498260 0.287671 0.488146 -0.468499 -0.673128 0.572195 112 115 127 255
-0.075936 0.662187 0.647084 0.348697 -0.742296 0.572195 112 115 127 255
-0.061798 0.546179 0.487973 0.348697 -0.742296 0.572195 112 115 127 255
0.000000 0.575341 0.488146 0.348697 -0.742296 0.572195 112 115 127 255
-0.611439 0.265331 0.647084 0.817195 -0.069167 0.572195 112 115 127 255
-0.503904 0.219571 0.487974 0.817195 -0.069167 0.572195 112 115 127 255
-0.498260 0.287671 0.488146 0.817195 -0.069167 0.572195 112 115 127 255
-0.503904 0.219571 0.487974 0.684799 -0.037438 0.727770 112 115 127 255
-0.471186 0.201730 0.456270 0.684799 -0.037438 0.727770 112 115 127 255
-0.458527 0.264731 0.447600 0.684799 -0.037438 0.727770 112 115 127 255
0.061798 -0.546179 0.487974 -0.309975 0.611772 0.727771 112 115 127 255
0.060890 -0.508924 0.456270 -0.309975 0.611772 0.727771 112 115 127 255
-0.000000 -0.529462 0.447600 -0.309975 0.611772 0.727771 112 115 127 255
0.442106 0.326608 0.487973 -0.374822 -0.574332 0.727771 112 115 127 255
0.410296 0.307194 0.456270 -0.374822 -0.574332 0.727771 112 115 127 255
0.458527 0.264731 0.447600 -0.374822 -0.574332 0.727771 112 115 127 255
-0.061798 0.546179 0.487973 0.309975 -0.611773 0.727770 112 115 127 255
-0.060890 0.508924 0.456270 0.309975 -0.611773 0.727770 112 115 127 255
0.000000 0.529461 0.447599 0.309975 -0.611773 0.727770 112 115 127 255
-0.442106 -0.326608 0.487974 0.374822 0.574333 0.727771 112 115 127 255
-0.410296 -0.307194 0.456270 0.374822 0.574333 0.727771 112 115 127 255
-0.458527 -0.264731 0.447600 0.374822 0.574333 0.727771 112 115 127 255
0.503904 -0.219571 0.487974 -0.684799 0.037439 0.727770 112 115 127 255
0.471186 -0.201730 0.456270 -0.684799 0.037439 0.727770 112 115 127 255
0.458527 -0.264731 0.447600 -0.684799 0.037439 0.727770 112 115 127 255
0.061798 -0.546179 0.487974 -0.347945 0.602659 0.718148 112 115 127 255
0.442106 -0.326608 0.487974 -0.347945 0.602659 0.718148 112 115 127 255
0.410296 -0.307194 0.456270 -0.347945 0.602659 0.718148 112 115 127 255
-0.410296 -0.307194 0.456270 0.347945 0.602658 0.718149 112 115 127 255
-0.442106 -0.326608 0.487974 0.347945 0.602658 0.718149 112 115 127 255
-0.061798 -0.546179 0.487974 0.347945 0.602658 0.718149 112 115 127 255
-0.503904 0.219571 0.487974 0.695891 -0.000000 0.718148 112 115 127 255
-0.503904 -0.219571 0.487974 0.695891 -0.000000 0.718148 112 115 127 255
-0.471186 -0.201730 0.456270 0.695891 -0.000000 0.718148 112 115 127 255
-0.410296 0.307194 0.456270 0.347945 -0.602659 0.718148 112 115 127 255
-0.060890 0.508924 0.456270 0.347945 -0.602659 0.718148 112 115 127 255
-0.061798 0.546179 0.487973 0.347945 -0.602659 0.718148 112 115 127 255
0.061798 0.546179 0.487973 -0.347946 -0.602659 0.718147 112 115 127 255
0.060890 0.508924 0.456270 -0.347946 -0.602659 0.718147 112 115 127 255
0.410296 0.307194 0.456270 -0.347946 -0.602659 0.718147 112 115 127 255
0.471186 0.201730 0.456270 -0.695890 0.000001 0.718148 112 115 127 255
0.471186 -0.201730 0.456270 -0.695890 0.000001 0.718148 112 115 127 255
0.503904 -0.219571 0.487974 -0.695890 0.000001 0.718148 112 115 127 255
-0.471186 0.201730 0.456270 0.860410 -0.092013 0.501227 112 115 127 255
-0.322606 0.125166 0.187161 0.860410 -0.092013 0.501227 112 115 127 255
-0.305896 0.176609 0.167920 0.860410 -0.092013 0.501227 112 115 127 255
0.060890 -0.508924 0.456270 -0.350521 0.791143 0.501226 112 115 127 255
0.052906 -0.341968 0.187161 -0.350521 0.791143 0.501226 112 115 127 255
-0.000000 -0.353218 0.167920 -0.350521 0.791143 0.501226 112 115 127 255
0.410296 0.307194 0.456270 -0.509890 -0.699131 0.501227 112 115 127 255
0.269700 0.216802 0.187161 -0.509890 -0.699131 0.501227 112 115 127 255
0.305896 0.176609 0.167920 -0.509890 -0.699131 0.501227 112 115 127 255
-0.060890 0.508924 0.456270 0.350520 -0.791143 0.501227 112 115 127 255
-0.052906 0.341968 0.187161 0.350520 -0.791143 0.501227 112 115 127 255
0.000000 0.353218 0.167920 0.350520 -0.791143 0.501227 112 115 127 255
-0.410296 -0.307194 0.456270 0.509890 0.699131 0.501226 112 115 127 255
-0.269700 -0.216802 0.187161 0.509890 0.699131 0.501226 112 115 127 255
-0.305896 -0.176609 0.167920 0.509890 0.699131 0.501226 112 115 127 255
0.471186 -0.201730 0.456270 -0.860410 0.092013 0.501227 112 115 127 255
0.322606 -0.125166 0.187161 -0.860410 0.092013 0.501227 112 115 127 255
0.305896 -0.176609 0.167920 -0.860410 0.092013 0.501227 112 115 127 255
-0.322606 0.125166 0.187161 -0.414497 0.612265 0.673293 112 115 127 255
-0.213697 0.078051 0.297052 -0.414497 0.612265 0.673293 112 115 127 255
-0.190051 0.109725 0.282806 -0.414497 0.612265 0.673293 112 115 127 255
0.052906 -0.341968 0.187161 -0.322988 -0.665097 0.673294 112 115 127 255
0.039254 -0.224093 0.297052 -0.322988 -0.665097 0.673294 112 115 127 255
-0.000000 -0.219452 0.282806 -0.322988 -0.665097 0.673294 112 115 127 255
0.269700 0.216802 0.187161 0.737485 0.052832 0.673293 112 115 127 255
0.174443 0.146041 0.297052 0.737486 0.052832 0.673293 112 115 127 255
0.190051 0.109725 0.282806 0.737485 0.052832 0.673293 112 115 127 255
-0.052906 0.341968 0.187161 0.322988 0.665098 0.673293 112 115 127 255
-0.039254 0.224092 0.297052 0.322988 0.665098 0.673293 112 115 127 255
0.000000 0.219451 0.282806 0.322988 0.665098 0.673293 112 115 127 255
-0.269700 -0.216802 0.187161 -0.737484 -0.052834 0.673295 112 115 127 255
-0.174443 -0.146041 0.297052 -0.737484 -0.052834 0.673295 112 115 127 255
-0.190051 -0.109726 0.282806 -0.737484 -0.052834 0.673294 112 115 127 255
0.322606 -0.125166 0.187161 0.414497 -0.612264 0.673294 112 115 127 255
0.213697 -0.078052 0.297052 0.414497 -0.612264 0.673294 112 115 127 255
0.190051 -0.109726 0.282806 0.414497 -0.612264 0.673294 112 115 127 255
-0.052906 -0.341968 0.187161 0.136079 -0.645481 0.751556 112 115 127 255
-0.000000 -0.353218 0.167920 0.136079 -0.645481 0.751556 112 115 127 255
-0.000000 -0.219452 0.282806 0.136079 -0.645481 0.751556 112 115 127 255
-0.060890 -0.508924 0.456270 0.339777 0.795696 0.501417 112 115 127 255
-0.000000 -0.529462 0.447600 0.339777 0.795696 0.501417 112 115 127 255
-0.000000 -0.353218 0.167920 0.339777 0.795696 0.501417 112 115 127 255
-0.061798 -0.546179 0.487974 0.296456 0.632440 0.715635 112 115 127 255
-0.000000 -0.575342 0.488146 0.296456 0.632440 0.715635 112 115 127 255
-0.000000 -0.529462 0.447600 0.296456 0.632440 0.715635 112 115 127 255
-0.075936 -0.662187 0.647084 0.350663 0.741134 0.572499 112 115 127 255
-0.000000 -0.691007 0.637882 0.350663 0.741134 0.572499 112 115 127 255
-0.000000 -0.575342 0.488146 0.350663 0.741134 0.572499 112 115 127 255
-0.322606 -0.125166 0.187161 -0.490964 -0.440588 0.751556 112 115 127 255
-0.305896 -0.176609 0.167920 -0.490964 -0.440588 0.751556 112 115 127 255
-0.190051 -0.109726 0.282806 -0.490964 -0.440588 0.751556 112 115 127 255
-0.471186 -0.201730 0.456270 0.858982 0.103593 0.501417 112 115 127 255
-0.458527 -0.264731 0.447600 0.858982 0.103593 0.501417 112 115 127 255
-0.305896 -0.176609 0.167920 0.858982 0.103593 0.501417 112 115 127 255
-0.503904 -0.219571 0.487974 0.695937 0.059483 0.715635 112 115 127 255
-0.498260 -0.287671 0.488146 0.695937 0.059483 0.715635 112 115 127 255
-0.458527 -0.264731 0.447600 0.695937 0.059483 0.715635 112 115 127 255
-0.611439 -0.265331 0.647084 0.817172 0.066883 0.572500 112 115 127 255
-0.598430 -0.345504 0.637882 0.817172 0.066883 0.572500 112 115 127 255
-0.498260 -0.287671 0.488146 0.817172 0.066883 0.572500 112 115 127 255
-0.269700 0.216802 0.187161 -0.627043 0.204893 0.751556 112 115 127 255
-0.305896 0.176609 0.167920 -0.627043 0.204893 0.751556 112 115 127 255
-0.190051 0.109725 0.282806 -0.627043 0.204893 0.751556 112 115 127 255
-0.410296 0.307194 0.456270 0.519204 -0.692104 0.501417 112 115 127 255
-0.458527 0.264731 0.447600 0.519204 -0.692104 0.501417 112 115 127 255
-0.305896 0.176609 0.167920 0.519204 -0.692104 0.501417 112 115 127 255
-0.442106 0.326608 0.487973 0.399482 -0.572958 0.715635 112 115 127 255
-0.498260 0.287671 0.488146 0.399482 -0.572958 0.715635 112 115 127 255
-0.458527 0.264731 0.447600 0.399482 -0.572958 0.715635 112 115 127 255
-0.535503 0.396856 0.647084 0.466509 -0.674250 0.572500 112 115 127 255
-0.598430 0.345503 0.637881 0.466509 -0.674250 0.572500 112 115 127 255
-0.498260 0.287671 0.488146 0.466509 -0.674250 0.572500 112 115 127 255
0.052906 0.341968 0.187161 -0.136079 0.645482 0.751556 112 115 127 255
0.000000 0.353218 0.167920 -0.136079 0.645482 0.751556 112 115 127 255
0.000000 0.219451 0.282806 -0.136079 0.645482 0.751556 112 115 127 255
0.060890 0.508924 0.456270 -0.339777 -0.795696 0.501417 112 115 127 255
0.000000 0.529461 0.447599 -0.339777 -0.795696 0.501417 112 115 127 255
0.000000 0.353218 0.167920 -0.339777 -0.795696 0.501417 112 115 127 255
0.061798 0.546179 0.487973 -0.296456 -0.632440 0.715635 112 115 127 255
0.000000 0.575341 0.488146 -0.296456 -0.632440 0.715635 112 115 127 255
0.000000 0.529461 0.447599 -0.296456 -0.632440 0.715635 112 115 127 255
0.075936 0.662187 0.647084 -0.350663 -0.741134 0.572500 112 115 127 255
0.000000 0.691007 0.637881 -0.350663 -0.741134 0.572500 112 115 127 255
0.000000 0.575341 0.488146 -0.350663 -0.741134 0.572500 112 115 127 255
0.322606 0.125166 0.187161 0.490964 0.440588 0.751556 112 115 127 255
0.305896 0.176609 0.167920 0.490964 0.440588 0.751556 112 115 127 255
0.190051 0.109725 0.282806 0.490964 0.440588 0.751556 112 115 127 255
0.471186 0.201730 0.456270 -0.858982 -0.103592 0.501417 112 115 127 255
0.458527 0.264731 0.447600 -0.858982 -0.103592 0.501417 112 115 127 255
0.305896 0.176609 0.167920 -0.858982 -0.103592 0.501417 112 115 127 255
0.503904 0.219571 0.487974 -0.695937 -0.059482 0.715635 112 115 127 255
0.498260 0.287671 0.488146 -0.695937 -0.059482 0.715635 112 115 127 255
0.458527 0.264731 0.447600 -0.695937 -0.059482 0.715635 112 115 127 255
0.611439 0.265331 0.647084 -0.817172 -0.066883 0.572500 112 115 127 255
0.598430 0.345503 0.637881 -0.817172 -0.066883 0.572500 112 115 127 255
0.498260 0.287671 0.488146 -0.817172 -0.066883 0.572500 112 115 127 255
0.269700 -0.216802 0.187161 0.627043 -0.204893 0.751556 112 115 127 255
0.305896 -0.176609 0.167920 0.627043 -0.204893 0.751556 112 115 127 255
0.190051 -0.109726 0.282806 0.627043 -0.204893 0.751556 112 115 127 255
0.410296 -0.307194 0.456270 -0.519204 0.692104 0.501417 112 115 127 255
0.458527 -0.264731 0.447600 -0.519204 0.692104 0.501417 112 115 127 255
0.305896 -0.176609 0.167920 -0.519204 0.692104 0.501417 112 115 127 255
0.442106 -0.326608 0.487974 -0.399482 0.572959 0.715634 112 115 127 255
0.498260 -0.287671 0.488146 -0.399482 0.572959 0.715634 112 115 127 255
0.458527 -0.264731 0.447600 -0.399482 0.572959 0.715634 112 115 127 255
0.535503 -0.396856 0.647084 -0.466510 0.674250 0.572499 112 115 127 255
0.598430 -0.345504 0.637882 -0.466510 0.674250 0.572499 112 115 127 255
0.498260 -0.287671 0.488146 -0.466510 0.674250 0.572499 112 115 127 255
-0.000000 -0.199644 0.002810 -0.567031 -0.780451 0.263387 112 115 127 255
-0.000000 0.000000 0.594380 -0.567031 -0.780451 0.263387 112 115 127 255
-0.189872 -0.061693 0.002810 -0.567031 -0.780451 0.263387 112 115 127 255
-0.189872 -0.061693 0.002810 -0.917475 0.298106 0.263387 112 115 127 255
-0.000000 0.000000 0.594380 -0.917475 0.298106 0.263387 112 115 127 255
-0.117348 0.161515 0.002810 -0.917475 0.298106 0.263387 112 115 127 255
-0.117348 0.161515 0.002810 0.000000 0.964690 0.263387 112 115 127 255
-0.000000 0.000000 0.594380 0.000000 0.964690 0.263387 112 115 127 255
0.117348 0.161515 0.002810 0.000000 0.964690 0.263387 112 115 127 255
0.117348 0.161515 0.002810 0.917475 0.298106 0.263387 112 115 127 255
-0.000000 0.000000 0.594380 0.917475 0.298106 0.263387 112 115 127 255
0.189872 -0.061693 0.002810 0.917475 0.298106 0.263387 112 115 127 255
0.189872 -0.061693 0.002810 0.567031 -0.780451 0.263387 112 115 127 255
-0.000000 0.000000 0.594380 0.567031 -0.780451 0.263387 112 115 127 255
-0.000000 -0.199644 0.002810 0.567031 -0.780451 0.263387 112 115 127 255
0.649519 0.375000 0.000000 0.000000 0.000000 1.000000 0 64 0 255
-0.649519 0.375000 0.000000 0.000000 0.000000 1.000000 0 0 64 255
0.000000 -0.750000 0.000000 0.000000 0.000000 1.000000 64 0 0 255
0.000000 -0.750000 0.000000 0.000000 0.000000 1.000000 64 0 0 255
0.649519 -0.375000 0.000000 0.000000 0.000000 1.000000 64 64 0 255
0.649519 0.375000 0.000000 0.000000 0.000000 1.000000 0 64 0 255
0.649519 0.375000 0.000000 0.000000 0.000000 1.000000 0 64 0 255
-0.000000 0.750000 0.000000 0.000000 0.000000 1.000000 1 64 64 255
-0.649519 0.375000 0.000000 0.000000 0.000000 1.000000 0 0 64 255
-0.649519 0.375000 0.000000 0.000000 0.000000 1.000000 0 0 64 255
-0.649519 -0.375000 0.000000 0.000000 0.000000 1.000000 64 0 64 255
0.000000 -0.750000 0.000000 0.000000 0.000000 1.000000 64 0 0 255
0.866025 0.500000 0.000000 0.000000 0.000000 1.000000 112 115 127 255
0.000000 0.750000 0.000000 0.000000 0.000000 1.000000 112 115 127 255
0.649519 0.375000 0.000000 0.000000 0.000000 1.000000 112 115 127 255
-0.866025 -0.500000 0.000000 0.000000 0.000000 1.000000 112 115 127 255
0.000000 -0.750000 0.000000 0.000000 0.000000 1.000000 112 115 127 255
-0.649519 -0.375000 0.000000 0.000000 0.000000 1.000000 112 115 127 255
0.000000 1.000000 0.000000 0.000000 0.000000 1.000000 112 115 127 255
-0.649519 0.375000 0.000000 0.000000 0.000000 1.000000 112 115 127 255
0.000000 0.750000 0.000000 0.000000 0.000000 1.000000 112 115 127 255
-0.866025 0.500000 0.000000 0.000000 0.000000 1.000000 112 115 127 255
-0.649519 -0.375000 0.000000 0.000000 0.000000 1.000000 112 115 127 255
-0.649519 0.375000 0.000000 0.000000 0.000000 1.000000 112 115 127 255
0.000000 -1.000000 0.000000 0.000000 0.000000 1.000000 112 115 127 255
0.649519 -0.375000 0.000000 0.000000 0.000000 1.000000 112 115 127 255
0.000000 -0.750000 0.000000 0.000000 0.000000 1.000000 112 115 127 255
0.866025 -0.500000 0.000000 0.000000 0.000000 1.000000 112 115 127 255
0.649519 0.375000 0.000000 0.000000 0.000000 1.000000 112 115 127 255
0.649519 -0.375000 0.000000 0.000000 0.000000 1.000000 112 115 127 255
0.866025 0.500000 0.000000 0.000000 0.000000 1.000000 112 115 127 255
0.000000 1.000000 0.000000 0.000000 0.000000 1.000000 112 115 127 255
0.000000 0.750000 0.000000 0.000000 0.000000 1.000000 112 115 127 255
-0.866025 -0.500000 0.000000 0.000000 0.000000 1.000000 112 115 127 255
0.000000 -1.000000 0.000000 0.000000 0.000000 1.000000 112 115 127 255
0.000000 -0.750000 0.000000 0.000000 0.000000 1.000000 112 115 127 255
0.000000 1.000000 0.000000 0.000000 0.000000 1.000000 112 115 127 255
-0.866025 0.500000 0.000000 0.000000 0.000000 1.000000 112 115 127 255
-0.649519 0.375000 0.000000 0.000000 0.000000 1.000000 112 115 127 255
-0.866025 0.500000 0.000000 0.000000 0.000000 1.000000 112 115 127 255
-0.866025 -0.500000 0.000000 0.000000 0.000000 1.000000 112 115 127 255
-0.649519 -0.375000 0.000000 0.000000 0.000000 1.000000 112 115 127 255
0.000000 -1.000000 0.000000 0.000000 0.000000 1.000000 112 115 127 255
0.866025 -0.500000 0.000000 0.000000 0.000000 1.000000 112 115 127 255
0.649519 -0.375000 0.000000 0.000000 0.000000 1.000000 112 115 127 255
0.866025 -0.500000 0.000000 0.000000 0.000000 1.000000 112 115 127 255
0.866025 0.500000 0.000000 0.000000 0.000000 1.000000 112 115 127 255
0.649519 0.375000 0.000000 0.000000 0.000000 1.000000 112 115 127 255
3 0 1 2
3 3 4 5
3 6 7 8
3 9 10 11
3 12 13 14
3 15 16 17
3 18 19 20
3 21 22 23
3 24 25 26
3 27 28 29
3 30 31 32
3 33 34 35
3 36 37 38
3 39 40 41
3 42 43 44
3 45 46 47
3 48 49 50
3 51 52 53
3 54 55 56
3 57 58 59
3 60 61 62
3 63 64 65
3 66 67 68
3 69 70 71
3 72 73 74
3 75 76 77
3 78 79 80
3 81 82 83
3 84 85 86
3 87 88 89
3 90 91 92
3 93 94 95
3 96 97 98
3 99 100 101
3 102 103 104
3 105 106 107
3 108 109 110
3 111 112 113
3 114 115 116
3 117 118 119
3 120 121 122
3 123 124 125
3 126 127 128
3 129 130 131
3 132 133 134
3 135 136 137
3 138 139 140
3 141 142 143
3 144 145 146
3 147 148 149
3 150 151 152
3 153 154 155
3 156 157 158
3 159 160 161
3 162 163 164
3 165 166 167
3 168 169 170
3 171 172 173
3 174 175 176
3 177 178 179
3 180 181 182
3 183 184 185
3 186 187 188
3 189 190 191
3 192 193 194
3 195 196 197
3 198 199 200
3 201 202 203
3 204 205 206
3 207 208 209
3 210 211 212
3 213 214 215
3 216 217 218
3 219 220 221
3 222 223 224
3 225 226 227
3 228 229 230
3 231 232 233
3 234 235 236
3 237 238 239
3 240 241 242
3 243 244 245
3 246 247 248
3 249 250 251
3 252 253 254
3 255 256 257
3 258 259 260
3 261 262 263
3 264 265 266
3 267 268 269
3 270 271 272
3 273 274 275
3 276 277 278
3 279 280 281
3 282 283 284
3 285 286 287
3 288 289 290
3 291 292 293
3 294 295 296
3 297 298 299
3 300 301 302
3 303 304 305
3 306 307 308
3 309 310 311
3 312 313 314
3 315 316 317
3 318 319 320
3 321 322 323
3 324 325 326
3 327 328 329
3 330 331 332
3 333 334 335
3 336 337 338
3 339 340 341
3 342 343 344
3 345 346 347
3 348 349 350
3 351 352 353
3 354 355 356
3 357 358 359
3 360 361 362
3 363 364 365
3 366 367 368
3 369 370 371
3 372 373 374
3 375 376 377
3 378 379 380
3 381 382 383
3 384 385 386
3 387 388 389
3 390 391 392
3 393 394 395
3 396 397 398
3 399 400 401
3 402 403 404
3 405 406 407
3 408 409 410
3 411 412 413
3 414 415 416
3 417 418 419
3 420 421 422
3 423 424 425
3 426 427 428
3 429 430 431
3 432 433 434
3 435 436 437
3 438 439 440
3 441 442 443
3 444 445 446
