ply
format ascii 1.0
comment Created by Blender 3.5.1 - www.blender.org
element vertex 365
property float x
property float y
property float z
property float nx
property float ny
property float nz
property uchar red
property uchar green
property uchar blue
property uchar alpha
element face 173
property list uchar uint vertex_indices
end_header
0.000000 -0.900000 0.030000 -0.163663 -0.283473 0.944911 204 204 204 255
-0.866025 -0.500000 0.000000 -0.163663 -0.283473 0.944911 204 204 204 255
0.000000 -1.000000 0.000000 -0.163663 -0.283473 0.944911 204 204 204 255
0.000000 -0.900000 0.030000 0.000000 0.000000 1.000000 204 204 204 255
-0.649519 -0.375000 0.030000 0.000000 0.000000 1.000000 204 204 204 255
-0.779423 -0.450000 0.030000 0.000000 0.000000 1.000000 204 204 204 255
-0.866025 0.500000 0.000000 -0.327327 0.000000 0.944911 204 204 204 255
-0.779423 -0.450000 0.030000 -0.327327 0.000000 0.944911 204 204 204 255
-0.779423 0.450000 0.030000 -0.327327 0.000000 0.944911 204 204 204 255
0.000000 0.750000 0.030000 0.000000 -0.000000 1.000000 204 204 204 255
0.000000 0.900000 0.030000 0.000000 -0.000000 1.000000 204 204 204 255
-0.779423 0.450000 0.030000 0.000000 -0.000000 1.000000 204 204 204 255
0.000000 0.900000 0.030000 0.163663 0.283473 0.944911 204 204 204 255
0.866025 0.500000 0.000000 0.163663 0.283473 0.944911 204 204 204 255
0.000000 1.000000 0.000000 0.163663 0.283473 0.944911 204 204 204 255
0.000000 0.900000 0.030000 -0.000000 -0.000000 1.000000 204 204 204 255
0.649519 0.375000 0.030000 -0.000000 -0.000000 1.000000 204 204 204 255
0.779423 0.450000 0.030000 -0.000000 -0.000000 1.000000 204 204 204 255
0.866025 -0.500000 0.000000 0.327327 0.000000 0.944911 204 204 204 255
0.779423 0.450000 0.030000 0.327327 0.000000 0.944911 204 204 204 255
0.779423 -0.450000 0.030000 0.327327 0.000000 0.944911 204 204 204 255
-0.866025 0.500000 0.000000 -0.163663 0.283473 0.944911 204 204 204 255
0.000000 0.900000 0.030000 -0.163663 0.283473 0.944911 204 204 204 255
0.000000 1.000000 0.000000 -0.163663 0.283473 0.944911 204 204 204 255
0.866025 -0.500000 0.000000 0.163663 -0.283473 0.944911 204 204 204 255
0.000000 -0.900000 0.030000 0.163663 -0.283473 0.944911 204 204 204 255
0.000000 -1.000000 0.000000 0.163663 -0.283473 0.944911 204 204 204 255
0.649519 -0.375000 0.030000 -0.000000 0.000000 1.000000 204 204 204 255
0.000000 -0.750000 0.030000 -0.000000 0.000000 1.000000 204 204 204 255
0.779423 -0.450000 0.030000 -0.000000 0.000000 1.000000 204 204 204 255
-0.779423 -0.450000 0.030000 -0.163663 -0.283473 0.944911 204 204 204 255
0.000000 -0.750000 0.030000 0.000000 0.000000 1.000000 204 204 204 255
-0.866025 -0.500000 0.000000 -0.327327 0.000000 0.944911 204 204 204 255
-0.779423 -0.450000 0.030000 0.000000 0.000000 1.000000 204 204 204 255
-0.649519 0.375000 0.030000 0.000000 -0.000000 1.000000 204 204 204 255
-0.649519 -0.375000 0.030000 0.000000 0.000000 1.000000 204 204 204 255
0.779423 0.450000 0.030000 0.163663 0.283473 0.944911 204 204 204 255
0.000000 0.750000 0.030000 -0.000000 -0.000000 1.000000 204 204 204 255
0.866025 0.500000 0.000000 0.327327 0.000000 0.944911 204 204 204 255
-0.779423 0.450000 0.030000 -0.163663 0.283473 0.944911 204 204 204 255
0.779423 -0.450000 0.030000 0.163663 -0.283473 0.944911 204 204 204 255
0.000000 -0.900000 0.030000 -0.000000 0.000000 1.000000 204 204 204 255
0.779423 0.450000 0.030000 -0.000000 -0.000000 1.000000 204 204 204 255
0.649519 0.375000 0.030000 -0.000000 -0.000000 1.000000 204 204 204 255
0.000000 0.000000 0.792309 -0.187597 0.577354 -0.794651 255 255 255 255
-0.261803 0.190209 0.992310 -0.187597 0.577354 -0.794651 255 255 255 255
0.099998 0.307767 0.992310 -0.187597 0.577354 -0.794651 255 255 255 255
-0.261803 0.190209 0.992310 -0.607065 0.000000 -0.794652 255 255 255 255
0.000000 0.000000 0.792309 -0.607065 0.000000 -0.794652 255 255 255 255
-0.261803 -0.190209 0.992310 -0.607065 0.000000 -0.794652 255 255 255 255
0.000000 0.000000 0.792309 0.491122 0.356829 -0.794652 255 255 255 255
0.099998 0.307767 0.992310 0.491122 0.356829 -0.794652 255 255 255 255
0.323608 0.000000 0.992310 0.491122 0.356829 -0.794652 255 255 255 255
0.000000 0.000000 0.792309 0.491122 -0.356829 -0.794652 255 255 255 255
0.323608 0.000000 0.992310 0.491122 -0.356829 -0.794652 255 255 255 255
0.099998 -0.307767 0.992310 0.491122 -0.356829 -0.794652 255 255 255 255
0.000000 0.000000 0.792309 -0.187597 -0.577354 -0.794651 255 255 255 255
0.099998 -0.307767 0.992310 -0.187597 -0.577354 -0.794651 255 255 255 255
-0.261803 -0.190209 0.992310 -0.187597 -0.577354 -0.794651 255 255 255 255
-0.261803 0.190209 0.992310 -0.982246 0.000000 -0.187597 255 255 255 255
-0.261803 -0.190209 0.992310 -0.982246 0.000000 -0.187597 255 255 255 255
-0.323608 0.000000 1.315921 -0.982246 0.000000 -0.187597 255 255 255 255
0.099998 0.307767 0.992310 -0.303536 0.934171 -0.187589 255 255 255 255
-0.261803 0.190209 0.992310 -0.303536 0.934172 -0.187589 255 255 255 255
-0.099998 0.307767 1.315921 -0.303536 0.934171 -0.187589 255 255 255 255
0.323608 0.000000 0.992310 0.794649 0.577359 -0.187587 255 255 255 255
0.099998 0.307767 0.992310 0.794649 0.577359 -0.187587 255 255 255 255
0.261803 0.190209 1.315921 0.794649 0.577359 -0.187587 255 255 255 255
0.099998 -0.307767 0.992310 0.794649 -0.577359 -0.187587 255 255 255 255
0.323608 0.000000 0.992310 0.794649 -0.577359 -0.187587 255 255 255 255
0.261803 -0.190209 1.315921 0.794649 -0.577359 -0.187587 255 255 255 255
-0.261803 -0.190209 0.992310 -0.303536 -0.934172 -0.187589 255 255 255 255
0.099998 -0.307767 0.992310 -0.303536 -0.934171 -0.187589 255 255 255 255
-0.099998 -0.307767 1.315921 -0.303536 -0.934171 -0.187589 255 255 255 255
-0.261803 0.190209 0.992310 -0.794649 0.577359 0.187587 255 255 255 255
-0.323608 0.000000 1.315921 -0.794649 0.577359 0.187587 255 255 255 255
-0.099998 0.307767 1.315921 -0.794649 0.577359 0.187587 255 255 255 255
0.099998 0.307767 0.992310 0.303536 0.934171 0.187589 255 255 255 255
-0.099998 0.307767 1.315921 0.303536 0.934171 0.187589 255 255 255 255
0.261803 0.190209 1.315921 0.303536 0.934172 0.187589 255 255 255 255
0.323608 0.000000 0.992310 0.982246 0.000000 0.187597 255 255 255 255
0.261803 0.190209 1.315921 0.982246 0.000000 0.187597 255 255 255 255
0.261803 -0.190209 1.315921 0.982246 0.000000 0.187597 255 255 255 255
0.099998 -0.307767 0.992310 0.303536 -0.934171 0.187589 255 255 255 255
0.261803 -0.190209 1.315921 0.303536 -0.934172 0.187589 255 255 255 255
-0.099998 -0.307767 1.315921 0.303536 -0.934171 0.187589 255 255 255 255
-0.261803 -0.190209 0.992310 -0.794649 -0.577359 0.187587 255 255 255 255
-0.099998 -0.307767 1.315921 -0.794649 -0.577359 0.187587 255 255 255 255
-0.323608 0.000000 1.315921 -0.794649 -0.577359 0.187587 255 255 255 255
-0.099998 0.307767 1.315921 -0.491122 0.356829 0.794652 255 255 255 255
-0.323608 0.000000 1.315921 -0.491122 0.356829 0.794652 255 255 255 255
0.000000 0.000000 1.515921 -0.491122 0.356829 0.794652 255 255 255 255
0.261803 0.190209 1.315921 0.187597 0.577353 0.794651 255 255 255 255
-0.099998 0.307767 1.315921 0.187597 0.577353 0.794651 255 255 255 255
0.000000 0.000000 1.515921 0.187597 0.577353 0.794651 255 255 255 255
0.261803 -0.190209 1.315921 0.607064 0.000000 0.794653 255 255 255 255
0.261803 0.190209 1.315921 0.607064 0.000000 0.794653 255 255 255 255
0.000000 0.000000 1.515921 0.607064 0.000000 0.794653 255 255 255 255
-0.099998 -0.307767 1.315921 0.187597 -0.577353 0.794651 255 255 255 255
0.261803 -0.190209 1.315921 0.187597 -0.577353 0.794651 255 255 255 255
0.000000 0.000000 1.515921 0.187596 -0.577353 0.794651 255 255 255 255
-0.323608 0.000000 1.315921 -0.491122 -0.356829 0.794652 255 255 255 255
-0.099998 -0.307767 1.315921 -0.491122 -0.356829 0.794652 255 255 255 255
0.000000 0.000000 1.515921 -0.491122 -0.356829 0.794652 255 255 255 255
-0.354321 -0.262583 1.079034 0.493415 0.712321 0.499139 127 127 127 255
-0.329679 -0.190340 0.951576 0.494659 0.711583 0.498961 127 127 127 255
-0.395957 -0.228606 1.071654 0.493015 0.712558 0.499196 127 127 127 255
0.050244 -0.438142 1.079034 -0.370181 0.783471 0.499139 127 127 127 255
-0.000000 -0.380680 0.951576 -0.368920 0.784179 0.498961 127 127 127 255
-0.000000 -0.457211 1.071654 -0.370587 0.783243 0.499196 127 127 127 255
0.404564 -0.175559 1.079034 -0.863596 0.071149 0.499140 127 127 127 255
0.329679 -0.190340 0.951576 -0.863578 0.072596 0.498962 127 127 127 255
0.395957 -0.228606 1.071654 -0.863601 0.070684 0.499197 127 127 127 255
0.354321 0.262583 1.079034 -0.493415 -0.712321 0.499140 127 127 127 255
0.329679 0.190340 0.951576 -0.494659 -0.711583 0.498962 127 127 127 255
0.395957 0.228605 1.071654 -0.493014 -0.712558 0.499197 127 127 127 255
-0.050244 0.438142 1.079034 0.370181 -0.783471 0.499139 127 127 127 255
0.000000 0.380680 0.951576 0.368920 -0.784178 0.498961 127 127 127 255
0.000000 0.457211 1.071654 0.370587 -0.783242 0.499197 127 127 127 255
-0.404564 0.175559 1.079034 0.863596 -0.071149 0.499140 127 127 127 255
-0.329679 0.190340 0.951576 0.863578 -0.072596 0.498962 127 127 127 255
-0.395957 0.228605 1.071654 0.863601 -0.070683 0.499197 127 127 127 255
-0.333413 0.145281 0.951438 0.756129 -0.052981 0.652274 127 127 127 255
-0.303389 0.175161 0.919061 0.756804 -0.054656 0.651353 127 127 127 255
-0.329679 0.190340 0.951576 0.760914 -0.065036 0.645585 127 127 127 255
0.040889 -0.361385 0.951438 -0.332182 0.681317 0.652274 127 127 127 255
-0.000000 -0.350323 0.919061 -0.331069 0.682739 0.651353 127 127 127 255
-0.000000 -0.380680 0.951576 -0.324134 0.691489 0.645585 127 127 127 255
0.292524 0.216103 0.951438 -0.423947 -0.628336 0.652275 127 127 127 255
0.303389 0.175161 0.919061 -0.425735 -0.628083 0.651354 127 127 127 255
0.329679 0.190340 0.951576 -0.436780 -0.626452 0.645586 127 127 127 255
-0.040889 0.361384 0.951438 0.332182 -0.681318 0.652274 127 127 127 255
0.000000 0.350323 0.919061 0.331069 -0.682739 0.651353 127 127 127 255
0.000000 0.380680 0.951576 0.324134 -0.691489 0.645585 127 127 127 255
-0.292524 -0.216103 0.951438 0.423947 0.628336 0.652274 127 127 127 255
-0.303389 -0.175162 0.919061 0.425735 0.628083 0.651354 127 127 127 255
-0.329679 -0.190340 0.951576 0.436780 0.626452 0.645585 127 127 127 255
0.333413 -0.145281 0.951438 -0.756130 0.052981 0.652274 127 127 127 255
0.303389 -0.175162 0.919061 -0.756804 0.054656 0.651353 127 127 127 255
0.329679 -0.190340 0.951576 -0.760914 0.065036 0.645585 127 127 127 255
0.040889 -0.361385 0.951438 -0.380693 0.659380 0.648299 127 127 127 255
0.271476 -0.203258 0.926014 -0.380693 0.659380 0.648298 127 127 127 255
0.040288 -0.336735 0.926014 -0.380693 0.659379 0.648299 127 127 127 255
-0.271476 -0.203258 0.926014 0.380693 0.659379 0.648300 127 127 127 255
-0.040889 -0.361385 0.951438 0.380693 0.659379 0.648299 127 127 127 255
-0.040288 -0.336735 0.926014 0.380693 0.659379 0.648299 127 127 127 255
-0.333413 0.145281 0.951438 0.761385 -0.000000 0.648299 127 127 127 255
-0.311765 -0.133477 0.926014 0.761387 0.000000 0.648298 127 127 127 255
-0.311765 0.133476 0.926014 0.761385 -0.000000 0.648300 127 127 127 255
-0.271476 0.203258 0.926014 0.380693 -0.659380 0.648299 127 127 127 255
-0.040889 0.361384 0.951438 0.380693 -0.659379 0.648299 127 127 127 255
-0.292523 0.216103 0.951438 0.380693 -0.659380 0.648299 127 127 127 255
0.040889 0.361384 0.951438 -0.380693 -0.659379 0.648299 127 127 127 255
0.271476 0.203258 0.926014 -0.380693 -0.659378 0.648300 127 127 127 255
0.292524 0.216103 0.951438 -0.380693 -0.659378 0.648300 127 127 127 255
0.311765 0.133476 0.926014 -0.761386 0.000000 0.648299 127 127 127 255
0.333413 -0.145281 0.951438 -0.761386 0.000001 0.648299 127 127 127 255
0.333413 0.145281 0.951438 -0.761386 0.000000 0.648298 127 127 127 255
-0.311765 0.133476 0.926014 0.895822 -0.106878 0.431370 127 127 127 255
-0.202399 0.116855 0.694776 0.896957 -0.097504 0.431233 127 127 127 255
-0.303389 0.175161 0.919061 0.895679 -0.108016 0.431384 127 127 127 255
0.040288 -0.336735 0.926014 -0.355352 0.829244 0.431370 127 127 127 255
-0.000000 -0.233710 0.694777 -0.364038 0.825539 0.431232 127 127 127 255
-0.000000 -0.350323 0.919061 -0.354294 0.829689 0.431384 127 127 127 255
0.271476 0.203258 0.926014 -0.540470 -0.722365 0.431370 127 127 127 255
0.202399 0.116855 0.694776 -0.532920 -0.728035 0.431233 127 127 127 255
0.303389 0.175161 0.919061 -0.541385 -0.721672 0.431384 127 127 127 255
-0.040288 0.336734 0.926014 0.355352 -0.829244 0.431370 127 127 127 255
0.000000 0.233710 0.694776 0.364037 -0.825539 0.431233 127 127 127 255
0.000000 0.350323 0.919061 0.354294 -0.829689 0.431384 127 127 127 255
-0.271476 -0.203258 0.926014 0.540471 0.722365 0.431370 127 127 127 255
-0.202399 -0.116855 0.694777 0.532920 0.728035 0.431232 127 127 127 255
-0.303389 -0.175162 0.919061 0.541385 0.721672 0.431384 127 127 127 255
0.311765 -0.133477 0.926014 -0.895822 0.106878 0.431370 127 127 127 255
0.202399 -0.116855 0.694777 -0.896957 0.097505 0.431233 127 127 127 255
0.303389 -0.175162 0.919061 -0.895679 0.108017 0.431384 127 127 127 255
-0.213455 0.082817 0.710207 -0.531834 0.509981 0.676071 127 127 127 255
-0.125749 0.072601 0.786908 -0.465876 0.634075 0.617178 127 127 127 255
-0.202399 0.116855 0.694776 -0.542284 0.486644 0.684913 127 127 127 255
0.035006 -0.226267 0.710207 -0.175738 -0.715572 0.676072 127 127 127 255
-0.000000 -0.145202 0.786908 -0.316187 -0.720498 0.617178 127 127 127 255
-0.000000 -0.233710 0.694777 -0.150303 -0.712954 0.684913 127 127 127 255
0.178450 0.143449 0.710207 0.707573 0.205592 0.676072 127 127 127 255
0.125749 0.072601 0.786908 0.782063 0.086423 0.617178 127 127 127 255
0.202399 0.116855 0.694776 0.692588 0.226310 0.684913 127 127 127 255
-0.035006 0.226266 0.710207 0.175739 0.715572 0.676071 127 127 127 255
0.000000 0.145202 0.786908 0.316187 0.720498 0.617178 127 127 127 255
0.000000 0.233710 0.694776 0.150303 0.712954 0.684913 127 127 127 255
-0.178450 -0.143449 0.710207 -0.707573 -0.205591 0.676072 127 127 127 255
-0.125749 -0.072601 0.786908 -0.782063 -0.086422 0.617178 127 127 127 255
-0.202399 -0.116855 0.694777 -0.692588 -0.226310 0.684913 127 127 127 255
0.213455 -0.082817 0.710207 0.531834 -0.509979 0.676072 127 127 127 255
0.125749 -0.072601 0.786908 0.465876 -0.634075 0.617178 127 127 127 255
0.202399 -0.116855 0.694777 0.542285 -0.486642 0.684914 127 127 127 255
-0.035006 -0.226267 0.710207 0.175738 -0.715572 0.676072 127 127 127 255
-0.000000 -0.145202 0.786908 0.316186 -0.720498 0.617178 127 127 127 255
-0.025972 -0.148273 0.798332 0.349245 -0.719169 0.600686 127 127 127 255
-0.040288 -0.336735 0.926014 0.355352 0.829244 0.431369 127 127 127 255
-0.000000 -0.233710 0.694777 0.364038 0.825539 0.431232 127 127 127 255
-0.035006 -0.226267 0.710207 0.365483 0.824914 0.431206 127 127 127 255
-0.040889 -0.361385 0.951438 0.332182 0.681317 0.652274 127 127 127 255
-0.000000 -0.350323 0.919061 0.331069 0.682739 0.651353 127 127 127 255
-0.040288 -0.336735 0.926014 0.340055 0.671137 0.658739 127 127 127 255
-0.050244 -0.438142 1.079034 0.370181 0.783471 0.499139 127 127 127 255
-0.000000 -0.380680 0.951576 0.368920 0.784179 0.498961 127 127 127 255
-0.040889 -0.361385 0.951438 0.368486 0.784422 0.498899 127 127 127 255
-0.213455 -0.082817 0.710207 -0.531834 -0.509979 0.676072 127 127 127 255
-0.125749 -0.072601 0.786908 -0.465875 -0.634075 0.617178 127 127 127 255
-0.141394 -0.051644 0.798332 -0.448195 -0.662041 0.600685 127 127 127 255
-0.311765 -0.133477 0.926014 0.895822 0.106881 0.431370 127 127 127 255
-0.202399 -0.116855 0.694777 0.896957 0.097505 0.431233 127 127 127 255
-0.213455 -0.082817 0.710207 0.897138 0.095940 0.431206 127 127 127 255
-0.333413 -0.145281 0.951438 0.756129 0.052982 0.652274 127 127 127 255
-0.303389 -0.175162 0.919061 0.756803 0.054657 0.651353 127 127 127 255
-0.311765 -0.133477 0.926014 0.751250 0.041075 0.658738 127 127 127 255
-0.404564 -0.175559 1.079034 0.863596 0.071150 0.499139 127 127 127 255
-0.329679 -0.190340 0.951576 0.863578 0.072595 0.498962 127 127 127 255
-0.333413 -0.145281 0.951438 0.863572 0.073093 0.498900 127 127 127 255
-0.178449 0.143449 0.710207 -0.707573 0.205592 0.676072 127 127 127 255
-0.125749 0.072601 0.786908 -0.782063 0.086424 0.617178 127 127 127 255
-0.115422 0.096629 0.798332 -0.797441 0.057130 0.600686 127 127 127 255
-0.271476 0.203258 0.926014 0.540471 -0.722365 0.431370 127 127 127 255
-0.202399 0.116855 0.694776 0.532919 -0.728035 0.431233 127 127 127 255
-0.178449 0.143449 0.710207 0.531655 -0.728974 0.431206 127 127 127 255
-0.292523 0.216103 0.951438 0.423948 -0.628336 0.652274 127 127 127 255
-0.303389 0.175161 0.919061 0.425736 -0.628083 0.651353 127 127 127 255
-0.271476 0.203258 0.926014 0.411196 -0.630064 0.658739 127 127 127 255
-0.354321 0.262583 1.079034 0.493415 -0.712321 0.499140 127 127 127 255
-0.329679 0.190340 0.951576 0.494659 -0.711583 0.498962 127 127 127 255
-0.292523 0.216103 0.951438 0.495086 -0.711328 0.498900 127 127 127 255
0.035006 0.226266 0.710207 -0.175739 0.715572 0.676071 127 127 127 255
0.000000 0.145202 0.786908 -0.316187 0.720498 0.617178 127 127 127 255
0.025972 0.148273 0.798332 -0.349246 0.719169 0.600685 127 127 127 255
0.040288 0.336734 0.926014 -0.355352 -0.829244 0.431370 127 127 127 255
0.000000 0.233710 0.694776 -0.364037 -0.825539 0.431233 127 127 127 255
0.035006 0.226266 0.710207 -0.365483 -0.824914 0.431206 127 127 127 255
0.040889 0.361384 0.951438 -0.332182 -0.681317 0.652274 127 127 127 255
0.000000 0.350323 0.919061 -0.331069 -0.682739 0.651353 127 127 127 255
0.040288 0.336734 0.926014 -0.340055 -0.671137 0.658739 127 127 127 255
0.050244 0.438142 1.079034 -0.370181 -0.783470 0.499139 127 127 127 255
0.000000 0.380680 0.951576 -0.368920 -0.784178 0.498962 127 127 127 255
0.040889 0.361384 0.951438 -0.368486 -0.784421 0.498900 127 127 127 255
0.213455 0.082817 0.710207 0.531834 0.509981 0.676072 127 127 127 255
0.125749 0.072601 0.786908 0.465875 0.634076 0.617178 127 127 127 255
0.141394 0.051643 0.798332 0.448195 0.662042 0.600685 127 127 127 255
0.311765 0.133476 0.926014 -0.895822 -0.106880 0.431370 127 127 127 255
0.202399 0.116855 0.694776 -0.896957 -0.097503 0.431233 127 127 127 255
0.213455 0.082817 0.710207 -0.897138 -0.095939 0.431206 127 127 127 255
0.333413 0.145281 0.951438 -0.756129 -0.052982 0.652274 127 127 127 255
0.303389 0.175161 0.919061 -0.756803 -0.054657 0.651354 127 127 127 255
0.311765 0.133476 0.926014 -0.751250 -0.041074 0.658739 127 127 127 255
0.404564 0.175559 1.079034 -0.863596 -0.071150 0.499140 127 127 127 255
0.329679 0.190340 0.951576 -0.863578 -0.072595 0.498962 127 127 127 255
0.333413 0.145281 0.951438 -0.863572 -0.073093 0.498900 127 127 127 255
0.178449 -0.143449 0.710207 0.707572 -0.205592 0.676072 127 127 127 255
0.125749 -0.072601 0.786908 0.782063 -0.086422 0.617178 127 127 127 255
0.115422 -0.096630 0.798332 0.797442 -0.057127 0.600685 127 127 127 255
0.271476 -0.203258 0.926014 -0.540471 0.722365 0.431370 127 127 127 255
0.202399 -0.116855 0.694777 -0.532919 0.728035 0.431233 127 127 127 255
0.178449 -0.143449 0.710207 -0.531655 0.728975 0.431206 127 127 127 255
0.292523 -0.216103 0.951438 -0.423948 0.628337 0.652274 127 127 127 255
0.303389 -0.175162 0.919061 -0.425736 0.628083 0.651353 127 127 127 255
0.271476 -0.203258 0.926014 -0.411196 0.630065 0.658738 127 127 127 255
0.354321 -0.262583 1.079034 -0.493415 0.712321 0.499139 127 127 127 255
0.329679 -0.190340 0.951576 -0.494659 0.711583 0.498961 127 127 127 255
0.292523 -0.216103 0.951438 -0.495087 0.711329 0.498900 127 127 127 255
-0.292524 -0.216103 0.951438 0.495087 0.711329 0.498900 127 127 127 255
0.040889 -0.361385 0.951438 -0.368486 0.784422 0.498899 127 127 127 255
0.333413 -0.145281 0.951438 -0.863572 0.073093 0.498900 127 127 127 255
0.292524 0.216103 0.951438 -0.495086 -0.711328 0.498900 127 127 127 255
-0.040889 0.361384 0.951438 0.368486 -0.784421 0.498900 127 127 127 255
-0.333413 0.145281 0.951438 0.863572 -0.073093 0.498900 127 127 127 255
-0.311765 0.133476 0.926014 0.751250 -0.041072 0.658739 127 127 127 255
0.040288 -0.336735 0.926014 -0.340055 0.671137 0.658739 127 127 127 255
0.271476 0.203258 0.926014 -0.411194 -0.630065 0.658740 127 127 127 255
-0.040288 0.336734 0.926014 0.340055 -0.671137 0.658739 127 127 127 255
-0.271476 -0.203258 0.926014 0.411194 0.630065 0.658740 127 127 127 255
0.311765 -0.133477 0.926014 -0.751250 0.041073 0.658739 127 127 127 255
0.292523 -0.216103 0.951438 -0.380693 0.659380 0.648298 127 127 127 255
-0.292524 -0.216103 0.951438 0.380692 0.659379 0.648300 127 127 127 255
-0.333413 -0.145281 0.951438 0.761387 0.000000 0.648298 127 127 127 255
-0.040288 0.336734 0.926014 0.380693 -0.659379 0.648299 127 127 127 255
0.040288 0.336734 0.926014 -0.380693 -0.659379 0.648299 127 127 127 255
0.311765 -0.133477 0.926014 -0.761386 0.000001 0.648299 127 127 127 255
-0.213455 0.082817 0.710207 0.897138 -0.095939 0.431206 127 127 127 255
0.035006 -0.226267 0.710207 -0.365483 0.824914 0.431206 127 127 127 255
0.178450 0.143449 0.710207 -0.531656 -0.728974 0.431206 127 127 127 255
-0.035006 0.226266 0.710207 0.365483 -0.824914 0.431206 127 127 127 255
-0.178450 -0.143449 0.710207 0.531656 0.728974 0.431206 127 127 127 255
0.213455 -0.082817 0.710207 -0.897138 0.095941 0.431206 127 127 127 255
-0.141394 0.051643 0.798332 -0.448196 0.662040 0.600685 127 127 127 255
0.025972 -0.148273 0.798332 -0.349246 -0.719169 0.600686 127 127 127 255
0.115422 0.096629 0.798332 0.797442 0.057128 0.600685 127 127 127 255
-0.025972 0.148273 0.798332 0.349246 0.719169 0.600685 127 127 127 255
-0.115422 -0.096630 0.798332 -0.797442 -0.057127 0.600686 127 127 127 255
0.141394 -0.051644 0.798332 0.448195 -0.662041 0.600685 127 127 127 255
-0.000000 -0.233710 0.694777 0.150303 -0.712954 0.684913 127 127 127 255
-0.000000 -0.350323 0.919061 0.354294 0.829689 0.431384 127 127 127 255
-0.000000 -0.380680 0.951576 0.324134 0.691489 0.645585 127 127 127 255
-0.000000 -0.457211 1.071654 0.370587 0.783243 0.499196 127 127 127 255
-0.202399 -0.116855 0.694777 -0.542285 -0.486642 0.684914 127 127 127 255
-0.303389 -0.175162 0.919061 0.895678 0.108019 0.431384 127 127 127 255
-0.329679 -0.190340 0.951576 0.760913 0.065036 0.645586 127 127 127 255
-0.395957 -0.228606 1.071654 0.863601 0.070684 0.499196 127 127 127 255
-0.202399 0.116855 0.694776 -0.692588 0.226311 0.684913 127 127 127 255
-0.303389 0.175161 0.919061 0.541385 -0.721671 0.431384 127 127 127 255
-0.329679 0.190340 0.951576 0.436780 -0.626452 0.645585 127 127 127 255
-0.395957 0.228605 1.071654 0.493014 -0.712559 0.499197 127 127 127 255
0.000000 0.233710 0.694776 -0.150303 0.712954 0.684913 127 127 127 255
0.000000 0.350323 0.919061 -0.354294 -0.829689 0.431384 127 127 127 255
0.000000 0.380680 0.951576 -0.324134 -0.691489 0.645585 127 127 127 255
0.000000 0.457211 1.071654 -0.370587 -0.783242 0.499197 127 127 127 255
0.202399 0.116855 0.694776 0.542284 0.486644 0.684913 127 127 127 255
0.303389 0.175161 0.919061 -0.895678 -0.108019 0.431384 127 127 127 255
0.329679 0.190340 0.951576 -0.760913 -0.065036 0.645586 127 127 127 255
0.395957 0.228605 1.071654 -0.863601 -0.070684 0.499197 127 127 127 255
0.202399 -0.116855 0.694777 0.692587 -0.226310 0.684913 127 127 127 255
0.303389 -0.175162 0.919061 -0.541385 0.721672 0.431384 127 127 127 255
0.329679 -0.190340 0.951576 -0.436780 0.626453 0.645585 127 127 127 255
0.395957 -0.228606 1.071654 -0.493014 0.712559 0.499196 127 127 127 255
-0.048955 -0.152432 -0.025469 -0.796914 -0.583147 0.157693 255 255 255 255
0.000000 0.000000 0.785622 -0.796914 -0.583147 0.157693 255 255 255 255
-0.160100 -0.000545 -0.025469 -0.796914 -0.583147 0.157693 255 255 255 255
-0.160100 -0.000545 -0.025469 -0.800866 0.577708 0.157693 255 255 255 255
0.000000 0.000000 0.785622 -0.800866 0.577708 0.157693 255 255 255 255
-0.049992 0.152096 -0.025469 -0.800866 0.577708 0.157693 255 255 255 255
-0.049992 0.152096 -0.025469 0.301952 0.940190 0.157693 255 255 255 255
0.000000 0.000000 0.785622 0.301952 0.940190 0.157693 255 255 255 255
0.129203 0.094545 -0.025469 0.301952 0.940190 0.157693 255 255 255 255
0.129203 0.094545 -0.025469 0.987482 0.003362 0.157693 255 255 255 255
0.000000 0.000000 0.785622 0.987482 0.003362 0.157693 255 255 255 255
0.129844 -0.093663 -0.025469 0.987482 0.003362 0.157693 255 255 255 255
0.129844 -0.093663 -0.025469 0.308346 -0.938113 0.157693 255 255 255 255
0.000000 0.000000 0.785622 0.308346 -0.938113 0.157693 255 255 255 255
-0.048955 -0.152432 -0.025469 0.308346 -0.938113 0.157693 255 255 255 255
-0.649519 -0.375000 0.030000 -0.500000 -0.866025 0.000000 64 1 64 255
0.000000 -0.750000 0.060000 -0.500000 -0.866025 0.000000 64 0 0 255
-0.649519 -0.375000 0.060000 -0.500000 -0.866025 0.000000 64 0 64 255
0.649519 -0.375000 0.060000 0.500000 -0.866025 0.000000 64 64 0 255
0.000000 -0.750000 0.030000 0.500000 -0.866025 0.000000 64 0 0 255
0.649519 -0.375000 0.030000 0.500000 -0.866025 0.000000 64 64 0 255
-0.649519 0.375000 0.030000 -0.500000 0.866025 -0.000000 0 0 64 255
-0.000000 0.750000 0.060000 -0.500000 0.866025 -0.000001 1 64 64 255
0.000000 0.750000 0.030000 -0.500000 0.866025 -0.000001 3 64 64 255
0.649519 0.375000 0.030000 0.500000 0.866025 0.000000 0 64 0 255
-0.000000 0.750000 0.060000 0.500000 0.866025 0.000001 1 64 64 255
0.649519 0.375000 0.060000 0.500000 0.866025 0.000000 0 64 0 255
-0.649519 -0.375000 0.060000 -1.000000 -0.000000 0.000000 64 0 64 255
-0.649519 0.375000 0.030000 -1.000000 -0.000000 0.000000 0 0 64 255
-0.649519 -0.375000 0.030000 -1.000000 -0.000000 0.000000 64 1 64 255
0.649519 0.375000 0.060000 1.000000 0.000000 0.000000 0 64 0 255
0.649519 -0.375000 0.030000 1.000000 0.000000 0.000000 64 64 0 255
0.649519 0.375000 0.030000 1.000000 0.000000 0.000000 0 64 0 255
0.649519 0.375000 0.060000 0.000000 0.000000 1.000000 0 64 0 255
-0.649519 0.375000 0.060000 0.000000 0.000000 1.000000 0 0 64 255
0.000000 -0.750000 0.060000 0.000000 0.000000 1.000000 64 0 0 255
0.000000 -0.750000 0.030000 -0.500000 -0.866025 0.000000 64 0 0 255
0.000000 -0.750000 0.060000 0.500000 -0.866025 0.000000 64 0 0 255
-0.649519 0.375000 0.060000 -0.500000 0.866025 0.000000 0 0 64 255
0.000000 0.750000 0.030000 0.500000 0.866025 0.000001 3 64 64 255
-0.649519 0.375000 0.060000 -1.000000 -0.000000 0.000000 0 0 64 255
0.649519 -0.375000 0.060000 1.000000 0.000000 0.000000 64 64 0 255
0.649519 -0.375000 0.060000 0.000000 0.000000 1.000000 64 64 0 255
-0.000000 0.750000 0.060000 0.000000 0.000000 1.000000 1 64 64 255
-0.649519 -0.375000 0.060000 0.000000 0.000000 1.000000 64 0 64 255
3 0 1 2
3 3 4 5
3 6 7 8
3 9 10 11
3 12 13 14
3 15 16 17
3 18 19 20
3 21 22 23
3 24 25 26
3 27 28 29
3 0 30 1
3 3 31 4
3 6 32 7
3 11 33 34
3 33 35 34
3 34 9 11
3 12 36 13
3 15 37 16
3 18 38 19
3 21 39 22
3 24 40 25
3 28 41 29
3 29 42 27
3 42 43 27
3 44 45 46
3 47 48 49
3 50 51 52
3 53 54 55
3 56 57 58
3 59 60 61
3 62 63 64
3 65 66 67
3 68 69 70
3 71 72 73
3 74 75 76
3 77 78 79
3 80 81 82
3 83 84 85
3 86 87 88
3 89 90 91
3 92 93 94
3 95 96 97
3 98 99 100
3 101 102 103
3 104 105 106
3 107 108 109
3 110 111 112
3 113 114 115
3 116 117 118
3 119 120 121
3 122 123 124
3 125 126 127
3 128 129 130
3 131 132 133
3 134 135 136
3 137 138 139
3 140 141 142
3 143 144 145
3 146 147 148
3 149 150 151
3 152 153 154
3 155 156 157
3 158 159 160
3 161 162 163
3 164 165 166
3 167 168 169
3 170 171 172
3 173 174 175
3 176 177 178
3 179 180 181
3 182 183 184
3 185 186 187
3 188 189 190
3 191 192 193
3 194 195 196
3 197 198 199
3 200 201 202
3 203 204 205
3 206 207 208
3 209 210 211
3 212 213 214
3 215 216 217
3 218 219 220
3 221 222 223
3 224 225 226
3 227 228 229
3 230 231 232
3 233 234 235
3 236 237 238
3 239 240 241
3 242 243 244
3 245 246 247
3 248 249 250
3 251 252 253
3 254 255 256
3 257 258 259
3 260 261 262
3 263 264 265
3 104 266 105
3 107 267 108
3 110 268 111
3 113 269 114
3 116 270 117
3 119 271 120
3 122 272 123
3 125 273 126
3 128 274 129
3 131 275 132
3 134 276 135
3 137 277 138
3 140 278 141
3 143 279 144
3 146 280 147
3 149 281 150
3 152 282 153
3 155 283 156
3 158 284 159
3 161 285 162
3 164 286 165
3 167 287 168
3 170 288 171
3 173 289 174
3 176 290 177
3 179 291 180
3 182 292 183
3 185 293 186
3 188 294 189
3 191 295 192
3 194 296 195
3 197 297 198
3 200 298 201
3 203 299 204
3 206 300 207
3 209 301 210
3 212 302 213
3 215 303 216
3 218 304 219
3 221 305 222
3 224 306 225
3 227 307 228
3 230 308 231
3 233 309 234
3 236 310 237
3 239 311 240
3 242 312 243
3 245 313 246
3 248 314 249
3 251 315 252
3 254 316 255
3 257 317 258
3 260 318 261
3 263 319 264
3 320 321 322
3 323 324 325
3 326 327 328
3 329 330 331
3 332 333 334
3 335 336 337
3 338 339 340
3 341 342 343
3 344 345 346
3 347 348 349
3 350 351 352
3 353 354 355
3 335 356 336
3 338 357 339
3 341 358 342
3 344 359 345
3 347 360 348
3 350 361 351
3 355 362 353
3 353 363 354
3 354 364 355
