ply
format ascii 1.0
comment Created by Blender 3.6.0 - www.blender.org
element vertex 519
property float x
property float y
property float z
property float nx
property float ny
property float nz
property uchar red
property uchar green
property uchar blue
property uchar alpha
element face 173
property list uchar uint vertex_indices
end_header
0.000000 -0.900000 0.030000 -0.163663 -0.283473 0.944911 112 115 127 255
-0.866025 -0.500000 0.000000 -0.163663 -0.283473 0.944911 112 115 127 255
0.000000 -1.000000 0.000000 -0.163663 -0.283473 0.944911 112 115 127 255
0.000000 -0.900000 0.030000 0.000000 0.000000 1.000000 112 115 127 255
-0.649519 -0.375000 0.030000 0.000000 0.000000 1.000000 112 115 127 255
-0.779423 -0.450000 0.030000 0.000000 0.000000 1.000000 112 115 127 255
-0.866025 0.500000 0.000000 -0.327327 0.000000 0.944911 112 115 127 255
-0.779423 -0.450000 0.030000 -0.327327 0.000000 0.944911 112 115 127 255
-0.779423 0.450000 0.030000 -0.327327 0.000000 0.944911 112 115 127 255
0.000000 0.750000 0.030000 0.000000 -0.000000 1.000000 112 115 127 255
0.000000 0.900000 0.030000 0.000000 -0.000000 1.000000 112 115 127 255
-0.779423 0.450000 0.030000 0.000000 -0.000000 1.000000 112 115 127 255
0.000000 0.900000 0.030000 0.163663 0.283473 0.944911 112 115 127 255
0.866025 0.500000 0.000000 0.163663 0.283473 0.944911 112 115 127 255
0.000000 1.000000 0.000000 0.163663 0.283473 0.944911 112 115 127 255
0.000000 0.900000 0.030000 -0.000000 -0.000000 1.000000 112 115 127 255
0.649519 0.375000 0.030000 -0.000000 -0.000000 1.000000 112 115 127 255
0.779423 0.450000 0.030000 -0.000000 -0.000000 1.000000 112 115 127 255
0.866025 -0.500000 0.000000 0.327327 0.000000 0.944911 112 115 127 255
0.779423 0.450000 0.030000 0.327327 0.000000 0.944911 112 115 127 255
0.779423 -0.450000 0.030000 0.327327 0.000000 0.944911 112 115 127 255
-0.866025 0.500000 0.000000 -0.163663 0.283473 0.944911 112 115 127 255
0.000000 0.900000 0.030000 -0.163663 0.283473 0.944911 112 115 127 255
0.000000 1.000000 0.000000 -0.163663 0.283473 0.944911 112 115 127 255
0.866025 -0.500000 0.000000 0.163663 -0.283473 0.944911 112 115 127 255
0.000000 -0.900000 0.030000 0.163663 -0.283473 0.944911 112 115 127 255
0.000000 -1.000000 0.000000 0.163663 -0.283473 0.944911 112 115 127 255
0.649519 -0.375000 0.030000 -0.000000 0.000000 1.000000 112 115 127 255
0.000000 -0.750000 0.030000 -0.000000 0.000000 1.000000 112 115 127 255
0.779423 -0.450000 0.030000 -0.000000 0.000000 1.000000 112 115 127 255
0.000000 -0.900000 0.030000 -0.163663 -0.283473 0.944911 112 115 127 255
-0.779423 -0.450000 0.030000 -0.163663 -0.283473 0.944911 112 115 127 255
-0.866025 -0.500000 0.000000 -0.163663 -0.283473 0.944911 112 115 127 255
0.000000 -0.900000 0.030000 0.000000 0.000000 1.000000 112 115 127 255
0.000000 -0.750000 0.030000 0.000000 0.000000 1.000000 112 115 127 255
-0.649519 -0.375000 0.030000 0.000000 0.000000 1.000000 112 115 127 255
-0.866025 0.500000 0.000000 -0.327327 0.000000 0.944911 112 115 127 255
-0.866025 -0.500000 0.000000 -0.327327 0.000000 0.944911 112 115 127 255
-0.779423 -0.450000 0.030000 -0.327327 0.000000 0.944911 112 115 127 255
-0.779423 0.450000 0.030000 0.000000 0.000000 1.000000 112 115 127 255
-0.779423 -0.450000 0.030000 0.000000 0.000000 1.000000 112 115 127 255
-0.649519 0.375000 0.030000 0.000000 0.000000 1.000000 112 115 127 255
-0.779423 -0.450000 0.030000 0.000000 0.000000 1.000000 112 115 127 255
-0.649519 -0.375000 0.030000 0.000000 0.000000 1.000000 112 115 127 255
-0.649519 0.375000 0.030000 0.000000 0.000000 1.000000 112 115 127 255
-0.649519 0.375000 0.030000 0.000000 -0.000000 1.000000 112 115 127 255
0.000000 0.750000 0.030000 0.000000 -0.000000 1.000000 112 115 127 255
-0.779423 0.450000 0.030000 0.000000 -0.000000 1.000000 112 115 127 255
0.000000 0.900000 0.030000 0.163663 0.283473 0.944911 112 115 127 255
0.779423 0.450000 0.030000 0.163663 0.283473 0.944911 112 115 127 255
0.866025 0.500000 0.000000 0.163663 0.283473 0.944911 112 115 127 255
0.000000 0.900000 0.030000 -0.000000 -0.000000 1.000000 112 115 127 255
0.000000 0.750000 0.030000 -0.000000 -0.000000 1.000000 112 115 127 255
0.649519 0.375000 0.030000 -0.000000 -0.000000 1.000000 112 115 127 255
0.866025 -0.500000 0.000000 0.327327 0.000000 0.944911 112 115 127 255
0.866025 0.500000 0.000000 0.327327 0.000000 0.944911 112 115 127 255
0.779423 0.450000 0.030000 0.327327 0.000000 0.944911 112 115 127 255
-0.866025 0.500000 0.000000 -0.163663 0.283473 0.944911 112 115 127 255
-0.779423 0.450000 0.030000 -0.163663 0.283473 0.944911 112 115 127 255
0.000000 0.900000 0.030000 -0.163663 0.283473 0.944911 112 115 127 255
0.866025 -0.500000 0.000000 0.163663 -0.283473 0.944911 112 115 127 255
0.779423 -0.450000 0.030000 0.163663 -0.283473 0.944911 112 115 127 255
0.000000 -0.900000 0.030000 0.163663 -0.283473 0.944911 112 115 127 255
0.000000 -0.750000 0.030000 -0.000000 0.000000 1.000000 112 115 127 255
0.000000 -0.900000 0.030000 -0.000000 0.000000 1.000000 112 115 127 255
0.779423 -0.450000 0.030000 -0.000000 0.000000 1.000000 112 115 127 255
0.779423 -0.450000 0.030000 -0.000000 0.000000 1.000000 112 115 127 255
0.779423 0.450000 0.030000 -0.000000 0.000000 1.000000 112 115 127 255
0.649519 -0.375000 0.030000 -0.000000 0.000000 1.000000 112 115 127 255
0.779423 0.450000 0.030000 -0.000000 -0.000000 1.000000 112 115 127 255
0.649519 0.375000 0.030000 -0.000000 -0.000000 1.000000 112 115 127 255
0.649519 -0.375000 0.030000 -0.000000 -0.000000 1.000000 112 115 127 255
0.000000 0.000000 0.545780 -0.180097 0.554273 -0.812617 16 16 16 255
-0.264302 0.192024 0.735333 -0.180097 0.554273 -0.812617 48 134 134 255
0.100952 0.310705 0.735333 -0.180097 0.554273 -0.812617 16 128 16 255
-0.264302 0.192024 0.735333 -0.582797 0.000000 -0.812618 48 134 134 255
0.000000 0.000000 0.545780 -0.582797 0.000000 -0.812618 16 16 16 255
-0.264302 -0.192024 0.735333 -0.582797 0.000000 -0.812618 128 1 128 255
0.000000 0.000000 0.545780 0.471489 0.342564 -0.812618 16 16 16 255
0.100952 0.310705 0.735333 0.471489 0.342564 -0.812618 16 128 16 255
0.326698 0.000000 0.735333 0.471489 0.342564 -0.812618 129 129 3 255
0.000000 0.000000 0.545780 0.471489 -0.342564 -0.812618 16 16 16 255
0.326698 0.000000 0.735333 0.471489 -0.342564 -0.812618 129 129 3 255
0.100952 -0.310705 0.735333 0.471489 -0.342564 -0.812618 128 0 0 255
0.000000 0.000000 0.545780 -0.180097 -0.554273 -0.812617 16 16 16 255
0.100952 -0.310705 0.735333 -0.180097 -0.554273 -0.812617 128 0 0 255
-0.264302 -0.192024 0.735333 -0.180097 -0.554273 -0.812617 128 1 128 255
-0.264302 0.192024 0.735333 -0.979927 0.000000 -0.199355 48 134 134 255
-0.264302 -0.192024 0.735333 -0.979927 0.000000 -0.199355 128 1 128 255
-0.326698 0.000000 1.042039 -0.979927 0.000000 -0.199355 36 36 255 255
0.100952 0.310705 0.735333 -0.302819 0.931966 -0.199347 16 128 16 255
-0.264302 0.192024 0.735333 -0.302819 0.931967 -0.199347 48 134 134 255
-0.100952 0.310705 1.042039 -0.302819 0.931966 -0.199347 36 255 255 255
0.326698 0.000000 0.735333 0.792774 0.575997 -0.199344 129 129 3 255
0.100952 0.310705 0.735333 0.792774 0.575997 -0.199344 16 128 16 255
0.264302 0.192024 1.042039 0.792774 0.575997 -0.199344 39 255 39 255
0.100952 -0.310705 0.735333 0.792774 -0.575997 -0.199344 128 0 0 255
0.326698 0.000000 0.735333 0.792774 -0.575997 -0.199344 129 129 3 255
0.264302 -0.192024 1.042039 0.792774 -0.575997 -0.199344 255 255 32 255
-0.264302 -0.192024 0.735333 -0.302819 -0.931967 -0.199346 128 1 128 255
0.100952 -0.310705 0.735333 -0.302819 -0.931967 -0.199346 128 0 0 255
-0.100952 -0.310705 1.042039 -0.302819 -0.931967 -0.199346 255 0 0 255
-0.264302 0.192024 0.735333 -0.792774 0.575997 0.199344 48 134 134 255
-0.326698 0.000000 1.042039 -0.792774 0.575997 0.199344 36 36 255 255
-0.100952 0.310705 1.042039 -0.792774 0.575997 0.199344 36 255 255 255
0.100952 0.310705 0.735333 0.302819 0.931966 0.199347 16 128 16 255
-0.100952 0.310705 1.042039 0.302819 0.931966 0.199347 36 255 255 255
0.264302 0.192024 1.042039 0.302819 0.931967 0.199347 39 255 39 255
0.326698 0.000000 0.735333 0.979927 0.000000 0.199355 129 129 3 255
0.264302 0.192024 1.042039 0.979927 0.000000 0.199355 39 255 39 255
0.264302 -0.192024 1.042039 0.979927 0.000000 0.199355 255 255 32 255
0.100952 -0.310705 0.735333 0.302819 -0.931967 0.199347 128 0 0 255
0.264302 -0.192024 1.042039 0.302819 -0.931967 0.199347 255 255 32 255
-0.100952 -0.310705 1.042039 0.302819 -0.931967 0.199347 255 0 0 255
-0.264302 -0.192024 0.735333 -0.792773 -0.575997 0.199344 128 1 128 255
-0.100952 -0.310705 1.042039 -0.792774 -0.575997 0.199344 255 0 0 255
-0.326698 0.000000 1.042039 -0.792774 -0.575997 0.199344 36 36 255 255
-0.100952 0.310705 1.042039 -0.471489 0.342564 0.812618 36 255 255 255
-0.326698 0.000000 1.042039 -0.471489 0.342564 0.812618 36 36 255 255
0.000000 0.000000 1.231592 -0.471489 0.342564 0.812618 255 255 255 255
0.264302 0.192024 1.042039 0.180097 0.554273 0.812617 39 255 39 255
-0.100952 0.310705 1.042039 0.180097 0.554273 0.812617 36 255 255 255
0.000000 0.000000 1.231592 0.180097 0.554273 0.812617 255 255 255 255
0.264302 -0.192024 1.042039 0.582797 0.000000 0.812618 255 255 32 255
0.264302 0.192024 1.042039 0.582797 0.000000 0.812618 39 255 39 255
0.000000 0.000000 1.231592 0.582797 0.000000 0.812618 255 255 255 255
-0.100952 -0.310705 1.042039 0.180097 -0.554273 0.812617 255 0 0 255
0.264302 -0.192024 1.042039 0.180097 -0.554273 0.812617 255 255 32 255
0.000000 0.000000 1.231592 0.180097 -0.554273 0.812617 255 255 255 255
-0.326698 0.000000 1.042039 -0.471489 -0.342564 0.812618 36 36 255 255
-0.100952 -0.310705 1.042039 -0.471489 -0.342564 0.812618 255 0 0 255
0.000000 0.000000 1.231592 -0.471489 -0.342564 0.812618 255 255 255 255
-0.412804 -0.305925 0.665962 0.501012 0.724117 0.473963 112 115 127 255
-0.384095 -0.221757 0.507024 0.501012 0.724117 0.473963 112 115 127 255
-0.461312 -0.266339 0.656760 0.501012 0.724117 0.473963 112 115 127 255
0.058537 -0.510461 0.665962 -0.376598 0.795948 0.473963 112 115 127 255
-0.000000 -0.443515 0.507024 -0.376598 0.795948 0.473963 112 115 127 255
-0.000000 -0.532678 0.656760 -0.376598 0.795948 0.473963 112 115 127 255
0.471341 -0.204536 0.665962 -0.877610 0.071831 0.473964 112 115 127 255
0.384095 -0.221757 0.507024 -0.877610 0.071831 0.473964 112 115 127 255
0.461312 -0.266339 0.656760 -0.877610 0.071831 0.473964 112 115 127 255
0.412804 0.305925 0.665962 -0.501011 -0.724117 0.473964 112 115 127 255
0.384095 0.221757 0.507024 -0.501011 -0.724117 0.473964 112 115 127 255
0.461312 0.266339 0.656760 -0.501011 -0.724117 0.473964 112 115 127 255
-0.058537 0.510461 0.665962 0.376598 -0.795948 0.473964 112 115 127 255
0.000000 0.443514 0.507024 0.376598 -0.795948 0.473964 112 115 127 255
0.000000 0.532677 0.656759 0.376598 -0.795947 0.473964 112 115 127 255
-0.471341 0.204536 0.665962 0.877610 -0.071830 0.473964 112 115 127 255
-0.384095 0.221757 0.507024 0.877610 -0.071830 0.473964 112 115 127 255
-0.461312 0.266339 0.656760 0.877610 -0.071830 0.473964 112 115 127 255
-0.388445 0.169261 0.506852 0.781904 -0.066829 0.619806 112 115 127 255
-0.353465 0.204073 0.466478 0.781904 -0.066829 0.619806 112 115 127 255
-0.384095 0.221757 0.507024 0.781904 -0.066829 0.619806 112 115 127 255
0.047638 -0.421034 0.506852 -0.333075 0.710564 0.619806 112 115 127 255
-0.000000 -0.408147 0.466478 -0.333075 0.710564 0.619806 112 115 127 255
-0.000000 -0.443515 0.507024 -0.333075 0.710564 0.619806 112 115 127 255
0.340807 0.251773 0.506852 -0.448829 -0.643733 0.619807 112 115 127 255
0.353465 0.204073 0.466478 -0.448829 -0.643733 0.619807 112 115 127 255
0.384095 0.221757 0.507024 -0.448829 -0.643733 0.619807 112 115 127 255
-0.047638 0.421033 0.506852 0.333075 -0.710563 0.619807 112 115 127 255
0.000000 0.408147 0.466478 0.333075 -0.710563 0.619807 112 115 127 255
0.000000 0.443514 0.507024 0.333075 -0.710563 0.619807 112 115 127 255
-0.340807 -0.251773 0.506852 0.448828 0.643734 0.619806 112 115 127 255
-0.353465 -0.204074 0.466478 0.448828 0.643734 0.619806 112 115 127 255
-0.384095 -0.221757 0.507024 0.448828 0.643734 0.619806 112 115 127 255
0.388445 -0.169261 0.506852 -0.781904 0.066829 0.619806 112 115 127 255
0.353465 -0.204074 0.466478 -0.781904 0.066829 0.619806 112 115 127 255
0.384095 -0.221757 0.507024 -0.781904 0.066829 0.619806 112 115 127 255
0.047638 -0.421034 0.506852 -0.391286 0.677728 0.622559 112 115 127 255
0.316286 -0.236807 0.475148 -0.391286 0.677728 0.622559 112 115 127 255
0.046938 -0.392315 0.475148 -0.391286 0.677728 0.622559 112 115 127 255
-0.316286 -0.236807 0.475148 0.391287 0.677729 0.622557 112 115 127 255
-0.047638 -0.421034 0.506852 0.391287 0.677729 0.622557 112 115 127 255
-0.046938 -0.392315 0.475148 0.391287 0.677729 0.622557 112 115 127 255
-0.388445 0.169261 0.506852 0.782573 -0.000000 0.622559 112 115 127 255
-0.363224 -0.155508 0.475148 0.782573 -0.000000 0.622559 112 115 127 255
-0.363224 0.155508 0.475148 0.782573 -0.000000 0.622559 112 115 127 255
-0.316286 0.236807 0.475148 0.391287 -0.677728 0.622559 112 115 127 255
-0.047638 0.421033 0.506852 0.391287 -0.677728 0.622559 112 115 127 255
-0.340807 0.251773 0.506852 0.391287 -0.677728 0.622559 112 115 127 255
0.047638 0.421033 0.506852 -0.391286 -0.677727 0.622560 112 115 127 255
0.316286 0.236807 0.475148 -0.391286 -0.677727 0.622560 112 115 127 255
0.340807 0.251773 0.506852 -0.391286 -0.677727 0.622560 112 115 127 255
0.363224 0.155508 0.475148 -0.782573 0.000001 0.622558 112 115 127 255
0.388445 -0.169261 0.506852 -0.782573 0.000001 0.622558 112 115 127 255
0.388445 0.169261 0.506852 -0.782573 0.000001 0.622558 112 115 127 255
-0.363224 0.155508 0.475148 0.906462 -0.109317 0.407893 112 115 127 255
-0.235806 0.136143 0.186798 0.906462 -0.109317 0.407893 112 115 127 255
-0.353465 0.204073 0.466478 0.906462 -0.109317 0.407893 112 115 127 255
0.046938 -0.392315 0.475148 -0.358559 0.839678 0.407893 112 115 127 255
-0.000000 -0.272286 0.186798 -0.358559 0.839678 0.407893 112 115 127 255
-0.000000 -0.408147 0.466478 -0.358559 0.839678 0.407893 112 115 127 255
0.316286 0.236807 0.475148 -0.547902 -0.730360 0.407893 112 115 127 255
0.235806 0.136143 0.186798 -0.547902 -0.730360 0.407893 112 115 127 255
0.353465 0.204073 0.466478 -0.547902 -0.730360 0.407893 112 115 127 255
-0.046938 0.392315 0.475148 0.358559 -0.839678 0.407893 112 115 127 255
0.000000 0.272285 0.186798 0.358559 -0.839678 0.407894 112 115 127 255
0.000000 0.408147 0.466478 0.358559 -0.839678 0.407894 112 115 127 255
-0.316286 -0.236807 0.475148 0.547902 0.730361 0.407893 112 115 127 255
-0.235806 -0.136143 0.186798 0.547902 0.730361 0.407893 112 115 127 255
-0.353465 -0.204074 0.466478 0.547902 0.730361 0.407893 112 115 127 255
0.363224 -0.155508 0.475148 -0.906462 0.109317 0.407893 112 115 127 255
0.235806 -0.136143 0.186798 -0.906462 0.109317 0.407893 112 115 127 255
0.353465 -0.204074 0.466478 -0.906462 0.109317 0.407893 112 115 127 255
-0.248688 0.096486 0.206039 -0.559210 0.501832 0.659885 112 115 127 255
-0.146505 0.084584 0.301685 -0.559210 0.501832 0.659885 112 115 127 255
-0.235806 0.136143 0.186798 -0.559210 0.501832 0.659885 112 115 127 255
0.040784 -0.263614 0.206039 -0.154994 -0.735206 0.659886 112 115 127 255
-0.000000 -0.169169 0.301685 -0.154994 -0.735206 0.659886 112 115 127 255
-0.000000 -0.272286 0.186798 -0.154994 -0.735206 0.659886 112 115 127 255
0.207904 0.167126 0.206039 0.714205 0.233373 0.659885 112 115 127 255
0.146505 0.084584 0.301684 0.714205 0.233373 0.659885 112 115 127 255
0.235806 0.136143 0.186798 0.714205 0.233373 0.659885 112 115 127 255
-0.040784 0.263613 0.206039 0.154995 0.735206 0.659885 112 115 127 255
0.000000 0.169169 0.301684 0.154995 0.735206 0.659885 112 115 127 255
0.000000 0.272285 0.186798 0.154995 0.735206 0.659885 112 115 127 255
-0.207904 -0.167127 0.206039 -0.714204 -0.233373 0.659886 112 115 127 255
-0.146505 -0.084585 0.301684 -0.714204 -0.233373 0.659886 112 115 127 255
-0.235806 -0.136143 0.186798 -0.714204 -0.233373 0.659886 112 115 127 255
0.248688 -0.096487 0.206039 0.559210 -0.501832 0.659886 112 115 127 255
0.146505 -0.084585 0.301685 0.559210 -0.501832 0.659886 112 115 127 255
0.235806 -0.136143 0.186798 0.559210 -0.501832 0.659886 112 115 127 255
-0.040784 -0.263614 0.206039 0.357540 -0.736248 0.574547 112 115 127 255
-0.000000 -0.169169 0.301685 0.357540 -0.736248 0.574547 112 115 127 255
-0.030259 -0.172747 0.315931 0.357540 -0.736248 0.574547 112 115 127 255
-0.046938 -0.392315 0.475148 0.369880 0.834837 0.407721 112 115 127 255
-0.000000 -0.272286 0.186798 0.369880 0.834837 0.407721 112 115 127 255
-0.040784 -0.263614 0.206039 0.369880 0.834837 0.407721 112 115 127 255
-0.047638 -0.421034 0.506852 0.349838 0.690448 0.633163 112 115 127 255
-0.000000 -0.408147 0.466478 0.349838 0.690448 0.633163 112 115 127 255
-0.046938 -0.392315 0.475148 0.349838 0.690448 0.633163 112 115 127 255
-0.058537 -0.510461 0.665962 0.374456 0.797130 0.473673 112 115 127 255
-0.000000 -0.443515 0.507024 0.374456 0.797130 0.473673 112 115 127 255
-0.047638 -0.421034 0.506852 0.374456 0.797130 0.473673 112 115 127 255
-0.248688 -0.096487 0.206039 -0.458838 -0.677763 0.574547 112 115 127 255
-0.146505 -0.084585 0.301684 -0.458838 -0.677763 0.574547 112 115 127 255
-0.164733 -0.060168 0.315931 -0.458838 -0.677763 0.574547 112 115 127 255
-0.363224 -0.155508 0.475148 0.907930 0.097093 0.407721 112 115 127 255
-0.235806 -0.136143 0.186798 0.907930 0.097093 0.407721 112 115 127 255
-0.248688 -0.096487 0.206039 0.907930 0.097093 0.407721 112 115 127 255
-0.388445 -0.169261 0.506852 0.772863 0.042255 0.633164 112 115 127 255
-0.353465 -0.204074 0.466478 0.772863 0.042255 0.633164 112 115 127 255
-0.363224 -0.155508 0.475148 0.772863 0.042255 0.633164 112 115 127 255
-0.471341 -0.204536 0.665962 0.877563 0.074277 0.473673 112 115 127 255
-0.384095 -0.221757 0.507024 0.877563 0.074277 0.473673 112 115 127 255
-0.388445 -0.169261 0.506852 0.877563 0.074277 0.473673 112 115 127 255
-0.207904 0.167126 0.206039 -0.816379 0.058486 0.574547 112 115 127 255
-0.146505 0.084584 0.301685 -0.816379 0.058486 0.574547 112 115 127 255
-0.134473 0.112578 0.315930 -0.816379 0.058486 0.574547 112 115 127 255
-0.316286 0.236807 0.475148 0.538050 -0.737743 0.407721 112 115 127 255
-0.235806 0.136143 0.186798 0.538050 -0.737743 0.407721 112 115 127 255
-0.207904 0.167126 0.206039 0.538050 -0.737743 0.407721 112 115 127 255
-0.340807 0.251773 0.506852 0.423025 -0.648191 0.633165 112 115 127 255
-0.353465 0.204073 0.466478 0.423025 -0.648191 0.633165 112 115 127 255
-0.316286 0.236807 0.475148 0.423025 -0.648191 0.633165 112 115 127 255
-0.412804 0.305925 0.665962 0.503107 -0.722853 0.473673 112 115 127 255
-0.384095 0.221757 0.507024 0.503107 -0.722853 0.473673 112 115 127 255
-0.340807 0.251773 0.506852 0.503107 -0.722853 0.473673 112 115 127 255
0.040784 0.263613 0.206039 -0.357541 0.736248 0.574547 112 115 127 255
0.000000 0.169169 0.301684 -0.357541 0.736248 0.574547 112 115 127 255
0.030259 0.172746 0.315930 -0.357541 0.736248 0.574547 112 115 127 255
0.046938 0.392315 0.475148 -0.369879 -0.834837 0.407721 112 115 127 255
0.000000 0.272285 0.186798 -0.369879 -0.834837 0.407721 112 115 127 255
0.040784 0.263613 0.206039 -0.369879 -0.834837 0.407721 112 115 127 255
0.047638 0.421033 0.506852 -0.349838 -0.690447 0.633164 112 115 127 255
0.000000 0.408147 0.466478 -0.349838 -0.690447 0.633164 112 115 127 255
0.046938 0.392315 0.475148 -0.349838 -0.690447 0.633164 112 115 127 255
0.058537 0.510461 0.665962 -0.374456 -0.797130 0.473673 112 115 127 255
0.000000 0.443514 0.507024 -0.374456 -0.797130 0.473673 112 115 127 255
0.047638 0.421033 0.506852 -0.374456 -0.797130 0.473673 112 115 127 255
0.248688 0.096486 0.206039 0.458839 0.677764 0.574546 112 115 127 255
0.146505 0.084584 0.301684 0.458839 0.677764 0.574546 112 115 127 255
0.164733 0.060168 0.315931 0.458839 0.677764 0.574546 112 115 127 255
0.363224 0.155508 0.475148 -0.907930 -0.097093 0.407721 112 115 127 255
0.235806 0.136143 0.186798 -0.907930 -0.097093 0.407721 112 115 127 255
0.248688 0.096486 0.206039 -0.907930 -0.097093 0.407721 112 115 127 255
0.388445 0.169261 0.506852 -0.772863 -0.042255 0.633164 112 115 127 255
0.353465 0.204073 0.466478 -0.772863 -0.042255 0.633164 112 115 127 255
0.363224 0.155508 0.475148 -0.772863 -0.042255 0.633164 112 115 127 255
0.471341 0.204536 0.665962 -0.877563 -0.074277 0.473673 112 115 127 255
0.384095 0.221757 0.507024 -0.877563 -0.074277 0.473673 112 115 127 255
0.388445 0.169261 0.506852 -0.877563 -0.074277 0.473673 112 115 127 255
0.207904 -0.167127 0.206039 0.816380 -0.058483 0.574546 112 115 127 255
0.146505 -0.084585 0.301685 0.816380 -0.058483 0.574546 112 115 127 255
0.134473 -0.112579 0.315931 0.816380 -0.058483 0.574546 112 115 127 255
0.316286 -0.236807 0.475148 -0.538051 0.737743 0.407721 112 115 127 255
0.235806 -0.136143 0.186798 -0.538051 0.737743 0.407721 112 115 127 255
0.207904 -0.167127 0.206039 -0.538051 0.737743 0.407721 112 115 127 255
0.340807 -0.251773 0.506852 -0.423025 0.648192 0.633164 112 115 127 255
0.353465 -0.204074 0.466478 -0.423025 0.648192 0.633164 112 115 127 255
0.316286 -0.236807 0.475148 -0.423025 0.648192 0.633164 112 115 127 255
0.412804 -0.305925 0.665962 -0.503107 0.722854 0.473673 112 115 127 255
0.384095 -0.221757 0.507024 -0.503107 0.722854 0.473673 112 115 127 255
0.340807 -0.251773 0.506852 -0.503107 0.722854 0.473673 112 115 127 255
-0.412804 -0.305925 0.665962 0.503107 0.722854 0.473672 112 115 127 255
-0.340807 -0.251773 0.506852 0.503107 0.722854 0.473672 112 115 127 255
-0.384095 -0.221757 0.507024 0.503107 0.722854 0.473672 112 115 127 255
0.058537 -0.510461 0.665962 -0.374456 0.797131 0.473673 112 115 127 255
0.047638 -0.421034 0.506852 -0.374456 0.797131 0.473673 112 115 127 255
-0.000000 -0.443515 0.507024 -0.374456 0.797131 0.473673 112 115 127 255
0.471341 -0.204536 0.665962 -0.877563 0.074276 0.473673 112 115 127 255
0.388445 -0.169261 0.506852 -0.877563 0.074276 0.473673 112 115 127 255
0.384095 -0.221757 0.507024 -0.877563 0.074276 0.473673 112 115 127 255
0.412804 0.305925 0.665962 -0.503108 -0.722853 0.473673 112 115 127 255
0.340807 0.251773 0.506852 -0.503108 -0.722853 0.473673 112 115 127 255
0.384095 0.221757 0.507024 -0.503108 -0.722853 0.473673 112 115 127 255
-0.058537 0.510461 0.665962 0.374456 -0.797130 0.473673 112 115 127 255
-0.047638 0.421033 0.506852 0.374456 -0.797130 0.473673 112 115 127 255
0.000000 0.443514 0.507024 0.374456 -0.797130 0.473673 112 115 127 255
-0.471341 0.204536 0.665962 0.877563 -0.074276 0.473673 112 115 127 255
-0.388445 0.169261 0.506852 0.877563 -0.074276 0.473673 112 115 127 255
-0.384095 0.221757 0.507024 0.877563 -0.074276 0.473673 112 115 127 255
-0.388445 0.169261 0.506852 0.772863 -0.042253 0.633164 112 115 127 255
-0.363224 0.155508 0.475148 0.772863 -0.042253 0.633164 112 115 127 255
-0.353465 0.204073 0.466478 0.772863 -0.042253 0.633164 112 115 127 255
0.047638 -0.421034 0.506852 -0.349838 0.690446 0.633165 112 115 127 255
0.046938 -0.392315 0.475148 -0.349838 0.690446 0.633165 112 115 127 255
-0.000000 -0.408147 0.466478 -0.349838 0.690446 0.633165 112 115 127 255
0.340807 0.251773 0.506852 -0.423024 -0.648192 0.633166 112 115 127 255
0.316286 0.236807 0.475148 -0.423024 -0.648192 0.633166 112 115 127 255
0.353465 0.204073 0.466478 -0.423024 -0.648191 0.633165 112 115 127 255
-0.047638 0.421033 0.506852 0.349837 -0.690446 0.633165 112 115 127 255
-0.046938 0.392315 0.475148 0.349837 -0.690446 0.633165 112 115 127 255
0.000000 0.408147 0.466478 0.349837 -0.690446 0.633165 112 115 127 255
-0.340807 -0.251773 0.506852 0.423024 0.648192 0.633165 112 115 127 255
-0.316286 -0.236807 0.475148 0.423024 0.648192 0.633165 112 115 127 255
-0.353465 -0.204074 0.466478 0.423024 0.648192 0.633165 112 115 127 255
0.388445 -0.169261 0.506852 -0.772863 0.042253 0.633164 112 115 127 255
0.363224 -0.155508 0.475148 -0.772864 0.042254 0.633164 112 115 127 255
0.353465 -0.204074 0.466478 -0.772864 0.042254 0.633164 112 115 127 255
0.047638 -0.421034 0.506852 -0.391287 0.677729 0.622558 112 115 127 255
0.340807 -0.251773 0.506852 -0.391287 0.677729 0.622558 112 115 127 255
0.316286 -0.236807 0.475148 -0.391287 0.677729 0.622558 112 115 127 255
-0.316286 -0.236807 0.475148 0.391286 0.677728 0.622559 112 115 127 255
-0.340807 -0.251773 0.506852 0.391286 0.677728 0.622559 112 115 127 255
-0.047638 -0.421034 0.506852 0.391286 0.677728 0.622559 112 115 127 255
-0.388445 0.169261 0.506852 0.782573 -0.000000 0.622559 112 115 127 255
-0.388445 -0.169261 0.506852 0.782573 -0.000000 0.622559 112 115 127 255
-0.363224 -0.155508 0.475148 0.782573 -0.000000 0.622558 112 115 127 255
-0.316286 0.236807 0.475148 0.391287 -0.677728 0.622559 112 115 127 255
-0.046938 0.392315 0.475148 0.391287 -0.677728 0.622559 112 115 127 255
-0.047638 0.421033 0.506852 0.391287 -0.677728 0.622559 112 115 127 255
0.047638 0.421033 0.506852 -0.391287 -0.677728 0.622558 112 115 127 255
0.046938 0.392315 0.475148 -0.391287 -0.677728 0.622558 112 115 127 255
0.316286 0.236807 0.475148 -0.391287 -0.677728 0.622558 112 115 127 255
0.363224 0.155508 0.475148 -0.782573 0.000001 0.622559 112 115 127 255
0.363224 -0.155508 0.475148 -0.782573 0.000001 0.622559 112 115 127 255
0.388445 -0.169261 0.506852 -0.782573 0.000001 0.622559 112 115 127 255
-0.363224 0.155508 0.475148 0.907930 -0.097094 0.407721 112 115 127 255
-0.248688 0.096486 0.206039 0.907930 -0.097094 0.407721 112 115 127 255
-0.235806 0.136143 0.186798 0.907930 -0.097094 0.407721 112 115 127 255
0.046938 -0.392315 0.475148 -0.369880 0.834837 0.407721 112 115 127 255
0.040784 -0.263614 0.206039 -0.369880 0.834837 0.407721 112 115 127 255
-0.000000 -0.272286 0.186798 -0.369880 0.834837 0.407721 112 115 127 255
0.316286 0.236807 0.475148 -0.538051 -0.737743 0.407721 112 115 127 255
0.207904 0.167126 0.206039 -0.538051 -0.737743 0.407721 112 115 127 255
0.235806 0.136143 0.186798 -0.538051 -0.737743 0.407721 112 115 127 255
-0.046938 0.392315 0.475148 0.369879 -0.834837 0.407721 112 115 127 255
-0.040784 0.263613 0.206039 0.369879 -0.834837 0.407721 112 115 127 255
0.000000 0.272285 0.186798 0.369879 -0.834837 0.407721 112 115 127 255
-0.316286 -0.236807 0.475148 0.538051 0.737743 0.407721 112 115 127 255
-0.207904 -0.167127 0.206039 0.538051 0.737743 0.407721 112 115 127 255
-0.235806 -0.136143 0.186798 0.538051 0.737743 0.407721 112 115 127 255
0.363224 -0.155508 0.475148 -0.907930 0.097094 0.407721 112 115 127 255
0.248688 -0.096487 0.206039 -0.907930 0.097094 0.407721 112 115 127 255
0.235806 -0.136143 0.186798 -0.907930 0.097094 0.407721 112 115 127 255
-0.248688 0.096486 0.206039 -0.458839 0.677763 0.574546 112 115 127 255
-0.164733 0.060168 0.315931 -0.458839 0.677763 0.574546 112 115 127 255
-0.146505 0.084584 0.301685 -0.458839 0.677763 0.574546 112 115 127 255
0.040784 -0.263614 0.206039 -0.357540 -0.736248 0.574547 112 115 127 255
0.030259 -0.172747 0.315931 -0.357540 -0.736248 0.574547 112 115 127 255
-0.000000 -0.169169 0.301685 -0.357540 -0.736248 0.574547 112 115 127 255
0.207904 0.167126 0.206039 0.816380 0.058485 0.574547 112 115 127 255
0.134473 0.112578 0.315930 0.816380 0.058485 0.574547 112 115 127 255
0.146505 0.084584 0.301684 0.816380 0.058485 0.574547 112 115 127 255
-0.040784 0.263613 0.206039 0.357541 0.736248 0.574547 112 115 127 255
-0.030259 0.172746 0.315930 0.357541 0.736248 0.574547 112 115 127 255
0.000000 0.169169 0.301684 0.357541 0.736248 0.574547 112 115 127 255
-0.207904 -0.167127 0.206039 -0.816379 -0.058484 0.574547 112 115 127 255
-0.134473 -0.112579 0.315930 -0.816379 -0.058484 0.574547 112 115 127 255
-0.146505 -0.084585 0.301684 -0.816379 -0.058484 0.574547 112 115 127 255
0.248688 -0.096487 0.206039 0.458839 -0.677763 0.574547 112 115 127 255
0.164733 -0.060168 0.315931 0.458839 -0.677763 0.574547 112 115 127 255
0.146505 -0.084585 0.301685 0.458839 -0.677763 0.574547 112 115 127 255
-0.040784 -0.263614 0.206039 0.154994 -0.735206 0.659886 112 115 127 255
-0.000000 -0.272286 0.186798 0.154994 -0.735206 0.659886 112 115 127 255
-0.000000 -0.169169 0.301685 0.154994 -0.735206 0.659886 112 115 127 255
-0.046938 -0.392315 0.475148 0.358558 0.839678 0.407893 112 115 127 255
-0.000000 -0.408147 0.466478 0.358558 0.839678 0.407893 112 115 127 255
-0.000000 -0.272286 0.186798 0.358558 0.839678 0.407893 112 115 127 255
-0.047638 -0.421034 0.506852 0.333076 0.710564 0.619806 112 115 127 255
-0.000000 -0.443515 0.507024 0.333076 0.710564 0.619806 112 115 127 255
-0.000000 -0.408147 0.466478 0.333076 0.710564 0.619806 112 115 127 255
-0.058537 -0.510461 0.665962 0.376598 0.795948 0.473963 112 115 127 255
-0.000000 -0.532678 0.656760 0.376598 0.795948 0.473963 112 115 127 255
-0.000000 -0.443515 0.507024 0.376598 0.795948 0.473963 112 115 127 255
-0.248688 -0.096487 0.206039 -0.559210 -0.501832 0.659886 112 115 127 255
-0.235806 -0.136143 0.186798 -0.559210 -0.501832 0.659886 112 115 127 255
-0.146505 -0.084585 0.301684 -0.559210 -0.501832 0.659886 112 115 127 255
-0.363224 -0.155508 0.475148 0.906462 0.109318 0.407893 112 115 127 255
-0.353465 -0.204074 0.466478 0.906462 0.109318 0.407893 112 115 127 255
-0.235806 -0.136143 0.186798 0.906462 0.109318 0.407893 112 115 127 255
-0.388445 -0.169261 0.506852 0.781903 0.066830 0.619807 112 115 127 255
-0.384095 -0.221757 0.507024 0.781903 0.066830 0.619807 112 115 127 255
-0.353465 -0.204074 0.466478 0.781903 0.066830 0.619807 112 115 127 255
-0.471341 -0.204536 0.665962 0.877610 0.071830 0.473963 112 115 127 255
-0.461312 -0.266339 0.656760 0.877610 0.071830 0.473963 112 115 127 255
-0.384095 -0.221757 0.507024 0.877610 0.071830 0.473963 112 115 127 255
-0.207904 0.167126 0.206039 -0.714204 0.233374 0.659885 112 115 127 255
-0.235806 0.136143 0.186798 -0.714204 0.233374 0.659885 112 115 127 255
-0.146505 0.084584 0.301685 -0.714204 0.233374 0.659885 112 115 127 255
-0.316286 0.236807 0.475148 0.547903 -0.730360 0.407893 112 115 127 255
-0.353465 0.204073 0.466478 0.547903 -0.730360 0.407893 112 115 127 255
-0.235806 0.136143 0.186798 0.547903 -0.730360 0.407893 112 115 127 255
-0.340807 0.251773 0.506852 0.448829 -0.643733 0.619807 112 115 127 255
-0.384095 0.221757 0.507024 0.448829 -0.643733 0.619807 112 115 127 255
-0.353465 0.204073 0.466478 0.448829 -0.643733 0.619807 112 115 127 255
-0.412804 0.305925 0.665962 0.501012 -0.724117 0.473964 112 115 127 255
-0.461312 0.266339 0.656760 0.501012 -0.724117 0.473964 112 115 127 255
-0.384095 0.221757 0.507024 0.501012 -0.724117 0.473964 112 115 127 255
0.040784 0.263613 0.206039 -0.154995 0.735206 0.659885 112 115 127 255
0.000000 0.272285 0.186798 -0.154995 0.735206 0.659885 112 115 127 255
0.000000 0.169169 0.301684 -0.154995 0.735206 0.659885 112 115 127 255
0.046938 0.392315 0.475148 -0.358558 -0.839678 0.407894 112 115 127 255
0.000000 0.408147 0.466478 -0.358558 -0.839678 0.407894 112 115 127 255
0.000000 0.272285 0.186798 -0.358558 -0.839678 0.407894 112 115 127 255
0.047638 0.421033 0.506852 -0.333076 -0.710563 0.619807 112 115 127 255
0.000000 0.443514 0.507024 -0.333076 -0.710563 0.619807 112 115 127 255
0.000000 0.408147 0.466478 -0.333076 -0.710563 0.619807 112 115 127 255
0.058537 0.510461 0.665962 -0.376598 -0.795948 0.473964 112 115 127 255
0.000000 0.532677 0.656759 -0.376598 -0.795947 0.473964 112 115 127 255
0.000000 0.443514 0.507024 -0.376598 -0.795948 0.473964 112 115 127 255
0.248688 0.096486 0.206039 0.559210 0.501832 0.659885 112 115 127 255
0.235806 0.136143 0.186798 0.559210 0.501832 0.659885 112 115 127 255
0.146505 0.084584 0.301684 0.559210 0.501832 0.659885 112 115 127 255
0.363224 0.155508 0.475148 -0.906462 -0.109318 0.407893 112 115 127 255
0.353465 0.204073 0.466478 -0.906462 -0.109318 0.407893 112 115 127 255
0.235806 0.136143 0.186798 -0.906462 -0.109318 0.407893 112 115 127 255
0.388445 0.169261 0.506852 -0.781903 -0.066830 0.619807 112 115 127 255
0.384095 0.221757 0.507024 -0.781903 -0.066830 0.619807 112 115 127 255
0.353465 0.204073 0.466478 -0.781903 -0.066830 0.619807 112 115 127 255
0.471341 0.204536 0.665962 -0.877610 -0.071829 0.473964 112 115 127 255
0.461312 0.266339 0.656760 -0.877610 -0.071829 0.473964 112 115 127 255
0.384095 0.221757 0.507024 -0.877610 -0.071829 0.473964 112 115 127 255
0.207904 -0.167127 0.206039 0.714204 -0.233374 0.659886 112 115 127 255
0.235806 -0.136143 0.186798 0.714204 -0.233374 0.659886 112 115 127 255
0.146505 -0.084585 0.301685 0.714204 -0.233374 0.659886 112 115 127 255
0.316286 -0.236807 0.475148 -0.547903 0.730360 0.407893 112 115 127 255
0.353465 -0.204074 0.466478 -0.547903 0.730360 0.407893 112 115 127 255
0.235806 -0.136143 0.186798 -0.547903 0.730360 0.407893 112 115 127 255
0.340807 -0.251773 0.506852 -0.448828 0.643734 0.619807 112 115 127 255
0.384095 -0.221757 0.507024 -0.448828 0.643734 0.619807 112 115 127 255
0.353465 -0.204074 0.466478 -0.448828 0.643734 0.619807 112 115 127 255
0.412804 -0.305925 0.665962 -0.501012 0.724117 0.473963 112 115 127 255
0.461312 -0.266339 0.656760 -0.501012 0.724117 0.473963 112 115 127 255
0.384095 -0.221757 0.507024 -0.501012 0.724117 0.473963 112 115 127 255
-0.061047 -0.190081 0.005617 -0.782791 -0.572813 0.243155 112 115 127 255
0.000000 0.000000 0.649931 -0.782791 -0.572813 0.243155 112 115 127 255
-0.199643 -0.000680 0.005617 -0.782791 -0.572813 0.243155 112 115 127 255
-0.199643 -0.000680 0.005617 -0.786673 0.567470 0.243154 112 115 127 255
0.000000 0.000000 0.649931 -0.786673 0.567470 0.243154 112 115 127 255
-0.062339 0.189661 0.005617 -0.786673 0.567470 0.243154 112 115 127 255
-0.062339 0.189661 0.005617 0.296600 0.923528 0.243154 112 115 127 255
0.000000 0.000000 0.649931 0.296600 0.923528 0.243154 112 115 127 255
0.161115 0.117897 0.005617 0.296600 0.923528 0.243154 112 115 127 255
0.161115 0.117897 0.005617 0.969982 0.003302 0.243154 112 115 127 255
0.000000 0.000000 0.649931 0.969982 0.003302 0.243154 112 115 127 255
0.161914 -0.116797 0.005617 0.969982 0.003302 0.243154 112 115 127 255
0.161914 -0.116797 0.005617 0.302881 -0.921487 0.243154 112 115 127 255
0.000000 0.000000 0.649931 0.302881 -0.921487 0.243154 112 115 127 255
-0.061047 -0.190081 0.005617 0.302881 -0.921487 0.243154 112 115 127 255
-0.649519 -0.375000 0.030000 -0.500000 -0.866025 0.000000 64 1 64 255
0.000000 -0.750000 0.060000 -0.500000 -0.866025 0.000000 64 0 0 255
-0.649519 -0.375000 0.060000 -0.500000 -0.866025 0.000000 64 0 64 255
0.649519 -0.375000 0.060000 0.500000 -0.866025 0.000000 64 64 0 255
0.000000 -0.750000 0.030000 0.500000 -0.866025 0.000000 64 0 0 255
0.649519 -0.375000 0.030000 0.500000 -0.866025 0.000000 64 64 0 255
-0.649519 0.375000 0.030000 -0.500000 0.866025 -0.000001 0 0 64 255
-0.000000 0.750000 0.060000 -0.500000 0.866025 -0.000001 1 64 64 255
0.000000 0.750000 0.030000 -0.500000 0.866025 -0.000001 3 64 64 255
0.649519 0.375000 0.030000 0.500000 0.866025 0.000000 0 64 0 255
-0.000000 0.750000 0.060000 0.500000 0.866025 0.000000 1 64 64 255
0.649519 0.375000 0.060000 0.500000 0.866025 0.000000 0 64 0 255
-0.649519 -0.375000 0.060000 -1.000000 -0.000000 0.000000 64 0 64 255
-0.649519 0.375000 0.030000 -1.000000 -0.000000 0.000000 0 0 64 255
-0.649519 -0.375000 0.030000 -1.000000 -0.000000 0.000000 64 1 64 255
0.649519 0.375000 0.060000 1.000000 0.000000 0.000000 0 64 0 255
0.649519 -0.375000 0.030000 1.000000 0.000000 0.000000 64 64 0 255
0.649519 0.375000 0.030000 1.000000 0.000000 0.000000 0 64 0 255
0.649519 0.375000 0.060000 0.000000 0.000000 1.000000 0 64 0 255
-0.649519 0.375000 0.060000 0.000000 0.000000 1.000000 0 0 64 255
0.000000 -0.750000 0.060000 0.000000 0.000000 1.000000 64 0 0 255
-0.649519 -0.375000 0.030000 -0.500000 -0.866025 0.000000 64 1 64 255
0.000000 -0.750000 0.030000 -0.500000 -0.866025 0.000000 64 0 0 255
0.000000 -0.750000 0.060000 -0.500000 -0.866025 0.000000 64 0 0 255
0.649519 -0.375000 0.060000 0.500000 -0.866025 0.000000 64 64 0 255
0.000000 -0.750000 0.060000 0.500000 -0.866025 0.000000 64 0 0 255
0.000000 -0.750000 0.030000 0.500000 -0.866025 0.000000 64 0 0 255
-0.649519 0.375000 0.030000 -0.500000 0.866025 0.000000 0 0 64 255
-0.649519 0.375000 0.060000 -0.500000 0.866025 0.000000 0 0 64 255
-0.000000 0.750000 0.060000 -0.500000 0.866025 0.000000 1 64 64 255
0.649519 0.375000 0.030000 0.500000 0.866025 0.000001 0 64 0 255
0.000000 0.750000 0.030000 0.500000 0.866025 0.000001 3 64 64 255
-0.000000 0.750000 0.060000 0.500000 0.866025 0.000001 1 64 64 255
-0.649519 -0.375000 0.060000 -1.000000 -0.000000 0.000000 64 0 64 255
-0.649519 0.375000 0.060000 -1.000000 -0.000000 0.000000 0 0 64 255
-0.649519 0.375000 0.030000 -1.000000 -0.000000 0.000000 0 0 64 255
0.649519 0.375000 0.060000 1.000000 0.000000 0.000000 0 64 0 255
0.649519 -0.375000 0.060000 1.000000 0.000000 0.000000 64 64 0 255
0.649519 -0.375000 0.030000 1.000000 0.000000 0.000000 64 64 0 255
0.000000 -0.750000 0.060000 0.000000 0.000000 1.000000 64 0 0 255
0.649519 -0.375000 0.060000 0.000000 0.000000 1.000000 64 64 0 255
0.649519 0.375000 0.060000 0.000000 0.000000 1.000000 0 64 0 255
0.649519 0.375000 0.060000 0.000000 0.000000 1.000000 0 64 0 255
-0.000000 0.750000 0.060000 0.000000 0.000000 1.000000 1 64 64 255
-0.649519 0.375000 0.060000 0.000000 0.000000 1.000000 0 0 64 255
-0.649519 0.375000 0.060000 0.000000 0.000000 1.000000 0 0 64 255
-0.649519 -0.375000 0.060000 0.000000 0.000000 1.000000 64 0 64 255
0.000000 -0.750000 0.060000 0.000000 0.000000 1.000000 64 0 0 255
3 0 1 2
3 3 4 5
3 6 7 8
3 9 10 11
3 12 13 14
3 15 16 17
3 18 19 20
3 21 22 23
3 24 25 26
3 27 28 29
3 30 31 32
3 33 34 35
3 36 37 38
3 39 40 41
3 42 43 44
3 45 46 47
3 48 49 50
3 51 52 53
3 54 55 56
3 57 58 59
3 60 61 62
3 63 64 65
3 66 67 68
3 69 70 71
3 72 73 74
3 75 76 77
3 78 79 80
3 81 82 83
3 84 85 86
3 87 88 89
3 90 91 92
3 93 94 95
3 96 97 98
3 99 100 101
3 102 103 104
3 105 106 107
3 108 109 110
3 111 112 113
3 114 115 116
3 117 118 119
3 120 121 122
3 123 124 125
3 126 127 128
3 129 130 131
3 132 133 134
3 135 136 137
3 138 139 140
3 141 142 143
3 144 145 146
3 147 148 149
3 150 151 152
3 153 154 155
3 156 157 158
3 159 160 161
3 162 163 164
3 165 166 167
3 168 169 170
3 171 172 173
3 174 175 176
3 177 178 179
3 180 181 182
3 183 184 185
3 186 187 188
3 189 190 191
3 192 193 194
3 195 196 197
3 198 199 200
3 201 202 203
3 204 205 206
3 207 208 209
3 210 211 212
3 213 214 215
3 216 217 218
3 219 220 221
3 222 223 224
3 225 226 227
3 228 229 230
3 231 232 233
3 234 235 236
3 237 238 239
3 240 241 242
3 243 244 245
3 246 247 248
3 249 250 251
3 252 253 254
3 255 256 257
3 258 259 260
3 261 262 263
3 264 265 266
3 267 268 269
3 270 271 272
3 273 274 275
3 276 277 278
3 279 280 281
3 282 283 284
3 285 286 287
3 288 289 290
3 291 292 293
3 294 295 296
3 297 298 299
3 300 301 302
3 303 304 305
3 306 307 308
3 309 310 311
3 312 313 314
3 315 316 317
3 318 319 320
3 321 322 323
3 324 325 326
3 327 328 329
3 330 331 332
3 333 334 335
3 336 337 338
3 339 340 341
3 342 343 344
3 345 346 347
3 348 349 350
3 351 352 353
3 354 355 356
3 357 358 359
3 360 361 362
3 363 364 365
3 366 367 368
3 369 370 371
3 372 373 374
3 375 376 377
3 378 379 380
3 381 382 383
3 384 385 386
3 387 388 389
3 390 391 392
3 393 394 395
3 396 397 398
3 399 400 401
3 402 403 404
3 405 406 407
3 408 409 410
3 411 412 413
3 414 415 416
3 417 418 419
3 420 421 422
3 423 424 425
3 426 427 428
3 429 430 431
3 432 433 434
3 435 436 437
3 438 439 440
3 441 442 443
3 444 445 446
3 447 448 449
3 450 451 452
3 453 454 455
3 456 457 458
3 459 460 461
3 462 463 464
3 465 466 467
3 468 469 470
3 471 472 473
3 474 475 476
3 477 478 479
3 480 481 482
3 483 484 485
3 486 487 488
3 489 490 491
3 492 493 494
3 495 496 497
3 498 499 500
3 501 502 503
3 504 505 506
3 507 508 509
3 510 511 512
3 513 514 515
3 516 517 518
