ply
format ascii 1.0
comment Created by Blender 3.6.0 - www.blender.org
element vertex 365
property float x
property float y
property float z
property float nx
property float ny
property float nz
property uchar red
property uchar green
property uchar blue
property uchar alpha
element face 173
property list uchar uint vertex_indices
end_header
0.000000 -0.900000 0.030000 -0.163663 -0.283473 0.944911 112 115 127 255
-0.866025 -0.500000 0.000000 -0.163663 -0.283473 0.944911 112 115 127 255
0.000000 -1.000000 0.000000 -0.163663 -0.283473 0.944911 112 115 127 255
0.000000 -0.900000 0.030000 0.000000 0.000000 1.000000 112 115 127 255
-0.649519 -0.375000 0.030000 0.000000 0.000000 1.000000 112 115 127 255
-0.779423 -0.450000 0.030000 0.000000 0.000000 1.000000 112 115 127 255
-0.866025 0.500000 0.000000 -0.327327 0.000000 0.944911 112 115 127 255
-0.779423 -0.450000 0.030000 -0.327327 0.000000 0.944911 112 115 127 255
-0.779423 0.450000 0.030000 -0.327327 0.000000 0.944911 112 115 127 255
0.000000 0.750000 0.030000 0.000000 -0.000000 1.000000 112 115 127 255
0.000000 0.900000 0.030000 0.000000 -0.000000 1.000000 112 115 127 255
-0.779423 0.450000 0.030000 0.000000 -0.000000 1.000000 112 115 127 255
0.000000 0.900000 0.030000 0.163663 0.283473 0.944911 112 115 127 255
0.866025 0.500000 0.000000 0.163663 0.283473 0.944911 112 115 127 255
0.000000 1.000000 0.000000 0.163663 0.283473 0.944911 112 115 127 255
0.000000 0.900000 0.030000 -0.000000 -0.000000 1.000000 112 115 127 255
0.649519 0.375000 0.030000 -0.000000 -0.000000 1.000000 112 115 127 255
0.779423 0.450000 0.030000 -0.000000 -0.000000 1.000000 112 115 127 255
0.866025 -0.500000 0.000000 0.327327 0.000000 0.944911 112 115 127 255
0.779423 0.450000 0.030000 0.327327 0.000000 0.944911 112 115 127 255
0.779423 -0.450000 0.030000 0.327327 0.000000 0.944911 112 115 127 255
-0.866025 0.500000 0.000000 -0.163663 0.283473 0.944911 112 115 127 255
0.000000 0.900000 0.030000 -0.163663 0.283473 0.944911 112 115 127 255
0.000000 1.000000 0.000000 -0.163663 0.283473 0.944911 112 115 127 255
0.866025 -0.500000 0.000000 0.163663 -0.283473 0.944911 112 115 127 255
0.000000 -0.900000 0.030000 0.163663 -0.283473 0.944911 112 115 127 255
0.000000 -1.000000 0.000000 0.163663 -0.283473 0.944911 112 115 127 255
0.649519 -0.375000 0.030000 -0.000000 0.000000 1.000000 112 115 127 255
0.000000 -0.750000 0.030000 -0.000000 0.000000 1.000000 112 115 127 255
0.779423 -0.450000 0.030000 -0.000000 0.000000 1.000000 112 115 127 255
-0.779423 -0.450000 0.030000 -0.163663 -0.283473 0.944911 112 115 127 255
0.000000 -0.750000 0.030000 0.000000 0.000000 1.000000 112 115 127 255
-0.866025 -0.500000 0.000000 -0.327327 0.000000 0.944911 112 115 127 255
-0.779423 -0.450000 0.030000 0.000000 0.000000 1.000000 112 115 127 255
-0.649519 0.375000 0.030000 0.000000 -0.000000 1.000000 112 115 127 255
-0.649519 -0.375000 0.030000 0.000000 0.000000 1.000000 112 115 127 255
0.779423 0.450000 0.030000 0.163663 0.283473 0.944911 112 115 127 255
0.000000 0.750000 0.030000 -0.000000 -0.000000 1.000000 112 115 127 255
0.866025 0.500000 0.000000 0.327327 0.000000 0.944911 112 115 127 255
-0.779423 0.450000 0.030000 -0.163663 0.283473 0.944911 112 115 127 255
0.779423 -0.450000 0.030000 0.163663 -0.283473 0.944911 112 115 127 255
0.000000 -0.900000 0.030000 -0.000000 0.000000 1.000000 112 115 127 255
0.779423 0.450000 0.030000 -0.000000 -0.000000 1.000000 112 115 127 255
0.649519 0.375000 0.030000 -0.000000 -0.000000 1.000000 112 115 127 255
0.000000 0.000000 0.853224 -0.182247 0.560891 -0.807581 16 16 16 255
-0.335064 0.243435 1.097912 -0.182247 0.560891 -0.807581 48 134 134 255
0.127981 0.393890 1.097912 -0.182247 0.560891 -0.807581 16 128 16 255
-0.335064 0.243435 1.097912 -0.589755 0.000000 -0.807582 48 134 134 255
0.000000 0.000000 0.853224 -0.589755 0.000000 -0.807582 16 16 16 255
-0.335064 -0.243435 1.097912 -0.589755 0.000000 -0.807582 128 1 128 255
0.000000 0.000000 0.853224 0.477118 0.346654 -0.807582 16 16 16 255
0.127981 0.393890 1.097912 0.477118 0.346654 -0.807582 16 128 16 255
0.414165 0.000000 1.097912 0.477118 0.346654 -0.807582 129 129 3 255
0.000000 0.000000 0.853224 0.477118 -0.346654 -0.807582 16 16 16 255
0.414165 0.000000 1.097912 0.477118 -0.346654 -0.807582 129 129 3 255
0.127981 -0.393890 1.097912 0.477118 -0.346654 -0.807582 128 0 0 255
0.000000 0.000000 0.853224 -0.182247 -0.560891 -0.807581 16 16 16 255
0.127981 -0.393890 1.097912 -0.182247 -0.560891 -0.807581 128 0 0 255
-0.335064 -0.243435 1.097912 -0.182247 -0.560891 -0.807581 128 1 128 255
-0.335064 0.243435 1.097912 -0.980620 0.000000 -0.195920 48 134 134 255
-0.335064 -0.243435 1.097912 -0.980620 0.000000 -0.195920 128 1 128 255
-0.414165 0.000000 1.493827 -0.980620 0.000000 -0.195920 36 36 255 255
0.127981 0.393890 1.097912 -0.303033 0.932625 -0.195912 16 128 16 255
-0.335064 0.243435 1.097912 -0.303033 0.932625 -0.195912 48 134 134 255
-0.127981 0.393890 1.493827 -0.303033 0.932625 -0.195912 36 255 255 255
0.414165 0.000000 1.097912 0.793334 0.576403 -0.195910 129 129 3 255
0.127981 0.393890 1.097912 0.793334 0.576403 -0.195910 16 128 16 255
0.335064 0.243435 1.493827 0.793334 0.576403 -0.195910 39 255 39 255
0.127981 -0.393890 1.097912 0.793334 -0.576403 -0.195910 128 0 0 255
0.414165 0.000000 1.097912 0.793334 -0.576404 -0.195910 129 129 3 255
0.335064 -0.243435 1.493827 0.793334 -0.576404 -0.195910 255 255 32 255
-0.335064 -0.243435 1.097912 -0.303033 -0.932625 -0.195912 128 1 128 255
0.127981 -0.393890 1.097912 -0.303033 -0.932625 -0.195912 128 0 0 255
-0.127981 -0.393890 1.493827 -0.303033 -0.932625 -0.195912 255 0 0 255
-0.335064 0.243435 1.097912 -0.793334 0.576404 0.195910 48 134 134 255
-0.414165 0.000000 1.493827 -0.793334 0.576404 0.195910 36 36 255 255
-0.127981 0.393890 1.493827 -0.793334 0.576403 0.195910 36 255 255 255
0.127981 0.393890 1.097912 0.303033 0.932625 0.195912 16 128 16 255
-0.127981 0.393890 1.493827 0.303033 0.932625 0.195912 36 255 255 255
0.335064 0.243435 1.493827 0.303033 0.932625 0.195912 39 255 39 255
0.414165 0.000000 1.097912 0.980620 0.000000 0.195920 129 129 3 255
0.335064 0.243435 1.493827 0.980620 0.000000 0.195920 39 255 39 255
0.335064 -0.243435 1.493827 0.980620 0.000000 0.195920 255 255 32 255
0.127981 -0.393890 1.097912 0.303033 -0.932625 0.195912 128 0 0 255
0.335064 -0.243435 1.493827 0.303033 -0.932625 0.195912 255 255 32 255
-0.127981 -0.393890 1.493827 0.303033 -0.932625 0.195912 255 0 0 255
-0.335064 -0.243435 1.097912 -0.793334 -0.576403 0.195910 128 1 128 255
-0.127981 -0.393890 1.493827 -0.793334 -0.576403 0.195910 255 0 0 255
-0.414165 0.000000 1.493827 -0.793334 -0.576403 0.195910 36 36 255 255
-0.127981 0.393890 1.493827 -0.477118 0.346654 0.807582 36 255 255 255
-0.414165 0.000000 1.493827 -0.477118 0.346654 0.807582 36 36 255 255
0.000000 0.000000 1.738515 -0.477118 0.346654 0.807582 255 255 255 255
0.335064 0.243435 1.493827 0.182247 0.560891 0.807581 39 255 39 255
-0.127981 0.393890 1.493827 0.182247 0.560891 0.807581 36 255 255 255
0.000000 0.000000 1.738515 0.182247 0.560891 0.807581 255 255 255 255
0.335064 -0.243435 1.493827 0.589755 0.000000 0.807582 255 255 32 255
0.335064 0.243435 1.493827 0.589755 0.000000 0.807582 39 255 39 255
0.000000 0.000000 1.738515 0.589755 0.000000 0.807582 255 255 255 255
-0.127981 -0.393890 1.493827 0.182247 -0.560891 0.807581 255 0 0 255
0.335064 -0.243435 1.493827 0.182247 -0.560891 0.807581 255 255 32 255
0.000000 0.000000 1.738515 0.182247 -0.560891 0.807581 255 255 255 255
-0.414165 0.000000 1.493827 -0.477118 -0.346654 0.807582 36 36 255 255
-0.127981 -0.393890 1.493827 -0.477118 -0.346654 0.807582 255 0 0 255
0.000000 0.000000 1.738515 -0.477118 -0.346654 0.807582 255 255 255 255
-0.407474 -0.301975 0.877086 0.474743 0.685300 0.552253 112 115 127 255
-0.379136 -0.218894 0.749628 0.475882 0.684648 0.552081 112 115 127 255
-0.455356 -0.262900 0.869706 0.474321 0.685541 0.552316 112 115 127 255
0.057781 -0.503871 0.877086 -0.356116 0.753789 0.552253 112 115 127 255
-0.000000 -0.437788 0.749628 -0.354981 0.754450 0.552081 112 115 127 255
-0.000000 -0.525800 0.869706 -0.356535 0.753545 0.552316 112 115 127 255
0.465255 -0.201896 0.877086 -0.830858 0.068490 0.552253 112 115 127 255
0.379136 -0.218894 0.749628 -0.830863 0.069803 0.552082 112 115 127 255
0.455356 -0.262900 0.869706 -0.830856 0.068004 0.552317 112 115 127 255
0.407474 0.301975 0.877086 -0.474743 -0.685300 0.552253 112 115 127 255
0.379136 0.218894 0.749628 -0.475883 -0.684647 0.552081 112 115 127 255
0.455356 0.262900 0.869706 -0.474321 -0.685541 0.552317 112 115 127 255
-0.057781 0.503870 0.877086 0.356116 -0.753789 0.552253 112 115 127 255
0.000000 0.437788 0.749628 0.354981 -0.754450 0.552082 112 115 127 255
0.000000 0.525800 0.869706 0.356535 -0.753544 0.552317 112 115 127 255
-0.465255 0.201895 0.877086 0.830858 -0.068489 0.552253 112 115 127 255
-0.379136 0.218894 0.749628 0.830863 -0.069802 0.552082 112 115 127 255
-0.455356 0.262900 0.869706 0.830856 -0.068004 0.552317 112 115 127 255
-0.383430 0.167075 0.749490 0.708777 -0.049123 0.703721 112 115 127 255
-0.348902 0.201438 0.717113 0.710039 -0.051770 0.702257 112 115 127 255
-0.379136 0.218894 0.749628 0.714410 -0.061061 0.697058 112 115 127 255
0.047023 -0.415598 0.749490 -0.311846 0.638380 0.703721 112 115 127 255
-0.000000 -0.402877 0.717113 -0.310185 0.640796 0.702257 112 115 127 255
-0.000000 -0.437788 0.749628 -0.304324 0.649228 0.697058 112 115 127 255
0.336407 0.248522 0.749490 -0.396930 -0.589256 0.703722 112 115 127 255
0.348902 0.201438 0.717113 -0.399853 -0.589025 0.702258 112 115 127 255
0.379136 0.218894 0.749628 -0.410086 -0.588165 0.697059 112 115 127 255
-0.047023 0.415597 0.749490 0.311846 -0.638380 0.703721 112 115 127 255
0.000000 0.402877 0.717113 0.310185 -0.640796 0.702258 112 115 127 255
0.000000 0.437788 0.749628 0.304324 -0.649227 0.697058 112 115 127 255
-0.336407 -0.248522 0.749490 0.396930 0.589257 0.703721 112 115 127 255
-0.348902 -0.201439 0.717113 0.399853 0.589026 0.702258 112 115 127 255
-0.379136 -0.218894 0.749628 0.410085 0.588167 0.697058 112 115 127 255
0.383430 -0.167076 0.749490 -0.708777 0.049123 0.703720 112 115 127 255
0.348902 -0.201439 0.717113 -0.710039 0.051770 0.702257 112 115 127 255
0.379136 -0.218894 0.749628 -0.714410 0.061061 0.697058 112 115 127 255
0.047023 -0.415598 0.749490 -0.357248 0.618772 0.699639 112 115 127 255
0.312202 -0.233750 0.724066 -0.357249 0.618773 0.699638 112 115 127 255
0.046332 -0.387250 0.724066 -0.357248 0.618772 0.699639 112 115 127 255
-0.312202 -0.233750 0.724066 0.357248 0.618772 0.699639 112 115 127 255
-0.047023 -0.415598 0.749490 0.357249 0.618773 0.699638 112 115 127 255
-0.046332 -0.387250 0.724066 0.357249 0.618773 0.699638 112 115 127 255
-0.383430 0.167075 0.749490 0.714496 -0.000000 0.699639 112 115 127 255
-0.358534 -0.153500 0.724066 0.714497 -0.000000 0.699638 112 115 127 255
-0.358534 0.153500 0.724066 0.714496 -0.000000 0.699639 112 115 127 255
-0.312202 0.233750 0.724066 0.357248 -0.618772 0.699640 112 115 127 255
-0.047023 0.415597 0.749490 0.357248 -0.618772 0.699639 112 115 127 255
-0.336407 0.248522 0.749490 0.357248 -0.618772 0.699640 112 115 127 255
0.047023 0.415597 0.749490 -0.357248 -0.618772 0.699639 112 115 127 255
0.312202 0.233750 0.724066 -0.357248 -0.618771 0.699641 112 115 127 255
0.336407 0.248522 0.749490 -0.357247 -0.618771 0.699641 112 115 127 255
0.358534 0.153500 0.724066 -0.714497 0.000001 0.699638 112 115 127 255
0.383430 -0.167076 0.749490 -0.714496 0.000001 0.699639 112 115 127 255
0.383430 0.167075 0.749490 -0.714497 0.000001 0.699638 112 115 127 255
-0.358534 0.153500 0.724066 0.870105 -0.103710 0.481832 112 115 127 255
-0.232762 0.134385 0.492828 0.871199 -0.094800 0.481691 112 115 127 255
-0.348902 0.201438 0.717113 0.869951 -0.104914 0.481848 112 115 127 255
0.046332 -0.387250 0.724066 -0.345236 0.805388 0.481832 112 115 127 255
-0.000000 -0.268770 0.492828 -0.353501 0.801880 0.481690 112 115 127 255
-0.000000 -0.402877 0.717113 -0.344117 0.805857 0.481848 112 115 127 255
0.312202 0.233750 0.724066 -0.524869 -0.701677 0.481832 112 115 127 255
0.232762 0.134385 0.492828 -0.517698 -0.707080 0.481691 112 115 127 255
0.348902 0.201438 0.717113 -0.525834 -0.700943 0.481848 112 115 127 255
-0.046332 0.387250 0.724066 0.345236 -0.805388 0.481833 112 115 127 255
0.000000 0.268770 0.492828 0.353501 -0.801880 0.481691 112 115 127 255
0.000000 0.402877 0.717113 0.344117 -0.805857 0.481849 112 115 127 255
-0.312202 -0.233750 0.724066 0.524868 0.701678 0.481832 112 115 127 255
-0.232762 -0.134385 0.492828 0.517698 0.707081 0.481690 112 115 127 255
-0.348902 -0.201439 0.717113 0.525834 0.700943 0.481848 112 115 127 255
0.358534 -0.153500 0.724066 -0.870105 0.103710 0.481832 112 115 127 255
0.232762 -0.134385 0.492828 -0.871199 0.094800 0.481691 112 115 127 255
0.348902 -0.201439 0.717113 -0.869951 0.104914 0.481848 112 115 127 255
-0.245477 0.095241 0.508259 -0.495706 0.478038 0.725090 112 115 127 255
-0.144613 0.083492 0.584960 -0.440855 0.596108 0.671045 112 115 127 255
-0.232762 0.134385 0.492828 -0.505397 0.453540 0.734081 112 115 127 255
0.040257 -0.260210 0.508259 -0.166140 -0.668313 0.725090 112 115 127 255
-0.000000 -0.166985 0.584960 -0.295817 -0.679846 0.671046 112 115 127 255
-0.000000 -0.268770 0.492828 -0.140079 -0.664456 0.734082 112 115 127 255
0.205220 0.164969 0.508259 0.661846 0.190275 0.725090 112 115 127 255
0.144613 0.083492 0.584960 0.736672 0.083737 0.671046 112 115 127 255
0.232762 0.134385 0.492828 0.645476 0.210916 0.734082 112 115 127 255
-0.040257 0.260210 0.508259 0.166140 0.668313 0.725090 112 115 127 255
0.000000 0.166985 0.584960 0.295817 0.679846 0.671045 112 115 127 255
0.000000 0.268770 0.492828 0.140079 0.664457 0.734081 112 115 127 255
-0.205220 -0.164969 0.508259 -0.661845 -0.190274 0.725091 112 115 127 255
-0.144613 -0.083493 0.584960 -0.736672 -0.083737 0.671046 112 115 127 255
-0.232762 -0.134385 0.492828 -0.645475 -0.210915 0.734082 112 115 127 255
0.245477 -0.095241 0.508259 0.495705 -0.478038 0.725091 112 115 127 255
0.144613 -0.083493 0.584960 0.440855 -0.596108 0.671046 112 115 127 255
0.232762 -0.134385 0.492828 0.505396 -0.453540 0.734082 112 115 127 255
-0.040257 -0.260210 0.508259 0.166140 -0.668313 0.725090 112 115 127 255
-0.000000 -0.166985 0.584960 0.295816 -0.679846 0.671046 112 115 127 255
-0.029869 -0.170516 0.596384 0.330541 -0.680652 0.653801 112 115 127 255
-0.046332 -0.387250 0.724066 0.345236 0.805388 0.481832 112 115 127 255
-0.000000 -0.268770 0.492828 0.353501 0.801880 0.481690 112 115 127 255
-0.040257 -0.260210 0.508259 0.354993 0.801238 0.481661 112 115 127 255
-0.047023 -0.415598 0.749490 0.311846 0.638381 0.703720 112 115 127 255
-0.000000 -0.402877 0.717113 0.310185 0.640797 0.702257 112 115 127 255
-0.046332 -0.387250 0.724066 0.318496 0.628590 0.709531 112 115 127 255
-0.057781 -0.503871 0.877086 0.356116 0.753789 0.552253 112 115 127 255
-0.000000 -0.437788 0.749628 0.354981 0.754450 0.552081 112 115 127 255
-0.047023 -0.415598 0.749490 0.354530 0.754712 0.552012 112 115 127 255
-0.245477 -0.095241 0.508259 -0.495705 -0.478038 0.725091 112 115 127 255
-0.144613 -0.083493 0.584960 -0.440854 -0.596108 0.671046 112 115 127 255
-0.162606 -0.059391 0.596384 -0.424190 -0.626584 0.653800 112 115 127 255
-0.358534 -0.153500 0.724066 0.870104 0.103712 0.481832 112 115 127 255
-0.232762 -0.134385 0.492828 0.871199 0.094799 0.481691 112 115 127 255
-0.245477 -0.095241 0.508259 0.871389 0.093186 0.481661 112 115 127 255
-0.383430 -0.167076 0.749490 0.708776 0.049124 0.703721 112 115 127 255
-0.348902 -0.201439 0.717113 0.710038 0.051771 0.702258 112 115 127 255
-0.358534 -0.153500 0.724066 0.703623 0.038471 0.709532 112 115 127 255
-0.465255 -0.201896 0.877086 0.830858 0.068490 0.552253 112 115 127 255
-0.379136 -0.218894 0.749628 0.830863 0.069803 0.552081 112 115 127 255
-0.383430 -0.167076 0.749490 0.830865 0.070324 0.552013 112 115 127 255
-0.205220 0.164969 0.508259 -0.661846 0.190276 0.725090 112 115 127 255
-0.144613 0.083492 0.584960 -0.736672 0.083739 0.671046 112 115 127 255
-0.132737 0.111125 0.596384 -0.754732 0.054070 0.653801 112 115 127 255
-0.312202 0.233750 0.724066 0.524869 -0.701677 0.481832 112 115 127 255
-0.232762 0.134385 0.492828 0.517698 -0.707081 0.481691 112 115 127 255
-0.205220 0.164969 0.508259 0.516396 -0.708052 0.481661 112 115 127 255
-0.336407 0.248522 0.749490 0.396931 -0.589256 0.703721 112 115 127 255
-0.348902 0.201438 0.717113 0.399854 -0.589025 0.702258 112 115 127 255
-0.312202 0.233750 0.724066 0.385127 -0.590119 0.709533 112 115 127 255
-0.407474 0.301975 0.877086 0.474743 -0.685299 0.552253 112 115 127 255
-0.379136 0.218894 0.749628 0.475883 -0.684647 0.552082 112 115 127 255
-0.336407 0.248522 0.749490 0.476336 -0.684387 0.552013 112 115 127 255
0.040257 0.260210 0.508259 -0.166140 0.668313 0.725090 112 115 127 255
0.000000 0.166985 0.584960 -0.295817 0.679846 0.671045 112 115 127 255
0.029869 0.170516 0.596384 -0.330541 0.680652 0.653800 112 115 127 255
0.046332 0.387250 0.724066 -0.345236 -0.805388 0.481833 112 115 127 255
0.000000 0.268770 0.492828 -0.353501 -0.801879 0.481691 112 115 127 255
0.040257 0.260210 0.508259 -0.354993 -0.801238 0.481661 112 115 127 255
0.047023 0.415597 0.749490 -0.311846 -0.638380 0.703721 112 115 127 255
0.000000 0.402877 0.717113 -0.310185 -0.640796 0.702258 112 115 127 255
0.046332 0.387250 0.724066 -0.318496 -0.628589 0.709532 112 115 127 255
0.057781 0.503870 0.877086 -0.356116 -0.753789 0.552253 112 115 127 255
0.000000 0.437788 0.749628 -0.354981 -0.754450 0.552082 112 115 127 255
0.047023 0.415597 0.749490 -0.354530 -0.754712 0.552013 112 115 127 255
0.245477 0.095241 0.508259 0.495706 0.478038 0.725090 112 115 127 255
0.144613 0.083492 0.584960 0.440855 0.596109 0.671045 112 115 127 255
0.162606 0.059391 0.596384 0.424191 0.626584 0.653800 112 115 127 255
0.358534 0.153500 0.724066 -0.870104 -0.103712 0.481832 112 115 127 255
0.232762 0.134385 0.492828 -0.871199 -0.094799 0.481691 112 115 127 255
0.245477 0.095241 0.508259 -0.871389 -0.093186 0.481661 112 115 127 255
0.383430 0.167075 0.749490 -0.708776 -0.049124 0.703721 112 115 127 255
0.348902 0.201438 0.717113 -0.710038 -0.051771 0.702258 112 115 127 255
0.358534 0.153500 0.724066 -0.703623 -0.038471 0.709532 112 115 127 255
0.465255 0.201895 0.877086 -0.830858 -0.068489 0.552253 112 115 127 255
0.379136 0.218894 0.749628 -0.830863 -0.069803 0.552081 112 115 127 255
0.383430 0.167075 0.749490 -0.830865 -0.070324 0.552013 112 115 127 255
0.205220 -0.164969 0.508259 0.661845 -0.190275 0.725091 112 115 127 255
0.144613 -0.083493 0.584960 0.736673 -0.083737 0.671045 112 115 127 255
0.132737 -0.111125 0.596384 0.754733 -0.054068 0.653800 112 115 127 255
0.312202 -0.233750 0.724066 -0.524869 0.701677 0.481832 112 115 127 255
0.232762 -0.134385 0.492828 -0.517698 0.707081 0.481690 112 115 127 255
0.205220 -0.164969 0.508259 -0.516396 0.708053 0.481661 112 115 127 255
0.336407 -0.248522 0.749490 -0.396930 0.589257 0.703720 112 115 127 255
0.348902 -0.201439 0.717113 -0.399853 0.589027 0.702257 112 115 127 255
0.312202 -0.233750 0.724066 -0.385127 0.590121 0.709532 112 115 127 255
0.407474 -0.301975 0.877086 -0.474743 0.685300 0.552253 112 115 127 255
0.379136 -0.218894 0.749628 -0.475882 0.684648 0.552081 112 115 127 255
0.336407 -0.248522 0.749490 -0.476335 0.684388 0.552013 112 115 127 255
-0.336407 -0.248522 0.749490 0.476335 0.684388 0.552013 112 115 127 255
0.047023 -0.415598 0.749490 -0.354529 0.754713 0.552012 112 115 127 255
0.383430 -0.167076 0.749490 -0.830865 0.070324 0.552013 112 115 127 255
0.336407 0.248522 0.749490 -0.476336 -0.684387 0.552013 112 115 127 255
-0.047023 0.415597 0.749490 0.354530 -0.754712 0.552013 112 115 127 255
-0.383430 0.167075 0.749490 0.830865 -0.070324 0.552013 112 115 127 255
-0.358534 0.153500 0.724066 0.703622 -0.038468 0.709532 112 115 127 255
0.046332 -0.387250 0.724066 -0.318496 0.628589 0.709532 112 115 127 255
0.312202 0.233750 0.724066 -0.385125 -0.590119 0.709534 112 115 127 255
-0.046332 0.387250 0.724066 0.318496 -0.628589 0.709532 112 115 127 255
-0.312202 -0.233750 0.724066 0.385125 0.590120 0.709532 112 115 127 255
0.358534 -0.153500 0.724066 -0.703623 0.038468 0.709532 112 115 127 255
0.336407 -0.248522 0.749490 -0.357249 0.618773 0.699638 112 115 127 255
-0.336407 -0.248522 0.749490 0.357248 0.618772 0.699639 112 115 127 255
-0.383430 -0.167076 0.749490 0.714497 -0.000000 0.699638 112 115 127 255
-0.046332 0.387250 0.724066 0.357248 -0.618772 0.699639 112 115 127 255
0.046332 0.387250 0.724066 -0.357248 -0.618772 0.699639 112 115 127 255
0.358534 -0.153500 0.724066 -0.714496 0.000001 0.699639 112 115 127 255
-0.245477 0.095241 0.508259 0.871389 -0.093187 0.481661 112 115 127 255
0.040257 -0.260210 0.508259 -0.354993 0.801238 0.481661 112 115 127 255
0.205220 0.164969 0.508259 -0.516397 -0.708052 0.481661 112 115 127 255
-0.040257 0.260210 0.508259 0.354993 -0.801238 0.481661 112 115 127 255
-0.205220 -0.164969 0.508259 0.516397 0.708052 0.481661 112 115 127 255
0.245477 -0.095241 0.508259 -0.871389 0.093187 0.481661 112 115 127 255
-0.162606 0.059391 0.596384 -0.424192 0.626583 0.653800 112 115 127 255
0.029869 -0.170516 0.596384 -0.330541 -0.680652 0.653800 112 115 127 255
0.132737 0.111125 0.596384 0.754733 0.054068 0.653800 112 115 127 255
-0.029869 0.170516 0.596384 0.330542 0.680652 0.653800 112 115 127 255
-0.132737 -0.111125 0.596384 -0.754733 -0.054068 0.653800 112 115 127 255
0.162606 -0.059391 0.596384 0.424191 -0.626584 0.653801 112 115 127 255
-0.000000 -0.268770 0.492828 0.140079 -0.664456 0.734082 112 115 127 255
-0.000000 -0.402877 0.717113 0.344117 0.805857 0.481848 112 115 127 255
-0.000000 -0.437788 0.749628 0.304325 0.649228 0.697058 112 115 127 255
-0.000000 -0.525800 0.869706 0.356535 0.753545 0.552316 112 115 127 255
-0.232762 -0.134385 0.492828 -0.505396 -0.453540 0.734082 112 115 127 255
-0.348902 -0.201439 0.717113 0.869951 0.104916 0.481848 112 115 127 255
-0.379136 -0.218894 0.749628 0.714409 0.061061 0.697059 112 115 127 255
-0.455356 -0.262900 0.869706 0.830856 0.068004 0.552316 112 115 127 255
-0.232762 0.134385 0.492828 -0.645476 0.210917 0.734081 112 115 127 255
-0.348902 0.201438 0.717113 0.525835 -0.700942 0.481849 112 115 127 255
-0.379136 0.218894 0.749628 0.410086 -0.588165 0.697059 112 115 127 255
-0.455356 0.262900 0.869706 0.474321 -0.685540 0.552317 112 115 127 255
0.000000 0.268770 0.492828 -0.140079 0.664456 0.734081 112 115 127 255
0.000000 0.402877 0.717113 -0.344117 -0.805857 0.481849 112 115 127 255
0.000000 0.437788 0.749628 -0.304324 -0.649227 0.697058 112 115 127 255
0.000000 0.525800 0.869706 -0.356535 -0.753544 0.552317 112 115 127 255
0.232762 0.134385 0.492828 0.505397 0.453540 0.734082 112 115 127 255
0.348902 0.201438 0.717113 -0.869951 -0.104916 0.481849 112 115 127 255
0.379136 0.218894 0.749628 -0.714409 -0.061061 0.697059 112 115 127 255
0.455356 0.262900 0.869706 -0.830856 -0.068004 0.552316 112 115 127 255
0.232762 -0.134385 0.492828 0.645475 -0.210916 0.734082 112 115 127 255
0.348902 -0.201439 0.717113 -0.525834 0.700943 0.481848 112 115 127 255
0.379136 -0.218894 0.749628 -0.410085 0.588167 0.697058 112 115 127 255
0.455356 -0.262900 0.869706 -0.474322 0.685541 0.552316 112 115 127 255
-0.048955 -0.152432 0.060000 -0.793683 -0.580783 0.180995 112 115 127 255
0.000000 0.000000 0.763804 -0.793683 -0.580783 0.180995 112 115 127 255
-0.160100 -0.000545 0.060000 -0.793683 -0.580783 0.180995 112 115 127 255
-0.160100 -0.000545 0.060000 -0.797619 0.575365 0.180995 112 115 127 255
0.000000 0.000000 0.763804 -0.797619 0.575365 0.180995 112 115 127 255
-0.049992 0.152096 0.060000 -0.797619 0.575365 0.180995 112 115 127 255
-0.049992 0.152096 0.060000 0.300727 0.936378 0.180995 112 115 127 255
0.000000 0.000000 0.763804 0.300727 0.936378 0.180995 112 115 127 255
0.129203 0.094545 0.060000 0.300727 0.936378 0.180995 112 115 127 255
0.129203 0.094545 0.060000 0.983478 0.003348 0.180995 112 115 127 255
0.000000 0.000000 0.763804 0.983478 0.003348 0.180995 112 115 127 255
0.129844 -0.093663 0.060000 0.983478 0.003348 0.180995 112 115 127 255
0.129844 -0.093663 0.060000 0.307096 -0.934309 0.180995 112 115 127 255
0.000000 0.000000 0.763804 0.307096 -0.934309 0.180995 112 115 127 255
-0.048955 -0.152432 0.060000 0.307096 -0.934309 0.180995 112 115 127 255
-0.649519 -0.375000 0.030000 -0.500000 -0.866025 0.000000 64 1 64 255
0.000000 -0.750000 0.060000 -0.500000 -0.866025 0.000000 64 0 0 255
-0.649519 -0.375000 0.060000 -0.500000 -0.866025 0.000000 64 0 64 255
0.649519 -0.375000 0.060000 0.500000 -0.866025 0.000000 64 64 0 255
0.000000 -0.750000 0.030000 0.500000 -0.866025 0.000000 64 0 0 255
0.649519 -0.375000 0.030000 0.500000 -0.866025 0.000000 64 64 0 255
-0.649519 0.375000 0.030000 -0.500000 0.866025 -0.000000 0 0 64 255
-0.000000 0.750000 0.060000 -0.500000 0.866025 -0.000001 1 64 64 255
0.000000 0.750000 0.030000 -0.500000 0.866025 -0.000001 3 64 64 255
0.649519 0.375000 0.030000 0.500000 0.866025 0.000000 0 64 0 255
-0.000000 0.750000 0.060000 0.500000 0.866025 0.000001 1 64 64 255
0.649519 0.375000 0.060000 0.500000 0.866025 0.000000 0 64 0 255
-0.649519 -0.375000 0.060000 -1.000000 -0.000000 0.000000 64 0 64 255
-0.649519 0.375000 0.030000 -1.000000 -0.000000 0.000000 0 0 64 255
-0.649519 -0.375000 0.030000 -1.000000 -0.000000 0.000000 64 1 64 255
0.649519 0.375000 0.060000 1.000000 0.000000 0.000000 0 64 0 255
0.649519 -0.375000 0.030000 1.000000 0.000000 0.000000 64 64 0 255
0.649519 0.375000 0.030000 1.000000 0.000000 0.000000 0 64 0 255
0.649519 0.375000 0.060000 0.000000 0.000000 1.000000 0 64 0 255
-0.649519 0.375000 0.060000 0.000000 0.000000 1.000000 0 0 64 255
0.000000 -0.750000 0.060000 0.000000 0.000000 1.000000 64 0 0 255
0.000000 -0.750000 0.030000 -0.500000 -0.866025 0.000000 64 0 0 255
0.000000 -0.750000 0.060000 0.500000 -0.866025 0.000000 64 0 0 255
-0.649519 0.375000 0.060000 -0.500000 0.866025 0.000000 0 0 64 255
0.000000 0.750000 0.030000 0.500000 0.866025 0.000001 3 64 64 255
-0.649519 0.375000 0.060000 -1.000000 -0.000000 0.000000 0 0 64 255
0.649519 -0.375000 0.060000 1.000000 0.000000 0.000000 64 64 0 255
0.649519 -0.375000 0.060000 0.000000 0.000000 1.000000 64 64 0 255
-0.000000 0.750000 0.060000 0.000000 0.000000 1.000000 1 64 64 255
-0.649519 -0.375000 0.060000 0.000000 0.000000 1.000000 64 0 64 255
3 0 1 2
3 3 4 5
3 6 7 8
3 9 10 11
3 12 13 14
3 15 16 17
3 18 19 20
3 21 22 23
3 24 25 26
3 27 28 29
3 0 30 1
3 3 31 4
3 6 32 7
3 11 33 34
3 33 35 34
3 34 9 11
3 12 36 13
3 15 37 16
3 18 38 19
3 21 39 22
3 24 40 25
3 28 41 29
3 29 42 27
3 42 43 27
3 44 45 46
3 47 48 49
3 50 51 52
3 53 54 55
3 56 57 58
3 59 60 61
3 62 63 64
3 65 66 67
3 68 69 70
3 71 72 73
3 74 75 76
3 77 78 79
3 80 81 82
3 83 84 85
3 86 87 88
3 89 90 91
3 92 93 94
3 95 96 97
3 98 99 100
3 101 102 103
3 104 105 106
3 107 108 109
3 110 111 112
3 113 114 115
3 116 117 118
3 119 120 121
3 122 123 124
3 125 126 127
3 128 129 130
3 131 132 133
3 134 135 136
3 137 138 139
3 140 141 142
3 143 144 145
3 146 147 148
3 149 150 151
3 152 153 154
3 155 156 157
3 158 159 160
3 161 162 163
3 164 165 166
3 167 168 169
3 170 171 172
3 173 174 175
3 176 177 178
3 179 180 181
3 182 183 184
3 185 186 187
3 188 189 190
3 191 192 193
3 194 195 196
3 197 198 199
3 200 201 202
3 203 204 205
3 206 207 208
3 209 210 211
3 212 213 214
3 215 216 217
3 218 219 220
3 221 222 223
3 224 225 226
3 227 228 229
3 230 231 232
3 233 234 235
3 236 237 238
3 239 240 241
3 242 243 244
3 245 246 247
3 248 249 250
3 251 252 253
3 254 255 256
3 257 258 259
3 260 261 262
3 263 264 265
3 104 266 105
3 107 267 108
3 110 268 111
3 113 269 114
3 116 270 117
3 119 271 120
3 122 272 123
3 125 273 126
3 128 274 129
3 131 275 132
3 134 276 135
3 137 277 138
3 140 278 141
3 143 279 144
3 146 280 147
3 149 281 150
3 152 282 153
3 155 283 156
3 158 284 159
3 161 285 162
3 164 286 165
3 167 287 168
3 170 288 171
3 173 289 174
3 176 290 177
3 179 291 180
3 182 292 183
3 185 293 186
3 188 294 189
3 191 295 192
3 194 296 195
3 197 297 198
3 200 298 201
3 203 299 204
3 206 300 207
3 209 301 210
3 212 302 213
3 215 303 216
3 218 304 219
3 221 305 222
3 224 306 225
3 227 307 228
3 230 308 231
3 233 309 234
3 236 310 237
3 239 311 240
3 242 312 243
3 245 313 246
3 248 314 249
3 251 315 252
3 254 316 255
3 257 317 258
3 260 318 261
3 263 319 264
3 320 321 322
3 323 324 325
3 326 327 328
3 329 330 331
3 332 333 334
3 335 336 337
3 338 339 340
3 341 342 343
3 344 345 346
3 347 348 349
3 350 351 352
3 353 354 355
3 335 356 336
3 338 357 339
3 341 358 342
3 344 359 345
3 347 360 348
3 350 361 351
3 355 362 353
3 353 363 354
3 354 364 355
