ply
format ascii 1.0
comment Created by Blender 3.6.0 - www.blender.org
element vertex 462
property float x
property float y
property float z
property float nx
property float ny
property float nz
property uchar red
property uchar green
property uchar blue
property uchar alpha
element face 154
property list uchar uint vertex_indices
end_header
0.000000 0.000000 0.375780 0.074882 0.609886 -0.788943 16 16 16 255
-0.145426 0.262351 0.564785 0.074882 0.609886 -0.788943 48 134 134 255
0.204572 0.219379 0.564785 0.074882 0.609886 -0.788943 16 128 16 255
-0.145426 0.262351 0.564785 -0.556893 0.259684 -0.788945 48 134 134 255
0.000000 0.000000 0.375780 -0.556893 0.259684 -0.788945 16 16 16 255
-0.294450 -0.057234 0.564785 -0.556893 0.259684 -0.788945 128 1 128 255
0.000000 0.000000 0.375780 0.603173 0.117252 -0.788945 16 16 16 255
0.204572 0.219379 0.564785 0.603174 0.117252 -0.788945 16 128 16 255
0.271860 -0.126771 0.564785 0.603173 0.117252 -0.788945 129 129 3 255
0.000000 0.000000 0.375780 0.297892 -0.537426 -0.788945 16 16 16 255
0.271860 -0.126771 0.564785 0.297892 -0.537426 -0.788945 129 129 3 255
-0.036558 -0.297725 0.564785 0.297892 -0.537426 -0.788945 128 0 0 255
0.000000 0.000000 0.375780 -0.419067 -0.449390 -0.788943 16 16 16 255
-0.036558 -0.297725 0.564785 -0.419067 -0.449390 -0.788943 128 0 0 255
-0.294450 -0.057234 0.564785 -0.419067 -0.449390 -0.788944 128 1 128 255
-0.145426 0.262351 0.564785 -0.890812 0.415392 -0.184129 48 134 134 255
-0.294450 -0.057234 0.564785 -0.890812 0.415392 -0.184129 128 1 128 255
-0.271860 0.126771 0.870604 -0.890812 0.415392 -0.184129 36 36 255 255
0.204572 0.219379 0.564785 0.119781 0.975578 -0.184122 16 128 16 255
-0.145426 0.262351 0.564785 0.119781 0.975578 -0.184122 48 134 134 255
0.036558 0.297725 0.870604 0.119781 0.975578 -0.184122 36 255 255 255
0.271860 -0.126771 0.564785 0.964843 0.187557 -0.184120 129 129 3 255
0.204572 0.219379 0.564785 0.964843 0.187557 -0.184120 16 128 16 255
0.294450 0.057234 0.870604 0.964843 0.187557 -0.184120 39 255 39 255
-0.036558 -0.297725 0.564785 0.476512 -0.859672 -0.184120 128 0 0 255
0.271860 -0.126771 0.564785 0.476512 -0.859672 -0.184120 129 129 3 255
0.145426 -0.262351 0.870604 0.476512 -0.859672 -0.184120 255 255 32 255
-0.294450 -0.057234 0.564785 -0.670342 -0.718847 -0.184122 128 1 128 255
-0.036558 -0.297725 0.564785 -0.670342 -0.718847 -0.184122 128 0 0 255
-0.204572 -0.219379 0.870604 -0.670342 -0.718847 -0.184122 255 0 0 255
-0.145426 0.262351 0.564785 -0.476512 0.859672 0.184120 48 134 134 255
-0.271860 0.126771 0.870604 -0.476512 0.859672 0.184120 36 36 255 255
0.036558 0.297725 0.870604 -0.476512 0.859672 0.184120 36 255 255 255
0.204572 0.219379 0.564785 0.670342 0.718847 0.184122 16 128 16 255
0.036558 0.297725 0.870604 0.670342 0.718847 0.184122 36 255 255 255
0.294450 0.057234 0.870604 0.670342 0.718847 0.184122 39 255 39 255
0.271860 -0.126771 0.564785 0.890812 -0.415392 0.184129 129 129 3 255
0.294450 0.057234 0.870604 0.890812 -0.415392 0.184129 39 255 39 255
0.145426 -0.262351 0.870604 0.890812 -0.415392 0.184129 255 255 32 255
-0.036558 -0.297725 0.564785 -0.119781 -0.975578 0.184122 128 0 0 255
0.145426 -0.262351 0.870604 -0.119781 -0.975578 0.184122 255 255 32 255
-0.204572 -0.219379 0.870604 -0.119781 -0.975578 0.184122 255 0 0 255
-0.294450 -0.057234 0.564785 -0.964843 -0.187557 0.184120 128 1 128 255
-0.204572 -0.219379 0.870604 -0.964843 -0.187557 0.184120 255 0 0 255
-0.271860 0.126771 0.870604 -0.964843 -0.187557 0.184120 36 36 255 255
0.036558 0.297725 0.870604 -0.297892 0.537426 0.788944 36 255 255 255
-0.271860 0.126771 0.870604 -0.297893 0.537426 0.788945 36 36 255 255
0.000000 0.000000 1.059610 -0.297893 0.537426 0.788945 255 255 255 255
0.294450 0.057234 0.870604 0.419067 0.449390 0.788943 39 255 39 255
0.036558 0.297725 0.870604 0.419067 0.449390 0.788943 36 255 255 255
0.000000 0.000000 1.059610 0.419067 0.449390 0.788943 255 255 255 255
0.145426 -0.262351 0.870604 0.556894 -0.259684 0.788945 255 255 32 255
0.294450 0.057234 0.870604 0.556894 -0.259684 0.788945 39 255 39 255
0.000000 0.000000 1.059610 0.556894 -0.259684 0.788945 255 255 255 255
-0.204572 -0.219379 0.870604 -0.074882 -0.609886 0.788943 255 0 0 255
0.145426 -0.262351 0.870604 -0.074882 -0.609886 0.788943 255 255 32 255
0.000000 0.000000 1.059610 -0.074882 -0.609886 0.788943 255 255 255 255
-0.271860 0.126771 0.870604 -0.603174 -0.117252 0.788945 36 36 255 255
-0.204572 -0.219379 0.870604 -0.603174 -0.117252 0.788945 255 0 0 255
0.000000 0.000000 1.059610 -0.603174 -0.117252 0.788945 255 255 255 255
-0.419029 0.241926 0.125837 -0.409806 0.712148 0.570004 112 115 127 255
-0.462365 0.317709 0.000000 -0.409806 0.712148 0.570004 112 115 127 255
-0.506399 0.292369 0.000000 -0.409806 0.712148 0.570004 112 115 127 255
-0.000000 0.483852 0.125837 0.411835 0.710976 0.570004 112 115 127 255
0.043962 0.559274 0.000000 0.411835 0.710976 0.570004 112 115 127 255
-0.000000 0.584739 0.000000 0.411834 0.710976 0.570004 112 115 127 255
0.419028 0.241926 0.125837 0.821641 -0.001172 0.570004 112 115 127 255
0.506326 0.241565 0.000000 0.821641 -0.001172 0.570004 112 115 127 255
0.506399 0.292369 0.000000 0.821641 -0.001172 0.570004 112 115 127 255
0.419029 -0.241926 0.125837 0.409806 -0.712148 0.570004 112 115 127 255
0.462365 -0.317709 0.000000 0.409806 -0.712148 0.570004 112 115 127 255
0.506399 -0.292369 0.000000 0.409806 -0.712148 0.570004 112 115 127 255
0.000000 -0.483852 0.125837 -0.411835 -0.710976 0.570004 112 115 127 255
-0.043962 -0.559274 0.000000 -0.411835 -0.710976 0.570004 112 115 127 255
0.000000 -0.584739 0.000000 -0.411834 -0.710976 0.570004 112 115 127 255
-0.419028 -0.241926 0.125837 -0.821641 0.001172 0.570004 112 115 127 255
-0.506326 -0.241565 0.000000 -0.821641 0.001172 0.570004 112 115 127 255
-0.506399 -0.292369 0.000000 -0.821641 0.001172 0.570004 112 115 127 255
-0.397579 -0.229543 0.194816 -0.954967 0.001360 0.296708 112 115 127 255
-0.418969 -0.199887 0.125837 -0.954967 0.001360 0.296708 112 115 127 255
-0.419028 -0.241926 0.125837 -0.954967 0.001360 0.296708 112 115 127 255
-0.000000 0.459085 0.194816 0.478662 0.826346 0.296708 112 115 127 255
0.036377 0.462781 0.125837 0.478662 0.826346 0.296708 112 115 127 255
-0.000000 0.483852 0.125837 0.478662 0.826346 0.296708 112 115 127 255
0.397579 -0.229543 0.194816 0.476305 -0.827707 0.296708 112 115 127 255
0.382592 -0.262894 0.125837 0.476305 -0.827707 0.296708 112 115 127 255
0.419029 -0.241926 0.125837 0.476305 -0.827707 0.296708 112 115 127 255
0.000000 -0.459085 0.194816 -0.478662 -0.826346 0.296708 112 115 127 255
-0.036377 -0.462781 0.125837 -0.478662 -0.826346 0.296708 112 115 127 255
0.000000 -0.483852 0.125837 -0.478662 -0.826346 0.296708 112 115 127 255
-0.397579 0.229543 0.194816 -0.476305 0.827707 0.296708 112 115 127 255
-0.382592 0.262894 0.125837 -0.476305 0.827707 0.296708 112 115 127 255
-0.419029 0.241926 0.125837 -0.476305 0.827707 0.296708 112 115 127 255
0.397579 0.229543 0.194816 0.954967 -0.001360 0.296708 112 115 127 255
0.418969 0.199887 0.125837 0.954967 -0.001360 0.296708 112 115 127 255
0.419028 0.241926 0.125837 0.954967 -0.001360 0.296708 112 115 127 255
0.034515 0.439092 0.194816 0.477455 0.826977 0.296893 112 115 127 255
0.382592 0.262894 0.125837 0.477455 0.826977 0.296892 112 115 127 255
0.036377 0.462781 0.125837 0.477455 0.826977 0.296892 112 115 127 255
-0.034515 0.439092 0.194816 -0.477455 0.826977 0.296892 112 115 127 255
-0.382592 0.262894 0.125837 -0.477455 0.826977 0.296892 112 115 127 255
-0.363008 0.249437 0.194816 -0.477456 0.826977 0.296892 112 115 127 255
-0.397522 -0.189656 0.194816 -0.954911 -0.000000 0.296892 112 115 127 255
-0.418969 0.199887 0.125837 -0.954911 -0.000000 0.296892 112 115 127 255
-0.418969 -0.199887 0.125837 -0.954911 -0.000000 0.296892 112 115 127 255
-0.382592 -0.262894 0.125837 -0.477455 -0.826977 0.296892 112 115 127 255
-0.034515 -0.439092 0.194816 -0.477455 -0.826977 0.296892 112 115 127 255
-0.363008 -0.249437 0.194816 -0.477455 -0.826977 0.296892 112 115 127 255
0.382592 -0.262894 0.125837 0.477456 -0.826977 0.296892 112 115 127 255
0.034515 -0.439092 0.194816 0.477456 -0.826977 0.296892 112 115 127 255
0.036377 -0.462781 0.125837 0.477456 -0.826977 0.296892 112 115 127 255
0.418969 -0.199887 0.125837 0.954911 0.000000 0.296892 112 115 127 255
0.397522 0.189656 0.194816 0.954911 0.000000 0.296892 112 115 127 255
0.397523 -0.189656 0.194816 0.954911 0.000000 0.296892 112 115 127 255
-0.278759 -0.160942 0.404891 -0.870590 0.001240 0.492008 112 115 127 255
-0.397522 -0.189656 0.194816 -0.870590 0.001240 0.492008 112 115 127 255
-0.397579 -0.229543 0.194816 -0.870590 0.001240 0.492007 112 115 127 255
-0.000000 0.321883 0.404891 0.436370 0.753332 0.492007 112 115 127 255
0.034515 0.439092 0.194816 0.436370 0.753332 0.492007 112 115 127 255
-0.000000 0.459085 0.194816 0.436370 0.753332 0.492007 112 115 127 255
0.278759 -0.160941 0.404891 0.434220 -0.754574 0.492007 112 115 127 255
0.363008 -0.249437 0.194816 0.434220 -0.754574 0.492007 112 115 127 255
0.397579 -0.229543 0.194816 0.434220 -0.754574 0.492007 112 115 127 255
0.000000 -0.321883 0.404891 -0.436370 -0.753332 0.492007 112 115 127 255
-0.034515 -0.439092 0.194816 -0.436370 -0.753332 0.492007 112 115 127 255
0.000000 -0.459085 0.194816 -0.436370 -0.753332 0.492007 112 115 127 255
-0.278759 0.160941 0.404891 -0.434220 0.754574 0.492007 112 115 127 255
-0.363008 0.249437 0.194816 -0.434220 0.754574 0.492007 112 115 127 255
-0.397579 0.229543 0.194816 -0.434220 0.754574 0.492007 112 115 127 255
0.278759 0.160942 0.404891 0.870590 -0.001240 0.492008 112 115 127 255
0.397522 0.189656 0.194816 0.870590 -0.001240 0.492008 112 115 127 255
0.397579 0.229543 0.194816 0.870590 -0.001240 0.492007 112 115 127 255
-0.278759 -0.160942 0.404891 0.331910 0.529043 0.780993 112 115 127 255
-0.233110 -0.111215 0.351807 0.331910 0.529043 0.780993 112 115 127 255
-0.288045 -0.137424 0.392907 0.331910 0.529043 0.780993 112 115 127 255
-0.000000 0.321883 0.404891 0.292210 -0.551964 0.780992 112 115 127 255
0.020240 0.257487 0.351807 0.292210 -0.551964 0.780993 112 115 127 255
0.025009 0.318166 0.392907 0.292210 -0.551964 0.780993 112 115 127 255
0.278759 -0.160941 0.404891 -0.624119 0.022921 0.780993 112 115 127 255
0.212870 -0.146271 0.351807 -0.624119 0.022921 0.780993 112 115 127 255
0.263035 -0.180742 0.392907 -0.624119 0.022921 0.780993 112 115 127 255
0.000000 -0.321883 0.404891 -0.292210 0.551964 0.780992 112 115 127 255
-0.020240 -0.257487 0.351807 -0.292210 0.551964 0.780993 112 115 127 255
-0.025009 -0.318166 0.392907 -0.292210 0.551964 0.780992 112 115 127 255
-0.278759 0.160941 0.404891 0.624119 -0.022921 0.780993 112 115 127 255
-0.212870 0.146271 0.351807 0.624119 -0.022921 0.780993 112 115 127 255
-0.263035 0.180742 0.392907 0.624119 -0.022921 0.780993 112 115 127 255
0.278759 0.160942 0.404891 -0.331910 -0.529043 0.780993 112 115 127 255
0.233110 0.111215 0.351807 -0.331910 -0.529043 0.780993 112 115 127 255
0.288045 0.137424 0.392907 -0.331910 -0.529043 0.780993 112 115 127 255
-0.020240 0.257487 0.351807 -0.292210 -0.551964 0.780993 112 115 127 255
-0.000000 0.321883 0.404891 -0.292210 -0.551964 0.780992 112 115 127 255
-0.025009 0.318166 0.392907 -0.292210 -0.551964 0.780993 112 115 127 255
-0.034515 0.439092 0.194816 -0.436370 0.753332 0.492007 112 115 127 255
-0.000000 0.321883 0.404891 -0.436370 0.753332 0.492007 112 115 127 255
-0.000000 0.459085 0.194816 -0.436370 0.753332 0.492007 112 115 127 255
-0.036377 0.462781 0.125837 -0.478662 0.826346 0.296708 112 115 127 255
-0.000000 0.459085 0.194816 -0.478662 0.826346 0.296708 112 115 127 255
-0.000000 0.483852 0.125837 -0.478662 0.826346 0.296708 112 115 127 255
-0.043962 0.559274 0.000000 -0.411834 0.710976 0.570004 112 115 127 255
-0.000000 0.483852 0.125837 -0.411834 0.710976 0.570004 112 115 127 255
-0.000000 0.584739 0.000000 -0.411834 0.710976 0.570004 112 115 127 255
-0.233110 0.111215 0.351807 0.331910 -0.529043 0.780993 112 115 127 255
-0.278759 0.160941 0.404891 0.331910 -0.529043 0.780993 112 115 127 255
-0.288045 0.137424 0.392907 0.331910 -0.529043 0.780993 112 115 127 255
-0.397523 0.189656 0.194816 -0.870590 -0.001240 0.492008 112 115 127 255
-0.278759 0.160941 0.404891 -0.870590 -0.001240 0.492008 112 115 127 255
-0.397579 0.229543 0.194816 -0.870590 -0.001240 0.492008 112 115 127 255
-0.418969 0.199887 0.125837 -0.954967 -0.001361 0.296708 112 115 127 255
-0.397579 0.229543 0.194816 -0.954967 -0.001361 0.296708 112 115 127 255
-0.419029 0.241926 0.125837 -0.954967 -0.001361 0.296708 112 115 127 255
-0.506326 0.241565 0.000000 -0.821641 -0.001171 0.570004 112 115 127 255
-0.419029 0.241926 0.125837 -0.821641 -0.001171 0.570004 112 115 127 255
-0.506399 0.292369 0.000000 -0.821641 -0.001171 0.570004 112 115 127 255
-0.212870 -0.146271 0.351807 0.624120 0.022921 0.780993 112 115 127 255
-0.278759 -0.160942 0.404891 0.624120 0.022921 0.780993 112 115 127 255
-0.263035 -0.180742 0.392907 0.624120 0.022921 0.780993 112 115 127 255
-0.363008 -0.249437 0.194816 -0.434220 -0.754574 0.492007 112 115 127 255
-0.278759 -0.160942 0.404891 -0.434220 -0.754574 0.492007 112 115 127 255
-0.397579 -0.229543 0.194816 -0.434220 -0.754574 0.492007 112 115 127 255
-0.382592 -0.262894 0.125837 -0.476305 -0.827707 0.296708 112 115 127 255
-0.397579 -0.229543 0.194816 -0.476305 -0.827707 0.296708 112 115 127 255
-0.419028 -0.241926 0.125837 -0.476305 -0.827707 0.296708 112 115 127 255
-0.462365 -0.317709 0.000000 -0.409806 -0.712148 0.570004 112 115 127 255
-0.419028 -0.241926 0.125837 -0.409806 -0.712148 0.570004 112 115 127 255
-0.506399 -0.292369 0.000000 -0.409806 -0.712148 0.570004 112 115 127 255
0.020240 -0.257487 0.351807 0.292210 0.551964 0.780993 112 115 127 255
0.000000 -0.321883 0.404891 0.292210 0.551964 0.780993 112 115 127 255
0.025009 -0.318166 0.392907 0.292210 0.551964 0.780993 112 115 127 255
0.034515 -0.439092 0.194816 0.436370 -0.753332 0.492007 112 115 127 255
0.000000 -0.321883 0.404891 0.436370 -0.753332 0.492007 112 115 127 255
0.000000 -0.459085 0.194816 0.436370 -0.753332 0.492007 112 115 127 255
0.036377 -0.462781 0.125837 0.478662 -0.826346 0.296708 112 115 127 255
0.000000 -0.459085 0.194816 0.478662 -0.826346 0.296708 112 115 127 255
0.000000 -0.483852 0.125837 0.478662 -0.826346 0.296708 112 115 127 255
0.043962 -0.559274 0.000000 0.411835 -0.710976 0.570004 112 115 127 255
0.000000 -0.483852 0.125837 0.411834 -0.710976 0.570004 112 115 127 255
0.000000 -0.584739 0.000000 0.411834 -0.710976 0.570004 112 115 127 255
0.233110 -0.111215 0.351807 -0.331910 0.529043 0.780993 112 115 127 255
0.278759 -0.160941 0.404891 -0.331910 0.529043 0.780993 112 115 127 255
0.288045 -0.137424 0.392907 -0.331910 0.529043 0.780993 112 115 127 255
0.397523 -0.189656 0.194816 0.870590 0.001240 0.492008 112 115 127 255
0.278759 -0.160941 0.404891 0.870590 0.001240 0.492008 112 115 127 255
0.397579 -0.229543 0.194816 0.870590 0.001240 0.492008 112 115 127 255
0.418969 -0.199887 0.125837 0.954967 0.001361 0.296708 112 115 127 255
0.397579 -0.229543 0.194816 0.954967 0.001361 0.296708 112 115 127 255
0.419029 -0.241926 0.125837 0.954967 0.001361 0.296708 112 115 127 255
0.506326 -0.241565 0.000000 0.821641 0.001171 0.570004 112 115 127 255
0.419029 -0.241926 0.125837 0.821641 0.001171 0.570004 112 115 127 255
0.506399 -0.292369 0.000000 0.821641 0.001171 0.570004 112 115 127 255
0.212870 0.146271 0.351807 -0.624120 -0.022921 0.780993 112 115 127 255
0.278759 0.160942 0.404891 -0.624120 -0.022921 0.780993 112 115 127 255
0.263035 0.180742 0.392907 -0.624120 -0.022921 0.780993 112 115 127 255
0.363008 0.249437 0.194816 0.434220 0.754574 0.492007 112 115 127 255
0.278759 0.160942 0.404891 0.434220 0.754574 0.492007 112 115 127 255
0.397579 0.229543 0.194816 0.434220 0.754574 0.492007 112 115 127 255
0.382592 0.262894 0.125837 0.476305 0.827707 0.296708 112 115 127 255
0.397579 0.229543 0.194816 0.476305 0.827707 0.296708 112 115 127 255
0.419028 0.241926 0.125837 0.476305 0.827707 0.296708 112 115 127 255
0.462365 0.317709 0.000000 0.409806 0.712148 0.570004 112 115 127 255
0.419028 0.241926 0.125837 0.409806 0.712148 0.570004 112 115 127 255
0.506399 0.292369 0.000000 0.409806 0.712148 0.570004 112 115 127 255
-0.419029 0.241926 0.125837 -0.409806 0.712148 0.570004 112 115 127 255
-0.382592 0.262894 0.125837 -0.409806 0.712148 0.570004 112 115 127 255
-0.462365 0.317709 0.000000 -0.409806 0.712148 0.570004 112 115 127 255
-0.000000 0.483852 0.125837 0.411834 0.710976 0.570004 112 115 127 255
0.036377 0.462781 0.125837 0.411834 0.710976 0.570004 112 115 127 255
0.043962 0.559274 0.000000 0.411834 0.710976 0.570004 112 115 127 255
0.419028 0.241926 0.125837 0.821641 -0.001170 0.570004 112 115 127 255
0.418969 0.199887 0.125837 0.821641 -0.001170 0.570004 112 115 127 255
0.506326 0.241565 0.000000 0.821641 -0.001170 0.570004 112 115 127 255
0.419029 -0.241926 0.125837 0.409806 -0.712148 0.570004 112 115 127 255
0.382592 -0.262894 0.125837 0.409806 -0.712148 0.570004 112 115 127 255
0.462365 -0.317709 0.000000 0.409806 -0.712148 0.570004 112 115 127 255
0.000000 -0.483852 0.125837 -0.411834 -0.710976 0.570004 112 115 127 255
-0.036377 -0.462781 0.125837 -0.411834 -0.710976 0.570004 112 115 127 255
-0.043962 -0.559274 0.000000 -0.411834 -0.710976 0.570004 112 115 127 255
-0.419028 -0.241926 0.125837 -0.821641 0.001170 0.570004 112 115 127 255
-0.418969 -0.199887 0.125837 -0.821641 0.001170 0.570004 112 115 127 255
-0.506326 -0.241565 0.000000 -0.821641 0.001170 0.570004 112 115 127 255
-0.397579 -0.229543 0.194816 -0.954967 0.001361 0.296708 112 115 127 255
-0.397522 -0.189656 0.194816 -0.954967 0.001361 0.296708 112 115 127 255
-0.418969 -0.199887 0.125837 -0.954967 0.001361 0.296708 112 115 127 255
-0.000000 0.459085 0.194816 0.478663 0.826345 0.296708 112 115 127 255
0.034515 0.439092 0.194816 0.478663 0.826345 0.296708 112 115 127 255
0.036377 0.462781 0.125837 0.478663 0.826345 0.296708 112 115 127 255
0.397579 -0.229543 0.194816 0.476304 -0.827707 0.296708 112 115 127 255
0.363008 -0.249437 0.194816 0.476304 -0.827707 0.296708 112 115 127 255
0.382592 -0.262894 0.125837 0.476304 -0.827707 0.296708 112 115 127 255
0.000000 -0.459085 0.194816 -0.478663 -0.826345 0.296708 112 115 127 255
-0.034515 -0.439092 0.194816 -0.478663 -0.826345 0.296708 112 115 127 255
-0.036377 -0.462781 0.125837 -0.478663 -0.826345 0.296708 112 115 127 255
-0.397579 0.229543 0.194816 -0.476304 0.827707 0.296708 112 115 127 255
-0.363008 0.249437 0.194816 -0.476304 0.827707 0.296708 112 115 127 255
-0.382592 0.262894 0.125837 -0.476304 0.827707 0.296708 112 115 127 255
0.397579 0.229543 0.194816 0.954967 -0.001361 0.296708 112 115 127 255
0.397522 0.189656 0.194816 0.954967 -0.001361 0.296708 112 115 127 255
0.418969 0.199887 0.125837 0.954967 -0.001361 0.296708 112 115 127 255
0.034515 0.439092 0.194816 0.477455 0.826977 0.296892 112 115 127 255
0.363008 0.249437 0.194816 0.477455 0.826977 0.296892 112 115 127 255
0.382592 0.262894 0.125837 0.477455 0.826977 0.296892 112 115 127 255
-0.034515 0.439092 0.194816 -0.477456 0.826977 0.296892 112 115 127 255
-0.036377 0.462781 0.125837 -0.477456 0.826977 0.296892 112 115 127 255
-0.382592 0.262894 0.125837 -0.477456 0.826977 0.296892 112 115 127 255
-0.397522 -0.189656 0.194816 -0.954911 -0.000000 0.296892 112 115 127 255
-0.397523 0.189656 0.194816 -0.954911 -0.000000 0.296892 112 115 127 255
-0.418969 0.199887 0.125837 -0.954911 -0.000000 0.296892 112 115 127 255
-0.382592 -0.262894 0.125837 -0.477455 -0.826977 0.296892 112 115 127 255
-0.036377 -0.462781 0.125837 -0.477455 -0.826977 0.296892 112 115 127 255
-0.034515 -0.439092 0.194816 -0.477455 -0.826977 0.296892 112 115 127 255
0.382592 -0.262894 0.125837 0.477455 -0.826977 0.296892 112 115 127 255
0.363008 -0.249437 0.194816 0.477456 -0.826977 0.296892 112 115 127 255
0.034515 -0.439092 0.194816 0.477455 -0.826977 0.296892 112 115 127 255
0.418969 -0.199887 0.125837 0.954911 0.000000 0.296892 112 115 127 255
0.418969 0.199887 0.125837 0.954911 0.000000 0.296892 112 115 127 255
0.397522 0.189656 0.194816 0.954911 0.000000 0.296892 112 115 127 255
-0.278759 -0.160942 0.404891 -0.862203 -0.086059 0.499199 112 115 127 255
-0.288045 -0.137424 0.392907 -0.862203 -0.086059 0.499199 112 115 127 255
-0.397522 -0.189656 0.194816 -0.862203 -0.086059 0.499199 112 115 127 255
-0.000000 0.321883 0.404891 0.356572 0.789719 0.499199 112 115 127 255
0.025009 0.318166 0.392907 0.356573 0.789719 0.499199 112 115 127 255
0.034515 0.439092 0.194816 0.356573 0.789719 0.499199 112 115 127 255
0.278759 -0.160941 0.404891 0.505631 -0.703661 0.499199 112 115 127 255
0.263035 -0.180742 0.392907 0.505631 -0.703661 0.499199 112 115 127 255
0.363008 -0.249437 0.194816 0.505631 -0.703661 0.499199 112 115 127 255
0.000000 -0.321883 0.404891 -0.356573 -0.789719 0.499199 112 115 127 255
-0.025009 -0.318166 0.392907 -0.356573 -0.789719 0.499199 112 115 127 255
-0.034515 -0.439092 0.194816 -0.356573 -0.789719 0.499199 112 115 127 255
-0.278759 0.160941 0.404891 -0.505631 0.703661 0.499199 112 115 127 255
-0.263035 0.180742 0.392907 -0.505631 0.703661 0.499199 112 115 127 255
-0.363008 0.249437 0.194816 -0.505631 0.703661 0.499199 112 115 127 255
0.278759 0.160942 0.404891 0.862203 0.086059 0.499199 112 115 127 255
0.288045 0.137424 0.392907 0.862203 0.086059 0.499199 112 115 127 255
0.397522 0.189656 0.194816 0.862203 0.086059 0.499199 112 115 127 255
-0.278759 -0.160942 0.404891 0.166951 0.643868 0.746700 112 115 127 255
-0.219468 -0.126710 0.362117 0.166951 0.643868 0.746700 112 115 127 255
-0.233110 -0.111215 0.351807 0.166951 0.643868 0.746700 112 115 127 255
-0.000000 0.321883 0.404891 0.474131 -0.466518 0.746700 112 115 127 255
-0.000000 0.253420 0.362117 0.474131 -0.466518 0.746700 112 115 127 255
0.020240 0.257487 0.351807 0.474131 -0.466518 0.746700 112 115 127 255
0.278759 -0.160941 0.404891 -0.641082 -0.177351 0.746700 112 115 127 255
0.219468 -0.126710 0.362117 -0.641082 -0.177351 0.746700 112 115 127 255
0.212870 -0.146271 0.351807 -0.641082 -0.177351 0.746700 112 115 127 255
0.000000 -0.321883 0.404891 -0.474131 0.466518 0.746700 112 115 127 255
0.000000 -0.253420 0.362117 -0.474131 0.466518 0.746700 112 115 127 255
-0.020240 -0.257487 0.351807 -0.474131 0.466518 0.746700 112 115 127 255
-0.278759 0.160941 0.404891 0.641082 0.177351 0.746700 112 115 127 255
-0.219468 0.126710 0.362117 0.641081 0.177351 0.746700 112 115 127 255
-0.212870 0.146271 0.351807 0.641082 0.177351 0.746700 112 115 127 255
0.278759 0.160942 0.404891 -0.166950 -0.643869 0.746700 112 115 127 255
0.219468 0.126710 0.362117 -0.166950 -0.643869 0.746700 112 115 127 255
0.233110 0.111215 0.351807 -0.166950 -0.643869 0.746700 112 115 127 255
-0.020240 0.257487 0.351807 -0.474131 -0.466518 0.746700 112 115 127 255
-0.000000 0.253420 0.362117 -0.474131 -0.466518 0.746700 112 115 127 255
-0.000000 0.321883 0.404891 -0.474131 -0.466518 0.746700 112 115 127 255
-0.034515 0.439092 0.194816 -0.356573 0.789719 0.499199 112 115 127 255
-0.025009 0.318166 0.392907 -0.356573 0.789719 0.499199 112 115 127 255
-0.000000 0.321883 0.404891 -0.356573 0.789719 0.499199 112 115 127 255
-0.036377 0.462781 0.125837 -0.478663 0.826345 0.296708 112 115 127 255
-0.034515 0.439092 0.194816 -0.478663 0.826345 0.296708 112 115 127 255
-0.000000 0.459085 0.194816 -0.478663 0.826345 0.296708 112 115 127 255
-0.043962 0.559274 0.000000 -0.411834 0.710976 0.570004 112 115 127 255
-0.036377 0.462781 0.125837 -0.411834 0.710976 0.570004 112 115 127 255
-0.000000 0.483852 0.125837 -0.411834 0.710976 0.570004 112 115 127 255
-0.233110 0.111215 0.351807 0.166950 -0.643868 0.746700 112 115 127 255
-0.219468 0.126710 0.362117 0.166950 -0.643868 0.746700 112 115 127 255
-0.278759 0.160941 0.404891 0.166950 -0.643868 0.746700 112 115 127 255
-0.397523 0.189656 0.194816 -0.862203 0.086058 0.499199 112 115 127 255
-0.288045 0.137424 0.392907 -0.862203 0.086058 0.499199 112 115 127 255
-0.278759 0.160941 0.404891 -0.862203 0.086058 0.499199 112 115 127 255
-0.418969 0.199887 0.125837 -0.954967 -0.001361 0.296708 112 115 127 255
-0.397523 0.189656 0.194816 -0.954967 -0.001361 0.296708 112 115 127 255
-0.397579 0.229543 0.194816 -0.954967 -0.001361 0.296708 112 115 127 255
-0.506326 0.241565 0.000000 -0.821641 -0.001171 0.570004 112 115 127 255
-0.418969 0.199887 0.125837 -0.821641 -0.001171 0.570004 112 115 127 255
-0.419029 0.241926 0.125837 -0.821641 -0.001171 0.570004 112 115 127 255
-0.212870 -0.146271 0.351807 0.641082 -0.177351 0.746700 112 115 127 255
-0.219468 -0.126710 0.362117 0.641082 -0.177351 0.746700 112 115 127 255
-0.278759 -0.160942 0.404891 0.641082 -0.177351 0.746700 112 115 127 255
-0.363008 -0.249437 0.194816 -0.505631 -0.703660 0.499199 112 115 127 255
-0.263035 -0.180742 0.392907 -0.505631 -0.703660 0.499199 112 115 127 255
-0.278759 -0.160942 0.404891 -0.505631 -0.703660 0.499199 112 115 127 255
-0.382592 -0.262894 0.125837 -0.476305 -0.827707 0.296708 112 115 127 255
-0.363008 -0.249437 0.194816 -0.476305 -0.827707 0.296708 112 115 127 255
-0.397579 -0.229543 0.194816 -0.476305 -0.827707 0.296708 112 115 127 255
-0.462365 -0.317709 0.000000 -0.409806 -0.712147 0.570004 112 115 127 255
-0.382592 -0.262894 0.125837 -0.409806 -0.712147 0.570004 112 115 127 255
-0.419028 -0.241926 0.125837 -0.409806 -0.712147 0.570004 112 115 127 255
0.020240 -0.257487 0.351807 0.474131 0.466518 0.746700 112 115 127 255
0.000000 -0.253420 0.362117 0.474131 0.466518 0.746700 112 115 127 255
0.000000 -0.321883 0.404891 0.474131 0.466518 0.746700 112 115 127 255
0.034515 -0.439092 0.194816 0.356573 -0.789719 0.499199 112 115 127 255
0.025009 -0.318166 0.392907 0.356573 -0.789719 0.499199 112 115 127 255
0.000000 -0.321883 0.404891 0.356573 -0.789719 0.499199 112 115 127 255
0.036377 -0.462781 0.125837 0.478663 -0.826345 0.296708 112 115 127 255
0.034515 -0.439092 0.194816 0.478663 -0.826345 0.296708 112 115 127 255
0.000000 -0.459085 0.194816 0.478663 -0.826345 0.296708 112 115 127 255
0.043962 -0.559274 0.000000 0.411834 -0.710976 0.570004 112 115 127 255
0.036377 -0.462781 0.125837 0.411834 -0.710976 0.570004 112 115 127 255
0.000000 -0.483852 0.125837 0.411834 -0.710976 0.570004 112 115 127 255
0.233110 -0.111215 0.351807 -0.166950 0.643869 0.746700 112 115 127 255
0.219468 -0.126710 0.362117 -0.166950 0.643869 0.746700 112 115 127 255
0.278759 -0.160941 0.404891 -0.166950 0.643869 0.746700 112 115 127 255
0.397523 -0.189656 0.194816 0.862203 -0.086058 0.499199 112 115 127 255
0.288045 -0.137424 0.392907 0.862203 -0.086058 0.499199 112 115 127 255
0.278759 -0.160941 0.404891 0.862203 -0.086058 0.499199 112 115 127 255
0.418969 -0.199887 0.125837 0.954967 0.001361 0.296708 112 115 127 255
0.397523 -0.189656 0.194816 0.954967 0.001361 0.296708 112 115 127 255
0.397579 -0.229543 0.194816 0.954967 0.001361 0.296708 112 115 127 255
0.506326 -0.241565 0.000000 0.821641 0.001171 0.570004 112 115 127 255
0.418969 -0.199887 0.125837 0.821641 0.001171 0.570004 112 115 127 255
0.419029 -0.241926 0.125837 0.821641 0.001171 0.570004 112 115 127 255
0.212870 0.146271 0.351807 -0.641082 0.177351 0.746700 112 115 127 255
0.219468 0.126710 0.362117 -0.641082 0.177351 0.746700 112 115 127 255
0.278759 0.160942 0.404891 -0.641082 0.177351 0.746700 112 115 127 255
0.363008 0.249437 0.194816 0.505631 0.703660 0.499199 112 115 127 255
0.263035 0.180742 0.392907 0.505631 0.703660 0.499199 112 115 127 255
0.278759 0.160942 0.404891 0.505631 0.703660 0.499199 112 115 127 255
0.382592 0.262894 0.125837 0.476305 0.827707 0.296708 112 115 127 255
0.363008 0.249437 0.194816 0.476305 0.827707 0.296708 112 115 127 255
0.397579 0.229543 0.194816 0.476305 0.827707 0.296708 112 115 127 255
0.462365 0.317709 0.000000 0.409806 0.712147 0.570004 112 115 127 255
0.382592 0.262894 0.125837 0.409806 0.712147 0.570004 112 115 127 255
0.419028 0.241926 0.125837 0.409806 0.712147 0.570004 112 115 127 255
-0.048728 -0.151726 0.504037 -0.807011 -0.590536 0.000000 112 115 127 255
-0.159357 -0.000542 0.000000 -0.807011 -0.590536 0.000000 112 115 127 255
-0.048728 -0.151726 0.000000 -0.807011 -0.590536 0.000000 112 115 127 255
-0.159357 -0.000542 0.504037 -0.811013 0.585028 0.000000 112 115 127 255
-0.049760 0.151390 0.000000 -0.811013 0.585028 0.000000 112 115 127 255
-0.159357 -0.000542 0.000000 -0.811013 0.585028 0.000000 112 115 127 255
-0.049760 0.151390 0.504037 0.305778 0.952103 0.000000 112 115 127 255
0.128604 0.094107 0.000000 0.305778 0.952103 0.000000 112 115 127 255
-0.049760 0.151390 0.000000 0.305778 0.952103 0.000000 112 115 127 255
0.128604 0.094107 0.504037 0.999994 0.003404 0.000000 112 115 127 255
0.129242 -0.093229 0.000000 0.999994 0.003404 0.000000 112 115 127 255
0.128604 0.094107 0.000000 0.999994 0.003404 0.000000 112 115 127 255
0.129242 -0.093229 0.504037 0.312253 -0.949999 0.000000 112 115 127 255
-0.048728 -0.151726 0.000000 0.312253 -0.949999 0.000000 112 115 127 255
0.129242 -0.093229 0.000000 0.312253 -0.949999 0.000000 112 115 127 255
-0.048728 -0.151726 0.504037 -0.807011 -0.590536 0.000000 112 115 127 255
-0.159357 -0.000542 0.504037 -0.807011 -0.590536 0.000000 112 115 127 255
-0.159357 -0.000542 0.000000 -0.807011 -0.590536 0.000000 112 115 127 255
-0.159357 -0.000542 0.504037 -0.811013 0.585028 0.000000 112 115 127 255
-0.049760 0.151390 0.504037 -0.811013 0.585028 0.000000 112 115 127 255
-0.049760 0.151390 0.000000 -0.811013 0.585028 0.000000 112 115 127 255
-0.049760 0.151390 0.504037 0.305778 0.952103 0.000000 112 115 127 255
0.128604 0.094107 0.504037 0.305778 0.952103 0.000000 112 115 127 255
0.128604 0.094107 0.000000 0.305778 0.952103 0.000000 112 115 127 255
0.128604 0.094107 0.504037 0.999994 0.003404 0.000000 112 115 127 255
0.129242 -0.093229 0.504037 0.999994 0.003404 0.000000 112 115 127 255
0.129242 -0.093229 0.000000 0.999994 0.003404 0.000000 112 115 127 255
0.129242 -0.093229 0.504037 0.312253 -0.949999 0.000000 112 115 127 255
-0.048728 -0.151726 0.504037 0.312253 -0.949999 0.000000 112 115 127 255
-0.048728 -0.151726 0.000000 0.312253 -0.949999 0.000000 112 115 127 255
0.649519 0.375000 0.000000 0.000000 0.000000 1.000000 0 64 0 255
-0.649519 0.375000 0.000000 0.000000 0.000000 1.000000 0 0 64 255
0.000000 -0.750000 0.000000 0.000000 0.000000 1.000000 64 0 0 255
0.000000 -0.750000 0.000000 0.000000 0.000000 1.000000 64 0 0 255
0.649519 -0.375000 0.000000 0.000000 0.000000 1.000000 64 64 0 255
0.649519 0.375000 0.000000 0.000000 0.000000 1.000000 0 64 0 255
0.649519 0.375000 0.000000 0.000000 0.000000 1.000000 0 64 0 255
-0.000000 0.750000 0.000000 0.000000 0.000000 1.000000 1 64 64 255
-0.649519 0.375000 0.000000 0.000000 0.000000 1.000000 0 0 64 255
-0.649519 0.375000 0.000000 0.000000 0.000000 1.000000 0 0 64 255
-0.649519 -0.375000 0.000000 0.000000 0.000000 1.000000 64 0 64 255
0.000000 -0.750000 0.000000 0.000000 0.000000 1.000000 64 0 0 255
0.866025 0.500000 0.000000 0.000000 0.000000 1.000000 112 115 127 255
0.000000 0.750000 0.000000 0.000000 0.000000 1.000000 112 115 127 255
0.649519 0.375000 0.000000 0.000000 0.000000 1.000000 112 115 127 255
-0.866025 -0.500000 0.000000 0.000000 0.000000 1.000000 112 115 127 255
0.000000 -0.750000 0.000000 0.000000 0.000000 1.000000 112 115 127 255
-0.649519 -0.375000 0.000000 0.000000 0.000000 1.000000 112 115 127 255
0.000000 1.000000 0.000000 0.000000 0.000000 1.000000 112 115 127 255
-0.649519 0.375000 0.000000 0.000000 0.000000 1.000000 112 115 127 255
0.000000 0.750000 0.000000 0.000000 0.000000 1.000000 112 115 127 255
-0.866025 0.500000 0.000000 0.000000 0.000000 1.000000 112 115 127 255
-0.649519 -0.375000 0.000000 0.000000 0.000000 1.000000 112 115 127 255
-0.649519 0.375000 0.000000 0.000000 0.000000 1.000000 112 115 127 255
0.000000 -1.000000 0.000000 0.000000 0.000000 1.000000 112 115 127 255
0.649519 -0.375000 0.000000 0.000000 0.000000 1.000000 112 115 127 255
0.000000 -0.750000 0.000000 0.000000 0.000000 1.000000 112 115 127 255
0.866025 -0.500000 0.000000 0.000000 0.000000 1.000000 112 115 127 255
0.649519 0.375000 0.000000 0.000000 0.000000 1.000000 112 115 127 255
0.649519 -0.375000 0.000000 0.000000 0.000000 1.000000 112 115 127 255
0.866025 0.500000 0.000000 0.000000 0.000000 1.000000 112 115 127 255
0.000000 1.000000 0.000000 0.000000 0.000000 1.000000 112 115 127 255
0.000000 0.750000 0.000000 0.000000 0.000000 1.000000 112 115 127 255
-0.866025 -0.500000 0.000000 0.000000 0.000000 1.000000 112 115 127 255
0.000000 -1.000000 0.000000 0.000000 0.000000 1.000000 112 115 127 255
0.000000 -0.750000 0.000000 0.000000 0.000000 1.000000 112 115 127 255
0.000000 1.000000 0.000000 0.000000 0.000000 1.000000 112 115 127 255
-0.866025 0.500000 0.000000 0.000000 0.000000 1.000000 112 115 127 255
-0.649519 0.375000 0.000000 0.000000 0.000000 1.000000 112 115 127 255
-0.866025 0.500000 0.000000 0.000000 0.000000 1.000000 112 115 127 255
-0.866025 -0.500000 0.000000 0.000000 0.000000 1.000000 112 115 127 255
-0.649519 -0.375000 0.000000 0.000000 0.000000 1.000000 112 115 127 255
0.000000 -1.000000 0.000000 0.000000 0.000000 1.000000 112 115 127 255
0.866025 -0.500000 0.000000 0.000000 0.000000 1.000000 112 115 127 255
0.649519 -0.375000 0.000000 0.000000 0.000000 1.000000 112 115 127 255
0.866025 -0.500000 0.000000 0.000000 0.000000 1.000000 112 115 127 255
0.866025 0.500000 0.000000 0.000000 0.000000 1.000000 112 115 127 255
0.649519 0.375000 0.000000 0.000000 0.000000 1.000000 112 115 127 255
3 0 1 2
3 3 4 5
3 6 7 8
3 9 10 11
3 12 13 14
3 15 16 17
3 18 19 20
3 21 22 23
3 24 25 26
3 27 28 29
3 30 31 32
3 33 34 35
3 36 37 38
3 39 40 41
3 42 43 44
3 45 46 47
3 48 49 50
3 51 52 53
3 54 55 56
3 57 58 59
3 60 61 62
3 63 64 65
3 66 67 68
3 69 70 71
3 72 73 74
3 75 76 77
3 78 79 80
3 81 82 83
3 84 85 86
3 87 88 89
3 90 91 92
3 93 94 95
3 96 97 98
3 99 100 101
3 102 103 104
3 105 106 107
3 108 109 110
3 111 112 113
3 114 115 116
3 117 118 119
3 120 121 122
3 123 124 125
3 126 127 128
3 129 130 131
3 132 133 134
3 135 136 137
3 138 139 140
3 141 142 143
3 144 145 146
3 147 148 149
3 150 151 152
3 153 154 155
3 156 157 158
3 159 160 161
3 162 163 164
3 165 166 167
3 168 169 170
3 171 172 173
3 174 175 176
3 177 178 179
3 180 181 182
3 183 184 185
3 186 187 188
3 189 190 191
3 192 193 194
3 195 196 197
3 198 199 200
3 201 202 203
3 204 205 206
3 207 208 209
3 210 211 212
3 213 214 215
3 216 217 218
3 219 220 221
3 222 223 224
3 225 226 227
3 228 229 230
3 231 232 233
3 234 235 236
3 237 238 239
3 240 241 242
3 243 244 245
3 246 247 248
3 249 250 251
3 252 253 254
3 255 256 257
3 258 259 260
3 261 262 263
3 264 265 266
3 267 268 269
3 270 271 272
3 273 274 275
3 276 277 278
3 279 280 281
3 282 283 284
3 285 286 287
3 288 289 290
3 291 292 293
3 294 295 296
3 297 298 299
3 300 301 302
3 303 304 305
3 306 307 308
3 309 310 311
3 312 313 314
3 315 316 317
3 318 319 320
3 321 322 323
3 324 325 326
3 327 328 329
3 330 331 332
3 333 334 335
3 336 337 338
3 339 340 341
3 342 343 344
3 345 346 347
3 348 349 350
3 351 352 353
3 354 355 356
3 357 358 359
3 360 361 362
3 363 364 365
3 366 367 368
3 369 370 371
3 372 373 374
3 375 376 377
3 378 379 380
3 381 382 383
3 384 385 386
3 387 388 389
3 390 391 392
3 393 394 395
3 396 397 398
3 399 400 401
3 402 403 404
3 405 406 407
3 408 409 410
3 411 412 413
3 414 415 416
3 417 418 419
3 420 421 422
3 423 424 425
3 426 427 428
3 429 430 431
3 432 433 434
3 435 436 437
3 438 439 440
3 441 442 443
3 444 445 446
3 447 448 449
3 450 451 452
3 453 454 455
3 456 457 458
3 459 460 461
