ply
format ascii 1.0
comment Created by Blender 3.6.0 - www.blender.org
element vertex 111
property float x
property float y
property float z
property float nx
property float ny
property float nz
property uchar red
property uchar green
property uchar blue
property uchar alpha
element face 57
property list uchar uint vertex_indices
end_header
0.000000 -0.750000 0.060000 -0.500000 -0.866025 0.000000 116 183 201 255
-0.649519 -0.375000 0.030000 -0.500000 -0.866025 0.000000 116 183 201 255
0.000000 -0.750000 0.030000 -0.500000 -0.866025 0.000000 116 183 201 255
-0.649519 -0.375000 0.060000 -1.000000 0.000000 0.000000 116 183 201 255
-0.649519 0.375000 0.030000 -1.000000 0.000000 0.000000 116 183 201 255
-0.649519 -0.375000 0.030000 -1.000000 0.000000 0.000000 116 183 201 255
-0.649519 0.375000 0.060000 -0.500000 0.866025 0.000000 116 183 201 255
0.000000 0.750000 0.030000 -0.500000 0.866025 0.000000 116 183 201 255
-0.649519 0.375000 0.030000 -0.500000 0.866025 0.000000 116 183 201 255
0.000000 0.750000 0.060000 0.500000 0.866025 0.000000 116 183 201 255
0.649519 0.375000 0.030000 0.500000 0.866025 0.000000 116 183 201 255
0.000000 0.750000 0.030000 0.500000 0.866025 0.000000 116 183 201 255
0.000000 -0.750000 0.060000 0.000000 0.000000 1.000000 116 183 201 255
0.649519 0.375000 0.060000 0.000000 0.000000 1.000000 116 183 201 255
-0.649519 0.375000 0.060000 0.000000 0.000000 1.000000 116 183 201 255
0.649519 0.375000 0.060000 1.000000 0.000000 0.000000 116 183 201 255
0.649519 -0.375000 0.030000 1.000000 0.000000 0.000000 116 183 201 255
0.649519 0.375000 0.030000 1.000000 0.000000 0.000000 116 183 201 255
0.649519 -0.375000 0.060000 0.500000 -0.866025 0.000000 116 183 201 255
0.000000 -0.750000 0.030000 0.500000 -0.866025 0.000000 116 183 201 255
0.649519 -0.375000 0.030000 0.500000 -0.866025 0.000000 116 183 201 255
-0.649519 -0.375000 0.060000 -0.500000 -0.866025 0.000000 116 183 201 255
-0.649519 0.375000 0.060000 -1.000000 0.000000 0.000000 116 183 201 255
0.000000 0.750000 0.060000 -0.500000 0.866025 0.000000 116 183 201 255
0.649519 0.375000 0.060000 0.500000 0.866025 0.000000 116 183 201 255
-0.649519 -0.375000 0.060000 0.000000 0.000000 1.000000 116 183 201 255
0.649519 -0.375000 0.060000 0.000000 0.000000 1.000000 116 183 201 255
0.000000 0.750000 0.060000 0.000000 0.000000 1.000000 116 183 201 255
0.649519 -0.375000 0.060000 1.000000 0.000000 0.000000 116 183 201 255
0.000000 -0.750000 0.060000 0.500000 -0.866025 0.000000 116 183 201 255
0.000000 -0.900000 0.030000 -0.163663 -0.283473 0.944911 137 116 185 255
-0.866025 -0.500000 0.000000 -0.163663 -0.283473 0.944911 137 116 185 255
0.000000 -1.000000 0.000000 -0.163663 -0.283473 0.944911 137 116 185 255
-0.779423 -0.450000 0.030000 -0.327327 0.000000 0.944911 137 116 185 255
-0.866025 0.500000 0.000000 -0.327327 0.000000 0.944911 137 116 185 255
-0.866025 -0.500000 0.000000 -0.327327 0.000000 0.944911 137 116 185 255
-0.866025 0.500000 0.000000 -0.163663 0.283473 0.944911 137 116 185 255
0.000000 0.900000 0.030000 -0.163663 0.283473 0.944911 137 116 185 255
0.000000 1.000000 0.000000 -0.163663 0.283473 0.944911 137 116 185 255
0.000000 0.900000 0.030000 0.163663 0.283473 0.944911 137 116 185 255
0.866025 0.500000 0.000000 0.163663 0.283473 0.944911 137 116 185 255
0.000000 1.000000 0.000000 0.163663 0.283473 0.944911 137 116 185 255
0.779423 0.450000 0.030000 0.000000 0.000000 1.000000 137 116 185 255
0.000000 0.900000 0.030000 0.000000 0.000000 1.000000 137 116 185 255
-0.779423 0.450000 0.030000 0.000000 0.000000 1.000000 137 116 185 255
0.779423 0.450000 0.030000 0.327327 0.000000 0.944911 137 116 185 255
0.866025 -0.500000 0.000000 0.327327 0.000000 0.944911 137 116 185 255
0.866025 0.500000 0.000000 0.327327 0.000000 0.944911 137 116 185 255
0.866025 -0.500000 0.000000 0.163663 -0.283473 0.944911 137 116 185 255
0.000000 -0.900000 0.030000 0.163663 -0.283473 0.944911 137 116 185 255
0.000000 -1.000000 0.000000 0.163663 -0.283473 0.944911 137 116 185 255
-0.779423 -0.450000 0.030000 -0.163663 -0.283473 0.944911 137 116 185 255
-0.779423 0.450000 0.030000 -0.327327 0.000000 0.944911 137 116 185 255
-0.779423 0.450000 0.030000 -0.163663 0.283473 0.944911 137 116 185 255
0.779423 0.450000 0.030000 0.163663 0.283473 0.944911 137 116 185 255
-0.779423 -0.450000 0.030000 0.000000 0.000000 1.000000 137 116 185 255
0.000000 -0.900000 0.030000 0.000000 0.000000 1.000000 137 116 185 255
0.779423 -0.450000 0.030000 0.000000 0.000000 1.000000 137 116 185 255
0.779423 -0.450000 0.030000 0.327327 0.000000 0.944911 137 116 185 255
0.779423 -0.450000 0.030000 0.163663 -0.283473 0.944911 137 116 185 255
0.033226 -0.000115 0.080000 0.865864 0.499920 0.018969 202 226 214 255
0.360046 -0.565409 0.060000 0.865735 0.500503 0.000377 202 226 214 255
0.033258 0.000603 0.060000 0.865863 0.499907 0.019338 202 226 214 255
0.360046 -0.565409 0.080000 0.499999 -0.866026 0.000000 202 226 214 255
0.308084 -0.595409 0.060000 0.499999 -0.866026 0.000000 202 226 214 255
0.360046 -0.565409 0.060000 0.499999 -0.866026 0.000000 202 226 214 255
0.308084 -0.595409 0.080000 -0.866025 -0.500000 0.000000 202 226 214 255
-0.018703 -0.029397 0.060000 -0.866025 -0.500000 0.000000 202 226 214 255
0.308084 -0.595409 0.060000 -0.866025 -0.500000 0.000000 202 226 214 255
0.033226 -0.000115 0.080000 0.000000 0.000000 1.000000 202 226 214 255
0.308084 -0.595409 0.080000 0.000000 0.000000 1.000000 202 226 214 255
0.360046 -0.565409 0.080000 0.000000 0.000000 1.000000 202 226 214 255
-0.672368 -0.029815 0.080000 -1.000000 0.000001 0.000000 205 227 216 255
-0.672368 0.030185 0.060000 -1.000000 0.000001 0.000000 202 226 214 255
-0.672368 -0.029815 0.060000 -1.000000 0.000001 0.000000 206 228 217 255
-0.672368 0.030185 0.080000 0.000459 1.000000 0.000000 202 226 214 255
-0.018735 0.029885 0.060000 0.000459 1.000000 0.000000 202 226 214 255
-0.672368 0.030185 0.060000 0.000459 1.000000 0.000000 202 226 214 255
-0.018703 -0.029397 0.080000 0.000639 -1.000000 0.000000 202 226 214 255
-0.672368 -0.029815 0.060000 0.000639 -1.000000 0.000000 206 228 217 255
-0.018703 -0.029397 0.060000 0.000639 -1.000000 0.000000 202 226 214 255
-0.672368 0.030185 0.080000 0.000000 0.000000 1.000000 202 226 214 255
-0.018703 -0.029397 0.080000 0.000000 0.000000 1.000000 202 226 214 255
-0.018735 0.029885 0.080000 0.000000 0.000000 1.000000 202 226 214 255
0.308052 0.595897 0.080000 0.499999 0.866026 0.000000 202 226 214 255
0.360014 0.565897 0.060000 0.499999 0.866026 0.000000 203 226 215 255
0.308052 0.595897 0.060000 0.499999 0.866026 0.000000 202 226 214 255
0.360014 0.565897 0.080000 0.865777 -0.500431 -0.000323 202 226 214 255
0.033258 0.000603 0.060000 0.865906 -0.499942 -0.016243 202 226 214 255
0.360014 0.565897 0.060000 0.865772 -0.500439 0.000000 203 226 215 255
-0.018735 0.029885 0.080000 -0.866025 0.500000 0.000000 202 226 214 255
0.308052 0.595897 0.060000 -0.866025 0.500000 0.000000 202 226 214 255
-0.018735 0.029885 0.060000 -0.866025 0.500000 0.000000 202 226 214 255
0.033226 -0.000115 0.080000 0.000000 0.000000 1.000000 202 226 214 255
0.308052 0.595897 0.080000 0.000000 0.000000 1.000000 202 226 214 255
-0.018735 0.029885 0.080000 0.000000 0.000000 1.000000 202 226 214 255
-0.018703 -0.029397 0.080000 0.000000 0.000000 1.000000 205 228 216 255
0.033226 -0.000115 0.080000 0.000000 0.000000 1.000000 202 226 214 255
-0.018735 0.029885 0.080000 0.000000 0.000000 1.000000 202 226 214 255
0.360046 -0.565409 0.080000 0.865729 0.500513 0.000000 202 226 214 255
0.308084 -0.595409 0.080000 0.499999 -0.866026 0.000000 202 226 214 255
-0.018703 -0.029397 0.080000 -0.866025 -0.500000 0.000000 202 226 214 255
-0.018703 -0.029397 0.080000 0.000000 0.000000 1.000000 202 226 214 255
-0.672368 0.030185 0.080000 -1.000000 0.000001 0.000000 202 226 214 255
-0.018735 0.029885 0.080000 0.000459 1.000000 0.000000 202 226 214 255
-0.672368 -0.029815 0.080000 0.000639 -1.000000 0.000000 205 227 216 255
-0.672368 -0.029815 0.080000 0.000000 0.000000 1.000000 205 227 216 255
0.360014 0.565897 0.080000 0.499999 0.866026 0.000000 202 226 214 255
0.033226 -0.000115 0.080000 0.865907 -0.499931 -0.016560 202 226 214 255
0.308052 0.595897 0.080000 -0.866025 0.500000 0.000000 202 226 214 255
0.360014 0.565897 0.080000 0.000000 0.000000 1.000000 202 226 214 255
3 0 1 2
3 3 4 5
3 6 7 8
3 9 10 11
3 12 13 14
3 15 16 17
3 18 19 20
3 0 21 1
3 3 22 4
3 6 23 7
3 9 24 10
3 14 25 12
3 12 26 13
3 13 27 14
3 15 28 16
3 18 29 19
3 30 31 32
3 33 34 35
3 36 37 38
3 39 40 41
3 42 43 44
3 45 46 47
3 48 49 50
3 30 51 31
3 33 52 34
3 36 53 37
3 39 54 40
3 44 55 42
3 55 56 42
3 56 57 42
3 45 58 46
3 48 59 49
3 60 61 62
3 63 64 65
3 66 67 68
3 69 70 71
3 72 73 74
3 75 76 77
3 78 79 80
3 81 82 83
3 84 85 86
3 87 88 89
3 90 91 92
3 93 94 95
3 96 97 98
3 60 99 61
3 63 100 64
3 66 101 67
3 69 102 70
3 72 103 73
3 75 104 76
3 78 105 79
3 81 106 82
3 84 107 85
3 87 108 88
3 90 109 91
3 93 110 94
