ply
format ascii 1.0
comment Created by Blender 3.5.1 - www.blender.org
element vertex 480
property float x
property float y
property float z
property float nx
property float ny
property float nz
property uchar red
property uchar green
property uchar blue
property uchar alpha
element face 166
property list uchar uint vertex_indices
end_header
-0.357900 0.413320 0.033460 -0.497647 0.861950 0.096899 137 136 135 255
-0.536859 0.309998 0.033460 -0.497647 0.861950 0.096899 137 136 135 255
-0.489653 0.282701 0.518709 -0.497647 0.861950 0.096899 136 136 136 255
0.357937 0.413320 0.033460 0.497645 0.861947 0.096936 137 136 136 255
0.178977 0.516642 0.033460 0.497645 0.861947 0.096936 137 136 135 255
0.000000 0.565403 0.518709 0.497645 0.861947 0.096936 139 134 134 255
0.536896 -0.103290 0.033460 0.995294 0.000000 0.096899 138 136 136 255
0.536896 0.103354 0.033460 0.995294 0.000000 0.096899 137 136 136 255
0.489653 0.282701 0.518709 0.995294 0.000000 0.096899 136 136 136 255
-0.118812 -0.508371 0.339588 -0.889238 0.445627 -0.103306 136 136 136 255
-0.026898 -0.395925 0.033460 -0.889238 0.445627 -0.103306 176 106 108 255
-0.110042 -0.561836 0.033460 -0.889238 0.445627 -0.103306 136 136 136 255
0.178977 -0.516579 0.033460 0.497651 -0.861956 0.096825 137 136 136 255
0.357937 -0.413257 0.033460 0.497651 -0.861956 0.096825 137 136 135 255
0.000000 -0.565403 0.518709 0.497651 -0.861956 0.096825 136 136 136 255
-0.026898 -0.395925 0.033460 -0.499949 -0.865937 -0.014304 176 106 108 255
-0.309738 -0.237726 0.342098 -0.499949 -0.865937 -0.014304 185 96 99 255
-0.326118 -0.223171 0.033460 -0.499949 -0.865937 -0.014304 185 96 99 255
-0.380856 -0.357080 0.339588 0.857619 -0.509561 -0.069548 137 136 136 255
-0.326118 -0.223171 0.033460 0.857619 -0.509561 -0.069548 185 96 99 255
-0.309738 -0.237726 0.342098 0.857619 -0.509561 -0.069548 185 96 99 255
-0.118812 -0.508371 0.339588 0.009263 0.015807 -0.999832 136 136 136 255
-0.309738 -0.237726 0.342098 0.009263 0.015807 -0.999832 185 96 99 255
-0.047694 -0.389017 0.342134 0.009263 0.015807 -0.999832 185 129 91 255
-0.434342 -0.250768 0.569501 -0.338186 -0.585756 0.736559 138 135 135 255
0.000000 -0.565403 0.518709 -0.338186 -0.585756 0.736559 136 136 136 255
-0.000000 -0.501535 0.569501 -0.338186 -0.585756 0.736559 136 136 136 255
0.000000 0.501535 0.569501 -0.338187 0.585757 0.736559 139 134 134 255
-0.489653 0.282701 0.518709 -0.338187 0.585757 0.736559 136 136 136 255
-0.434342 0.250768 0.569501 -0.338187 0.585757 0.736559 136 136 136 255
0.000000 0.322891 0.950092 0.463193 0.802274 0.376575 139 134 134 255
0.279632 0.161446 0.950092 0.463193 0.802274 0.376575 136 136 136 255
0.434342 0.250768 0.569501 0.463193 0.802274 0.376575 136 136 136 255
-0.000000 -0.501535 0.569501 0.463193 -0.802274 0.376575 136 136 136 255
0.434342 -0.250768 0.569501 0.463193 -0.802274 0.376575 136 136 136 255
-0.000000 -0.322891 0.950092 0.463193 -0.802274 0.376575 136 136 136 255
-0.000000 -0.245812 0.950092 0.000000 0.000000 1.000000 136 136 136 255
-0.279632 -0.161446 0.950092 0.000000 0.000000 1.000000 137 135 135 255
-0.000000 -0.322891 0.950092 0.000000 0.000000 1.000000 136 136 136 255
0.000000 0.245812 0.950092 0.000000 0.000000 1.000000 136 133 134 255
-0.279632 0.161446 0.950092 0.000000 0.000000 1.000000 137 136 136 255
-0.212879 0.122906 0.950092 0.000000 0.000000 1.000000 137 136 136 255
0.212879 -0.122906 0.950092 0.000000 0.000000 1.000000 136 136 136 255
-0.000000 -0.322891 0.950092 0.000000 0.000000 1.000000 136 136 136 255
0.279632 -0.161446 0.950092 0.000000 0.000000 1.000000 136 136 136 255
0.000000 0.245812 0.950092 0.000000 0.000000 1.000000 136 133 134 255
0.279632 0.161446 0.950092 0.000000 0.000000 1.000000 136 136 136 255
0.000000 0.322891 0.950092 0.000000 0.000000 1.000000 139 134 134 255
-0.000000 -0.501535 0.569501 0.338187 -0.585757 0.736558 136 136 136 255
0.489653 -0.282701 0.518709 0.338187 -0.585757 0.736558 136 136 136 255
0.434342 -0.250768 0.569501 0.338187 -0.585757 0.736558 136 136 136 255
0.434342 0.250768 0.569501 0.338186 0.585756 0.736559 136 136 136 255
0.000000 0.565403 0.518709 0.338186 0.585756 0.736559 139 134 134 255
0.000000 0.501535 0.569501 0.338186 0.585756 0.736559 139 134 134 255
-0.212879 0.122906 0.950092 0.000000 0.000000 1.000000 137 136 136 255
-0.279632 -0.161446 0.950092 0.000000 0.000000 1.000000 137 135 135 255
-0.212879 -0.122906 0.950092 0.000000 0.000000 1.000000 137 135 135 255
-0.212879 0.122906 0.950092 -0.499940 0.865922 -0.015475 137 136 136 255
-0.000842 0.245815 0.977494 -0.499940 0.865922 -0.015475 134 132 133 255
0.000000 0.245812 0.950092 -0.499940 0.865922 -0.015475 136 133 134 255
0.185323 -0.109609 0.977494 0.000000 0.000000 1.000000 136 136 136 255
0.114363 -0.115251 0.977494 0.000000 0.000000 1.000000 137 136 136 255
0.212037 -0.122902 0.977494 0.000000 0.000000 1.000000 136 136 136 255
0.212879 0.122906 0.950092 0.999528 0.000000 0.030714 137 136 136 255
0.212037 -0.122902 0.977494 0.999528 0.000000 0.030714 136 136 136 255
0.212879 -0.122906 0.950092 0.999528 0.000000 0.030714 136 136 136 255
0.000000 0.245812 0.950092 0.499942 0.865925 0.015250 136 133 134 255
0.212037 0.122909 0.977494 0.499942 0.865925 0.015250 137 136 136 255
0.212879 0.122906 0.950092 0.499942 0.865925 0.015250 137 136 136 255
-0.212879 0.122906 0.950092 -0.999528 0.000000 -0.030714 137 136 136 255
-0.213721 -0.122902 0.977494 -0.999528 0.000000 -0.030714 137 135 135 255
-0.213721 0.122909 0.977494 -0.999528 0.000000 -0.030714 137 136 136 255
-0.212879 -0.122906 0.950092 -0.499942 -0.865925 -0.015250 137 135 135 255
-0.000842 -0.245808 0.977494 -0.499942 -0.865925 -0.015250 136 136 136 255
-0.213721 -0.122902 0.977494 -0.499942 -0.865925 -0.015250 137 135 135 255
-0.000000 -0.245812 0.950092 0.499940 -0.865922 0.015475 136 136 136 255
0.212037 -0.122902 0.977494 0.499940 -0.865922 0.015475 136 136 136 255
-0.000842 -0.245808 0.977494 0.499940 -0.865922 0.015475 136 136 136 255
0.212879 -0.122906 0.950092 0.000000 0.000000 1.000000 136 136 136 255
0.279632 0.161446 0.950092 0.000000 0.000000 1.000000 136 136 136 255
0.212879 0.122906 0.950092 0.000000 0.000000 1.000000 137 136 136 255
0.043403 -0.120893 0.977494 0.000000 0.000000 1.000000 142 135 133 255
0.114363 0.099070 0.977494 0.000000 0.000000 1.000000 141 131 129 255
0.043403 0.104913 0.977494 0.000000 0.000000 1.000000 138 136 136 255
0.185323 0.093227 0.977494 -1.000000 0.000000 0.000000 137 136 136 255
0.185323 -0.109609 0.950119 -1.000000 0.000000 0.000000 185 96 99 255
0.185323 -0.109609 0.977494 -1.000000 0.000000 0.000000 136 136 136 255
-0.183879 0.097884 0.977494 0.082064 -0.996627 0.000000 152 134 125 255
-0.092914 0.105374 0.950119 0.082064 -0.996627 0.000000 185 96 99 255
-0.092914 0.105374 0.977494 0.082064 -0.996627 0.000000 138 136 136 255
-0.027556 -0.126535 0.977494 1.000000 -0.000000 0.000000 137 136 136 255
-0.027556 0.110756 0.950119 1.000000 -0.000000 0.000000 182 100 102 255
-0.027556 0.110756 0.977494 1.000000 -0.000000 0.000000 138 135 135 255
-0.027556 -0.126535 0.977494 0.000000 0.000000 1.000000 137 136 136 255
-0.092914 0.105374 0.977494 0.000000 0.000000 1.000000 138 136 136 255
-0.092914 -0.121339 0.977494 0.000000 0.000000 1.000000 137 136 136 255
-0.027556 -0.126535 0.950119 0.000000 0.000000 1.000000 185 96 99 255
0.043403 0.104913 0.950119 0.000000 0.000000 1.000000 178 103 106 255
-0.027556 0.110756 0.950119 0.000000 0.000000 1.000000 182 100 102 255
-0.092914 -0.121339 0.950119 0.000000 0.000000 1.000000 172 109 111 255
-0.183879 0.097884 0.950119 0.000000 0.000000 1.000000 185 129 91 255
-0.183879 -0.114106 0.950119 0.000000 0.000000 1.000000 185 96 99 255
0.114363 -0.115251 0.950119 0.000000 0.000000 1.000000 184 97 100 255
0.185323 0.093227 0.950119 0.000000 0.000000 1.000000 182 100 102 255
0.114363 0.099070 0.950119 0.000000 0.000000 1.000000 158 130 116 255
0.114363 -0.115251 0.977494 1.000000 0.000000 0.000000 137 136 136 255
0.114363 0.099070 0.950119 1.000000 0.000000 0.000000 158 130 116 255
0.114363 0.099070 0.977494 1.000000 0.000000 0.000000 141 131 129 255
-0.092914 0.105374 0.977494 -1.000000 0.000000 0.000000 138 136 136 255
-0.092914 -0.121339 0.950119 -1.000000 0.000000 0.000000 172 109 111 255
-0.092914 -0.121339 0.977494 -1.000000 0.000000 0.000000 137 136 136 255
-0.027556 0.110756 0.977494 -0.082064 -0.996627 0.000000 138 135 135 255
0.043403 0.104913 0.950119 -0.082064 -0.996627 0.000000 178 103 106 255
0.043403 0.104913 0.977494 -0.082064 -0.996627 0.000000 138 136 136 255
0.114363 0.099070 0.977494 -0.082064 -0.996627 0.000000 141 131 129 255
0.185323 0.093227 0.950119 -0.082064 -0.996627 0.000000 182 100 102 255
0.185323 0.093227 0.977494 -0.082064 -0.996627 0.000000 137 136 136 255
0.043403 0.104913 0.977494 -1.000000 0.000000 0.000000 138 136 136 255
0.043403 -0.120893 0.950119 -1.000000 0.000000 0.000000 168 132 111 255
0.043403 -0.120893 0.977494 -1.000000 0.000000 0.000000 142 135 133 255
-0.092914 -0.121339 0.977494 0.079260 0.996854 0.000000 137 136 136 255
-0.183879 -0.114106 0.950119 0.079260 0.996854 0.000000 185 96 99 255
-0.183879 -0.114106 0.977494 0.079260 0.996854 0.000000 137 135 135 255
-0.183879 -0.114106 0.977494 1.000000 0.000000 0.000000 137 135 135 255
-0.183879 0.097884 0.950119 1.000000 0.000000 0.000000 185 129 91 255
-0.183879 0.097884 0.977494 1.000000 0.000000 0.000000 152 134 125 255
0.043403 -0.120893 0.977494 -0.079260 0.996854 0.000000 142 135 133 255
-0.027556 -0.126535 0.950119 -0.079260 0.996854 0.000000 185 96 99 255
-0.027556 -0.126535 0.977494 -0.079260 0.996854 0.000000 137 136 136 255
0.185323 -0.109609 0.977494 -0.079260 0.996854 0.000000 136 136 136 255
0.114363 -0.115251 0.950119 -0.079260 0.996854 0.000000 184 97 100 255
0.114363 -0.115251 0.977494 -0.079260 0.996854 0.000000 137 136 136 255
-0.213721 0.122909 0.977494 0.000000 0.000000 1.000000 137 136 136 255
-0.213721 -0.122902 0.977494 0.000000 0.000000 1.000000 137 135 135 255
-0.183879 0.097884 0.977494 0.000000 0.000000 1.000000 152 134 125 255
-0.489653 0.282701 0.518709 -0.497647 0.861950 0.096899 136 136 136 255
0.000000 0.565403 0.518709 -0.497647 0.861950 0.096899 139 134 134 255
-0.357900 0.413320 0.033460 -0.497647 0.861950 0.096899 137 136 135 255
0.000000 0.565403 0.518709 -0.497647 0.861950 0.096899 139 134 134 255
0.000018 0.619964 0.033460 -0.497647 0.861950 0.096899 137 136 135 255
-0.178941 0.516642 0.033460 -0.497647 0.861950 0.096899 137 136 135 255
-0.357900 0.413320 0.033460 -0.497647 0.861950 0.096899 137 136 135 255
0.000000 0.565403 0.518709 -0.497647 0.861950 0.096899 139 134 134 255
-0.178941 0.516642 0.033460 -0.497647 0.861950 0.096899 137 136 135 255
0.000000 0.565403 0.518709 0.497645 0.861947 0.096936 139 134 134 255
0.489653 0.282701 0.518709 0.497645 0.861947 0.096936 136 136 136 255
0.357937 0.413320 0.033460 0.497645 0.861947 0.096936 137 136 136 255
0.489653 0.282701 0.518709 0.497645 0.861947 0.096936 136 136 136 255
0.536896 0.309998 0.033460 0.497645 0.861947 0.096936 136 136 136 255
0.357937 0.413320 0.033460 0.497645 0.861947 0.096936 137 136 136 255
0.178977 0.516642 0.033460 0.497645 0.861947 0.096936 137 136 135 255
0.000018 0.619964 0.033460 0.497645 0.861947 0.096936 137 136 135 255
0.000000 0.565403 0.518709 0.497645 0.861947 0.096936 139 134 134 255
0.489653 0.282701 0.518709 0.995294 0.000000 0.096899 136 136 136 255
0.489653 -0.282701 0.518709 0.995294 0.000000 0.096899 136 136 136 255
0.536896 -0.103290 0.033460 0.995294 0.000000 0.096899 138 136 136 255
0.489653 -0.282701 0.518709 0.995294 0.000000 0.096899 136 136 136 255
0.536896 -0.309935 0.033460 0.995294 0.000000 0.096899 138 136 135 255
0.536896 -0.103290 0.033460 0.995294 0.000000 0.096899 138 136 136 255
0.536896 0.103354 0.033460 0.995294 0.000000 0.096899 137 136 136 255
0.536896 0.309998 0.033460 0.995294 0.000000 0.096899 136 136 136 255
0.489653 0.282701 0.518709 0.995294 0.000000 0.096899 136 136 136 255
-0.118812 -0.508371 0.339588 -0.856351 0.511743 -0.069146 136 136 136 255
-0.047694 -0.389017 0.342134 -0.856351 0.511743 -0.069146 185 129 91 255
-0.026898 -0.395925 0.033460 -0.856351 0.511743 -0.069146 176 106 108 255
-0.489653 -0.282701 0.518709 -0.995301 0.000000 0.096825 138 135 135 255
-0.489653 0.282701 0.518709 -0.995301 0.000000 0.096825 136 136 136 255
-0.536859 0.103354 0.033460 -0.995301 0.000000 0.096825 137 136 136 255
-0.489653 0.282701 0.518709 -0.995301 0.000000 0.096825 136 136 136 255
-0.536859 0.309998 0.033460 -0.995301 0.000000 0.096825 137 136 135 255
-0.536859 0.103354 0.033460 -0.995301 0.000000 0.096825 137 136 136 255
-0.536859 0.103354 0.033460 -0.995301 0.000000 0.096825 137 136 136 255
-0.536859 -0.103290 0.033460 -0.995301 0.000000 0.096825 136 136 136 255
-0.489653 -0.282701 0.518709 -0.995301 0.000000 0.096825 138 135 135 255
-0.536859 -0.103290 0.033460 -0.995301 0.000000 0.096825 136 136 136 255
-0.536859 -0.309935 0.033460 -0.995301 0.000000 0.096825 136 136 136 255
-0.489653 -0.282701 0.518709 -0.995301 0.000000 0.096825 138 135 135 255
-0.536859 -0.309935 0.033460 -0.530045 -0.842190 0.098830 136 136 136 255
-0.431543 -0.376217 0.033460 -0.530045 -0.842190 0.098830 136 136 136 255
-0.489653 -0.282701 0.518709 -0.530045 -0.842190 0.098830 138 135 135 255
-0.431543 -0.376217 0.033460 -0.411914 -0.902659 0.124630 136 136 136 255
-0.380856 -0.357080 0.339588 -0.411914 -0.902659 0.124630 137 136 136 255
-0.489653 -0.282701 0.518709 -0.411914 -0.902660 0.124630 138 135 135 255
0.536896 -0.309935 0.033460 0.497651 -0.861956 0.096825 138 136 135 255
0.489653 -0.282701 0.518709 0.497651 -0.861956 0.096825 136 136 136 255
0.357937 -0.413257 0.033460 0.497651 -0.861956 0.096825 137 136 135 255
0.489653 -0.282701 0.518709 0.497651 -0.861956 0.096825 136 136 136 255
0.000000 -0.565403 0.518709 0.497651 -0.861956 0.096825 136 136 136 255
0.357937 -0.413257 0.033460 0.497651 -0.861956 0.096825 137 136 135 255
0.000000 -0.565403 0.518709 -0.499220 -0.864675 0.055828 136 136 136 255
-0.489653 -0.282701 0.518709 -0.499220 -0.864675 0.055828 138 135 135 255
-0.118812 -0.508371 0.339588 -0.499220 -0.864675 0.055828 136 136 136 255
-0.118812 -0.508371 0.339588 -0.499220 -0.864675 0.055828 136 136 136 255
-0.489653 -0.282701 0.518709 -0.499220 -0.864675 0.055828 138 135 135 255
-0.380856 -0.357080 0.339588 -0.499220 -0.864675 0.055828 137 136 136 255
-0.118812 -0.508371 0.339588 -0.575769 -0.808058 0.124630 136 136 136 255
-0.110042 -0.561836 0.033460 -0.575769 -0.808058 0.124630 136 136 136 255
0.000000 -0.565403 0.518709 -0.575769 -0.808058 0.124630 136 136 136 255
-0.110042 -0.561836 0.033460 -0.464335 -0.880128 0.098830 136 136 136 255
0.000018 -0.619901 0.033460 -0.464335 -0.880128 0.098830 136 136 136 255
0.000000 -0.565403 0.518709 -0.464335 -0.880128 0.098830 136 136 136 255
0.000018 -0.619901 0.033460 0.497651 -0.861956 0.096825 136 136 136 255
0.178977 -0.516579 0.033460 0.497651 -0.861956 0.096825 137 136 136 255
0.000000 -0.565403 0.518709 0.497651 -0.861956 0.096825 136 136 136 255
-0.026898 -0.395925 0.033460 -0.499948 -0.865938 -0.014303 176 106 108 255
-0.047694 -0.389017 0.342134 -0.499948 -0.865938 -0.014303 185 129 91 255
-0.309738 -0.237726 0.342098 -0.499948 -0.865938 -0.014303 185 96 99 255
-0.380856 -0.357080 0.339588 0.819364 -0.564417 -0.100384 137 136 136 255
-0.431543 -0.376217 0.033460 0.819364 -0.564417 -0.100384 136 136 136 255
-0.326118 -0.223171 0.033460 0.819364 -0.564417 -0.100384 185 96 99 255
-0.118812 -0.508371 0.339588 0.009032 0.015644 -0.999837 136 136 136 255
-0.380856 -0.357080 0.339588 0.009032 0.015644 -0.999837 137 136 136 255
-0.309738 -0.237726 0.342098 0.009032 0.015644 -0.999837 185 96 99 255
-0.434342 -0.250768 0.569501 -0.338187 -0.585757 0.736559 138 135 135 255
-0.489653 -0.282701 0.518709 -0.338187 -0.585757 0.736559 138 135 135 255
0.000000 -0.565403 0.518709 -0.338187 -0.585757 0.736559 136 136 136 255
0.000000 0.501535 0.569501 -0.338187 0.585756 0.736559 139 134 134 255
0.000000 0.565403 0.518709 -0.338187 0.585756 0.736559 139 134 134 255
-0.489653 0.282701 0.518709 -0.338187 0.585756 0.736559 136 136 136 255
-0.489653 -0.282701 0.518709 -0.676374 0.000000 0.736558 138 135 135 255
-0.434342 -0.250768 0.569501 -0.676374 0.000000 0.736558 138 135 135 255
-0.434342 0.250768 0.569501 -0.676374 0.000000 0.736559 136 136 136 255
-0.434342 -0.250768 0.569501 -0.926386 0.000000 0.376575 138 135 135 255
-0.279632 0.161446 0.950092 -0.926386 0.000000 0.376575 137 136 136 255
-0.434342 0.250768 0.569501 -0.926386 0.000000 0.376575 136 136 136 255
-0.489653 0.282701 0.518709 -0.676374 0.000000 0.736558 136 136 136 255
-0.489653 -0.282701 0.518709 -0.676374 0.000000 0.736558 138 135 135 255
-0.434342 0.250768 0.569501 -0.676374 0.000000 0.736558 136 136 136 255
-0.434342 0.250768 0.569501 -0.463193 0.802274 0.376575 136 136 136 255
-0.279632 0.161446 0.950092 -0.463193 0.802274 0.376575 137 136 136 255
0.000000 0.322891 0.950092 -0.463193 0.802274 0.376575 139 134 134 255
0.489653 -0.282701 0.518709 0.676374 0.000000 0.736558 136 136 136 255
0.489653 0.282701 0.518709 0.676374 0.000000 0.736558 136 136 136 255
0.434342 0.250768 0.569501 0.676374 0.000000 0.736558 136 136 136 255
0.279632 0.161446 0.950092 0.926386 0.000000 0.376575 136 136 136 255
0.434342 -0.250768 0.569501 0.926386 0.000000 0.376575 136 136 136 255
0.434342 0.250768 0.569501 0.926386 0.000000 0.376575 136 136 136 255
0.434342 -0.250768 0.569501 0.676374 0.000000 0.736558 136 136 136 255
0.489653 -0.282701 0.518709 0.676374 0.000000 0.736558 136 136 136 255
0.434342 0.250768 0.569501 0.676374 0.000000 0.736558 136 136 136 255
0.000000 0.501535 0.569501 -0.463193 0.802274 0.376575 139 134 134 255
-0.434342 0.250768 0.569501 -0.463193 0.802274 0.376575 136 136 136 255
0.000000 0.322891 0.950092 -0.463193 0.802274 0.376575 139 134 134 255
0.000000 0.501535 0.569501 0.463193 0.802274 0.376575 139 134 134 255
0.000000 0.322891 0.950092 0.463193 0.802274 0.376575 139 134 134 255
0.434342 0.250768 0.569501 0.463193 0.802274 0.376575 136 136 136 255
-0.279632 -0.161446 0.950092 -0.926386 0.000000 0.376575 137 135 135 255
-0.279632 0.161446 0.950092 -0.926386 0.000000 0.376575 137 136 136 255
-0.434342 -0.250768 0.569501 -0.926386 0.000000 0.376575 138 135 135 255
0.434342 -0.250768 0.569501 0.926386 0.000000 0.376575 136 136 136 255
0.279632 0.161446 0.950092 0.926386 0.000000 0.376575 136 136 136 255
0.279632 -0.161446 0.950092 0.926386 0.000000 0.376575 136 136 136 255
-0.000000 -0.322891 0.950092 -0.463193 -0.802274 0.376575 136 136 136 255
-0.279632 -0.161446 0.950092 -0.463193 -0.802274 0.376575 137 135 135 255
-0.434342 -0.250768 0.569501 -0.463193 -0.802274 0.376575 138 135 135 255
0.434342 -0.250768 0.569501 0.463193 -0.802274 0.376575 136 136 136 255
0.279632 -0.161446 0.950092 0.463193 -0.802274 0.376575 136 136 136 255
-0.000000 -0.322891 0.950092 0.463193 -0.802274 0.376575 136 136 136 255
-0.000000 -0.322891 0.950092 -0.463193 -0.802274 0.376575 136 136 136 255
-0.434342 -0.250768 0.569501 -0.463193 -0.802274 0.376575 138 135 135 255
-0.000000 -0.501535 0.569501 -0.463193 -0.802274 0.376575 136 136 136 255
-0.000000 -0.245812 0.950092 0.000000 0.000000 1.000000 136 136 136 255
-0.212879 -0.122906 0.950092 0.000000 0.000000 1.000000 137 135 135 255
-0.279632 -0.161446 0.950092 0.000000 0.000000 1.000000 137 135 135 255
0.000000 0.245812 0.950092 0.000000 0.000000 1.000000 136 133 134 255
0.000000 0.322891 0.950092 0.000000 0.000000 1.000000 139 134 134 255
-0.279632 0.161446 0.950092 0.000000 0.000000 1.000000 137 136 136 255
0.212879 -0.122906 0.950092 0.000000 0.000000 1.000000 136 136 136 255
-0.000000 -0.245812 0.950092 0.000000 0.000000 1.000000 136 136 136 255
-0.000000 -0.322891 0.950092 0.000000 0.000000 1.000000 136 136 136 255
0.000000 0.245812 0.950092 0.000000 0.000000 1.000000 136 133 134 255
0.212879 0.122906 0.950092 0.000000 0.000000 1.000000 137 136 136 255
0.279632 0.161446 0.950092 0.000000 0.000000 1.000000 136 136 136 255
-0.000000 -0.501535 0.569501 0.338187 -0.585756 0.736559 136 136 136 255
0.000000 -0.565403 0.518709 0.338187 -0.585756 0.736559 136 136 136 255
0.489653 -0.282701 0.518709 0.338187 -0.585756 0.736559 136 136 136 255
0.434342 0.250768 0.569501 0.338187 0.585757 0.736559 136 136 136 255
0.489653 0.282701 0.518709 0.338187 0.585757 0.736559 136 136 136 255
0.000000 0.565403 0.518709 0.338187 0.585757 0.736559 139 134 134 255
-0.212879 0.122906 0.950092 0.000000 0.000000 1.000000 137 136 136 255
-0.279632 0.161446 0.950092 0.000000 0.000000 1.000000 137 136 136 255
-0.279632 -0.161446 0.950092 0.000000 0.000000 1.000000 137 135 135 255
-0.212879 0.122906 0.950092 -0.499940 0.865922 -0.015475 137 136 136 255
-0.213721 0.122909 0.977494 -0.499940 0.865922 -0.015475 137 136 136 255
-0.000842 0.245815 0.977494 -0.499940 0.865922 -0.015475 134 132 133 255
0.212037 0.122909 0.977494 0.000000 0.000000 1.000000 137 136 136 255
0.185323 0.093227 0.977494 0.000000 0.000000 1.000000 137 136 136 255
0.212037 -0.122902 0.977494 0.000000 0.000000 1.000000 136 136 136 255
0.185323 0.093227 0.977494 0.000000 0.000000 1.000000 137 136 136 255
0.185323 -0.109609 0.977494 0.000000 0.000000 1.000000 136 136 136 255
0.212037 -0.122902 0.977494 0.000000 0.000000 1.000000 136 136 136 255
0.212879 0.122906 0.950092 0.999528 0.000000 0.030714 137 136 136 255
0.212037 0.122909 0.977494 0.999528 0.000000 0.030714 137 136 136 255
0.212037 -0.122902 0.977494 0.999528 0.000000 0.030714 136 136 136 255
0.000000 0.245812 0.950092 0.499942 0.865925 0.015250 136 133 134 255
-0.000842 0.245815 0.977494 0.499942 0.865925 0.015250 134 132 133 255
0.212037 0.122909 0.977494 0.499942 0.865925 0.015250 137 136 136 255
-0.212879 0.122906 0.950092 -0.999528 0.000000 -0.030714 137 136 136 255
-0.212879 -0.122906 0.950092 -0.999528 0.000000 -0.030714 137 135 135 255
-0.213721 -0.122902 0.977494 -0.999528 0.000000 -0.030714 137 135 135 255
-0.212879 -0.122906 0.950092 -0.499942 -0.865925 -0.015250 137 135 135 255
-0.000000 -0.245812 0.950092 -0.499942 -0.865925 -0.015250 136 136 136 255
-0.000842 -0.245808 0.977494 -0.499942 -0.865925 -0.015250 136 136 136 255
-0.000000 -0.245812 0.950092 0.499940 -0.865922 0.015475 136 136 136 255
0.212879 -0.122906 0.950092 0.499940 -0.865922 0.015475 136 136 136 255
0.212037 -0.122902 0.977494 0.499940 -0.865922 0.015475 136 136 136 255
0.212879 -0.122906 0.950092 0.000000 0.000000 1.000000 136 136 136 255
0.279632 -0.161446 0.950092 0.000000 0.000000 1.000000 136 136 136 255
0.279632 0.161446 0.950092 0.000000 0.000000 1.000000 136 136 136 255
0.043403 -0.120893 0.977494 0.000000 0.000000 1.000000 142 135 133 255
0.114363 -0.115251 0.977494 0.000000 0.000000 1.000000 137 136 136 255
0.114363 0.099070 0.977494 0.000000 0.000000 1.000000 141 131 129 255
0.185323 0.093227 0.977494 -1.000000 0.000000 0.000000 137 136 136 255
0.185323 0.093227 0.950119 -1.000000 0.000000 0.000000 182 100 102 255
0.185323 -0.109609 0.950119 -1.000000 0.000000 0.000000 185 96 99 255
-0.183879 0.097884 0.977494 0.082064 -0.996627 0.000000 152 134 125 255
-0.183879 0.097884 0.950119 0.082064 -0.996627 0.000000 185 129 91 255
-0.092914 0.105374 0.950119 0.082064 -0.996627 0.000000 185 96 99 255
-0.027556 -0.126535 0.977494 1.000000 -0.000000 0.000000 137 136 136 255
-0.027556 -0.126535 0.950119 1.000000 -0.000000 0.000000 185 96 99 255
-0.027556 0.110756 0.950119 1.000000 -0.000000 0.000000 182 100 102 255
-0.027556 -0.126535 0.977494 0.000000 0.000000 1.000000 137 136 136 255
-0.027556 0.110756 0.977494 0.000000 0.000000 1.000000 138 135 135 255
-0.092914 0.105374 0.977494 0.000000 0.000000 1.000000 138 136 136 255
-0.027556 -0.126535 0.950119 0.000000 0.000000 1.000000 185 96 99 255
0.043403 -0.120893 0.950119 0.000000 0.000000 1.000000 168 132 111 255
0.043403 0.104913 0.950119 0.000000 0.000000 1.000000 178 103 106 255
-0.092914 -0.121339 0.950119 0.000000 0.000000 1.000000 172 109 111 255
-0.092914 0.105374 0.950119 0.000000 0.000000 1.000000 185 96 99 255
-0.183879 0.097884 0.950119 0.000000 0.000000 1.000000 185 129 91 255
0.114363 -0.115251 0.950119 0.000000 0.000000 1.000000 184 97 100 255
0.185323 -0.109609 0.950119 0.000000 0.000000 1.000000 185 96 99 255
0.185323 0.093227 0.950119 0.000000 0.000000 1.000000 182 100 102 255
0.114363 -0.115251 0.977494 1.000000 0.000000 0.000000 137 136 136 255
0.114363 -0.115251 0.950119 1.000000 0.000000 0.000000 184 97 100 255
0.114363 0.099070 0.950119 1.000000 0.000000 0.000000 158 130 116 255
-0.092914 0.105374 0.977494 -1.000000 0.000000 0.000000 138 136 136 255
-0.092914 0.105374 0.950119 -1.000000 0.000000 0.000000 185 96 99 255
-0.092914 -0.121339 0.950119 -1.000000 0.000000 0.000000 172 109 111 255
-0.027556 0.110756 0.977494 -0.082064 -0.996627 0.000000 138 135 135 255
-0.027556 0.110756 0.950119 -0.082064 -0.996627 0.000000 182 100 102 255
0.043403 0.104913 0.950119 -0.082064 -0.996627 0.000000 178 103 106 255
0.114363 0.099070 0.977494 -0.082064 -0.996627 0.000000 141 131 129 255
0.114363 0.099070 0.950119 -0.082064 -0.996627 0.000000 158 130 116 255
0.185323 0.093227 0.950119 -0.082064 -0.996627 0.000000 182 100 102 255
0.043403 0.104913 0.977494 -1.000000 0.000000 0.000000 138 136 136 255
0.043403 0.104913 0.950119 -1.000000 0.000000 0.000000 178 103 106 255
0.043403 -0.120893 0.950119 -1.000000 0.000000 0.000000 168 132 111 255
-0.092914 -0.121339 0.977494 0.079260 0.996854 0.000000 137 136 136 255
-0.092914 -0.121339 0.950119 0.079260 0.996854 0.000000 172 109 111 255
-0.183879 -0.114106 0.950119 0.079260 0.996854 0.000000 185 96 99 255
-0.183879 -0.114106 0.977494 1.000000 0.000000 0.000000 137 135 135 255
-0.183879 -0.114106 0.950119 1.000000 0.000000 0.000000 185 96 99 255
-0.183879 0.097884 0.950119 1.000000 0.000000 0.000000 185 129 91 255
0.043403 -0.120893 0.977494 -0.079260 0.996854 0.000000 142 135 133 255
0.043403 -0.120893 0.950119 -0.079260 0.996854 0.000000 168 132 111 255
-0.027556 -0.126535 0.950119 -0.079260 0.996854 0.000000 185 96 99 255
0.185323 -0.109609 0.977494 -0.079260 0.996854 0.000000 136 136 136 255
0.185323 -0.109609 0.950119 -0.079260 0.996854 0.000000 185 96 99 255
0.114363 -0.115251 0.950119 -0.079260 0.996854 0.000000 184 97 100 255
-0.000842 -0.245808 0.977494 0.000000 0.000000 1.000000 136 136 136 255
0.212037 -0.122902 0.977494 0.000000 0.000000 1.000000 136 136 136 255
0.114363 -0.115251 0.977494 0.000000 0.000000 1.000000 137 136 136 255
-0.000842 -0.245808 0.977494 0.000000 0.000000 1.000000 136 136 136 255
0.114363 -0.115251 0.977494 0.000000 0.000000 1.000000 137 136 136 255
0.043403 -0.120893 0.977494 0.000000 0.000000 1.000000 142 135 133 255
0.212037 0.122909 0.977494 0.000000 0.000000 1.000000 137 136 136 255
-0.000842 0.245815 0.977494 0.000000 0.000000 1.000000 134 132 133 255
0.114363 0.099070 0.977494 0.000000 0.000000 1.000000 141 131 129 255
-0.000842 0.245815 0.977494 0.000000 0.000000 1.000000 134 132 133 255
-0.213721 0.122909 0.977494 0.000000 0.000000 1.000000 137 136 136 255
-0.092914 0.105374 0.977494 0.000000 0.000000 1.000000 138 136 136 255
-0.027556 0.110756 0.977494 0.000000 0.000000 1.000000 138 135 135 255
-0.000842 0.245815 0.977494 0.000000 0.000000 1.000000 134 132 133 255
-0.092914 0.105374 0.977494 0.000000 0.000000 1.000000 138 136 136 255
0.114363 0.099070 0.977494 0.000000 0.000000 1.000000 141 131 129 255
0.185323 0.093227 0.977494 0.000000 0.000000 1.000000 137 136 136 255
0.212037 0.122909 0.977494 0.000000 0.000000 1.000000 137 136 136 255
0.043403 0.104913 0.977494 0.000000 0.000000 1.000000 138 136 136 255
0.114363 0.099070 0.977494 0.000000 0.000000 1.000000 141 131 129 255
-0.000842 0.245815 0.977494 0.000000 0.000000 1.000000 134 132 133 255
-0.000842 -0.245808 0.977494 0.000000 0.000000 1.000000 136 136 136 255
0.043403 -0.120893 0.977494 0.000000 0.000000 1.000000 142 135 133 255
-0.027556 -0.126535 0.977494 0.000000 0.000000 1.000000 137 136 136 255
-0.027556 -0.126535 0.977494 0.000000 0.000000 1.000000 137 136 136 255
-0.092914 -0.121339 0.977494 0.000000 0.000000 1.000000 137 136 136 255
-0.000842 -0.245808 0.977494 0.000000 0.000000 1.000000 136 136 136 255
-0.092914 -0.121339 0.977494 0.000000 0.000000 1.000000 137 136 136 255
-0.183879 -0.114106 0.977494 0.000000 0.000000 1.000000 137 135 135 255
-0.000842 -0.245808 0.977494 0.000000 0.000000 1.000000 136 136 136 255
-0.183879 0.097884 0.977494 0.000000 0.000000 1.000000 152 134 125 255
-0.092914 0.105374 0.977494 0.000000 0.000000 1.000000 138 136 136 255
-0.213721 0.122909 0.977494 0.000000 0.000000 1.000000 137 136 136 255
-0.213721 -0.122902 0.977494 0.000000 0.000000 1.000000 137 135 135 255
-0.000842 -0.245808 0.977494 0.000000 0.000000 1.000000 136 136 136 255
-0.183879 -0.114106 0.977494 0.000000 0.000000 1.000000 137 135 135 255
-0.027556 0.110756 0.977494 0.000000 0.000000 1.000000 138 135 135 255
0.043403 0.104913 0.977494 0.000000 0.000000 1.000000 138 136 136 255
-0.000842 0.245815 0.977494 0.000000 0.000000 1.000000 134 132 133 255
-0.213721 -0.122902 0.977494 0.000000 0.000000 1.000000 137 135 135 255
-0.183879 -0.114106 0.977494 0.000000 0.000000 1.000000 137 135 135 255
-0.183879 0.097884 0.977494 0.000000 0.000000 1.000000 152 134 125 255
0.000000 -1.000000 0.030000 -0.500000 -0.866025 0.000000 110 185 124 255
-0.866025 -0.500000 0.000000 -0.500000 -0.866025 0.000000 110 185 124 255
0.000000 -1.000000 0.000000 -0.500000 -0.866025 0.000000 110 185 124 255
-0.866025 -0.500000 0.030000 -1.000000 0.000000 0.000000 110 185 124 255
-0.866025 0.500000 0.000000 -1.000000 0.000000 0.000000 110 185 124 255
-0.866025 -0.500000 0.000000 -1.000000 0.000000 0.000000 110 185 124 255
-0.866025 0.500000 0.030000 -0.500000 0.866025 0.000000 110 185 124 255
0.000000 1.000000 0.000000 -0.500000 0.866025 0.000000 110 185 124 255
-0.866025 0.500000 0.000000 -0.500000 0.866025 0.000000 110 185 124 255
0.000000 1.000000 0.030000 0.500000 0.866025 0.000000 110 185 124 255
0.866025 0.500000 0.000000 0.500000 0.866025 0.000000 110 185 124 255
0.000000 1.000000 0.000000 0.500000 0.866025 0.000000 110 185 124 255
0.000000 -1.000000 0.030000 0.000000 0.000000 1.000000 110 185 124 255
0.866025 0.500000 0.030000 0.000000 0.000000 1.000000 110 185 124 255
-0.866025 0.500000 0.030000 0.000000 0.000000 1.000000 110 185 124 255
0.866025 0.500000 0.030000 1.000000 0.000000 0.000000 110 185 124 255
0.866025 -0.500000 0.000000 1.000000 0.000000 0.000000 110 185 124 255
0.866025 0.500000 0.000000 1.000000 0.000000 0.000000 110 185 124 255
0.866025 -0.500000 0.030000 0.500000 -0.866025 0.000000 110 185 124 255
0.000000 -1.000000 0.000000 0.500000 -0.866025 0.000000 110 185 124 255
0.866025 -0.500000 0.000000 0.500000 -0.866025 0.000000 110 185 124 255
0.000000 -1.000000 0.030000 -0.500000 -0.866025 0.000000 110 185 124 255
-0.866025 -0.500000 0.030000 -0.500000 -0.866025 0.000000 110 185 124 255
-0.866025 -0.500000 0.000000 -0.500000 -0.866025 0.000000 110 185 124 255
-0.866025 -0.500000 0.030000 -1.000000 0.000000 0.000000 110 185 124 255
-0.866025 0.500000 0.030000 -1.000000 0.000000 0.000000 110 185 124 255
-0.866025 0.500000 0.000000 -1.000000 0.000000 0.000000 110 185 124 255
-0.866025 0.500000 0.030000 -0.500000 0.866025 0.000000 110 185 124 255
0.000000 1.000000 0.030000 -0.500000 0.866025 0.000000 110 185 124 255
0.000000 1.000000 0.000000 -0.500000 0.866025 0.000000 110 185 124 255
0.000000 1.000000 0.030000 0.500000 0.866025 0.000000 110 185 124 255
0.866025 0.500000 0.030000 0.500000 0.866025 0.000000 110 185 124 255
0.866025 0.500000 0.000000 0.500000 0.866025 0.000000 110 185 124 255
-0.866025 0.500000 0.030000 0.000000 0.000000 1.000000 110 185 124 255
-0.866025 -0.500000 0.030000 0.000000 0.000000 1.000000 110 185 124 255
0.000000 -1.000000 0.030000 0.000000 0.000000 1.000000 110 185 124 255
0.000000 -1.000000 0.030000 0.000000 0.000000 1.000000 110 185 124 255
0.866025 -0.500000 0.030000 0.000000 0.000000 1.000000 110 185 124 255
0.866025 0.500000 0.030000 0.000000 0.000000 1.000000 110 185 124 255
0.866025 0.500000 0.030000 0.000000 0.000000 1.000000 110 185 124 255
0.000000 1.000000 0.030000 0.000000 0.000000 1.000000 110 185 124 255
-0.866025 0.500000 0.030000 0.000000 0.000000 1.000000 110 185 124 255
0.866025 0.500000 0.030000 1.000000 0.000000 0.000000 110 185 124 255
0.866025 -0.500000 0.030000 1.000000 0.000000 0.000000 110 185 124 255
0.866025 -0.500000 0.000000 1.000000 0.000000 0.000000 110 185 124 255
0.866025 -0.500000 0.030000 0.500000 -0.866025 0.000000 110 185 124 255
0.000000 -1.000000 0.030000 0.500000 -0.866025 0.000000 110 185 124 255
0.000000 -1.000000 0.000000 0.500000 -0.866025 0.000000 110 185 124 255
0.000000 -0.750000 0.060000 -0.500000 -0.866025 0.000000 147 102 72 255
-0.649519 -0.375000 0.030000 -0.500000 -0.866025 0.000000 185 96 99 255
0.000000 -0.750000 0.030000 -0.500000 -0.866025 0.000000 148 102 72 255
-0.649519 -0.375000 0.060000 -1.000000 0.000000 0.000000 185 96 99 255
-0.649519 0.375000 0.030000 -1.000000 0.000000 0.000000 147 102 72 255
-0.649519 -0.375000 0.030000 -1.000000 0.000000 0.000000 185 96 99 255
-0.649519 0.375000 0.060000 -0.500000 0.866025 0.000000 149 102 73 255
0.000000 0.750000 0.030000 -0.500000 0.866025 0.000000 185 96 99 255
-0.649519 0.375000 0.030000 -0.500000 0.866025 0.000000 147 102 72 255
0.000000 0.750000 0.060000 0.500000 0.866025 0.000000 185 96 99 255
0.649519 0.375000 0.030000 0.500000 0.866025 0.000000 152 101 75 255
0.000000 0.750000 0.030000 0.500000 0.866025 0.000000 185 96 99 255
0.000000 -0.750000 0.060000 0.000000 0.000000 1.000000 147 102 72 255
0.649519 0.375000 0.060000 0.000000 0.000000 1.000000 150 102 74 255
-0.649519 0.375000 0.060000 0.000000 0.000000 1.000000 149 102 73 255
0.649519 0.375000 0.060000 1.000000 0.000000 0.000000 150 102 74 255
0.649519 -0.375000 0.030000 1.000000 0.000000 0.000000 185 96 99 255
0.649519 0.375000 0.030000 1.000000 0.000000 0.000000 152 101 75 255
0.649519 -0.375000 0.060000 0.500000 -0.866025 0.000000 185 96 99 255
0.000000 -0.750000 0.030000 0.500000 -0.866025 0.000000 148 102 72 255
0.649519 -0.375000 0.030000 0.500000 -0.866025 0.000000 185 96 99 255
-0.649519 -0.375000 0.060000 -0.500000 -0.866025 0.000000 185 96 99 255
-0.649519 0.375000 0.060000 -1.000000 0.000000 0.000000 149 102 73 255
0.000000 0.750000 0.060000 -0.500000 0.866025 0.000000 185 96 99 255
0.649519 0.375000 0.060000 0.500000 0.866025 0.000000 150 102 74 255
-0.649519 -0.375000 0.060000 0.000000 0.000000 1.000000 185 96 99 255
0.649519 -0.375000 0.060000 0.000000 0.000000 1.000000 185 96 99 255
0.000000 0.750000 0.060000 0.000000 0.000000 1.000000 185 96 99 255
0.649519 -0.375000 0.060000 1.000000 0.000000 0.000000 185 96 99 255
0.000000 -0.750000 0.060000 0.500000 -0.866025 0.000000 147 102 72 255
3 0 1 2
3 3 4 5
3 6 7 8
3 9 10 11
3 12 13 14
3 15 16 17
3 18 19 20
3 21 22 23
3 24 25 26
3 27 28 29
3 30 31 32
3 33 34 35
3 36 37 38
3 39 40 41
3 42 43 44
3 45 46 47
3 48 49 50
3 51 52 53
3 54 55 56
3 57 58 59
3 60 61 62
3 63 64 65
3 66 67 68
3 69 70 71
3 72 73 74
3 75 76 77
3 78 79 80
3 81 82 83
3 84 85 86
3 87 88 89
3 90 91 92
3 93 94 95
3 96 97 98
3 99 100 101
3 102 103 104
3 105 106 107
3 108 109 110
3 111 112 113
3 114 115 116
3 117 118 119
3 120 121 122
3 123 124 125
3 126 127 128
3 129 130 131
3 132 133 134
3 135 136 137
3 138 139 140
3 141 142 143
3 144 145 146
3 147 148 149
3 150 151 152
3 153 154 155
3 156 157 158
3 159 160 161
3 162 163 164
3 165 166 167
3 168 169 170
3 171 172 173
3 174 175 176
3 177 178 179
3 180 181 182
3 183 184 185
3 186 187 188
3 189 190 191
3 192 193 194
3 195 196 197
3 198 199 200
3 201 202 203
3 204 205 206
3 207 208 209
3 210 211 212
3 213 214 215
3 216 217 218
3 219 220 221
3 222 223 224
3 225 226 227
3 228 229 230
3 231 232 233
3 234 235 236
3 237 238 239
3 240 241 242
3 243 244 245
3 246 247 248
3 249 250 251
3 252 253 254
3 255 256 257
3 258 259 260
3 261 262 263
3 264 265 266
3 267 268 269
3 270 271 272
3 273 274 275
3 276 277 278
3 279 280 281
3 282 283 284
3 285 286 287
3 288 289 290
3 291 292 293
3 294 295 296
3 297 298 299
3 300 301 302
3 303 304 305
3 306 307 308
3 309 310 311
3 312 313 314
3 315 316 317
3 318 319 320
3 321 322 323
3 324 325 326
3 327 328 329
3 330 331 332
3 333 334 335
3 336 337 338
3 339 340 341
3 342 343 344
3 345 346 347
3 348 349 350
3 351 352 353
3 354 355 356
3 357 358 359
3 360 361 362
3 363 364 365
3 366 367 368
3 369 370 371
3 372 373 374
3 375 376 377
3 378 379 380
3 381 382 383
3 384 385 386
3 387 388 389
3 390 391 392
3 393 394 395
3 396 397 398
3 399 400 401
3 402 403 404
3 405 406 407
3 408 409 410
3 411 412 413
3 414 415 416
3 417 418 419
3 420 421 422
3 423 424 425
3 426 427 428
3 429 430 431
3 432 433 434
3 435 436 437
3 438 439 440
3 441 442 443
3 444 445 446
3 447 448 449
3 450 451 452
3 453 454 455
3 456 457 458
3 459 460 461
3 462 463 464
3 465 466 467
3 468 469 470
3 450 471 451
3 453 472 454
3 456 473 457
3 459 474 460
3 464 475 462
3 462 476 463
3 463 477 464
3 465 478 466
3 468 479 469
