ply
format ascii 1.0
comment Created by Blender 3.6.0 - www.blender.org
element vertex 111
property float x
property float y
property float z
property float nx
property float ny
property float nz
property uchar red
property uchar green
property uchar blue
property uchar alpha
element face 57
property list uchar uint vertex_indices
end_header
0.000000 -0.750000 0.060000 -0.500000 -0.866025 0.000000 116 183 201 255
-0.649519 -0.375000 0.030000 -0.500000 -0.866025 0.000000 116 183 201 255
0.000000 -0.750000 0.030000 -0.500000 -0.866025 0.000000 116 183 201 255
-0.649519 -0.375000 0.060000 -1.000000 0.000000 0.000000 116 183 201 255
-0.649519 0.375000 0.030000 -1.000000 0.000000 0.000000 116 183 201 255
-0.649519 -0.375000 0.030000 -1.000000 0.000000 0.000000 116 183 201 255
-0.649519 0.375000 0.060000 -0.500000 0.866025 0.000000 116 183 201 255
0.000000 0.750000 0.030000 -0.500000 0.866025 0.000000 116 183 201 255
-0.649519 0.375000 0.030000 -0.500000 0.866025 0.000000 116 183 201 255
0.000000 0.750000 0.060000 0.500000 0.866025 0.000000 116 183 201 255
0.649519 0.375000 0.030000 0.500000 0.866025 0.000000 116 183 201 255
0.000000 0.750000 0.030000 0.500000 0.866025 0.000000 116 183 201 255
0.000000 -0.750000 0.060000 0.000000 0.000000 1.000000 116 183 201 255
0.649519 0.375000 0.060000 0.000000 0.000000 1.000000 116 183 201 255
-0.649519 0.375000 0.060000 0.000000 0.000000 1.000000 116 183 201 255
0.649519 0.375000 0.060000 1.000000 0.000000 0.000000 116 183 201 255
0.649519 -0.375000 0.030000 1.000000 0.000000 0.000000 116 183 201 255
0.649519 0.375000 0.030000 1.000000 0.000000 0.000000 116 183 201 255
0.649519 -0.375000 0.060000 0.500000 -0.866025 0.000000 116 183 201 255
0.000000 -0.750000 0.030000 0.500000 -0.866025 0.000000 116 183 201 255
0.649519 -0.375000 0.030000 0.500000 -0.866025 0.000000 116 183 201 255
-0.649519 -0.375000 0.060000 -0.500000 -0.866025 0.000000 116 183 201 255
-0.649519 0.375000 0.060000 -1.000000 0.000000 0.000000 116 183 201 255
0.000000 0.750000 0.060000 -0.500000 0.866025 0.000000 116 183 201 255
0.649519 0.375000 0.060000 0.500000 0.866025 0.000000 116 183 201 255
-0.649519 -0.375000 0.060000 0.000000 0.000000 1.000000 116 183 201 255
0.649519 -0.375000 0.060000 0.000000 0.000000 1.000000 116 183 201 255
0.000000 0.750000 0.060000 0.000000 0.000000 1.000000 116 183 201 255
0.649519 -0.375000 0.060000 1.000000 0.000000 0.000000 116 183 201 255
0.000000 -0.750000 0.060000 0.500000 -0.866025 0.000000 116 183 201 255
0.000000 -0.900000 0.030000 -0.163663 -0.283473 0.944911 137 116 185 255
-0.866025 -0.500000 0.000000 -0.163663 -0.283473 0.944911 137 116 185 255
0.000000 -1.000000 0.000000 -0.163663 -0.283473 0.944911 137 116 185 255
-0.779423 -0.450000 0.030000 -0.327327 0.000000 0.944911 137 116 185 255
-0.866025 0.500000 0.000000 -0.327327 0.000000 0.944911 137 116 185 255
-0.866025 -0.500000 0.000000 -0.327327 0.000000 0.944911 137 116 185 255
-0.866025 0.500000 0.000000 -0.163663 0.283473 0.944911 137 116 185 255
0.000000 0.900000 0.030000 -0.163663 0.283473 0.944911 137 116 185 255
0.000000 1.000000 0.000000 -0.163663 0.283473 0.944911 137 116 185 255
0.000000 0.900000 0.030000 0.163663 0.283473 0.944911 137 116 185 255
0.866025 0.500000 0.000000 0.163663 0.283473 0.944911 137 116 185 255
0.000000 1.000000 0.000000 0.163663 0.283473 0.944911 137 116 185 255
0.779423 0.450000 0.030000 0.000000 0.000000 1.000000 137 116 185 255
0.000000 0.900000 0.030000 0.000000 0.000000 1.000000 137 116 185 255
-0.779423 0.450000 0.030000 0.000000 0.000000 1.000000 137 116 185 255
0.779423 0.450000 0.030000 0.327327 0.000000 0.944911 137 116 185 255
0.866025 -0.500000 0.000000 0.327327 0.000000 0.944911 137 116 185 255
0.866025 0.500000 0.000000 0.327327 0.000000 0.944911 137 116 185 255
0.866025 -0.500000 0.000000 0.163663 -0.283473 0.944911 137 116 185 255
0.000000 -0.900000 0.030000 0.163663 -0.283473 0.944911 137 116 185 255
0.000000 -1.000000 0.000000 0.163663 -0.283473 0.944911 137 116 185 255
-0.779423 -0.450000 0.030000 -0.163663 -0.283473 0.944911 137 116 185 255
-0.779423 0.450000 0.030000 -0.327327 0.000000 0.944911 137 116 185 255
-0.779423 0.450000 0.030000 -0.163663 0.283473 0.944911 137 116 185 255
0.779423 0.450000 0.030000 0.163663 0.283473 0.944911 137 116 185 255
-0.779423 -0.450000 0.030000 0.000000 0.000000 1.000000 137 116 185 255
0.000000 -0.900000 0.030000 0.000000 0.000000 1.000000 137 116 185 255
0.779423 -0.450000 0.030000 0.000000 0.000000 1.000000 137 116 185 255
0.779423 -0.450000 0.030000 0.327327 0.000000 0.944911 137 116 185 255
0.779423 -0.450000 0.030000 0.163663 -0.283473 0.944911 137 116 185 255
-0.018904 -0.029613 0.080000 0.000011 -0.999820 0.018968 219 255 245 255
-0.671873 -0.030000 0.060000 0.000581 -1.000000 0.000377 219 255 245 255
-0.018298 -0.030000 0.060000 0.000000 -0.999813 0.019338 219 255 245 255
-0.671873 -0.030000 0.080000 -1.000000 0.000000 0.000000 219 255 245 255
-0.671873 0.030000 0.060000 -1.000000 0.000000 0.000000 219 255 245 255
-0.671873 -0.030000 0.060000 -1.000000 0.000000 0.000000 219 255 245 255
-0.671873 0.030000 0.080000 0.000000 1.000000 0.000000 219 255 245 255
-0.018298 0.030000 0.060000 0.000000 1.000000 0.000000 219 255 245 255
-0.671873 0.030000 0.060000 0.000000 1.000000 0.000000 219 255 245 255
-0.018904 -0.029613 0.080000 0.000000 0.000000 1.000000 219 255 245 255
-0.671873 0.030000 0.080000 0.000000 0.000000 1.000000 219 255 245 255
-0.671873 -0.030000 0.080000 0.000000 0.000000 1.000000 219 255 245 255
0.308173 0.596299 0.080000 0.500000 0.866025 0.000000 219 255 245 255
0.360134 0.566299 0.060000 0.500000 0.866025 0.000000 219 255 245 255
0.308173 0.596299 0.060000 0.500001 0.866025 0.000000 219 255 245 255
0.360134 0.566299 0.080000 0.865796 -0.500398 0.000000 219 255 245 255
0.033058 0.000387 0.060000 0.865796 -0.500398 0.000000 219 255 245 255
0.360134 0.566299 0.060000 0.865796 -0.500398 0.000000 219 255 245 255
-0.018298 0.030000 0.080000 -0.866345 0.499446 0.000000 219 255 245 255
0.308173 0.596299 0.060000 -0.866345 0.499446 0.000000 219 255 245 255
-0.018298 0.030000 0.060000 -0.866345 0.499446 0.000000 219 255 245 255
0.360134 0.566299 0.080000 0.000000 0.000000 1.000000 219 255 245 255
-0.018298 0.030000 0.080000 0.000000 0.000000 1.000000 219 255 245 255
0.033058 0.000387 0.080000 0.000000 0.000000 1.000000 219 255 245 255
0.359845 -0.565626 0.080000 0.500001 -0.866025 0.000000 219 255 245 255
0.307884 -0.595626 0.060000 0.500001 -0.866025 0.000000 219 255 245 255
0.359845 -0.565626 0.060000 0.500001 -0.866025 0.000000 219 255 245 255
0.307884 -0.595626 0.080000 -0.866274 -0.499569 -0.000323 219 255 245 255
-0.018298 -0.030000 0.060000 -0.865916 -0.499926 -0.016243 219 255 245 255
0.307884 -0.595626 0.060000 -0.866279 -0.499560 0.000000 219 255 245 255
0.033058 0.000387 0.080000 0.866025 0.500000 0.000000 219 255 245 255
0.359845 -0.565626 0.060000 0.866025 0.500000 0.000000 219 255 245 255
0.033058 0.000387 0.060000 0.866025 0.500000 0.000000 219 255 245 255
-0.018904 -0.029613 0.080000 0.000000 0.000000 1.000000 219 255 245 255
0.359845 -0.565626 0.080000 0.000000 0.000000 1.000000 219 255 245 255
0.033058 0.000387 0.080000 0.000000 0.000000 1.000000 219 255 245 255
-0.018298 0.030000 0.080000 0.000000 0.000000 1.000000 219 255 245 255
-0.018904 -0.029613 0.080000 0.000000 0.000000 1.000000 219 255 245 255
0.033058 0.000387 0.080000 0.000000 0.000000 1.000000 219 255 245 255
-0.671873 -0.030000 0.080000 0.000592 -1.000000 0.000000 219 255 245 255
-0.671873 0.030000 0.080000 -1.000000 0.000000 0.000000 219 255 245 255
-0.018298 0.030000 0.080000 0.000000 1.000000 0.000000 219 255 245 255
-0.018298 0.030000 0.080000 0.000000 0.000000 1.000000 219 255 245 255
0.360134 0.566299 0.080000 0.500001 0.866025 0.000000 219 255 245 255
0.033058 0.000387 0.080000 0.865796 -0.500398 0.000000 219 255 245 255
0.308173 0.596299 0.080000 -0.866345 0.499446 0.000000 219 255 245 255
0.308173 0.596299 0.080000 0.000000 0.000000 1.000000 219 255 245 255
0.307884 -0.595626 0.080000 0.500001 -0.866025 0.000000 219 255 245 255
-0.018904 -0.029613 0.080000 -0.865907 -0.499931 -0.016560 219 255 245 255
0.359845 -0.565626 0.080000 0.866025 0.500000 0.000000 219 255 245 255
0.307884 -0.595626 0.080000 0.000000 0.000000 1.000000 219 255 245 255
3 0 1 2
3 3 4 5
3 6 7 8
3 9 10 11
3 12 13 14
3 15 16 17
3 18 19 20
3 0 21 1
3 3 22 4
3 6 23 7
3 9 24 10
3 14 25 12
3 12 26 13
3 13 27 14
3 15 28 16
3 18 29 19
3 30 31 32
3 33 34 35
3 36 37 38
3 39 40 41
3 42 43 44
3 45 46 47
3 48 49 50
3 30 51 31
3 33 52 34
3 36 53 37
3 39 54 40
3 44 55 42
3 55 56 42
3 56 57 42
3 45 58 46
3 48 59 49
3 60 61 62
3 63 64 65
3 66 67 68
3 69 70 71
3 72 73 74
3 75 76 77
3 78 79 80
3 81 82 83
3 84 85 86
3 87 88 89
3 90 91 92
3 93 94 95
3 96 97 98
3 60 99 61
3 63 100 64
3 66 101 67
3 69 102 70
3 72 103 73
3 75 104 76
3 78 105 79
3 81 106 82
3 84 107 85
3 87 108 88
3 90 109 91
3 93 110 94
