ply
format ascii 1.0
comment Created by Blender 3.6.0 - www.blender.org
element vertex 123
property float x
property float y
property float z
property float nx
property float ny
property float nz
property uchar red
property uchar green
property uchar blue
property uchar alpha
element face 41
property list uchar uint vertex_indices
end_header
0.017031 -0.030177 0.060000 0.866007 -0.499990 0.006447 219 255 245 255
-0.309119 -0.595858 -0.000000 0.866007 -0.499990 0.006447 219 255 245 255
0.017669 -0.029846 -0.000000 0.866007 -0.499990 0.006447 219 255 245 255
-0.309119 -0.595858 0.060000 -0.500000 -0.866026 0.000000 219 255 245 255
-0.361080 -0.565858 -0.000000 -0.500000 -0.866026 0.000000 219 255 245 255
-0.309119 -0.595858 -0.000000 -0.500000 -0.866026 0.000000 219 255 245 255
-0.361080 -0.565858 0.060000 -0.866025 0.500000 0.000000 219 255 245 255
-0.034293 0.000154 -0.000000 -0.866025 0.500000 0.000000 219 255 245 255
-0.361080 -0.565858 -0.000000 -0.866025 0.500000 0.000000 219 255 245 255
0.017031 -0.030177 0.060000 0.000000 0.000000 1.000000 219 255 245 255
-0.361080 -0.565858 0.060000 0.000000 0.000000 1.000000 219 255 245 255
-0.309119 -0.595858 0.060000 0.000000 0.000000 1.000000 219 255 245 255
-0.361487 0.566035 0.060000 -0.500000 0.866026 0.000000 219 255 245 255
-0.309525 0.596035 -0.000000 -0.500000 0.866026 0.000000 219 255 245 255
-0.361487 0.566035 -0.000000 -0.500000 0.866026 0.000000 219 255 245 255
-0.309525 0.596035 0.060000 0.866255 0.499602 0.000000 219 255 245 255
0.017031 0.029823 -0.000000 0.866255 0.499602 0.000000 219 255 245 255
-0.309525 0.596035 -0.000000 0.866255 0.499602 0.000000 219 255 245 255
-0.034293 0.000154 0.060000 -0.865706 -0.500553 0.000000 219 255 245 255
-0.361487 0.566035 -0.000000 -0.865706 -0.500553 0.000000 219 255 245 255
-0.034293 0.000154 -0.000000 -0.865706 -0.500553 0.000000 219 255 245 255
-0.309525 0.596035 0.060000 0.000000 0.000000 1.000000 219 255 245 255
-0.034293 0.000154 0.060000 0.000000 0.000000 1.000000 219 255 245 255
0.017031 0.029823 0.060000 0.000000 0.000000 1.000000 219 255 245 255
0.670606 0.029823 0.060000 1.000000 0.000000 0.000000 219 255 245 255
0.670606 -0.030177 -0.000000 1.000000 0.000000 0.000000 219 255 245 255
0.670606 0.029823 -0.000000 1.000000 0.000000 0.000000 219 255 245 255
0.670606 -0.030177 0.060000 -0.000507 -1.000000 0.000000 219 255 245 255
0.017669 -0.029846 -0.000000 -0.000507 -1.000000 0.000000 219 255 245 255
0.670606 -0.030177 -0.000000 -0.000507 -1.000000 0.000000 219 255 245 255
0.017031 0.029823 0.060000 -0.000000 1.000000 0.000000 219 255 245 255
0.670606 0.029823 -0.000000 -0.000000 1.000000 0.000000 219 255 245 255
0.017031 0.029823 -0.000000 -0.000000 1.000000 0.000000 219 255 245 255
0.017031 -0.030177 0.060000 0.000000 0.000000 1.000000 219 255 245 255
0.670606 0.029823 0.060000 0.000000 0.000000 1.000000 219 255 245 255
0.017031 0.029823 0.060000 0.000000 0.000000 1.000000 219 255 245 255
-0.034293 0.000154 0.060000 0.000000 0.000000 1.000000 219 255 245 255
0.017031 -0.030177 0.060000 0.000000 0.000000 1.000000 219 255 245 255
0.017031 0.029823 0.060000 0.000000 0.000000 1.000000 219 255 245 255
0.017031 -0.030177 0.060000 0.866321 -0.499487 0.000000 219 255 245 255
-0.309119 -0.595858 0.060000 0.866321 -0.499487 0.000000 219 255 245 255
-0.309119 -0.595858 -0.000000 0.866322 -0.499487 0.000000 219 255 245 255
-0.309119 -0.595858 0.060000 -0.500000 -0.866026 0.000000 219 255 245 255
-0.361080 -0.565858 0.060000 -0.500000 -0.866026 0.000000 219 255 245 255
-0.361080 -0.565858 -0.000000 -0.500000 -0.866026 0.000000 219 255 245 255
-0.361080 -0.565858 0.060000 -0.866025 0.500000 0.000000 219 255 245 255
-0.034293 0.000154 0.060000 -0.866025 0.500000 0.000000 219 255 245 255
-0.034293 0.000154 -0.000000 -0.866025 0.500000 0.000000 219 255 245 255
0.017031 -0.030177 0.060000 0.000000 0.000000 1.000000 219 255 245 255
-0.034293 0.000154 0.060000 0.000000 0.000000 1.000000 219 255 245 255
-0.361080 -0.565858 0.060000 0.000000 0.000000 1.000000 219 255 245 255
-0.361487 0.566035 0.060000 -0.500000 0.866026 0.000000 219 255 245 255
-0.309525 0.596035 0.060000 -0.500000 0.866026 0.000000 219 255 245 255
-0.309525 0.596035 -0.000000 -0.500000 0.866026 0.000000 219 255 245 255
-0.309525 0.596035 0.060000 0.866255 0.499602 0.000000 219 255 245 255
0.017031 0.029823 0.060000 0.866255 0.499602 0.000000 219 255 245 255
0.017031 0.029823 -0.000000 0.866255 0.499602 0.000000 219 255 245 255
-0.034293 0.000154 0.060000 -0.865706 -0.500553 0.000000 219 255 245 255
-0.361487 0.566035 0.060000 -0.865706 -0.500553 0.000000 219 255 245 255
-0.361487 0.566035 -0.000000 -0.865706 -0.500553 0.000000 219 255 245 255
-0.309525 0.596035 0.060000 0.000000 0.000000 1.000000 219 255 245 255
-0.361487 0.566035 0.060000 0.000000 0.000000 1.000000 219 255 245 255
-0.034293 0.000154 0.060000 0.000000 0.000000 1.000000 219 255 245 255
0.670606 0.029823 0.060000 1.000000 0.000000 0.000000 219 255 245 255
0.670606 -0.030177 0.060000 1.000000 0.000000 0.000000 219 255 245 255
0.670606 -0.030177 -0.000000 1.000000 0.000000 0.000000 219 255 245 255
0.670606 -0.030177 0.060000 -0.000000 -0.999985 -0.005521 219 255 245 255
0.017031 -0.030177 0.060000 -0.000000 -0.999985 -0.005521 219 255 245 255
0.017669 -0.029846 -0.000000 -0.000000 -0.999985 -0.005521 219 255 245 255
0.017031 0.029823 0.060000 -0.000000 1.000000 0.000000 219 255 245 255
0.670606 0.029823 0.060000 -0.000000 1.000000 0.000000 219 255 245 255
0.670606 0.029823 -0.000000 -0.000000 1.000000 0.000000 219 255 245 255
0.017031 -0.030177 0.060000 0.000000 0.000000 1.000000 219 255 245 255
0.670606 -0.030177 0.060000 0.000000 0.000000 1.000000 219 255 245 255
0.670606 0.029823 0.060000 0.000000 0.000000 1.000000 219 255 245 255
0.000000 -0.750000 0.000000 0.000000 0.000000 1.000000 116 183 201 255
0.649519 0.375000 0.000000 0.000000 0.000000 1.000000 116 183 201 255
-0.649519 0.375000 0.000000 0.000000 0.000000 1.000000 116 183 201 255
-0.649519 0.375000 0.000000 0.000000 0.000000 1.000000 116 183 201 255
-0.649519 -0.375000 0.000000 0.000000 0.000000 1.000000 116 183 201 255
0.000000 -0.750000 0.000000 0.000000 0.000000 1.000000 116 183 201 255
0.000000 -0.750000 0.000000 0.000000 0.000000 1.000000 116 183 201 255
0.649519 -0.375000 0.000000 0.000000 0.000000 1.000000 116 183 201 255
0.649519 0.375000 0.000000 0.000000 0.000000 1.000000 116 183 201 255
0.649519 0.375000 0.000000 0.000000 0.000000 1.000000 116 183 201 255
0.000000 0.750000 0.000000 0.000000 0.000000 1.000000 116 183 201 255
-0.649519 0.375000 0.000000 0.000000 0.000000 1.000000 116 183 201 255
0.866025 0.500000 0.000000 0.000000 0.000000 1.000000 137 116 185 255
0.000000 0.750000 0.000000 0.000000 0.000000 1.000000 137 116 185 255
0.649519 0.375000 0.000000 0.000000 0.000000 1.000000 137 116 185 255
-0.866025 -0.500000 0.000000 0.000000 0.000000 1.000000 137 116 185 255
0.000000 -0.750000 0.000000 0.000000 0.000000 1.000000 137 116 185 255
-0.649519 -0.375000 0.000000 0.000000 0.000000 1.000000 137 116 185 255
0.000000 1.000000 0.000000 0.000000 0.000000 1.000000 137 116 185 255
-0.649519 0.375000 0.000000 0.000000 0.000000 1.000000 137 116 185 255
0.000000 0.750000 0.000000 0.000000 0.000000 1.000000 137 116 185 255
-0.866025 0.500000 0.000000 0.000000 0.000000 1.000000 137 116 185 255
-0.649519 -0.375000 0.000000 0.000000 0.000000 1.000000 137 116 185 255
-0.649519 0.375000 0.000000 0.000000 0.000000 1.000000 137 116 185 255
0.000000 -1.000000 0.000000 0.000000 0.000000 1.000000 137 116 185 255
0.649519 -0.375000 0.000000 0.000000 0.000000 1.000000 137 116 185 255
0.000000 -0.750000 0.000000 0.000000 0.000000 1.000000 137 116 185 255
0.866025 -0.500000 0.000000 0.000000 0.000000 1.000000 137 116 185 255
0.649519 0.375000 0.000000 0.000000 0.000000 1.000000 137 116 185 255
0.649519 -0.375000 0.000000 0.000000 0.000000 1.000000 137 116 185 255
0.866025 0.500000 0.000000 0.000000 0.000000 1.000000 137 116 185 255
0.000000 1.000000 0.000000 0.000000 0.000000 1.000000 137 116 185 255
0.000000 0.750000 0.000000 0.000000 0.000000 1.000000 137 116 185 255
-0.866025 -0.500000 0.000000 0.000000 0.000000 1.000000 137 116 185 255
0.000000 -1.000000 0.000000 0.000000 0.000000 1.000000 137 116 185 255
0.000000 -0.750000 0.000000 0.000000 0.000000 1.000000 137 116 185 255
0.000000 1.000000 0.000000 0.000000 0.000000 1.000000 137 116 185 255
-0.866025 0.500000 0.000000 0.000000 0.000000 1.000000 137 116 185 255
-0.649519 0.375000 0.000000 0.000000 0.000000 1.000000 137 116 185 255
-0.866025 0.500000 0.000000 0.000000 0.000000 1.000000 137 116 185 255
-0.866025 -0.500000 0.000000 0.000000 0.000000 1.000000 137 116 185 255
-0.649519 -0.375000 0.000000 0.000000 0.000000 1.000000 137 116 185 255
0.000000 -1.000000 0.000000 0.000000 0.000000 1.000000 137 116 185 255
0.866025 -0.500000 0.000000 0.000000 0.000000 1.000000 137 116 185 255
0.649519 -0.375000 0.000000 0.000000 0.000000 1.000000 137 116 185 255
0.866025 -0.500000 0.000000 0.000000 0.000000 1.000000 137 116 185 255
0.866025 0.500000 0.000000 0.000000 0.000000 1.000000 137 116 185 255
0.649519 0.375000 0.000000 0.000000 0.000000 1.000000 137 116 185 255
3 0 1 2
3 3 4 5
3 6 7 8
3 9 10 11
3 12 13 14
3 15 16 17
3 18 19 20
3 21 22 23
3 24 25 26
3 27 28 29
3 30 31 32
3 33 34 35
3 36 37 38
3 39 40 41
3 42 43 44
3 45 46 47
3 48 49 50
3 51 52 53
3 54 55 56
3 57 58 59
3 60 61 62
3 63 64 65
3 66 67 68
3 69 70 71
3 72 73 74
3 75 76 77
3 78 79 80
3 81 82 83
3 84 85 86
3 87 88 89
3 90 91 92
3 93 94 95
3 96 97 98
3 99 100 101
3 102 103 104
3 105 106 107
3 108 109 110
3 111 112 113
3 114 115 116
3 117 118 119
3 120 121 122
