ply
format ascii 1.0
comment Created by Blender 3.5.1 - www.blender.org
element vertex 258
property float x
property float y
property float z
property float nx
property float ny
property float nz
property uchar red
property uchar green
property uchar blue
property uchar alpha
element face 132
property list uchar uint vertex_indices
end_header
0.000000 -0.900000 0.030000 -0.163663 -0.283473 0.944911 110 185 124 255
-0.866025 -0.500000 0.000000 -0.163663 -0.283473 0.944911 110 185 124 255
0.000000 -1.000000 0.000000 -0.163663 -0.283473 0.944911 110 185 124 255
-0.779423 -0.450000 0.030000 -0.327327 0.000000 0.944911 110 185 124 255
-0.866025 0.500000 0.000000 -0.327327 0.000000 0.944911 110 185 124 255
-0.866025 -0.500000 0.000000 -0.327327 0.000000 0.944911 110 185 124 255
-0.866025 0.500000 0.000000 -0.163663 0.283473 0.944911 110 185 124 255
0.000000 0.900000 0.030000 -0.163663 0.283473 0.944911 110 185 124 255
0.000000 1.000000 0.000000 -0.163663 0.283473 0.944911 110 185 124 255
0.000000 0.900000 0.030000 0.163663 0.283473 0.944911 110 185 124 255
0.866025 0.500000 0.000000 0.163663 0.283473 0.944911 110 185 124 255
0.000000 1.000000 0.000000 0.163663 0.283473 0.944911 110 185 124 255
0.779423 0.450000 0.030000 0.327327 0.000000 0.944911 110 185 124 255
0.866025 -0.500000 0.000000 0.327327 0.000000 0.944911 110 185 124 255
0.866025 0.500000 0.000000 0.327327 0.000000 0.944911 110 185 124 255
0.866025 -0.500000 0.000000 0.163663 -0.283473 0.944911 110 185 124 255
0.000000 -0.900000 0.030000 0.163663 -0.283473 0.944911 110 185 124 255
0.000000 -1.000000 0.000000 0.163663 -0.283473 0.944911 110 185 124 255
-0.779423 -0.450000 0.030000 0.000000 0.000000 1.000000 110 185 124 255
0.000000 -0.900000 0.030000 0.000000 0.000000 1.000000 110 185 124 255
0.779423 -0.450000 0.030000 0.000000 0.000000 1.000000 110 185 124 255
-0.779423 -0.450000 0.030000 -0.163663 -0.283473 0.944911 110 185 124 255
-0.779423 0.450000 0.030000 -0.327327 0.000000 0.944911 110 185 124 255
-0.779423 0.450000 0.030000 -0.163663 0.283473 0.944911 110 185 124 255
0.779423 0.450000 0.030000 0.163663 0.283473 0.944911 110 185 124 255
0.779423 -0.450000 0.030000 0.327327 0.000000 0.944911 110 185 124 255
0.779423 -0.450000 0.030000 0.163663 -0.283473 0.944911 110 185 124 255
0.779423 0.450000 0.030000 0.000000 0.000000 1.000000 110 185 124 255
0.000000 0.900000 0.030000 0.000000 0.000000 1.000000 110 185 124 255
-0.779423 0.450000 0.030000 0.000000 0.000000 1.000000 110 185 124 255
0.439086 -0.253507 0.030000 0.480285 -0.831877 -0.278041 253 160 82 255
0.000000 -0.583916 0.260088 0.480285 -0.831877 -0.278041 252 174 94 255
0.000000 -0.507013 0.030000 0.480285 -0.831877 -0.278041 253 160 82 255
-0.505687 -0.291958 0.260088 -0.683545 0.000000 0.729909 252 174 94 255
-0.296313 0.171076 0.456163 -0.683545 0.000000 0.729909 221 156 74 255
-0.505687 0.291958 0.260088 -0.683545 0.000000 0.729909 252 174 94 255
0.000000 0.507013 0.030000 0.480285 0.831877 -0.278041 254 152 74 255
0.505687 0.291958 0.260088 0.480285 0.831877 -0.278041 252 174 94 255
0.439086 0.253507 0.030000 0.480285 0.831877 -0.278041 253 160 82 255
-0.439086 -0.253507 0.030000 -0.960569 0.000000 -0.278041 252 174 94 255
-0.505687 0.291958 0.260088 -0.960569 0.000000 -0.278041 252 174 94 255
-0.439086 0.253507 0.030000 -0.960569 0.000000 -0.278041 252 174 94 255
0.439086 0.253507 0.030000 0.960569 0.000000 -0.278041 253 160 82 255
0.505687 -0.291958 0.260088 0.960569 0.000000 -0.278041 252 174 94 255
0.439086 -0.253507 0.030000 0.960569 0.000000 -0.278041 253 160 82 255
-0.439086 0.253507 0.030000 -0.480285 0.831877 -0.278041 252 174 94 255
0.000000 0.583916 0.260088 -0.480285 0.831877 -0.278041 253 160 82 255
0.000000 0.507013 0.030000 -0.480285 0.831877 -0.278041 254 152 74 255
0.000000 -0.507013 0.030000 -0.480285 -0.831877 -0.278041 253 160 82 255
-0.505687 -0.291958 0.260088 -0.480285 -0.831877 -0.278041 252 174 94 255
-0.439086 -0.253507 0.030000 -0.480285 -0.831877 -0.278041 252 174 94 255
0.000000 -0.342152 0.456163 -0.500000 -0.866026 0.000000 221 156 74 255
-0.296313 -0.171076 0.761030 -0.500000 -0.866026 0.000000 255 194 94 255
-0.296313 -0.171076 0.456163 -0.500000 -0.866025 0.000000 238 150 70 255
0.505687 -0.291958 0.260088 0.683545 0.000000 0.729909 252 174 94 255
0.296313 0.171076 0.456163 0.683545 0.000000 0.729909 221 156 74 255
0.296313 -0.171076 0.456163 0.683545 0.000000 0.729909 238 150 70 255
-0.505687 0.291958 0.260088 -0.341772 0.591967 0.729909 252 174 94 255
0.000000 0.342152 0.456163 -0.341772 0.591967 0.729909 238 150 70 255
0.000000 0.583916 0.260088 -0.341772 0.591967 0.729909 253 160 82 255
0.000000 -0.583916 0.260088 -0.341772 -0.591967 0.729909 252 174 94 255
-0.296313 -0.171076 0.456163 -0.341772 -0.591967 0.729909 238 150 70 255
-0.505687 -0.291958 0.260088 -0.341772 -0.591967 0.729909 252 174 94 255
0.505687 -0.291958 0.260088 0.341772 -0.591967 0.729909 252 174 94 255
0.000000 -0.342152 0.456163 0.341772 -0.591967 0.729909 221 156 74 255
0.000000 -0.583916 0.260088 0.341772 -0.591967 0.729909 252 174 94 255
0.000000 0.583916 0.260088 0.341772 0.591967 0.729909 253 160 82 255
0.296313 0.171076 0.456163 0.341772 0.591967 0.729909 221 156 74 255
0.505687 0.291958 0.260088 0.341772 0.591967 0.729909 252 174 94 255
0.296313 0.171076 0.761030 0.896021 0.000000 -0.444012 255 194 94 255
0.365780 -0.211183 0.901216 0.896021 0.000000 -0.444011 255 212 103 255
0.296313 -0.171076 0.761030 0.896021 0.000000 -0.444011 255 194 94 255
0.296313 -0.171076 0.456163 0.500000 -0.866026 0.000000 238 150 70 255
0.000000 -0.342152 0.761030 0.500000 -0.866026 0.000000 255 194 94 255
0.000000 -0.342152 0.456163 0.500000 -0.866025 0.000000 221 156 74 255
0.000000 0.342152 0.456163 0.500000 0.866025 0.000000 238 150 70 255
0.296313 0.171076 0.761030 0.500000 0.866025 0.000000 255 194 94 255
0.296313 0.171076 0.456163 0.500000 0.866025 0.000000 221 156 74 255
-0.296313 -0.171076 0.456163 -1.000000 0.000000 0.000000 238 150 70 255
-0.296313 0.171076 0.761030 -1.000000 0.000000 0.000000 255 194 94 255
-0.296313 0.171076 0.456163 -1.000000 0.000000 0.000000 221 156 74 255
0.296313 0.171076 0.456163 1.000000 0.000000 0.000000 221 156 74 255
0.296313 -0.171076 0.761030 1.000000 0.000000 0.000000 255 194 94 255
0.296313 -0.171076 0.456163 1.000000 0.000000 0.000000 238 150 70 255
-0.296313 0.171076 0.456163 -0.500000 0.866025 0.000000 221 156 74 255
0.000000 0.342152 0.761030 -0.500000 0.866025 0.000000 255 194 94 255
0.000000 0.342152 0.456163 -0.500000 0.866025 0.000000 238 150 70 255
0.000000 -0.422366 0.901216 0.330267 -0.572039 0.750797 255 212 103 255
0.123413 -0.071253 1.114444 0.330267 -0.572039 0.750797 201 168 72 255
0.000000 -0.142505 1.114444 0.330267 -0.572039 0.750797 201 168 72 255
-0.296313 0.171076 0.761030 -0.448011 0.775977 -0.444011 255 194 94 255
0.000000 0.422366 0.901216 -0.448011 0.775977 -0.444011 255 212 103 255
0.000000 0.342152 0.761030 -0.448011 0.775977 -0.444011 255 194 94 255
-0.296313 -0.171076 0.761030 -0.448011 -0.775977 -0.444011 255 194 94 255
0.000000 -0.422366 0.901216 -0.448010 -0.775977 -0.444011 255 212 103 255
-0.365780 -0.211183 0.901216 -0.448011 -0.775977 -0.444011 255 212 103 255
0.296313 -0.171076 0.761030 0.448011 -0.775977 -0.444011 255 194 94 255
0.000000 -0.422366 0.901216 0.448011 -0.775977 -0.444011 255 212 103 255
0.000000 -0.342152 0.761030 0.448010 -0.775977 -0.444011 255 194 94 255
0.296313 0.171076 0.761030 0.448011 0.775977 -0.444011 255 194 94 255
0.000000 0.422366 0.901216 0.448011 0.775977 -0.444011 255 212 103 255
0.365780 0.211183 0.901216 0.448011 0.775977 -0.444011 255 212 103 255
-0.296313 -0.171076 0.761030 -0.896021 0.000000 -0.444012 255 194 94 255
-0.365780 0.211183 0.901216 -0.896021 0.000000 -0.444011 255 212 103 255
-0.296313 0.171076 0.761030 -0.896021 0.000000 -0.444011 255 194 94 255
0.123413 -0.071253 1.114444 0.908473 -0.005188 0.417912 201 168 72 255
0.017897 -0.005877 1.344631 0.904483 -0.036414 0.424952 236 158 74 255
0.015697 -0.044597 1.344631 0.902252 -0.051276 0.428150 236 158 74 255
0.000000 0.422366 0.901216 0.330267 0.572039 0.750797 255 212 103 255
0.123413 0.071253 1.114444 0.330267 0.572039 0.750797 201 168 72 255
0.365780 0.211183 0.901216 0.330267 0.572039 0.750797 255 212 103 255
-0.365780 -0.211183 0.901216 -0.660533 0.000000 0.750797 255 212 103 255
-0.123413 0.071253 1.114444 -0.660533 0.000000 0.750797 201 168 72 255
-0.365780 0.211183 0.901216 -0.660533 0.000000 0.750797 255 212 103 255
0.365780 0.211183 0.901216 0.660533 0.000000 0.750797 255 212 103 255
0.123413 -0.071253 1.114444 0.660533 0.000000 0.750797 201 168 72 255
0.365780 -0.211183 0.901216 0.660533 0.000000 0.750797 255 212 103 255
0.000000 0.422366 0.901216 -0.330267 0.572039 0.750797 255 212 103 255
-0.123413 0.071253 1.114444 -0.330267 0.572039 0.750797 201 168 72 255
0.000000 0.142505 1.114444 -0.330267 0.572039 0.750797 201 168 72 255
0.000000 -0.422366 0.901216 -0.330267 -0.572039 0.750797 255 212 103 255
-0.123413 -0.071253 1.114444 -0.330267 -0.572039 0.750797 201 168 72 255
-0.365780 -0.211183 0.901216 -0.330267 -0.572039 0.750797 255 212 103 255
-0.123413 0.071253 1.114444 -0.454328 0.789144 0.413326 201 168 72 255
-0.014511 0.015388 1.340811 -0.449158 0.792909 0.411768 236 158 74 255
0.000000 0.142505 1.114444 -0.455230 0.788482 0.413597 201 168 72 255
-0.123413 -0.071253 1.114444 -0.490624 -0.831586 0.260294 201 168 72 255
-0.018912 -0.062052 1.340811 -0.527103 -0.803732 0.276003 220 170 80 255
-0.051320 -0.040788 1.336990 -0.549070 -0.785536 0.285404 220 170 80 255
0.000000 -0.142505 1.114444 0.466021 -0.825185 0.319210 201 168 72 255
0.015697 -0.044597 1.344631 0.419649 -0.845224 0.330895 236 158 74 255
-0.018912 -0.062052 1.340811 0.394109 -0.855111 0.336843 220 170 80 255
0.123413 0.071253 1.114444 0.444321 0.768519 0.460388 201 168 72 255
-0.014511 0.015388 1.340811 0.446736 0.766529 0.461368 236 158 74 255
0.017897 -0.005877 1.344631 0.447881 0.765581 0.461832 236 158 74 255
-0.123413 -0.071253 1.114444 -0.949074 0.005912 0.314998 201 168 72 255
-0.049120 -0.002068 1.336990 -0.951285 0.036932 0.306093 226 157 69 255
-0.123413 0.071253 1.114444 -0.948540 0.000000 0.316657 201 168 72 255
-0.018912 -0.062052 1.340811 0.447603 -0.708011 -0.546235 220 170 80 255
-0.085561 -0.179143 1.437965 0.647636 -0.669889 -0.363066 233 176 89 255
-0.091719 -0.165222 1.395877 0.687022 -0.653933 -0.316816 231 188 100 255
0.017897 -0.005877 1.344631 0.251408 0.508759 0.823382 236 158 74 255
-0.128656 -0.133881 1.468472 0.319551 0.444014 0.837101 246 167 85 255
-0.104029 -0.163472 1.474263 0.327186 0.436328 0.838192 233 176 89 255
-0.051320 -0.040788 1.336990 -0.758621 0.068461 -0.647926 220 170 80 255
-0.134814 -0.119960 1.426383 -0.803964 0.227464 -0.549456 249 162 81 255
-0.049120 -0.002068 1.336990 -0.748667 0.042548 -0.661580 226 157 69 255
0.015697 -0.044597 1.344631 0.759943 -0.059559 0.647255 236 158 74 255
-0.104029 -0.163472 1.474263 0.810318 -0.226993 0.540239 233 176 89 255
-0.085561 -0.179143 1.437965 0.814818 -0.250585 0.522761 233 176 89 255
-0.049120 -0.002068 1.336990 -0.449869 0.752010 0.481767 226 157 69 255
-0.128656 -0.133881 1.468472 -0.600791 0.716381 0.354752 246 167 85 255
-0.014511 0.015388 1.340811 -0.434613 0.753822 0.492813 236 158 74 255
-0.018912 -0.062052 1.340811 -0.163836 -0.389901 -0.906165 220 170 80 255
-0.116346 -0.135631 1.390086 -0.194105 -0.355314 -0.914372 250 166 85 255
-0.051320 -0.040788 1.336990 -0.155450 -0.399263 -0.903562 220 170 80 255
-0.128656 -0.133881 1.468472 -0.882994 0.395079 0.253445 246 167 85 255
-0.326679 -0.343049 1.104625 -0.844958 0.507777 0.167956 245 156 74 255
-0.334987 -0.359873 1.114552 -0.842710 0.512837 0.163823 242 160 77 255
-0.091719 -0.165222 1.395877 0.625145 0.388957 -0.676687 231 188 100 255
-0.308811 -0.339659 1.095055 0.608203 0.412560 -0.678147 245 156 74 255
-0.116346 -0.135631 1.390086 0.625635 0.388258 -0.676636 250 166 85 255
-0.085561 -0.179143 1.437965 0.833268 -0.478607 -0.276768 233 176 89 255
-0.299252 -0.353094 1.095411 0.811698 -0.534817 -0.234768 245 156 74 255
-0.091719 -0.165222 1.395877 0.834423 -0.475141 -0.279248 231 188 100 255
-0.104029 -0.163472 1.474263 -0.646673 -0.413488 0.640970 233 176 89 255
-0.334987 -0.359873 1.114552 -0.633108 -0.431945 0.642338 242 160 77 255
-0.325428 -0.373308 1.114909 -0.632383 -0.432912 0.642401 242 160 77 255
-0.134814 -0.119960 1.426383 -0.201677 0.861758 -0.465509 249 162 81 255
-0.308811 -0.339659 1.095055 -0.355021 0.854167 -0.379947 245 156 74 255
-0.326679 -0.343049 1.104625 -0.362760 0.853040 -0.375136 245 156 74 255
-0.104029 -0.163472 1.474263 0.118306 -0.892918 0.434397 233 176 89 255
-0.307560 -0.369918 1.105338 0.326130 -0.890162 0.318201 237 161 77 255
-0.085561 -0.179143 1.437965 0.107514 -0.891701 0.439671 233 176 89 255
-0.326679 -0.343049 1.104625 -0.402695 -0.309427 -0.861448 245 156 74 255
-0.307560 -0.369918 1.105338 -0.402694 -0.309425 -0.861448 237 161 77 255
-0.334987 -0.359873 1.114552 -0.402695 -0.309424 -0.861449 242 160 77 255
0.505687 -0.291958 0.260088 0.480285 -0.831877 -0.278041 252 174 94 255
-0.296313 -0.171076 0.456163 -0.683545 0.000000 0.729909 238 150 70 255
0.000000 0.583916 0.260088 0.480285 0.831877 -0.278041 253 160 82 255
-0.505687 -0.291958 0.260088 -0.960569 0.000000 -0.278041 252 174 94 255
0.505687 0.291958 0.260088 0.960569 0.000000 -0.278041 252 174 94 255
-0.505687 0.291958 0.260088 -0.480285 0.831877 -0.278041 252 174 94 255
0.000000 -0.583916 0.260088 -0.480285 -0.831877 -0.278041 252 174 94 255
0.000000 -0.342152 0.761030 -0.500000 -0.866025 0.000000 255 194 94 255
0.505687 0.291958 0.260088 0.683545 0.000000 0.729909 252 174 94 255
-0.296313 0.171076 0.456163 -0.341772 0.591967 0.729909 221 156 74 255
0.000000 -0.342152 0.456163 -0.341772 -0.591967 0.729909 221 156 74 255
0.296313 -0.171076 0.456163 0.341772 -0.591967 0.729909 238 150 70 255
0.000000 0.342152 0.456163 0.341772 0.591967 0.729909 238 150 70 255
0.365780 0.211183 0.901216 0.896021 0.000000 -0.444011 255 212 103 255
0.296313 -0.171076 0.761030 0.500000 -0.866025 0.000000 255 194 94 255
0.000000 0.342152 0.761030 0.500000 0.866025 0.000000 255 194 94 255
-0.296313 -0.171076 0.761030 -1.000000 0.000000 0.000000 255 194 94 255
0.296313 0.171076 0.761030 1.000000 0.000000 0.000000 255 194 94 255
-0.296313 0.171076 0.761030 -0.500000 0.866025 0.000000 255 194 94 255
0.365780 -0.211183 0.901216 0.330267 -0.572039 0.750797 255 212 103 255
-0.365780 0.211183 0.901216 -0.448011 0.775977 -0.444011 255 212 103 255
0.000000 -0.342152 0.761030 -0.448011 -0.775977 -0.444011 255 194 94 255
0.365780 -0.211183 0.901216 0.448011 -0.775977 -0.444011 255 212 103 255
0.000000 0.342152 0.761030 0.448011 0.775977 -0.444011 255 194 94 255
-0.365780 -0.211183 0.901216 -0.896021 0.000000 -0.444011 255 212 103 255
0.123413 0.071253 1.114444 0.909044 0.000000 0.416700 201 168 72 255
0.000000 0.142505 1.114444 0.330267 0.572039 0.750797 201 168 72 255
-0.123413 -0.071253 1.114444 -0.660533 0.000000 0.750797 201 168 72 255
0.123413 0.071253 1.114444 0.660533 0.000000 0.750797 201 168 72 255
-0.365780 0.211183 0.901216 -0.330267 0.572039 0.750797 255 212 103 255
0.000000 -0.142505 1.114444 -0.330267 -0.572039 0.750797 201 168 72 255
-0.049120 -0.002068 1.336990 -0.446318 0.794956 0.410907 226 157 69 255
0.000000 -0.142505 1.114444 -0.483195 -0.836918 0.257082 201 168 72 255
0.123413 -0.071253 1.114444 0.474209 -0.821354 0.317022 201 168 72 255
0.000000 0.142505 1.114444 0.443903 0.768863 0.460218 201 168 72 255
-0.051320 -0.040788 1.336990 -0.952082 0.054108 0.301019 220 170 80 255
0.015697 -0.044597 1.344631 0.420149 -0.709051 -0.566323 236 158 74 255
-0.014511 0.015388 1.340811 0.242344 0.516873 0.821043 236 158 74 255
-0.116346 -0.135631 1.390086 -0.809969 0.261431 -0.524980 250 166 85 255
0.017897 -0.005877 1.344631 0.753203 -0.042805 0.656394 236 158 74 255
-0.134814 -0.119960 1.426383 -0.630303 0.704878 0.325368 249 162 81 255
-0.091719 -0.165222 1.395877 -0.201358 -0.346837 -0.916056 231 188 100 255
-0.134814 -0.119960 1.426383 -0.884532 0.388654 0.257975 249 162 81 255
-0.299252 -0.353094 1.095411 0.607146 0.413997 -0.678218 245 156 74 255
-0.307560 -0.369918 1.105338 0.810510 -0.537540 -0.232644 237 161 77 255
-0.128656 -0.133881 1.468472 -0.647010 -0.413021 0.640931 246 167 85 255
-0.116346 -0.135631 1.390086 -0.192745 0.861389 -0.469955 250 166 85 255
-0.325428 -0.373308 1.114909 0.335768 -0.888741 0.312089 242 160 77 255
-0.308811 -0.339659 1.095055 -0.402693 -0.309423 -0.861450 245 156 74 255
-0.299252 -0.353094 1.095411 -0.402694 -0.309426 -0.861448 245 156 74 255
-0.325428 -0.373308 1.114909 -0.402693 -0.309415 -0.861453 242 160 77 255
0.000000 -0.750000 0.060000 -0.500000 -0.866025 0.000000 245 237 142 255
-0.649519 -0.375000 0.030000 -0.500000 -0.866025 0.000000 245 237 142 255
0.000000 -0.750000 0.030000 -0.500000 -0.866025 0.000000 245 237 142 255
-0.649519 -0.375000 0.060000 -1.000000 0.000000 0.000000 245 237 142 255
-0.649519 0.375000 0.030000 -1.000000 0.000000 0.000000 245 237 142 255
-0.649519 -0.375000 0.030000 -1.000000 0.000000 0.000000 245 237 142 255
-0.649519 0.375000 0.060000 -0.500000 0.866025 0.000000 245 237 142 255
0.000000 0.750000 0.030000 -0.500000 0.866025 0.000000 245 237 142 255
-0.649519 0.375000 0.030000 -0.500000 0.866025 0.000000 245 237 142 255
0.000000 0.750000 0.060000 0.500000 0.866025 0.000000 245 237 142 255
0.649519 0.375000 0.030000 0.500000 0.866025 0.000000 245 237 142 255
0.000000 0.750000 0.030000 0.500000 0.866025 0.000000 245 237 142 255
0.000000 -0.750000 0.060000 0.000000 0.000000 1.000000 245 237 142 255
0.649519 0.375000 0.060000 0.000000 0.000000 1.000000 245 237 142 255
-0.649519 0.375000 0.060000 0.000000 0.000000 1.000000 245 237 142 255
0.649519 0.375000 0.060000 1.000000 0.000000 0.000000 245 237 142 255
0.649519 -0.375000 0.030000 1.000000 0.000000 0.000000 245 237 142 255
0.649519 0.375000 0.030000 1.000000 0.000000 0.000000 245 237 142 255
0.649519 -0.375000 0.060000 0.500000 -0.866025 0.000000 245 237 142 255
0.000000 -0.750000 0.030000 0.500000 -0.866025 0.000000 245 237 142 255
0.649519 -0.375000 0.030000 0.500000 -0.866025 0.000000 245 237 142 255
-0.649519 -0.375000 0.060000 -0.500000 -0.866025 0.000000 245 237 142 255
-0.649519 0.375000 0.060000 -1.000000 0.000000 0.000000 245 237 142 255
0.000000 0.750000 0.060000 -0.500000 0.866025 0.000000 245 237 142 255
0.649519 0.375000 0.060000 0.500000 0.866025 0.000000 245 237 142 255
-0.649519 -0.375000 0.060000 0.000000 0.000000 1.000000 245 237 142 255
0.649519 -0.375000 0.060000 0.000000 0.000000 1.000000 245 237 142 255
0.000000 0.750000 0.060000 0.000000 0.000000 1.000000 245 237 142 255
0.649519 -0.375000 0.060000 1.000000 0.000000 0.000000 245 237 142 255
0.000000 -0.750000 0.060000 0.500000 -0.866025 0.000000 245 237 142 255
3 0 1 2
3 3 4 5
3 6 7 8
3 9 10 11
3 12 13 14
3 15 16 17
3 18 19 20
3 0 21 1
3 3 22 4
3 6 23 7
3 9 24 10
3 12 25 13
3 15 26 16
3 20 27 18
3 27 28 18
3 28 29 18
3 30 31 32
3 33 34 35
3 36 37 38
3 39 40 41
3 42 43 44
3 45 46 47
3 48 49 50
3 51 52 53
3 54 55 56
3 57 58 59
3 60 61 62
3 63 64 65
3 66 67 68
3 69 70 71
3 72 73 74
3 75 76 77
3 78 79 80
3 81 82 83
3 84 85 86
3 87 88 89
3 90 91 92
3 93 94 95
3 96 97 98
3 99 100 101
3 102 103 104
3 105 106 107
3 108 109 110
3 111 112 113
3 114 115 116
3 117 118 119
3 120 121 122
3 123 124 125
3 126 127 128
3 129 130 131
3 132 133 134
3 135 136 137
3 138 139 140
3 141 142 143
3 144 145 146
3 147 148 149
3 150 151 152
3 153 154 155
3 156 157 158
3 159 160 161
3 162 163 164
3 165 166 167
3 168 169 170
3 171 172 173
3 174 175 176
3 30 177 31
3 33 178 34
3 36 179 37
3 39 180 40
3 42 181 43
3 45 182 46
3 48 183 49
3 51 184 52
3 54 185 55
3 57 186 58
3 60 187 61
3 63 188 64
3 66 189 67
3 69 190 70
3 72 191 73
3 75 192 76
3 78 193 79
3 81 194 82
3 84 195 85
3 87 196 88
3 90 197 91
3 93 198 94
3 96 199 97
3 99 200 100
3 102 201 103
3 105 202 106
3 108 203 109
3 111 204 112
3 114 205 115
3 117 206 118
3 120 207 121
3 123 208 124
3 126 209 127
3 129 210 130
3 132 211 133
3 135 212 136
3 138 213 139
3 141 214 142
3 144 215 145
3 147 216 148
3 150 217 151
3 153 218 154
3 156 219 157
3 159 220 160
3 162 221 163
3 165 222 166
3 168 223 169
3 171 224 172
3 174 225 226
3 226 175 174
3 175 227 176
3 228 229 230
3 231 232 233
3 234 235 236
3 237 238 239
3 240 241 242
3 243 244 245
3 246 247 248
3 228 249 229
3 231 250 232
3 234 251 235
3 237 252 238
3 242 253 240
3 240 254 241
3 241 255 242
3 243 256 244
3 246 257 247
