ply
format ascii 1.0
comment Created by Blender 3.5.1 - www.blender.org
element vertex 60
property float x
property float y
property float z
property float nx
property float ny
property float nz
property uchar red
property uchar green
property uchar blue
property uchar alpha
element face 32
property list uchar uint vertex_indices
end_header
0.000000 -0.750000 0.060000 -0.500000 -0.866025 0.000000 42 42 42 255
-0.649519 -0.375000 0.030000 -0.500000 -0.866025 0.000000 7 7 7 255
0.000000 -0.750000 0.030000 -0.500000 -0.866025 0.000000 44 44 44 255
-0.649519 -0.375000 0.060000 -1.000000 0.000000 0.000000 6 6 6 255
-0.649519 0.375000 0.030000 -1.000000 0.000000 0.000000 40 40 40 255
-0.649519 -0.375000 0.030000 -1.000000 0.000000 0.000000 7 7 7 255
-0.649519 0.375000 0.060000 -0.500000 0.866025 0.000000 39 39 39 255
0.000000 0.750000 0.030000 -0.500000 0.866025 0.000000 7 7 7 255
-0.649519 0.375000 0.030000 -0.500000 0.866025 0.000000 40 40 40 255
0.000000 0.750000 0.060000 0.500000 0.866025 0.000000 6 6 6 255
0.649519 0.375000 0.030000 0.500000 0.866025 0.000000 8 8 8 255
0.000000 0.750000 0.030000 0.500000 0.866025 0.000000 7 7 7 255
0.000000 -0.750000 0.060000 0.000000 0.000000 1.000000 42 42 42 255
0.649519 0.375000 0.060000 0.000000 0.000000 1.000000 7 7 7 255
-0.649519 0.375000 0.060000 0.000000 0.000000 1.000000 39 39 39 255
0.649519 0.375000 0.060000 1.000000 0.000000 0.000000 7 7 7 255
0.649519 -0.375000 0.030000 1.000000 0.000000 0.000000 33 33 33 255
0.649519 0.375000 0.030000 1.000000 0.000000 0.000000 8 8 8 255
0.649519 -0.375000 0.060000 0.500000 -0.866025 0.000000 31 31 31 255
0.000000 -0.750000 0.030000 0.500000 -0.866025 0.000000 44 44 44 255
0.649519 -0.375000 0.030000 0.500000 -0.866025 0.000000 33 33 33 255
-0.649519 -0.375000 0.060000 -0.500000 -0.866025 0.000000 6 6 6 255
-0.649519 0.375000 0.060000 -1.000000 0.000000 0.000000 39 39 39 255
0.000000 0.750000 0.060000 -0.500000 0.866025 0.000000 6 6 6 255
0.649519 0.375000 0.060000 0.500000 0.866025 0.000000 7 7 7 255
-0.649519 -0.375000 0.060000 0.000000 0.000000 1.000000 6 6 6 255
0.649519 -0.375000 0.060000 0.000000 0.000000 1.000000 31 31 31 255
0.000000 0.750000 0.060000 0.000000 0.000000 1.000000 6 6 6 255
0.649519 -0.375000 0.060000 1.000000 0.000000 0.000000 31 31 31 255
0.000000 -0.750000 0.060000 0.500000 -0.866025 0.000000 42 42 42 255
0.000000 -0.900000 0.030000 -0.163663 -0.283473 0.944911 78 78 78 255
-0.866025 -0.500000 0.000000 -0.163663 -0.283473 0.944911 81 80 82 255
0.000000 -1.000000 0.000000 -0.163663 -0.283473 0.944911 78 78 78 255
-0.779423 -0.450000 0.030000 -0.327327 0.000000 0.944911 80 80 80 255
-0.866025 0.500000 0.000000 -0.327327 0.000000 0.944911 80 80 81 255
-0.866025 -0.500000 0.000000 -0.327327 0.000000 0.944911 81 80 82 255
-0.866025 0.500000 0.000000 -0.163663 0.283473 0.944911 80 80 81 255
0.000000 0.900000 0.030000 -0.163663 0.283473 0.944911 78 78 78 255
0.000000 1.000000 0.000000 -0.163663 0.283473 0.944911 79 79 79 255
0.000000 0.900000 0.030000 0.163663 0.283473 0.944911 78 78 78 255
0.866025 0.500000 0.000000 0.163663 0.283473 0.944911 78 78 78 255
0.000000 1.000000 0.000000 0.163663 0.283473 0.944911 79 79 79 255
0.779423 0.450000 0.030000 0.000000 0.000000 1.000000 78 78 78 255
0.000000 0.900000 0.030000 0.000000 0.000000 1.000000 78 78 78 255
-0.779423 0.450000 0.030000 0.000000 0.000000 1.000000 80 79 80 255
0.779423 0.450000 0.030000 0.327327 0.000000 0.944911 78 78 78 255
0.866025 -0.500000 0.000000 0.327327 0.000000 0.944911 81 81 82 255
0.866025 0.500000 0.000000 0.327327 0.000000 0.944911 78 78 78 255
0.866025 -0.500000 0.000000 0.163663 -0.283473 0.944911 81 81 82 255
0.000000 -0.900000 0.030000 0.163663 -0.283473 0.944911 78 78 78 255
0.000000 -1.000000 0.000000 0.163663 -0.283473 0.944911 78 78 78 255
-0.779423 -0.450000 0.030000 -0.163663 -0.283473 0.944911 80 80 80 255
-0.779423 0.450000 0.030000 -0.327327 0.000000 0.944911 80 79 80 255
-0.779423 0.450000 0.030000 -0.163663 0.283473 0.944911 80 79 80 255
0.779423 0.450000 0.030000 0.163663 0.283473 0.944911 78 78 78 255
-0.779423 -0.450000 0.030000 0.000000 0.000000 1.000000 80 80 80 255
0.000000 -0.900000 0.030000 0.000000 0.000000 1.000000 78 78 78 255
0.779423 -0.450000 0.030000 0.000000 0.000000 1.000000 80 80 80 255
0.779423 -0.450000 0.030000 0.327327 0.000000 0.944911 80 80 80 255
0.779423 -0.450000 0.030000 0.163663 -0.283473 0.944911 80 80 80 255
3 0 1 2
3 3 4 5
3 6 7 8
3 9 10 11
3 12 13 14
3 15 16 17
3 18 19 20
3 0 21 1
3 3 22 4
3 6 23 7
3 9 24 10
3 14 25 12
3 12 26 13
3 13 27 14
3 15 28 16
3 18 29 19
3 30 31 32
3 33 34 35
3 36 37 38
3 39 40 41
3 42 43 44
3 45 46 47
3 48 49 50
3 30 51 31
3 33 52 34
3 36 53 37
3 39 54 40
3 44 55 42
3 55 56 42
3 56 57 42
3 45 58 46
3 48 59 49
