ply
format ascii 1.0
comment Created by Blender 3.6.0 - www.blender.org
element vertex 590
property float x
property float y
property float z
property float nx
property float ny
property float nz
property uchar red
property uchar green
property uchar blue
property uchar alpha
element face 306
property list uchar uint vertex_indices
end_header
0.000000 -0.750000 0.060000 -0.500000 -0.866025 0.000000 245 237 142 255
-0.649519 -0.375000 0.030000 -0.500000 -0.866025 0.000000 245 237 142 255
0.000000 -0.750000 0.030000 -0.500000 -0.866025 0.000000 245 237 142 255
-0.649519 -0.375000 0.060000 -1.000000 0.000000 0.000000 245 237 142 255
-0.649519 0.375000 0.030000 -1.000000 0.000000 0.000000 245 237 142 255
-0.649519 -0.375000 0.030000 -1.000000 0.000000 0.000000 245 237 142 255
-0.649519 0.375000 0.060000 -0.500000 0.866025 0.000000 245 237 142 255
0.000000 0.750000 0.030000 -0.500000 0.866025 0.000000 245 237 142 255
-0.649519 0.375000 0.030000 -0.500000 0.866025 0.000000 245 237 142 255
0.000000 0.750000 0.060000 0.500000 0.866025 0.000000 245 237 142 255
0.649519 0.375000 0.030000 0.500000 0.866025 0.000000 245 237 142 255
0.000000 0.750000 0.030000 0.500000 0.866025 0.000000 245 237 142 255
0.000000 -0.750000 0.060000 0.000000 0.000000 1.000000 245 237 142 255
0.649519 0.375000 0.060000 0.000000 0.000000 1.000000 245 237 142 255
-0.649519 0.375000 0.060000 0.000000 0.000000 1.000000 245 237 142 255
0.649519 0.375000 0.060000 1.000000 0.000000 0.000000 245 237 142 255
0.649519 -0.375000 0.030000 1.000000 0.000000 0.000000 245 237 142 255
0.649519 0.375000 0.030000 1.000000 0.000000 0.000000 245 237 142 255
0.649519 -0.375000 0.060000 0.500000 -0.866025 0.000000 245 237 142 255
0.000000 -0.750000 0.030000 0.500000 -0.866025 0.000000 245 237 142 255
0.649519 -0.375000 0.030000 0.500000 -0.866025 0.000000 245 237 142 255
-0.649519 -0.375000 0.060000 -0.500000 -0.866025 0.000000 245 237 142 255
-0.649519 0.375000 0.060000 -1.000000 0.000000 0.000000 245 237 142 255
0.000000 0.750000 0.060000 -0.500000 0.866025 0.000000 245 237 142 255
0.649519 0.375000 0.060000 0.500000 0.866025 0.000000 245 237 142 255
-0.649519 -0.375000 0.060000 0.000000 0.000000 1.000000 245 237 142 255
0.649519 -0.375000 0.060000 0.000000 0.000000 1.000000 245 237 142 255
0.000000 0.750000 0.060000 0.000000 0.000000 1.000000 245 237 142 255
0.649519 -0.375000 0.060000 1.000000 0.000000 0.000000 245 237 142 255
0.000000 -0.750000 0.060000 0.500000 -0.866025 0.000000 245 237 142 255
0.000000 -0.900000 0.030000 -0.163663 -0.283473 0.944911 110 185 124 255
-0.866025 -0.500000 0.000000 -0.163663 -0.283473 0.944911 110 185 124 255
0.000000 -1.000000 0.000000 -0.163663 -0.283473 0.944911 110 185 124 255
-0.779423 -0.450000 0.030000 -0.327327 0.000000 0.944911 110 185 124 255
-0.866025 0.500000 0.000000 -0.327327 0.000000 0.944911 110 185 124 255
-0.866025 -0.500000 0.000000 -0.327327 0.000000 0.944911 110 185 124 255
-0.866025 0.500000 0.000000 -0.163663 0.283473 0.944911 110 185 124 255
0.000000 0.900000 0.030000 -0.163663 0.283473 0.944911 110 185 124 255
0.000000 1.000000 0.000000 -0.163663 0.283473 0.944911 110 185 124 255
0.000000 0.900000 0.030000 0.163663 0.283473 0.944911 110 185 124 255
0.866025 0.500000 0.000000 0.163663 0.283473 0.944911 110 185 124 255
0.000000 1.000000 0.000000 0.163663 0.283473 0.944911 110 185 124 255
0.779423 0.450000 0.030000 0.000000 0.000000 1.000000 110 185 124 255
0.000000 0.900000 0.030000 0.000000 0.000000 1.000000 110 185 124 255
-0.779423 0.450000 0.030000 0.000000 0.000000 1.000000 110 185 124 255
0.779423 0.450000 0.030000 0.327327 0.000000 0.944911 110 185 124 255
0.866025 -0.500000 0.000000 0.327327 0.000000 0.944911 110 185 124 255
0.866025 0.500000 0.000000 0.327327 0.000000 0.944911 110 185 124 255
0.866025 -0.500000 0.000000 0.163663 -0.283473 0.944911 110 185 124 255
0.000000 -0.900000 0.030000 0.163663 -0.283473 0.944911 110 185 124 255
0.000000 -1.000000 0.000000 0.163663 -0.283473 0.944911 110 185 124 255
-0.779423 -0.450000 0.030000 -0.163663 -0.283473 0.944911 110 185 124 255
-0.779423 0.450000 0.030000 -0.327327 0.000000 0.944911 110 185 124 255
-0.779423 0.450000 0.030000 -0.163663 0.283473 0.944911 110 185 124 255
0.779423 0.450000 0.030000 0.163663 0.283473 0.944911 110 185 124 255
-0.779423 -0.450000 0.030000 0.000000 0.000000 1.000000 110 185 124 255
0.000000 -0.900000 0.030000 0.000000 0.000000 1.000000 110 185 124 255
0.779423 -0.450000 0.030000 0.000000 0.000000 1.000000 110 185 124 255
0.779423 -0.450000 0.030000 0.327327 0.000000 0.944911 110 185 124 255
0.779423 -0.450000 0.030000 0.163663 -0.283473 0.944911 110 185 124 255
0.000253 0.093484 0.699873 0.000000 0.000000 1.000000 104 79 54 255
0.081123 0.046794 0.699873 0.000000 0.000000 1.000000 104 79 54 255
0.095155 0.070886 0.699873 0.000000 0.000000 1.000000 104 79 54 255
0.014044 -0.117901 0.699873 0.000000 0.000000 1.000000 104 79 54 255
-0.000074 -0.219332 0.699873 0.000000 0.000000 1.000000 104 79 54 255
0.014043 -0.211303 0.699873 0.000000 0.000000 1.000000 104 79 54 255
0.176038 -0.117790 0.699873 0.000000 0.000000 1.000000 104 79 54 255
0.189860 -0.219405 0.699873 0.000000 0.000000 1.000000 104 79 54 255
0.190101 -0.109691 0.699873 0.000000 0.000000 1.000000 104 79 54 255
0.095018 -0.258170 0.699873 0.000000 0.000000 1.000000 104 79 54 255
0.189860 -0.219405 0.699873 0.000000 0.000000 1.000000 104 79 54 255
0.175833 -0.211304 0.699873 0.000000 0.000000 1.000000 104 79 54 255
-0.080871 -0.046719 0.699873 0.000000 0.000000 1.000000 104 79 54 255
-0.080870 0.046683 0.699873 0.000000 0.000000 1.000000 104 79 54 255
-0.108931 0.046699 0.699873 0.000000 0.000000 1.000000 104 79 54 255
0.014043 -0.211303 0.699873 0.000000 0.000000 1.000000 104 79 54 255
0.095025 -0.274402 0.699873 0.000000 0.000000 1.000000 104 79 54 255
0.095018 -0.258170 0.699873 0.000000 0.000000 1.000000 104 79 54 255
-0.189801 0.093390 0.699873 0.000000 0.000000 1.000000 104 79 54 255
-0.108931 0.046699 0.699873 0.000000 0.000000 1.000000 104 79 54 255
-0.094915 0.070798 0.699873 0.000000 0.000000 1.000000 104 79 54 255
0.081123 0.046794 0.699873 0.000000 0.000000 1.000000 104 79 54 255
0.080918 -0.046720 0.699873 0.000000 0.000000 1.000000 104 79 54 255
0.109000 0.046570 0.699873 0.000000 0.000000 1.000000 104 79 54 255
-0.080870 0.046683 0.699873 0.000000 0.000000 1.000000 104 79 54 255
0.000253 0.093484 0.699873 0.000000 0.000000 1.000000 104 79 54 255
-0.014100 0.117664 0.699873 0.000000 0.000000 1.000000 104 79 54 255
0.000104 -0.093586 0.699873 0.000000 0.000000 1.000000 104 79 54 255
-0.080871 -0.046719 0.699873 0.000000 0.000000 1.000000 104 79 54 255
-0.094767 -0.071027 0.699873 0.000000 0.000000 1.000000 104 79 54 255
-0.175890 -0.117828 0.699873 0.000000 0.000000 1.000000 104 79 54 255
-0.094767 -0.071027 0.699873 0.000000 0.000000 1.000000 104 79 54 255
-0.109136 -0.046814 0.699873 0.000000 0.000000 1.000000 104 79 54 255
-0.175891 -0.211230 0.699873 0.000000 0.000000 1.000000 104 79 54 255
-0.189944 -0.109913 0.699873 0.000000 0.000000 1.000000 104 79 54 255
-0.189937 -0.219329 0.699873 0.000000 0.000000 1.000000 104 79 54 255
-0.013896 -0.117717 0.699873 0.000000 0.000000 1.000000 104 79 54 255
-0.000074 -0.219332 0.699873 0.000000 0.000000 1.000000 104 79 54 255
0.000167 -0.109618 0.699873 0.000000 0.000000 1.000000 104 79 54 255
-0.094916 -0.258097 0.699873 0.000000 0.000000 1.000000 104 79 54 255
-0.000074 -0.219332 0.699873 0.000000 0.000000 1.000000 104 79 54 255
-0.014101 -0.211231 0.699873 0.000000 0.000000 1.000000 104 79 54 255
-0.013895 0.211178 0.699873 0.000000 0.000000 1.000000 104 79 54 255
-0.014100 0.117664 0.699873 0.000000 0.000000 1.000000 104 79 54 255
0.014180 0.117753 0.699873 0.000000 0.000000 1.000000 104 79 54 255
-0.094916 -0.258097 0.699873 0.000000 0.000000 1.000000 104 79 54 255
-0.189937 -0.219329 0.699873 0.000000 0.000000 1.000000 104 79 54 255
-0.094909 -0.274329 0.699873 0.000000 0.000000 1.000000 104 79 54 255
0.014044 -0.117901 0.699873 0.000000 0.000000 1.000000 104 79 54 255
0.095168 -0.071099 0.699873 0.000000 0.000000 1.000000 104 79 54 255
0.080918 -0.046720 0.699873 0.000000 0.000000 1.000000 104 79 54 255
-0.270925 0.046588 0.699873 0.000000 0.000000 1.000000 104 79 54 255
-0.284972 -0.054913 0.699873 0.000000 0.000000 1.000000 104 79 54 255
-0.270926 -0.046814 0.699873 0.000000 0.000000 1.000000 104 79 54 255
-0.270925 0.046588 0.699873 0.000000 0.000000 1.000000 104 79 54 255
-0.189799 0.109606 0.699873 0.000000 0.000000 1.000000 104 79 54 255
-0.284970 0.054701 0.699873 0.000000 0.000000 1.000000 104 79 54 255
-0.189951 -0.093681 0.699873 0.000000 0.000000 1.000000 104 79 54 255
-0.284972 -0.054913 0.699873 0.000000 0.000000 1.000000 104 79 54 255
-0.189944 -0.109913 0.699873 0.000000 0.000000 1.000000 104 79 54 255
-0.094765 0.257869 0.699873 0.000000 0.000000 1.000000 104 79 54 255
0.000136 0.219268 0.699873 0.000000 0.000000 1.000000 104 79 54 255
-0.094763 0.274085 0.699873 0.000000 0.000000 1.000000 104 79 54 255
-0.175889 0.211067 0.699873 0.000000 0.000000 1.000000 104 79 54 255
-0.189799 0.109606 0.699873 0.000000 0.000000 1.000000 104 79 54 255
-0.175890 0.117665 0.699873 0.000000 0.000000 1.000000 104 79 54 255
0.175970 0.117752 0.699873 0.000000 0.000000 1.000000 104 79 54 255
0.095155 0.070886 0.699873 0.000000 0.000000 1.000000 104 79 54 255
0.190123 0.093371 0.699873 0.000000 0.000000 1.000000 104 79 54 255
-0.175889 0.211067 0.699873 0.000000 0.000000 1.000000 104 79 54 255
-0.094763 0.274085 0.699873 0.000000 0.000000 1.000000 104 79 54 255
-0.189934 0.219180 0.699873 0.000000 0.000000 1.000000 104 79 54 255
0.176175 0.211266 0.699873 0.000000 0.000000 1.000000 104 79 54 255
0.095307 0.274173 0.699873 0.000000 0.000000 1.000000 104 79 54 255
0.095305 0.257957 0.699873 0.000000 0.000000 1.000000 104 79 54 255
0.176175 0.211266 0.699873 0.000000 0.000000 1.000000 104 79 54 255
0.189997 0.109651 0.699873 0.000000 0.000000 1.000000 104 79 54 255
0.190238 0.219365 0.699873 0.000000 0.000000 1.000000 104 79 54 255
0.014181 0.211155 0.699873 0.000000 0.000000 1.000000 104 79 54 255
0.095307 0.274173 0.699873 0.000000 0.000000 1.000000 104 79 54 255
0.000136 0.219268 0.699873 0.000000 0.000000 1.000000 104 79 54 255
0.190123 0.093371 0.699873 0.000000 0.000000 1.000000 104 79 54 255
0.285057 0.054780 0.699873 0.000000 0.000000 1.000000 104 79 54 255
0.189997 0.109651 0.699873 0.000000 0.000000 1.000000 104 79 54 255
0.270993 0.046681 0.699873 0.000000 0.000000 1.000000 104 79 54 255
0.284816 -0.054934 0.699873 0.000000 0.000000 1.000000 104 79 54 255
0.285057 0.054780 0.699873 0.000000 0.000000 1.000000 104 79 54 255
0.270788 -0.046833 0.699873 0.000000 0.000000 1.000000 104 79 54 255
0.190101 -0.109691 0.699873 0.000000 0.000000 1.000000 104 79 54 255
0.284816 -0.054934 0.699873 0.000000 0.000000 1.000000 104 79 54 255
0.095168 -0.071099 0.699873 0.000000 0.000000 1.000000 104 79 54 255
0.176038 -0.117790 0.699873 0.000000 0.000000 1.000000 104 79 54 255
0.189974 -0.093699 0.699873 0.000000 0.000000 1.000000 104 79 54 255
0.095186 0.054893 0.699873 0.000000 0.000000 1.000000 104 79 54 255
0.014180 0.117753 0.699873 0.000000 0.000000 1.000000 104 79 54 255
0.000256 0.109701 0.699873 0.000000 0.000000 1.000000 104 79 54 255
0.000167 -0.109618 0.699873 0.000000 0.000000 1.000000 104 79 54 255
0.175833 -0.211304 0.699873 0.000000 0.000000 1.000000 104 79 54 255
0.095025 -0.274402 0.699873 0.000000 0.000000 1.000000 104 79 54 255
-0.094868 0.054798 0.699873 0.000000 0.000000 1.000000 104 79 54 255
-0.109136 -0.046814 0.699873 0.000000 0.000000 1.000000 104 79 54 255
-0.094917 -0.054818 0.699873 0.000000 0.000000 1.000000 104 79 54 255
-0.000074 -0.219332 0.699873 0.000000 0.000000 1.000000 104 79 54 255
-0.094868 0.054798 0.699873 0.000000 0.000000 1.000000 104 79 54 255
-0.175890 0.117665 0.699873 0.000000 0.000000 1.000000 104 79 54 255
-0.189799 0.109606 0.699873 0.000000 0.000000 1.000000 104 79 54 255
0.095170 -0.054883 0.699873 0.000000 0.000000 1.000000 104 79 54 255
0.108999 -0.046832 0.699873 0.000000 0.000000 1.000000 104 79 54 255
0.095186 0.054893 0.699873 0.000000 0.000000 1.000000 104 79 54 255
0.000256 0.109701 0.699873 0.000000 0.000000 1.000000 104 79 54 255
-0.094915 0.070798 0.699873 0.000000 0.000000 1.000000 104 79 54 255
-0.094868 0.054798 0.699873 0.000000 0.000000 1.000000 104 79 54 255
-0.094917 -0.054818 0.699873 0.000000 0.000000 1.000000 104 79 54 255
-0.013896 -0.117717 0.699873 0.000000 0.000000 1.000000 104 79 54 255
0.000167 -0.109618 0.699873 0.000000 0.000000 1.000000 104 79 54 255
-0.094917 -0.054818 0.699873 0.000000 0.000000 1.000000 104 79 54 255
-0.189951 -0.093681 0.699873 0.000000 0.000000 1.000000 104 79 54 255
-0.189944 -0.109913 0.699873 0.000000 0.000000 1.000000 104 79 54 255
-0.175890 -0.117828 0.699873 0.000000 0.000000 1.000000 104 79 54 255
-0.014101 -0.211231 0.699873 0.000000 0.000000 1.000000 104 79 54 255
-0.094909 -0.274329 0.699873 0.000000 0.000000 1.000000 104 79 54 255
0.000256 0.109701 0.699873 0.000000 0.000000 1.000000 104 79 54 255
0.014181 0.211155 0.699873 0.000000 0.000000 1.000000 104 79 54 255
0.000136 0.219268 0.699873 0.000000 0.000000 1.000000 104 79 54 255
-0.175891 -0.211230 0.699873 0.000000 0.000000 1.000000 104 79 54 255
0.095170 -0.054883 0.699873 0.000000 0.000000 1.000000 104 79 54 255
0.000104 -0.093586 0.699873 0.000000 0.000000 1.000000 104 79 54 255
0.000167 -0.109618 0.699873 0.000000 0.000000 1.000000 104 79 54 255
-0.284970 0.054701 0.699873 0.000000 0.000000 1.000000 104 79 54 255
-0.189801 0.093390 0.699873 0.000000 0.000000 1.000000 104 79 54 255
-0.270926 -0.046814 0.699873 0.000000 0.000000 1.000000 104 79 54 255
-0.013895 0.211178 0.699873 0.000000 0.000000 1.000000 104 79 54 255
-0.189934 0.219180 0.699873 0.000000 0.000000 1.000000 104 79 54 255
0.095186 0.054893 0.699873 0.000000 0.000000 1.000000 104 79 54 255
0.109000 0.046570 0.699873 0.000000 0.000000 1.000000 104 79 54 255
0.189997 0.109651 0.699873 0.000000 0.000000 1.000000 104 79 54 255
-0.094765 0.257869 0.699873 0.000000 0.000000 1.000000 104 79 54 255
0.190238 0.219365 0.699873 0.000000 0.000000 1.000000 104 79 54 255
0.175970 0.117752 0.699873 0.000000 0.000000 1.000000 104 79 54 255
0.095305 0.257957 0.699873 0.000000 0.000000 1.000000 104 79 54 255
0.270993 0.046681 0.699873 0.000000 0.000000 1.000000 104 79 54 255
0.270788 -0.046833 0.699873 0.000000 0.000000 1.000000 104 79 54 255
0.189974 -0.093699 0.699873 0.000000 0.000000 1.000000 104 79 54 255
0.190101 -0.109691 0.699873 0.000000 0.000000 1.000000 104 79 54 255
0.108999 -0.046832 0.699873 0.000000 0.000000 1.000000 104 79 54 255
0.095170 -0.054883 0.699873 0.000000 0.000000 1.000000 104 79 54 255
-0.000000 0.406795 0.699233 0.000000 0.000000 1.000000 202 183 126 255
-0.352294 -0.203397 0.699233 0.000000 0.000000 1.000000 202 183 126 255
0.352295 -0.203397 0.699233 0.000000 0.000000 1.000000 202 183 126 255
0.352294 0.203397 0.699233 0.954056 0.000000 0.299629 202 183 126 255
0.352295 -0.203397 0.699233 0.954056 0.000000 0.299629 202 183 126 255
0.413038 0.000000 0.505818 0.954056 0.000000 0.299629 202 183 126 255
-0.352294 -0.203397 0.699233 -0.954056 0.000000 0.299630 202 183 126 255
-0.352294 0.203397 0.699233 -0.954056 0.000000 0.299630 202 183 126 255
-0.413038 -0.000000 0.505818 -0.954056 0.000000 0.299630 202 183 126 255
0.000000 -0.406795 0.699233 -0.477028 -0.826236 0.299630 202 183 126 255
-0.352294 -0.203397 0.699233 -0.477028 -0.826236 0.299630 202 183 126 255
-0.206519 -0.357702 0.505818 -0.477028 -0.826236 0.299630 202 183 126 255
0.352295 -0.203397 0.699233 0.477028 -0.826236 0.299630 202 183 126 255
0.000000 -0.406795 0.699233 0.477028 -0.826236 0.299630 202 183 126 255
0.206519 -0.357702 0.505818 0.477028 -0.826236 0.299630 202 183 126 255
-0.000000 0.406795 0.699233 0.477028 0.826236 0.299630 202 183 126 255
0.352294 0.203397 0.699233 0.477028 0.826236 0.299630 202 183 126 255
0.206519 0.357702 0.505818 0.477028 0.826236 0.299630 202 183 126 255
-0.352294 0.203397 0.699233 -0.477028 0.826236 0.299629 202 183 126 255
-0.000000 0.406795 0.699233 -0.477028 0.826236 0.299629 202 183 126 255
-0.206519 0.357701 0.505818 -0.477028 0.826236 0.299629 202 183 126 255
0.352294 0.203397 0.699233 0.000000 0.000000 1.000000 202 183 126 255
-0.352294 0.203397 0.699233 0.000000 0.000000 1.000000 202 183 126 255
0.000000 -0.406795 0.699233 0.000000 0.000000 1.000000 202 183 126 255
0.358705 0.178123 0.670038 0.975207 -0.000001 0.221295 169 169 169 255
0.352294 0.203397 0.698288 0.975207 -0.000001 0.221294 169 169 169 255
0.352294 0.174940 0.698288 0.975207 0.000000 0.221294 169 169 169 255
0.358119 0.206760 0.085667 0.975207 -0.000002 -0.221293 169 169 169 255
0.400574 0.198914 0.272763 0.975207 -0.000002 -0.221293 169 169 169 255
0.358119 0.177832 0.085667 0.975207 -0.000002 -0.221293 169 169 169 255
0.400574 0.231272 0.272763 1.000000 -0.000002 0.000000 169 169 169 255
0.400574 0.198914 0.485525 1.000000 0.000001 0.000000 169 169 169 255
0.400574 0.198914 0.272763 1.000000 -0.000002 0.000000 169 169 169 255
0.400574 0.198914 0.485525 0.975207 0.000001 0.221293 169 169 169 255
0.358705 0.207098 0.670038 0.975207 -0.000002 0.221293 169 169 169 255
0.358705 0.178123 0.670038 0.975207 -0.000002 0.221293 169 169 169 255
0.352294 0.203397 0.060000 0.975207 -0.000001 -0.221294 169 169 169 255
0.358119 0.177832 0.085667 0.975207 -0.000001 -0.221294 169 169 169 255
0.352294 0.174940 0.060000 0.975207 -0.000000 -0.221293 169 169 169 255
0.352294 -0.203397 0.060000 0.975207 -0.000001 -0.221294 169 169 169 255
0.358119 -0.177832 0.085667 0.975207 -0.000001 -0.221294 169 169 169 255
0.358119 -0.206760 0.085667 0.975207 -0.000001 -0.221294 169 169 169 255
0.352294 -0.174940 0.060000 0.975207 0.000000 -0.221293 169 169 169 255
0.358119 0.177832 0.085667 0.975207 0.000000 -0.221293 169 169 169 255
0.358119 -0.177832 0.085667 0.975207 0.000000 -0.221293 169 169 169 255
0.400574 -0.198914 0.485525 0.975207 -0.000000 0.221293 169 169 169 255
0.358705 -0.207098 0.670038 0.975207 -0.000001 0.221293 169 169 169 255
0.400574 -0.231272 0.485525 0.975207 0.000000 0.221293 169 169 169 255
0.400574 -0.231272 0.272763 1.000000 0.000001 0.000000 169 169 169 255
0.400574 -0.198914 0.485525 1.000000 0.000000 0.000000 169 169 169 255
0.400574 -0.231272 0.485525 1.000000 0.000000 0.000000 169 169 169 255
0.358119 -0.206760 0.085667 0.975207 -0.000001 -0.221293 169 169 169 255
0.400574 -0.198914 0.272763 0.975207 0.000001 -0.221293 169 169 169 255
0.400574 -0.231272 0.272763 0.975207 0.000001 -0.221293 169 169 169 255
0.358705 -0.178123 0.670038 0.975207 -0.000001 0.221294 169 169 169 255
0.352294 -0.203397 0.698288 0.975207 -0.000001 0.221294 169 169 169 255
0.358705 -0.207098 0.670038 0.975207 -0.000001 0.221294 169 169 169 255
0.358705 0.178123 0.670038 0.975207 0.000000 0.221294 169 169 169 255
0.352294 -0.174940 0.698288 0.975207 0.000000 0.221294 169 169 169 255
0.358705 -0.178123 0.670038 0.975207 0.000000 0.221294 169 169 169 255
-0.358705 -0.178123 0.670038 -0.975207 0.000001 0.221294 169 169 169 255
-0.352294 -0.203397 0.698288 -0.975207 0.000001 0.221294 169 169 169 255
-0.352294 -0.174940 0.698288 -0.975207 0.000001 0.221294 169 169 169 255
-0.358119 -0.206760 0.085667 -0.975207 0.000001 -0.221293 169 169 169 255
-0.400574 -0.198914 0.272763 -0.975207 -0.000001 -0.221293 169 169 169 255
-0.358119 -0.177832 0.085667 -0.975207 0.000001 -0.221293 169 169 169 255
-0.400574 -0.198914 0.272763 -1.000000 -0.000001 0.000000 169 169 169 255
-0.400574 -0.231272 0.485525 -1.000000 -0.000001 0.000000 169 169 169 255
-0.400574 -0.198914 0.485525 -1.000000 -0.000001 0.000000 169 169 169 255
-0.400574 -0.198914 0.485525 -0.975207 -0.000001 0.221293 169 169 169 255
-0.358705 -0.207098 0.670038 -0.975207 -0.000000 0.221293 169 169 169 255
-0.358705 -0.178123 0.670038 -0.975207 0.000000 0.221293 169 169 169 255
-0.352294 -0.203397 0.060000 -0.975207 0.000001 -0.221293 169 169 169 255
-0.358119 -0.177832 0.085667 -0.975207 0.000001 -0.221293 169 169 169 255
-0.352294 -0.174940 0.060000 -0.975207 0.000001 -0.221293 169 169 169 255
-0.352295 0.203397 0.060000 -0.975207 -0.000006 -0.221293 169 169 169 255
-0.358119 0.177832 0.085667 -0.975207 -0.000006 -0.221293 169 169 169 255
-0.358119 0.206760 0.085667 -0.975207 -0.000006 -0.221293 169 169 169 255
-0.352294 0.174940 0.060000 -0.975207 -0.000000 -0.221293 169 169 169 255
-0.358119 -0.177832 0.085667 -0.975207 -0.000000 -0.221293 169 169 169 255
-0.358119 0.177832 0.085667 -0.975207 -0.000000 -0.221293 169 169 169 255
-0.400574 0.198914 0.485525 -0.975207 -0.000007 0.221293 169 169 169 255
-0.358705 0.207098 0.670038 -0.975207 -0.000006 0.221293 169 169 169 255
-0.400575 0.231271 0.485525 -0.975208 -0.000007 0.221293 169 169 169 255
-0.400574 0.198914 0.272763 -1.000000 -0.000002 -0.000001 169 169 169 255
-0.400575 0.231271 0.485525 -1.000000 -0.000007 -0.000000 169 169 169 255
-0.400574 0.231272 0.272763 -1.000000 -0.000001 -0.000001 169 169 169 255
-0.358119 0.206760 0.085667 -0.975207 -0.000006 -0.221292 169 169 169 255
-0.400574 0.198914 0.272763 -0.975208 -0.000001 -0.221292 169 169 169 255
-0.400574 0.231272 0.272763 -0.975208 -0.000001 -0.221292 169 169 169 255
-0.358705 0.178123 0.670038 -0.975207 -0.000006 0.221293 169 169 169 255
-0.352295 0.203397 0.698288 -0.975207 -0.000006 0.221293 169 169 169 255
-0.358705 0.207098 0.670038 -0.975207 -0.000006 0.221293 169 169 169 255
-0.358705 -0.178123 0.670038 -0.975207 -0.000000 0.221295 169 169 169 255
-0.352294 0.174940 0.698288 -0.975207 -0.000000 0.221294 169 169 169 255
-0.358705 0.178123 0.670038 -0.975207 0.000000 0.221294 169 169 169 255
-0.025093 -0.399709 0.670038 -0.487603 -0.844554 0.221294 169 169 169 255
0.000000 -0.406795 0.698288 -0.487603 -0.844554 0.221294 169 169 169 255
-0.024645 -0.392566 0.698288 -0.487603 -0.844554 0.221294 169 169 169 255
0.000000 -0.413520 0.085667 -0.487603 -0.844555 -0.221293 169 169 169 255
-0.028022 -0.446365 0.272763 -0.487605 -0.844554 -0.221293 169 169 169 255
-0.025052 -0.399056 0.085667 -0.487603 -0.844555 -0.221293 169 169 169 255
0.000000 -0.462543 0.272763 -0.500001 -0.866025 0.000000 169 169 169 255
-0.028022 -0.446365 0.485525 -0.500001 -0.866025 0.000000 169 169 169 255
-0.028022 -0.446365 0.272763 -0.500001 -0.866025 0.000000 169 169 169 255
-0.028022 -0.446365 0.485525 -0.487605 -0.844554 0.221293 169 169 169 255
0.000000 -0.414197 0.670038 -0.487603 -0.844555 0.221293 169 169 169 255
-0.025093 -0.399709 0.670038 -0.487603 -0.844555 0.221293 169 169 169 255
0.000000 -0.406795 0.060000 -0.487603 -0.844554 -0.221294 169 169 169 255
-0.025052 -0.399056 0.085667 -0.487603 -0.844554 -0.221294 169 169 169 255
-0.024645 -0.392566 0.060000 -0.487603 -0.844554 -0.221294 169 169 169 255
-0.352294 -0.203397 0.060000 -0.487604 -0.844554 -0.221293 169 169 169 255
-0.333066 -0.221224 0.085667 -0.487604 -0.844554 -0.221293 169 169 169 255
-0.358119 -0.206760 0.085667 -0.487603 -0.844555 -0.221294 169 169 169 255
-0.327650 -0.217626 0.060000 -0.487604 -0.844554 -0.221292 169 169 169 255
-0.025052 -0.399056 0.085667 -0.487603 -0.844554 -0.221294 169 169 169 255
-0.333066 -0.221224 0.085667 -0.487604 -0.844554 -0.221292 169 169 169 255
-0.372552 -0.247450 0.485525 -0.487603 -0.844554 0.221293 169 169 169 255
-0.358705 -0.207098 0.670038 -0.487604 -0.844554 0.221293 169 169 169 255
-0.400574 -0.231272 0.485525 -0.487603 -0.844554 0.221293 169 169 169 255
-0.372552 -0.247450 0.272763 -0.500000 -0.866026 0.000000 169 169 169 255
-0.400574 -0.231272 0.485525 -0.500000 -0.866026 0.000000 169 169 169 255
-0.400574 -0.231272 0.272763 -0.500000 -0.866026 0.000000 169 169 169 255
-0.358119 -0.206760 0.085667 -0.487603 -0.844555 -0.221293 169 169 169 255
-0.372552 -0.247450 0.272763 -0.487603 -0.844555 -0.221293 169 169 169 255
-0.400574 -0.231272 0.272763 -0.487603 -0.844555 -0.221293 169 169 169 255
-0.333611 -0.221586 0.670038 -0.487604 -0.844554 0.221293 169 169 169 255
-0.352294 -0.203397 0.698288 -0.487604 -0.844554 0.221293 169 169 169 255
-0.358705 -0.207098 0.670038 -0.487605 -0.844554 0.221293 169 169 169 255
-0.333611 -0.221586 0.670038 -0.487604 -0.844554 0.221293 169 169 169 255
-0.024645 -0.392566 0.698288 -0.487604 -0.844554 0.221294 169 169 169 255
-0.327650 -0.217626 0.698288 -0.487604 -0.844554 0.221293 169 169 169 255
0.333612 -0.221586 0.670038 0.487603 -0.844554 0.221295 169 169 169 255
0.352294 -0.203397 0.698288 0.487603 -0.844554 0.221295 169 169 169 255
0.327650 -0.217626 0.698288 0.487603 -0.844554 0.221295 169 169 169 255
0.358119 -0.206760 0.085667 0.487604 -0.844554 -0.221293 169 169 169 255
0.372552 -0.247450 0.272763 0.487605 -0.844554 -0.221293 169 169 169 255
0.333066 -0.221224 0.085667 0.487604 -0.844554 -0.221293 169 169 169 255
0.372552 -0.247450 0.272763 0.500001 -0.866024 -0.000000 169 169 169 255
0.400574 -0.231272 0.485525 0.500000 -0.866025 -0.000000 169 169 169 255
0.372552 -0.247450 0.485525 0.500000 -0.866025 0.000000 169 169 169 255
0.372552 -0.247450 0.485525 0.487604 -0.844554 0.221293 169 169 169 255
0.358705 -0.207098 0.670038 0.487604 -0.844554 0.221293 169 169 169 255
0.333612 -0.221586 0.670038 0.487604 -0.844554 0.221293 169 169 169 255
0.352294 -0.203397 0.060000 0.487603 -0.844554 -0.221294 169 169 169 255
0.333066 -0.221224 0.085667 0.487603 -0.844554 -0.221294 169 169 169 255
0.327650 -0.217626 0.060000 0.487603 -0.844554 -0.221295 169 169 169 255
0.000000 -0.406795 0.060000 0.487603 -0.844554 -0.221294 169 169 169 255
0.025052 -0.399056 0.085667 0.487603 -0.844554 -0.221294 169 169 169 255
0.000000 -0.413520 0.085667 0.487603 -0.844555 -0.221294 169 169 169 255
0.024645 -0.392566 0.060000 0.487604 -0.844554 -0.221294 169 169 169 255
0.333066 -0.221224 0.085667 0.487604 -0.844554 -0.221295 169 169 169 255
0.025052 -0.399056 0.085667 0.487604 -0.844554 -0.221294 169 169 169 255
0.028022 -0.446365 0.485525 0.487603 -0.844555 0.221293 169 169 169 255
0.000000 -0.414197 0.670038 0.487602 -0.844555 0.221293 169 169 169 255
0.000000 -0.462543 0.485525 0.487603 -0.844555 0.221293 169 169 169 255
0.028022 -0.446365 0.272763 0.499999 -0.866026 0.000000 169 169 169 255
0.000000 -0.462543 0.485525 0.499999 -0.866026 0.000000 169 169 169 255
0.000000 -0.462543 0.272763 0.499999 -0.866026 0.000000 169 169 169 255
0.000000 -0.413520 0.085667 0.487603 -0.844555 -0.221293 169 169 169 255
0.028022 -0.446365 0.272763 0.487603 -0.844555 -0.221293 169 169 169 255
0.000000 -0.462543 0.272763 0.487603 -0.844555 -0.221293 169 169 169 255
0.025093 -0.399709 0.670038 0.487603 -0.844554 0.221295 169 169 169 255
0.000000 -0.406795 0.698288 0.487603 -0.844554 0.221295 169 169 169 255
0.000000 -0.414197 0.670038 0.487602 -0.844555 0.221294 169 169 169 255
0.025093 -0.399709 0.670038 0.487604 -0.844554 0.221295 169 169 169 255
0.327650 -0.217626 0.698288 0.487604 -0.844554 0.221295 169 169 169 255
0.024645 -0.392566 0.698288 0.487604 -0.844554 0.221295 169 169 169 255
0.025093 0.399709 0.670038 0.487598 0.844557 0.221295 169 169 169 255
-0.000000 0.406795 0.698288 0.487598 0.844557 0.221295 169 169 169 255
0.024645 0.392566 0.698288 0.487598 0.844557 0.221295 169 169 169 255
-0.000000 0.413520 0.085667 0.487598 0.844557 -0.221294 169 169 169 255
0.028022 0.446365 0.272763 0.487600 0.844556 -0.221294 169 169 169 255
0.025052 0.399056 0.085667 0.487598 0.844557 -0.221294 169 169 169 255
0.028022 0.446365 0.272763 0.499996 0.866028 0.000000 169 169 169 255
-0.000000 0.462543 0.485525 0.499996 0.866028 0.000000 169 169 169 255
0.028022 0.446365 0.485525 0.499996 0.866028 0.000000 169 169 169 255
0.028022 0.446365 0.485525 0.487600 0.844556 0.221294 169 169 169 255
-0.000000 0.414197 0.670038 0.487598 0.844557 0.221294 169 169 169 255
0.025093 0.399709 0.670038 0.487598 0.844557 0.221294 169 169 169 255
-0.000000 0.406795 0.060000 0.487598 0.844557 -0.221294 169 169 169 255
0.025052 0.399056 0.085667 0.487598 0.844557 -0.221294 169 169 169 255
0.024645 0.392566 0.060000 0.487598 0.844557 -0.221294 169 169 169 255
0.352294 0.203397 0.060000 0.487603 0.844555 -0.221292 169 169 169 255
0.333066 0.221224 0.085667 0.487603 0.844555 -0.221292 169 169 169 255
0.358119 0.206760 0.085667 0.487603 0.844555 -0.221292 169 169 169 255
0.327650 0.217626 0.060000 0.487604 0.844554 -0.221292 169 169 169 255
0.025052 0.399056 0.085667 0.487603 0.844554 -0.221294 169 169 169 255
0.333066 0.221224 0.085667 0.487604 0.844554 -0.221292 169 169 169 255
0.372552 0.247450 0.485525 0.487602 0.844555 0.221293 169 169 169 255
0.358705 0.207098 0.670038 0.487603 0.844555 0.221293 169 169 169 255
0.400574 0.231272 0.485525 0.487602 0.844555 0.221293 169 169 169 255
0.372552 0.247450 0.272763 0.499999 0.866026 -0.000000 169 169 169 255
0.400574 0.231272 0.485525 0.499998 0.866026 -0.000000 169 169 169 255
0.400574 0.231272 0.272763 0.500000 0.866026 -0.000000 169 169 169 255
0.358119 0.206760 0.085667 0.487603 0.844555 -0.221293 169 169 169 255
0.372552 0.247450 0.272763 0.487603 0.844555 -0.221293 169 169 169 255
0.400574 0.231272 0.272763 0.487603 0.844555 -0.221293 169 169 169 255
0.333611 0.221586 0.670038 0.487603 0.844555 0.221293 169 169 169 255
0.352294 0.203397 0.698288 0.487603 0.844555 0.221293 169 169 169 255
0.358705 0.207098 0.670038 0.487603 0.844555 0.221293 169 169 169 255
0.333611 0.221586 0.670038 0.487604 0.844554 0.221293 169 169 169 255
0.024645 0.392566 0.698288 0.487604 0.844554 0.221294 169 169 169 255
0.327650 0.217626 0.698288 0.487604 0.844554 0.221293 169 169 169 255
-0.333612 0.221586 0.670038 -0.487604 0.844554 0.221295 169 169 169 255
-0.352295 0.203397 0.698288 -0.487604 0.844554 0.221295 169 169 169 255
-0.327650 0.217626 0.698288 -0.487604 0.844554 0.221294 169 169 169 255
-0.358119 0.206760 0.085667 -0.487604 0.844554 -0.221293 169 169 169 255
-0.372552 0.247450 0.272763 -0.487600 0.844557 -0.221293 169 169 169 255
-0.333066 0.221224 0.085667 -0.487604 0.844554 -0.221293 169 169 169 255
-0.400574 0.231272 0.272763 -0.499996 0.866028 0.000000 169 169 169 255
-0.372552 0.247450 0.485525 -0.500000 0.866025 0.000001 169 169 169 255
-0.372552 0.247450 0.272763 -0.499996 0.866028 0.000000 169 169 169 255
-0.372552 0.247450 0.485525 -0.487604 0.844554 0.221293 169 169 169 255
-0.358705 0.207098 0.670038 -0.487604 0.844554 0.221293 169 169 169 255
-0.333612 0.221586 0.670038 -0.487604 0.844554 0.221293 169 169 169 255
-0.352295 0.203397 0.060000 -0.487604 0.844554 -0.221294 169 169 169 255
-0.333066 0.221224 0.085667 -0.487604 0.844554 -0.221294 169 169 169 255
-0.327650 0.217626 0.060000 -0.487604 0.844554 -0.221294 169 169 169 255
-0.000000 0.406795 0.060000 -0.487604 0.844554 -0.221293 169 169 169 255
-0.025053 0.399056 0.085667 -0.487604 0.844554 -0.221293 169 169 169 255
-0.000000 0.413520 0.085667 -0.487604 0.844554 -0.221293 169 169 169 255
-0.024645 0.392566 0.060000 -0.487604 0.844554 -0.221293 169 169 169 255
-0.333066 0.221224 0.085667 -0.487604 0.844554 -0.221294 169 169 169 255
-0.025053 0.399056 0.085667 -0.487604 0.844554 -0.221293 169 169 169 255
-0.028023 0.446365 0.485525 -0.487605 0.844554 0.221293 169 169 169 255
-0.000000 0.414197 0.670038 -0.487604 0.844554 0.221293 169 169 169 255
-0.000000 0.462543 0.485525 -0.487605 0.844554 0.221293 169 169 169 255
-0.028023 0.446365 0.272763 -0.500001 0.866025 0.000000 169 169 169 255
-0.000000 0.462543 0.485525 -0.500001 0.866025 0.000000 169 169 169 255
-0.000000 0.462543 0.272763 -0.500001 0.866025 0.000000 169 169 169 255
-0.000000 0.413520 0.085667 -0.487604 0.844554 -0.221293 169 169 169 255
-0.028023 0.446365 0.272763 -0.487604 0.844554 -0.221293 169 169 169 255
-0.000000 0.462543 0.272763 -0.487604 0.844554 -0.221293 169 169 169 255
-0.025094 0.399709 0.670038 -0.487604 0.844554 0.221294 169 169 169 255
-0.000000 0.406795 0.698288 -0.487604 0.844554 0.221294 169 169 169 255
-0.000000 0.414197 0.670038 -0.487604 0.844554 0.221294 169 169 169 255
-0.025094 0.399709 0.670038 -0.487604 0.844554 0.221294 169 169 169 255
-0.327650 0.217626 0.698288 -0.487604 0.844554 0.221294 169 169 169 255
-0.024645 0.392566 0.698288 -0.487604 0.844554 0.221294 169 169 169 255
0.358705 0.207098 0.670038 0.975207 -0.000002 0.221295 169 169 169 255
0.400574 0.231272 0.272763 0.975207 -0.000002 -0.221293 169 169 169 255
0.400574 0.231272 0.485525 1.000000 0.000001 0.000000 169 169 169 255
0.400574 0.231272 0.485525 0.975207 0.000001 0.221293 169 169 169 255
0.358119 0.206760 0.085667 0.975207 -0.000002 -0.221295 169 169 169 255
0.352294 -0.174940 0.060000 0.975207 -0.000001 -0.221294 169 169 169 255
0.352294 0.174940 0.060000 0.975207 0.000000 -0.221293 169 169 169 255
0.358705 -0.178123 0.670038 0.975207 -0.000001 0.221293 169 169 169 255
0.400574 -0.198914 0.272763 1.000000 0.000001 0.000000 169 169 169 255
0.358119 -0.177832 0.085667 0.975207 -0.000001 -0.221293 169 169 169 255
0.352294 -0.174940 0.698288 0.975207 -0.000001 0.221294 169 169 169 255
0.352294 0.174940 0.698288 0.975207 0.000000 0.221294 169 169 169 255
-0.358705 -0.207098 0.670038 -0.975207 0.000000 0.221294 169 169 169 255
-0.400574 -0.231272 0.272763 -0.975207 -0.000001 -0.221293 169 169 169 255
-0.400574 -0.231272 0.272763 -1.000000 -0.000001 0.000000 169 169 169 255
-0.400574 -0.231272 0.485525 -0.975207 -0.000001 0.221293 169 169 169 255
-0.358119 -0.206760 0.085667 -0.975207 0.000001 -0.221293 169 169 169 255
-0.352294 0.174940 0.060000 -0.975207 -0.000006 -0.221293 169 169 169 255
-0.352294 -0.174940 0.060000 -0.975207 -0.000000 -0.221293 169 169 169 255
-0.358705 0.178123 0.670038 -0.975207 -0.000006 0.221292 169 169 169 255
-0.400574 0.198914 0.485525 -1.000000 -0.000007 0.000000 169 169 169 255
-0.358119 0.177832 0.085667 -0.975207 -0.000006 -0.221293 169 169 169 255
-0.352294 0.174940 0.698288 -0.975207 -0.000006 0.221293 169 169 169 255
-0.352294 -0.174940 0.698288 -0.975207 -0.000000 0.221295 169 169 169 255
0.000000 -0.414197 0.670038 -0.487603 -0.844555 0.221294 169 169 169 255
0.000000 -0.462543 0.272763 -0.487605 -0.844554 -0.221293 169 169 169 255
0.000000 -0.462543 0.485525 -0.500001 -0.866025 0.000000 169 169 169 255
0.000000 -0.462543 0.485525 -0.487605 -0.844554 0.221293 169 169 169 255
0.000000 -0.413520 0.085667 -0.487603 -0.844555 -0.221294 169 169 169 255
-0.327650 -0.217626 0.060000 -0.487605 -0.844554 -0.221292 169 169 169 255
-0.024645 -0.392566 0.060000 -0.487603 -0.844554 -0.221294 169 169 169 255
-0.333611 -0.221586 0.670038 -0.487604 -0.844554 0.221293 169 169 169 255
-0.372552 -0.247450 0.485525 -0.500000 -0.866026 0.000000 169 169 169 255
-0.333066 -0.221224 0.085667 -0.487603 -0.844555 -0.221293 169 169 169 255
-0.327650 -0.217626 0.698288 -0.487604 -0.844554 0.221293 169 169 169 255
-0.025093 -0.399709 0.670038 -0.487604 -0.844554 0.221294 169 169 169 255
0.358705 -0.207098 0.670038 0.487604 -0.844554 0.221294 169 169 169 255
0.400574 -0.231272 0.272763 0.487605 -0.844554 -0.221293 169 169 169 255
0.400574 -0.231272 0.272763 0.500002 -0.866024 -0.000000 169 169 169 255
0.400574 -0.231272 0.485525 0.487604 -0.844554 0.221293 169 169 169 255
0.358119 -0.206760 0.085667 0.487604 -0.844554 -0.221294 169 169 169 255
0.024645 -0.392566 0.060000 0.487604 -0.844554 -0.221294 169 169 169 255
0.327650 -0.217626 0.060000 0.487604 -0.844554 -0.221295 169 169 169 255
0.025093 -0.399709 0.670038 0.487602 -0.844555 0.221293 169 169 169 255
0.028022 -0.446365 0.485525 0.499999 -0.866026 0.000000 169 169 169 255
0.025052 -0.399056 0.085667 0.487603 -0.844555 -0.221293 169 169 169 255
0.024645 -0.392566 0.698288 0.487603 -0.844554 0.221295 169 169 169 255
0.333612 -0.221586 0.670038 0.487604 -0.844554 0.221295 169 169 169 255
-0.000000 0.414197 0.670038 0.487598 0.844557 0.221295 169 169 169 255
-0.000000 0.462543 0.272763 0.487600 0.844556 -0.221294 169 169 169 255
-0.000000 0.462543 0.272763 0.499996 0.866028 0.000000 169 169 169 255
-0.000000 0.462543 0.485525 0.487600 0.844556 0.221294 169 169 169 255
-0.000000 0.413520 0.085667 0.487598 0.844557 -0.221294 169 169 169 255
0.327650 0.217626 0.060000 0.487603 0.844555 -0.221292 169 169 169 255
0.024645 0.392566 0.060000 0.487603 0.844554 -0.221294 169 169 169 255
0.333611 0.221586 0.670038 0.487603 0.844555 0.221293 169 169 169 255
0.372552 0.247450 0.485525 0.499998 0.866027 0.000000 169 169 169 255
0.333066 0.221224 0.085667 0.487603 0.844555 -0.221293 169 169 169 255
0.327650 0.217626 0.698288 0.487603 0.844555 0.221293 169 169 169 255
0.025093 0.399709 0.670038 0.487604 0.844554 0.221294 169 169 169 255
-0.358705 0.207098 0.670038 -0.487604 0.844554 0.221295 169 169 169 255
-0.400574 0.231272 0.272763 -0.487599 0.844557 -0.221293 169 169 169 255
-0.400575 0.231271 0.485525 -0.500001 0.866025 0.000001 169 169 169 255
-0.400575 0.231271 0.485525 -0.487604 0.844554 0.221293 169 169 169 255
-0.358119 0.206760 0.085667 -0.487604 0.844554 -0.221294 169 169 169 255
-0.024645 0.392566 0.060000 -0.487604 0.844554 -0.221293 169 169 169 255
-0.327650 0.217626 0.060000 -0.487604 0.844554 -0.221294 169 169 169 255
-0.025094 0.399709 0.670038 -0.487604 0.844554 0.221293 169 169 169 255
-0.028023 0.446365 0.485525 -0.500001 0.866025 0.000000 169 169 169 255
-0.025053 0.399056 0.085667 -0.487604 0.844554 -0.221293 169 169 169 255
-0.024645 0.392566 0.698288 -0.487604 0.844554 0.221293 169 169 169 255
-0.333612 0.221586 0.670038 -0.487604 0.844554 0.221294 169 169 169 255
0.400574 0.198914 0.485525 0.975207 0.000000 0.221293 104 79 54 255
0.358705 -0.178123 0.670038 0.975207 0.000000 0.221293 104 79 54 255
0.400574 -0.198914 0.485525 0.975207 0.000000 0.221293 104 79 54 255
0.400574 0.198914 0.272763 1.000000 0.000000 0.000000 104 79 54 255
0.400574 -0.198914 0.485525 1.000000 0.000000 0.000000 104 79 54 255
0.400574 -0.198914 0.272763 1.000000 0.000000 0.000000 104 79 54 255
0.358119 0.177832 0.085667 0.975207 0.000000 -0.221293 104 79 54 255
0.400574 -0.198914 0.272763 0.975207 0.000000 -0.221293 104 79 54 255
0.358119 -0.177832 0.085667 0.975207 0.000000 -0.221293 104 79 54 255
-0.400574 -0.198914 0.485525 -0.975207 0.000000 0.221293 104 79 54 255
-0.358705 0.178123 0.670038 -0.975207 0.000000 0.221293 104 79 54 255
-0.400574 0.198914 0.485525 -0.975207 0.000000 0.221293 104 79 54 255
-0.400574 -0.198914 0.272763 -1.000000 0.000000 0.000000 104 79 54 255
-0.400574 0.198914 0.485525 -1.000000 0.000000 0.000000 104 79 54 255
-0.400574 0.198914 0.272763 -1.000000 0.000000 0.000000 104 79 54 255
-0.358119 0.177832 0.085667 -0.975207 0.000000 -0.221293 104 79 54 255
-0.400574 -0.198914 0.272763 -0.975207 -0.000000 -0.221293 104 79 54 255
-0.400574 0.198914 0.272763 -0.975207 0.000000 -0.221293 104 79 54 255
-0.028022 -0.446365 0.485525 -0.487604 -0.844554 0.221293 104 79 54 255
-0.333611 -0.221586 0.670038 -0.487604 -0.844554 0.221293 104 79 54 255
-0.372552 -0.247450 0.485525 -0.487604 -0.844554 0.221293 104 79 54 255
-0.028022 -0.446365 0.272763 -0.500000 -0.866025 0.000000 104 79 54 255
-0.372552 -0.247450 0.485525 -0.500000 -0.866025 0.000000 104 79 54 255
-0.372552 -0.247450 0.272763 -0.500000 -0.866025 0.000000 104 79 54 255
-0.025052 -0.399056 0.085667 -0.487604 -0.844554 -0.221293 104 79 54 255
-0.372552 -0.247450 0.272763 -0.487604 -0.844554 -0.221293 104 79 54 255
-0.333066 -0.221224 0.085667 -0.487604 -0.844554 -0.221293 104 79 54 255
0.372552 -0.247450 0.485525 0.487604 -0.844554 0.221293 104 79 54 255
0.025093 -0.399709 0.670038 0.487604 -0.844554 0.221293 104 79 54 255
0.028022 -0.446365 0.485525 0.487604 -0.844554 0.221293 104 79 54 255
0.372552 -0.247450 0.272763 0.500000 -0.866025 0.000000 104 79 54 255
0.028022 -0.446365 0.485525 0.500000 -0.866025 0.000000 104 79 54 255
0.028022 -0.446365 0.272763 0.500000 -0.866025 0.000000 104 79 54 255
0.025052 -0.399056 0.085667 0.487604 -0.844554 -0.221293 104 79 54 255
0.372552 -0.247450 0.272763 0.487604 -0.844554 -0.221293 104 79 54 255
0.028022 -0.446365 0.272763 0.487604 -0.844554 -0.221293 104 79 54 255
0.028022 0.446365 0.485525 0.487604 0.844554 0.221293 104 79 54 255
0.333611 0.221586 0.670038 0.487604 0.844554 0.221293 104 79 54 255
0.372552 0.247450 0.485525 0.487604 0.844554 0.221293 104 79 54 255
0.028022 0.446365 0.272763 0.500000 0.866025 0.000000 104 79 54 255
0.372552 0.247450 0.485525 0.500000 0.866025 0.000000 104 79 54 255
0.372552 0.247450 0.272763 0.500000 0.866025 0.000000 104 79 54 255
0.025052 0.399056 0.085667 0.487604 0.844554 -0.221293 104 79 54 255
0.372552 0.247450 0.272763 0.487604 0.844554 -0.221293 104 79 54 255
0.333066 0.221224 0.085667 0.487604 0.844554 -0.221293 104 79 54 255
-0.372552 0.247450 0.485525 -0.487604 0.844554 0.221293 104 79 54 255
-0.025094 0.399709 0.670038 -0.487604 0.844554 0.221293 104 79 54 255
-0.028023 0.446365 0.485525 -0.487604 0.844554 0.221293 104 79 54 255
-0.372552 0.247450 0.272763 -0.500001 0.866025 0.000000 104 79 54 255
-0.028023 0.446365 0.485525 -0.500001 0.866025 0.000000 104 79 54 255
-0.028023 0.446365 0.272763 -0.500001 0.866025 0.000000 104 79 54 255
-0.333066 0.221224 0.085667 -0.487604 0.844554 -0.221293 104 79 54 255
-0.028023 0.446365 0.272763 -0.487604 0.844554 -0.221293 104 79 54 255
-0.025053 0.399056 0.085667 -0.487604 0.844554 -0.221293 104 79 54 255
0.358705 0.178123 0.670038 0.975207 0.000000 0.221293 104 79 54 255
0.400574 0.198914 0.485525 1.000000 0.000000 0.000000 104 79 54 255
0.400574 0.198914 0.272763 0.975207 0.000000 -0.221293 104 79 54 255
-0.358705 -0.178123 0.670038 -0.975207 0.000000 0.221293 104 79 54 255
-0.400574 -0.198914 0.485525 -1.000000 0.000000 0.000000 104 79 54 255
-0.358119 -0.177832 0.085667 -0.975207 -0.000000 -0.221293 104 79 54 255
-0.025093 -0.399709 0.670038 -0.487604 -0.844554 0.221293 104 79 54 255
-0.028022 -0.446365 0.485525 -0.500000 -0.866025 0.000000 104 79 54 255
-0.028022 -0.446365 0.272763 -0.487604 -0.844554 -0.221293 104 79 54 255
0.333612 -0.221586 0.670038 0.487604 -0.844554 0.221293 104 79 54 255
0.372552 -0.247450 0.485525 0.500000 -0.866025 0.000000 104 79 54 255
0.333066 -0.221224 0.085667 0.487604 -0.844554 -0.221293 104 79 54 255
0.025093 0.399709 0.670038 0.487604 0.844554 0.221293 104 79 54 255
0.028022 0.446365 0.485525 0.500000 0.866025 0.000000 104 79 54 255
0.028022 0.446365 0.272763 0.487604 0.844554 -0.221293 104 79 54 255
-0.333612 0.221586 0.670038 -0.487604 0.844554 0.221293 104 79 54 255
-0.372552 0.247450 0.485525 -0.500001 0.866025 0.000000 104 79 54 255
-0.372552 0.247450 0.272763 -0.487604 0.844554 -0.221293 104 79 54 255
3 0 1 2
3 3 4 5
3 6 7 8
3 9 10 11
3 12 13 14
3 15 16 17
3 18 19 20
3 0 21 1
3 3 22 4
3 6 23 7
3 9 24 10
3 14 25 12
3 12 26 13
3 13 27 14
3 15 28 16
3 18 29 19
3 30 31 32
3 33 34 35
3 36 37 38
3 39 40 41
3 42 43 44
3 45 46 47
3 48 49 50
3 30 51 31
3 33 52 34
3 36 53 37
3 39 54 40
3 44 55 42
3 55 56 42
3 56 57 42
3 45 58 46
3 48 59 49
3 60 61 62
3 63 64 65
3 66 67 68
3 69 70 71
3 72 73 74
3 75 76 77
3 78 79 80
3 81 82 83
3 84 85 86
3 87 88 89
3 90 91 92
3 93 94 95
3 96 97 98
3 99 100 101
3 102 103 104
3 105 106 107
3 108 109 110
3 111 112 113
3 114 115 116
3 117 118 119
3 120 121 122
3 123 124 125
3 126 127 128
3 129 130 131
3 132 133 134
3 135 136 137
3 138 139 140
3 141 142 143
3 144 145 146
3 147 148 149
3 150 151 152
3 153 62 61
3 62 154 60
3 154 155 60
3 63 156 64
3 66 157 67
3 69 158 70
3 159 74 73
3 74 160 72
3 160 161 72
3 75 162 76
3 163 80 79
3 80 164 78
3 164 165 78
3 166 167 82
3 167 83 82
3 83 168 81
3 169 86 85
3 86 170 84
3 170 171 84
3 172 89 88
3 89 173 87
3 173 174 87
3 175 92 91
3 92 176 90
3 176 177 90
3 93 178 94
3 96 179 97
3 99 180 100
3 181 104 103
3 104 182 102
3 182 183 102
3 105 184 106
3 185 110 109
3 110 186 108
3 186 187 108
3 111 188 112
3 114 189 115
3 117 190 118
3 120 191 121
3 123 192 124
3 193 194 127
3 194 128 127
3 128 195 126
3 129 196 130
3 132 197 133
3 135 198 136
3 138 199 139
3 141 200 142
3 144 201 145
3 147 202 148
3 203 152 151
3 152 204 150
3 204 205 150
3 206 207 208
3 209 210 211
3 212 213 214
3 215 216 217
3 218 219 220
3 221 222 223
3 224 225 226
3 208 227 206
3 206 228 207
3 207 229 208
3 230 231 232
3 233 234 235
3 236 237 238
3 239 240 241
3 242 243 244
3 245 246 247
3 248 249 250
3 251 252 253
3 254 255 256
3 257 258 259
3 260 261 262
3 263 264 265
3 266 267 268
3 269 270 271
3 272 273 274
3 275 276 277
3 278 279 280
3 281 282 283
3 284 285 286
3 287 288 289
3 290 291 292
3 293 294 295
3 296 297 298
3 299 300 301
3 302 303 304
3 305 306 307
3 308 309 310
3 311 312 313
3 314 315 316
3 317 318 319
3 320 321 322
3 323 324 325
3 326 327 328
3 329 330 331
3 332 333 334
3 335 336 337
3 338 339 340
3 341 342 343
3 344 345 346
3 347 348 349
3 350 351 352
3 353 354 355
3 356 357 358
3 359 360 361
3 362 363 364
3 365 366 367
3 368 369 370
3 371 372 373
3 374 375 376
3 377 378 379
3 380 381 382
3 383 384 385
3 386 387 388
3 389 390 391
3 392 393 394
3 395 396 397
3 398 399 400
3 401 402 403
3 404 405 406
3 407 408 409
3 410 411 412
3 413 414 415
3 416 417 418
3 419 420 421
3 422 423 424
3 425 426 427
3 428 429 430
3 431 432 433
3 434 435 436
3 437 438 439
3 440 441 442
3 443 444 445
3 230 446 231
3 233 447 234
3 236 448 237
3 239 449 240
3 242 450 243
3 245 451 246
3 248 452 249
3 251 453 252
3 254 454 255
3 257 455 258
3 260 456 261
3 263 457 264
3 266 458 267
3 269 459 270
3 272 460 273
3 275 461 276
3 278 462 279
3 281 463 282
3 284 464 285
3 287 465 288
3 290 466 291
3 293 467 294
3 296 468 297
3 299 469 300
3 302 470 303
3 305 471 306
3 308 472 309
3 311 473 312
3 314 474 315
3 317 475 318
3 320 476 321
3 323 477 324
3 326 478 327
3 329 479 330
3 332 480 333
3 335 481 336
3 338 482 339
3 341 483 342
3 344 484 345
3 347 485 348
3 350 486 351
3 353 487 354
3 356 488 357
3 359 489 360
3 362 490 363
3 365 491 366
3 368 492 369
3 371 493 372
3 374 494 375
3 377 495 378
3 380 496 381
3 383 497 384
3 386 498 387
3 389 499 390
3 392 500 393
3 395 501 396
3 398 502 399
3 401 503 402
3 404 504 405
3 407 505 408
3 410 506 411
3 413 507 414
3 416 508 417
3 419 509 420
3 422 510 423
3 425 511 426
3 428 512 429
3 431 513 432
3 434 514 435
3 437 515 438
3 440 516 441
3 443 517 444
3 518 519 520
3 521 522 523
3 524 525 526
3 527 528 529
3 530 531 532
3 533 534 535
3 536 537 538
3 539 540 541
3 542 543 544
3 545 546 547
3 548 549 550
3 551 552 553
3 554 555 556
3 557 558 559
3 560 561 562
3 563 564 565
3 566 567 568
3 569 570 571
3 518 572 519
3 521 573 522
3 524 574 525
3 527 575 528
3 530 576 531
3 533 577 534
3 536 578 537
3 539 579 540
3 542 580 543
3 545 581 546
3 548 582 549
3 551 583 552
3 554 584 555
3 557 585 558
3 560 586 561
3 563 587 564
3 566 588 567
3 569 589 570
