<?xml version="1.0" encoding="UTF-8" standalone="no"?>
<!-- Created with Inkscape (http://www.inkscape.org/) -->

<svg
   width="512"
   height="512"
   viewBox="0 0 512.00001 512.00001"
   version="1.1"
   id="svg5"
   xmlns="http://www.w3.org/2000/svg"
   xmlns:svg="http://www.w3.org/2000/svg">
  <defs
     id="defs2" />
  <g
     id="layer1">
    <path
       style="fill:#e5e5e5;fill-opacity:1;stroke:#c6aecc;stroke-width:25.576;stroke-linecap:round;stroke-linejoin:miter;stroke-dasharray:none;stroke-opacity:1;paint-order:stroke markers fill"
       id="path369-6-3-1-0-6-7-8-4-3"
       d="m 256,298.52337 -35.86935,-21.2617 V 234.73834 L 256,213.47664 l 35.86933,21.2617 2e-5,42.52333 z" />
    <path
       style="fill:#f4a27a;fill-opacity:1;stroke:#dc7759;stroke-width:25.576;stroke-linecap:round;stroke-linejoin:miter;stroke-dasharray:none;stroke-opacity:1;paint-order:stroke markers fill"
       id="path369-6-3-1-0-6-7-8-4-3-6"
       d="m 352.98031,298.52337 -35.86935,-21.2617 v -42.52333 l 35.86935,-21.2617 35.86933,21.2617 10e-6,42.52333 z" />
    <path
       style="fill:#e5e5e5;fill-opacity:1;stroke:#c6aecc;stroke-width:25.576;stroke-linecap:round;stroke-linejoin:miter;stroke-dasharray:none;stroke-opacity:1;paint-order:stroke markers fill"
       id="path369-6-3-1-0-6-7-8-4-3-6-7"
       d="m 449.96059,298.52337 -35.86933,-21.2617 v -42.52333 l 35.86933,-21.2617 35.86935,21.2617 10e-6,42.52333 z" />
    <path
       style="fill:#f4a27a;fill-opacity:1;stroke:#dc7759;stroke-width:25.576;stroke-linecap:round;stroke-linejoin:miter;stroke-dasharray:none;stroke-opacity:1;paint-order:stroke markers fill"
       id="path369-6-3-1-0-6-7-8-4-3-4"
       d="M 207.50985,384.54487 171.6405,363.28318 v -42.52335 l 35.86935,-21.26167 35.86933,21.26167 1e-5,42.52335 z" />
    <path
       style="fill:#f4a27a;fill-opacity:1;stroke:#dc7759;stroke-width:25.576;stroke-linecap:round;stroke-linejoin:miter;stroke-dasharray:none;stroke-opacity:1;paint-order:stroke markers fill"
       id="path369-6-3-1-0-6-7-8-4-3-4-9"
       d="m 159.01969,298.52337 -35.86932,-21.2617 v -42.52333 l 35.86932,-21.2617 35.86933,21.2617 1e-5,42.52333 z" />
    <path
       style="fill:#f4a27a;fill-opacity:1;stroke:#dc7759;stroke-width:25.576;stroke-linecap:round;stroke-linejoin:miter;stroke-dasharray:none;stroke-opacity:1;paint-order:stroke markers fill"
       id="path369-6-3-1-0-6-7-8-4-3-8"
       d="M 304.49015,213.15186 268.6208,191.89017 v -42.52336 l 35.86935,-21.26168 35.86934,21.26168 1e-5,42.52336 z" />
    <path
       style="fill:#e5e5e5;fill-opacity:1;stroke:#c6aecc;stroke-width:25.576;stroke-linecap:round;stroke-linejoin:miter;stroke-dasharray:none;stroke-opacity:1;paint-order:stroke markers fill"
       id="path369-6-3-1-0-6-7-8-4-3-6-9"
       d="M 401.47046,213.15186 365.6011,191.89017 v -42.52336 l 35.86936,-21.26168 35.86933,21.26168 1e-5,42.52336 z" />
    <path
       style="fill:#e5e5e5;fill-opacity:1;stroke:#c6aecc;stroke-width:25.576;stroke-linecap:round;stroke-linejoin:miter;stroke-dasharray:none;stroke-opacity:1;paint-order:stroke markers fill"
       id="path369-6-3-1-0-6-7-8-4-3-8-7"
       d="m 256,127.13036 -35.86935,-21.2617 V 63.345299 L 256,42.083618 l 35.86933,21.26168 2e-5,42.523362 z" />
    <path
       style="fill:#e5e5e5;fill-opacity:1;stroke:#c6aecc;stroke-width:25.576;stroke-linecap:round;stroke-linejoin:miter;stroke-dasharray:none;stroke-opacity:1;paint-order:stroke markers fill"
       id="path369-6-3-1-0-6-7-8-4-3-6-9-1"
       d="m 352.9803,127.13036 -35.86935,-21.2617 V 63.345299 l 35.86935,-21.261681 35.86934,21.26168 v 42.523362 z" />
    <path
       style="fill:#f4a27a;fill-opacity:1;stroke:#dc7759;stroke-width:25.576;stroke-linecap:round;stroke-linejoin:miter;stroke-dasharray:none;stroke-opacity:1;paint-order:stroke markers fill"
       id="path369-6-3-1-0-6-7-8-4-3-4-9-26"
       d="M 207.50985,213.15186 171.6405,191.89017 v -42.52336 l 35.86935,-21.26168 35.86933,21.26168 1e-5,42.52336 z" />
    <path
       style="fill:#e5e5e5;fill-opacity:1;stroke:#c6aecc;stroke-width:25.576;stroke-linecap:round;stroke-linejoin:miter;stroke-dasharray:none;stroke-opacity:1;paint-order:stroke markers fill"
       id="path369-6-3-1-0-6-7-8-4-3-4-9-2"
       d="M 110.52955,384.54487 74.66019,363.28318 v -42.52335 l 35.86936,-21.26167 35.86933,21.26167 1e-5,42.52335 z" />
    <path
       style="fill:#e5e5e5;fill-opacity:1;stroke:#c6aecc;stroke-width:25.576;stroke-linecap:round;stroke-linejoin:miter;stroke-dasharray:none;stroke-opacity:1;paint-order:stroke markers fill"
       id="path369-6-3-1-0-6-7-8-4-3-4-9-0"
       d="m 110.52955,212.50186 -35.86936,-21.2617 v -42.52335 l 35.86936,-21.26168 35.86933,21.26168 1e-5,42.52335 z" />
    <path
       style="fill:#e5e5e5;fill-opacity:1;stroke:#c6aecc;stroke-width:25.576;stroke-linecap:round;stroke-linejoin:miter;stroke-dasharray:none;stroke-opacity:1;paint-order:stroke markers fill"
       id="path369-6-3-1-0-6-7-8-4-3-4-9-26-4"
       d="m 159.01969,127.13036 -35.86932,-21.2617 V 63.345299 l 35.86932,-21.261681 35.86933,21.26168 1e-5,42.523362 z" />
    <path
       style="fill:#e5e5e5;fill-opacity:1;stroke:#c6aecc;stroke-width:25.576;stroke-linecap:round;stroke-linejoin:miter;stroke-dasharray:none;stroke-opacity:1;paint-order:stroke markers fill"
       id="path369-6-3-1-0-6-7-8-4-3-4-9-2-8"
       d="m 62.039386,298.52337 -35.869345,-21.2617 v -42.52333 l 35.869345,-21.2617 35.869339,21.2617 1.1e-5,42.52333 z" />
    <path
       style="fill:#f4a27a;fill-opacity:1;stroke:#dc7759;stroke-width:25.576;stroke-linecap:round;stroke-linejoin:miter;stroke-dasharray:none;stroke-opacity:1;paint-order:stroke markers fill"
       id="path369-6-3-1-0-6-7-8-4-3-4-9-2-0"
       d="M 304.49015,384.54487 268.6208,363.28318 v -42.52335 l 35.86935,-21.26167 35.86934,21.26167 1e-5,42.52335 z" />
    <path
       style="fill:#e5e5e5;fill-opacity:1;stroke:#c6aecc;stroke-width:25.576;stroke-linecap:round;stroke-linejoin:miter;stroke-dasharray:none;stroke-opacity:1;paint-order:stroke markers fill"
       id="path369-6-3-1-0-6-7-8-4-3-4-6"
       d="M 256,470.19587 220.13065,448.93418 V 406.41083 L 256,385.14915 l 35.86933,21.26168 2e-5,42.52335 z" />
    <path
       style="fill:#e5e5e5;fill-opacity:1;stroke:#c6aecc;stroke-width:25.576;stroke-linecap:round;stroke-linejoin:miter;stroke-dasharray:none;stroke-opacity:1;paint-order:stroke markers fill"
       id="path369-6-3-1-0-6-7-8-4-3-4-9-2-4"
       d="m 159.01969,470.19587 -35.86933,-21.26169 v -42.52335 l 35.86933,-21.26168 35.86933,21.26168 1e-5,42.52335 z" />
    <path
       style="fill:#e5e5e5;fill-opacity:1;stroke:#c6aecc;stroke-width:25.576;stroke-linecap:round;stroke-linejoin:miter;stroke-dasharray:none;stroke-opacity:1;paint-order:stroke markers fill"
       id="path369-6-3-1-0-6-7-8-4-3-4-9-2-0-9"
       d="m 352.98031,470.19587 -35.86935,-21.26169 v -42.52335 l 35.86935,-21.26168 35.86933,21.26168 10e-6,42.52335 z" />
    <path
       style="fill:#f4a27a;fill-opacity:1;stroke:#dc7759;stroke-width:25.576;stroke-linecap:round;stroke-linejoin:miter;stroke-dasharray:none;stroke-opacity:1;paint-order:stroke markers fill"
       id="path369-6-3-1-0-6-7-8-4-3-4-9-2-0-9-5"
       d="m 401.47036,384.54487 -35.86934,-21.26169 v -42.52335 l 35.86934,-21.26167 35.86935,21.26167 10e-6,42.52335 z" />
  </g>
</svg>
