ply
format ascii 1.0
comment Created by Blender 3.6.0 - www.blender.org
element vertex 14
property float x
property float y
property float z
property float nx
property float ny
property float nz
property uchar red
property uchar green
property uchar blue
property uchar alpha
element face 8
property list uchar uint vertex_indices
end_header
-0.750000 -0.583078 0.062500 -0.000000 0.000000 1.000000 0 0 0 255
-0.083320 0.083461 0.062500 -0.000000 0.000000 1.000000 0 0 0 255
-0.750000 0.083461 0.062500 -0.000000 0.000000 1.000000 0 0 0 255
0.583359 0.750000 0.062500 -0.000000 0.000000 1.000000 0 0 0 255
-0.083320 0.750000 0.062500 -0.000000 0.000000 1.000000 0 0 0 255
-0.083320 -0.583078 0.062500 -0.000000 0.000000 1.000000 0 0 0 255
0.583359 0.083461 0.062500 -0.000000 0.000000 1.000000 0 0 0 255
-0.750000 0.083461 0.031250 -0.000000 0.000000 1.000000 244 0 255 255
-0.083320 0.750000 0.031250 -0.000000 0.000000 1.000000 244 0 255 255
-0.750000 0.750000 0.031250 -0.000000 0.000000 1.000000 244 0 255 255
-0.083320 -0.583078 0.031250 -0.000000 0.000000 1.000000 244 0 255 255
0.583359 0.083461 0.031250 -0.000000 0.000000 1.000000 244 0 255 255
-0.083320 0.083461 0.031250 -0.000000 0.000000 1.000000 244 0 255 255
0.583359 -0.583078 0.031250 -0.000000 0.000000 1.000000 244 0 255 255
3 0 1 2
3 1 3 4
3 0 5 1
3 1 6 3
3 7 8 9
3 10 11 12
3 7 12 8
3 10 13 11
