ply
format ascii 1.0
comment Created by Blender 3.6.0 - www.blender.org
element vertex 23
property float x
property float y
property float z
property float nx
property float ny
property float nz
property uchar red
property uchar green
property uchar blue
property uchar alpha
element face 8
property list uchar uint vertex_indices
end_header
-1.000000 -0.999617 0.020833 -0.000000 0.000000 1.000000 0 0 0 255
0.000020 0.000191 0.020834 -0.000000 0.000000 1.000000 0 0 0 255
-1.000000 0.000191 0.020833 -0.000000 0.000000 1.000000 0 0 0 255
0.000020 0.000191 0.020834 -0.000000 0.000000 1.000000 0 0 0 255
1.000040 1.000000 0.020834 -0.000000 0.000000 1.000000 0 0 0 255
0.000020 1.000000 0.020834 -0.000000 0.000000 1.000000 0 0 0 255
-1.000000 -0.999617 0.020833 -0.000000 0.000000 1.000000 0 0 0 255
0.000020 -0.999617 0.020834 -0.000000 0.000000 1.000000 0 0 0 255
0.000020 0.000191 0.020834 -0.000000 0.000000 1.000000 0 0 0 255
0.000020 0.000191 0.020834 -0.000000 0.000000 1.000000 0 0 0 255
1.000040 0.000191 0.020834 -0.000000 0.000000 1.000000 0 0 0 255
1.000040 1.000000 0.020834 -0.000000 0.000000 1.000000 0 0 0 255
-1.000000 0.000191 0.041667 -0.000000 0.000000 1.000000 244 0 255 255
0.000020 1.000000 0.041667 -0.000000 0.000000 1.000000 244 0 255 255
-1.000000 1.000000 0.041667 -0.000000 0.000000 1.000000 244 0 255 255
0.000020 -0.999617 0.041667 -0.000000 0.000000 1.000000 244 0 255 255
1.000040 0.000191 0.041667 -0.000000 0.000000 1.000000 244 0 255 255
0.000020 0.000191 0.041667 -0.000000 0.000000 1.000000 244 0 255 255
-1.000000 0.000191 0.041667 -0.000000 0.000000 1.000000 244 0 255 255
0.000020 1.000000 0.041667 -0.000000 0.000000 1.000000 244 0 255 255
0.000020 -0.999617 0.041667 -0.000000 0.000000 1.000000 244 0 255 255
1.000040 -0.999617 0.041667 -0.000000 0.000000 1.000000 244 0 255 255
1.000040 0.000191 0.041667 -0.000000 0.000000 1.000000 244 0 255 255
3 0 1 2
3 3 4 5
3 6 7 8
3 9 10 11
3 12 13 14
3 15 16 17
3 18 17 19
3 20 21 22
