ply
format ascii 1.0
comment Created by Blender 3.2.0 - www.blender.org
element vertex 28
property float x
property float y
property float z
property uchar red
property uchar green
property uchar blue
property uchar alpha
element face 36
property list uchar uint vertex_indices
end_header
0.000000 0.000000 0.000000 186 173 204 255
0.000000 0.500000 0.000000 186 173 204 255
0.433013 0.250000 0.000000 186 173 204 255
0.000000 0.000000 0.000100 186 173 204 255
0.433013 0.250000 0.000100 186 173 204 255
0.000000 0.500000 0.000100 186 173 204 255
0.433013 -0.250000 0.000000 186 173 204 255
0.433013 -0.250000 0.000100 186 173 204 255
-0.000000 -0.500000 0.000000 186 173 204 255
-0.000000 -0.500000 0.000100 186 173 204 255
-0.433013 -0.250000 0.000000 186 173 204 255
-0.433013 -0.250000 0.000100 186 173 204 255
-0.433013 0.250000 0.000000 186 173 204 255
-0.433013 0.250000 0.000100 186 173 204 255
0.000000 0.000000 0.000100 204 204 204 255
0.000000 0.400000 0.000100 204 204 204 255
0.346410 0.200000 0.000100 204 204 204 255
0.000000 0.000000 0.000200 204 204 204 255
0.346410 0.200000 0.000200 204 204 204 255
0.000000 0.400000 0.000200 204 204 204 255
0.346410 -0.200000 0.000100 204 204 204 255
0.346410 -0.200000 0.000200 204 204 204 255
-0.000000 -0.400000 0.000100 204 204 204 255
-0.000000 -0.400000 0.000200 204 204 204 255
-0.346410 -0.200000 0.000100 204 204 204 255
-0.346410 -0.200000 0.000200 204 204 204 255
-0.346410 0.200000 0.000100 204 204 204 255
-0.346410 0.200000 0.000200 204 204 204 255
3 0 1 2
3 3 4 5
4 1 5 4 2
3 0 2 6
3 3 7 4
4 2 4 7 6
3 0 6 8
3 3 9 7
4 6 7 9 8
3 0 8 10
3 3 11 9
4 8 9 11 10
3 0 10 12
3 3 13 11
4 10 11 13 12
3 0 12 1
3 3 5 13
4 12 13 5 1
3 14 15 16
3 17 18 19
4 15 19 18 16
3 14 16 20
3 17 21 18
4 16 18 21 20
3 14 20 22
3 17 23 21
4 20 21 23 22
3 14 22 24
3 17 25 23
4 22 23 25 24
3 14 24 26
3 17 27 25
4 24 25 27 26
3 14 26 15
3 17 19 27
4 26 27 19 15
